<svg xmlns="http://www.w3.org/2000/svg" width="450" height="450" viewBox="0 0 450 450">
  <path d="M225,0C100.74,0,0,100.74,0,225A223.99952,223.99952,0,0,0,46.89014,362.5a226.41607,226.41607,0,0,0,35.28,36.36,225.02632,225.02632,0,0,0,285.65991,0,226.42672,226.42672,0,0,0,35.28-36.36A224.00086,224.00086,0,0,0,450,225C450,100.74,349.26,0,225,0Zm0,400a174.18318,174.18318,0,0,1-108.25-37.5,174.99083,174.99083,0,0,1,216.5,0A174.18265,174.18265,0,0,1,225,400ZM175,200a50,50,0,1,1,50,50A50.05682,50.05682,0,0,1,175,200Zm106.83008,82.24a100,100,0,1,0-113.66016,0,224.36013,224.36013,0,0,0-85.99975,43.9,174.99988,174.99988,0,1,1,285.65991,0A224.36117,224.36117,0,0,0,281.83008,282.24Z" style="fill: #000026"/>
</svg>
