<svg xmlns="http://www.w3.org/2000/svg" width="450" height="450" viewBox="0 0 450 450">
  <path d="M400,375V375a25,25,0,0,1-25,25H75a25,25,0,0,1-25-25v0a25,25,0,0,1,25-25H375A25,25,0,0,1,400,375ZM179.58761,50H120.41239A20.41239,20.41239,0,0,0,100,70.41239V279.58761A20.41239,20.41239,0,0,0,120.41239,300h59.17522A20.41239,20.41239,0,0,0,200,279.58761V70.41239A20.41239,20.41239,0,0,0,179.58761,50Zm150,100H270.41239A20.41239,20.41239,0,0,0,250,170.41239V279.58761A20.41239,20.41239,0,0,0,270.41239,300h59.17522A20.41239,20.41239,0,0,0,350,279.58761V170.41239A20.41239,20.41239,0,0,0,329.58761,150Z"/>
</svg>
