<svg xmlns="http://www.w3.org/2000/svg" width="450" height="450" viewBox="0 0 450 450">
  <path d="M75,400H75a25,25,0,0,1-25-25V75A25,25,0,0,1,75,50H75a25,25,0,0,1,25,25V375A25,25,0,0,1,75,400ZM400,179.58761V120.41239A20.41239,20.41239,0,0,0,379.58761,100H170.41239A20.41239,20.41239,0,0,0,150,120.41239v59.17522A20.41239,20.41239,0,0,0,170.41239,200H379.58761A20.41239,20.41239,0,0,0,400,179.58761Zm-100,150V270.41239A20.41239,20.41239,0,0,0,279.58761,250H170.41239A20.41239,20.41239,0,0,0,150,270.41239v59.17522A20.41239,20.41239,0,0,0,170.41239,350H279.58761A20.41239,20.41239,0,0,0,300,329.58761Z"/>
</svg>
