<?xml version="1.0" encoding="UTF-8"?>
<svg id="b" data-name="Layer 1" xmlns="http://www.w3.org/2000/svg" width="24" height="24" viewBox="0 0 24 24">
  <path d="M7.487,21c-2.557,0-4.343-2.319-4.344-5.641,0-2.563,.854-5.592,2.229-7.903,1.712-2.874,4.065-4.457,6.627-4.457,1.42,0,3.432,1.238,4.048,3.014,.182,.522-.095,1.092-.616,1.273-.524,.18-1.092-.096-1.272-.617-.341-.981-1.604-1.67-2.159-1.67-2.468,0-4.135,2.18-4.908,3.48-1.203,2.019-1.949,4.655-1.948,6.878,0,1.812,.726,3.642,2.344,3.642,3.391,0,6.686-4.528,10.073-13.842,.188-.519,.762-.786,1.281-.598,.406,.148,.658,.531,.658,.939,0,.114-.02,.229-.061,.342-2.723,7.489-2.919,12.166-1.721,12.763,.523,.124,1.005-.44,1.2-.904,.193-.519,.769-.781,1.286-.589,.518,.193,.781,.768,.589,1.286-.341,.916-1.097,1.699-1.973,2.045-.684,.271-1.392,.252-1.995-.048-1.474-.735-1.904-2.645-1.774-4.979-2.37,3.811-4.821,5.584-7.564,5.584Z"/>
</svg>