<?xml version="1.0" encoding="UTF-8"?>
<svg id="a" data-name="Layer 1" xmlns="http://www.w3.org/2000/svg" width="450" height="450" viewBox="0 0 450 450">
  <path d="M442.67993,82.31982c-4.51978-4.52002-10.78003-7.31982-17.67993-7.31982H150c-3.19995,0-6.3999,.60986-9.40991,1.83008-3.01001,1.21973-5.83008,3.0498-8.27002,5.48975L7.31982,207.31982c-9.75977,9.77002-9.75977,25.6001,0,35.35986l125.00024,125c4.87988,4.88037,11.28003,7.32031,17.67993,7.32031H425c6.8999,0,13.16016-2.7998,17.67993-7.32031,4.52002-4.52979,7.32007-10.76953,7.32007-17.67969V100c0-6.91016-2.80005-13.1499-7.32007-17.68018Zm-114.6499,195.72021c-9.76001,9.75977-25.59009,9.75977-35.3501,0l-17.67993-17.68018-17.67993,17.68018c-4.88013,4.87988-11.28003,7.31982-17.67993,7.31982-6.39014,0-12.79004-2.43994-17.67017-7.31982-9.77002-9.77002-9.77002-25.6001,0-35.36035l17.67017-17.67969-17.67017-17.68018c-4.88989-4.87988-7.32983-11.27979-7.32983-17.66992,0-6.3999,2.43994-12.7998,7.32983-17.68018,9.76001-9.75977,25.59009-9.75977,35.3501,0l17.67993,17.68018,17.67993-17.68018c4.88013-4.87988,11.28003-7.31982,17.67993-7.31982,6.39014,0,12.79004,2.43994,17.67017,7.31982,9.77002,9.76025,9.77002,25.59033,0,35.3501l-17.67017,17.68018,17.67017,17.67969c4.88989,4.88037,7.32983,11.28027,7.32983,17.68018,0,6.39014-2.43994,12.79004-7.32983,17.68018Z"/>
</svg>