<?xml version="1.0" encoding="UTF-8"?>
<svg id="a" data-name="Layer 1" xmlns="http://www.w3.org/2000/svg" width="450" height="450" viewBox="0 0 450 450">
  <path d="M424.99994,75H149.99994c-6.39819,0-12.79614,2.44092-17.67749,7.32227L7.32245,207.32227c-9.76318,9.76318-9.76318,25.59229,0,35.35547l125,125c4.88135,4.88135,11.2793,7.32227,17.67749,7.32227H424.99994c13.80713,0,25-11.19287,25-25h0V100h0c0-13.80713-11.19287-25-25-25ZM60.35516,225l100-100h239.64478v200H160.35516L60.35516,225Zm161.61182-17.67773c-9.76318-9.76318-9.76318-25.59229,0-35.35498v-.00049c9.76294-9.7627,25.59204-9.7627,35.35522,0l17.67773,17.67773,17.67749-17.67773c9.76318-9.7627,25.59229-9.7627,35.35547,0v.00049c9.76318,9.7627,9.76318,25.5918,0,35.35498l-17.67773,17.67773,17.67773,17.67773c9.76318,9.76318,9.76318,25.59229,0,35.35547h0c-9.76318,9.76318-25.59229,9.76318-35.35547,0l-17.67749-17.67773-17.67773,17.67773c-9.76318,9.76318-25.59229,9.76318-35.35522,0-9.76318-9.76318-9.76318-25.59229,0-35.35547l17.67749-17.67773-17.67749-17.67773Z"/>
</svg>