<?xml version="1.0" encoding="UTF-8"?>
<svg id="uuid-a1fbc7dd-bb54-4e8a-87f2-e0cf99018c12" data-name="Layer 1" xmlns="http://www.w3.org/2000/svg" width="24" height="24" viewBox="0 0 24 24">
  <path d="M20,2.71h-5.417c-1.016,0-1.93,.429-2.583,1.11-.653-.682-1.566-1.111-2.583-1.111H4c-.552,0-1,.449-1,1.001v14c0,.266,.105,.52,.293,.707s.442,.293,.707,.293h5.417c.873,0,1.583,.709,1.583,1.581,0,.553,.448,1,1,1s1-.447,1-1c0-.872,.71-1.582,1.583-1.582h5.417c.265,0,.52-.104,.707-.292s.293-.441,.293-.707V3.71c0-.552-.448-1-1-1Zm-9,14.368c-.478-.236-1.015-.369-1.583-.369H5s0-11.999,0-11.999h4.417c.873,0,1.583,.709,1.583,1.581v10.787Zm8-.368h-4.417c-.568,0-1.105,.132-1.583,.368V6.291c0-.872,.71-1.582,1.583-1.582h4.417v12.001Z"/>
</svg>