<?xml version="1.0" encoding="UTF-8"?>
<svg id="uuid-54f81cf5-9ecf-43d6-9262-f2647ff53112" data-name="Layer 1" xmlns="http://www.w3.org/2000/svg" width="24" height="24" viewBox="0 0 24 24">
  <path d="M6.62,4.593c-.67,1.05-1.384,2.206-1.573,3.447-.051,.81,.783,1.276,1.356,.651,.85-.923,1.575-1.953,2.42-2.88,.786-.863,1.773-1.836,2.993-1.964,.714-.075,1.443,.173,2.013,.61,3.254,2.494,.048,6.213-1.857,8.313-.801,.883-1.606,1.756-2.225,2.779-.46,.761-.541,1.428-.282,1.715,1.092,1.167,3.347-2.504,4.04-3.382,.998-1.419,1.953-2.998,2.737-4.504,.476-.792,1.228-1.377,2.18-1.352,.862,.023,1.722,.464,2.191,1.196,1.032,1.613-.22,3.213-1.1,4.546-.945,1.434-2.011,2.801-3.23,4.015-1.991,1.982-4.855,3.952-7.792,2.946-2.549-.955-3.076-3.656-2.311-5.292,1.002-2.439,3.226-3.981,4.639-5.793,.473-.542,2.29-2.63,.841-2.809-.206,.01-.397,.113-.554,.245-.59,.498-1.084,1.127-1.599,1.699-.525,.583-1.068,1.151-1.695,1.627-.407,.309-.874,.582-1.35,.769-.453,.178-.952,.267-1.429,.175-.485-.093-.925-.371-1.254-.739-.742-.831-.911-1.941-.681-2.998,.336-1.546,1.061-2.847,1.889-4.161,.301-.463,.918-.592,1.378-.289,.476,.312,.594,.968,.258,1.429Z"/>
</svg>