<?xml version="1.0" encoding="UTF-8"?>
<svg id="b" data-name="Layer 1" xmlns="http://www.w3.org/2000/svg" width="24" height="24" viewBox="0 0 24 24">
  <path d="M21.96002,9.23999l-10.51001,10.47998c-.66003,.66003-1.53003,1.02002-2.47003,1.02002s-1.82001-.37-2.47998-1.03998L2.02002,15.17999c-.66003-.66003-1.02002-1.53998-1.01001-2.47998,0-.93005,.37-1.81,1.02997-2.47003,.66003-.65002,1.54004-1.01001,2.47003-1.01001,.94,0,1.82001,.37,2.47998,1.04004l2.01001,2.01996L17.02002,4.27997c.65997-.65997,1.53998-1.01996,2.46997-1.01996,.94,0,1.82001,.37,2.47998,1.02997,1.36005,1.37,1.36005,3.59003-.00995,4.95001Z" style="fill: blue;"/>
  <path d="M8.98302,18.73969h-.00488c-.39844-.00146-.78027-.16113-1.06104-.44434L3.44102,13.77631c-.58301-.58887-.57812-1.53857,.01025-2.12158,.58789-.5835,1.53711-.5791,2.12158,.01025l3.41699,3.44971L18.43419,5.69818c.58691-.58545,1.53613-.58447,2.12109,.00293,.58496,.58643,.5835,1.53613-.00293,2.12109l-10.51025,10.47949c-.28125,.28076-.66211,.43799-1.05908,.43799Z"/>
</svg>