<?xml version="1.0" encoding="UTF-8"?>
<svg id="b" data-name="Layer 1" xmlns="http://www.w3.org/2000/svg" width="24" height="24" viewBox="0 0 24 24">
  <path d="M21.97,4.29c-.66-.66-1.54-1.03-2.48-1.03-.93,0-1.81,.36-2.47,1.02L9,12.28l-2.01-2.02c-.66-.67-1.54-1.04-2.48-1.04-.93,0-1.81,.36-2.47,1.01-.66,.66-1.03,1.54-1.03,2.47-.01,.94,.35,1.82,1.01,2.48l4.48,4.52c.66,.67,1.54,1.04,2.48,1.04s1.81-.36,2.47-1.02l10.51-10.48c1.37-1.36,1.37-3.58,.01-4.95Zm-1.42,3.53l-10.51,10.48c-.28,.28-.66,.44-1.06,.44s-.78-.16-1.06-.44L3.44,13.78c-.58-.59-.58-1.54,.01-2.13,.59-.58,1.54-.57,2.12,.01l3.42,3.45L18.43,5.7c.59-.59,1.54-.59,2.13,0,.58,.59,.58,1.54-.01,2.12Z"/>
</svg>