<?xml version="1.0" encoding="utf-8"?>
<!-- Generator: Adobe Adobe Illustrator 24.2.0, SVG Export Plug-In . SVG Version: 6.00 Build 0)  -->
<svg version="1.1" xmlns="http://www.w3.org/2000/svg" xmlns:xlink="http://www.w3.org/1999/xlink" x="0px" y="0px" width="24px"
	 height="24px" viewBox="0 0 24 24" style="enable-background:new 0 0 24 24;" xml:space="preserve">
<style type="text/css">
	.st0{fill:#0000FF;}
	.st1{display:none;fill:#2741FF;}
	.st2{display:none;}
	.st3{display:inline;fill:#7C7C7C;}
	.st4{display:inline;}
	.st5{fill:#7C7C7C;}
</style>
<g id="guides">
</g>
<g id="Layer_1">
	<g>
		<path class="st0" d="M9,19.7C9,19.7,9,19.7,9,19.7c-0.7,0-1.3-0.3-1.8-0.7l-4.5-4.5c-1-1-1-2.6,0-3.5c1-1,2.6-1,3.5,0L9,13.7
			L17.7,5c1-1,2.6-1,3.5,0c1,1,1,2.6,0,3.5L10.7,19C10.3,19.5,9.6,19.7,9,19.7z"/>
		<path d="M9,18.7C9,18.7,9,18.7,9,18.7c-0.4,0-0.8-0.2-1.1-0.4l-4.5-4.5c-0.6-0.6-0.6-1.5,0-2.1c0.6-0.6,1.5-0.6,2.1,0L9,15.1
			l9.4-9.4c0.6-0.6,1.5-0.6,2.1,0c0.6,0.6,0.6,1.5,0,2.1L10,18.3C9.8,18.6,9.4,18.7,9,18.7z"/>
	</g>
</g>
</svg>
