<?xml version="1.0" encoding="UTF-8"?>
<svg id="b" data-name="Layer 1" xmlns="http://www.w3.org/2000/svg" width="24" height="24" viewBox="0 0 24 24">
  <path d="M21.96,9.24l-10.51,10.48c-.66,.66-1.53,1.02-2.47,1.02s-1.82-.37-2.48-1.04L2.02,15.18c-.66-.66-1.02-1.54-1.01-2.48,0-.93,.37-1.81,1.03-2.47,.66-.65,1.54-1.01,2.47-1.01,.94,0,1.82,.37,2.48,1.04l2.01,2.02L17.02,4.28c.66-.66,1.54-1.02,2.47-1.02,.94,0,1.82,.37,2.48,1.03,1.36,1.37,1.36,3.59-.01,4.95Z" fill="blue"/>
  <path d="M8.983,18.74h-.005c-.398-.001-.78-.161-1.061-.444L3.441,13.776c-.583-.589-.578-1.539,.01-2.122,.588-.583,1.537-.579,2.122,.01l3.417,3.45L18.434,5.698c.587-.585,1.536-.584,2.121,.003,.585,.586,.583,1.536-.003,2.121l-10.51,10.479c-.281,.281-.662,.438-1.059,.438Z"/>
</svg>