<?xml version="1.0" encoding="UTF-8"?>
<svg id="b" data-name="Layer 1" xmlns="http://www.w3.org/2000/svg" width="24" height="24" viewBox="0 0 24 24">
  <path d="M11.00146,4.06936c-.49463,0-.92432-.3667-.99023-.87061-.07129-.54736,.31445-1.04932,.8623-1.12109,.75342-.09814,1.50977-.10107,2.24219-.00781,.54785,.06982,.93555,.57031,.86621,1.11816-.06982,.54834-.5835,.93457-1.11816,.86621-.56445-.07275-1.14648-.06982-1.73145,.00684-.04395,.00537-.0874,.0083-.13086,.0083Z" style="fill: blue;"/>
  <path d="M20.93945,13.98977c-.04248,0-.08496-.00244-.12744-.00781-.54785-.06982-.93555-.57031-.86621-1.11816,.07178-.56445,.06982-1.14697-.00684-1.73145-.07129-.54736,.31445-1.04932,.8623-1.12109,.54492-.07373,1.0498,.31396,1.12109,.8623,.09814,.75391,.10107,1.5083,.00781,2.24219-.06445,.50537-.49463,.87402-.99072,.87402Z" style="fill: blue;"/>
  <path d="M11.96777,21.99808c-.36475,0-.72656-.02246-1.0835-.06836-.54785-.06934-.93555-.57031-.86621-1.11768,.06982-.54883,.57617-.93506,1.11816-.86621,.56396,.07227,1.14697,.06934,1.73145-.00684,.54639-.06201,1.04932,.31396,1.12109,.8623,.07129,.54736-.31445,1.04932-.8623,1.12061-.38672,.05078-.77441,.07617-1.15869,.07617Z" style="fill: blue;"/>
  <path d="M3.06787,13.9971c-.49463,0-.92432-.3667-.99023-.87061-.09814-.75391-.10107-1.5083-.00781-2.24219,.06982-.54883,.57568-.93652,1.11816-.86621,.54785,.06982,.93555,.57031,.86621,1.11816-.07178,.56445-.06982,1.14697,.00684,1.73145,.07129,.54736-.31445,1.04932-.8623,1.12109-.04395,.00586-.0874,.0083-.13086,.0083Z" style="fill: blue;"/>
  <path d="M4.27734,8.37552c-.17285,0-.34814-.04492-.50781-.13916-.47559-.28076-.6333-.89404-.35205-1.36963,.40918-.69238,.91797-1.34424,1.51221-1.93799,.57471-.57568,1.21826-1.08203,1.91113-1.50439,.47217-.28906,1.08643-.13818,1.37451,.3335,.28711,.47168,.13818,1.08691-.3335,1.37451-.55713,.33936-1.07471,.74707-1.53809,1.21045-.47607,.47559-.88086,.99414-1.20459,1.5415-.18652,.31592-.51953,.49121-.86182,.49121Z"/>
  <path d="M7.37451,20.72171c-.17285,0-.34814-.04492-.50781-.13916-.69238-.40918-1.34424-.91797-1.93799-1.51221-.57568-.57471-1.08203-1.21826-1.50439-1.91113-.28711-.47168-.13818-1.08691,.3335-1.37451,.47119-.28906,1.08691-.13818,1.37451,.3335,.33936,.55713,.74707,1.07471,1.21045,1.53809,.47559,.47607,.99414,.88086,1.5415,1.20459,.47559,.28076,.6333,.89404,.35205,1.36963-.18652,.31592-.51953,.49121-.86182,.49121Z"/>
  <path d="M16.63965,20.72171c-.3374,0-.6665-.17041-.85498-.47949-.28711-.47168-.13818-1.08691,.3335-1.37451,.55713-.33936,1.07471-.74707,1.53809-1.21045,.47607-.47559,.88086-.99414,1.20459-1.5415,.28076-.4751,.89355-.63232,1.36963-.35205,.47559,.28076,.6333,.89404,.35205,1.36963-.40918,.69238-.91797,1.34424-1.51221,1.93799-.57471,.57568-1.21826,1.08203-1.91113,1.50439-.1626,.09912-.34229,.146-.51953,.146Z"/>
  <path d="M19.72266,8.36136c-.3374,0-.6665-.17041-.85498-.47949-.33936-.55713-.74707-1.07471-1.21045-1.53809-.47559-.47607-.99414-.88086-1.5415-1.20459-.47559-.28076-.6333-.89404-.35205-1.36963,.28125-.47607,.89404-.6333,1.36963-.35205,.69238,.40918,1.34424,.91797,1.93799,1.51221,.57568,.57471,1.08203,1.21826,1.50439,1.91113,.28711,.47168,.13818,1.08691-.3335,1.37451-.1626,.09912-.34229,.146-.51953,.146Z"/>
</svg>