<?xml version="1.0" encoding="UTF-8"?>
<svg id="b" data-name="Layer 1" xmlns="http://www.w3.org/2000/svg" width="24" height="24" viewBox="0 0 24 24">
  <path d="M11.001,4.069c-.495,0-.924-.367-.99-.871-.071-.547,.314-1.049,.862-1.121,.753-.098,1.51-.101,2.242-.008,.548,.07,.936,.57,.866,1.118-.07,.548-.583,.935-1.118,.866-.564-.073-1.146-.07-1.731,.007-.044,.005-.087,.008-.131,.008Z" fill="blue"/>
  <path d="M20.939,13.99c-.042,0-.085-.002-.127-.008-.548-.07-.936-.57-.866-1.118,.072-.564,.07-1.147-.007-1.731-.071-.547,.314-1.049,.862-1.121,.545-.074,1.05,.314,1.121,.862,.098,.754,.101,1.508,.008,2.242-.064,.505-.495,.874-.991,.874Z" fill="blue"/>
  <path d="M11.968,21.998c-.365,0-.727-.022-1.083-.068-.548-.069-.936-.57-.866-1.118,.07-.549,.576-.935,1.118-.866,.564,.072,1.147,.069,1.731-.007,.546-.062,1.049,.314,1.121,.862,.071,.547-.314,1.049-.862,1.121-.387,.051-.774,.076-1.159,.076Z" fill="blue"/>
  <path d="M3.068,13.997c-.495,0-.924-.367-.99-.871-.098-.754-.101-1.508-.008-2.242,.07-.549,.576-.937,1.118-.866,.548,.07,.936,.57,.866,1.118-.072,.564-.07,1.147,.007,1.731,.071,.547-.314,1.049-.862,1.121-.044,.006-.087,.008-.131,.008Z" fill="blue"/>
  <path d="M4.277,8.376c-.173,0-.348-.045-.508-.139-.476-.281-.633-.894-.352-1.37,.409-.692,.918-1.344,1.512-1.938,.575-.576,1.218-1.082,1.911-1.504,.472-.289,1.086-.138,1.375,.333,.287,.472,.138,1.087-.333,1.375-.557,.339-1.075,.747-1.538,1.21-.476,.476-.881,.994-1.205,1.542-.187,.316-.52,.491-.862,.491Z"/>
  <path d="M7.375,20.722c-.173,0-.348-.045-.508-.139-.692-.409-1.344-.918-1.938-1.512-.576-.575-1.082-1.218-1.504-1.911-.287-.472-.138-1.087,.333-1.375,.471-.289,1.087-.138,1.375,.333,.339,.557,.747,1.075,1.21,1.538,.476,.476,.994,.881,1.542,1.205,.476,.281,.633,.894,.352,1.37-.187,.316-.52,.491-.862,.491Z"/>
  <path d="M16.64,20.722c-.337,0-.667-.17-.855-.479-.287-.472-.138-1.087,.333-1.375,.557-.339,1.075-.747,1.538-1.21,.476-.476,.881-.994,1.205-1.542,.281-.475,.894-.632,1.37-.352,.476,.281,.633,.894,.352,1.37-.409,.692-.918,1.344-1.512,1.938-.575,.576-1.218,1.082-1.911,1.504-.163,.099-.342,.146-.52,.146Z"/>
  <path d="M19.723,8.361c-.337,0-.667-.17-.855-.479-.339-.557-.747-1.075-1.21-1.538-.476-.476-.994-.881-1.542-1.205-.476-.281-.633-.894-.352-1.37,.281-.476,.894-.633,1.37-.352,.692,.409,1.344,.918,1.938,1.512,.576,.575,1.082,1.218,1.504,1.911,.287,.472,.138,1.087-.333,1.375-.163,.099-.342,.146-.52,.146Z"/>
</svg>