<svg xmlns="http://www.w3.org/2000/svg" width="450" height="450" viewBox="0 0 450 450">
  <path d="M81.1039,52.02435A226.28678,226.28678,0,0,0,52.02594,81.106a24.73264,24.73264,0,0,0,5.76789,36.58034l.37348.23973a24.87253,24.87253,0,0,0,32.534-5.12687,175.96569,175.96569,0,0,1,22.09986-22.09956A24.87233,24.87233,0,0,0,117.92945,58.168l-.24111-.37573A24.73255,24.73255,0,0,0,81.1039,52.02435Zm251.20763,5.76788-.24113.37575a24.87236,24.87236,0,0,0,5.12829,32.53172,175.96627,175.96627,0,0,1,22.09987,22.09954,24.87254,24.87254,0,0,0,32.534,5.12683l.37344-.2397a24.73264,24.73264,0,0,0,5.76787-36.5803A226.287,226.287,0,0,0,368.896,52.02437,24.73257,24.73257,0,0,0,332.31153,57.79223Zm79.66871,99.8957-.43227.15557a24.79045,24.79045,0,0,0-15.77178,28.77244,176.52033,176.52033,0,0,1,0,76.76812A24.79045,24.79045,0,0,0,411.548,292.1565l.43227.15557a24.8052,24.8052,0,0,0,32.5947-17.97341,227.06981,227.06981,0,0,0,0-98.67732A24.8052,24.8052,0,0,0,411.98024,157.68793ZM292.15491,411.54917a24.79018,24.79018,0,0,0-28.767-15.77127,176.62547,176.62547,0,0,1-76.7759,0,24.79017,24.79017,0,0,0-28.767,15.77127l-.15479.43a24.80513,24.80513,0,0,0,17.9729,32.59633,227.07611,227.07611,0,0,0,98.67372,0,24.80513,24.80513,0,0,0,17.97289-32.59633ZM58.16731,332.0739l-.37348.23973A24.73264,24.73264,0,0,0,52.02594,368.894a226.28678,226.28678,0,0,0,29.078,29.08168,24.73255,24.73255,0,0,0,36.58444-5.76787l.24111-.37573a24.87233,24.87233,0,0,0-5.12829-32.53172A175.96569,175.96569,0,0,1,90.7013,337.20077,24.87253,24.87253,0,0,0,58.16731,332.0739Zm301.13125,5.12686a175.96627,175.96627,0,0,1-22.09987,22.09954A24.87236,24.87236,0,0,0,332.0704,391.832l.24113.37575a24.73257,24.73257,0,0,0,36.58446,5.76786,226.287,226.287,0,0,0,29.07788-29.0817,24.73264,24.73264,0,0,0-5.76787-36.5803l-.37344-.2397A24.87254,24.87254,0,0,0,359.29856,337.20076ZM225,0a225.82158,225.82158,0,0,0-49.33692,5.4245,24.80513,24.80513,0,0,0-17.9729,32.59633l.15479.43A24.79017,24.79017,0,0,0,186.612,54.2221a176.62547,176.62547,0,0,1,76.7759,0,24.79018,24.79018,0,0,0,28.767-15.77127l.15478-.43A24.80513,24.80513,0,0,0,274.3368,5.42451,225.8209,225.8209,0,0,0,225,0ZM38.4519,157.8435l-.43228-.15557A24.80518,24.80518,0,0,0,5.42491,175.6614a227.07539,227.07539,0,0,0,0,98.6772,24.80518,24.80518,0,0,0,32.59471,17.97347l.43228-.15557a24.79043,24.79043,0,0,0,15.77179-28.77236,176.52595,176.52595,0,0,1,0-76.76828A24.79043,24.79043,0,0,0,38.4519,157.8435Z" style="fill: #000026"/>
</svg>
