<svg xmlns="http://www.w3.org/2000/svg" width="450" height="450" viewBox="0 0 450 450">
  <path d="M399.93762,229.26343q.0564-2.0202.06226-4.05273C400.1134,142.65858,332.61871,75.0359,250.06647,75A150.14359,150.14359,0,0,0,108.423,175.356c-2.77752-.23169-5.58557-.356-8.423-.356A100.00006,100.00006,0,0,0,.00281,275.75806C.41156,330.89625,46.11572,375,101.25537,375H375a75.00227,75.00227,0,0,0,24.93762-145.73658ZM375,325H100.83893c-27.37872,0-50.31043-21.66-50.82977-49.03382a50.00235,50.00235,0,0,1,97.22662-17.37194A24.78667,24.78667,0,0,0,170.72876,275h.00006a25.00391,25.00391,0,0,0,23.58887-33.311,100.277,100.277,0,0,0-38.68146-49.78552A100.17639,100.17639,0,0,1,248.99194,125.005c54.82154-.54419,100.27912,43.8385,100.99927,98.65784a99.52757,99.52757,0,0,1-7.556,39.495,25.01877,25.01877,0,1,0,46.13648,19.3678c.37835-.91028.74243-1.82788,1.10327-2.74707A24.98792,24.98792,0,0,1,375,325Z"/>
</svg>
