<svg xmlns="http://www.w3.org/2000/svg" width="24" height="24" viewBox="0 0 24 24">
  <g>
    <path d="M13.43024,16.99638a.97689.97689,0,0,0-.83789-.25727A4.3791,4.3791,0,0,1,8.91,15.50388l-3.5-3.5.85474-.85473A.92994.92994,0,0,0,6.267,9.83628L6.1676,9.73612A.93.93,0,0,0,4.8501,9.7338L3.29,11.29386a1.00672,1.00672,0,0,0,.00085,1.42084L7.5,16.91386a6.33227,6.33227,0,0,0,5.55151,1.7774.9347.9347,0,0,0,.49445-1.57843Z"/>
    <path d="M20.70917,11.293,16.5,7.09391A6.35637,6.35637,0,0,0,10.944,5.315a.93449.93449,0,0,0-.49225,1.58051l.11829.11828a.97677.97677,0,0,0,.83581.25507A4.379,4.379,0,0,1,15.09,8.50388l3.5,3.5-.85675.86243a.92991.92991,0,0,0,.00219,1.313l.09693.097a.93.93,0,0,0,1.31518,0L20.71,12.71391A1.00679,1.00679,0,0,0,20.70917,11.293Z"/>
    <path d="M6.41742,4.99613a1.00778,1.00778,0,0,0-1.42511,0v.00006a1.00766,1.00766,0,0,0,0,1.42511L7.30219,8.73118l.6878.69269.00244-.00245L10.309,11.738l.961.96589-.00818-.01307.06122.06122L11.31,12.74387l1.98,1.98.003-.00183L14.5426,15.9716l-.00262.00225,1.42,1.42.00257-.00232,1.61224,1.61224A1.00773,1.00773,0,1,0,19,17.57871Z"/>
  </g>
</svg>
