<svg xmlns="http://www.w3.org/2000/svg" width="450" height="450" viewBox="0 0 450 450">
  <path d="M425,0H375a25,25,0,0,0-25,25V75a25,25,0,0,0,25,25A99.99807,99.99807,0,0,1,275,200a25,25,0,0,0-25-25H200a25,25,0,0,0-25,25A150.00352,150.00352,0,0,0,25,350,25,25,0,0,0,0,375v50a25,25,0,0,0,25,25H75a25,25,0,0,0,25-25V375a25,25,0,0,0-25-25h0A99.99807,99.99807,0,0,1,175,250a25,25,0,0,0,25,25h50a25,25,0,0,0,25-25A150.00336,150.00336,0,0,0,425,100h0a25,25,0,0,0,25-25V25A25,25,0,0,0,425,0Z" style="fill: #000026"/>
</svg>
