<?xml version="1.0" encoding="UTF-8"?>
<svg id="b" data-name="Layer 1" xmlns="http://www.w3.org/2000/svg" width="24" height="24" viewBox="0 0 24 24">
  <path d="M11.001,4.069c-.495,0-.924-.367-.99-.871-.071-.547,.314-1.049,.862-1.121,.753-.098,1.51-.101,2.242-.008,.548,.07,.936,.57,.866,1.118-.07,.548-.583,.935-1.118,.866-.564-.073-1.146-.07-1.731,.007-.044,.005-.087,.008-.131,.008Zm10.929,9.046c.093-.734,.09-1.488-.008-2.242-.071-.548-.576-.936-1.121-.862-.548,.072-.934,.574-.862,1.121,.077,.584,.079,1.167,.007,1.731-.069,.548,.318,1.048,.866,1.118,.042,.005,.085,.008,.127,.008,.496,0,.926-.369,.991-.874Zm-8.804,8.806c.548-.071,.934-.573,.862-1.121-.072-.548-.575-.924-1.121-.862-.584,.076-1.167,.079-1.731,.007-.542-.069-1.048,.317-1.118,.866-.069,.547,.318,1.048,.866,1.118,.357,.046,.719,.068,1.083,.068,.384,0,.772-.025,1.159-.076ZM3.199,13.989c.548-.072,.934-.574,.862-1.121-.077-.584-.079-1.167-.007-1.731,.069-.548-.318-1.048-.866-1.118-.542-.07-1.048,.317-1.118,.866-.093,.734-.09,1.488,.008,2.242,.066,.504,.496,.871,.99,.871,.043,0,.087-.002,.131-.008Zm1.94-6.104c.324-.547,.729-1.066,1.205-1.542,.463-.463,.981-.871,1.538-1.21,.472-.288,.621-.903,.333-1.375-.288-.472-.902-.623-1.375-.333-.693,.422-1.336,.929-1.911,1.504-.594,.594-1.103,1.246-1.512,1.938-.281,.476-.124,1.089,.352,1.37,.16,.094,.335,.139,.508,.139,.342,0,.675-.175,.862-.491Zm3.097,12.346c.281-.476,.124-1.089-.352-1.37-.547-.324-1.066-.729-1.542-1.205-.463-.463-.871-.981-1.21-1.538-.288-.472-.903-.623-1.375-.333-.472,.288-.621,.903-.333,1.375,.422,.693,.929,1.336,1.504,1.911,.594,.594,1.246,1.103,1.938,1.512,.16,.094,.335,.139,.508,.139,.342,0,.675-.175,.862-.491Zm8.923,.345c.693-.422,1.336-.929,1.911-1.504,.594-.594,1.103-1.246,1.512-1.938,.281-.476,.124-1.089-.352-1.37-.476-.28-1.089-.123-1.37,.352-.324,.547-.729,1.066-1.205,1.542-.463,.463-.981,.871-1.538,1.21-.472,.288-.621,.903-.333,1.375,.188,.309,.518,.479,.855,.479,.177,0,.357-.047,.52-.146Zm3.083-12.36c.472-.288,.621-.903,.333-1.375-.422-.693-.929-1.336-1.504-1.911-.594-.594-1.246-1.103-1.938-1.512-.476-.281-1.088-.124-1.37,.352-.281,.476-.124,1.089,.352,1.37,.547,.324,1.066,.729,1.542,1.205,.463,.463,.871,.981,1.21,1.538,.188,.309,.518,.479,.855,.479,.177,0,.357-.047,.52-.146Zm-4,6.613l-2.828-2.828,2.828-2.828c.39-.39,.39-1.024,0-1.414s-1.024-.39-1.414,0l-2.828,2.828-2.828-2.828c-.39-.39-1.024-.39-1.414,0s-.39,1.024,0,1.414l2.828,2.828-2.828,2.828c-.39,.39-.39,1.024,0,1.414s1.024,.39,1.414,0l2.828-2.828,2.828,2.828c.39,.39,1.024,.39,1.414,0s.39-1.024,0-1.414Z"/>
</svg>