<svg xmlns="http://www.w3.org/2000/svg" width="450" height="450" viewBox="0 0 450 450">
  <path d="M236.61182,313.38818a24.99942,24.99942,0,0,1,0-35.355L264.64453,250H25a25,25,0,0,1,0-50H264.64453l-28.03271-28.0332a24.99942,24.99942,0,0,1,0-35.355h0a24.99971,24.99971,0,0,1,35.35522,0l70.71069,70.71045a25,25,0,0,1,0,35.35546L271.967,313.38818a24.99971,24.99971,0,0,1-35.35522,0ZM150,75v50a25,25,0,0,0,50,0V100H400V350H200V325a25,25,0,0,0-50,0v50a25,25,0,0,0,25,25H425a25,25,0,0,0,25-25V75a25,25,0,0,0-25-25H175A25,25,0,0,0,150,75Z" style="fill: #000026"/>
</svg>
