<?xml version="1.0" encoding="UTF-8"?>
<svg id="b" data-name="Layer 1" xmlns="http://www.w3.org/2000/svg" width="24" height="24" viewBox="0 0 24 24">
  <path d="M5.73233,9.85423l-1.85348,1.85348c-1.17158,1.17158-1.17158,3.07109,0,4.24268l4.17139,4.17139c.58496,.58496,1.35303,.87744,2.12158,.87744,.76807,0,1.53613-.29248,2.12109-.87744l1.85348-1.85348c.19526-.19526,.19526-.51184,0-.70711l-7.70696-7.70696c-.19526-.19526-.51184-.19526-.70711,0Z" style="fill: blue;"/>
  <path d="M20.70697,10.29365L13.70697,3.29365c-.39048-.39048-1.02358-.39048-1.41406,0L7.8535,7.73306c-.19526,.19526-.19526,.51184,0,.70711l7.70696,7.70696c.19526,.19526,.51184,.19526,.70711,0l4.43942-4.43942c.39048-.39048,.39048-1.02358,0-1.41406Z"/>
</svg>