<svg xmlns="http://www.w3.org/2000/svg" width="18.03082" height="18.03082" viewBox="0 0 18.03082 18.03082">
  <path d="M17.73842,6.87815,11.15267.2924a.99989.99989,0,0,0-1.41419,0L5.72257,4.30831H5.72251L4.30833,5.72256.99968,9.0312V9.03114l-.70709.70715a1,1,0,0,0,0,1.41419l.70709.70709,5.87866,5.87866a1,1,0,0,0,1.41419,0l4.01573-4.01574,1.41425-1.41418v-.00006l4.01591-4.01591A.99989.99989,0,0,0,17.73842,6.87815ZM7.58544,15.617,2.41387,10.44538,5.72251,7.13674l5.17157,5.17157ZM7.13676,5.72249l3.30881-3.30882,5.17157,5.17157-3.30881,3.30882Z"/>
  <rect width="18.03134" height="18.03134" fill="none"/>
</svg>
