<svg xmlns="http://www.w3.org/2000/svg" width="450" height="450" viewBox="0 0 450 450">
  <g>
    <path d="M115.39693,141.92086a12.5,12.5,0,0,0-17.67765,0L7.32007,232.32007a25.0472,25.0472,0,0,0,0,35.38989l174.99,174.98a25.023,25.023,0,0,0,35.36987,0l90.40412-90.40434a12.5,12.5,0,0,0,0-17.67764Z" />
    <path d="M442.67993,182.32007l-174.99-174.98c0-.01,0-.01-.01-.01v-.01a25.01107,25.01107,0,0,0-35.35986,0L141.91353,97.72661a12.5,12.5,0,0,0,0,17.67765L334.60063,308.09158a12.5,12.5,0,0,0,17.67765,0l90.40165-90.40165a25.023,25.023,0,0,0,0-35.36987Z" />
  </g>
</svg>
