<?xml version="1.0" encoding="UTF-8"?>
<svg id="b" data-name="Layer 1" xmlns="http://www.w3.org/2000/svg" width="24" height="24" viewBox="0 0 24 24">
  <path d="M5.732,9.854l-1.853,1.853c-1.172,1.172-1.172,3.071,0,4.243l4.171,4.171c.585,.585,1.353,.877,2.122,.877s1.536-.292,2.121-.877l1.853-1.853c.195-.195,.195-.512,0-.707l-7.707-7.707c-.195-.195-.512-.195-.707,0Z" fill="blue"/>
  <path d="M20.707,10.294L13.707,3.294c-.39-.39-1.024-.39-1.414,0L7.853,7.733c-.195,.195-.195,.512,0,.707l7.707,7.707c.195,.195,.512,.195,.707,0l4.439-4.439c.39-.39,.39-1.024,0-1.414Z"/>
</svg>