<svg xmlns="http://www.w3.org/2000/svg" width="17.99993" height="18.03082" viewBox="0 0 17.99993 18.03082">
  <path d="M8.29494,17.72011a1.00849,1.00849,0,0,1-1.42084-.00085L.995,11.84011l-.7-.7a1.007,1.007,0,0,1,0-1.42l.7-.69995L4.13571,5.88835a.49389.49389,0,0,1,.698.0005l7.30162,7.30162a.49388.49388,0,0,1-.00041.69887ZM17.70443,6.88962,11.11494.31014A.99776.99776,0,0,0,9.70443.31067L5.86419,4.15091a.49389.49389,0,0,0,0,.69846l7.30155,7.30154a.49386.49386,0,0,0,.69845,0L17.705,8.31014A1.00687,1.00687,0,0,0,17.70443,6.88962Z"/>
  <rect width="17.99993" height="18.03082" fill="none"/>
</svg>
