<svg xmlns="http://www.w3.org/2000/svg" width="1799.993" height="1803.0819999999999" viewBox="0 0 1799.993 1803.0819999999999"><path d="M829.494 1772.011a100.849 100.849 0 0 1 -142.084 -0.085L99.5 1184.011l-70 -70a100.7 100.7 0 0 1 0 -142l70 -69.995L413.571 588.835a49.389 49.389 0 0 1 69.8 0.05l730.162 730.162a49.388 49.388 0 0 1 -0.041 69.887ZM1770.443 688.962 1111.494 31.014A99.776 99.776 0 0 0 970.443 31.067L586.419 415.091a49.389 49.389 0 0 0 0 69.846l730.155 730.154a49.386 49.386 0 0 0 69.845 0L1770.5 831.014A100.687 100.687 0 0 0 1770.443 688.962Z"/><path width="17.99993" fill="none" d="M0 0H1799.993V1803.082H0V0z"/></svg>