<svg xmlns="http://www.w3.org/2000/svg" width="17.99993" height="18.03082" viewBox="0 0 17.99993 18.03082">
  <path d="M17.707,6.8941,11.12125.30835a.99988.99988,0,0,0-1.41418,0l-4,4L4.29288,5.72253,1,9.01544V9.01538l-.70709.70715a1,1,0,0,0,0,1.41419L1,11.84381l5.87867,5.87866a.99988.99988,0,0,0,1.41418,0l4-4,1.41425-1.41418H13.707l4-4A.99989.99989,0,0,0,17.707,6.8941ZM7.58573,15.60119,2.41416,10.42962l3.29291-3.2929,5.17157,5.17157ZM7.12125,5.72253l3.29291-3.29291,5.17157,5.17157L12.29282,10.8941Z"/>
</svg>
