<svg xmlns="http://www.w3.org/2000/svg" width="17.99993" height="18.03082" viewBox="0 0 17.99993 18.03082">
  <path d="M17.707,6.89413,11.12125.30837a.99989.99989,0,0,0-1.41418,0L5.70713,4.30831H5.70707L4.29288,5.72256,1,9.01546V9.0154l-.70709.70716a1,1,0,0,0,0,1.41418L1,11.84383l5.87867,5.87866a1,1,0,0,0,1.41418,0l4-4,1.41425-1.41418v-.00006L17.707,8.30831A.99988.99988,0,0,0,17.707,6.89413ZM7.58573,15.60122,2.41416,10.42965,5.70707,7.13674l5.17157,5.17157ZM7.12131,5.72249l3.29285-3.29284,5.17157,5.17157-3.29285,3.29284Z"/>
</svg>
