<svg xmlns="http://www.w3.org/2000/svg" width="1803.0819999999999" height="1803.0819999999999" viewBox="0 0 1803.0819999999999 1803.0819999999999"><path d="M1773.842 687.815 1115.267 29.24a99.989 99.989 0 0 0 -141.419 0L572.257 430.831H572.251L430.833 572.256 99.968 903.12V903.114l-70.709 70.715a100 100 0 0 0 0 141.419l70.709 70.709 587.866 587.866a100 100 0 0 0 141.419 0l401.573 -401.574 141.425 -141.418v-0.006l401.591 -401.591A99.989 99.989 0 0 0 1773.842 687.815ZM758.544 1561.7 241.387 1044.538 572.251 713.674l517.157 517.157ZM713.676 572.249l330.881 -330.882 517.157 517.157 -330.881 330.882Z"/><path width="18.03134" fill="none" d="M0 0H1803.134V1803.134H0V0z"/></svg>