<?xml version="1.0" encoding="UTF-8"?>
<svg id="b" data-name="Layer 1" xmlns="http://www.w3.org/2000/svg" width="24" height="24" viewBox="0 0 24 24">
  <path d="M14.92,17.7c.37-.55,.58-1.21,.58-1.91V3.79c0-1.93-1.57-3.5-3.5-3.5s-3.5,1.57-3.5,3.5V15.79c0,.7,.21,1.36,.58,1.91-.5,.63-.79,1.44-.79,2.3,0,2.05,1.66,3.71,3.71,3.71s3.71-1.66,3.71-3.71c0-.86-.29-1.67-.79-2.3ZM10.5,3.79c0-.83,.67-1.5,1.5-1.5s1.5,.67,1.5,1.5V15.79c0,.82-.67,1.5-1.5,1.5s-1.5-.68-1.5-1.5V3.79Zm1.5,17.92c-.94,0-1.71-.77-1.71-1.71,0-.95,.77-1.71,1.71-1.71s1.71,.76,1.71,1.71c0,.94-.77,1.71-1.71,1.71Z"/>
</svg>