<?xml version="1.0" encoding="UTF-8"?>
<svg id="b" data-name="Layer 1" xmlns="http://www.w3.org/2000/svg" width="24" height="24" viewBox="0 0 24 24">
  <path d="M15.71002,20.00497c0,2.04999-1.65002,3.71002-3.71002,3.71002-2.04999,0-3.71002-1.66003-3.71002-3.71002,0-.85999,.29004-1.66998,.79004-2.29999-.37-.54999-.58002-1.21002-.58002-1.91998V3.785c0-1.92999,1.57001-3.5,3.5-3.5s3.5,1.57001,3.5,3.5V15.785c0,.70996-.21002,1.37-.58002,1.91998,.5,.63,.79004,1.44,.79004,2.29999Z" style="fill: blue;"/>
  <path d="M12,17.285c-.82861,0-1.5-.67139-1.5-1.5V3.785c0-.82861,.67139-1.5,1.5-1.5s1.5,.67139,1.5,1.5V15.785c0,.82861-.67139,1.5-1.5,1.5Zm.00497,1c-.94995,0-1.71997,.76996-1.71997,1.71997,0,.94,.77002,1.71002,1.71997,1.71002,.94,0,1.71002-.77002,1.71002-1.71002,0-.95001-.77002-1.71997-1.71002-1.71997Z"/>
</svg>