<?xml version="1.0" encoding="UTF-8"?>
<svg id="b" data-name="Layer 1" xmlns="http://www.w3.org/2000/svg" width="24" height="24" viewBox="0 0 24 24">
  <path d="M15.71,20.005c0,2.05-1.65,3.71-3.71,3.71s-3.71-1.66-3.71-3.71c0-.86,.29-1.67,.79-2.3-.37-.55-.58-1.21-.58-1.92V3.785c0-1.93,1.57-3.5,3.5-3.5s3.5,1.57,3.5,3.5V15.785c0,.71-.21,1.37-.58,1.92,.5,.63,.79,1.44,.79,2.3Z" fill="blue"/>
  <path d="M12,17.285c-.829,0-1.5-.671-1.5-1.5V3.785c0-.829,.671-1.5,1.5-1.5s1.5,.671,1.5,1.5V15.785c0,.829-.671,1.5-1.5,1.5Zm.005,1c-.95,0-1.72,.77-1.72,1.72,0,.94,.77,1.71,1.72,1.71,.94,0,1.71-.77,1.71-1.71,0-.95-.77-1.72-1.71-1.72Z"/>
</svg>