<svg xmlns="http://www.w3.org/2000/svg" width="450" height="450" viewBox="0 0 450 450">
  <g>
    <path d="M336.61178,136.61187a24.99943,24.99943,0,0,0,0,35.355l28.03271,28.03321L125,200a25,25,0,1,0,0,50l239.64453,0-28.03272,28.03319a24.99943,24.99943,0,0,0,0,35.355h0a24.99943,24.99943,0,0,0,35.355,0l70.711-70.71044a25,25,0,0,0,0-35.35547l-70.71093-70.71046a24.99943,24.99943,0,0,0-35.355,0Z" />
    <path d="M299.99993,375V325a25,25,0,1,0-50,0v25l-200,0,0-250,200,0v25a25,25,0,0,0,50,0V100l0-25a25,25,0,0,0-25-25L25,50A25,25,0,0,0,0,75l0,25,0,250v25a25,25,0,0,0,25,25l250,0A25,25,0,0,0,299.99993,375Z" />
  </g>
</svg>
