<svg xmlns="http://www.w3.org/2000/svg" width="450" height="450" viewBox="0 0 450 450">
  <g>
    <path d="M402.38236,305.34l-102.38-127.08-.19-.24a23.212,23.212,0,0,0,.19-3.02V50a25,25,0,0,0,0-50h-150a25,25,0,0,0,0,50V175a23.212,23.212,0,0,0,.19,3.02l-.19.24-102.38,127.08a88.89281,88.89281,0,0,0,69.23,144.66h216.3a88.20905,88.20905,0,0,0,80.19-50.52,88.26042,88.26042,0,0,0-10.96-94.13995ZM200.00236,50h50V175h-50Zm168.23,327.9a38.08578,38.08578,0,0,1-35.08,22.1h-216.3a38.89389,38.89389,0,0,1-30.29-63.29l89.99-111.71h96.9l89.99,111.71A38.08257,38.08257,0,0,1,368.23234,377.9Z"/>
    <path d="M246.06852,290.63354a25,25,0,0,1-.00976-50h.00976a25,25,0,0,1,0,50Z"/>
    <path d="M300.00716,382.56537a25,25,0,0,1-.00976-50h.00976a25,25,0,0,1,0,50Z"/>
    <path d="M171.06364,385.57568a50,50,0,1,1,50-50A50.05666,50.05666,0,0,1,171.06364,385.57568Zm0-50c0,.02149.001.03125.001.03125Z"/>
    <path d="M150.00236,175a23.212,23.212,0,0,0,.19,3.02l-.19.24Z"/>
    <path d="M300.00236,175v3.26l-.19-.24A23.212,23.212,0,0,0,300.00236,175Z"/>
  </g>
</svg>
