<svg xmlns="http://www.w3.org/2000/svg" width="450" height="450" viewBox="0 0 450 450">
  <g>
    <path d="M136.61182,113.38818a24.99942,24.99942,0,0,0,35.355,0L200,85.35547V325a25,25,0,0,0,50,0V85.35547l28.0332,28.03271a24.99942,24.99942,0,0,0,35.355,0h0a24.99942,24.99942,0,0,0,0-35.355L242.67773,7.32227a25,25,0,0,0-35.35546,0L136.61182,78.0332a24.99942,24.99942,0,0,0,0,35.355Z"/>
    <path d="M375,150H325a25,25,0,0,0,0,50h25V400H100V200h25a25,25,0,0,0,0-50H75a25,25,0,0,0-25,25V425a25,25,0,0,0,25,25H375a25,25,0,0,0,25-25V175A25,25,0,0,0,375,150Z"/>
  </g>
</svg>
