<?xml version="1.0" encoding="UTF-8"?>
<svg id="b" data-name="Layer 1" xmlns="http://www.w3.org/2000/svg" width="24" height="24" viewBox="0 0 24 24">
  <path d="M20,14c-.552,0-1,.448-1,1v3c0,.551-.449,1-1,1H6c-.551,0-1-.449-1-1v-3c0-.552-.448-1-1-1s-1,.448-1,1v3c0,1.654,1.346,3,3,3h12c1.654,0,3-1.346,3-3v-3c0-.552-.448-1-1-1Z" fill="blue"/>
  <path d="M12.707,3.293c-.195-.195-.451-.293-.707-.293s-.512,.098-.707,.293L6.793,7.793c-.286,.286-.372,.716-.217,1.09,.155,.374,.52,.617,.924,.617h2.5v7c0,.552,.448,1,1,1h2c.552,0,1-.448,1-1v-7h2.5c.404,0,.769-.244,.924-.617,.155-.374,.069-.804-.217-1.09L12.707,3.293Z"/>
</svg>