<svg xmlns="http://www.w3.org/2000/svg" width="450" height="450" viewBox="0 0 450 450">
  <path d="M375,250a25,25,0,0,0-25,25v75H100V275a25,25,0,0,0-50,0V375a25,25,0,0,0,25,25H375a25,25,0,0,0,25-25V275A25,25,0,0,0,375,250Z" style="fill: #000026"/>
  <path d="M242.67773,57.32239a25,25,0,0,0-35.35546,0l-70.71045,70.71069a24.99983,24.99983,0,0,0,35.355,35.35523L200,135.35559V275.00012a25,25,0,0,0,50,0V135.35559l28.0332,28.03272a24.99983,24.99983,0,0,0,35.355-35.35523Z" style="fill: #000026"/>
</svg>
