<?xml version="1.0" encoding="UTF-8"?>
<svg id="b" data-name="Layer 1" xmlns="http://www.w3.org/2000/svg" width="24" height="24" viewBox="0 0 24 24">
  <path d="M20,14c-.55225,0-1,.44775-1,1v3c0,.55127-.44873,1-1,1H6c-.55127,0-1-.44873-1-1v-3c0-.55225-.44775-1-1-1s-1,.44775-1,1v3c0,1.6543,1.3457,3,3,3h12c1.6543,0,3-1.3457,3-3v-3c0-.55225-.44775-1-1-1Z" style="fill: blue;"/>
  <path d="M12.70703,3.29297c-.19531-.19531-.45117-.29297-.70703-.29297s-.51172,.09766-.70703,.29297L6.79297,7.79297c-.28613,.28613-.37158,.71582-.2168,1.08984,.15479,.37354,.51953,.61719,.92383,.61719h2.5v7c0,.55225,.44775,1,1,1h2c.55225,0,1-.44775,1-1v-7h2.5c.4043,0,.76904-.24365,.92383-.61719,.15479-.37402,.06934-.80371-.2168-1.08984L12.70703,3.29297Z"/>
</svg>