<svg xmlns="http://www.w3.org/2000/svg" width="17.99993" height="18.03082" viewBox="0 0 17.99993 18.03082">
  <g>
    <path d="M10.4302,14.01179a.97688.97688,0,0,0-.83789-.25727,4.37907,4.37907,0,0,1-3.68237-1.23523l-3.5-3.5.85474-.85473A.92993.92993,0,0,0,3.267,6.85169l-.09942-.10016a.93.93,0,0,0-1.31751-.00232L.28994,8.30927A1.00672,1.00672,0,0,0,.2908,9.73011L4.5,13.92927a6.33226,6.33226,0,0,0,5.55151,1.7774.9347.9347,0,0,0,.49445-1.57843Z"/>
    <path d="M17.70913,8.30842,13.5,4.10932a6.35638,6.35638,0,0,0-5.556-1.77887A.93448.93448,0,0,0,7.45169,3.911L7.57,4.02924a.97679.97679,0,0,0,.83582.25507,4.379,4.379,0,0,1,3.6842,1.235l3.5,3.5-.85675.86243a.92991.92991,0,0,0,.0022,1.313l.09692.097a.93.93,0,0,0,1.31519,0L17.71,9.72932A1.00679,1.00679,0,0,0,17.70913,8.30842Z"/>
    <path d="M3.41739,2.01154a1.00778,1.00778,0,0,0-1.42511,0V2.0116a1.00766,1.00766,0,0,0,0,1.42511L4.30215,5.74659,4.99,6.43928l.00244-.00245L7.309,8.75342l.961.96589-.00818-.01307.06121.06122L8.31,9.75928l1.98,1.98.00306-.00183L11.54257,12.987l-.00263.00225,1.42,1.42.00256-.00232,1.61224,1.61224A1.00773,1.00773,0,0,0,16,14.59412Z"/>
  </g>
</svg>
