<svg xmlns="http://www.w3.org/2000/svg" width="1799.993" height="1803.0819999999999" viewBox="0 0 1799.993 1803.0819999999999"><g><path d="M894.475 602.542a300 300 0 1 0 300 300A299.381 299.381 0 0 0 894.475 602.542Zm0 396a96 96 0 1 1 96 -96A95.816 95.816 0 0 1 894.475 998.538Z"/><path d="M1774.846 842.044l-180 -240a875.628 875.628 0 0 0 -1401 0l-179 240a99 99 0 0 0 0 120l179 239a875.627 875.627 0 0 0 1401 0l180 -239A102.044 102.044 0 0 0 1774.846 842.044Zm-349 252a664.747 664.747 0 0 1 -1063 0l-143 -192 143 -192a664.747 664.747 0 0 1 1063 0l144 192Z"/></g><path width="17.99993" fill="none" d="M0 0H1799.993V1803.082H0V0z"/></svg>