<svg xmlns="http://www.w3.org/2000/svg" width="17.99993" height="13.5589" viewBox="0 0 17.99993 13.5589">
  <path d="M4.49923,1.864.291,6.071a1,1,0,0,0,0,1.41421l4.20828,4.20709a6.36393,6.36393,0,0,0,9,0L17.709,7.48525a1,1,0,0,0,0-1.4142L13.49919,1.864A6.36393,6.36393,0,0,0,4.49923,1.864Zm1.41421,8.41419-3.50117-3.5,3.50117-3.5a4.36394,4.36394,0,0,1,6.17154,0l3.50268,3.5-3.50268,3.5A4.36394,4.36394,0,0,1,5.91344,10.27814Zm3.08577-6.49a3,3,0,1,0,3,3A2.996,2.996,0,0,0,8.99921,3.78816Zm0,4a1,1,0,1,1,1-1A1.003,1.003,0,0,1,8.99921,7.78816Z"/>
</svg>
