<svg xmlns="http://www.w3.org/2000/svg" width="17.99993" height="18.03082" viewBox="0 0 17.99993 18.03082">
  <g>
    <path d="M16.64708,14.26974l.00983-.01141L2.67058,2.26095l-.00861.01a.98751.98751,0,0,0-.6582-.25994,1,1,0,0,0-1,1,.9833.9833,0,0,0,.37146.76007L1.36845,3.779,15.29588,15.7258l.00324.00274.05566.0478.00556-.00647a.98506.98506,0,0,0,.64337.24993,1,1,0,0,0,1-1A.98482.98482,0,0,0,16.64708,14.26974Z"/>
    <path d="M10.50908,13.5925a.45805.45805,0,0,0-.37927-.10059,6.59718,6.59718,0,0,1-6.44611-2.561l-1.43-1.91.87756-1.17773a.46992.46992,0,0,0-.07135-.63782l-.80524-.6886a.46986.46986,0,0,0-.68145.07538L.20372,8.42093a.9753.9753,0,0,0,0,1.19l1.79,2.39a8.72306,8.72306,0,0,0,9.24792,3.20917.47446.47446,0,0,0,.20056-.81854Z"/>
    <path d="M17.80369,8.42093l-1.8-2.4A8.73356,8.73356,0,0,0,6.76506,2.81161a.47454.47454,0,0,0-.20075.81848l.94483.80982A.45844.45844,0,0,0,7.887,4.541,6.60266,6.60266,0,0,1,14.3137,7.101l1.44,1.92-.8736,1.15723a.46981.46981,0,0,0,.06958.64014l.80389.6875a.46979.46979,0,0,0,.68085-.07459l1.36926-1.82031A1.0052,1.0052,0,0,0,17.80369,8.42093Z"/>
  </g>
  <rect width="17.99993" height="18.03082" fill="none"/>
</svg>
