<svg xmlns="http://www.w3.org/2000/svg" width="17.99993" height="18.03082" viewBox="0 0 17.99993 18.03082">
  <path d="M4.49923,4.10121.291,8.30831a1,1,0,0,0,0,1.4142l4.20828,4.2071a6.36393,6.36393,0,0,0,9,0L17.709,9.72251a1,1,0,0,0,0-1.4142l-4.20979-4.2071A6.36393,6.36393,0,0,0,4.49923,4.10121Zm1.41421,8.41418-3.50117-3.5,3.50117-3.5a4.36393,4.36393,0,0,1,6.17154,0l3.50268,3.5-3.50268,3.5A4.36393,4.36393,0,0,1,5.91344,12.51539Zm3.08577-6.49a3,3,0,1,0,3,3A2.996,2.996,0,0,0,8.99921,6.02542Zm0,4a1,1,0,1,1,1-1A1.003,1.003,0,0,1,8.99921,10.02542Z"/>
</svg>
