<svg xmlns="http://www.w3.org/2000/svg" width="17.99993" height="18.03082" viewBox="0 0 17.99993 18.03082">
  <g>
    <path d="M8.94475,6.02542a3,3,0,1,0,3,3A2.99381,2.99381,0,0,0,8.94475,6.02542Zm0,3.96a.96.96,0,1,1,.96-.96A.95816.95816,0,0,1,8.94475,9.98538Z"/>
    <path d="M17.74846,8.42044l-1.8-2.4a8.75628,8.75628,0,0,0-14.01,0l-1.79,2.4a.99.99,0,0,0,0,1.2l1.79,2.39a8.75627,8.75627,0,0,0,14.01,0l1.8-2.39A1.02044,1.02044,0,0,0,17.74846,8.42044Zm-3.49,2.52a6.64747,6.64747,0,0,1-10.63,0l-1.43-1.92,1.43-1.92a6.64747,6.64747,0,0,1,10.63,0l1.44,1.92Z"/>
  </g>
  <rect width="17.99993" height="18.03082" fill="none"/>
</svg>
