<svg id="Layer_1" data-name="Layer 1" xmlns="http://www.w3.org/2000/svg" viewBox="0 0 450 450"><path d="M444.85,209.8l-49-64C352.81,89.58,288.9,61.45,225,61.45S97.19,89.58,54.12,145.84l-49,64a25,25,0,0,0,0,30.4l49,64c43.07,56.26,107,84.39,170.88,84.39s127.81-28.13,170.88-84.39l49-64A25,25,0,0,0,444.85,209.8Zm-88.67,64a165.2,165.2,0,0,1-262.36,0L56.48,225l37.34-48.76a165.2,165.2,0,0,1,262.36,0L393.52,225Z"/><path d="M225,150a75,75,0,1,0,75,75A75,75,0,0,0,225,150Zm0,100a25,25,0,1,1,25-25A25,25,0,0,1,225,250Z"/></svg>