<svg xmlns="http://www.w3.org/2000/svg" width="17.99993" height="14.59798" viewBox="0 0 17.99993 14.59798">
  <g>
    <path d="M10.4302,12.29536a.97691.97691,0,0,0-.83789-.25726,4.37907,4.37907,0,0,1-3.68237-1.23523l-3.5-3.5.85474-.85473A.92993.92993,0,0,0,3.267,5.13527l-.09942-.10016a.93.93,0,0,0-1.31751-.00232L.28994,6.59285A1.00672,1.00672,0,0,0,.2908,8.01369L4.5,12.21284a6.33224,6.33224,0,0,0,5.55151,1.77741.9347.9347,0,0,0,.49445-1.57843Z"/>
    <path d="M17.70913,6.592,13.5,2.3929A6.35638,6.35638,0,0,0,7.94394.614a.93448.93448,0,0,0-.49225,1.5805L7.57,2.31282a.97679.97679,0,0,0,.83582.25507,4.379,4.379,0,0,1,3.6842,1.235l3.5,3.5-.85675.86243a.92991.92991,0,0,0,.0022,1.313l.09692.097a.93.93,0,0,0,1.31519,0L17.71,8.01289A1.00678,1.00678,0,0,0,17.70913,6.592Z"/>
    <path d="M3.41739.29512a1.00778,1.00778,0,0,0-1.42511,0V.29518a1.00766,1.00766,0,0,0,0,1.42511L4.30215,4.03017,4.99,4.72285l.00244-.00244L7.309,7.037l.961.96588-.00818-.01306L8.323,8.051,8.31,8.04286l1.98,1.98L10.293,10.021l1.24957,1.24957-.00263.00226,1.42,1.42.00256-.00232,1.61224,1.61224A1.00773,1.00773,0,0,0,16,12.8777Z"/>
  </g>
</svg>
