<svg xmlns="http://www.w3.org/2000/svg" width="1799.993" height="1803.0819999999999" viewBox="0 0 1799.993 1803.0819999999999"><g><path d="M1664.708 1426.974l0.983 -1.141L267.058 226.095l-0.861 1a98.751 98.751 0 0 0 -65.82 -25.994 100 100 0 0 0 -100 100 98.33 98.33 0 0 0 37.146 76.007L136.845 377.9 1529.588 1572.58l0.324 0.274 5.566 4.78 0.556 -0.647a98.506 98.506 0 0 0 64.337 24.993 100 100 0 0 0 100 -100A98.482 98.482 0 0 0 1664.708 1426.974Z"/><path d="M1050.908 1359.25a45.805 45.805 0 0 0 -37.927 -10.059 659.718 659.718 0 0 1 -644.611 -256.1l-143 -191 87.756 -117.773a46.992 46.992 0 0 0 -7.135 -63.782l-80.524 -68.86a46.986 46.986 0 0 0 -68.145 7.538L20.372 842.093a97.53 97.53 0 0 0 0 119l179 239a872.306 872.306 0 0 0 924.792 320.917 47.446 47.446 0 0 0 20.056 -81.854Z"/><path d="M1780.369 842.093l-180 -240A873.356 873.356 0 0 0 676.506 281.161a47.454 47.454 0 0 0 -20.075 81.848l94.483 80.982A45.844 45.844 0 0 0 788.7 454.1 660.266 660.266 0 0 1 1431.37 710.1l144 192 -87.36 115.723a46.981 46.981 0 0 0 6.958 64.014l80.389 68.75a46.979 46.979 0 0 0 68.085 -7.459l136.926 -182.031A100.52 100.52 0 0 0 1780.369 842.093Z"/></g><path width="17.99993" fill="none" d="M0 0H1799.993V1803.082H0V0z"/></svg>