<svg id="Layer_1" data-name="Layer 1" xmlns="http://www.w3.org/2000/svg" viewBox="0 0 450 450"><path d="M252.82,341.21a12.57,12.57,0,0,0-10.22-3.58,168.2,168.2,0,0,1-17.6.92A164,164,0,0,1,93.82,273.77L56.48,225l28.09-36.69a12.49,12.49,0,0,0-1.08-16.43L65.66,154.05a12.5,12.5,0,0,0-18.76,1.24L5.15,209.8a25,25,0,0,0,0,30.4l49,64c43.07,56.26,107,84.39,170.88,84.39a217.24,217.24,0,0,0,43.28-4.35,12.51,12.51,0,0,0,6.43-21.1Z"/><path d="M444.85,209.8l-49-64C352.81,89.58,288.9,61.45,225,61.45a217.24,217.24,0,0,0-43.28,4.35,12.51,12.51,0,0,0-6.43,21.1l21.89,21.89a12.57,12.57,0,0,0,10.22,3.58,168.2,168.2,0,0,1,17.6-.92,164,164,0,0,1,131.18,64.78L393.52,225l-28.09,36.69a12.49,12.49,0,0,0,1.08,16.43L384.34,296a12.5,12.5,0,0,0,18.76-1.24l41.75-54.51A25,25,0,0,0,444.85,209.8Z"/><path d="M83.58,48.22a25,25,0,0,0-35.36,0h0a25,25,0,0,0,0,35.36l318.2,318.2a25,25,0,0,0,35.36,0h0a25,25,0,0,0,0-35.36Z"/></svg>