<svg xmlns="http://www.w3.org/2000/svg" width="450" height="450" viewBox="0 0 450 450">
  <g>
    <path d="M252.82129,341.21118a12.56041,12.56041,0,0,0-10.21973-3.57861A167.843,167.843,0,0,1,225,338.55005,163.99963,163.99963,0,0,1,93.81982,273.77L56.48,225l28.0918-36.68506a12.50025,12.50025,0,0,0-1.08545-16.43872L65.65869,154.04858a12.49993,12.49993,0,0,0-18.76318,1.239L5.1499,209.80005a24.99736,24.99736,0,0,0,0,30.3999l48.97022,63.96c43.06982,56.26,106.98,84.39014,170.87988,84.39014a217.4417,217.4417,0,0,0,43.28027-4.346,12.51243,12.51243,0,0,0,6.42627-21.10742Z"/>
    <path d="M444.8501,209.80005l-48.97022-63.96C352.81006,89.58008,288.8999,61.45,225,61.45a217.44541,217.44541,0,0,0-43.28027,4.346,12.5124,12.5124,0,0,0-6.42627,21.10742l21.88525,21.8855a12.56041,12.56041,0,0,0,10.21973,3.57861A167.843,167.843,0,0,1,225,111.45a163.99963,163.99963,0,0,1,131.18018,64.78L393.52,225l-28.0918,36.68506a12.50025,12.50025,0,0,0,1.08545,16.43872l17.82764,17.82764a12.49993,12.49993,0,0,0,18.76318-1.239L444.8501,240.2A24.99736,24.99736,0,0,0,444.8501,209.80005Z"/>
    <path d="M83.57861,48.22314a25.00048,25.00048,0,0,0-35.35547,0v.00025a24.99972,24.99972,0,0,0,0,35.35522L366.42139,401.77686a25.00048,25.00048,0,0,0,35.35547,0v-.00025a24.99972,24.99972,0,0,0,0-35.35522Z"/>
  </g>
  <rect width="450" height="450" fill="none"/>
</svg>
