<svg xmlns="http://www.w3.org/2000/svg" width="450" height="450" viewBox="0 0 450 450">
  <g>
    <path d="M444.8501,209.80005l-48.97022-63.96C352.81006,89.58008,288.8999,61.45,225,61.45S97.18994,89.58008,54.12012,145.84009l-48.97022,63.96a24.99736,24.99736,0,0,0,0,30.3999l48.97022,63.96c43.06982,56.26,106.98,84.39014,170.87988,84.39014s127.81006-28.13013,170.87988-84.39014L444.8501,240.2A24.99736,24.99736,0,0,0,444.8501,209.80005Zm-88.67041,63.9646a165.20167,165.20167,0,0,1-262.35791.00195L56.48438,225l37.33593-48.76416a165.2014,165.2014,0,0,1,262.3584-.00195L393.51562,225Z" style="fill: #000026"/>
    <path d="M225,150a75,75,0,1,0,75,75A75.00184,75.00184,0,0,0,225,150Zm0,100a25,25,0,1,1,25-25A24.99624,24.99624,0,0,1,225,250Z" style="fill: #000026"/>
  </g>
</svg>
