<?xml version="1.0" encoding="UTF-8"?>
<svg id="b" data-name="Layer 1" xmlns="http://www.w3.org/2000/svg" width="24" height="24" viewBox="0 0 24 24">
  <path d="M20.852,11.476l-.71-1.154c-.999-1.624-2.39-3.001-4.095-3.855-2-1.001-3.952-1.166-5.753-.82-.396,.076-.546,.566-.261,.851l8.499,8.499c.214,.214,.563,.187,.752-.05,.209-.262,.407-.536,.586-.827l.982-1.596c.198-.321,.198-.727,0-1.048Z"/>
  <path d="M5.468,9.004c-.214-.214-.563-.187-.752,.05-.209,.262-.407,.536-.586,.827l-.982,1.596c-.198,.321-.198,.727,0,1.048l.71,1.154c.999,1.624,2.39,3.001,4.095,3.855,2,1.001,3.952,1.166,5.753,.82,.396-.076,.546-.566,.261-.851L5.468,9.004Z"/>
  <path d="M5.707,4.293c-.391-.391-1.023-.391-1.414,0s-.391,1.023,0,1.414l14,14c.195,.195,.451,.293,.707,.293s.512-.098,.707-.293c.391-.391,.391-1.023,0-1.414L5.707,4.293Z"/>
</svg>