<svg xmlns="http://www.w3.org/2000/svg" width="17.99993" height="18.01538" viewBox="0 0 17.99993 18.01538">
  <g>
    <path d="M16.64708,14.262l.00983-.01141L2.67058,2.25323l-.00861.01a.98752.98752,0,0,0-.6582-.26,1,1,0,0,0-1,1,.98332.98332,0,0,0,.37146.76008l-.00678.00793L15.29588,15.71808l.00324.00274.05566.04779.00556-.00647a.985.985,0,0,0,.64337.24994,1,1,0,0,0,1-1A.98482.98482,0,0,0,16.64708,14.262Z"/>
    <path d="M10.50908,13.58478a.45805.45805,0,0,0-.37927-.10059,6.59718,6.59718,0,0,1-6.44611-2.561l-1.43-1.91.87756-1.17773a.46992.46992,0,0,0-.07135-.63782l-.80524-.6886a.46986.46986,0,0,0-.68145.07538L.20372,8.41321a.9753.9753,0,0,0,0,1.19l1.79,2.39a8.72307,8.72307,0,0,0,9.24792,3.20917.47446.47446,0,0,0,.20056-.81854Z"/>
    <path d="M17.80369,8.41321l-1.8-2.4A8.73356,8.73356,0,0,0,6.76506,2.80389a.47454.47454,0,0,0-.20075.81848l.94483.80982a.45844.45844,0,0,0,.37787.10113A6.60264,6.60264,0,0,1,14.3137,7.09326l1.44,1.92-.8736,1.15723a.46981.46981,0,0,0,.06958.64014l.80389.6875a.46979.46979,0,0,0,.68085-.07459l1.36926-1.82031A1.0052,1.0052,0,0,0,17.80369,8.41321Z"/>
  </g>
</svg>
