<?xml version="1.0" encoding="UTF-8"?>
<svg id="b" data-name="Layer 1" xmlns="http://www.w3.org/2000/svg" width="24" height="24" viewBox="0 0 24 24">
  <g>
    <path d="M18.53158,14.99642c.21412,.21412,.56329,.18682,.75218-.04986,.20915-.26206,.40672-.53576,.58587-.82693l.98193-1.5957c.19772-.3213,.19772-.72655,0-1.04785l-.71026-1.15422c-.99941-1.62412-2.38951-3.001-4.09475-3.85467-2.00029-1.00137-3.95198-1.16576-5.75248-.82005-.39549,.07594-.54597,.56581-.26121,.85057l8.49871,8.49871Z"/>
    <path d="M5.46842,9.00358c-.21412-.21412-.56329-.18682-.75218,.04986-.20915,.26206-.40672,.53576-.58587,.82693l-.98193,1.5957c-.19772,.3213-.19772,.72655,0,1.04785l.71026,1.15422c.99941,1.62412,2.38951,3.001,4.09475,3.85467,2.00029,1.00137,3.95198,1.16576,5.75248,.82005,.39549-.07594,.54597-.56581,.26121-.85057L5.46842,9.00358Z"/>
  </g>
  <path d="M19.70703,18.29297L5.70703,4.29297c-.39062-.39062-1.02344-.39062-1.41406,0s-.39062,1.02344,0,1.41406l14,14c.19531,.19531,.45117,.29297,.70703,.29297s.51172-.09766,.70703-.29297c.39062-.39062,.39062-1.02344,0-1.41406Z" style="fill: blue;"/>
</svg>