<?xml version="1.0" encoding="UTF-8"?>
<svg id="b" data-name="Layer 1" xmlns="http://www.w3.org/2000/svg" width="24" height="24" viewBox="0 0 24 24">
  <path d="M20.84998,11.48001l-.97998-1.59998c-1.69-2.75-4.64001-4.40002-7.87-4.40002s-6.17999,1.65002-7.87,4.40002l-.97998,1.59998c-.20001,.32001-.20001,.72003,0,1.03998l.97998,1.60004c1.69,2.75,4.64001,4.39996,7.87,4.39996s6.17999-1.64996,7.87-4.39996l.97998-1.60004c.20001-.31995,.20001-.71997,0-1.03998Zm-8.84998,4.27002c-2.07001,0-3.75-1.67999-3.75-3.75s1.67999-3.75,3.75-3.75,3.75,1.67999,3.75,3.75-1.67999,3.75-3.75,3.75Z"/>
  <circle cx="12" cy="12.00003" r="2.25" style="fill: blue;"/>
</svg>