<?xml version="1.0" encoding="UTF-8"?>
<svg id="b" data-name="Layer 1" xmlns="http://www.w3.org/2000/svg" width="24" height="24" viewBox="0 0 24 24">
  <path d="M20.85,11.48l-.98-1.6c-1.69-2.75-4.64-4.4-7.87-4.4s-6.18,1.65-7.87,4.4l-.98,1.6c-.2,.32-.2,.72,0,1.04l.98,1.6c1.69,2.75,4.64,4.4,7.87,4.4s6.18-1.65,7.87-4.4l.98-1.6c.2-.32,.2-.72,0-1.04Zm-8.85,4.27c-2.07,0-3.75-1.68-3.75-3.75s1.68-3.75,3.75-3.75,3.75,1.68,3.75,3.75-1.68,3.75-3.75,3.75Z"/>
  <circle cx="12" cy="12" r="2.25" fill="blue"/>
</svg>