<svg xmlns="http://www.w3.org/2000/svg" width="17.99993" height="18.03082" viewBox="0 0 17.99993 18.03082">
  <path d="M17.70869,5.30545l-2.34,2.34.84.84a.99578.99578,0,0,1,0,1.41h-.00995a.98383.98383,0,0,1-1.4,0l-.84-.84-1.41-1.41-2.18-2.18-1.41-1.41-.8-.79a1.00666,1.00666,0,0,1-.29-.71,1.01892,1.01892,0,0,1,.29-.7.99588.99588,0,0,1,1.41,0l.8.79,2.34-2.34a1.00686,1.00686,0,0,1,.71-.29,1.019,1.019,0,0,1,.7.29l3.59,3.59A.99588.99588,0,0,1,17.70869,5.30545Zm-6.22,3.4-2.18-2.18-.71-.7a.99591.99591,0,0,0-1.41,0l-6.9,6.9a.98976.98976,0,0,0-.29.71v3.59a.98811.98811,0,0,0,1,.99h3.59a.98371.98371,0,0,0,.7-.29l6.9-6.9a.99591.99591,0,0,0,0-1.41Z"/>
  <rect width="17.99993" height="18.03082" fill="none"/>
</svg>
