<?xml version="1.0" encoding="UTF-8"?>
<svg id="b" data-name="Layer 1" xmlns="http://www.w3.org/2000/svg" width="24" height="24" viewBox="0 0 24 24">
  <path d="M11.025,9.261l3.713,3.713c.195,.195,.195,.512,0,.707l-6.526,6.526c-.16,.15-.35,.25-.57,.28l-3.5,.5c-.05,.01-.09,.01-.14,.01-.26,0-.52-.1-.71-.29-.22-.23-.32-.54-.28-.85l.5-3.5c.03-.22,.13-.41,.28-.57l6.526-6.526c.195-.195,.512-.195,.707,0Z" fill="blue"/>
  <path d="M20.412,7.998l-2.49,2.5,.79,.79c.39,.39,.39,1.03,0,1.42-.2,.19-.45,.29-.71,.29s-.51-.1-.71-.29l-6-6c-.39-.39-.39-1.03,0-1.42,.39-.39,1.03-.39,1.42,0l.79,.79,2.5-2.49c.78-.78,2.05-.78,2.83,0l1.58,1.58c.78,.78,.78,2.05,0,2.83Z"/>
</svg>