<svg xmlns="http://www.w3.org/2000/svg" width="450" height="450" viewBox="0 0 450 450">
  <g>
    <path d="M300.62354,239.02661l-89.63526-89.63525-.00476-.00464a25.10679,25.10679,0,0,0-3.92175-3.20361,24.82526,24.82526,0,0,0-5.48548-2.71729q-1.14533-.40028-2.31848-.68628-1.17187-.28638-2.363-.45776a25.13167,25.13167,0,0,0-7.17774,0c-.72192.10425-1.43945.24414-2.15185.41137-.46143.1084-.92115.22608-1.3772.36084q-.57972.17176-1.15259.37183-1.14514.40063-2.25635.91528a24.95352,24.95352,0,0,0-7.15088,5.00562h0L7.32233,317.69263A24.99986,24.99986,0,0,0,0,335.37036v89.64453a25,25,0,0,0,25,25h89.64465a24.99943,24.99943,0,0,0,17.67762-7.32226l168.3059-168.30591h0a24.99972,24.99972,0,0,0,0-35.35523ZM104.28,400.01489H50v-54.28L193.31055,202.42432l54.28,54.28Z"/>
    <path d="M442.67993,132.34009l-62.5,62.5L400,214.65991A24.99979,24.99979,0,1,1,364.64,250.01L200,85.37012A25.00333,25.00333,0,0,1,235.36,50.01l19.81994,19.83008,62.5-62.5a25.55923,25.55923,0,0,1,1.90015-1.72c.31994-.27.65991-.52.99-.77A24.79082,24.79082,0,0,1,322.65,3.48c.71-.41992,1.44007-.8,2.18006-1.1499a24.03682,24.03682,0,0,1,2.25-.91016,25.11465,25.11465,0,0,1,16.54992,0c.38.13013.76.27,1.13.43018A23.37781,23.37781,0,0,1,348.46,3.73c.57007.3501,1.13013.72,1.68,1.12012.33.25.67005.5.99.77a25.58155,25.58155,0,0,1,1.9,1.72L442.67993,96.98a25.01122,25.01122,0,0,1,0,35.36011Z"/>
  </g>
  <rect x="0.00005" y="0.01489" width="450" height="450" fill="none"/>
</svg>
