<svg xmlns="http://www.w3.org/2000/svg" width="17.99993" height="18.03082" viewBox="0 0 17.99993 18.03082">
  <path d="M11.48786,8.70514l-2.18-2.18-.705-.705a.997.997,0,0,0-1.41,0l-6.903,6.903a.997.997,0,0,0-.292.705v3.59a.997.997,0,0,0,.997.997h3.59a.997.997,0,0,0,.705-.292l6.903-6.903a.997.997,0,0,0,0-1.41Zm-7.31,7.31h-2.18v-2.18l5.89-5.89,2.18,2.18ZM17.70955,5.30572l-2.34,2.34.84.83a1.00792,1.00792,0,0,1,0,1.42H16.1996a.98385.98385,0,0,1-1.4,0l-.84-.84-1.41-1.41-2.18-2.18-1.41-1.41-.8-.8a1.00108,1.00108,0,0,1-.29-.7.995.995,0,0,1,1.7-.71l.8.8,2.34-2.34a1.00686,1.00686,0,0,1,.71-.29,1.019,1.019,0,0,1,.7.29l3.59,3.59A.99588.99588,0,0,1,17.70955,5.30572Z"/>
  <rect width="17.99993" height="18.03082" fill="none"/>
</svg>
