<svg id="Layer_1" data-name="Layer 1" xmlns="http://www.w3.org/2000/svg" viewBox="0 0 450 450"><path d="M300.62,239,211,149.38h0a25,25,0,0,0-9.4-5.92c-.77-.27-1.54-.49-2.32-.69a23.58,23.58,0,0,0-2.37-.45,24.85,24.85,0,0,0-7.17,0c-.72.1-1.44.24-2.15.41-.47.11-.93.22-1.38.36s-.77.24-1.15.37a23.25,23.25,0,0,0-2.26.92,24.93,24.93,0,0,0-7.15,5h0L7.32,317.68A25,25,0,0,0,0,335.36V425a25,25,0,0,0,25,25h89.64a25,25,0,0,0,17.68-7.32L300.63,274.37h0a25,25,0,0,0,0-35.35ZM104.28,400H50V345.72L193.31,202.41l54.28,54.28Z"/><path d="M442.68,97h0L353,7.32a23.46,23.46,0,0,0-1.9-1.71c-.32-.27-.66-.53-1-.78-.55-.4-1.11-.77-1.68-1.12a25.23,25.23,0,0,0-3.7-1.88l-1.13-.43a25.11,25.11,0,0,0-16.55,0,24.15,24.15,0,0,0-2.25.92,23.81,23.81,0,0,0-2.18,1.14c-.71.42-1.4.88-2.08,1.37-.33.25-.67.51-1,.78a23.46,23.46,0,0,0-1.9,1.71l-62.5,62.5L235.36,50A25,25,0,0,0,200,50h0a25,25,0,0,0,0,35.36L364.64,250A25,25,0,0,0,400,214.64l-19.82-19.82,62.5-62.5h0A25,25,0,0,0,442.68,97Zm-152.15,8.21,44.83-44.82,54.28,54.28-44.82,44.83Z"/></svg>