<svg xmlns="http://www.w3.org/2000/svg" width="450" height="450" viewBox="0 0 450 450">
  <g>
    <path d="M300.62354,239.01172l-89.63526-89.63526-.00476-.00463a25.10742,25.10742,0,0,0-3.92175-3.20362,24.82566,24.82566,0,0,0-5.48548-2.71728q-1.14533-.40027-2.31848-.68628-1.17187-.28638-2.363-.45777a25.13264,25.13264,0,0,0-7.17774,0c-.72192.10425-1.43945.24415-2.15185.41138-.46143.1084-.92115.22608-1.3772.36084q-.57972.17175-1.15259.37183-1.14514.40063-2.25635.91528a24.95333,24.95333,0,0,0-7.15088,5.00562h0L7.32233,317.67773A24.99988,24.99988,0,0,0,0,335.35547V425a25,25,0,0,0,25,25h89.64465a24.9994,24.9994,0,0,0,17.67762-7.32227l168.3059-168.3059h0a24.99972,24.99972,0,0,0,0-35.35523ZM104.28,400H50V345.72L193.31055,202.40942l54.28,54.28Z" />
    <path d="M442.67773,96.967h0L353.03308,7.32227A25.31411,25.31411,0,0,0,351.1344,5.6062q-.49091-.40064-.99719-.77222c-.54492-.40063-1.10523-.76928-1.67371-1.12011a24.83711,24.83711,0,0,0-3.70056-1.8833q-.56433-.22888-1.13709-.429a25.10031,25.10031,0,0,0-16.54089,0q-1.14515.40027-2.25635.91528-1.10961.5149-2.17639,1.14405a24.85584,24.85584,0,0,0-2.07861,1.373q-.50592.37171-.99719.77222a25.33783,25.33783,0,0,0-1.89869,1.71607l-62.5,62.5L235.35535,50A24.99988,24.99988,0,0,0,200,50h0a24.99994,24.99994,0,0,0,0,35.35522L364.64478,250a25,25,0,0,0,35.35534-35.35522l-19.82239-19.82251,62.5-62.5h0A24.99972,24.99972,0,0,0,442.67773,96.967Zm-152.14465,8.21069,44.82239-44.82226,54.28931,54.28906L344.82251,159.467Z" />
  </g>
</svg>
