
<svg id="b" data-name="Layer 1" xmlns="http://www.w3.org/2000/svg" width="24" height="24" viewBox="0 0 24 24">
  <path d="M11.02536,9.26103l3.71293,3.71288c.19526,.19526,.19527,.51185,0,.70711l-6.52645,6.52645c-.16003,.15002-.35004,.25-.57001,.28003l-3.5,.5c-.04999,.01001-.09003,.01001-.14001,.01001-.26001,0-.52002-.10004-.71002-.29004-.21997-.22998-.32001-.53998-.27997-.84998l.5-3.5c.02997-.21997,.13-.40997,.27997-.57001l6.52645-6.52645c.19526-.19526,.51184-.19526,.7071,0Z" style="fill: blue;"/>
  <path d="M20.41179,7.99751l-2.48999,2.5,.79004,.78998c.38995,.39001,.38995,1.03003,0,1.41998-.20001,.19-.45001,.29004-.71002,.29004s-.51001-.10004-.71002-.29004l-6-6c-.38995-.38995-.38995-1.02997,0-1.41998,.39001-.39001,1.03003-.39001,1.42004,0l.78998,.78998,2.5-2.48999c.78003-.77997,2.04999-.77997,2.83002,0l1.57996,1.58002c.78003,.78003,.78003,2.04999,0,2.83002Z"/>
</svg>