<svg id="Layer_1" data-name="Layer 1" xmlns="http://www.w3.org/2000/svg" viewBox="0 0 450 450"><path d="M442.68,132.34l-62.5,62.5L400,214.66A25,25,0,0,1,364.64,250L200,85.37A25,25,0,0,1,235.36,50l19.82,19.83,62.5-62.5c.61-.61,1.24-1.18,1.9-1.72.32-.27.66-.52,1-.77a24.83,24.83,0,0,1,2.08-1.37c.71-.42,1.44-.8,2.18-1.15a24.06,24.06,0,0,1,2.25-.91,25.11,25.11,0,0,1,16.55,0c.38.13.76.27,1.13.43a23.4,23.4,0,0,1,3.7,1.88c.57.35,1.13.72,1.68,1.12.33.25.67.5,1,.77.66.54,1.29,1.11,1.9,1.72L442.68,97a25,25,0,0,1,0,35.36Z"/><path d="M300.63,239a25,25,0,0,1,0,35.36L132.32,442.69A25,25,0,0,1,114.64,450H25A25,25,0,0,1,0,425V335.37a25,25,0,0,1,7.32-17.68l168.31-168.3a24.77,24.77,0,0,1,7.15-5,23.18,23.18,0,0,1,2.26-.91c.38-.14.76-.26,1.15-.38s.91-.25,1.38-.36c.71-.16,1.43-.3,2.15-.41a24.85,24.85,0,0,1,7.17,0c.8.12,1.59.27,2.37.46s1.55.42,2.32.69a24.73,24.73,0,0,1,5.48,2.71,25.24,25.24,0,0,1,3.92,3.21h0L300.62,239Z"/></svg>