<svg xmlns="http://www.w3.org/2000/svg" width="1799.993" height="1803.0819999999999" viewBox="0 0 1799.993 1803.0819999999999"><path d="M1770.869 530.545l-234 234 84 84a99.578 99.578 0 0 1 0 141h-0.995a98.383 98.383 0 0 1 -140 0l-84 -84 -141 -141 -218 -218 -141 -141 -80 -79a100.666 100.666 0 0 1 -29 -71 101.892 101.892 0 0 1 29 -70 99.588 99.588 0 0 1 141 0l80 79 234 -234a100.686 100.686 0 0 1 71 -29 101.9 101.9 0 0 1 70 29l359 359A99.588 99.588 0 0 1 1770.869 530.545Zm-622 340 -218 -218 -71 -70a99.591 99.591 0 0 0 -141 0l-690 690a98.976 98.976 0 0 0 -29 71v359a98.811 98.811 0 0 0 100 99h359a98.371 98.371 0 0 0 70 -29l690 -690a99.591 99.591 0 0 0 0 -141Z"/><path width="17.99993" fill="none" d="M0 0H1799.993V1803.082H0V0z"/></svg>