<svg xmlns="http://www.w3.org/2000/svg" width="1799.993" height="1803.0819999999999" viewBox="0 0 1799.993 1803.0819999999999"><path d="M1148.786 870.514l-218 -218 -70.5 -70.5a99.7 99.7 0 0 0 -141 0l-690.3 690.3a99.7 99.7 0 0 0 -29.2 70.5v359a99.7 99.7 0 0 0 99.7 99.7h359a99.7 99.7 0 0 0 70.5 -29.2l690.3 -690.3a99.7 99.7 0 0 0 0 -141Zm-731 731h-218v-218l589 -589 218 218ZM1770.955 530.572l-234 234 84 83a100.792 100.792 0 0 1 0 142H1619.96a98.385 98.385 0 0 1 -140 0l-84 -84 -141 -141 -218 -218 -141 -141 -80 -80a100.108 100.108 0 0 1 -29 -70 99.5 99.5 0 0 1 170 -71l80 80 234 -234a100.686 100.686 0 0 1 71 -29 101.9 101.9 0 0 1 70 29l359 359A99.588 99.588 0 0 1 1770.955 530.572Z"/><path width="17.99993" fill="none" d="M0 0H1799.993V1803.082H0V0z"/></svg>