<svg xmlns="http://www.w3.org/2000/svg" width="1799.993" height="1803.166" viewBox="0 0 1799.993 1803.166"><path d="M1148.894 870.583l-218 -218 -70.5 -70.5a99.7 99.7 0 0 0 -141 0l-690.3 690.3a99.7 99.7 0 0 0 -29.2 70.5v359a99.7 99.7 0 0 0 99.7 99.7h359a99.7 99.7 0 0 0 70.5 -29.2l690.3 -690.3a99.7 99.7 0 0 0 0 -141Zm-731 731H199.9v-218l589 -589 218 218Zm1353 -1212 -359 -359a101.888 101.888 0 0 0 -70 -29 100.662 100.662 0 0 0 -71 29l-234 234 -79.5 -79.5a99.7 99.7 0 0 0 -141 0h0a99.7 99.7 0 0 0 0 141l79.5 79.5 141 141 218 218 141 141 83.747 83.75a99.7 99.7 0 0 0 140.75 0.248l0.274 -0.271a99.7 99.7 0 0 0 0.019 -141.473l-83.793 -83.252 234 -234A99.7 99.7 0 0 0 1770.9 389.583Zm-375 233 -217 -217 162 -163 218 218.005Z"/><path width="17.99993" fill="none" d="M0 0H1799.993V1803.166H0V0z"/></svg>