<svg xmlns="http://www.w3.org/2000/svg" width="17.99993" height="18.03082" viewBox="0 0 17.99993 18.03082">
  <path d="M11.48894,8.70541l-2.18-2.18-.705-.705a.997.997,0,0,0-1.41,0L.291,12.7234a.997.997,0,0,0-.292.705v3.59a.997.997,0,0,0,.997.997h3.59a.997.997,0,0,0,.705-.292l6.903-6.903a.997.997,0,0,0,0-1.41Zm-7.31,7.31H1.999v-2.18l5.89-5.89,2.18,2.18Zm13.53-12.12-3.59-3.59a1.01892,1.01892,0,0,0-.7-.29,1.00666,1.00666,0,0,0-.71.29l-2.34,2.34-.795-.795a.997.997,0,0,0-1.41,0h0a.997.997,0,0,0,0,1.41l.795.795,1.41,1.41,2.18,2.18,1.41,1.41.83747.8375a.997.997,0,0,0,1.4075.00249l.00274-.00272a.997.997,0,0,0,.00019-1.41473l-.83793-.83252,2.34-2.34A.997.997,0,0,0,17.709,3.89541Zm-3.75,2.33-2.17-2.17,1.62-1.63,2.18,2.18006Z"/>
</svg>
