<svg xmlns="http://www.w3.org/2000/svg" width="450" height="450" viewBox="0 0 450 450">
  <g>
    <path d="M442.67993,132.34009l-62.5,62.5L400,214.65991A24.99979,24.99979,0,1,1,364.64,250.01L200,85.37012A25.00333,25.00333,0,0,1,235.36,50.01l19.81994,19.83008,62.5-62.5a25.55923,25.55923,0,0,1,1.90015-1.72c.31994-.27.65991-.52.99-.77A24.79082,24.79082,0,0,1,322.65,3.48c.71-.41992,1.44007-.8,2.18006-1.1499a24.03682,24.03682,0,0,1,2.25-.91016,25.11465,25.11465,0,0,1,16.54992,0c.38.13013.76.27,1.13.43018A23.37781,23.37781,0,0,1,348.46,3.73c.57007.3501,1.13013.72,1.68,1.12012.33.25.67005.5.99.77a25.58155,25.58155,0,0,1,1.9,1.72L442.67993,96.98a25.01122,25.01122,0,0,1,0,35.36011Z" />
    <path d="M300.63,239.03a25.01151,25.01151,0,0,1,0,35.36011L132.32007,442.68994A24.98312,24.98312,0,0,1,114.64,450.01H25a24.99627,24.99627,0,0,1-25-25V335.37012a25,25,0,0,1,7.32-17.68018l168.31-168.2998a24.76722,24.76722,0,0,1,7.15-5.01026,23.21935,23.21935,0,0,1,2.26-.90991c.37988-.13989.76-.26,1.1499-.37988q.6751-.1952,1.38013-.36011c.71-.15991,1.42993-.3,2.1499-.40991a24.8451,24.8451,0,0,1,7.17,0c.79993.11987,1.59.27,2.37.46s1.55.41992,2.32007.68994a24.73507,24.73507,0,0,1,5.48,2.71,25.24459,25.24459,0,0,1,3.91992,3.21021h.01L300.62,239.03Z" />
  </g>
</svg>
