<?xml version="1.0" encoding="UTF-8"?>
<svg id="b" data-name="Layer 1" xmlns="http://www.w3.org/2000/svg" width="24" height="24" viewBox="0 0 24 24">
  <path d="M18.7075,12.28998l-7-7c-.00519-.00519-.01239-.00665-.0177-.01172l-1.98529-1.98529c-.39062-.39062-1.02344-.39062-1.41406,0s-.39062,1.02344,0,1.41406l1.29053,1.29053L3.87749,11.70996c-1.16998,1.17004-1.16998,3.07001,0,4.24005l4.16998,4.16998c1.16998,1.16998,3.07001,1.16998,4.23999,0l6.42004-6.41003c.38995-.38995,.38995-1.02997,0-1.41998Z"/>
  <path d="M18.6431,15.35355l-1.06008,1.06008c-.78072,.78072-.78072,2.04653,0,2.82725h0c.78072,.78073,2.04653,.78073,2.82725,0h0c.78072-.78073,.78072-2.04653,0-2.82726l-1.06008-1.06008c-.19526-.19526-.51184-.19526-.70711,0Z" style="fill: blue;"/>
</svg>