<?xml version="1.0" encoding="UTF-8"?>
<svg id="b" data-name="Layer 1" xmlns="http://www.w3.org/2000/svg" width="24" height="24" viewBox="0 0 24 24">
  <path d="M18.708,12.29l-7-7c-.005-.005-.012-.007-.018-.012l-1.985-1.985c-.391-.391-1.023-.391-1.414,0s-.391,1.023,0,1.414l1.291,1.291L3.877,11.71c-1.17,1.17-1.17,3.07,0,4.24l4.17,4.17c1.17,1.17,3.07,1.17,4.24,0l6.42-6.41c.39-.39,.39-1.03,0-1.42Z"/>
  <path d="M18.643,15.354l-1.06,1.06c-.781,.781-.781,2.047,0,2.827h0c.781,.781,2.047,.781,2.827,0h0c.781-.781,.781-2.047,0-2.827l-1.06-1.06c-.195-.195-.512-.195-.707,0Z" fill="blue"/>
</svg>