<?xml version="1.0" encoding="UTF-8"?>
<svg id="a" data-name="Layer 1" xmlns="http://www.w3.org/2000/svg" width="450" height="450" viewBox="0 0 450 450">
  <rect x="200.00003" y="50" width="50" height="350" rx="24.99998" ry="24.99998"/>
  <path d="M350,275v-100c0-13.80712-11.19288-25-25-25h0c-13.8071,0-24.99997-11.19287-24.99997-24.99998v-.00005c0-13.8071,11.19287-24.99997,24.99998-24.99997h0c8.77002,0,17.17993,1.50977,25,4.27002,21.31006,7.52979,38.19995,24.41992,45.72998,45.72998,2.76001,7.81982,4.27002,16.22998,4.27002,25v100c0,8.77002-1.51001,17.18018-4.27002,25-7.53003,21.31006-24.41992,38.2002-45.72998,45.72998-7.82007,2.76025-16.22998,4.27002-25,4.27002h0c-13.8071,0-24.99997-11.19287-24.99997-24.99998v-.00005c0-13.8071,11.19287-24.99997,24.99998-24.99997h0c13.80712,0,25-11.19288,25-25Z"/>
  <path d="M150.00003,124.99998v200.00005c0,13.8071-11.19287,24.99998-24.99997,24.99998h-.00003c-8.77002,0-17.17993-1.50977-25-4.27002-21.31006-7.52979-38.19995-24.41992-45.72998-45.72998-2.76001-7.81982-4.27002-16.22998-4.27002-25v-100c0-8.77002,1.51001-17.18018,4.27002-25,7.53003-21.31006,24.41992-38.2002,45.72998-45.72998,7.82007-2.76025,16.22998-4.27002,25-4.27002h.00003c13.8071,0,24.99997,11.19287,24.99997,24.99998Z"/>
</svg>