<?xml version="1.0" encoding="UTF-8"?>
<svg id="b" data-name="Layer 1" xmlns="http://www.w3.org/2000/svg" width="24" height="24" viewBox="0 0 24 24">
  <path d="M10,21H4c-.552,0-1-.448-1-1V8c0-.464,.319-.867,.77-.973,.456-.106,.917,.111,1.125,.526l6,12c.155,.31,.138,.678-.044,.973-.182,.294-.504,.474-.851,.474Zm-5-2h3.382l-3.382-6.764v6.764Z" fill="blue"/>
  <path d="M20.23,7.027c-.455-.107-.917,.111-1.125,.526l-6,12c-.155,.31-.138,.678,.044,.973,.182,.294,.504,.474,.851,.474h6c.552,0,1-.448,1-1V8c0-.464-.319-.867-.77-.973Z"/>
  <path d="M18.657,4c0-.552-.448-1-1-1s-1,.448-1,1v.307c-1.391-.846-2.987-1.307-4.657-1.307-2.404,0-4.664,.936-6.364,2.636-.391,.391-.391,1.024,0,1.414,.391,.391,1.023,.391,1.414,0,1.322-1.322,3.08-2.05,4.95-2.05s3.627,.728,4.949,2.05c.092,.092,.203,.165,.325,.216,.122,.051,.252,.077,.382,.077s.26-.027,.382-.077c.244-.101,.439-.296,.541-.54,.051-.122,.077-.252,.077-.382h0v-2.343Z"/>
</svg>