<svg xmlns="http://www.w3.org/2000/svg" width="450" height="450" viewBox="0 0 450 450">
  <rect x="200" y="50" width="50" height="350" rx="24.99997"/>
  <path d="M350,275V175a25,25,0,0,0-25-25h0a25,25,0,0,1-25-25V125a25,25,0,0,1,25-25h0a74.93415,74.93415,0,0,1,75,75V275a74.93418,74.93418,0,0,1-75,75h0a25,25,0,0,1-25-25v0a25,25,0,0,1,25-25h0A25,25,0,0,0,350,275Z"/>
  <path d="M150,125V325a25,25,0,0,1-25,25h0a74.93418,74.93418,0,0,1-75-75V175a74.93418,74.93418,0,0,1,75-75h0A25,25,0,0,1,150,125Z"/>
</svg>
