<?xml version="1.0" encoding="UTF-8"?>
<svg id="b" data-name="Layer 1" xmlns="http://www.w3.org/2000/svg" width="24" height="24" viewBox="0 0 24 24">
  <path d="M3,10V4c0-.552,.448-1,1-1h12c.464,0,.867,.319,.973,.77,.106,.456-.111,.917-.526,1.125L4.447,10.895c-.31,.155-.678,.138-.973-.044-.294-.182-.474-.504-.474-.851Zm2-5v3.382l6.764-3.382H5Zm11.973,15.23c.107-.455-.111-.917-.526-1.125L4.447,13.105c-.31-.155-.678-.138-.973,.044-.294,.182-.474,.504-.474,.851v6c0,.552,.448,1,1,1h12c.464,0,.867-.319,.973-.77Zm3.027-1.573c.552,0,1-.448,1-1s-.448-1-1-1h-.307c.846-1.391,1.307-2.987,1.307-4.657,0-2.404-.936-4.664-2.636-6.364-.391-.391-1.024-.391-1.414,0-.391,.391-.391,1.023,0,1.414,1.322,1.322,2.05,3.08,2.05,4.95s-.728,3.627-2.05,4.949c-.092,.092-.165,.203-.216,.325-.051,.122-.077,.252-.077,.382s.027,.26,.077,.382c.101,.244,.296,.439,.54,.541,.122,.051,.252,.077,.382,.077h2.343Zm-3-6.657"/>
</svg>