<svg xmlns="http://www.w3.org/2000/svg" width="450" height="450" viewBox="0 0 450 450">
  <path d="M225,50h0a25,25,0,0,1,25,25V375a25,25,0,0,1-25,25H225a25,25,0,0,1-25-25V75a25,25,0,0,1,25-25Z" transform="translate(450.00002 0) rotate(90)"/>
  <path d="M175,350H275a25,25,0,0,0,25-25h0a25,25,0,0,1,25-25h0a25,25,0,0,1,25,25h0a74.93418,74.93418,0,0,1-75,75H175a74.93418,74.93418,0,0,1-75-75h0a25,25,0,0,1,25-25H125a25,25,0,0,1,25,25h0A25,25,0,0,0,175,350Z"/>
  <path d="M325,150H125a25,25,0,0,1-25-25v0a74.93418,74.93418,0,0,1,75-75H275a74.93418,74.93418,0,0,1,75,75v0A25,25,0,0,1,325,150Z"/>
</svg>
