<?xml version="1.0" encoding="UTF-8"?>
<svg id="b" data-name="Layer 1" xmlns="http://www.w3.org/2000/svg" width="24" height="24" viewBox="0 0 24 24">
  <path d="M21,6h-7.59003l-1.69995-1.70001c-.19-.19-.44-.29999-.71002-.29999H3c-.54999,0-1,.44995-1,1v14c0,.56,.45001,1,1,1H21c.54999,0,1-.44,1-1V7c0-.55005-.45001-1-1-1Zm-8,4v2h2c.54999,0,1,.44995,1,1,0,.56-.45001,1-1,1h-2v2c0,.56-.45001,1-1,1s-1-.44-1-1v-2h-2c-.54999,0-1-.44-1-1,0-.55005,.45001-1,1-1h2v-2c0-.55005,.45001-1,1-1s1,.44995,1,1Z"/>
</svg>