<svg xmlns="http://www.w3.org/2000/svg" width="450" height="450" viewBox="0 0 450 450">
  <g>
    <path d="M431.58765,100H220.99554L204.73816,61.28369A18.412,18.412,0,0,0,187.76178,50H18.41235A18.41239,18.41239,0,0,0,0,68.41211V381.58789A18.41239,18.41239,0,0,0,18.41235,400h413.1753A18.41235,18.41235,0,0,0,450,381.58789V118.41211A18.41235,18.41235,0,0,0,431.58765,100ZM400,350H50V100H166.76624l16.25738,38.71631A18.412,18.412,0,0,0,200,150H400Z"/>
    <path d="M200,200v25H175a25,25,0,0,0,0,50h25v25a25,25,0,0,0,50,0V275h25a25,25,0,0,0,0-50H250V200a25,25,0,0,0-50,0Z"/>
  </g>
</svg>
