<svg xmlns="http://www.w3.org/2000/svg" width="450" height="450" viewBox="0 0 450 450">
  <path d="M353.04,7.3288h-.01l75.95,75.95Zm96.93,106.1499a25.05292,25.05292,0,0,0-1.18-6.51c-.12-.37-.25-.74-.39-1.1-.16-.44006-.34-.88-.52-1.30993a27.78622,27.78622,0,0,0-1.49-2.86011,25.49315,25.49315,0,0,0-3.71-4.73h-.01L428.98,83.27875,353.03,7.3288a24.9811,24.9811,0,0,0-35.35,0L157.32,167.67865a25.00016,25.00016,0,0,0-7.32,17.68v89.64a24.99631,24.99631,0,0,0,25,25h89.64a24.98257,24.98257,0,0,0,17.68-7.32l80.18-80.17v-.01l80.18-80.16992A24.90273,24.90273,0,0,0,450,114.65863C450,114.26874,449.99,113.86871,449.97,113.4787ZM254.28,249.99872H200v-54.28l135.36-135.35,54.28,54.28ZM233.84954,387.35235a124.11586,124.11586,0,0,1-32.49907,13.45112,24.8558,24.8558,0,0,0-18.53953,24.15044v.00007a24.97608,24.97608,0,0,0,31.08112,24.25812,173.78663,173.78663,0,0,0,45.198-18.68943,25.03888,25.03888,0,0,0,5.0894-39.28641l-.00477-.00476A24.94518,24.94518,0,0,0,233.84954,387.35235Zm54.31771-65.912A124.29944,124.29944,0,0,1,277.98,343.22116a24.94982,24.94982,0,0,0,3.87547,30.3311l.00474.00475a24.95131,24.95131,0,0,0,39.07243-4.73617,173.99036,173.99036,0,0,0,14.407-30.78964,25.011,25.011,0,0,0-23.5788-33.34344h-.00081A25.055,25.055,0,0,0,288.16725,321.44034Zm-211.72,69.79118-.00475.00475a25.03887,25.03887,0,0,0,5.08941,39.28639,173.78624,173.78624,0,0,0,45.19792,18.68944A24.97609,24.97609,0,0,0,157.81094,424.954v-.00006a24.8558,24.8558,0,0,0-18.53952-24.15044,124.11591,124.11591,0,0,1-32.49906-13.45111A24.94518,24.94518,0,0,0,76.44724,391.23152ZM25.0448,292.18776h-.00006A24.97609,24.97609,0,0,0,.78662,323.2689a173.78689,173.78689,0,0,0,18.68945,45.19794,25.03887,25.03887,0,0,0,39.28639,5.08942l.00477-.00477a24.94519,24.94519,0,0,0,3.87914-30.32515,124.11533,124.11533,0,0,1-13.45113-32.49906A24.8558,24.8558,0,0,0,25.0448,292.18776ZM19.47605,190.90867a173.78738,173.78738,0,0,0-18.68943,45.198,24.97609,24.97609,0,0,0,24.25813,31.08112h0a24.8558,24.8558,0,0,0,24.15044-18.53952,124.11547,124.11547,0,0,1,13.45113-32.49908A24.94518,24.94518,0,0,0,58.76724,185.824l-.00477-.00477A25.03887,25.03887,0,0,0,19.47605,190.90867Zm56.96567-22.77018.00473.00473a24.94984,24.94984,0,0,0,30.33111,3.87548,124.29964,124.29964,0,0,1,21.78081-10.18724,25.055,25.055,0,0,0,16.75257-23.59282v-.00079a25.011,25.011,0,0,0-33.34342-23.5788,173.98839,173.98839,0,0,0-30.78962,14.407A24.95131,24.95131,0,0,0,76.44172,168.13849Z" style="fill: #000026"/>
</svg>
