<?xml version="1.0" encoding="UTF-8"?>
<svg id="b" data-name="Layer 1" xmlns="http://www.w3.org/2000/svg" width="24" height="24" viewBox="0 0 24 24">
  <path d="M20.17,13.63l-.4-.34-.8-.69c.02-.2,.03-.4,.03-.6s-.01-.4-.03-.6l.8-.69,.4-.34,.23-.2c.36-.32,.45-.84,.21-1.26l-.41-.71-.54-.93-.27-.47-.41-.71c-.24-.42-.74-.6-1.19-.45l-.78,.27-1,.35c-.33-.23-.68-.43-1.04-.6l-.2-1.04-.16-.81c-.09-.47-.5-.81-.98-.81h-3.26c-.48,0-.89,.34-.98,.81l-.16,.81-.2,1.04c-.36,.17-.71,.37-1.04,.6l-1-.35-.78-.27c-.45-.15-.95,.03-1.19,.45l-.41,.71-.4,.7-.41,.7-.41,.71c-.24,.42-.15,.94,.21,1.26l.23,.2,.4,.34,.8,.69c-.02,.2-.03,.4-.03,.6s.01,.4,.03,.6l-.8,.69-.4,.34-.23,.2c-.36,.32-.45,.84-.21,1.26l.41,.71,.41,.7,.4,.7,.41,.71c.24,.42,.74,.6,1.19,.45l.78-.27,1-.35c.33,.23,.68,.43,1.04,.6l.2,1.04,.16,.81c.09,.47,.5,.81,.98,.81h3.26c.48,0,.89-.34,.98-.81l.16-.81,.2-1.04c.36-.17,.71-.37,1.04-.6l1,.35,.78,.27c.45,.15,.95-.03,1.19-.45l.41-.71,.27-.47,.54-.93,.41-.71c.24-.42,.15-.94-.21-1.26l-.23-.2Zm-8.17,2.12c-2.07,0-3.75-1.68-3.75-3.75s1.68-3.75,3.75-3.75,3.75,1.68,3.75,3.75-1.68,3.75-3.75,3.75Z"/>
  <circle cx="12" cy="12" r="2.25" fill="blue"/>
</svg>