<?xml version="1.0" encoding="UTF-8"?>
<svg id="b" data-name="Layer 1" xmlns="http://www.w3.org/2000/svg" width="24" height="24" viewBox="0 0 24 24">
  <path d="M20.16998,13.63l-.39996-.34003-.80005-.69c.02002-.20001,.03003-.39996,.03003-.59998s-.01001-.40002-.03003-.60004l.80005-.69,.39996-.33997,.23004-.20001c.35999-.32001,.44995-.84003,.20996-1.26001l-.40997-.70996-.54004-.93005-.26996-.46997-.41003-.71002c-.23999-.41998-.73999-.59998-1.19-.44995l-.77997,.26996-1,.35004c-.33002-.23004-.67999-.43005-1.04004-.60004l-.19995-1.03998-.16003-.81c-.08997-.47003-.5-.81-.97998-.81h-3.26001c-.47998,0-.89001,.33997-.97998,.81l-.16003,.81-.19995,1.03998c-.36005,.16998-.71002,.37-1.04004,.60004l-1-.35004-.77997-.26996c-.45001-.15002-.95001,.02997-1.19,.44995l-.41003,.71002-.39996,.70001-.41003,.70001-.40997,.70996c-.23999,.41998-.15002,.94,.20996,1.26001l.23004,.20001,.39996,.33997,.80005,.69c-.02002,.20001-.03003,.40002-.03003,.60004s.01001,.39996,.03003,.59998l-.80005,.69-.39996,.34003-.23004,.19995c-.35999,.32001-.44995,.84003-.20996,1.26001l.40997,.71002,.41003,.70001,.39996,.70001,.41003,.70996c.23999,.41998,.73999,.60004,1.19,.45001l.77997-.27002,1-.34998c.33002,.22998,.67999,.42999,1.04004,.59998l.19995,1.04004,.16003,.81c.08997,.46997,.5,.81,.97998,.81h3.26001c.47998,0,.89001-.34003,.97998-.81l.16003-.81,.19995-1.04004c.36005-.16998,.71002-.37,1.04004-.59998l1,.34998,.77997,.27002c.45001,.15002,.95001-.03003,1.19-.45001l.41003-.70996,.26996-.47003,.54004-.92999,.40997-.71002c.23999-.41998,.15002-.94-.20996-1.26001l-.23004-.19995Zm-8.16998,2.12c-2.07001,0-3.75-1.67999-3.75-3.75s1.67999-3.75,3.75-3.75,3.75,1.67999,3.75,3.75-1.67999,3.75-3.75,3.75Z"/>
  <circle cx="12" cy="12" r="2.25" style="fill: blue;"/>
</svg>