<svg xmlns="http://www.w3.org/2000/svg" width="450" height="450" viewBox="0 0 450 450">
  <path d="M445.21883,230.06508c0,68.43419-24.37091,126.18046-66.75079,165.36961C341.344,429.74966,290.52736,450,229.78612,450c-87.94073,0-163.88193-50.62094-200.82-124.12512a222.4659,222.4659,0,0,1,0-201.74973C65.90419,50.62093,141.84539,0,229.78612,0c49.57016,0,92.53058,14.86212,127.7482,40.09649a25.02483,25.02483,0,0,1,3.16647,38.043l-28.832,28.83641a25.11888,25.11888,0,0,1-31.89654,2.88424c-20.36942-13.77473-44.187-20.7939-70.18613-20.7939-58.69568,0-108.377,39.56111-126.19025,93.00087a135.53441,135.53441,0,0,0-7.12532,42.928,130.515,130.515,0,0,0,7.12532,42.93777c17.81321,53.43979,67.49457,93.00086,126.19025,93.00086,30.37058,0,56.053-8.25086,76.30331-21.74781,23.627-15.93408,39.57093-39.37515,45.003-67.12277H254.78611a25,25,0,0,1-25-25v-34.564a25,25,0,0,1,25-25H419.531a24.9878,24.9878,0,0,1,24.92774,23.025C444.95424,216.90808,445.21883,223.40958,445.21883,230.06508Z" style="fill: #000026"/>
</svg>
