<svg xmlns="http://www.w3.org/2000/svg" width="450" height="450" viewBox="0 0 450 450">
  <path d="M421.85742,178.415a24.99975,24.99975,0,0,0-20.18164-17.01465L295.08594,145.9126,247.418,49.32617a24.99917,24.99917,0,0,0-44.83594,0l-47.668,96.58643L48.32422,161.40039a24.99976,24.99976,0,0,0-13.85547,42.64209l77.12793,75.18262-18.208,106.15869a25.00061,25.00061,0,0,0,36.27442,26.35449L225,361.6167l95.33691,50.12158a25.00061,25.00061,0,0,0,36.27442-26.35449l-18.208-106.15869,77.12793-75.18262A24.9998,24.9998,0,0,0,421.85742,178.415Zm-127.7666,74.18017a24.99913,24.99913,0,0,0-7.19043,22.12793l11.86719,69.18653L225,305.12793V116.87939l31.06543,62.94727a25.00094,25.00094,0,0,0,18.82422,13.67627l69.46777,10.09375Z" />
</svg>
