<?xml version="1.0" encoding="UTF-8"?>
<svg id="b" data-name="Layer 1" xmlns="http://www.w3.org/2000/svg" width="24" height="24" viewBox="0 0 24 24">
  <circle cx="12" cy="12" r="10" fill="blue"/>
  <g>
    <circle cx="12" cy="18.25" r="1.25"/>
    <path d="M12,16c-.552,0-1-.447-1-1v-1c0-1.654,1.346-3,3-3,.551,0,1-.448,1-1v-1.051c0-.552-.449-1-1-1h-4c-.551,0-1,.448-1,1v1.051c0,.553-.448,1-1,1s-1-.447-1-1v-1.051c0-1.654,1.346-3,3-3h4c1.654,0,3,1.346,3,3v1.051c0,1.654-1.346,3-3,3-.551,0-1,.448-1,1v1c0,.553-.448,1-1,1Z"/>
  </g>
</svg>