<?xml version="1.0" encoding="UTF-8"?>
<svg id="b" data-name="Layer 1" xmlns="http://www.w3.org/2000/svg" width="24" height="24" viewBox="0 0 24 24">
  <path d="M12,2C6.477,2,2,6.477,2,12s4.477,10,10,10,10-4.477,10-10S17.523,2,12,2Zm0,17.5c-.69,0-1.25-.56-1.25-1.25s.56-1.25,1.25-1.25,1.25,.56,1.25,1.25-.56,1.25-1.25,1.25Zm5-9.5c0,1.654-1.346,3-3,3-.551,0-1,.448-1,1v1c0,.553-.448,1-1,1s-1-.447-1-1v-1c0-1.654,1.346-3,3-3,.551,0,1-.448,1-1v-1.051c0-.552-.449-1-1-1h-4c-.551,0-1,.448-1,1v1.051c0,.553-.448,1-1,1s-1-.447-1-1v-1.051c0-1.654,1.346-3,3-3h4c1.654,0,3,1.346,3,3v1.051Z"/>
</svg>