<svg xmlns="http://www.w3.org/2000/svg" width="450" height="450" viewBox="0 0 450 450">
  <path d="M225,0C100.74023,0,0,100.74023,0,225S100.74023,450,225,450,450,349.25977,450,225,349.25977,0,225,0Zm20.81982,356.1001a29.44367,29.44367,0,1,1,8.63038-20.81983A29.38675,29.38675,0,0,1,245.81982,356.1001Zm13.04-121.34033A10.03947,10.03947,0,0,0,250,244.75v15.53027a25,25,0,1,1-50,0v-26.2705c0-27.50977,22.49023-48.7295,50-48.7295a25.01884,25.01884,0,0,0,24.99023-25.56054c-.29-13.46-12.13037-24.43946-25.59033-24.43946H200a24.99593,24.99593,0,0,0-25,25,25,25,0,1,1-50,0,75.00935,75.00935,0,0,1,75-75h49.04c41.29,0,75.5498,32.96,75.96,74.23975A75.12551,75.12551,0,0,1,258.85986,234.75977Z"/>
</svg>
