<?xml version="1.0" encoding="UTF-8"?>
<svg id="uuid-4c899229-73f9-41fa-98a2-7a6e2911a7fe" data-name="Layer 1" xmlns="http://www.w3.org/2000/svg" width="24" height="24" viewBox="0 0 24 24">
  <path d="M9.556,18.103l-1.852,1.852c-.188,.188-.444,.294-.711,.293l-2.995-.01c-.89-.003-1.333-1.08-.702-1.708l3.35-3.338c.195-.195,.511-.194,.706,0l2.204,2.204c.195,.195,.195,.512,0,.707ZM20.703,7.02l-3.014-2.979c-.368-.364-.952-.387-1.347-.053L7.753,11.227c-.448,.378-.477,1.058-.062,1.472l4.358,4.351c.415,.414,1.095,.384,1.472-.064l7.245-8.611c.336-.399,.309-.989-.062-1.355Z"/>
</svg>