<?xml version="1.0" encoding="UTF-8"?>
<svg id="uuid-867602b7-f275-40f0-a06a-22e7e5ca6c86" data-name="Layer 1" xmlns="http://www.w3.org/2000/svg" width="24" height="24" viewBox="0 0 24 24">
  <path d="M9.556,18.103l-1.852,1.852c-.188,.188-.444,.294-.711,.293l-2.995-.01c-.89-.003-1.333-1.08-.702-1.708l3.35-3.338c.195-.195,.511-.194,.706,0l2.204,2.204c.195,.195,.195,.512,0,.707Z" fill="blue"/>
  <path d="M20.765,8.375l-7.245,8.611c-.377,.448-1.057,.478-1.472,.064l-4.358-4.351c-.415-.414-.386-1.095,.062-1.472L16.341,3.988c.395-.333,.98-.31,1.347,.053l3.014,2.979c.371,.366,.398,.956,.062,1.355Z"/>
</svg>