<svg xmlns="http://www.w3.org/2000/svg" width="450" height="450" viewBox="0 0 450 450">
  <g>
    <polygon points="160.049 112.502 95.098 150 30.144 112.502 95.098 75 160.049 112.502" style="fill: #e3e3e3"/>
    <polygon points="225 225 225 450 160.049 412.502 160.049 337.502 95.098 300 95.098 375 30.144 337.502 30.144 112.502 95.098 150 95.098 225 160.049 262.502 160.049 187.502 225 225"/>
    <polygon points="160.049 337.502 95.098 375 95.098 300 160.049 337.502" style="fill: #555"/>
    <polygon points="419.856 112.502 354.905 150 289.954 187.502 225 225 160.049 187.502 225 150 289.954 112.502 354.905 75 419.856 112.502" style="fill: #e3e3e3"/>
    <path d="M354.905,150l-64.95093,37.50156L224.99992,225V450l64.95414-37.49844L354.905,375l64.95094-37.49843v-225Zm0,150-64.95093,37.50156v-75L354.905,225Z" style="fill: #555"/>
    <polygon points="354.905 300 289.954 337.502 289.954 262.502 322.428 281.252 322.431 281.252 354.905 300" style="fill: #e3e3e3"/>
    <polygon points="354.905 225 354.905 300 322.431 281.252 322.428 281.252 289.954 262.502 354.905 225"/>
    <polygon points="160.049 187.502 160.049 262.502 95.098 225 160.049 187.502" style="fill: #e3e3e3"/>
    <polygon points="160.049 112.502 160.049 187.502 95.098 225 95.098 150 160.049 112.502" style="fill: #555"/>
    <polygon points="225 75 225 150 160.049 112.502 160.049 37.502 225 75"/>
    <polygon points="289.954 37.502 225 75 160.049 37.502 225 0 289.954 37.502" style="fill: #e3e3e3"/>
    <polygon points="289.954 37.502 289.954 112.502 225 150 225 75 289.954 37.502" style="fill: #555"/>
  </g>
</svg>
