<svg xmlns="http://www.w3.org/2000/svg" width="450" height="450" viewBox="0 0 450 450">
  <path d="M274.28992,253.46873v97.6l84.52-48.79993v-97.61Zm23.49023,56.91v-29.79l25.7898,14.89Zm37.5398-35.24-15.1399-8.74-10.6499-6.15,25.7898-14.9Zm-61.03-21.67005v97.6l84.52-48.79993v-97.61Zm23.49023,56.91v-29.79l25.7898,14.89Zm37.5398-35.24-15.1399-8.74-10.6499-6.15,25.7898-14.9Zm-61.03-21.67005v97.6l84.52-48.79993v-97.61Zm23.49023,56.91v-29.79l25.7898,14.89Zm37.5398-35.24-15.1399-8.74-10.6499-6.15,25.7898-14.9Zm-61.03-21.67005v97.6l84.52-48.79993v-97.61Zm23.49023,56.91v-29.79l25.7898,14.89Zm37.5398-35.24-15.1399-8.74-10.6499-6.15,25.7898-14.9Zm-61.03-21.67005v97.6l84.52-48.79993v-97.61Zm23.49023,56.91v-29.79l25.7898,14.89Zm37.5398-35.24-15.1399-8.74-10.6499-6.15,25.7898-14.9Zm72.04-169.8501L359.57,77.69884a24.97927,24.97927,0,0,0-25,0l-36.7898,21.23v-42.47a25.00462,25.00462,0,0,0-12.5-21.65015l-47.78027-27.59a24.9799,24.9799,0,0,0-25,0l-47.77979,27.59a24.98362,24.98362,0,0,0-12.5,21.65015v42.48l-36.79-21.24a24.97927,24.97927,0,0,0-25,0L42.64,105.28868a25.00477,25.00477,0,0,0-12.5,21.65015V323.06871a25.02061,25.02061,0,0,0,12.5,21.66l47.79,27.58a25.02787,25.02787,0,0,0,25,0l36.79-21.24v42.48a24.98379,24.98379,0,0,0,12.5,21.65015l47.77979,27.58984a25.02786,25.02786,0,0,0,25,0L407.36,344.72874a25.02061,25.02061,0,0,0,12.5-21.66V126.93883A25.00477,25.00477,0,0,0,407.36,105.28868ZM224.99988,27.12877l37.54,21.67993-37.54,21.67-37.5398-21.67Zm-49.2898,42.03,37.5398,21.65991v43.36011l-25.7898-14.89014-11.75-6.78992Zm0,70.47,25.80005,14.8999-25.8,14.89014Zm-72.78-42.02,37.54,21.67993-37.54,21.67017L65.38,119.28868Zm49.29,112.5v29.79l-25.8-14.89Zm61.02979,205.99-37.5398-21.67993v-70.48l-84.53-48.8v70.48L53.63,323.93883V139.62877l37.55,21.66992v70.49l11.75,6.78,72.78,42.02v-70.48l37.5398,21.66992Zm-25.7898-226.33,25.7898-14.9,11.75-6.78,11.75-6.78,61.03027-35.24v-.01L347.07,97.60875,384.62,119.28868,224.99988,211.43883ZM396.36,323.93883,236.74988,416.09874V231.78868l116.19018-67.07983L396.36,139.62877Z" style="fill: #000026"/>
</svg>
