<svg xmlns="http://www.w3.org/2000/svg" width="450" height="450" viewBox="0 0 450 450">
  <path d="M136.61182,236.61182a24.99942,24.99942,0,0,1,35.355,0L200,264.64453V25a25,25,0,0,1,50,0V264.64453l28.0332-28.03271a24.99942,24.99942,0,0,1,35.355,0h0a24.99971,24.99971,0,0,1,0,35.35522l-70.71045,70.71069a25,25,0,0,1-35.35546,0L136.61182,271.967a24.99971,24.99971,0,0,1,0-35.35522ZM375,150H325a25,25,0,0,0,0,50h25V400H100V200h25a25,25,0,0,0,0-50H75a25,25,0,0,0-25,25V425a25,25,0,0,0,25,25H375a25,25,0,0,0,25-25V175A25,25,0,0,0,375,150Z"/>
</svg>
