<?xml version="1.0" encoding="UTF-8"?>
<svg id="b" data-name="Layer 1" xmlns="http://www.w3.org/2000/svg" width="24" height="24" viewBox="0 0 24 24">
  <path d="M20,14c-.552,0-1,.448-1,1v3c0,.551-.449,1-1,1H6c-.551,0-1-.449-1-1v-3c0-.552-.448-1-1-1s-1,.448-1,1v3c0,1.654,1.346,3,3,3h12c1.654,0,3-1.346,3-3v-3c0-.552-.448-1-1-1Z"/>
  <path d="M11.293,17.207c.195,.195,.451,.293,.707,.293s.512-.098,.707-.293l4.5-4.5c.286-.286,.372-.716,.217-1.09-.155-.374-.52-.617-.924-.617h-2.5V4c0-.552-.448-1-1-1h-2c-.552,0-1,.448-1,1v7h-2.5c-.404,0-.769,.244-.924,.617-.155,.374-.069,.804,.217,1.09l4.5,4.5Z"/>
</svg>