<svg xmlns="http://www.w3.org/2000/svg" width="450" height="450" viewBox="0 0 450 450">
  <g>
    <path d="M207.32227,292.67773a25,25,0,0,0,35.35546,0L313.38818,221.967a24.99983,24.99983,0,1,0-35.355-35.35522L250,214.64453V75a25,25,0,0,0-50,0V214.64453l-28.0332-28.03271a24.99983,24.99983,0,1,0-35.355,35.35522Z" style="fill: #000026"/>
    <path d="M375,250a25,25,0,0,0-25,25v75H100V275a25,25,0,0,0-50,0V375a25,25,0,0,0,25,25H375a25,25,0,0,0,25-25V275A25,25,0,0,0,375,250Z" style="fill: #000026"/>
  </g>
</svg>
