<svg id="Layer_1" data-name="Layer 1" xmlns="http://www.w3.org/2000/svg" viewBox="0 0 450 450"><rect x="150" y="350.01" width="50" height="50" rx="12.5"/><rect x="250" y="350.01" width="50" height="50" rx="12.5"/><rect x="350" y="350.01" width="50" height="50" rx="12.5"/><rect x="50" y="50.01" width="50" height="50" rx="12.5"/><path d="M300,175V275a25,25,0,0,1-25,25H175a25,25,0,0,1-25-25V175a25,25,0,0,1,25-25H275A25,25,0,0,1,300,175Z"/><path d="M150,87.51v-25A12.5,12.5,0,0,1,162.5,50h25A12.5,12.5,0,0,1,200,62.51v25A12.5,12.5,0,0,1,187.5,100h-25A12.5,12.5,0,0,1,150,87.51Z"/><path d="M300,62.51v25A12.5,12.5,0,0,1,287.5,100h-25A12.5,12.5,0,0,1,250,87.51v-25A12.5,12.5,0,0,1,262.5,50h25A12.5,12.5,0,0,1,300,62.51Z"/><rect x="350" y="250.01" width="50" height="50" rx="12.5"/><rect x="350" y="150.01" width="50" height="50" rx="12.5"/><rect x="50" y="250.01" width="50" height="50" rx="12.5"/><rect x="50" y="150.01" width="50" height="50" rx="12.5"/></svg>