<?xml version="1.0" encoding="UTF-8"?>
<svg id="b" data-name="Layer 1" xmlns="http://www.w3.org/2000/svg" width="24" height="24" viewBox="0 0 24 24">
  <path d="M5.5,14h-.5v-.4873c0-.55225-.44775-1-1-1s-1,.44775-1,1v1.4873c0,.55225,.44775,1,1,1h1.5c.55225,0,1-.44775,1-1s-.44775-1-1-1Z" style="fill: blue;"/>
  <path d="M5.5127,3h-1.5127c-.55225,0-1,.44775-1,1v1.5c0,.55225,.44775,1,1,1s1-.44775,1-1v-.5h.5127c.55225,0,1-.44775,1-1s-.44775-1-1-1Z" style="fill: blue;"/>
  <path d="M9,5h1c.55225,0,1-.44775,1-1s-.44775-1-1-1h-1c-.55225,0-1,.44775-1,1s.44775,1,1,1Z" style="fill: blue;"/>
  <path d="M15,3h-1.4873c-.55225,0-1,.44775-1,1s.44775,1,1,1h.4873v.5c0,.55225,.44775,1,1,1s1-.44775,1-1v-1.5c0-.55225-.44775-1-1-1Z" style="fill: blue;"/>
  <path d="M4,11c.55225,0,1-.44775,1-1v-1c0-.55225-.44775-1-1-1s-1,.44775-1,1v1c0,.55225,.44775,1,1,1Z" style="fill: blue;"/>
  <path d="M20,8h-1.5c-.55225,0-1,.44775-1,1s.44775,1,1,1h.5v.4873c0,.55225,.44775,1,1,1s1-.44775,1-1v-1.4873c0-.55225-.44775-1-1-1Z" style="fill: blue;"/>
  <path d="M20,17.5c-.55225,0-1,.44775-1,1v.5h-.5127c-.55225,0-1,.44775-1,1s.44775,1,1,1h1.5127c.55225,0,1-.44775,1-1v-1.5c0-.55225-.44775-1-1-1Z" style="fill: blue;"/>
  <path d="M15,19h-1c-.55225,0-1,.44775-1,1s.44775,1,1,1h1c.55225,0,1-.44775,1-1s-.44775-1-1-1Z" style="fill: blue;"/>
  <path d="M10.4873,19h-.4873v-.5c0-.55225-.44775-1-1-1s-1,.44775-1,1v1.5c0,.55225,.44775,1,1,1h1.4873c.55225,0,1-.44775,1-1s-.44775-1-1-1Z" style="fill: blue;"/>
  <path d="M20,13c-.55225,0-1,.44775-1,1v1c0,.55225,.44775,1,1,1s1-.44775,1-1v-1c0-.55225-.44775-1-1-1Z" style="fill: blue;"/>
  <rect x="8" y="8" width="8" height="8" rx="1" ry="1"/>
</svg>