<?xml version="1.0" encoding="UTF-8"?>
<svg id="b" data-name="Layer 1" xmlns="http://www.w3.org/2000/svg" width="24" height="24" viewBox="0 0 24 24">
  <path d="M20.608,1.583H5.592c-1.374,0-2.492,1.118-2.492,2.492V12.303c0,1.374,1.118,2.492,2.492,2.492h14.993c1.387,0,2.515-1.128,2.515-2.515V4.075c0-1.374-1.118-2.492-2.492-2.492Zm-5.383,2.469c0-.276,.224-.5,.5-.5h1.5c.276,0,.5,.224,.5,.5v1.525c0,.276-.224,.5-.5,.5h-1.5c-.276,0-.5-.224-.5-.5v-1.525Zm.812,3.375v1.525c0,.276-.224,.5-.5,.5h-1.5c-.276,0-.5-.224-.5-.5v-1.525c0-.276,.224-.5,.5-.5h1.5c.276,0,.5,.224,.5,.5Zm-4.188-3.375c0-.276,.224-.5,.5-.5h1.5c.276,0,.5,.224,.5,.5v1.525c0,.276-.224,.5-.5,.5h-1.5c-.276,0-.5-.224-.5-.5v-1.525Zm.812,3.375v1.525c0,.276-.224,.5-.5,.5h-1.5c-.276,0-.5-.224-.5-.5v-1.525c0-.276,.224-.5,.5-.5h1.5c.276,0,.5,.224,.5,.5Zm-4.188-3.375c0-.276,.224-.5,.5-.5h1.5c.276,0,.5,.224,.5,.5v1.525c0,.276-.224,.5-.5,.5h-1.5c-.276,0-.5-.224-.5-.5v-1.525Zm-3.375,0c0-.276,.224-.5,.5-.5h1.5c.276,0,.5,.224,.5,.5v1.525c0,.276-.224,.5-.5,.5h-1.5c-.276,0-.5-.224-.5-.5v-1.525Zm0,3.375c0-.276,.224-.5,.5-.5h3.188c.276,0,.5,.224,.5,.5v1.525c0,.276-.224,.5-.5,.5h-3.188c-.276,0-.5-.224-.5-.5v-1.525Zm2.5,4.887c0,.276-.224,.5-.5,.5h-1.5c-.276,0-.5-.224-.5-.5v-1.549c0-.276,.224-.5,.5-.5h1.5c.276,0,.5,.224,.5,.5v1.549Zm10.125,.012c0,.276-.224,.5-.5,.5H8.975c-.276,0-.5-.224-.5-.5v-1.525c0-.276,.224-.5,.5-.5h8.25c.276,0,.5,.224,.5,.5v1.525Zm3.375-.012c0,.276-.224,.5-.5,.5h-1.5c-.276,0-.5-.224-.5-.5v-1.549c0-.276,.224-.5,.5-.5h1.5c.276,0,.5,.224,.5,.5v1.549Zm0-3.363c0,.276-.224,.5-.5,.5h-3.188c-.276,0-.5-.224-.5-.5v-1.525c0-.276,.224-.5,.5-.5h3.188c.276,0,.5,.224,.5,.5v1.525Zm0-3.375c0,.276-.224,.5-.5,.5h-1.5c-.276,0-.5-.224-.5-.5v-1.525c0-.276,.224-.5,.5-.5h1.5c.276,0,.5,.224,.5,.5v1.525Z"/>
</svg>