<?xml version="1.0" encoding="UTF-8"?>
<svg id="b" data-name="Layer 1" xmlns="http://www.w3.org/2000/svg" width="24" height="24" viewBox="0 0 24 24">
  <path d="M19.508,5.394H4.492c-1.374,0-2.492,1.118-2.492,2.492v8.229c0,1.374,1.118,2.492,2.492,2.492h14.993c1.387,0,2.515-1.128,2.515-2.515V7.886c0-1.374-1.118-2.492-2.492-2.492Zm-2.883,10.744c0,.276-.224,.5-.5,.5H7.875c-.276,0-.5-.224-.5-.5v-1.525c0-.276,.224-.5,.5-.5h8.25c.276,0,.5,.224,.5,.5v1.525Z" fill="blue"/>
  <rect x="4" y="14.076" width="2.5" height="2.55" rx=".5" ry=".5"/>
  <rect x="17.5" y="14.076" width="2.5" height="2.55" rx=".5" ry=".5"/>
  <rect x="4" y="10.738" width="4.187" height="2.525" rx=".5" ry=".5"/>
  <rect x="9.063" y="10.738" width="2.5" height="2.525" rx=".5" ry=".5"/>
  <rect x="12.438" y="10.738" width="2.5" height="2.525" rx=".5" ry=".5"/>
  <rect x="15.813" y="10.738" width="4.188" height="2.525" rx=".5" ry=".5"/>
  <rect x="4" y="7.363" width="2.5" height="2.525" rx=".5" ry=".5"/>
  <rect x="7.375" y="7.363" width="2.5" height="2.525" rx=".5" ry=".5"/>
  <rect x="10.75" y="7.363" width="2.5" height="2.525" rx=".5" ry=".5"/>
  <rect x="14.125" y="7.363" width="2.5" height="2.525" rx=".5" ry=".5"/>
  <rect x="17.5" y="7.363" width="2.5" height="2.525" rx=".5" ry=".5"/>
</svg>