<svg xmlns="http://www.w3.org/2000/svg" width="450" height="450" viewBox="0 0 450 450">
  <path d="M325,0H125A124.99431,124.99431,0,0,0,0,125v50A125.03422,125.03422,0,0,0,100,297.49756V375a25,25,0,0,0,25,25H300v25a25,25,0,0,0,25,25h0a25,25,0,0,0,25-25V375a25,25,0,0,0-25-25H150V300H325A124.99431,124.99431,0,0,0,450,175V125A124.99431,124.99431,0,0,0,325,0Zm75,175a75.01042,75.01042,0,0,1-73.06006,74.98c-.6499.01025-1.28992.02-1.93994.02H150V225a25,25,0,0,0-25-25h0a25,25,0,0,0-25,25v20.71338A75.02654,75.02654,0,0,1,50,175V125a75.01042,75.01042,0,0,1,73.06006-74.98C123.71,50.00977,124.35,50,125,50H325c.65,0,1.29.00977,1.93994.02A75.01042,75.01042,0,0,1,400,125Z" style="fill: #000026"/>
</svg>
