<?xml version="1.0" encoding="UTF-8"?>
<svg id="b" data-name="Layer 1" xmlns="http://www.w3.org/2000/svg" width="24" height="24" viewBox="0 0 24 24">
  <path d="M6.05,8.513l-.002-.123c0-.546,.076-1.059,.226-1.523,.169-.526-.12-1.09-.646-1.259-.528-.166-1.09,.12-1.259,.646-.213,.663-.321,1.382-.321,2.137l.002,.164c.012,.545,.457,.979,1,.979h.021c.552-.012,.99-.468,.979-1.021Z"/>
  <path d="M7.066,11.742c-.308-.458-.927-.583-1.388-.276-.459,.308-.583,.928-.276,1.388,.428,.64,.949,1.209,1.55,1.692,.186,.148,.406,.221,.626,.221,.293,0,.583-.128,.78-.373,.346-.431,.277-1.061-.152-1.406-.442-.355-.826-.774-1.14-1.245Z" fill="blue"/>
  <path d="M17.975,9.155c.103,.467,.517,.785,.976,.785,.071,0,.144-.008,.216-.023,.54-.119,.881-.652,.762-1.191-.161-.732-.424-1.446-.78-2.123-.257-.488-.862-.675-1.351-.419-.489,.258-.677,.862-.419,1.351,.273,.519,.474,1.064,.597,1.621Z" fill="blue"/>
  <path d="M13.179,14.634c-.58-.003-1.177-.071-1.771-.203-.546-.117-1.074,.222-1.193,.76-.119,.539,.221,1.073,.76,1.193,.734,.162,1.474,.247,2.195,.25h.005c.55,0,.997-.444,1-.995,.003-.553-.443-1.002-.995-1.005Z" fill="blue"/>
  <path d="M10.803,2.879c-.096-.544-.615-.91-1.158-.811-.773,.136-1.503,.373-2.167,.703-.495,.245-.697,.846-.451,1.34,.175,.353,.528,.556,.896,.556,.149,0,.301-.033,.443-.104,.494-.245,1.041-.422,1.626-.525,.544-.096,.907-.614,.811-1.158Z" fill="blue"/>
  <path d="M19.002,11.951c-.493-.255-1.094-.062-1.348,.428-.047,.091-.098,.179-.148,.262-.273,.441-.641,.819-1.092,1.123-.458,.31-.578,.931-.27,1.389,.193,.286,.509,.44,.83,.44,.192,0,.387-.056,.559-.171,.687-.464,1.249-1.045,1.675-1.731,.079-.129,.153-.26,.222-.392,.254-.491,.062-1.094-.428-1.348Z"/>
  <path d="M16.43,4.691c.293-.468,.151-1.085-.317-1.378-.154-.097-.312-.188-.476-.276-.496-.267-1.022-.489-1.563-.662-.528-.169-1.089,.124-1.257,.649-.167,.526,.124,1.089,.649,1.257,.425,.135,.836,.309,1.224,.518,.124,.066,.245,.137,.362,.21,.165,.104,.348,.152,.529,.152,.333,0,.659-.166,.849-.47Z"/>
  <path d="M6.109,21.948c-.507,0-.941-.383-.994-.898-.023-.223-.512-5.522,3.789-9.81,.391-.39,1.024-.39,1.414,.002s.389,1.024-.002,1.414c-3.633,3.622-3.216,8.145-3.211,8.19,.057,.549-.343,1.04-.893,1.097-.035,.003-.069,.005-.103,.005Z"/>
</svg>