<svg id="Layer_1" data-name="Layer 1" xmlns="http://www.w3.org/2000/svg" viewBox="0 0 450 450"><path d="M410.66,306.76h0a25,25,0,0,0-24.28,0L225,396.41,63.62,306.76a25,25,0,0,0-24.28,0h0a25,25,0,0,0,0,43.71l173.52,96.4a25,25,0,0,0,24.28,0l173.52-96.4A25,25,0,0,0,410.66,306.76Z"/><path d="M39.34,99.56,212.86,3.16a25,25,0,0,1,24.28,0l173.52,96.4a25,25,0,0,1,0,43.71l-173.52,96.4a25,25,0,0,1-24.28,0L39.34,143.27A25,25,0,0,1,39.34,99.56Z"/><path d="M410.66,246.87l-173.52,96.4a25,25,0,0,1-24.28,0L39.34,246.87a25,25,0,0,1,0-43.71,25,25,0,0,1,24.28,0L225,292.82l161.38-89.66a25,25,0,0,1,24.28,43.71Z"/></svg>