<svg xmlns="http://www.w3.org/2000/svg" width="1799.993" height="1803.0819999999999" viewBox="0 0 1799.993 1803.0819999999999"><g><path d="M851.6 14.085l-694.795 386a99.655 99.655 0 0 0 0 174.228l694.8 386a99.65 99.65 0 0 0 96.793 0l694.795 -386a99.655 99.655 0 0 0 0 -174.228L948.393 14.085A99.655 99.655 0 0 0 851.6 14.085Z"/><path d="M1643.5 1402.053l-695.033 386.9a99.654 99.654 0 0 1 -96.941 0l-695.033 -386.9a99.655 99.655 0 0 1 0.037 -174.166h0a99.653 99.653 0 0 1 96.915 0.027L900 1587.935l646.551 -360.021a99.653 99.653 0 0 1 96.915 -0.027h0A99.655 99.655 0 0 1 1643.5 1402.053Z"/><path d="M1643.5 987.179l-695.033 386.9a99.654 99.654 0 0 1 -96.941 0l-695.033 -386.9A99.655 99.655 0 0 1 156.53 813.013h0a99.653 99.653 0 0 1 96.915 0.027L900 1173.061 1546.548 813.04a99.653 99.653 0 0 1 96.915 -0.027h0A99.655 99.655 0 0 1 1643.5 987.179Z"/></g><path width="17.99993" fill="none" d="M0 0H1799.993V1803.082H0V0z"/></svg>