<svg xmlns="http://www.w3.org/2000/svg" width="1799.993" height="1803.0819999999999" viewBox="0 0 1799.993 1803.0819999999999"><g><path d="M1643.1 1402.548l-695.033 386.9a99.654 99.654 0 0 1 -96.941 0L156.1 1402.548a99.655 99.655 0 0 1 0.037 -174.167h0a99.656 99.656 0 0 1 96.915 0.027L899.6 1588.429l646.551 -360.021a99.656 99.656 0 0 1 96.915 -0.027h0A99.655 99.655 0 0 1 1643.1 1402.548Z"/><path d="M1643.1 987.674l-695.033 386.9a99.654 99.654 0 0 1 -96.941 0L156.1 987.674a99.654 99.654 0 0 1 0.037 -174.166h0a99.656 99.656 0 0 1 96.915 0.026L899.6 1173.555l646.551 -360.021a99.656 99.656 0 0 1 96.915 -0.026h0A99.654 99.654 0 0 1 1643.1 987.674Z"/><path d="M1666.206 417.8a92.46 92.46 0 0 0 -22 -17h-1l-8 -5L949.2 13.8a98.619 98.619 0 0 0 -97 0l-685 381 -10 6a76.1 76.1 0 0 0 -22 17 173.538 173.538 0 0 0 -13 15c-3 6 -6 11 -9 17a98.589 98.589 0 0 0 -7 38 106.659 106.659 0 0 0 3 25 91.667 91.667 0 0 0 9 23V536.8h1a95.284 95.284 0 0 0 15 20l1 1 22 17c1 0 1 1 2 1l692 385h1a102.021 102.021 0 0 0 96 0l687 -383 8 -4a98.032 98.032 0 0 0 23 -156ZM900.2 759.8l-489 -272 489 -273 489 272Z"/></g><path width="17.99993" fill="none" d="M0 0H1799.993V1803.082H0V0z"/></svg>