<?xml version="1.0" encoding="UTF-8"?>
<svg id="b" data-name="Layer 1" xmlns="http://www.w3.org/2000/svg" width="24" height="24" viewBox="0 0 24 24">
  <path d="M19.55273,15.10547l-7.55273,3.77637-7.55273-3.77637c-.49512-.24805-1.09473-.04639-1.3418,.44727-.24707,.49414-.04688,1.09473,.44727,1.3418l8,4c.14062,.07031,.29395,.10547,.44727,.10547s.30664-.03516,.44727-.10547l8-4c.49414-.24707,.69434-.84766,.44727-1.3418-.24707-.49365-.84668-.69531-1.3418-.44727Z" style="fill: blue;"/>
  <path d="M19.55273,11.10547l-7.55273,3.77637-7.55273-3.77637c-.49512-.24707-1.09473-.04639-1.3418,.44727-.24707,.49414-.04688,1.09473,.44727,1.3418l8,4c.14062,.07031,.29395,.10547,.44727,.10547s.30664-.03516,.44727-.10547l8-4c.49414-.24707,.69434-.84766,.44727-1.3418-.24707-.49365-.84668-.69434-1.3418-.44727Z" style="fill: blue;"/>
  <path d="M3.55273,8.89453l8,4c.14062,.07031,.29395,.10547,.44727,.10547s.30664-.03516,.44727-.10547l8-4c.33887-.16943,.55273-.51562,.55273-.89453s-.21387-.7251-.55273-.89453L12.44727,3.10547c-.28125-.14062-.61328-.14062-.89453,0L3.55273,7.10547c-.33887,.16943-.55273,.51562-.55273,.89453s.21387,.7251,.55273,.89453Z"/>
</svg>