<svg xmlns="http://www.w3.org/2000/svg" width="17.99993" height="18.03082" viewBox="0 0 17.99993 18.03082">
  <g>
    <path d="M8.516.14085l-6.94795,3.86a.99655.99655,0,0,0,0,1.74228l6.948,3.86a.9965.9965,0,0,0,.96793,0l6.94795-3.86a.99655.99655,0,0,0,0-1.74228L9.48393.14085A.99655.99655,0,0,0,8.516.14085Z"/>
    <path d="M16.435,14.02053l-6.95033,3.869a.99654.99654,0,0,1-.96941,0l-6.95033-3.869a.99655.99655,0,0,1,.00037-1.74166h0a.99653.99653,0,0,1,.96915.00027L9,15.87935l6.46551-3.60021a.99653.99653,0,0,1,.96915-.00027h0A.99655.99655,0,0,1,16.435,14.02053Z"/>
    <path d="M16.435,9.87179l-6.95033,3.869a.99654.99654,0,0,1-.96941,0l-6.95033-3.869A.99655.99655,0,0,1,1.5653,8.13013h0a.99653.99653,0,0,1,.96915.00027L9,11.73061,15.46548,8.1304a.99653.99653,0,0,1,.96915-.00027h0A.99655.99655,0,0,1,16.435,9.87179Z"/>
  </g>
</svg>
