<?xml version="1.0" encoding="UTF-8"?>
<svg id="b" data-name="Layer 1" xmlns="http://www.w3.org/2000/svg" width="24" height="24" viewBox="0 0 24 24">
  <path d="M19.553,15.105l-7.553,3.776-7.553-3.776c-.495-.248-1.095-.046-1.342,.447-.247,.494-.047,1.095,.447,1.342l8,4c.141,.07,.294,.105,.447,.105s.307-.035,.447-.105l8-4c.494-.247,.694-.848,.447-1.342-.247-.494-.847-.695-1.342-.447Z" fill="blue"/>
  <path d="M19.553,11.105l-7.553,3.776-7.553-3.776c-.495-.247-1.095-.046-1.342,.447-.247,.494-.047,1.095,.447,1.342l8,4c.141,.07,.294,.105,.447,.105s.307-.035,.447-.105l8-4c.494-.247,.694-.848,.447-1.342-.247-.494-.847-.694-1.342-.447Z" fill="blue"/>
  <path d="M3.553,8.895l8,4c.141,.07,.294,.105,.447,.105s.307-.035,.447-.105l8-4c.339-.169,.553-.516,.553-.895s-.214-.725-.553-.895L12.447,3.105c-.281-.141-.613-.141-.895,0L3.553,7.105c-.339,.169-.553,.516-.553,.895s.214,.725,.553,.895Z"/>
</svg>