<svg xmlns="http://www.w3.org/2000/svg" width="450" height="450" viewBox="0 0 450 450">
  <g>
    <path d="M410.66162,306.759h-.00012a25.00124,25.00124,0,0,0-24.283,0L225,396.41382,63.62158,306.759a25.00124,25.00124,0,0,0-24.283,0l-.00024.00025a25.0008,25.0008,0,0,0,0,43.70923L212.85889,446.8689a24.99982,24.99982,0,0,0,24.28222,0l173.52051-96.40039A25.001,25.001,0,0,0,410.66162,306.759Z"/>
    <path d="M39.34009,99.56006,212.86,3.15991a25.021,25.021,0,0,1,24.28,0L410.66,99.56006a24.99839,24.99839,0,0,1,0,43.71l-173.52,96.3999a24.96759,24.96759,0,0,1-24.28,0L39.34009,143.27A24.9983,24.9983,0,0,1,39.34009,99.56006Z"/>
    <path d="M410.66,246.87012,237.14,343.27a24.96889,24.96889,0,0,1-24.28,0l-173.5199-96.3999a25.00088,25.00088,0,0,1,0-43.71021,25.02081,25.02081,0,0,1,24.27991,0L225,292.82007l161.38-89.66016a25.00051,25.00051,0,0,1,24.28,43.71021Z"/>
  </g>
  <rect y="0.01489" width="450" height="450" fill="none"/>
</svg>
