<svg xmlns="http://www.w3.org/2000/svg" width="17.99993" height="18.03082" viewBox="0 0 17.99993 18.03082">
  <g>
    <path d="M16.431,14.02548l-6.95033,3.869a.99654.99654,0,0,1-.96941,0L1.561,14.02548a.99655.99655,0,0,1,.00037-1.74167h0a.99656.99656,0,0,1,.96915.00027L8.996,15.88429l6.46551-3.60021a.99656.99656,0,0,1,.96915-.00027h0A.99655.99655,0,0,1,16.431,14.02548Z"/>
    <path d="M16.431,9.87674l-6.95033,3.869a.99654.99654,0,0,1-.96941,0L1.561,9.87674a.99654.99654,0,0,1,.00037-1.74166h0a.99656.99656,0,0,1,.96915.00026L8.996,11.73555l6.46551-3.60021a.99656.99656,0,0,1,.96915-.00026h0A.99654.99654,0,0,1,16.431,9.87674Z"/>
    <path d="M16.66206,4.178a.9246.9246,0,0,0-.22-.17h-.01l-.08-.05L9.492.138a.98619.98619,0,0,0-.97,0l-6.85,3.81-.1.06a.761.761,0,0,0-.22.17,1.73538,1.73538,0,0,0-.13.15c-.03.06-.06.11-.09.17a.98589.98589,0,0,0-.07.38,1.06659,1.06659,0,0,0,.03.25.91667.91667,0,0,0,.09.23V5.368h.01a.95284.95284,0,0,0,.15.2l.01.01.22.17c.01,0,.01.01.02.01l6.92,3.85h.01a1.02021,1.02021,0,0,0,.96,0l6.87-3.83.08-.04a.98032.98032,0,0,0,.23-1.56ZM9.002,7.598l-4.89-2.72,4.89-2.73,4.89,2.72Z"/>
  </g>
</svg>
