<svg xmlns="http://www.w3.org/2000/svg" width="450" height="450" viewBox="0 0 450 450">
  <g>
    <path d="M39.33691,143.25488l173.522,96.40113a24.99982,24.99982,0,0,0,24.28222,0L410.663,143.25488a25,25,0,0,0,0-43.70776L237.14111,3.146a24.99976,24.99976,0,0,0-24.28222,0L39.33691,99.54712A25.00006,25.00006,0,0,0,39.33691,143.25488ZM225,53.60107l122.04,67.79981L225,189.20093l-122.04-67.8Z" />
    <path d="M410.66162,306.74414h-.00012a25.00124,25.00124,0,0,0-24.283,0L225,396.39893,63.62158,306.74414a25.00124,25.00124,0,0,0-24.283,0l-.00024.00024a25.0008,25.0008,0,0,0,0,43.70923L212.85889,446.854a24.99976,24.99976,0,0,0,24.28222,0l173.52051-96.40039A25.001,25.001,0,0,0,410.66162,306.74414Z" />
    <path d="M410.66162,203.14648h-.00012a25.00124,25.00124,0,0,0-24.283,0L225,292.80127,63.62158,203.14648a25.00124,25.00124,0,0,0-24.283,0h-.00024a25.001,25.001,0,0,0,0,43.70948L212.85889,343.2561a24.99976,24.99976,0,0,0,24.28222,0L410.66162,246.856A25.001,25.001,0,0,0,410.66162,203.14648Z" />
  </g>
</svg>
