<?xml version="1.0" encoding="UTF-8"?>
<svg id="b" data-name="Layer 1" xmlns="http://www.w3.org/2000/svg" width="24" height="24" viewBox="0 0 24 24">
  <rect x="5.636" y="11" width="12.728" height="2" rx="1" ry="1" transform="translate(-4.971 12) rotate(-45)" fill="blue"/>
  <path d="M8,21H4c-.552,0-1-.448-1-1v-4c0-.552,.448-1,1-1h4c.552,0,1,.448,1,1v4c0,.552-.448,1-1,1Zm-3-2h2v-2h-2v2Z"/>
  <path d="M20,9h-4c-.552,0-1-.448-1-1V4c0-.552,.448-1,1-1h4c.552,0,1,.448,1,1v4c0,.552-.448,1-1,1Zm-3-2h2v-2h-2v2Z"/>
</svg>