
<svg id="b" data-name="Layer 1" xmlns="http://www.w3.org/2000/svg" width="24" height="24" viewBox="0 0 24 24">
  <rect x="5.63604" y="11.00011" width="12.72792" height="1.99979" rx=".99989" ry=".99989"
    transform="translate(-4.97056 12) rotate(-45)" style="fill: blue;" />
  <path
    d="M8,21H4c-.55225,0-1-.44775-1-1v-4c0-.55225,.44775-1,1-1h4c.55225,0,1,.44775,1,1v4c0,.55225-.44775,1-1,1Zm-3-2h2v-2h-2v2Z" />
  <path
    d="M20,9h-4c-.55225,0-1-.44775-1-1V4c0-.55225,.44775-1,1-1h4c.55225,0,1,.44775,1,1v4c0,.55225-.44775,1-1,1Zm-3-2h2v-2h-2v2Z" />
</svg>