<svg xmlns="http://www.w3.org/2000/svg" width="450" height="450" viewBox="0 0 450 450">
  <g>
    <path d="M425,175H125V151.2417c0-55.33179,45.27075-101.56592,100.60156-101.24a99.76482,99.76482,0,0,1,75.57862,35.21606,24.97046,24.97046,0,0,0,31.072,5.66309h0a25.01112,25.01112,0,0,0,6.95385-38.12647A149.6461,149.6461,0,0,0,222.94531.01367C141.14673,1.1084,75.01953,68.34424,75.01074,150H75v25H25A25,25,0,0,0,0,200V350A99.99994,99.99994,0,0,0,100,450H350A99.99994,99.99994,0,0,0,450,350V200A25,25,0,0,0,425,175ZM350,400H100a50,50,0,0,1-50-50V225H400V350A50,50,0,0,1,350,400Z" style="fill: #000026"/>
    <circle cx="225" cy="312.5" r="37.5" style="fill: #000026"/>
  </g>
</svg>
