<?xml version="1.0" encoding="UTF-8"?>
<svg id="b" data-name="Layer 1" xmlns="http://www.w3.org/2000/svg" width="24" height="24" viewBox="0 0 24 24">
  <path d="M20,9.99996H4c-.55225,0-1,.44775-1,1v5c0,2.75684,2.24316,5,5,5h8c2.75684,0,5-2.24316,5-5v-5c0-.55225-.44775-1-1-1Zm-8,7.5c-1.10455,0-2-.89545-2-2,0-1.10461,.89545-2,2-2s2,.89539,2,2c0,1.10455-.89545,2-2,2Z"/>
  <path d="M14.52509,5.77696c-.80612-.54974-1.79402-.84074-2.8559-.76521-2.38723,.16981-4.1692,2.2949-4.1692,4.68817v.30004s-2,0-2,0v-.21351c0-3.64568,2.98215-6.85579,6.62715-6.78526,1.33264,.02579,2.57184,.456,3.59218,1.1736,.49565,.34858,.52917,1.07667,.1007,1.50515h0c-.34856,.34856-.88768,.37476-1.29493,.09703Z" style="fill: blue;"/>
</svg>