<svg xmlns="http://www.w3.org/2000/svg" width="18.03082" height="18.03082" viewBox="0 0 18.03082 18.03082">
  <path d="M17.00766,7.00586h-11.99v-.81a4.13451,4.13451,0,0,1,3.81-4.19,3.9865,3.9865,0,0,1,3.38,1.6.94819.94819,0,0,0,.75.4h.12a.96872.96872,0,0,0,.77-1.55,5.98692,5.98692,0,0,0-5.57-2.41,6.14377,6.14377,0,0,0-5.26,6.17005v.79h-2a.98442.98442,0,0,0-.99.95c0,.02-.01.03-.01.05v6a4.02031,4.02031,0,0,0,4.02,4.02h9.96a4.02026,4.02026,0,0,0,4.02-4.02v-6A1.00506,1.00506,0,0,0,17.00766,7.00586Zm-9.49,5.51a1.495,1.495,0,1,1,1.5,1.49A1.498,1.498,0,0,1,7.51761,12.51587Z"/>
  <rect width="18.03082" height="18.03082" fill="none"/>
</svg>
