<?xml version="1.0" encoding="UTF-8"?>
<svg id="b" data-name="Layer 1" xmlns="http://www.w3.org/2000/svg" width="24" height="24" viewBox="0 0 24 24">
  <path d="M20,10H4c-.552,0-1,.448-1,1v5c0,2.757,2.243,5,5,5h8c2.757,0,5-2.243,5-5v-5c0-.552-.448-1-1-1Zm-8,7.5c-1.105,0-2-.895-2-2s.895-2,2-2,2,.895,2,2-.895,2-2,2Z"/>
  <path d="M14.525,5.777c-.806-.55-1.794-.841-2.856-.765-2.387,.17-4.169,2.295-4.169,4.688v.3s-2,0-2,0v-.214c0-3.646,2.982-6.856,6.627-6.785,1.333,.026,2.572,.456,3.592,1.174,.496,.349,.529,1.077,.101,1.505h0c-.349,.349-.888,.375-1.295,.097Z" fill="blue"/>
</svg>