<?xml version="1.0" encoding="UTF-8"?>
<svg id="b" data-name="Layer 1" xmlns="http://www.w3.org/2000/svg" width="24" height="24" viewBox="0 0 24 24">
  <path d="M20,10H7.5v-.3c0-2.393,1.782-4.518,4.169-4.688,1.062-.076,2.05,.216,2.856,.765,.407,.278,.946,.252,1.295-.097,.428-.428,.395-1.157-.101-1.505-1.02-.718-2.26-1.148-3.592-1.174-3.645-.07-6.627,3.14-6.627,6.785v.214h-1.5c-.552,0-1,.448-1,1v5c0,2.757,2.243,5,5,5h8c2.757,0,5-2.243,5-5v-5c0-.552-.448-1-1-1Zm-8,7.5c-1.105,0-2-.895-2-2s.895-2,2-2,2,.895,2,2-.895,2-2,2Z"/>
</svg>