<svg xmlns="http://www.w3.org/2000/svg" width="18.03082" height="18.03082" viewBox="0 0 18.03082 18.03082">
  <path d="M17.01211,7.0021H5.01541V6.20053A4.13036,4.13036,0,0,1,8.8248,2.00979a3.979,3.979,0,0,1,3.38562,1.593.942.942,0,0,0,.74707.40265h.12134a.9697.9697,0,0,0,.77215-1.55A5.99182,5.99182,0,0,0,8.27377.05008,6.143,6.143,0,0,0,3.01541,6.21866V7.0021H1.01871a.99815.99815,0,0,0-.994.95746c-.0008.016-.00934.0296-.00934.04584v6.00006a4.02,4.02,0,0,0,4.0199,4.02h9.9602a4.01992,4.01992,0,0,0,4.0199-4.02V8.0054A1.0033,1.0033,0,0,0,17.01211,7.0021ZM14.0104,16.01541h-9.99a2.005,2.005,0,0,1-2.005-2.005V9.00863h14V14.0104A2.005,2.005,0,0,1,14.0104,16.01541ZM10.50876,12.512a1.49335,1.49335,0,1,1-1.49335-1.49328A1.49333,1.49333,0,0,1,10.50876,12.512Z"/>
  <rect width="18.03082" height="18.03082" fill="none"/>
</svg>
