<?xml version="1.0" encoding="UTF-8"?>
<svg id="b" data-name="Layer 1" xmlns="http://www.w3.org/2000/svg" width="24" height="24" viewBox="0 0 24 24">
  <path d="M20,10H4c-.55225,0-1,.44775-1,1v5c0,2.75684,2.24316,5,5,5h8c2.75684,0,5-2.24316,5-5v-5c0-.55225-.44775-1-1-1Zm-8,7.5c-1.10455,0-2-.89545-2-2,0-1.10461,.89545-2,2-2s2,.89539,2,2c0,1.10455-.89545,2-2,2Z"/>
  <path d="M7.5,10v-.5c0-2.48145,2.01855-4.5,4.5-4.5s4.5,2.01855,4.5,4.5v.5h2v-.5c0-3.58398-2.91602-6.5-6.5-6.5s-6.5,2.91602-6.5,6.5v.5h2Z" style="fill: blue;"/>
</svg>