<svg xmlns="http://www.w3.org/2000/svg" width="450" height="450" viewBox="0 0 450 450">
  <path d="M425,175.01H125V151.26c0-55.34009,45.27-101.57007,100.6001-101.24a99.75581,99.75581,0,0,1,75.57983,35.21,24.99966,24.99966,0,0,0,38.03-32.46A149.65824,149.65824,0,0,0,222.95.03C141.1499,1.12012,75.02,68.35986,75.01,150.01H75v25H25a25.00264,25.00264,0,0,0-25,25v150a99.99807,99.99807,0,0,0,100,100H350a99.99807,99.99807,0,0,0,100-100v-150A25.00264,25.00264,0,0,0,425,175.01Zm-200,175a37.5,37.5,0,1,1,37.5-37.5A37.49451,37.49451,0,0,1,225,350.01Z" style="fill: #000026"/>
</svg>
