<svg xmlns="http://www.w3.org/2000/svg" width="450" height="450" viewBox="0 0 450 450">
  <g>
    <path d="M425,175H375V150a150,150,0,0,0-300,0v25H25A25,25,0,0,0,0,200V350A99.99994,99.99994,0,0,0,100,450H350A99.99994,99.99994,0,0,0,450,350V200A25,25,0,0,0,425,175ZM225,50A99.99807,99.99807,0,0,1,325,150v25H125V150A99.99807,99.99807,0,0,1,225,50ZM350,400H100a50,50,0,0,1-50-50V225H400V350A50,50,0,0,1,350,400Z" style="fill: #000026"/>
    <circle cx="225" cy="312.5" r="37.5" style="fill: #000026"/>
  </g>
</svg>
