<svg xmlns="http://www.w3.org/2000/svg" width="18.03082" height="18.03082" viewBox="0 0 18.03082 18.03082">
  <path d="M17.01211,7.00217h-1.9967V6.0054a6,6,0,0,0-12,0v.99677H1.01871a.99816.99816,0,0,0-.99378.95629c-.00079.01642-.00952.03034-.00952.04694v6.00012a4.01991,4.01991,0,0,0,4.02,4.0199h9.96014a4.01986,4.01986,0,0,0,4.0199-4.0199V8.0054A1.00328,1.00328,0,0,0,17.01211,7.00217ZM5.01541,6.0054a4,4,0,0,1,8,0v.99677h-8Zm8.995,10.01h-9.99a2.005,2.005,0,0,1-2.005-2.005V9.0087h14v5.0017A2.005,2.005,0,0,1,14.0104,16.01541Zm-3.50164-3.50336a1.49335,1.49335,0,1,1-1.49335-1.49334A1.49333,1.49333,0,0,1,10.50876,12.51205Z"/>
  <rect width="18.03082" height="18.03082" fill="none"/>
</svg>
