<svg xmlns="http://www.w3.org/2000/svg" width="450" height="450" viewBox="0 0 450 450">
  <path d="M224.98545,5.55606C100.74724,5.55606,0,106.29087,0,230.56914,0,329.96828,64.46309,414.3007,153.87991,444.05705c11.25039,2.06359,15.35678-4.88273,15.35678-10.84561,0-5.3413-.19476-19.49086-.30388-38.26762-62.58735,13.59706-75.79344-30.161-75.79344-30.161C82.90835,338.79034,68.158,331.87026,68.158,331.87026c-20.42874-13.96032,1.54562-13.67717,1.54562-13.67717,22.57943,1.59121,34.46365,23.1871,34.46365,23.1871,20.071,34.38354,52.66029,24.4551,65.48108,18.69527,2.04425-14.54046,7.85657-24.45509,14.28492-30.07956C133.97053,324.31757,81.4456,305.01455,81.4456,218.794c0-24.56283,8.76682-44.64764,23.15948-60.376-2.3136-5.69215-10.03481-28.56847,2.20586-59.54584,0,0,18.8914-6.04989,61.87325,23.06556a213.26564,213.26564,0,0,1,112.65778,0c42.9556-29.11545,61.81247-23.06556,61.81247-23.06556,12.2752,30.97737,4.55261,53.85369,2.239,59.54584,14.42029,15.72833,23.12771,35.81314,23.12771,60.376,0,86.43607-52.60642,105.45593-102.73072,111.02652,8.079,6.94633,15.27528,20.67875,15.27528,41.66689,0,30.07956-.27625,54.3468-.27625,61.72407,0,6.01674,4.0526,13.01694,15.47142,10.81936C385.59069,414.21921,450,329.942,450,230.56914,450,106.29087,349.25138,5.55606,224.98545,5.55606Z" style="fill-rule: evenodd"/>
</svg>
