<svg xmlns="http://www.w3.org/2000/svg" width="450" height="450" viewBox="0 0 450 450">
  <path d="M445.2188,230.06508c0,68.4342-24.37091,126.18046-66.75078,165.3696C341.344,429.74966,290.52734,450,229.7861,450c-87.94074,0-163.88193-50.62093-200.82-124.12511a222.4659,222.4659,0,0,1,0-201.74972C65.90417,50.62093,141.84536,0,229.7861,0c49.57015,0,92.53057,14.86212,127.7482,40.09649a25.02478,25.02478,0,0,1,3.16648,38.043l-28.832,28.83641a25.11887,25.11887,0,0,1-31.89655,2.88424c-20.36942-13.77473-44.18705-20.7939-70.18613-20.7939-58.69568,0-108.377,39.56112-126.19025,93.00086a135.53448,135.53448,0,0,0-7.12533,42.928,130.515,130.515,0,0,0,7.12533,42.93777c17.8132,53.4398,67.49457,93.00086,126.19025,93.00086,30.37059,0,56.053-8.25086,76.30333-21.7478,23.627-15.93408,39.57092-39.37516,45.003-67.12276H254.78608a25,25,0,0,1-25-25v-34.564a25,25,0,0,1,25-25H419.531a24.9878,24.9878,0,0,1,24.92773,23.025C444.95422,216.90808,445.2188,223.40958,445.2188,230.06508Z"/>
</svg>
