<svg xmlns="http://www.w3.org/2000/svg" width="450" height="450" viewBox="0 0 450 450">
  <g>
    <path d="M407.325,107.32,389.64508,89.64523,336.60992,36.61008a24.99589,24.99589,0,0,0-35.34985,0h0a24.99618,24.99618,0,0,0,0,35.35009l28.04,28.04H74.99615a24.996,24.996,0,0,0-24.99609,24.9961v75.0039a24.99629,24.99629,0,0,0,24.99609,24.9961h.00757a24.99634,24.99634,0,0,0,24.99634-24.9961v-50h229.29l-28.03247,28.03223a24.99657,24.99657,0,0,0-.00269,35.34766l.00513.00488a24.996,24.996,0,0,0,35.35254.00244l63.38745-63.38721,7.32739-7.32763A24.99625,24.99625,0,0,0,407.325,107.32Z" />
    <path d="M375.00372,225.00363h-.00757a24.99639,24.99639,0,0,0-24.99609,24.99658v50H120.71l28.03247-28.03271a24.99634,24.99634,0,0,0,.00244-35.34766l-.00488-.00488a24.99648,24.99648,0,0,0-35.35254-.00244L50.00006,300.00021l-7.32764,7.32764a24.99567,24.99567,0,0,0,.00269,35.352L60.3548,360.35519,113.39,413.38986a24.99663,24.99663,0,0,0,35.3501.00049v-.00049a24.996,24.996,0,0,0,0-35.34961l-28.04-28.04H375.00006a25,25,0,0,0,25-25h0v-75A24.99645,24.99645,0,0,0,375.00372,225.00363Z" />
  </g>
</svg>
