<svg id="Layer_1" data-name="Layer 1" xmlns="http://www.w3.org/2000/svg" viewBox="0 0 450 450"><path d="M442.68,407.32,276.41,241.05,341.06,221a25,25,0,0,0,7-44.29l-78.34-55.4L271,25.32A25,25,0,0,0,231,5l-76.9,57.39L63.24,31.54a25,25,0,0,0-31.7,31.7l30.81,90.87L5,231A25,25,0,0,0,25.32,271l95.94-1.23,55.41,78.34a25,25,0,0,0,44.28-7l20.1-64.66L407.32,442.68a25,25,0,0,0,35.36-35.36ZM205.59,222l-17.35,55.8L154.5,230.13a25,25,0,0,0-20.41-10.56h-.32l-58.44.74,35-46.83a25,25,0,0,0,3.64-23L95.16,95.15l55.34,18.77a25,25,0,0,0,23-3.64l46.83-34.95-.74,58.44a25,25,0,0,0,10.56,20.73l47.71,33.74L222,205.59A25,25,0,0,0,205.59,222Z"/></svg>