<svg xmlns="http://www.w3.org/2000/svg" width="450" height="450" viewBox="0 0 450 450">
  <path d="M442.6823,407.32006l-166.27-166.27,64.64991-20.1001a25.00235,25.00235,0,0,0,7.00976-44.29L269.73211,121.26l1.23-95.93994A25.00028,25.00028,0,0,0,231.01189,4.96L154.112,62.35009,63.24236,31.54a24.98858,24.98858,0,0,0-31.70019,31.7l30.81005,90.86987L4.96209,231.01A25,25,0,0,0,25.322,270.96l95.93994-1.23,55.41016,78.34009a24.99532,24.99532,0,0,0,44.28027-7.01l20.09961-64.66016,166.27,166.28a25.00337,25.00337,0,0,0,35.36035-35.35986ZM205.592,222.04l-17.34961,55.80005-33.74023-47.71021A24.99444,24.99444,0,0,0,134.092,219.57006h-.31982l-58.44.74L110.2824,173.48a24.98467,24.98467,0,0,0,3.63965-22.98L95.16228,95.14989l55.33985,18.77a25.0126,25.0126,0,0,0,22.98-3.63989l46.83008-34.94995L219.572,133.77A24.98764,24.98764,0,0,0,230.132,154.5l47.71,33.74-55.7998,17.3501A24.97386,24.97386,0,0,0,205.592,222.04Z" />
</svg>
