<?xml version="1.0" encoding="UTF-8"?>
<svg id="b" data-name="Layer 1" xmlns="http://www.w3.org/2000/svg" width="24" height="24" viewBox="0 0 24 24">
  <path d="M20.801,11.402l-2.048-2.745,1.1-3.242c.123-.36,.029-.759-.24-1.028-.269-.269-.667-.361-1.028-.24l-3.243,1.1-2.744-2.048c-.306-.228-.713-.263-1.052-.089-.339,.173-.551,.522-.546,.903l.043,3.424-2.795,1.978c-.311,.22-.47,.597-.41,.973s.328,.686,.691,.799l3.27,1.016,1.016,3.271c.113,.363,.423,.631,.799,.69,.052,.009,.104,.013,.156,.013,.321,0,.627-.155,.816-.423l1.977-2.796,3.424,.044c.39-.023,.731-.207,.904-.546s.138-.747-.09-1.052Z" fill="blue"/>
  <path d="M4,21c-.256,0-.512-.098-.707-.293-.391-.391-.391-1.023,0-1.414L11.293,11.293c.391-.391,1.023-.391,1.414,0s.391,1.023,0,1.414L4.707,20.707c-.195,.195-.451,.293-.707,.293Z"/>
</svg>