<?xml version="1.0" encoding="UTF-8"?>
<svg id="b" data-name="Layer 1" xmlns="http://www.w3.org/2000/svg" width="24" height="24" viewBox="0 0 24 24">
  <path d="M4,8c-.55225,0-1-.44775-1-1v-3c0-.55225,.44775-1,1-1h3c.55225,0,1,.44775,1,1s-.44775,1-1,1h-2v2c0,.55225-.44775,1-1,1Z"/>
  <path d="M20,8c-.55225,0-1-.44775-1-1v-2h-2c-.55225,0-1-.44775-1-1s.44775-1,1-1h3c.55225,0,1,.44775,1,1v3c0,.55225-.44775,1-1,1Z"/>
  <path d="M7,21h-3c-.55225,0-1-.44775-1-1v-3c0-.55225,.44775-1,1-1s1,.44775,1,1v2h2c.55225,0,1,.44775,1,1s-.44775,1-1,1Z"/>
  <path d="M20,21h-3c-.55225,0-1-.44775-1-1s.44775-1,1-1h2v-2c0-.55225,.44775-1,1-1s1,.44775,1,1v3c0,.55225-.44775,1-1,1Z"/>
  <path d="M13,21h-2c-.55225,0-1-.44775-1-1s.44775-1,1-1h2c.55225,0,1,.44775,1,1s-.44775,1-1,1Z" style="fill: blue;"/>
  <path d="M4,14c-.55225,0-1-.44775-1-1v-2c0-.55225,.44775-1,1-1s1,.44775,1,1v2c0,.55225-.44775,1-1,1Z" style="fill: blue;"/>
  <path d="M13,5h-2c-.55225,0-1-.44775-1-1s.44775-1,1-1h2c.55225,0,1,.44775,1,1s-.44775,1-1,1Z" style="fill: blue;"/>
  <path d="M20,14c-.55225,0-1-.44775-1-1v-2c0-.55225,.44775-1,1-1s1,.44775,1,1v2c0,.55225-.44775,1-1,1Z" style="fill: blue;"/>
</svg>