<svg id="Layer_1" data-name="Layer 1" xmlns="http://www.w3.org/2000/svg" viewBox="0 0 450 450"><path d="M425,325h0a25,25,0,0,0-25,25v50H350a25,25,0,0,0,0,50h75a25,25,0,0,0,25-25V350A25,25,0,0,0,425,325Z"/><path d="M100,400H50V350a25,25,0,0,0-25-25h0A25,25,0,0,0,0,350v75a25,25,0,0,0,25,25h75a25,25,0,0,0,0-50Z"/><path d="M425,0H350a25,25,0,0,0-25,25h0a25,25,0,0,0,25,25h50v50a25,25,0,0,0,25,25h0a25,25,0,0,0,25-25V25h0A25,25,0,0,0,425,0Z"/><path d="M100,0H25A25,25,0,0,0,0,25H0v75a25,25,0,0,0,25,25h0a25,25,0,0,0,25-25V50h50a25,25,0,0,0,25-25h0A25,25,0,0,0,100,0Z"/><rect y="175" width="50" height="100" rx="25"/><path d="M250,0H200a25,25,0,0,0-25,25h0a25,25,0,0,0,25,25h50a25,25,0,0,0,25-25h0A25,25,0,0,0,250,0Z"/><path d="M250,400H200a25,25,0,0,0-25,25h0a25,25,0,0,0,25,25h50a25,25,0,0,0,25-25h0A25,25,0,0,0,250,400Z"/><rect x="400" y="175" width="50" height="100" rx="25"/></svg>