<svg xmlns="http://www.w3.org/2000/svg" width="1802.2279999999998" height="1803.0819999999999" viewBox="0 0 1802.2279999999998 1803.0819999999999"><path d="M1601.111 1501.539h0a100 100 0 0 1 -100 100h-1200a100 100 0 0 1 -100 -100h0a100 100 0 0 1 100 -100h1200A100 100 0 0 1 1601.111 1501.539Zm-100 -1299.995h-1200a100 100 0 0 0 -100 100h0a100 100 0 0 0 100 100h1200a100 100 0 0 0 100 -100h0A100 100 0 0 0 1501.112 201.544Zm0 600h-1200a100 100 0 0 0 -100 100h0a100 100 0 0 0 100 100h1200a100 100 0 0 0 100 -100h0A100 100 0 0 0 1501.112 801.541Z"/><path width="18.02228" fill="none" d="M0 0H1802.228V1803.082H0V0z"/></svg>