<svg xmlns="http://www.w3.org/2000/svg" width="450" height="450" viewBox="0 0 450 450">
  <g>
    <path d="M372.08789,229.55957A24.79456,24.79456,0,0,0,347.71313,200H347.35a24.97213,24.97213,0,0,0-24.3816,20.15393,100.025,100.025,0,0,1-195.93688,0A24.97213,24.97213,0,0,0,102.65,200h-.36309a24.79456,24.79456,0,0,0-24.37476,29.55957A150.14831,150.14831,0,0,0,200,347.91663V400H124.82507A24.82507,24.82507,0,0,0,100,424.82507v.34986A24.82507,24.82507,0,0,0,124.82507,450H325.17493A24.82507,24.82507,0,0,0,350,425.17493v-.34986A24.82507,24.82507,0,0,0,325.17493,400H250V347.91663A150.14823,150.14823,0,0,0,372.08789,229.55957Z"/>
    <path d="M224.48,275A75.51818,75.51818,0,0,0,300,199.48V75.52a75.52,75.52,0,1,0-151.04,0V199.48A75.51817,75.51817,0,0,0,224.48,275ZM198.96,75.52a25.52,25.52,0,1,1,51.04,0V199.48a25.52,25.52,0,1,1-51.04,0Z"/>
  </g>
</svg>
