<?xml version="1.0" encoding="UTF-8"?>
<svg id="b" data-name="Layer 1" xmlns="http://www.w3.org/2000/svg" width="24" height="24" viewBox="0 0 24 24">
  <path d="M13.29297,16.79297l-.79297,.79297V6.41406l.79297,.79297c.19531,.19531,.45117,.29297,.70703,.29297s.51172-.09766,.70703-.29297c.39062-.39062,.39062-1.02344,0-1.41406l-2.5-2.5c-.39062-.39062-1.02344-.39062-1.41406,0l-2.5,2.5c-.39062,.39062-.39062,1.02344,0,1.41406s1.02344,.39062,1.41406,0l.79297-.79297v11.17188l-.79297-.79297c-.39062-.39062-1.02344-.39062-1.41406,0s-.39062,1.02344,0,1.41406l2.5,2.5c.19531,.19531,.45117,.29297,.70703,.29297s.51172-.09766,.70703-.29297l2.5-2.5c.39062-.39062,.39062-1.02344,0-1.41406s-1.02344-.39062-1.41406,0Z" style="fill: blue;"/>
  <path d="M21.20703,11.29297l-2.5-2.5c-.39062-.39062-1.02344-.39062-1.41406,0s-.39062,1.02344,0,1.41406l.79297,.79297H5.91406l.79297-.79297c.39062-.39062,.39062-1.02344,0-1.41406s-1.02344-.39062-1.41406,0l-2.5,2.5c-.39062,.39062-.39062,1.02344,0,1.41406l2.5,2.5c.19531,.19531,.45117,.29297,.70703,.29297s.51172-.09766,.70703-.29297c.39062-.39062,.39062-1.02344,0-1.41406l-.79297-.79297h12.17188l-.79297,.79297c-.39062,.39062-.39062,1.02344,0,1.41406,.19531,.19531,.45117,.29297,.70703,.29297s.51172-.09766,.70703-.29297l2.5-2.5c.39062-.39062,.39062-1.02344,0-1.41406Z"/>
</svg>