<?xml version="1.0" encoding="UTF-8"?>
<svg id="b" data-name="Layer 1" xmlns="http://www.w3.org/2000/svg" width="24" height="24" viewBox="0 0 24 24">
  <path d="M13.79297,16.79297l-.79297,.79297V6.41406l.79297,.79297c.19531,.19531,.45117,.29297,.70703,.29297s.51172-.09766,.70703-.29297c.39062-.39062,.39062-1.02344,0-1.41406l-2.49969-2.49969c-.09216-.09229-.20282-.16534-.3252-.21606-.24451-.10114-.51978-.10114-.76428,0-.12238,.05072-.23303,.12378-.3252,.21606l-2.49969,2.49969c-.39062,.39062-.39062,1.02344,0,1.41406s1.02344,.39062,1.41406,0l.79297-.79297v11.17188l-.79297-.79297c-.19531-.19531-.45117-.29297-.70703-.29297s-.51172,.09766-.70703,.29297c-.39062,.39062-.39062,1.02344,0,1.41406l2.49969,2.49969c.09216,.09229,.20282,.16534,.3252,.21606,.24451,.10114,.51978,.10114,.76428,0,.12238-.05072,.23303-.12378,.3252-.21606l2.49969-2.49969c.39062-.39062,.39062-1.02344,0-1.41406s-1.02344-.39062-1.41406,0Z" style="fill: blue;"/>
  <path d="M20.92279,11.61786c-.05072-.12238-.12378-.23303-.21606-.3252l-2.49969-2.49969c-.39062-.39062-1.02344-.39062-1.41406,0s-.39062,1.02344,0,1.41406l.79297,.79297H6.41406l.79297-.79297c.19531-.19531,.29297-.45117,.29297-.70703s-.09766-.51172-.29297-.70703c-.39062-.39062-1.02344-.39062-1.41406,0l-2.49969,2.49969c-.09229,.09216-.16534,.20282-.21606,.3252-.10114,.24451-.10114,.51978,0,.76428,.05072,.12238,.12378,.23303,.21606,.3252l2.49969,2.49969c.39062,.39062,1.02344,.39062,1.41406,0s.39062-1.02344,0-1.41406l-.79297-.79297h11.17188l-.79297,.79297c-.19531,.19531-.29297,.45117-.29297,.70703s.09766,.51172,.29297,.70703c.39062,.39062,1.02344,.39062,1.41406,0l2.49969-2.49969c.09229-.09216,.16534-.20282,.21606-.3252,.10114-.24451,.10114-.51978,0-.76428Z"/>
</svg>