<svg id="Layer_1" data-name="Layer 1" xmlns="http://www.w3.org/2000/svg" viewBox="0 0 450 450"><path d="M442.68,207.32,372,136.61a25,25,0,0,0-35.36,0h0a25,25,0,0,0,0,35.36l28,28H250V85.36l28,28a25,25,0,0,0,35.36,0h0a25,25,0,0,0,0-35.36L242.68,7.32h0a25,25,0,0,0-35.36,0L136.61,78a25,25,0,0,0,0,35.36h0a25,25,0,0,0,35.36,0l28-28V200H85.36l28-28a25,25,0,0,0,0-35.36h0a25,25,0,0,0-35.36,0L7.32,207.32a25,25,0,0,0,0,35.36L78,313.39a25,25,0,0,0,35.36,0h0a25,25,0,0,0,0-35.36l-28-28H200V364.64l-28-28a25,25,0,0,0-35.36,0h0a25,25,0,0,0,0,35.36l70.71,70.71h0a25,25,0,0,0,35.36,0L313.39,372a25,25,0,0,0,0-35.36h0a25,25,0,0,0-35.36,0l-28,28V250H364.64l-28,28a25,25,0,0,0,0,35.36h0a25,25,0,0,0,35.36,0l70.71-70.71A25,25,0,0,0,442.68,207.32Z"/></svg>