<svg xmlns="http://www.w3.org/2000/svg" width="450" height="450" viewBox="0 0 450 450">
  <path d="M442.67773,207.32227l-70.71093-70.7107a24.99987,24.99987,0,0,0-35.355,0v.00025a24.99971,24.99971,0,0,0,0,35.35522L364.64453,200H250V85.35547l28.0332,28.033a24.99987,24.99987,0,0,0,35.355,0v-.00025a24.99971,24.99971,0,0,0,0-35.35522L242.67871,7.32349l-.001-.00122h0a25,25,0,0,0-35.35546,0L136.61182,78.033a25,25,0,0,0,0,35.35547h0a24.99987,24.99987,0,0,0,35.355,0L200,85.35547V200H85.35547l28.03271-28.033a24.99971,24.99971,0,0,0,0-35.35522v-.00025a24.99987,24.99987,0,0,0-35.355,0L7.32227,207.32227a25,25,0,0,0,0,35.35546l70.71093,70.7107a24.99987,24.99987,0,0,0,35.355,0v-.00025a24.99971,24.99971,0,0,0,0-35.35522L85.35547,250H200V364.64453l-28.0332-28.033a24.99987,24.99987,0,0,0-35.355,0v.00025a24.99971,24.99971,0,0,0,0,35.35522l70.70947,70.70947.001.00122h0a25,25,0,0,0,35.35546,0L313.38818,371.967a25,25,0,0,0,0-35.35547h0a24.99987,24.99987,0,0,0-35.355,0L250,364.64453V250H364.64453l-28.03271,28.033a24.99971,24.99971,0,0,0,0,35.35522v.00025a24.99987,24.99987,0,0,0,35.355,0l70.71093-70.7107A25,25,0,0,0,442.67773,207.32227Z" />
</svg>
