<?xml version="1.0" encoding="UTF-8"?>
<svg id="b" data-name="Layer 1" xmlns="http://www.w3.org/2000/svg" width="24" height="24" viewBox="0 0 24 24">
  <path d="M20.923,11.618c-.051-.122-.124-.233-.216-.325l-2.5-2.5c-.391-.391-1.023-.391-1.414,0s-.391,1.023,0,1.414l.793,.793h-4.586V6.414l.793,.793c.195,.195,.451,.293,.707,.293s.512-.098,.707-.293c.391-.391,.391-1.023,0-1.414l-2.5-2.5c-.092-.092-.203-.165-.325-.216-.245-.101-.52-.101-.764,0-.122,.051-.233,.124-.325,.216l-2.5,2.5c-.391,.391-.391,1.023,0,1.414s1.023,.391,1.414,0l.793-.793v4.586H6.414l.793-.793c.195-.195,.293-.451,.293-.707s-.098-.512-.293-.707c-.391-.391-1.023-.391-1.414,0l-2.5,2.5c-.092,.092-.165,.203-.216,.325-.101,.245-.101,.52,0,.764,.051,.122,.124,.233,.216,.325l2.5,2.5c.391,.391,1.023,.391,1.414,0s.391-1.023,0-1.414l-.793-.793h4.586v4.586l-.793-.793c-.195-.195-.451-.293-.707-.293s-.512,.098-.707,.293c-.391,.391-.391,1.023,0,1.414l2.5,2.5c.092,.092,.203,.165,.325,.216,.245,.101,.52,.101,.764,0,.122-.051,.233-.124,.325-.216l2.5-2.5c.391-.391,.391-1.023,0-1.414s-1.023-.391-1.414,0l-.793,.793v-4.586h4.586l-.793,.793c-.195,.195-.293,.451-.293,.707s.098,.512,.293,.707c.391,.391,1.023,.391,1.414,0l2.5-2.5c.092-.092,.165-.203,.216-.325,.101-.245,.101-.52,0-.764Z"/>
</svg>