<svg xmlns="http://www.w3.org/2000/svg" width="17.99993" height="18.03504" viewBox="0 0 17.99993 18.03504">
  <path d="M17.97554,14.81253a1.95758,1.95758,0,0,1-.57,1.4,1.97956,1.97956,0,0,1-2.8,0,1.992,1.992,0,0,1,0-2.79l1.41-1.39,1.39,1.39A1.96846,1.96846,0,0,1,17.97554,14.81253Zm-2.24-4.08-7.01,7.01a1.008,1.008,0,0,1-1.42,0l-7.00995-7.01a.99579.99579,0,0,1,0-1.41l6.31-6.32-1.3-1.29a1.0041,1.0041,0,0,1,1.42-1.42l1.29,1.3,1.41,1.41,6.31,6.32A.99592.99592,0,0,1,15.73555,10.73251Zm-2.12-.7-5.6-5.61-5.6,5.61Z"/>
  <rect width="17.99993" height="18.03504" fill="none"/>
</svg>
