<svg xmlns="http://www.w3.org/2000/svg" width="1799.993" height="1803.0819999999999" viewBox="0 0 1799.993 1803.0819999999999"><path d="M1573.992 1073.041l-701 701a99.582 99.582 0 0 1 -141 0l-702 -701a99.582 99.582 0 0 1 0 -141l631 -632 -129 -129a100.8 100.8 0 0 1 0 -142 99.582 99.582 0 0 1 141 0l271 271 630 632A97.832 97.832 0 0 1 1573.992 1073.041Zm168.083 268.777 -139.357 -139.364 -140.549 139.364a197.494 197.494 0 0 0 -57.17 139.356 195.483 195.483 0 0 0 57.17 139.357 196.981 196.981 0 0 0 279.906 0 195.491 195.491 0 0 0 57.178 -139.357A197.5 197.5 0 0 0 1742.075 1341.818Z"/><path width="17.99993" fill="none" d="M0 0H1799.993V1803.082H0V0z"/></svg>