<svg xmlns="http://www.w3.org/2000/svg" width="1799.993" height="1803.504" viewBox="0 0 1799.993 1803.504"><path d="M1797.554 1481.253a195.758 195.758 0 0 1 -57 140 197.956 197.956 0 0 1 -280 0 199.2 199.2 0 0 1 0 -279l141 -139 139 139A196.846 196.846 0 0 1 1797.554 1481.253Zm-224 -408 -701 701a100.8 100.8 0 0 1 -142 0l-700.995 -701a99.579 99.579 0 0 1 0 -141l631 -632 -130 -129a100.41 100.41 0 0 1 142 -142l129 130 141 141 631 632A99.592 99.592 0 0 1 1573.555 1073.251Zm-212 -70 -560 -561 -560 561Z"/><path width="17.99993" fill="none" d="M0 0H1799.993V1803.504H0V0z"/></svg>