<svg xmlns="http://www.w3.org/2000/svg" width="450" height="450" viewBox="0 0 450 450">
  <g>
    <path d="M398.59009,258.27a24.902,24.902,0,0,1-5.93018,9.41992l-174.98,174.99a.0098.0098,0,0,0-.01.01h-.01a24.98087,24.98087,0,0,1-35.34985,0L7.32007,267.71a25.0472,25.0472,0,0,1,0-35.38989L164.64014,75,132.32007,42.67993A25.0032,25.0032,0,0,1,167.67993,7.32007l224.99,224.99A25.01764,25.01764,0,0,1,398.59009,258.27Z" />
    <path d="M435.35547,335.35547l-26.5166-26.5166a12.5,12.5,0,0,0-17.67774,0l-26.5166,26.5166a49.9999,49.9999,0,0,0,0,70.71045l.00025.00024a49.99987,49.99987,0,0,0,70.71044,0l.00025-.00024A49.9999,49.9999,0,0,0,435.35547,335.35547Z" />
  </g>
</svg>
