<svg xmlns="http://www.w3.org/2000/svg" width="17.99993" height="18.03082" viewBox="0 0 17.99993 18.03082">
  <path d="M15.73251,10.73041l-7.01,7.01a.99581.99581,0,0,1-1.41,0l-7.02-7.01a.99582.99582,0,0,1,0-1.41l6.31-6.32-1.29-1.29a1.008,1.008,0,0,1,0-1.42.99581.99581,0,0,1,1.41,0l2.71,2.71,6.3,6.32A.9783.9783,0,0,1,15.73251,10.73041Zm1.68084,2.68777-1.39357-1.39364-1.40549,1.39364a1.975,1.975,0,0,0-.57171,1.39356,1.95484,1.95484,0,0,0,.57171,1.39357,1.96981,1.96981,0,0,0,2.79906,0,1.95491,1.95491,0,0,0,.57178-1.39357A1.975,1.975,0,0,0,17.41335,13.41818Z"/>
</svg>
