<svg xmlns="http://www.w3.org/2000/svg" width="18.03082" height="18.03082" viewBox="0 0 18.03082 18.03082">
  <path d="M15.73337,9.3172,9.427,3.002,9.429,3,8.0148,1.58575l-.001.001L6.72189.29291A1,1,0,0,0,5.30765,1.70709L6.60049,3.00177.29288,9.3172a1,1,0,0,0,0,1.41418l7.01477,7.00653a1,1,0,0,0,1.41424,0l7.01148-7.00653A1,1,0,0,0,15.73337,9.3172Zm-2.1211.70636L8.01462,15.61725l-5.6004-5.59381L8.0137,4.417Zm4.36327,4.791a1.9515,1.9515,0,0,1-.57,1.39,1.97956,1.97956,0,0,1-2.8,0,1.95153,1.95153,0,0,1-.57-1.39,1.99145,1.99145,0,0,1,.57-1.4l1.41-1.39,1.39,1.39A1.99141,1.99141,0,0,1,17.97554,14.8146Z"/>
  <rect width="18.03082" height="18.03082" fill="none"/>
</svg>
