<svg xmlns="http://www.w3.org/2000/svg" width="1803.0819999999999" height="1803.0819999999999" viewBox="0 0 1803.0819999999999 1803.0819999999999"><path d="M1573.337 931.72 942.7 300.2 942.9 300 801.48 158.575l-0.1 0.1L672.189 29.291A100 100 0 0 0 530.765 170.709L660.049 300.177 29.288 931.72a100 100 0 0 0 0 141.418l701.477 700.653a100 100 0 0 0 141.424 0l701.148 -700.653A100 100 0 0 0 1573.337 931.72Zm-212.11 70.636L801.462 1561.725l-560.04 -559.381L801.37 441.7Zm436.327 479.1a195.15 195.15 0 0 1 -57 139 197.956 197.956 0 0 1 -280 0 195.153 195.153 0 0 1 -57 -139 199.145 199.145 0 0 1 57 -140l141 -139 139 139A199.141 199.141 0 0 1 1797.554 1481.46Z"/><path width="18.03082" fill="none" d="M0 0H1803.082V1803.082H0V0z"/></svg>