<svg xmlns="http://www.w3.org/2000/svg" width="450" height="450" viewBox="0 0 450 450">
  <g>
    <path d="M392.66992,232.31006l-224.99-224.99a25.0032,25.0032,0,0,0-35.35986,35.35986L164.64014,75,7.32007,232.32007a25.0472,25.0472,0,0,0,0,35.38989l174.99,174.98a24.98087,24.98087,0,0,0,35.34985,0h.01a.0098.0098,0,0,1,.01-.01l174.98-174.99a25.00056,25.00056,0,0,0,.01-35.37988ZM200,110.35986,339.64014,250l-.01026.01H60.34009Z" style="fill: #000026"/>
    <path d="M435.35547,335.35547l-26.5166-26.5166a12.5,12.5,0,0,0-17.67774,0l-26.5166,26.5166a49.9999,49.9999,0,0,0,0,70.71045l.00025.00024a49.99987,49.99987,0,0,0,70.71044,0l.00025-.00024A49.9999,49.9999,0,0,0,435.35547,335.35547Z" style="fill: #000026"/>
  </g>
</svg>
