<svg xmlns="http://www.w3.org/2000/svg" width="17.99993" height="18.03082" viewBox="0 0 17.99993 18.03082">
  <g>
    <path d="M15.73337,9.3172,9.427,3.002,9.429,3,8.0148,1.58575l-.001.001L6.72189.29291A1,1,0,0,0,5.30765,1.70709L6.60049,3.00177.29288,9.3172a1,1,0,0,0,0,1.41418l7.01477,7.00653a1,1,0,0,0,1.41424,0l7.01148-7.00653A1,1,0,0,0,15.73337,9.3172Zm-2.1211.70636L8.01462,15.61725l-5.6004-5.59381L8.0137,4.417Z"/>
    <path d="M17.18631,13.19586l-1.17157-1.17157-1.17157,1.17157a1.65685,1.65685,0,1,0,2.34314,0Z"/>
  </g>
</svg>
