<svg xmlns="http://www.w3.org/2000/svg" width="17.99993" height="18.03082" viewBox="0 0 17.99993 18.03082">
  <g>
    <path d="M15.73337,9.31717,9.427,3.00192,9.429,3,8.0148,1.58578l-.00091.00092L6.72189.29288A1,1,0,0,0,5.30765,1.70706L6.60056,3.0018.29288,9.31717a1.00006,1.00006,0,0,0,0,1.41424l7.01477,7.00653a1.00006,1.00006,0,0,0,1.41424,0l7.01148-7.00653A1.00008,1.00008,0,0,0,15.73337,9.31717Zm-2.1211.70636-.00079.00079-11.1972-.00085H2.41422L8.0137,4.417Z"/>
    <path d="M17.18631,13.19583l-1.17157-1.17157-1.17157,1.17157a1.65685,1.65685,0,1,0,2.34314,0Z"/>
  </g>
</svg>
