<svg xmlns="http://www.w3.org/2000/svg" width="450" height="450" viewBox="0 0 450 450">
  <g>
    <path d="M392.66284,267.67773a25.01173,25.01173,0,0,0,.00733-35.37768L167.67773,7.30762a25,25,0,1,0-35.35546,35.35522l32.32251,32.32227L7.32227,232.30762a25.03686,25.03686,0,0,0,0,35.38476L182.30762,442.67773a24.99971,24.99971,0,0,0,35.35522,0h0l.00659-.00708.0083-.00781Zm-53.01806-17.69262L199.98511,389.64453,60.34058,250,200,110.34033Z" style="fill: #000026"/>
    <path d="M435.35547,335.34058,408.83887,308.824a12.5,12.5,0,0,0-17.67774,0l-26.5166,26.51661a49.9999,49.9999,0,0,0,0,70.71045l.00025.00024a49.99988,49.99988,0,0,0,70.71044,0l.00025-.00024A49.9999,49.9999,0,0,0,435.35547,335.34058Z" style="fill: #000026"/>
  </g>
</svg>
