<?xml version="1.0" encoding="UTF-8"?>
<svg id="b" data-name="Layer 1" xmlns="http://www.w3.org/2000/svg" width="24" height="24" viewBox="0 0 24 24">
  <path d="M20,11v10c0,.553-.448,1-1,1H9c-.552,0-1-.447-1-1V8c0-.552,.448-1,1-1h7c.265,0,.52,.105,.707,.293l3,3c.188,.188,.293,.442,.293,.707ZM7,19c0,.276-.224,.5-.5,.5h-1.5c-.55,0-1-.45-1-1V5.5c0-.55,.45-1,1-1h1.655c.232,0,.418-.164,.485-.386,.371-1.225,1.509-2.114,2.861-2.114s2.49,.889,2.861,2.114c.067,.222,.253,.386,.485,.386h1.655c.55,0,1,.45,1,1h0c0,.276-.224,.5-.5,.5h-6.5c-1.105,0-2,.895-2,2v11Zm2-14.5c0,.18,.05,.35,.14,.5,.17,.3,.49,.5,.86,.5s.69-.2,.86-.5c.09-.15,.14-.32,.14-.5s-.05-.35-.14-.5c-.17-.3-.49-.5-.86-.5s-.69,.2-.86,.5c-.09,.15-.14,.32-.14,.5Z"/>
</svg>