<?xml version="1.0" encoding="UTF-8"?>
<svg id="b" data-name="Layer 1" xmlns="http://www.w3.org/2000/svg" width="24" height="24" viewBox="0 0 24 24">
  <path d="M15,4.5h-1.655c-.232,0-.417-.164-.485-.386-.371-1.225-1.509-2.114-2.861-2.114s-2.49,.889-2.861,2.114c-.067,.222-.253,.386-.485,.386h-1.655c-.55,0-1,.45-1,1v13c0,.55,.45,1,1,1H15c.55,0,1-.45,1-1V5.5c0-.55-.45-1-1-1Zm-5-.5c.37,0,.69,.2,.86,.5,.09,.15,.14,.32,.14,.5s-.05,.35-.14,.5c-.17,.3-.49,.5-.86,.5s-.69-.2-.86-.5c-.09-.15-.14-.32-.14-.5s.05-.35,.14-.5c.17-.3,.49-.5,.86-.5Z" fill="blue"/>
  <path d="M19.707,10.293l-3-3c-.188-.188-.442-.293-.707-.293h-7c-.552,0-1,.448-1,1v13c0,.553,.448,1,1,1h10c.552,0,1-.447,1-1V11c0-.265-.105-.52-.293-.707Z"/>
</svg>