<svg xmlns="http://www.w3.org/2000/svg" width="1799.993" height="1803.166" viewBox="0 0 1799.993 1803.166"><path d="M1700.439 1.589H1299.548a99.552 99.552 0 0 0 -99.554 99.554V461.19c-1.966 1.678 -4.438 2.319 -6.3 4.181L463.781 1195.284c-1.861 1.862 -2.5 4.333 -4.181 6.3H99.554A99.557 99.557 0 0 0 0 1301.137v400.885a99.553 99.553 0 0 0 99.554 99.555H500.439A99.555 99.555 0 0 0 600 1702.022V1341.976c1.959 -1.679 4.437 -2.326 6.292 -4.181l729.92 -729.913c1.861 -1.862 2.5 -4.334 4.181 -6.3h360.046a99.557 99.557 0 0 0 99.555 -99.555V101.143A99.553 99.553 0 0 0 1700.439 1.589ZM400 1401.583v200.885H200V1401.583Zm1199.994 -1200V402.474h-200V201.583Z"/><path width="17.99994" fill="none" d="M0 0H1799.994V1803.166H0V0z"/></svg>