<svg xmlns="http://www.w3.org/2000/svg" width="17.99993" height="18.03166" viewBox="0 0 17.99993 18.03166">
  <path d="M17.00439.01589H12.99548a.99552.99552,0,0,0-.99554.99554V4.6119c-.01966.01678-.04438.02319-.063.04181L4.63781,11.95284c-.01861.01862-.025.04333-.04181.063H.99554A.99557.99557,0,0,0,0,13.01137v4.00885a.99553.99553,0,0,0,.99554.99555H5.00439A.99555.99555,0,0,0,6,17.02022V13.41976c.01959-.01679.04437-.02326.06292-.04181l7.2992-7.29913c.01861-.01862.025-.04334.04181-.063h3.60046a.99557.99557,0,0,0,.99555-.99555V1.01143A.99553.99553,0,0,0,17.00439.01589ZM4,14.01583v2.00885H2V14.01583Zm11.99994-12V4.02474h-2V2.01583Z"/>
  <rect width="17.99994" height="18.03166" fill="none"/>
</svg>
