<svg xmlns="http://www.w3.org/2000/svg" width="17.99993" height="18.03082" viewBox="0 0 17.99993 18.03082">
  <path d="M17.00439.01547H12.99548a.99552.99552,0,0,0-.99554.99555V4.61148c-.01966.01678-.04438.02319-.063.04181L4.63781,11.95242c-.01861.01862-.025.04334-.04181.063H.99554A.99557.99557,0,0,0,0,13.011V17.0198a.99553.99553,0,0,0,.99554.99555H5.00439A.99555.99555,0,0,0,6,17.0198V13.41934c.01959-.01678.04437-.02325.06292-.04181l7.2992-7.29913c.01861-.01862.025-.04334.04181-.063h3.60046a.99557.99557,0,0,0,.99555-.99554V1.011A.99553.99553,0,0,0,17.00439.01547ZM4,14.01541v2.00885H2V14.01541Zm11.99994-12V4.02432h-2V2.01541Z"/>
</svg>
