<svg xmlns="http://www.w3.org/2000/svg" width="1799.993" height="1803.0819999999999" viewBox="0 0 1799.993 1803.0819999999999"><path d="M1800 101.04v401a99.443 99.443 0 0 1 -99 100h-360c-2 0.995 -2 4 -4 6l-730 730c-2 2 -5 2 -7 4v360a98.589 98.589 0 0 1 -99 99H100a99.442 99.442 0 0 1 -100 -99v-401a100.3 100.3 0 0 1 100 -100H460c2 -1 2 -4 4 -6l730 -730c2 -2 4 -2 6 -4v-360a99.443 99.443 0 0 1 100 -99h401A98.589 98.589 0 0 1 1800 101.04Z"/><path width="17.99993" fill="none" d="M0 0H1799.993V1803.082H0V0z"/></svg>