<svg xmlns="http://www.w3.org/2000/svg" width="17.99993" height="18.03082" viewBox="0 0 17.99993 18.03082">
  <path d="M17.01.01541H13a1.003,1.003,0,0,0-1,1v3.6a.20966.20966,0,0,0-.06.04l-7.3,7.3c-.02.02-.02.04-.04.06H1a1.003,1.003,0,0,0-1,1v4a1.00291,1.00291,0,0,0,1,1H5.01a.99439.99439,0,0,0,.99-1v-3.6a.252.252,0,0,0,.07-.04l7.3-7.3c.02-.02.02-.04.04-.06h3.6a.99439.99439,0,0,0,.99-1v-4A.99443.99443,0,0,0,17.01.01541ZM16,4.02542H14v-2.01h2Z"/>
  <rect width="17.99993" height="18.03082" fill="none"/>
</svg>
