<svg xmlns="http://www.w3.org/2000/svg" width="1799.993" height="1803.0819999999999" viewBox="0 0 1799.993 1803.0819999999999"><path d="M1701 1.541H1300a100.3 100.3 0 0 0 -100 100v360a20.966 20.966 0 0 0 -6 4l-730 730c-2 2 -2 4 -4 6H100a100.3 100.3 0 0 0 -100 100v400a100.291 100.291 0 0 0 100 100H501a99.439 99.439 0 0 0 99 -100v-360a25.2 25.2 0 0 0 7 -4l730 -730c2 -2 2 -4 4 -6h360a99.439 99.439 0 0 0 99 -100v-400A99.443 99.443 0 0 0 1701 1.541ZM1600 402.542H1400v-201h200Z"/><path width="17.99993" fill="none" d="M0 0H1799.993V1803.082H0V0z"/></svg>