<svg xmlns="http://www.w3.org/2000/svg" width="450" height="450" viewBox="0 0 450 450">
  <g>
    <path d="M375,50H275a24.99624,24.99624,0,0,0-25,25V375a24.99624,24.99624,0,0,0,25,25H375a24.99624,24.99624,0,0,0,25-25V75A24.99624,24.99624,0,0,0,375,50ZM350,350H300V100h50Z" style="fill: #000026"/>
    <path d="M175,50H75A24.99627,24.99627,0,0,0,50,75V375a24.99627,24.99627,0,0,0,25,25H175a24.99624,24.99624,0,0,0,25-25V75A24.99624,24.99624,0,0,0,175,50ZM150,350H100V100h50Z" style="fill: #000026"/>
  </g>
</svg>
