<svg id="Layer_1" data-name="Layer 1" xmlns="http://www.w3.org/2000/svg" viewBox="0 0 450 450"><path d="M450,113.47a25.05,25.05,0,0,0-1.18-6.51c-.12-.37-.25-.73-.39-1.1s-.34-.87-.52-1.3a26.79,26.79,0,0,0-1.49-2.86A24.85,24.85,0,0,0,442.68,97h0L353,7.33h0a25,25,0,0,0-35.35,0L7.32,317.68A25,25,0,0,0,0,335.36V425a25,25,0,0,0,25,25h89.64a25,25,0,0,0,17.68-7.32L362.5,212.5h0l80.18-80.18h0A24.91,24.91,0,0,0,450,113.47Zm-105.15,46-54.28-54.28,44.82-44.82,54.28,54.28ZM104.28,400H50V345.72L255.18,140.54l54.28,54.28Z"/></svg>