<svg xmlns="http://www.w3.org/2000/svg" width="1803.0819999999999" height="1803.0819999999999" viewBox="0 0 1803.0819999999999 1803.0819999999999"><path d="M1772.248 389.41 1413.672 30.834a100 100 0 0 0 -141.424 0l-70.71 70.71L30.746 1272.336a99.7 99.7 0 0 0 -29.2 70.5v359a99.7 99.7 0 0 0 99.7 99.7h359a99.7 99.7 0 0 0 70.5 -29.2L1701.538 601.544l70.71 -70.71A100 100 0 0 0 1772.248 389.41Zm-1570.7 994.964 837.4 -837.4L1256.1 764.141l-837.4 837.4H201.544ZM1397.522 622.717 1180.359 405.56l162.6 -162.6L1560.12 460.119Z"/><path width="18.03082" fill="none" d="M0 0H1803.082V1803.082H0V0z"/></svg>