<?xml version="1.0" encoding="UTF-8"?>
<svg id="b" data-name="Layer 1" xmlns="http://www.w3.org/2000/svg" width="24" height="24" viewBox="0 0 24 24">
  <path d="M12.434,7.854c-.195-.195-.512-.195-.707,0L3.79,15.79c-.15,.16-.25,.35-.28,.57l-.5,3.5c-.04,.31,.06,.62,.28,.85,.19,.19,.45,.29,.71,.29,.05,0,.09,0,.14-.01l3.5-.5c.22-.03,.41-.13,.57-.28l7.936-7.936c.195-.195,.195-.512,0-.707l-3.713-3.713Z"/>
  <path d="M20.407,5.167l-1.574-1.574c-.778-.778-2.053-.78-2.833-.003l-2.145,2.136c-.196,.195-.196,.512,0,.708l3.711,3.711c.195,.196,.513,.195,.708,0l2.136-2.145c.78-.784,.779-2.051-.003-2.833Z"/>
</svg>