<?xml version="1.0" encoding="UTF-8"?>
<svg id="b" data-name="Layer 1" xmlns="http://www.w3.org/2000/svg" width="24" height="24" viewBox="0 0 24 24">
  <path d="M12.434,7.854l3.713,3.713c.195,.195,.195,.512,0,.707l-7.936,7.936c-.16,.15-.35,.25-.57,.28l-3.5,.5c-.05,.01-.09,.01-.14,.01-.26,0-.52-.1-.71-.29-.22-.23-.32-.54-.28-.85l.5-3.5c.03-.22,.13-.41,.28-.57l7.936-7.936c.195-.195,.512-.195,.707,0Z"/>
  <path d="M20.41,8l-2.136,2.145c-.195,.196-.512,.196-.708,0l-3.711-3.712c-.196-.196-.195-.513,0-.708l2.145-2.136c.78-.777,2.055-.775,2.833,.003l1.574,1.574c.782,.782,.783,2.049,.003,2.833Z" fill="blue"/>
</svg>