<svg id="Layer_1" data-name="Layer 1" xmlns="http://www.w3.org/2000/svg" viewBox="0 0 450 450"><path d="M215.4,109.61,7.33,317.68A25,25,0,0,0,0,335.37V425a25,25,0,0,0,25,25h89.64a25,25,0,0,0,17.68-7.32L340.4,234.61a12.48,12.48,0,0,0,0-17.67L233.08,109.61A12.51,12.51,0,0,0,215.4,109.61Z"/><path d="M450,113.49a25.05,25.05,0,0,0-1.18-6.51c-.12-.37-.25-.74-.39-1.1s-.34-.88-.52-1.31a27.78,27.78,0,0,0-1.49-2.86A25.49,25.49,0,0,0,442.68,97h0L353,7.34h0a25,25,0,0,0-35.35,0L259.6,65.42a12.51,12.51,0,0,0,0,17.68L366.92,190.42a12.51,12.51,0,0,0,17.68,0l58.08-58.08A24.9,24.9,0,0,0,450,114.67C450,114.28,450,113.88,450,113.49Z"/></svg>