<svg xmlns="http://www.w3.org/2000/svg" width="450" height="450" viewBox="0 0 450 450">
  <g>
    <path d="M215.40409,109.61248,7.326,317.684A25.01151,25.01151,0,0,0,0,335.37012V425.01a25,25,0,0,0,25,25h89.64a24.98312,24.98312,0,0,0,17.68006-7.32007L340.40494,234.61421a12.5,12.5,0,0,0,.0002-17.67784L233.08161,109.61263A12.5,12.5,0,0,0,215.40409,109.61248Z" style="fill: #000026"/>
    <path d="M449.97,113.49a25.05534,25.05534,0,0,0-1.17993-6.51c-.12012-.37012-.25-.74-.39-1.1001-.16-.43994-.34-.87988-.52-1.30981a27.82325,27.82325,0,0,0-1.49-2.86011,25.491,25.491,0,0,0-3.71008-4.73h-.01L353.04,7.34009h-.01a24.98117,24.98117,0,0,0-35.3501,0l-58.081,58.07913a12.5,12.5,0,0,0-.00014,17.67781L366.91856,190.41662a12.5,12.5,0,0,0,17.67709.00054l58.08428-58.07707A24.90229,24.90229,0,0,0,450,114.66992C450,114.28,449.99,113.87988,449.97,113.49Z" style="fill: #000026"/>
  </g>
</svg>
