<svg id="b" data-name="Layer 1" xmlns="http://www.w3.org/2000/svg" width="24" height="24" viewBox="0 0 24 24">
  <path
    d="M12.43357,7.85355l3.71288,3.71288c.19526,.19526,.19526,.51184,0,.70711l-7.93642,7.93642c-.16003,.15002-.35004,.25-.57001,.28003l-3.5,.5c-.04999,.01001-.09003,.01001-.14001,.01001-.26001,0-.52002-.10004-.71002-.29004-.21997-.22998-.32001-.53998-.27997-.84998l.5-3.5c.02997-.21997,.13-.40997,.27997-.57001l7.93649-7.93643c.19526-.19526,.51184-.19526,.70711,0Z" />
  <path
    d="M20.40997,8l-2.13644,2.14502c-.19515,.19593-.51228,.19625-.70782,.00071l-3.71146-3.71151c-.19554-.19554-.19522-.51267,.00071-.70781l2.14503-2.13644c.77983-.77671,2.05463-.77542,2.83289,.00287l1.57427,1.57433c.78192,.78195,.78318,2.04933,.00281,2.83283Z"
    style="fill: blue;" />
</svg>