<svg xmlns="http://www.w3.org/2000/svg" width="18.03082" height="18.03082" viewBox="0 0 18.03082 18.03082">
  <path d="M17.72248,3.8941,14.13672.30834a1,1,0,0,0-1.41424,0l-.7071.7071L.30746,12.72336a.997.997,0,0,0-.292.705v3.59a.997.997,0,0,0,.997.997h3.59a.997.997,0,0,0,.705-.292L17.01538,6.01544l.7071-.7071A1,1,0,0,0,17.72248,3.8941Zm-15.707,9.94964,8.374-8.374L12.561,7.64141l-8.374,8.374H2.01544ZM13.97522,6.22717,11.80359,4.0556l1.626-1.626L15.6012,4.60119Z"/>
  <rect width="18.03082" height="18.03082" fill="none"/>
</svg>
