<svg xmlns="http://www.w3.org/2000/svg" width="17.99993" height="18.03082" viewBox="0 0 17.99993 18.03082">
  <path d="M17.70848,5.31113,15.5477,7.47191a.49386.49386,0,0,1-.69845,0L10.5477,3.17037a.49389.49389,0,0,1,0-.69846L12.7075.31211a.99844.99844,0,0,1,1.411-.001l3.589,3.579A1.00674,1.00674,0,0,1,17.70848,5.31113ZM8.77959,4.23.29048,12.71913a.997.997,0,0,0-.292.705v3.59a.997.997,0,0,0,.997.997H4.58581a.997.997,0,0,0,.7046-.29163l8.49811-8.4888a.49388.49388,0,0,0-.00016-.699L9.47769,4.22967A.49387.49387,0,0,0,8.77959,4.23Z"/>
  <rect width="17.99993" height="18.03082" fill="none"/>
</svg>
