<svg xmlns="http://www.w3.org/2000/svg" width="450" height="450" viewBox="0 0 450 450">
  <path d="M449.97217,113.47388a25.05227,25.05227,0,0,0-1.18311-6.50952q-.17907-.55555-.38452-1.10425-.24573-.65625-.52954-1.301a24.96425,24.96425,0,0,0-5.19727-7.59228l-.00463-.0044-.00122-.00122L353.03882,7.32812l-.0011-.00122-.00464-.00463a24.99986,24.99986,0,0,0-35.35535,0L7.32227,317.67773A25.00007,25.00007,0,0,0,0,335.35547V425a25,25,0,0,0,25,25h89.64465a24.99929,24.99929,0,0,0,17.67762-7.32227L362.49878,212.50122,362.5,212.5h.00012l.00232-.00244,80.17285-80.17285.00244-.00244h0A24.93429,24.93429,0,0,0,449.97217,113.47388ZM344.81775,159.4624l-54.28-54.28027,44.82239-44.82227,54.28,54.28ZM104.28,400H50V345.72L255.18237,140.5376l54.28,54.28Z" style="fill: #000026"/>
</svg>
