<svg xmlns="http://www.w3.org/2000/svg" width="1799.993" height="1803.0819999999999" viewBox="0 0 1799.993 1803.0819999999999"><path d="M1770.848 531.113 1554.77 747.191a49.386 49.386 0 0 1 -69.845 0L1054.77 317.037a49.389 49.389 0 0 1 0 -69.846L1270.75 31.211a99.844 99.844 0 0 1 141.1 -0.1l358.9 357.9A100.674 100.674 0 0 1 1770.848 531.113ZM877.959 423 29.048 1271.913a99.7 99.7 0 0 0 -29.2 70.5v359a99.7 99.7 0 0 0 99.7 99.7H458.581a99.7 99.7 0 0 0 70.46 -29.163l849.811 -848.88a49.388 49.388 0 0 0 -0.016 -69.9L947.769 422.967A49.387 49.387 0 0 0 877.959 423Z"/><path width="17.99993" fill="none" d="M0 0H1799.993V1803.082H0V0z"/></svg>