<?xml version="1.0" encoding="UTF-8"?>
<svg id="uuid-95083d69-79a8-42ca-a7cf-9a88b74f1fe2" data-name="Layer 1" xmlns="http://www.w3.org/2000/svg" width="24" height="24" viewBox="0 0 24 24">
  <path d="M19.93,5.92c-.17,.62-.75,1.08-1.43,1.08-.1,0-.2-.01-.29-.03,1.12,1.38,1.79,3.13,1.79,5.03,0,4.41-3.59,8-8,8s-8-3.59-8-8S7.59,4,12,4c1.9,0,3.65,.67,5.03,1.79-.02-.09-.03-.19-.03-.29,0-.68,.46-1.26,1.08-1.43-1.68-1.3-3.79-2.07-6.08-2.07C6.49,2,2,6.49,2,12s4.49,10,10,10,10-4.49,10-10c0-2.29-.77-4.4-2.07-6.08Z" fill="blue"/>
  <path d="M18.5,2.5c-1.65,0-3,1.35-3,3,0,.46,.1,.89,.3,1.28,0,.001,.002,.003,.002,.004l-3.288,3.288s-.003-.001-.004-.002c-.16-.05-.33-.07-.51-.07-1.1,0-2,.9-2,2s.9,2,2,2,2-.9,2-2c0-.18-.02-.35-.07-.51,0-.002-.001-.003-.002-.004l3.288-3.288s.002,.002,.004,.002c.39,.2,.82,.3,1.28,.3,1.65,0,3-1.35,3-3s-1.35-3-3-3Zm0,4c-.55,0-1-.45-1-1s.45-1,1-1,1,.45,1,1-.45,1-1,1Z"/>
</svg>