<?xml version="1.0" encoding="UTF-8"?>
<svg id="uuid-87ae09ac-1af4-4e12-a334-10aa708cf819" data-name="Layer 1" xmlns="http://www.w3.org/2000/svg" width="24" height="24" viewBox="0 0 24 24">
  <path d="M20.845,7.345c.404-.511,.655-1.147,.655-1.845,0-1.65-1.35-3-3-3-.698,0-1.334,.251-1.845,.655-1.389-.736-2.973-1.155-4.655-1.155C6.49,2,2,6.49,2,12s4.49,10,10,10,10-4.49,10-10c0-1.683-.419-3.266-1.155-4.655Zm-1.345-1.845c0,.55-.45,1-1,1s-1-.45-1-1,.45-1,1-1,1,.45,1,1Zm-7.5,14.5c-4.41,0-8-3.59-8-8S7.59,4,12,4c1.284,0,2.495,.312,3.574,.855-.046,.208-.074,.423-.074,.645,0,.46,.1,.89,.3,1.28,0,.001,.002,.003,.002,.004l-3.288,3.288s-.003-.001-.004-.002c-.16-.05-.33-.07-.51-.07-1.1,0-2,.9-2,2s.9,2,2,2,2-.9,2-2c0-.18-.02-.35-.07-.51,0-.002-.001-.003-.002-.004l3.288-3.288s.002,.002,.004,.002c.39,.2,.82,.3,1.28,.3,.222,0,.436-.028,.645-.074,.544,1.079,.855,2.291,.855,3.574,0,4.41-3.59,8-8,8Z"/>
</svg>