<?xml version="1.0" encoding="UTF-8"?>
<svg id="b" data-name="Layer 1" xmlns="http://www.w3.org/2000/svg" width="24" height="24" viewBox="0 0 24 24">
  <path d="M10.924,13.617s-.001-.002-.002-.003c-.003-.008-.01-.015-.014-.023-.045-.1-.107-.188-.18-.267-.024-.026-.05-.046-.076-.069-.064-.056-.133-.102-.208-.14-.032-.016-.061-.032-.095-.045-.111-.042-.227-.071-.349-.071H6c-.552,0-1,.448-1,1s.448,1,1,1h1.586l-4.293,4.293c-.391,.391-.391,1.023,0,1.414,.195,.195,.451,.293,.707,.293s.512-.098,.707-.293l4.293-4.293v1.586c0,.552,.448,1,1,1s1-.448,1-1v-4c0-.013-.007-.024-.007-.037-.004-.117-.022-.234-.069-.346Z"/>
  <path d="M13.076,10.383s.001,.002,.002,.003c.003,.008,.01,.015,.014,.023,.045,.1,.107,.188,.18,.267,.024,.026,.05,.046,.076,.069,.064,.056,.133,.102,.208,.14,.032,.016,.061,.032,.095,.045,.111,.042,.227,.071,.349,.071h4c.552,0,1-.448,1-1s-.448-1-1-1h-1.586l4.293-4.293c.391-.391,.391-1.023,0-1.414s-1.023-.391-1.414,0l-4.293,4.293v-1.586c0-.552-.448-1-1-1s-1,.448-1,1v4c0,.013,.007,.024,.007,.037,.004,.117,.022,.234,.069,.346Z"/>
  <path d="M10,5c-.552,0-1,.448-1,1v1.586L4.707,3.293c-.391-.391-1.023-.391-1.414,0s-.391,1.023,0,1.414l4.293,4.293h-1.586c-.552,0-1,.448-1,1s.448,1,1,1h4c.129,0,.259-.025,.383-.076,.001,0,.002-.001,.003-.002,.008-.003,.015-.01,.023-.014,.1-.045,.188-.107,.267-.18,.026-.024,.046-.05,.069-.076,.056-.064,.102-.133,.14-.208,.016-.032,.032-.061,.045-.095,.042-.111,.071-.227,.071-.349V6c0-.552-.448-1-1-1Z" fill="blue"/>
  <path d="M16.414,15h1.586c.552,0,1-.448,1-1s-.448-1-1-1h-4c-.013,0-.024,.007-.037,.007-.117,.004-.234,.022-.346,.069-.001,0-.002,.001-.003,.002-.008,.003-.015,.01-.023,.014-.1,.045-.188,.107-.267,.18-.026,.024-.046,.05-.069,.076-.056,.064-.102,.133-.14,.208-.016,.032-.032,.061-.045,.095-.042,.111-.071,.227-.071,.349v4c0,.552,.448,1,1,1s1-.448,1-1v-1.586l4.293,4.293c.195,.195,.451,.293,.707,.293s.512-.098,.707-.293c.391-.391,.391-1.023,0-1.414l-4.293-4.293Z" fill="blue"/>
</svg>