<?xml version="1.0" encoding="UTF-8"?>
<svg id="b" data-name="Layer 1" xmlns="http://www.w3.org/2000/svg" width="24" height="24" viewBox="0 0 24 24">
  <path d="M15.293,12.707c.195,.195,.451,.293,.707,.293s.512-.098,.707-.293l4-4c.092-.092,.165-.203,.216-.325,.101-.245,.101-.52,0-.764-.051-.122-.124-.233-.216-.325l-4-4c-.391-.391-1.023-.391-1.414,0s-.391,1.023,0,1.414l2.293,2.293h-7.586c-3.86,0-7,3.14-7,7s3.14,7,7,7h8c.552,0,1-.448,1-1s-.448-1-1-1H10c-2.757,0-5-2.243-5-5s2.243-5,5-5h7.586l-2.293,2.293c-.391,.391-.391,1.023,0,1.414Z"/>
</svg>