<svg xmlns="http://www.w3.org/2000/svg" width="17.99993" height="18.03082" viewBox="0 0 17.99993 18.03082">
  <path d="M5.99449,4.66328a5.80321,5.80321,0,0,1,2-.35h4.59674l-.87866-.87867A1,1,0,1,1,13.12681,2.0204l2.58576,2.58581a1,1,0,0,1,0,1.41419l-.67694.67694L13.12681,8.60615A1,1,0,1,1,11.71257,7.192l.87866-.87866H7.99449a3.9996,3.9996,0,0,0-3.98517,4.34887A4.12831,4.12831,0,0,0,8.18986,14.3033h5.80829a1,1,0,0,1,1,.99994v.00006a1.00005,1.00005,0,0,1-1,1H7.99449a5.99015,5.99015,0,0,1-2-11.64Z"/>
</svg>
