<?xml version="1.0" encoding="UTF-8"?>
<svg id="b" data-name="Layer 1" xmlns="http://www.w3.org/2000/svg" width="24" height="24" viewBox="0 0 24 24">
  <path d="M18,21H10c-3.85986,0-7-3.14014-7-7s3.14014-7,7-7h10c.55225,0,1,.44775,1,1s-.44775,1-1,1H10c-2.75684,0-5,2.24316-5,5s2.24316,5,5,5h8c.55225,0,1,.44775,1,1s-.44775,1-1,1Z" style="fill: blue;"/>
  <path d="M16,13c-.25586,0-.51172-.09766-.70703-.29297-.39062-.39062-.39062-1.02344,0-1.41406l3.29297-3.29297-3.29297-3.29297c-.39062-.39062-.39062-1.02344,0-1.41406s1.02344-.39062,1.41406,0l4,4c.39062,.39062,.39062,1.02344,0,1.41406l-4,4c-.19531,.19531-.45117,.29297-.70703,.29297Z"/>
</svg>