<svg id="Layer_1" data-name="Layer 1" xmlns="http://www.w3.org/2000/svg" viewBox="0 0 450 450"><path d="M399,128.24a24.89,24.89,0,0,0-3.8-7.67,24.61,24.61,0,0,0-1.61-2c-.28-.32-.58-.63-.88-.93L322,47a25,25,0,0,0-35.36,0h0a25,25,0,0,0,0,35.35l28,28H200A149.83,149.83,0,0,0,50,261.91c.83,82.46,68.91,148.45,151.37,148.45H350a25,25,0,0,0,0-50H201.25c-55.14,0-100.84-44.11-101.25-99.25A100,100,0,0,1,200,160.36H314.64l-28,28a25,25,0,0,0,0,35.35h0a25,25,0,0,0,35.36,0L392.68,153c.3-.3.6-.61.88-.93a24.61,24.61,0,0,0,1.61-2,24.89,24.89,0,0,0,3.8-7.67A25.15,25.15,0,0,0,399,128.24Z"/></svg>