<svg xmlns="http://www.w3.org/2000/svg" width="450" height="450" viewBox="0 0 450 450">
  <path d="M398.97021,128.23755a24.89889,24.89889,0,0,0-5.40576-9.6272q-.42919-.475-.88672-.93262L321.9668,46.967a24.99943,24.99943,0,0,0-35.355,0h0a24.99972,24.99972,0,0,0,0,35.35523l28.03271,28.0332H200A149.83577,149.83577,0,0,0,50.00781,261.90894c.835,82.46044,68.90723,148.44653,151.37158,148.44653H350a25,25,0,0,0,0-50H201.25488c-55.14062,0-100.84521-44.1062-101.252-99.24585A99.99767,99.99767,0,0,1,200,160.35547H314.64453l-28.03271,28.033a24.99971,24.99971,0,0,0,0,35.35522h0a24.99942,24.99942,0,0,0,35.355,0L392.67773,153.033q.45777-.4574.88672-.93262a24.98692,24.98692,0,0,0,5.40576-23.86279Z" style="fill: #000026"/>
</svg>
