<svg xmlns="http://www.w3.org/2000/svg" width="17.99993" height="14.57578" viewBox="0 0 17.99993 14.57578">
  <path d="M5.99449,2.93576a5.80321,5.80321,0,0,1,2-.35h4.59674l-.87866-.87866A1,1,0,1,1,13.12681.29288l2.58576,2.58581a1,1,0,0,1,0,1.41419l-.67694.67694L13.12681,6.87863a1,1,0,1,1-1.41424-1.41418l.87866-.87867H7.99449A3.9996,3.9996,0,0,0,4.00932,8.93466a4.12831,4.12831,0,0,0,4.18054,3.64112h5.80829a1,1,0,0,1,1,.99993v.00007a1.00005,1.00005,0,0,1-1,1H7.99449a5.99015,5.99015,0,0,1-2-11.64Z"/>
</svg>
