<svg xmlns="http://www.w3.org/2000/svg" width="1799.993" height="1802.31" viewBox="0 0 1799.993 1802.31"><path d="M599.449 465.942a580.321 580.321 0 0 1 200 -35h459.674l-87.866 -87.866a100 100 0 1 1 141.424 -141.425l258.576 258.582a100 100 0 0 1 0 141.418l-67.694 67.694L1312.681 860.229a100 100 0 1 1 -141.424 -141.418l87.866 -87.866H799.449a399.96 399.96 0 0 0 -398.517 434.887 412.831 412.831 0 0 0 418.054 364.112h580.829a100 100 0 0 1 100 99.994v0.006a100.005 100.005 0 0 1 -100 100H799.449a599.015 599.015 0 0 1 -200 -1164Z"/><path width="17.99993" fill="none" d="M0 0H1799.993V1802.31H0V0z"/></svg>