<svg xmlns="http://www.w3.org/2000/svg" width="17.99993" height="18.0231" viewBox="0 0 17.99993 18.0231">
  <path d="M5.99449,4.65942a5.80321,5.80321,0,0,1,2-.35h4.59674l-.87866-.87866a1,1,0,1,1,1.41424-1.41425l2.58576,2.58582a1,1,0,0,1,0,1.41418l-.67694.67694L13.12681,8.60229a1,1,0,1,1-1.41424-1.41418l.87866-.87866H7.99449a3.9996,3.9996,0,0,0-3.98517,4.34887,4.12831,4.12831,0,0,0,4.18054,3.64112h5.80829a1,1,0,0,1,1,.99994v.00006a1.00005,1.00005,0,0,1-1,1H7.99449a5.99015,5.99015,0,0,1-2-11.64Z"/>
  <rect width="17.99993" height="18.0231" fill="none"/>
</svg>
