<svg xmlns="http://www.w3.org/2000/svg" width="450" height="450" viewBox="0 0 450 450">
  <g>
    <path d="M275,50H75A25,25,0,0,0,50,75V275a25,25,0,0,0,25,25H275a25,25,0,0,0,25-25V75A25,25,0,0,0,275,50Zm-25,50V250H100V100Z" />
    <rect x="150" y="350" width="50" height="50" rx="12.5" />
    <rect x="250" y="350" width="50" height="50" rx="12.5" />
    <rect x="350" y="350" width="50" height="50" rx="12.5" />
    <rect x="350" y="250" width="50" height="50" rx="12.5" />
    <rect x="350" y="150" width="50" height="50" rx="12.5" />
  </g>
</svg>
