<?xml version="1.0" encoding="UTF-8"?>
<svg id="b" data-name="Layer 1" xmlns="http://www.w3.org/2000/svg" width="24" height="24" viewBox="0 0 24 24">
  <rect x="3" y="3" width="13" height="13" rx="1" ry="1"/>
  <path d="M20,8h-1.5c-.552,0-1,.448-1,1s.448,1,1,1h.5v.487c0,.552,.448,1,1,1s1-.448,1-1v-1.487c0-.552-.448-1-1-1Z" fill="blue"/>
  <path d="M20,17.5c-.552,0-1,.448-1,1v.5h-.513c-.552,0-1,.448-1,1s.448,1,1,1h1.513c.552,0,1-.448,1-1v-1.5c0-.552-.448-1-1-1Z" fill="blue"/>
  <path d="M15,19h-1c-.552,0-1,.448-1,1s.448,1,1,1h1c.552,0,1-.448,1-1s-.448-1-1-1Z" fill="blue"/>
  <path d="M10.487,19h-.487v-.5c0-.552-.448-1-1-1s-1,.448-1,1v1.5c0,.552,.448,1,1,1h1.487c.552,0,1-.448,1-1s-.448-1-1-1Z" fill="blue"/>
  <path d="M20,13c-.552,0-1,.448-1,1v1c0,.552,.448,1,1,1s1-.448,1-1v-1c0-.552-.448-1-1-1Z" fill="blue"/>
</svg>