<svg id="Layer_1" data-name="Layer 1" xmlns="http://www.w3.org/2000/svg" viewBox="0 0 450 450"><rect x="150" y="350.01" width="50" height="50" rx="12.5"/><rect x="250" y="350.01" width="50" height="50" rx="12.5"/><path d="M300,75V275a25,25,0,0,1-25,25H75a25,25,0,0,1-25-25V75A25,25,0,0,1,75,50H275A25,25,0,0,1,300,75Z"/><path d="M400,362.51v25A12.5,12.5,0,0,1,387.5,400h-25a12.5,12.5,0,0,1-12.5-12.5v-25A12.5,12.5,0,0,1,362.5,350h25A12.5,12.5,0,0,1,400,362.51Z"/><rect x="350" y="250.01" width="50" height="50" rx="12.5"/><rect x="350" y="150.01" width="50" height="50" rx="12.5"/></svg>