<svg xmlns="http://www.w3.org/2000/svg" width="450" height="450" viewBox="0 0 450 450">
  <path d="M137.5,200V425a25,25,0,0,0,24.99994,25H387.5a25,25,0,0,0,25-25V200a25,25,0,0,0-25-25H162.49994A25,25,0,0,0,137.5,200Zm50,25h175V400h-175Zm-25-100a75.08519,75.08519,0,0,0-75,75V325a25,25,0,0,1-25,25h-.00006A25,25,0,0,1,37.5,325V200a125.13534,125.13534,0,0,1,125-125h79.2923l-32.32-32.32227a25.00023,25.00023,0,0,1,0-35.35546h.00006a24.99979,24.99979,0,0,1,35.35529,0l74.99475,75C335.57147,98.07129,324.4173,125,302.14471,125Z"/>
</svg>
