<?xml version="1.0" encoding="UTF-8"?>
<svg id="b" data-name="Layer 1" xmlns="http://www.w3.org/2000/svg" width="24" height="24" viewBox="0 0 24 24">
  <path d="M20.383,3.076c-.375-.155-.804-.07-1.09,.217l-1.678,1.678c-1.59-1.275-3.548-1.971-5.615-1.971-2.404,0-4.664,.936-6.364,2.636-1.7,1.7-2.636,3.96-2.636,6.364s.936,4.664,2.636,6.364c1.7,1.7,3.96,2.636,6.364,2.636s4.664-.936,6.364-2.636c.391-.391,.391-1.024,0-1.414-.391-.391-1.023-.391-1.414,0-1.322,1.322-3.08,2.05-4.95,2.05s-3.627-.728-4.95-2.05-2.05-3.08-2.05-4.95,.728-3.627,2.05-4.95,3.08-2.05,4.95-2.05c1.531,0,2.984,.496,4.187,1.399l-1.58,1.58c-.286,.286-.372,.716-.217,1.09s.52,.617,.924,.617h4.686c.552,0,1-.448,1-1V4c0-.404-.244-.769-.617-.924Z"/>
</svg>