<?xml version="1.0" encoding="UTF-8"?>
<svg id="b" data-name="Layer 1" xmlns="http://www.w3.org/2000/svg" width="24" height="24" viewBox="0 0 24 24">
  <path d="M12,21c2.404,0,4.664-.936,6.364-2.636,1.7-1.7,2.636-3.96,2.636-6.364,0-2.404-.936-4.664-2.636-6.364-1.7-1.7-3.96-2.636-6.364-2.636s-4.664,.936-6.364,2.636c-.391,.391-.391,1.024,0,1.414,.391,.391,1.023,.391,1.414,0,1.322-1.322,3.08-2.05,4.95-2.05s3.627,.728,4.95,2.05,2.05,3.08,2.05,4.95c0,1.87-.728,3.627-2.05,4.95s-3.08,2.05-4.95,2.05-3.627-.728-4.95-2.05c-.391-.391-1.023-.391-1.414,0-.391,.39-.391,1.023,0,1.414,1.7,1.7,3.96,2.636,6.364,2.636Z" fill="blue"/>
  <path d="M3.617,3.076c.375-.155,.804-.07,1.09,.217l2.343,2.343,2.343,2.343c.286,.286,.372,.716,.217,1.09s-.52,.617-.924,.617H4c-.552,0-1-.448-1-1V4c0-.404,.244-.769,.617-.924Z"/>
</svg>