<?xml version="1.0" encoding="UTF-8"?>
<svg id="b" data-name="Layer 1" xmlns="http://www.w3.org/2000/svg" width="24" height="24" viewBox="0 0 24 24">
  <path d="M18.364,5.636c-1.7-1.7-3.96-2.636-6.364-2.636-2.067,0-4.025,.696-5.615,1.971l-1.678-1.678c-.286-.287-.715-.372-1.09-.217-.374,.155-.617,.52-.617,.924v4.687c0,.552,.448,1,1,1h4.686c.404,0,.769-.244,.924-.617s.069-.804-.217-1.09l-1.58-1.58c1.203-.903,2.656-1.399,4.187-1.399,1.87,0,3.627,.728,4.95,2.05s2.05,3.08,2.05,4.95-.728,3.627-2.05,4.95-3.08,2.05-4.95,2.05-3.627-.728-4.95-2.05c-.391-.391-1.023-.391-1.414,0-.391,.39-.391,1.023,0,1.414,1.7,1.7,3.96,2.636,6.364,2.636s4.664-.936,6.364-2.636c1.7-1.7,2.636-3.96,2.636-6.364s-.936-4.664-2.636-6.364Z"/>
</svg>