<?xml version="1.0" encoding="UTF-8"?>
<svg id="b" data-name="Layer 1" xmlns="http://www.w3.org/2000/svg" width="24" height="24" viewBox="0 0 24 24">
  <circle cx="12" cy="15.25" r="3" style="fill: blue;"/>
  <path d="M20.71002,6.28998l-3-3c-.19-.17999-.44-.28998-.71002-.28998H5c-1.09998,0-2,.89996-2,2v14c0,1.09998,.90002,2,2,2h14c1.09998,0,2-.90002,2-2V7c0-.27002-.10999-.52002-.28998-.71002Zm-8.71002,11.71002c-1.52002,0-2.75-1.23004-2.75-2.75s1.22998-2.75,2.75-2.75,2.75,1.22998,2.75,2.75-1.22998,2.75-2.75,2.75Zm4-8.5H5.5V5.5h10.5v4Z"/>
</svg>