<?xml version="1.0" encoding="UTF-8"?>
<svg id="b" data-name="Layer 1" xmlns="http://www.w3.org/2000/svg" width="24" height="24" viewBox="0 0 24 24">
  <path d="M15.674,13.763c-.195-.195-.512-.195-.707,0l-1.213,1.213c-.195,.195-.195,.512,0,.708l3.51,3.501c.08,.057,.206,.148,.286,.206l2,1c.15,.08,.3,.11,.45,.11,.31,0,.62-.15,.81-.42,.29-.39,.24-.94-.1-1.29l-5.036-5.027Z"/>
  <path d="M20.71,5.21c.34-.35,.39-.9,.1-1.29-.29-.4-.82-.53-1.26-.31l-2,1c-.09,.04-.18,.11-.26,.18l-5.299,5.294-2.261-2.254c.18-.41,.27-.86,.27-1.33,0-1.93-1.57-3.5-3.5-3.5s-3.5,1.57-3.5,3.5,1.57,3.5,3.5,3.5c.46,0,.9-.09,1.31-.26l2.261,2.261-2.261,2.259c-.41-.17-.85-.26-1.31-.26-1.93,0-3.5,1.57-3.5,3.5s1.57,3.5,3.5,3.5,3.5-1.57,3.5-3.5c0-.47-.09-.92-.27-1.33L20.71,5.21ZM7.74,7.34c-.26,.4-.72,.66-1.24,.66-.83,0-1.5-.67-1.5-1.5s.67-1.5,1.5-1.5,1.5,.67,1.5,1.5c0,.31-.09,.6-.26,.84Zm-1.24,11.66c-.83,0-1.5-.67-1.5-1.5s.67-1.5,1.5-1.5c.52,0,.98,.26,1.24,.66,.17,.24,.26,.53,.26,.84,0,.83-.67,1.5-1.5,1.5Z"/>
</svg>