<svg xmlns="http://www.w3.org/2000/svg" width="450" height="450" viewBox="0 0 450 450">
  <path d="M364.14819,47.77054,100.53809,182.77738V75.53861A25.53831,25.53831,0,0,0,75,50.00052h0A25.53831,25.53831,0,0,0,49.46191,75.53861V374.46244A25.538,25.538,0,0,0,75,400.00052h0a25.538,25.538,0,0,0,25.53809-25.53808V265.3306l263.48,136.83008a24.99408,24.99408,0,0,0,36.52-22.17969V70.02054A24.99589,24.99589,0,0,0,364.14819,47.77054Zm-13.6101,291.0503-220.95-114.74024,220.95-113.16015Z" style="fill: #000026"/>
</svg>
