<svg xmlns="http://www.w3.org/2000/svg" width="450" height="450" viewBox="0 0 450 450">
  <path d="M434.95819,270.81348,419.37,257.30005l-20.0094-17.35047C399.77783,235.00012,400,230.01636,400,225s-.22217-10.00012-.6394-14.94958L419.37,192.7l15.58819-13.51343a25,25,0,0,0,5.276-31.38794L429.92,129.92993,419.86,112.5,409.79,95.07007,399.47821,77.20569a24.99984,24.99984,0,0,0-29.82416-11.12854L350.16,72.82007l-25.01452,8.6477a173.97844,173.97844,0,0,0-25.9126-14.96569L294.22,40.52l-3.91559-20.26318A25,25,0,0,0,265.75848,0h-81.517a25,25,0,0,0-24.5459,20.25684L155.78,40.52l-5.01288,25.98206a173.97844,173.97844,0,0,0-25.9126,14.96569L99.84,72.82007,80.346,66.07715A24.9999,24.9999,0,0,0,50.52179,77.20569L40.21,95.07007l-6.79,11.76L20.08,129.92993,9.76581,147.79858a25,25,0,0,0,5.276,31.38794L30.63,192.7l20.0094,17.35047C50.22217,214.99988,50,219.98364,50,225s.22217,10.00012.6394,14.94958L30.63,257.30005,15.04187,270.81348a25,25,0,0,0-5.27606,31.38794L20.08,320.07l13.34,23.1,6.79,11.76,10.31177,17.86438A25.00007,25.00007,0,0,0,80.346,383.923L99.84,377.18l25.01458-8.6477a173.988,173.988,0,0,0,25.91254,14.96563L155.78,409.48l3.91559,20.26318A25,25,0,0,0,184.24152,450h81.517a25,25,0,0,0,24.5459-20.25684L294.22,409.48l5.01288-25.98206a173.988,173.988,0,0,0,25.91254-14.96563L350.16,377.18l19.49408,6.743a25,25,0,0,0,29.82416-11.1286L409.79,354.93l10.07-17.43,10.06-17.43,10.31421-17.86859A25,25,0,0,0,434.95819,270.81348ZM225,287.5A62.5,62.5,0,1,1,287.5,225,62.5,62.5,0,0,1,225,287.5Z" style="fill: #000026"/>
</svg>
