<svg xmlns="http://www.w3.org/2000/svg" width="450" height="450" viewBox="0 0 450 450">
  <g>
    <path d="M161.937,100H150a12.5,12.5,0,0,1-12.5-12.5V75.563c0-14.01587-11.47009-25.82422-25.48346-25.55835A25,25,0,0,0,87.5,75V87.5A12.5,12.5,0,0,1,75,100H63.063c-14.01587,0-25.82416,11.47009-25.55841,25.4834A25.00018,25.00018,0,0,0,62.5,150H75a12.5,12.5,0,0,1,12.5,12.5v11.937c0,14.01587,11.47009,25.82422,25.48346,25.55835A25,25,0,0,0,137.5,175V162.5A12.5,12.5,0,0,1,150,150h12.5a25.00018,25.00018,0,0,0,24.99542-24.5166C187.76117,111.47006,175.95288,100,161.937,100Z"/>
    <path d="M386.937,200H362.5a25,25,0,0,1-25-25V150.563c0-14.01587-11.47009-25.82422-25.48346-25.55835A25,25,0,0,0,287.5,150v25a25,25,0,0,1-25,25H238.063c-14.01587,0-25.82416,11.47009-25.55841,25.4834A25.00018,25.00018,0,0,0,237.5,250h25a25,25,0,0,1,25,25v24.437c0,14.01587,11.47009,25.82416,25.48346,25.55841A25.00013,25.00013,0,0,0,337.5,300V275a25,25,0,0,1,25-25h25a25.00018,25.00018,0,0,0,24.99542-24.5166C412.76117,211.47006,400.95288,200,386.937,200Z"/>
    <path d="M161.937,300H150a12.5,12.5,0,0,1-12.5-12.5V275.563c0-14.01587-11.47009-25.82422-25.48346-25.55835A25,25,0,0,0,87.5,275v12.5A12.5,12.5,0,0,1,75,300H63.063c-14.01587,0-25.82416,11.47009-25.55841,25.48346A25.00013,25.00013,0,0,0,62.5,350H75a12.5,12.5,0,0,1,12.5,12.5v11.937c0,14.01587,11.47009,25.82416,25.48346,25.55841A25.00013,25.00013,0,0,0,137.5,375V362.5A12.5,12.5,0,0,1,150,350h12.5a25.00013,25.00013,0,0,0,24.99542-24.51654C187.76117,311.47006,175.95288,300,161.937,300Z"/>
  </g>
</svg>
