<svg xmlns="http://www.w3.org/2000/svg" width="1799.993" height="1803.0819999999999" viewBox="0 0 1799.993 1803.0819999999999"><g><path d="M1199.789 846.05v851.991a99.072 99.072 0 0 1 -29 70 96.547 96.547 0 0 1 -71 30h-1000a100.294 100.294 0 0 1 -100 -100v-851a98.938 98.938 0 0 1 28.687 -69.667L135.3 669.653a49.39 49.39 0 0 1 35.068 -14.612h858.965a49.388 49.388 0 0 1 34.922 14.466l106.537 106.537A99 99 0 0 1 1199.789 846.05Z"/><path d="M1199.789 405.041a99.65 99.65 0 0 1 -100 100H249.177a49.388 49.388 0 0 1 -49.388 -49.388V105.041a100.294 100.294 0 0 1 100 -100h600a99.651 99.651 0 0 1 100 100v200h100A99.651 99.651 0 0 1 1199.789 405.041Z"/><path d="M1500.21 405.292A100 100 0 0 1 1400.21 505.292A100 100 0 0 1 1300.21 405.292A100 100 0 0 1 1500.21 405.292z"/><path d="M1800.204 210.29A100 100 0 0 1 1700.204 310.29A100 100 0 0 1 1600.204 210.29A100 100 0 0 1 1800.204 210.29z"/><path d="M1800.204 605.292A100 100 0 0 1 1700.204 705.292A100 100 0 0 1 1600.204 605.292A100 100 0 0 1 1800.204 605.292z"/></g><path width="17.99993" fill="none" d="M0 0H1799.993V1803.082H0V0z"/></svg>