<?xml version="1.0" encoding="UTF-8"?>
<svg id="b" data-name="Layer 1" xmlns="http://www.w3.org/2000/svg" width="24" height="24" viewBox="0 0 24 24">
  <g>
    <path d="M13,10H5c-1.10455,0-2,.89539-2,2v8c0,.54999,.45001,1,1,1H14c.54999,0,1-.45001,1-1V12c0-1.10461-.89545-2-2-2Z"/>
    <path d="M5.5,8H14c.55231,0,1-.44775,1-1,0-.55231-.44769-1-1-1h-1V4c0-.54999-.45001-1-1-1H6c-.54999,0-1,.45001-1,1v3.5c0,.27612,.22388,.5,.5,.5Z"/>
  </g>
  <circle cx="17" cy="7" r="1" style="fill: blue;"/>
  <circle cx="20" cy="5" r="1" style="fill: blue;"/>
  <circle cx="20" cy="9" r="1" style="fill: blue;"/>
</svg>