<svg xmlns="http://www.w3.org/2000/svg" width="450" height="450" viewBox="0 0 450 450">
  <g>
    <path d="M275,75.01H250v-50a25.00264,25.00264,0,0,0-25-25H75a25.00937,25.00937,0,0,0-25,25v87.5a12.5,12.5,0,0,0,12.5,12.5H274.43656c14.00573,0,25.81477-11.46152,25.5592-25.46492A25.00284,25.00284,0,0,0,275,75.01Z"/>
    <path d="M300,210.37012V425.01a25,25,0,0,1-25,25H25a25,25,0,0,1-25-25V210.37012a25.0115,25.0115,0,0,1,7.3257-17.68581l26.51314-26.51314A12.5,12.5,0,0,1,42.67766,162.51H257.32234a12.5,12.5,0,0,1,8.83882,3.66116l26.51314,26.51314A25.0115,25.0115,0,0,1,300,210.37012Z"/>
    <circle cx="350" cy="100.01489" r="25"/>
    <circle cx="425" cy="150.01489" r="25"/>
    <circle cx="425" cy="50.01489" r="25"/>
  </g>
  <rect y="0.01489" width="450" height="450" fill="none"/>
</svg>
