<svg xmlns="http://www.w3.org/2000/svg" width="17.99993" height="18.03082" viewBox="0 0 17.99993 18.03082">
  <g>
    <path d="M11.99789,8.4605v8.51991a.99072.99072,0,0,1-.29.7.96547.96547,0,0,1-.71.3h-10a1.00294,1.00294,0,0,1-1-1v-8.51a.98938.98938,0,0,1,.28687-.69667L1.353,6.69653a.4939.4939,0,0,1,.35068-.14612h8.58965a.49388.49388,0,0,1,.34922.14466l1.06537,1.06537A.99.99,0,0,1,11.99789,8.4605Z"/>
    <path d="M11.99789,4.05041a.9965.9965,0,0,1-1,1H2.49177a.49388.49388,0,0,1-.49388-.49388V1.05041a1.00294,1.00294,0,0,1,1-1h6a.99651.99651,0,0,1,1,1v2h1A.99651.99651,0,0,1,11.99789,4.05041Z"/>
    <circle cx="14.0021" cy="4.05292" r="1"/>
    <circle cx="17.00204" cy="2.1029" r="1"/>
    <circle cx="17.00204" cy="6.05292" r="1"/>
  </g>
  <rect width="17.99993" height="18.03082" fill="none"/>
</svg>
