<svg xmlns="http://www.w3.org/2000/svg" width="17.99993" height="18.03082" viewBox="0 0 17.99993 18.03082">
  <g>
    <path d="M11,5.05292a1,1,0,0,0,0-2H10v-2a1,1,0,0,0-1-1H3a1,1,0,0,0-1,1v5H2L.293,7.76a.99994.99994,0,0,0-.2929.70709v7.58575H0v.92505a1,1,0,0,0,1,1H11a1,1,0,0,0,1-1V8.4671A1,1,0,0,0,11.70709,7.76L10,6.05292v-1Zm-3-3.05V4.88055H4V2.00293ZM2,8.88116,4,6.88055H8V6.87976L10,8.881v2.17194H2Zm0,7.17169v-3h8v3Z"/>
    <circle cx="14" cy="4.05292" r="1"/>
    <circle cx="16.99994" cy="2.1029" r="1"/>
    <circle cx="16.99994" cy="6.05292" r="1"/>
  </g>
</svg>
