<svg xmlns="http://www.w3.org/2000/svg" width="1799.993" height="1803.504" viewBox="0 0 1799.993 1803.504"><g><path d="M999.789 605.753v-100h100a100 100 0 0 0 0 -200h-100v-200a99.025 99.025 0 0 0 -100 -100h-600a99.654 99.654 0 0 0 -100 100v500l-169.995 170a101.688 101.688 0 0 0 -30 71v851a100.3 100.3 0 0 0 100 100h1000a99.022 99.022 0 0 0 100 -100v-851a100.666 100.666 0 0 0 -29 -71Zm-600 -405h400v287h-400Zm600 905h-800v-218l200 -200h400l200 200Z"/><path d="M1500.21 405.379A100 100 0 0 1 1400.21 505.379A100 100 0 0 1 1300.21 405.379A100 100 0 0 1 1500.21 405.379z"/><path d="M1800.204 210.378A100 100 0 0 1 1700.204 310.378A100 100 0 0 1 1600.204 210.378A100 100 0 0 1 1800.204 210.378z"/><path d="M1800.204 605.379A100 100 0 0 1 1700.204 705.379A100 100 0 0 1 1600.204 605.379A100 100 0 0 1 1800.204 605.379z"/></g><path width="17.99993" fill="none" d="M0 0H1799.993V1803.504H0V0z"/></svg>