<svg xmlns="http://www.w3.org/2000/svg" width="450" height="450" viewBox="0 0 450 450">
  <g>
    <path d="M250,150.01v-25h25a25,25,0,0,0,0-50H250v-50a25.00264,25.00264,0,0,0-25-25H75a25.00937,25.00937,0,0,0-25,25v125L7.32007,192.68994A24.99933,24.99933,0,0,0,0,210.37012V425.01a24.99624,24.99624,0,0,0,25,25H275a24.99624,24.99624,0,0,0,25-25V210.37012a24.99933,24.99933,0,0,0-7.32007-17.68018Zm-150-100H200v70.71H100Zm150,225H50V220.73l50-50.01H200l50,50.01Z" style="fill: #000026"/>
    <circle cx="350" cy="100.01489" r="25" style="fill: #000026"/>
    <circle cx="425" cy="150.01489" r="25" style="fill: #000026"/>
    <circle cx="425" cy="50.01489" r="25" style="fill: #000026"/>
  </g>
</svg>
