<svg xmlns="http://www.w3.org/2000/svg" width="17.99993" height="18.03082" viewBox="0 0 17.99993 18.03082">
  <g>
    <path d="M9.99789,6.05542v-1h1a1,1,0,0,0,0-2h-1v-2a.99025.99025,0,0,0-1-1h-6a.99654.99654,0,0,0-1,1v5l-1.69995,1.7a1.01688,1.01688,0,0,0-.3.71v8.51a1.003,1.003,0,0,0,1,1h10a.99022.99022,0,0,0,1-1v-8.51a1.00666,1.00666,0,0,0-.29-.71Zm-6-4.05h4v2.87h-4Zm6,9.05h-8v-2.18l2-2h4l2,2Z"/>
    <circle cx="14.0021" cy="4.05168" r="1"/>
    <circle cx="17.00204" cy="2.10167" r="1"/>
    <circle cx="17.00204" cy="6.05168" r="1"/>
  </g>
</svg>
