<svg xmlns="http://www.w3.org/2000/svg" width="1803.0819999999999" height="1803.0819999999999" viewBox="0 0 1803.0819999999999 1803.0819999999999"><g><path d="M1101.544 505.292a100 100 0 0 0 0 -200h-100v-200a100 100 0 0 0 -100 -100h-600a100 100 0 0 0 -100 100v500h0L30.841 776A100 100 0 0 0 1.55 846.71v758.575H1.544v92.505a100 100 0 0 0 100 100h1000a100 100 0 0 0 100 -100V846.71A100 100 0 0 0 1172.253 776L1001.544 605.292v-100Zm-300 -305V488.055h-400V200.293Zm-600 687.823 200 -200.061h400V687.976l200 200.122v217.194h-800Zm0 717.169v-300h800v300Z"/><path d="M1501.544 405.292A100 100 0 0 1 1401.544 505.292A100 100 0 0 1 1301.544 405.292A100 100 0 0 1 1501.544 405.292z"/><path d="M1801.538 210.29A100 100 0 0 1 1701.538 310.29A100 100 0 0 1 1601.538 210.29A100 100 0 0 1 1801.538 210.29z"/><path d="M1801.538 605.292A100 100 0 0 1 1701.538 705.292A100 100 0 0 1 1601.538 605.292A100 100 0 0 1 1801.538 605.292z"/></g><path width="18.03082" fill="none" d="M0 0H1803.082V1803.082H0V0z"/></svg>