<svg id="Layer_1" data-name="Layer 1" xmlns="http://www.w3.org/2000/svg" viewBox="0 0 450 450"><path d="M275,75H250V25A25,25,0,0,0,225,0H75A25,25,0,0,0,50,25v87.5A12.5,12.5,0,0,0,62.5,125H274.44c14,0,25.81-11.46,25.56-25.46A25,25,0,0,0,275,75Z"/><path d="M300,210.37V425a25,25,0,0,1-25,25H25A25,25,0,0,1,0,425V210.37a25,25,0,0,1,7.33-17.69l26.51-26.51a12.5,12.5,0,0,1,8.84-3.66H257.32a12.5,12.5,0,0,1,8.84,3.66l26.51,26.51A25,25,0,0,1,300,210.37Z"/><circle cx="350" cy="100.01" r="25"/><circle cx="425" cy="150.01" r="25"/><circle cx="425" cy="50.01" r="25"/></svg>