<svg id="Layer_1" data-name="Layer 1" xmlns="http://www.w3.org/2000/svg" viewBox="0 0 450 450"><path d="M332,414.61a25,25,0,0,1-11.63-2.87L225,361.62l-95.34,50.12a25,25,0,0,1-36.27-26.36L111.6,279.23,34.47,204A25,25,0,0,1,48.32,161.4l106.59-15.49,47.67-96.58a25,25,0,0,1,44.84,0l47.67,96.58L401.68,161.4A25,25,0,0,1,415.53,204L338.4,279.23l18.21,106.15A25,25,0,0,1,332,414.61ZM225,308.37a25,25,0,0,1,11.63,2.87l62.14,32.67L286.9,274.72a25,25,0,0,1,7.19-22.12l50.27-49-69.47-10.1a25,25,0,0,1-18.82-13.67l-31.07-63-31.07,63a25,25,0,0,1-18.82,13.67l-69.47,10.1,50.27,49a25,25,0,0,1,7.19,22.12l-11.87,69.19,62.14-32.67A25,25,0,0,1,225,308.37Z"/></svg>