<svg id="Layer_1" data-name="Layer 1" xmlns="http://www.w3.org/2000/svg" viewBox="0 0 450 450"><path d="M421.86,178.42a25,25,0,0,0-20.18-17L295.09,145.91,247.42,49.33a25,25,0,0,0-44.84,0l-47.67,96.58L48.32,161.4A25,25,0,0,0,34.47,204l77.13,75.19L93.39,385.38a25,25,0,0,0,36.27,26.36L225,361.62l95.34,50.12a25,25,0,0,0,36.27-26.36L338.4,279.23,415.53,204A25,25,0,0,0,421.86,178.42ZM294.09,252.6a25,25,0,0,0-7.19,22.12l11.87,69.19L225,305.13V116.88l31.07,63a25,25,0,0,0,18.82,13.67l69.47,10.1Z"/></svg>