<?xml version="1.0" encoding="UTF-8"?>
<svg id="uuid-eb769a48-5114-4ed0-984a-527d02992e5a" data-name="Layer 1" xmlns="http://www.w3.org/2000/svg" width="24" height="24" viewBox="0 0 24 24">
  <path d="M10.471,21c-.137,0-.273-.004-.409-.013-.918-.057-1.742-.522-2.262-1.28-.552-.804-.701-1.85-.4-2.798,.544-1.639,1.707-2.752,2.832-3.829,.456-.437,.887-.849,1.264-1.284l.425-.457c1.101-1.174,2.348-2.505,2.203-3.895-.045-.23-.219-.457-.48-.564-1.152-.361-1.885,.334-3.275,2.003-1.023,1.228-2.183,2.619-3.94,2.86-.981,.081-1.927-.291-2.573-1.011-.612-.683-.905-1.567-.847-2.56,.111-1.879,1.454-3.87,2.654-4.924,.415-.364,1.047-.324,1.411,.091,.365,.415,.324,1.047-.091,1.411-.917,.806-1.907,2.35-1.978,3.54-.027,.46,.083,.821,.338,1.105,.22,.245,.553,.384,.859,.359,.943-.13,1.762-1.112,2.629-2.153,1.274-1.529,2.857-3.437,5.494-2.601,.969,.395,1.604,1.192,1.777,2.162,.25,2.37-1.398,4.129-2.723,5.543l-.392,.42c-.419,.484-.904,.949-1.373,1.397-.992,.95-1.929,1.848-2.312,3.003-.112,.353-.059,.749,.146,1.049,.121,.176,.347,.392,.735,.415,3.846,.229,8.158-4.383,8.831-8.188,.095-.544,.613-.909,1.158-.811,.544,.096,.907,.614,.811,1.158-.809,4.579-5.618,9.85-10.513,9.85Z"/>
</svg>