<?xml version="1.0" encoding="UTF-8"?>
<svg id="uuid-1c0faed0-9ae9-48c0-acf5-4302b8d36b7c" data-name="Layer 1" xmlns="http://www.w3.org/2000/svg" width="24" height="24" viewBox="0 0 24 24">
  <path d="M6.928,3.493c.189,.18,.29,.439,.29,.7,0,.14-.021,.27-.07,.39s-.12,.23-.22,.32c-.19,.189-.44,.29-.7,.29-.271,0-.521-.101-.71-.29-.19-.19-.3-.44-.3-.71,0-.261,.109-.521,.3-.7,.37-.38,1.04-.38,1.41,0Zm1.479,13.591c.144,.071,.296,.105,.446,.105,.341,0,.67-.175,.855-.48,.283-.456,.155-1.059-.295-1.359-.461-.306-1.081-.182-1.387,.277-.023,.034-.049,.078-.067,.115-.247,.494-.047,1.095,.447,1.342Zm2.837-9.447c.19,0,.383-.055,.554-.168,.055-.036,.113-.084,.16-.131,.391-.391,.391-1.023,0-1.414-.359-.359-.927-.389-1.319-.084-.418,.316-.522,.909-.228,1.352,.193,.289,.51,.445,.833,.445Zm-5.729,2.188c-.528-.177-1.09,.108-1.265,.632-.164,.492,.075,1.021,.538,1.229,.134,.062,.276,.092,.418,.092,.323,0,.641-.156,.833-.445,.307-.46,.183-1.08-.277-1.387-.074-.05-.163-.093-.247-.12Zm13.353,4.098c-.469-.232-1.033-.065-1.301,.374-.284,.457-.156,1.06,.294,1.36,.171,.113,.363,.168,.554,.168,.323,0,.641-.156,.833-.445,.023-.034,.049-.078,.067-.115,.247-.494,.047-1.095-.447-1.342Zm-4.224-4.332c-.443-.294-1.034-.19-1.352,.228-.305,.393-.276,.959,.084,1.319,.195,.195,.451,.293,.707,.293s.512-.098,.707-.293c.047-.047,.095-.105,.131-.16,.307-.46,.182-1.08-.277-1.387Zm-2.357,9.255l-.009,.003c-.523,.174-.803,.739-.628,1.263,.14,.419,.532,.683,.951,.683,.105,0,.213-.017,.318-.052,.523-.174,.807-.74,.632-1.265-.175-.523-.735-.809-1.265-.632Z"/>
  <path d="M9.568,19.008c-.39-.39-1.02-.386-1.411,.003-.39,.391-.387,1.027,.004,1.418,.195,.195,.451,.293,.707,.293s.512-.098,.707-.293c.391-.391,.391-1.023,0-1.414l-.007-.007Z" fill="blue"/>
  <path d="M14.026,7.521c.195,.195,.451,.293,.707,.293s.512-.098,.707-.293c.36-.36,.389-.927,.084-1.319-.316-.418-.908-.522-1.352-.228-.459,.307-.584,.927-.277,1.387,.036,.055,.084,.113,.131,.16Z" fill="blue"/>
  <path d="M8.595,10.48c.258,0,.516-.099,.712-.295,.391-.391,.391-1.023,0-1.414s-1.023-.391-1.414,0l-.007,.007c-.391,.391-.387,1.021,.003,1.411,.195,.194,.45,.291,.706,.291Z" fill="blue"/>
  <path d="M15.201,17.07l-.007,.007c-.391,.391-.387,1.021,.003,1.411,.195,.194,.45,.291,.706,.291,.258,0,.516-.099,.712-.295,.391-.391,.391-1.023,0-1.414s-1.023-.391-1.414,0Z" fill="blue"/>
  <path d="M12.215,14.043c.391-.391,.387-1.021-.003-1.411-.393-.39-1.027-.388-1.418,.004-.391,.391-.391,1.023,0,1.414,.195,.195,.451,.293,.707,.293s.512-.098,.707-.293l.007-.007Z" fill="blue"/>
  <path d="M20.608,10.462c-.37-.37-1.04-.37-1.42,0-.18,.19-.29,.45-.29,.71,0,.13,.03,.26,.08,.38s.12,.23,.21,.33c.1,.09,.21,.17,.33,.21,.12,.05,.25,.08,.38,.08,.14,0,.26-.03,.39-.08,.12-.04,.23-.12,.32-.21,.09-.1,.17-.21,.22-.33,.051-.12,.07-.25,.07-.38,0-.26-.1-.52-.29-.71Z" fill="blue"/>
  <path d="M5.102,7.417c0-.552-.448-1-1-1s-1,.448-1,1,.448,1,1,1,1-.448,1-1Z" fill="blue"/>
</svg>