<?xml version="1.0" encoding="UTF-8"?>
<svg id="uuid-56d1cb59-4805-4eac-b926-77f671ca40b1" data-name="Layer 1" xmlns="http://www.w3.org/2000/svg" width="24" height="24" viewBox="0 0 24 24">
  <path d="M4.984,5.483c-.423-.356-.476-.987-.12-1.409,.265-.314,.534-.591,.801-.824,.413-.363,1.046-.323,1.411,.095,.363,.416,.321,1.048-.095,1.411-.188,.164-.392,.374-.588,.607-.198,.234-.48,.355-.766,.355-.228,0-.456-.077-.644-.235Zm4.39,8.44c-.619,.634-1.066,1.193-1.406,1.759-.285,.473-.133,1.088,.341,1.372,.161,.098,.339,.144,.515,.144,.339,0,.67-.173,.857-.484,.259-.43,.616-.872,1.125-1.394,.386-.395,.378-1.028-.018-1.414-.395-.385-1.027-.379-1.414,.018Zm-.334-4.936c-.376-.402-1.011-.422-1.413-.046-.462,.433-.867,.682-1.277,.783-.536,.134-.862,.676-.729,1.212,.113,.455,.521,.759,.97,.759,.08,0,.161-.01,.242-.029,.744-.186,1.452-.6,2.162-1.266,.403-.378,.424-1.011,.046-1.413Zm6.402-3.214c-.364-.417-.996-.459-1.411-.097-.416,.363-.459,.995-.097,1.411,.101,.114,.169,.265,.189,.359,.008,.078,.011,.154,.011,.23,0,.159-.018,.315-.049,.468-.109,.542,.241,1.069,.782,1.179,.067,.014,.134,.02,.199,.02,.466,0,.884-.327,.979-.802,.059-.29,.088-.581,.088-.864,0-.145-.007-.291-.032-.511-.095-.524-.322-1.007-.66-1.394Zm-1.041,11.804c-.518,.366-1.05,.668-1.58,.897-.507,.219-.74,.808-.521,1.314,.163,.378,.531,.604,.919,.604,.132,0,.267-.026,.396-.082,.657-.284,1.311-.653,1.941-1.099,.451-.319,.559-.942,.24-1.395-.319-.45-.94-.558-1.395-.24Zm5.771-7.584c-.554-.09-1.062,.271-1.157,.813-.049,.279-.118,.563-.206,.848-.162,.528,.134,1.088,.661,1.251,.099,.03,.197,.044,.295,.044,.428,0,.823-.275,.956-.705,.113-.368,.202-.735,.265-1.094,.095-.544-.27-1.062-.813-1.157Z"/>
  <path d="M5,8.426c0-.241,.041-.508,.121-.792,.15-.531-.158-1.084-.689-1.234-.527-.155-1.083,.157-1.234,.689-.131,.461-.197,.911-.197,1.337,0,.456,.076,.888,.227,1.283,.151,.399,.531,.645,.935,.645,.118,0,.238-.021,.355-.065,.516-.196,.775-.773,.579-1.29-.063-.167-.096-.359-.096-.572Z" fill="blue"/>
  <path d="M10.326,8.395c.272,0,.544-.111,.741-.329,.495-.547,.884-.876,1.261-1.067,.492-.249,.689-.852,.439-1.344-.25-.493-.854-.692-1.344-.439-.776,.394-1.391,1.013-1.839,1.509-.371,.41-.339,1.042,.07,1.412,.191,.174,.432,.259,.671,.259Z" fill="blue"/>
  <path d="M18.984,13.896c-.466-.299-1.083-.164-1.382,.302-.336,.523-.716,1.028-1.129,1.501-.363,.416-.321,1.048,.095,1.411,.189,.166,.424,.247,.658,.247,.278,0,.555-.115,.753-.342,.479-.547,.918-1.132,1.307-1.737,.298-.465,.163-1.083-.302-1.382Z" fill="blue"/>
  <path d="M12.99,13.129l.392-.421c.324-.347,.663-.709,.985-1.089,.357-.421,.306-1.052-.116-1.409-.419-.356-1.051-.307-1.409,.116-.301,.354-.617,.691-.919,1.014l-.453,.49c-.348,.418-.291,1.027,.117,1.385,.188,.163,.42,.243,.653,.243,.275,0,.551-.112,.75-.329Z" fill="blue"/>
  <path d="M10.301,18.999l-.118-.006c-.411-.025-.641-.263-.762-.458-.289-.471-.905-.615-1.376-.325-.47,.29-.615,.906-.325,1.376,.514,.833,1.367,1.344,2.341,1.403l.162,.008c.552,.022,1.017-.408,1.038-.96s-.408-1.017-.96-1.038Z" fill="blue"/>
</svg>