<?xml version="1.0" encoding="UTF-8"?>
<svg id="b" data-name="Layer 1" xmlns="http://www.w3.org/2000/svg" width="24" height="24" viewBox="0 0 24 24">
  <path d="M20,8h-5c-.552,0-1,.448-1,1v5h-5c-.552,0-1,.448-1,1v5c0,.552,.448,1,1,1h11c.552,0,1-.448,1-1V9c0-.552-.448-1-1-1Z"/>
  <path d="M5.5,14h-.5v-.487c0-.552-.448-1-1-1s-1,.448-1,1v1.487c0,.552,.448,1,1,1h1.5c.552,0,1-.448,1-1s-.448-1-1-1Z"/>
  <path d="M5.513,3h-1.513c-.552,0-1,.448-1,1v1.5c0,.552,.448,1,1,1s1-.448,1-1v-.5h.513c.552,0,1-.448,1-1s-.448-1-1-1Z"/>
  <path d="M9,5h1c.552,0,1-.448,1-1s-.448-1-1-1h-1c-.552,0-1,.448-1,1s.448,1,1,1Z"/>
  <path d="M13.513,5h.487v.5c0,.552,.448,1,1,1s1-.448,1-1v-1.5c0-.552-.448-1-1-1h-1.487c-.552,0-1,.448-1,1s.448,1,1,1Z"/>
  <path d="M4,11c.552,0,1-.448,1-1v-1c0-.552-.448-1-1-1s-1,.448-1,1v1c0,.552,.448,1,1,1Z"/>
</svg>