<?xml version="1.0" encoding="UTF-8"?>
<svg id="b" data-name="Layer 1" xmlns="http://www.w3.org/2000/svg" width="24" height="24" viewBox="0 0 24 24">
  <path d="M20,8h-5c-.55225,0-1,.44775-1,1v5h-5c-.55225,0-1,.44775-1,1v5c0,.55225,.44775,1,1,1h11c.55225,0,1-.44775,1-1V9c0-.55225-.44775-1-1-1Z"/>
  <path d="M5.5,14h-.5v-.4873c0-.55225-.44775-1-1-1s-1,.44775-1,1v1.4873c0,.55225,.44775,1,1,1h1.5c.55225,0,1-.44775,1-1s-.44775-1-1-1Z" style="fill: blue;"/>
  <path d="M5.5127,3h-1.5127c-.55225,0-1,.44775-1,1v1.5c0,.55225,.44775,1,1,1s1-.44775,1-1v-.5h.5127c.55225,0,1-.44775,1-1s-.44775-1-1-1Z" style="fill: blue;"/>
  <path d="M9,5h1c.55225,0,1-.44775,1-1s-.44775-1-1-1h-1c-.55225,0-1,.44775-1,1s.44775,1,1,1Z" style="fill: blue;"/>
  <path d="M13.5127,5h.4873v.5c0,.55225,.44775,1,1,1s1-.44775,1-1v-1.5c0-.55225-.44775-1-1-1h-1.4873c-.55225,0-1,.44775-1,1s.44775,1,1,1Z" style="fill: blue;"/>
  <path d="M4,11c.55225,0,1-.44775,1-1v-1c0-.55225-.44775-1-1-1s-1,.44775-1,1v1c0,.55225,.44775,1,1,1Z" style="fill: blue;"/>
</svg>