<svg id="Layer_1" data-name="Layer 1" xmlns="http://www.w3.org/2000/svg" viewBox="0 0 450 450"><path d="M425,100H350V25A25,25,0,0,0,325,0H125a25,25,0,0,0-25,25v75H25a25,25,0,0,0,0,50H50V425a25,25,0,0,0,25,25H375a25,25,0,0,0,25-25V150h25a25,25,0,0,0,0-50ZM150,50H300v50H150ZM350,400H100V150H350Z"/><path d="M175,200h0a25,25,0,0,0-25,25V325a25,25,0,0,0,25,25h0a25,25,0,0,0,25-25V225A25,25,0,0,0,175,200Z"/><path d="M275,200h0a25,25,0,0,0-25,25V325a25,25,0,0,0,25,25h0a25,25,0,0,0,25-25V225A25,25,0,0,0,275,200Z"/></svg>