<?xml version="1.0" encoding="UTF-8"?>
<svg id="b" data-name="Layer 1" xmlns="http://www.w3.org/2000/svg" width="24" height="24" viewBox="0 0 24 24">
  <path d="M20,7h-3v-3c0-.55225-.44775-1-1-1H8c-.55225,0-1,.44775-1,1v3h-3c-.55225,0-1,.44775-1,1s.44775,1,1,1H20c.55225,0,1-.44775,1-1s-.44775-1-1-1Zm-11-2h6v2h-6v-2Z"/>
  <path d="M18.5,11H5.5c-.28003,0-.5,.21997-.5,.5v8.5c0,.54999,.45001,1,1,1h12c.54999,0,1-.45001,1-1V11.5c0-.28003-.21997-.5-.5-.5Zm-7.5,7c0,.54999-.45001,1-1,1s-1-.45001-1-1v-4c0-.54999,.45001-1,1-1s1,.45001,1,1v4Zm4,0c0,.54999-.45001,1-1,1s-1-.45001-1-1v-4c0-.54999,.45001-1,1-1s1,.45001,1,1v4Z" style="fill: blue;"/>
</svg>