<svg xmlns="http://www.w3.org/2000/svg" width="1799.993" height="1803.0819999999999" viewBox="0 0 1799.993 1803.0819999999999"><g><path d="M600 0.839H500a100 100 0 0 0 -100 100V402.383H100a100 100 0 0 0 -100 100H0a100 100 0 0 0 100 100H200V1702.377a100 100 0 0 0 100 100H1500a100 100 0 0 0 100 -100V602.383h99.994a100 100 0 0 0 100 -100h0a100 100 0 0 0 -100 -100H1400V102.2a100 100 0 0 0 -99.807 -100ZM600 202.383h600v200H600Zm800 1400H400v-1000H1400Z"/><path width="2" d="M699.997 802.383H699.997A100 100 0 0 1 799.997 902.383V1302.383A100 100 0 0 1 699.997 1402.383H699.997A100 100 0 0 1 599.997 1302.383V902.383A100 100 0 0 1 699.997 802.383z"/><path width="2" d="M1099.997 802.383H1099.997A100 100 0 0 1 1199.997 902.383V1302.383A100 100 0 0 1 1099.997 1402.383H1099.997A100 100 0 0 1 999.997 1302.383V902.383A100 100 0 0 1 1099.997 802.383z"/></g><path width="17.9999" fill="none" d="M0 0H1799.99V1803.082H0V0z"/></svg>