<svg xmlns="http://www.w3.org/2000/svg" width="450" height="450" viewBox="0 0 450 450">
  <path d="M425,100.01H350v-75a25.00264,25.00264,0,0,0-25-25H125a25.00937,25.00937,0,0,0-25,25v75H25a25,25,0,0,0,0,50H425a25,25,0,0,0,0-50Zm-125,0H150v-50H300Z" />
  <path d="M387.5,187.5H62.5A12.5,12.5,0,0,0,50,200V425a25,25,0,0,0,25,25H375a24.99229,24.99229,0,0,0,25-25V200A12.5,12.5,0,0,0,387.5,187.5ZM200,368.75a25,25,0,0,1-50,0v-100a25,25,0,0,1,50,0Zm100,0a25,25,0,0,1-50,0v-100a25,25,0,0,1,50,0Z" />
</svg>
