<?xml version="1.0" encoding="UTF-8"?>
<svg id="b" data-name="Layer 1" xmlns="http://www.w3.org/2000/svg" width="24" height="24" viewBox="0 0 24 24">
  <path d="M20,7h-3V4c0-.552-.448-1-1-1H8c-.552,0-1,.448-1,1v3h-3c-.552,0-1,.448-1,1s.448,1,1,1H20c.552,0,1-.448,1-1s-.448-1-1-1Zm-5,0h-6v-2h6v2Z"/>
  <path d="M18.5,11H5.5c-.28,0-.5,.22-.5,.5v8.5c0,.55,.45,1,1,1h12c.55,0,1-.45,1-1V11.5c0-.28-.22-.5-.5-.5Zm-7.5,7c0,.55-.45,1-1,1s-1-.45-1-1v-4c0-.55,.45-1,1-1s1,.45,1,1v4Zm4,0c0,.55-.45,1-1,1s-1-.45-1-1v-4c0-.55,.45-1,1-1s1,.45,1,1v4Z"/>
</svg>