<svg xmlns="http://www.w3.org/2000/svg" width="1799.993" height="1803.0819999999999" viewBox="0 0 1799.993 1803.0819999999999"><path d="M1700 402.542H1400v-301a100.3 100.3 0 0 0 -100 -100l-700 -1H500a100.3 100.3 0 0 0 -100 100v302H100a100 100 0 0 0 0 200H1700a100 100 0 0 0 0 -200Zm-500 0H600v-200h600Zm-1000 1300a100.294 100.294 0 0 0 100 100H1500a100.294 100.294 0 0 0 100 -100V802.475a49.933 49.933 0 0 0 -49.933 -49.933H249.929A49.932 49.932 0 0 0 200 802.475Zm800 -660.1a100 100 0 0 1 200 0v400a100 100 0 0 1 -200 0Zm-400 0a100 100 0 0 1 200 0v400a100 100 0 1 1 -200 0Z"/><path width="17.99993" fill="none" d="M0 0H1799.993V1803.082H0V0z"/></svg>