<svg xmlns="http://www.w3.org/2000/svg" width="450" height="450" viewBox="0 0 450 450">
  <path d="M403.93051,133.20167c.27421,3.96709.27421,7.93418.27421,11.93784,0,121.99269-92.8702,262.68739-262.68738,262.68739v-.07311A261.36424,261.36424,0,0,1,0,366.36436a187.79762,187.79762,0,0,0,21.97441,1.33455A185.387,185.387,0,0,0,136.6362,328.1011a92.4394,92.4394,0,0,1-86.25228-64.11334,92.02509,92.02509,0,0,0,41.6819-1.5905,92.33128,92.33128,0,0,1-74.05851-90.49359v-1.17a91.738,91.738,0,0,0,41.90128,11.55392A92.43886,92.43886,0,0,1,31.33455,59.0152a262.03553,262.03553,0,0,0,190.27422,96.45337A92.41039,92.41039,0,0,1,378.93965,71.26382a185.259,185.259,0,0,0,58.6289-22.41316,92.66776,92.66776,0,0,1-40.585,51.06033A183.61076,183.61076,0,0,0,450,85.37716,187.55858,187.55858,0,0,1,403.93051,133.20167Z" />
</svg>
