<svg id="Layer_1" data-name="Layer 1" xmlns="http://www.w3.org/2000/svg" viewBox="0 0 450 450"><path d="M300,118.89a150,150,0,0,0-50-8.53H135.36l28-28a25,25,0,0,0,0-35.35h0A25,25,0,0,0,128,47L57.32,117.68c-.3.3-.6.61-.88.93a24.13,24.13,0,0,0-4.12,6.22,24.15,24.15,0,0,0-.92,2.25c-.27.77-.49,1.54-.69,2.32a23.58,23.58,0,0,0-.45,2.37,23.86,23.86,0,0,0-.23,2.39q0,.6,0,1.2c0,.4,0,.8,0,1.19a23.86,23.86,0,0,0,.23,2.39,23.58,23.58,0,0,0,.45,2.37c.2.78.42,1.55.69,2.32a24.15,24.15,0,0,0,.92,2.25,24.13,24.13,0,0,0,4.12,6.22c.28.32.58.63.88.93L128,223.74a25,25,0,0,0,35.36,0h0a25,25,0,0,0,0-35.35l-28-28H250A100,100,0,0,1,350,261.11c-.41,55.14-46.11,99.25-101.25,99.25H100a25,25,0,0,0,0,50H248.62c82.46,0,150.54-66,151.37-148.45A150.07,150.07,0,0,0,300,118.89Z"/></svg>