<svg xmlns="http://www.w3.org/2000/svg" width="1799.993" height="1802.31" viewBox="0 0 1799.993 1802.31"><path d="M1200.544 465.942a580.317 580.317 0 0 0 -200 -35H540.87l87.866 -87.866A100 100 0 0 0 487.312 201.654L228.736 460.236a100 100 0 0 0 0 141.418l67.695 67.694L487.312 860.229A100 100 0 0 0 628.736 718.811L540.87 630.945h459.674a399.96 399.96 0 0 1 398.517 434.887 412.83 412.83 0 0 1 -418.054 364.112H400.178a100 100 0 0 0 -100 99.994v0.006a100.006 100.006 0 0 0 100 100h600.366a599.015 599.015 0 0 0 200 -1164Z"/><path width="17.99993" fill="none" d="M0 0H1799.993V1802.31H0V0z"/></svg>