<svg xmlns="http://www.w3.org/2000/svg" width="450" height="450" viewBox="0 0 450 450">
  <path d="M300,118.88525a149.95727,149.95727,0,0,0-50-8.52978H135.35547l28.03271-28.0332a24.99972,24.99972,0,0,0,0-35.35523h0a24.99943,24.99943,0,0,0-35.355,0L57.32227,117.67773q-.45777.45777-.88672.93262a25.11263,25.11263,0,0,0-1.60157,1.96314,24.83178,24.83178,0,0,0-2.51709,4.25512q-.51489,1.10962-.91552,2.25635-.3999,1.14514-.68653,2.31836-.28564,1.17188-.45752,2.363-.17137,1.18982-.22851,2.38965-.02856.59947-.02881,1.19946,0,.59985.02881,1.19922.05712,1.19825.22851,2.38965.17213,1.18944.45752,2.36279.28638,1.17188.68653,2.3186.40064,1.14514.91552,2.25635a24.81315,24.81315,0,0,0,2.51709,4.25513,25.11063,25.11063,0,0,0,1.60157,1.96313q.4292.475.88672.93262l70.71093,70.71069a24.99942,24.99942,0,0,0,35.355,0h0a24.99971,24.99971,0,0,0,0-35.35522l-28.03271-28.033H250a99.99767,99.99767,0,0,1,99.99707,100.75415c-.40625,55.13965-46.11133,99.24585-101.252,99.24585H100a25,25,0,0,0,0,50H248.62061c82.46435,0,150.53662-65.98609,151.37158-148.44653A150.07441,150.07441,0,0,0,300,118.88525Z" style="fill: #000026"/>
</svg>
