<?xml version="1.0" encoding="UTF-8"?>
<svg id="b" data-name="Layer 1" xmlns="http://www.w3.org/2000/svg" width="24" height="24" viewBox="0 0 24 24">
  <path d="M6,21H14c3.85986,0,7-3.14014,7-7,0-3.85986-3.14014-7-7-7H4c-.55225,0-1,.44775-1,1,0,.55225,.44775,1,1,1H14c2.75684,0,5,2.24316,5,5s-2.24316,5-5,5H6c-.55225,0-1,.44775-1,1,0,.55225,.44775,1,1,1Z" style="fill: blue;"/>
  <path d="M8,13c.25586,0,.51172-.09766,.70703-.29297,.39062-.39063,.39062-1.02344,0-1.41406l-3.29297-3.29297,3.29297-3.29297c.39062-.39063,.39062-1.02344,0-1.41406s-1.02344-.39062-1.41406,0L3.29297,7.29297c-.39062,.39063-.39062,1.02344,0,1.41406l4,4c.19531,.19531,.45117,.29297,.70703,.29297Z"/>
</svg>