<svg xmlns="http://www.w3.org/2000/svg" width="17.99993" height="14.58349" viewBox="0 0 17.99993 14.58349">
  <path d="M12.00544,2.93576a5.80317,5.80317,0,0,0-2-.35H5.4087l.87866-.87866A1,1,0,0,0,4.87312.29288L2.28736,2.87869a1,1,0,0,0,0,1.41419l.67695.67694L4.87312,6.87863A1,1,0,0,0,6.28736,5.46445L5.4087,4.58578h4.59674a3.9996,3.9996,0,0,1,3.98517,4.34888,4.1283,4.1283,0,0,1-4.18054,3.64112H4.00178a1,1,0,0,0-1,.99993v.00007a1.00006,1.00006,0,0,0,1,1h6.00366a5.99015,5.99015,0,0,0,2-11.64Z"/>
</svg>
