<?xml version="1.0" encoding="UTF-8"?>
<svg id="b" data-name="Layer 1" xmlns="http://www.w3.org/2000/svg" width="24" height="24" viewBox="0 0 24 24">
  <path d="M6,21H14c3.86,0,7-3.14,7-7,0-3.86-3.14-7-7-7H4c-.552,0-1,.448-1,1,0,.552,.448,1,1,1H14c2.757,0,5,2.243,5,5s-2.243,5-5,5H6c-.552,0-1,.448-1,1,0,.552,.448,1,1,1Z" fill="blue"/>
  <path d="M8,13c.256,0,.512-.098,.707-.293,.391-.391,.391-1.023,0-1.414l-3.293-3.293,3.293-3.293c.391-.391,.391-1.023,0-1.414s-1.023-.391-1.414,0L3.293,7.293c-.391,.391-.391,1.023,0,1.414l4,4c.195,.195,.451,.293,.707,.293Z"/>
</svg>