<svg xmlns="http://www.w3.org/2000/svg" width="17.99993" height="18.03082" viewBox="0 0 17.99993 18.03082">
  <path d="M12.00544,4.66328a5.80317,5.80317,0,0,0-2-.35H5.4087l.87866-.87867A1,1,0,0,0,4.87312,2.0204L2.28736,4.60621a1,1,0,0,0,0,1.41419l.67695.67694L4.87312,8.60615A1,1,0,0,0,6.28736,7.192L5.4087,6.31331h4.59674a3.9996,3.9996,0,0,1,3.98517,4.34887A4.1283,4.1283,0,0,1,9.81007,14.3033H4.00178a1,1,0,0,0-1,.99994v.00006a1.00006,1.00006,0,0,0,1,1h6.00366a5.99015,5.99015,0,0,0,2-11.64Z"/>
</svg>
