<svg xmlns="http://www.w3.org/2000/svg" width="17.99993" height="18.0231" viewBox="0 0 17.99993 18.0231">
  <path d="M12.00544,4.65942a5.80317,5.80317,0,0,0-2-.35H5.4087l.87866-.87866A1,1,0,0,0,4.87312,2.01654L2.28736,4.60236a1,1,0,0,0,0,1.41418l.67695.67694L4.87312,8.60229A1,1,0,0,0,6.28736,7.18811L5.4087,6.30945h4.59674a3.9996,3.9996,0,0,1,3.98517,4.34887,4.1283,4.1283,0,0,1-4.18054,3.64112H4.00178a1,1,0,0,0-1,.99994v.00006a1.00006,1.00006,0,0,0,1,1h6.00366a5.99015,5.99015,0,0,0,2-11.64Z"/>
</svg>
