<svg xmlns="http://www.w3.org/2000/svg" width="450" height="450" viewBox="0 0 450 450">
  <path d="M260.35535,225.00008l106.066-106.066A25,25,0,0,0,331.066,83.57869L225,189.64461,118.934,83.57869a24.99988,24.99988,0,0,0-35.35535,0h0a25.0001,25.0001,0,0,0,0,35.35535l106.066,106.066-106.066,106.066a25,25,0,0,0,0,35.35528v.00006a25.0001,25.0001,0,0,0,35.35535,0L225,260.35536l106.066,106.066a25.00009,25.00009,0,0,0,35.35534,0v-.00006a24.99989,24.99989,0,0,0,0-35.35528Z" style="fill: #000026"/>
</svg>
