<?xml version="1.0" encoding="UTF-8"?>
<svg id="b" data-name="Layer 1" xmlns="http://www.w3.org/2000/svg" width="24" height="24" viewBox="0 0 24 24">
  <path d="M13.414,12l5.293-5.293c.391-.391,.391-1.023,0-1.414s-1.023-.391-1.414,0l-5.293,5.293L6.707,5.293c-.391-.391-1.023-.391-1.414,0s-.391,1.023,0,1.414l5.293,5.293-5.293,5.293c-.391,.391-.391,1.023,0,1.414,.195,.195,.451,.293,.707,.293s.512-.098,.707-.293l5.293-5.293,5.293,5.293c.195,.195,.451,.293,.707,.293s.512-.098,.707-.293c.391-.391,.391-1.023,0-1.414l-5.293-5.293Z"/>
</svg>