<?xml version="1.0" encoding="UTF-8"?>
<svg id="b" data-name="Layer 1" xmlns="http://www.w3.org/2000/svg" width="24" height="24" viewBox="0 0 24 24">
  <path d="M16.9502,11.99988l3.5249-3.5249c1.3667-1.36719,1.3667-3.58301,0-4.9502-1.36719-1.36621-3.58301-1.36621-4.9502,0l-3.5249,3.5249-3.5249-3.5249c-1.36719-1.36621-3.58301-1.36621-4.9502,0-1.3667,1.36719-1.3667,3.58301,0,4.9502l3.5249,3.5249-3.5249,3.5249c-1.3667,1.36719-1.3667,3.58301,0,4.9502,.68359,.68311,1.57959,1.0249,2.4751,1.0249s1.7915-.3418,2.4751-1.0249l3.5249-3.5249,3.5249,3.5249c.68359,.68311,1.57959,1.0249,2.4751,1.0249s1.7915-.3418,2.4751-1.0249c1.3667-1.36719,1.3667-3.58301,0-4.9502l-3.5249-3.5249Z" style="fill: blue;"/>
  <path d="M14.12109,12l4.93945-4.93945c.58594-.58545,.58594-1.53564,0-2.12109-.58594-.58594-1.53516-.58594-2.12109,0l-4.93945,4.93945L7.06055,4.93945c-.58594-.58594-1.53516-.58594-2.12109,0-.58594,.58545-.58594,1.53564,0,2.12109l4.93945,4.93945-4.93945,4.93945c-.58594,.58545-.58594,1.53564,0,2.12109,.29297,.29297,.67676,.43945,1.06055,.43945s.76758-.14648,1.06055-.43945l4.93945-4.93945,4.93945,4.93945c.29297,.29297,.67676,.43945,1.06055,.43945s.76758-.14648,1.06055-.43945c.58594-.58545,.58594-1.53564,0-2.12109l-4.93945-4.93945Z"/>
</svg>