<?xml version="1.0" encoding="UTF-8"?>
<svg id="b" data-name="Layer 1" xmlns="http://www.w3.org/2000/svg" width="24" height="24" viewBox="0 0 24 24">
  <path d="M16.95,12l3.53-3.53c1.36-1.36,1.36-3.58,0-4.95-1.37-1.36-3.59-1.36-4.96,0l-3.52,3.53-3.52-3.53c-1.37-1.36-3.59-1.36-4.96,0-1.36,1.37-1.36,3.59,0,4.95l3.53,3.53-3.53,3.52c-1.36,1.37-1.36,3.59,0,4.95,.69,.69,1.58,1.03,2.48,1.03s1.79-.34,2.48-1.03l3.52-3.52,3.52,3.52c.69,.69,1.58,1.03,2.48,1.03s1.79-.34,2.48-1.03c1.36-1.36,1.36-3.58,0-4.95l-3.53-3.52Zm2.11,7.06c-.29,.29-.68,.44-1.06,.44s-.77-.15-1.06-.44l-4.94-4.94-4.94,4.94c-.29,.29-.68,.44-1.06,.44s-.77-.15-1.06-.44c-.59-.58-.59-1.54,0-2.12l4.94-4.94L4.94,7.06c-.59-.58-.59-1.54,0-2.12,.59-.59,1.53-.59,2.12,0l4.94,4.94,4.94-4.94c.59-.59,1.53-.59,2.12,0,.59,.58,.59,1.54,0,2.12l-4.94,4.94,4.94,4.94c.59,.58,.59,1.54,0,2.12Z"/>
</svg>