<?xml version="1.0" encoding="UTF-8"?>
<svg id="b" data-name="Layer 1" xmlns="http://www.w3.org/2000/svg" width="24" height="24" viewBox="0 0 24 24">
  <path d="M16.95,12l3.525-3.525c1.367-1.367,1.367-3.583,0-4.95-1.367-1.366-3.583-1.366-4.95,0l-3.525,3.525-3.525-3.525c-1.367-1.366-3.583-1.366-4.95,0-1.367,1.367-1.367,3.583,0,4.95l3.525,3.525-3.525,3.525c-1.367,1.367-1.367,3.583,0,4.95,.684,.683,1.58,1.025,2.475,1.025s1.792-.342,2.475-1.025l3.525-3.525,3.525,3.525c.684,.683,1.58,1.025,2.475,1.025s1.792-.342,2.475-1.025c1.367-1.367,1.367-3.583,0-4.95l-3.525-3.525Z" fill="blue"/>
  <path d="M14.121,12l4.939-4.939c.586-.585,.586-1.536,0-2.121-.586-.586-1.535-.586-2.121,0l-4.939,4.939L7.061,4.939c-.586-.586-1.535-.586-2.121,0-.586,.585-.586,1.536,0,2.121l4.939,4.939-4.939,4.939c-.586,.585-.586,1.536,0,2.121,.293,.293,.677,.439,1.061,.439s.768-.146,1.061-.439l4.939-4.939,4.939,4.939c.293,.293,.677,.439,1.061,.439s.768-.146,1.061-.439c.586-.585,.586-1.536,0-2.121l-4.939-4.939Z"/>
</svg>