<?xml version="1.0" encoding="UTF-8"?>
<svg id="b" data-name="Layer 1" xmlns="http://www.w3.org/2000/svg" width="24" height="24" viewBox="0 0 24 24">
  <path d="M13.41406,12l5.29297-5.29297c.39062-.39062,.39062-1.02344,0-1.41406s-1.02344-.39062-1.41406,0l-5.29297,5.29297L6.70703,5.29297c-.39062-.39062-1.02344-.39062-1.41406,0s-.39062,1.02344,0,1.41406l5.29297,5.29297-5.29297,5.29297c-.39062,.39062-.39062,1.02344,0,1.41406,.19531,.19531,.45117,.29297,.70703,.29297s.51172-.09766,.70703-.29297l5.29297-5.29297,5.29297,5.29297c.19531,.19531,.45117,.29297,.70703,.29297s.51172-.09766,.70703-.29297c.39062-.39062,.39062-1.02344,0-1.41406l-5.29297-5.29297Z"/>
</svg>