<svg xmlns="http://www.w3.org/2000/svg" xmlns:xlink="http://www.w3.org/1999/xlink" width="0" height="0" style="display:none;"><symbol viewBox="0 0 17.99993 18.03082" id="hi-circle-fill">
  <circle cx="8.99997" cy="9.01541" r="9"></circle>
</symbol><symbol viewBox="0 0 17.99993 18.03082" id="hi-circle-line">
  <path d="M9,.01541a9,9,0,1,0,9,9A9.00075,9.00075,0,0,0,9,.01541Zm0,16a7,7,0,1,1,7-7A6.99488,6.99488,0,0,1,9,16.01541Z"></path>
</symbol><symbol viewBox="0 0 17.99993 18.03082" id="hi-circle-mid">
  <path d="M9,.01541a9,9,0,1,0,9,9A9.00071,9.00071,0,0,0,9,.01541Zm-7,9a6.99331,6.99331,0,0,1,11.95-4.94l-9.89,9.9A6.99052,6.99052,0,0,1,2,9.01541Z"></path>
</symbol><symbol viewBox="0 0 17.99993 14" id="hi-circle-small-fill">
  <circle cx="8.99997" cy="7" r="7"></circle>
</symbol><symbol viewBox="0 0 17.99993 14" id="hi-circle-small-line">
  <path d="M9,0a7,7,0,1,0,7,7A6.99488,6.99488,0,0,0,9,0ZM9,12a5,5,0,1,1,5-5A5.00181,5.00181,0,0,1,9,12Z"></path>
</symbol><symbol viewBox="0 0 17.99993 14.03082" id="hi-circle-small-mid">
  <path d="M9,.01541a7,7,0,1,0,7,7A6.99488,6.99488,0,0,0,9,.01541Zm-3.53,10.53A4.99214,4.99214,0,0,1,9,2.01541a4.93037,4.93037,0,0,1,3.53,1.47Z"></path>
</symbol><symbol viewBox="0 0 17.99993 18.03082" id="hi-eraser-fill">
  <path d="M8.29494,17.72011a1.00849,1.00849,0,0,1-1.42084-.00085L.995,11.84011l-.7-.7a1.007,1.007,0,0,1,0-1.42l.7-.69995L4.13571,5.88835a.49389.49389,0,0,1,.698.0005l7.30162,7.30162a.49388.49388,0,0,1-.00041.69887ZM17.70443,6.88962,11.11494.31014A.99776.99776,0,0,0,9.70443.31067L5.86419,4.15091a.49389.49389,0,0,0,0,.69846l7.30155,7.30154a.49386.49386,0,0,0,.69845,0L17.705,8.31014A1.00687,1.00687,0,0,0,17.70443,6.88962Z"></path>
</symbol><symbol viewBox="0 0 17.99993 18.03082" id="hi-eraser-line">
  <path d="M17.707,6.8941,11.12125.30835a.99988.99988,0,0,0-1.41418,0l-4,4L4.29288,5.72253,1,9.01544V9.01538l-.70709.70715a1,1,0,0,0,0,1.41419L1,11.84381l5.87867,5.87866a.99988.99988,0,0,0,1.41418,0l4-4,1.41425-1.41418H13.707l4-4A.99989.99989,0,0,0,17.707,6.8941ZM7.58573,15.60119,2.41416,10.42962l3.29291-3.2929,5.17157,5.17157ZM7.12125,5.72253l3.29291-3.29291,5.17157,5.17157L12.29282,10.8941Z"></path>
</symbol><symbol viewBox="0 0 17.99993 18.03082" id="hi-eraser-mid">
  <path d="M17.705,6.89541l-6.59-6.59a.9959.9959,0,0,0-1.41,0l-4,4-1.41,1.42-3.3,3.29-.7.71a.99581.99581,0,0,0,0,1.41l.7.71,5.88,5.88a1.008,1.008,0,0,0,1.42,0l4-4,1.41-1.42,4-4A.99593.99593,0,0,0,17.705,6.89541Zm-10.12,8.71-5.17-5.18,3.29-3.29,5.17,5.17Z"></path>
</symbol><symbol viewBox="0 0 17.99993 14.59798" id="hi-eye-crossed-line">
  <g>
    <path d="M10.4302,12.29536a.97691.97691,0,0,0-.83789-.25726,4.37907,4.37907,0,0,1-3.68237-1.23523l-3.5-3.5.85474-.85473A.92993.92993,0,0,0,3.267,5.13527l-.09942-.10016a.93.93,0,0,0-1.31751-.00232L.28994,6.59285A1.00672,1.00672,0,0,0,.2908,8.01369L4.5,12.21284a6.33224,6.33224,0,0,0,5.55151,1.77741.9347.9347,0,0,0,.49445-1.57843Z"></path>
    <path d="M17.70913,6.592,13.5,2.3929A6.35638,6.35638,0,0,0,7.94394.614a.93448.93448,0,0,0-.49225,1.5805L7.57,2.31282a.97679.97679,0,0,0,.83582.25507,4.379,4.379,0,0,1,3.6842,1.235l3.5,3.5-.85675.86243a.92991.92991,0,0,0,.0022,1.313l.09692.097a.93.93,0,0,0,1.31519,0L17.71,8.01289A1.00678,1.00678,0,0,0,17.70913,6.592Z"></path>
    <path d="M3.41739.29512a1.00778,1.00778,0,0,0-1.42511,0V.29518a1.00766,1.00766,0,0,0,0,1.42511L4.30215,4.03017,4.99,4.72285l.00244-.00244L7.309,7.037l.961.96588-.00818-.01306L8.323,8.051,8.31,8.04286l1.98,1.98L10.293,10.021l1.24957,1.24957-.00263.00226,1.42,1.42.00256-.00232,1.61224,1.61224A1.00773,1.00773,0,0,0,16,12.8777Z"></path>
  </g>
</symbol><symbol viewBox="0 0 17.99993 13.5589" id="hi-eye-line">
  <path d="M4.49923,1.864.291,6.071a1,1,0,0,0,0,1.41421l4.20828,4.20709a6.36393,6.36393,0,0,0,9,0L17.709,7.48525a1,1,0,0,0,0-1.4142L13.49919,1.864A6.36393,6.36393,0,0,0,4.49923,1.864Zm1.41421,8.41419-3.50117-3.5,3.50117-3.5a4.36394,4.36394,0,0,1,6.17154,0l3.50268,3.5-3.50268,3.5A4.36394,4.36394,0,0,1,5.91344,10.27814Zm3.08577-6.49a3,3,0,1,0,3,3A2.996,2.996,0,0,0,8.99921,3.78816Zm0,4a1,1,0,1,1,1-1A1.003,1.003,0,0,1,8.99921,7.78816Z"></path>
</symbol><symbol viewBox="0 0 17.99993 18.03082" id="hi-eyedropper-fill">
  <path d="M17.70869,5.30545l-2.34,2.34.84.84a.99578.99578,0,0,1,0,1.41h-.00995a.98383.98383,0,0,1-1.4,0l-.84-.84-1.41-1.41-2.18-2.18-1.41-1.41-.8-.79a1.00666,1.00666,0,0,1-.29-.71,1.01892,1.01892,0,0,1,.29-.7.99588.99588,0,0,1,1.41,0l.8.79,2.34-2.34a1.00686,1.00686,0,0,1,.71-.29,1.019,1.019,0,0,1,.7.29l3.59,3.59A.99588.99588,0,0,1,17.70869,5.30545Zm-6.22,3.4-2.18-2.18-.71-.7a.99591.99591,0,0,0-1.41,0l-6.9,6.9a.98976.98976,0,0,0-.29.71v3.59a.98811.98811,0,0,0,1,.99h3.59a.98371.98371,0,0,0,.7-.29l6.9-6.9a.99591.99591,0,0,0,0-1.41Z"></path>
</symbol><symbol viewBox="0 0 17.99993 18.03082" id="hi-eyedropper-line">
  <path d="M11.48894,8.70541l-2.18-2.18-.705-.705a.997.997,0,0,0-1.41,0L.291,12.7234a.997.997,0,0,0-.292.705v3.59a.997.997,0,0,0,.997.997h3.59a.997.997,0,0,0,.705-.292l6.903-6.903a.997.997,0,0,0,0-1.41Zm-7.31,7.31H1.999v-2.18l5.89-5.89,2.18,2.18Zm13.53-12.12-3.59-3.59a1.01892,1.01892,0,0,0-.7-.29,1.00666,1.00666,0,0,0-.71.29l-2.34,2.34-.795-.795a.997.997,0,0,0-1.41,0h0a.997.997,0,0,0,0,1.41l.795.795,1.41,1.41,2.18,2.18,1.41,1.41.83747.8375a.997.997,0,0,0,1.4075.00249l.00274-.00272a.997.997,0,0,0,.00019-1.41473l-.83793-.83252,2.34-2.34A.997.997,0,0,0,17.709,3.89541Zm-3.75,2.33-2.17-2.17,1.62-1.63,2.18,2.18006Z"></path>
</symbol><symbol viewBox="0 0 17.99993 18.03082" id="hi-eyedropper-mid">
  <path d="M11.48786,8.70514l-2.18-2.18-.705-.705a.997.997,0,0,0-1.41,0l-6.903,6.903a.997.997,0,0,0-.292.705v3.59a.997.997,0,0,0,.997.997h3.59a.997.997,0,0,0,.705-.292l6.903-6.903a.997.997,0,0,0,0-1.41Zm-7.31,7.31h-2.18v-2.18l5.89-5.89,2.18,2.18ZM17.70955,5.30572l-2.34,2.34.84.83a1.00792,1.00792,0,0,1,0,1.42H16.1996a.98385.98385,0,0,1-1.4,0l-.84-.84-1.41-1.41-2.18-2.18-1.41-1.41-.8-.8a1.00108,1.00108,0,0,1-.29-.7.995.995,0,0,1,1.7-.71l.8.8,2.34-2.34a1.00686,1.00686,0,0,1,.71-.29,1.019,1.019,0,0,1,.7.29l3.59,3.59A.99588.99588,0,0,1,17.70955,5.30572Z"></path>
</symbol><symbol viewBox="0 0 17.99993 18.03082" id="hi-layer-fill">
  <g>
    <path d="M8.516.14085l-6.94795,3.86a.99655.99655,0,0,0,0,1.74228l6.948,3.86a.9965.9965,0,0,0,.96793,0l6.94795-3.86a.99655.99655,0,0,0,0-1.74228L9.48393.14085A.99655.99655,0,0,0,8.516.14085Z"></path>
    <path d="M16.435,14.02053l-6.95033,3.869a.99654.99654,0,0,1-.96941,0l-6.95033-3.869a.99655.99655,0,0,1,.00037-1.74166h0a.99653.99653,0,0,1,.96915.00027L9,15.87935l6.46551-3.60021a.99653.99653,0,0,1,.96915-.00027h0A.99655.99655,0,0,1,16.435,14.02053Z"></path>
    <path d="M16.435,9.87179l-6.95033,3.869a.99654.99654,0,0,1-.96941,0l-6.95033-3.869A.99655.99655,0,0,1,1.5653,8.13013h0a.99653.99653,0,0,1,.96915.00027L9,11.73061,15.46548,8.1304a.99653.99653,0,0,1,.96915-.00027h0A.99655.99655,0,0,1,16.435,9.87179Z"></path>
  </g>
</symbol><symbol viewBox="0 0 17.99993 18.03082" id="hi-layer-line">
  <g>
    <path d="M16.431,14.02548l-6.95033,3.869a.99654.99654,0,0,1-.96941,0L1.561,14.02548a.99655.99655,0,0,1,.00037-1.74167h0a.99656.99656,0,0,1,.96915.00027L8.996,15.88429l6.46551-3.60021a.99656.99656,0,0,1,.96915-.00027h0A.99655.99655,0,0,1,16.431,14.02548Z"></path>
    <path d="M16.431,9.87674l-6.95033,3.869a.99654.99654,0,0,1-.96941,0L1.561,9.87674a.99654.99654,0,0,1,.00037-1.74166h0a.99656.99656,0,0,1,.96915.00026L8.996,11.73555l6.46551-3.60021a.99656.99656,0,0,1,.96915-.00026h0A.99654.99654,0,0,1,16.431,9.87674Z"></path>
    <path d="M16.66206,4.178a.9246.9246,0,0,0-.22-.17h-.01l-.08-.05L9.492.138a.98619.98619,0,0,0-.97,0l-6.85,3.81-.1.06a.761.761,0,0,0-.22.17,1.73538,1.73538,0,0,0-.13.15c-.03.06-.06.11-.09.17a.98589.98589,0,0,0-.07.38,1.06659,1.06659,0,0,0,.03.25.91667.91667,0,0,0,.09.23V5.368h.01a.95284.95284,0,0,0,.15.2l.01.01.22.17c.01,0,.01.01.02.01l6.92,3.85h.01a1.02021,1.02021,0,0,0,.96,0l6.87-3.83.08-.04a.98032.98032,0,0,0,.23-1.56ZM9.002,7.598l-4.89-2.72,4.89-2.73,4.89,2.72Z"></path>
  </g>
</symbol><symbol viewBox="0 0 17.99993 18.03082" id="hi-paint-bucket-fill">
  <path d="M15.73251,10.73041l-7.01,7.01a.99581.99581,0,0,1-1.41,0l-7.02-7.01a.99582.99582,0,0,1,0-1.41l6.31-6.32-1.29-1.29a1.008,1.008,0,0,1,0-1.42.99581.99581,0,0,1,1.41,0l2.71,2.71,6.3,6.32A.9783.9783,0,0,1,15.73251,10.73041Zm1.68084,2.68777-1.39357-1.39364-1.40549,1.39364a1.975,1.975,0,0,0-.57171,1.39356,1.95484,1.95484,0,0,0,.57171,1.39357,1.96981,1.96981,0,0,0,2.79906,0,1.95491,1.95491,0,0,0,.57178-1.39357A1.975,1.975,0,0,0,17.41335,13.41818Z"></path>
</symbol><symbol viewBox="0 0 17.99993 18.03082" id="hi-paint-bucket-line">
  <path d="M15.73337,9.3172,9.427,3.002,9.429,3,8.0148,1.58575l-.001.001L6.72189.29291A1,1,0,0,0,5.30765,1.70709L6.60049,3.00177.29288,9.3172a1,1,0,0,0,0,1.41418l7.01477,7.00653a1,1,0,0,0,1.41424,0l7.01148-7.00653A1,1,0,0,0,15.73337,9.3172Zm-2.1211.70636L8.01462,15.61725l-5.6004-5.59381L8.0137,4.417Zm4.36327,4.791a1.9515,1.9515,0,0,1-.57,1.39,1.97956,1.97956,0,0,1-2.8,0,1.95153,1.95153,0,0,1-.57-1.39,1.99145,1.99145,0,0,1,.57-1.4l1.41-1.39,1.39,1.39A1.99141,1.99141,0,0,1,17.97554,14.8146Z"></path>
</symbol><symbol viewBox="0 0 17.99993 18.03082" id="hi-paint-bucket-mid">
  <path d="M17.97554,14.80831a1.95758,1.95758,0,0,1-.57,1.4,1.97956,1.97956,0,0,1-2.8,0,1.992,1.992,0,0,1,0-2.79l1.41-1.39,1.39,1.39A1.96846,1.96846,0,0,1,17.97554,14.80831Zm-2.24-4.08-7.01,7.01a1.008,1.008,0,0,1-1.42,0l-7.00995-7.01a.99581.99581,0,0,1,0-1.41l6.31-6.32-1.3-1.29a1.0041,1.0041,0,0,1,1.42-1.42l1.29,1.3,1.41,1.41,6.31,6.32A.99593.99593,0,0,1,15.73555,10.7283Zm-2.12-.7-5.6-5.61-5.6,5.61Z"></path>
</symbol><symbol viewBox="0 0 17.99993 18.03082" id="hi-path-fill">
  <path d="M18,1.0104v4.01a.99443.99443,0,0,1-.99,1h-3.6c-.02.00995-.02.04-.04.06l-7.3,7.3c-.02.02-.05.02-.07.04v3.6a.98589.98589,0,0,1-.99.99H1a.99442.99442,0,0,1-1-.99v-4.01a1.003,1.003,0,0,1,1-1H4.6c.02-.01.02-.04.04-.06l7.3-7.3c.02-.02.04-.02.06-.04v-3.6a.99443.99443,0,0,1,1-.99h4.01A.98589.98589,0,0,1,18,1.0104Z"></path>
</symbol><symbol viewBox="0 0 17.99993 18.03082" id="hi-path-line">
  <path d="M17.00439.01547H12.99548a.99552.99552,0,0,0-.99554.99555V4.61148c-.01966.01678-.04438.02319-.063.04181L4.63781,11.95242c-.01861.01862-.025.04334-.04181.063H.99554A.99557.99557,0,0,0,0,13.011V17.0198a.99553.99553,0,0,0,.99554.99555H5.00439A.99555.99555,0,0,0,6,17.0198V13.41934c.01959-.01678.04437-.02325.06292-.04181l7.2992-7.29913c.01861-.01862.025-.04334.04181-.063h3.60046a.99557.99557,0,0,0,.99555-.99554V1.011A.99553.99553,0,0,0,17.00439.01547ZM4,14.01541v2.00885H2V14.01541Zm11.99994-12V4.02432h-2V2.01541Z"></path>
</symbol><symbol viewBox="0 0 17.99993 18.03082" id="hi-path-mid">
  <path d="M17.01.01541H13a1.003,1.003,0,0,0-1,1v3.6a.20966.20966,0,0,0-.06.04l-7.3,7.3c-.02.02-.02.04-.04.06H1a1.003,1.003,0,0,0-1,1v4a1.00291,1.00291,0,0,0,1,1H5.01a.99439.99439,0,0,0,.99-1v-3.6a.252.252,0,0,0,.07-.04l7.3-7.3c.02-.02.02-.04.04-.06h3.6a.99439.99439,0,0,0,.99-1v-4A.99443.99443,0,0,0,17.01.01541ZM16,4.02542H14v-2.01h2Z"></path>
</symbol><symbol viewBox="0 0 17.99993 18.03082" id="hi-pencil-fill">
  <path d="M17.70848,5.31113,15.5477,7.47191a.49386.49386,0,0,1-.69845,0L10.5477,3.17037a.49389.49389,0,0,1,0-.69846L12.7075.31211a.99844.99844,0,0,1,1.411-.001l3.589,3.579A1.00674,1.00674,0,0,1,17.70848,5.31113ZM8.77959,4.23.29048,12.71913a.997.997,0,0,0-.292.705v3.59a.997.997,0,0,0,.997.997H4.58581a.997.997,0,0,0,.7046-.29163l8.49811-8.4888a.49388.49388,0,0,0-.00016-.699L9.47769,4.22967A.49387.49387,0,0,0,8.77959,4.23Z"></path>
</symbol><symbol viewBox="0 0 17.99993 18.03082" id="hi-pencil-line">
  <path d="M17.707,3.8941,14.12128.30834a1,1,0,0,0-1.41425,0l-.70709.7071L.292,12.72336a.997.997,0,0,0-.292.705v3.59a.997.997,0,0,0,.997.997h3.59a.997.997,0,0,0,.705-.292L16.99994,6.01544l.70709-.7071A1,1,0,0,0,17.707,3.8941ZM2,13.84374l8.374-8.374,2.17157,2.17163-8.374,8.374H2ZM13.95978,6.22717,11.78815,4.0556l1.626-1.626,2.17163,2.17157Z"></path>
</symbol><symbol viewBox="0 0 17.99993 18.03082" id="hi-pencil-mid">
  <path d="M17.709,3.89638l-3.59-3.59a.99705.99705,0,0,0-1.41,0L.291,12.72442a.997.997,0,0,0-.292.705v3.59a.997.997,0,0,0,.997.997h3.59a.997.997,0,0,0,.705-.292l12.418-12.418A.997.997,0,0,0,17.709,3.89638Zm-13.54,12.12h-2.17v-2.17l8.37006-8.38,2.17,2.17Z"></path>
</symbol><symbol viewBox="0 0 17.99993 14.57578" id="hi-redo-line">
  <path d="M5.99449,2.93576a5.80321,5.80321,0,0,1,2-.35h4.59674l-.87866-.87866A1,1,0,1,1,13.12681.29288l2.58576,2.58581a1,1,0,0,1,0,1.41419l-.67694.67694L13.12681,6.87863a1,1,0,1,1-1.41424-1.41418l.87866-.87867H7.99449A3.9996,3.9996,0,0,0,4.00932,8.93466a4.12831,4.12831,0,0,0,4.18054,3.64112h5.80829a1,1,0,0,1,1,.99993v.00007a1.00005,1.00005,0,0,1-1,1H7.99449a5.99015,5.99015,0,0,1-2-11.64Z"></path>
</symbol><symbol viewBox="0 0 17.99993 18.03082" id="hi-spray-fill">
  <g>
    <path d="M11.99789,8.4605v8.51991a.99072.99072,0,0,1-.29.7.96547.96547,0,0,1-.71.3h-10a1.00294,1.00294,0,0,1-1-1v-8.51a.98938.98938,0,0,1,.28687-.69667L1.353,6.69653a.4939.4939,0,0,1,.35068-.14612h8.58965a.49388.49388,0,0,1,.34922.14466l1.06537,1.06537A.99.99,0,0,1,11.99789,8.4605Z"></path>
    <path d="M11.99789,4.05041a.9965.9965,0,0,1-1,1H2.49177a.49388.49388,0,0,1-.49388-.49388V1.05041a1.00294,1.00294,0,0,1,1-1h6a.99651.99651,0,0,1,1,1v2h1A.99651.99651,0,0,1,11.99789,4.05041Z"></path>
    <circle cx="14.0021" cy="4.05292" r="1"></circle>
    <circle cx="17.00204" cy="2.1029" r="1"></circle>
    <circle cx="17.00204" cy="6.05292" r="1"></circle>
  </g>
</symbol><symbol viewBox="0 0 17.99993 18.03082" id="hi-spray-line">
  <g>
    <path d="M11,5.05292a1,1,0,0,0,0-2H10v-2a1,1,0,0,0-1-1H3a1,1,0,0,0-1,1v5H2L.293,7.76a.99994.99994,0,0,0-.2929.70709v7.58575H0v.92505a1,1,0,0,0,1,1H11a1,1,0,0,0,1-1V8.4671A1,1,0,0,0,11.70709,7.76L10,6.05292v-1Zm-3-3.05V4.88055H4V2.00293ZM2,8.88116,4,6.88055H8V6.87976L10,8.881v2.17194H2Zm0,7.17169v-3h8v3Z"></path>
    <circle cx="14" cy="4.05292" r="1"></circle>
    <circle cx="16.99994" cy="2.1029" r="1"></circle>
    <circle cx="16.99994" cy="6.05292" r="1"></circle>
  </g>
</symbol><symbol viewBox="0 0 17.99993 18.03082" id="hi-spray-mid">
  <g>
    <path d="M9.99789,6.05542v-1h1a1,1,0,0,0,0-2h-1v-2a.99025.99025,0,0,0-1-1h-6a.99654.99654,0,0,0-1,1v5l-1.69995,1.7a1.01688,1.01688,0,0,0-.3.71v8.51a1.003,1.003,0,0,0,1,1h10a.99022.99022,0,0,0,1-1v-8.51a1.00666,1.00666,0,0,0-.29-.71Zm-6-4.05h4v2.87h-4Zm6,9.05h-8v-2.18l2-2h4l2,2Z"></path>
    <circle cx="14.0021" cy="4.05168" r="1"></circle>
    <circle cx="17.00204" cy="2.10167" r="1"></circle>
    <circle cx="17.00204" cy="6.05168" r="1"></circle>
  </g>
</symbol><symbol viewBox="0 0 17.99993 18.03082" id="hi-square-fill">
  <path d="M18,1.00543v16.02a1.00292,1.00292,0,0,1-1,1H1a.9965.9965,0,0,1-1-1v-16.02a.99029.99029,0,0,1,1-1H17A.99655.99655,0,0,1,18,1.00543Z"></path>
</symbol><symbol viewBox="0 0 17.99993 18.03082" id="hi-square-line">
  <path d="M0,1.0054v16.02a1,1,0,0,0,1,1H17a1,1,0,0,0,1-1V1.0054a1,1,0,0,0-1-1H1A1,1,0,0,0,0,1.0054Zm16,15.02H2v-14H16Z"></path>
</symbol><symbol viewBox="0 0 17.99993 18.03082" id="hi-square-mid">
  <path d="M17,.0054H1a.99654.99654,0,0,0-1,1v16.02a.99654.99654,0,0,0,1,1H17a1.003,1.003,0,0,0,1-1V1.0054A1.003,1.003,0,0,0,17,.0054Zm-15,16.02v-14H16Z"></path>
</symbol><symbol viewBox="0 0 17.99993 14.05084" id="hi-square-small-fill">
  <path d="M16,1.02041v12.02a.99655.99655,0,0,1-1,1H3a1.003,1.003,0,0,1-1-1v-12.02a1.003,1.003,0,0,1,1-1H15A.99655.99655,0,0,1,16,1.02041Z"></path>
</symbol><symbol viewBox="0 0 17.99993 14.02546" id="hi-square-small-line">
  <path d="M2,1.01547v12.02a1,1,0,0,0,1,1h12a1,1,0,0,0,1-1v-12.02a1,1,0,0,0-1-1H3A1,1,0,0,0,2,1.01547Zm12,11.02H4v-10h10Z"></path>
</symbol><symbol viewBox="0 0 17.99993 14" id="hi-square-small-mid">
  <path d="M15-.02H3a1.003,1.003,0,0,0-1,1V13a.99654.99654,0,0,0,1,1H15a.99029.99029,0,0,0,1-1V.98A.99655.99655,0,0,0,15-.02ZM4,2H14L4,12Z"></path>
</symbol><symbol viewBox="0 0 17.99993 18.03082" id="hi-trash-fill">
  <path d="M17,4.02542H14v-3.01a1.003,1.003,0,0,0-1-1l-7-.01H5a1.003,1.003,0,0,0-1,1v3.02H1a1,1,0,0,0,0,2H17a1,1,0,0,0,0-2Zm-5,0H6v-2h6Zm-10,13a1.00294,1.00294,0,0,0,1,1H15a1.00294,1.00294,0,0,0,1-1V8.02475a.49933.49933,0,0,0-.49933-.49933H2.49929A.49932.49932,0,0,0,2,8.02475Zm8-6.601a1,1,0,0,1,2,0v4a1,1,0,0,1-2,0Zm-4,0a1,1,0,0,1,2,0v4a1,1,0,1,1-2,0Z"></path>
</symbol><symbol viewBox="0 0 17.99993 18.03082" id="hi-trash-line">
  <g>
    <path d="M6,.00772H5a1,1,0,0,0-1,1V4.02316H1a1,1,0,0,0-1,1H0a1,1,0,0,0,1,1H2V17.0231a1,1,0,0,0,1,1H15a1,1,0,0,0,1-1V6.02316h.99994a1,1,0,0,0,1-1h0a1,1,0,0,0-1-1H14V1.02129a1,1,0,0,0-.99807-1ZM6,2.02316h6v2H6Zm8,14H4v-10H14Z"></path>
    <rect x="5.99997" y="8.02316" width="2" height="6" rx="1"></rect>
    <rect x="9.99997" y="8.02316" width="2" height="6" rx="1"></rect>
  </g>
</symbol><symbol viewBox="0 0 17.99993 14.58349" id="hi-undo-line">
  <path d="M12.00544,2.93576a5.80317,5.80317,0,0,0-2-.35H5.4087l.87866-.87866A1,1,0,0,0,4.87312.29288L2.28736,2.87869a1,1,0,0,0,0,1.41419l.67695.67694L4.87312,6.87863A1,1,0,0,0,6.28736,5.46445L5.4087,4.58578h4.59674a3.9996,3.9996,0,0,1,3.98517,4.34888,4.1283,4.1283,0,0,1-4.18054,3.64112H4.00178a1,1,0,0,0-1,.99993v.00007a1.00006,1.00006,0,0,0,1,1h6.00366a5.99015,5.99015,0,0,0,2-11.64Z"></path>
</symbol></svg>