<svg xmlns="http://www.w3.org/2000/svg" xmlns:xlink="http://www.w3.org/1999/xlink" width="0" height="0" style="display:none;"><symbol viewBox="0 0 450 450" id="hi-account-fill">
  <path d="M225,0C100.74,0,0,100.74,0,225A224.00022,224.00022,0,0,0,46.89,362.5a226.42459,226.42459,0,0,0,35.28,36.36,225.02642,225.02642,0,0,0,285.66,0,226.42677,226.42677,0,0,0,35.28-36.36A224.00022,224.00022,0,0,0,450,225C450,100.74,349.26,0,225,0Zm56.83,282.24a100,100,0,1,0-113.66,0A224.3605,224.3605,0,0,0,82.17,326.14a175,175,0,1,1,285.66,0A224.36117,224.36117,0,0,0,281.83,282.24Z"></path>
</symbol><symbol viewBox="0 0 450 450" id="hi-account-line">
  <path d="M225,0C100.74,0,0,100.74,0,225A223.99952,223.99952,0,0,0,46.89014,362.5a226.41607,226.41607,0,0,0,35.28,36.36,225.02632,225.02632,0,0,0,285.65991,0,226.42672,226.42672,0,0,0,35.28-36.36A224.00086,224.00086,0,0,0,450,225C450,100.74,349.26,0,225,0Zm0,400a174.18318,174.18318,0,0,1-108.25-37.5,174.99083,174.99083,0,0,1,216.5,0A174.18265,174.18265,0,0,1,225,400ZM175,200a50,50,0,1,1,50,50A50.05682,50.05682,0,0,1,175,200Zm106.83008,82.24a100,100,0,1,0-113.66016,0,224.36013,224.36013,0,0,0-85.99975,43.9,174.99988,174.99988,0,1,1,285.65991,0A224.36117,224.36117,0,0,0,281.83008,282.24Z"></path>
</symbol><symbol viewBox="0 0 450 450" id="hi-add-selection-fill">
  <path d="M400,175.01v200a24.99624,24.99624,0,0,1-25,25H175a24.99624,24.99624,0,0,1-25-25v-75H75a24.99624,24.99624,0,0,1-25-25v-200a25.00264,25.00264,0,0,1,25-25H275a25.00264,25.00264,0,0,1,25,25v75h75A25.00264,25.00264,0,0,1,400,175.01Z"></path>
</symbol><symbol viewBox="0 0 450 450" id="hi-add-selection-line">
  <path d="M375,150H300V75a25,25,0,0,0-25-25H75A25,25,0,0,0,50,75V275a25,25,0,0,0,25,25h75v75a25,25,0,0,0,25,25H375a25,25,0,0,0,25-25V175A25,25,0,0,0,375,150ZM200,275a25,25,0,0,0-25-25H100V100H250v75a25,25,0,0,0,25,25h75V350H200Z"></path>
</symbol><symbol viewBox="0 0 450 450" id="hi-alert-fill">
  <path d="M446.71,387.6l-200-350a25.0034,25.0034,0,0,0-43.42,0L3.29,387.6A25.00314,25.00314,0,0,0,25,425H425a25.0032,25.0032,0,0,0,21.71-37.4ZM200,144.63a12.50453,12.50453,0,0,1,12.5-12.5h25a12.50453,12.50453,0,0,1,12.5,12.5v125a12.49816,12.49816,0,0,1-12.5,12.5h-25a12.49815,12.49815,0,0,1-12.5-12.5Zm45.82,233.33a29.44393,29.44393,0,1,1,8.63-20.83A29.38723,29.38723,0,0,1,245.82,377.96Z"></path>
</symbol><symbol viewBox="0 0 450 450" id="hi-alpha-line">
  <path d="M417.68,307.32A25,25,0,0,0,375,325a25,25,0,0,1-50,0V75a25,25,0,0,0-50,0V88.21A149.99924,149.99924,0,0,0,25,200v50A149.99149,149.99149,0,0,0,281.06,356.06c.15-.15.3-.31.46-.46A75.00384,75.00384,0,0,0,425,325,24.94129,24.94129,0,0,0,417.68,307.32ZM275,250a100,100,0,0,1-200,0V200a100,100,0,0,1,200,0Z"></path>
</symbol><symbol viewBox="0 0 450 425.02002" id="hi-blending-fill">
  <path d="M450,293.21973a131.80463,131.80463,0,0,1-225,93.20019,131.815,131.815,0,1,1-127.3501-220.54,131.80034,131.80034,0,1,1,254.7002,0A131.86926,131.86926,0,0,1,450,293.21973Z"></path>
</symbol><symbol viewBox="0 0 450 450" id="hi-blending-line">
  <path d="M352.35,178.37a131.8,131.8,0,1,0-254.7,0A131.82,131.82,0,1,0,225,398.91,131.815,131.815,0,1,0,352.35,178.37ZM196.31,355.97a81.79239,81.79239,0,1,1-75.76-131.29A80.31018,80.31018,0,0,1,131.8,223.9,81.72307,81.72307,0,0,1,196.31,255.45a130.37109,130.37109,0,0,0-5.47,16.18,132.458,132.458,0,0,0,5.47,84.34ZM225,212.51a131.432,131.432,0,0,0-75.8-37.47,81.79433,81.79433,0,1,1,87.06,50.28A133.12322,133.12322,0,0,0,225,212.51Zm93.2,175a81.79953,81.79953,0,0,1-75.81-112.55,131.30215,131.30215,0,0,0,87.06-50.28A81.80395,81.80395,0,0,1,318.2,387.51Z"></path>
</symbol><symbol viewBox="0 0 450 450" id="hi-circle-fill">
  <circle cx="225" cy="225.01001" r="225"></circle>
</symbol><symbol viewBox="0 0 450 450" id="hi-circle-line">
  <path d="M225,0C100.74,0,0,100.74,0,225S100.74,450,225,450,450,349.26,450,225,349.26,0,225,0Zm0,400A175,175,0,1,1,400,225,174.9998,174.9998,0,0,1,225,400Z"></path>
</symbol><symbol viewBox="0 0 450 450" id="hi-circle-marquee-line">
  <path d="M81.1039,52.02435A226.28678,226.28678,0,0,0,52.02594,81.106a24.73264,24.73264,0,0,0,5.76789,36.58034l.37348.23973a24.87253,24.87253,0,0,0,32.534-5.12687,175.96569,175.96569,0,0,1,22.09986-22.09956A24.87233,24.87233,0,0,0,117.92945,58.168l-.24111-.37573A24.73255,24.73255,0,0,0,81.1039,52.02435Zm251.20763,5.76788-.24113.37575a24.87236,24.87236,0,0,0,5.12829,32.53172,175.96627,175.96627,0,0,1,22.09987,22.09954,24.87254,24.87254,0,0,0,32.534,5.12683l.37344-.2397a24.73264,24.73264,0,0,0,5.76787-36.5803A226.287,226.287,0,0,0,368.896,52.02437,24.73257,24.73257,0,0,0,332.31153,57.79223Zm79.66871,99.8957-.43227.15557a24.79045,24.79045,0,0,0-15.77178,28.77244,176.52033,176.52033,0,0,1,0,76.76812A24.79045,24.79045,0,0,0,411.548,292.1565l.43227.15557a24.8052,24.8052,0,0,0,32.5947-17.97341,227.06981,227.06981,0,0,0,0-98.67732A24.8052,24.8052,0,0,0,411.98024,157.68793ZM292.15491,411.54917a24.79018,24.79018,0,0,0-28.767-15.77127,176.62547,176.62547,0,0,1-76.7759,0,24.79017,24.79017,0,0,0-28.767,15.77127l-.15479.43a24.80513,24.80513,0,0,0,17.9729,32.59633,227.07611,227.07611,0,0,0,98.67372,0,24.80513,24.80513,0,0,0,17.97289-32.59633ZM58.16731,332.0739l-.37348.23973A24.73264,24.73264,0,0,0,52.02594,368.894a226.28678,226.28678,0,0,0,29.078,29.08168,24.73255,24.73255,0,0,0,36.58444-5.76787l.24111-.37573a24.87233,24.87233,0,0,0-5.12829-32.53172A175.96569,175.96569,0,0,1,90.7013,337.20077,24.87253,24.87253,0,0,0,58.16731,332.0739Zm301.13125,5.12686a175.96627,175.96627,0,0,1-22.09987,22.09954A24.87236,24.87236,0,0,0,332.0704,391.832l.24113.37575a24.73257,24.73257,0,0,0,36.58446,5.76786,226.287,226.287,0,0,0,29.07788-29.0817,24.73264,24.73264,0,0,0-5.76787-36.5803l-.37344-.2397A24.87254,24.87254,0,0,0,359.29856,337.20076ZM225,0a225.82158,225.82158,0,0,0-49.33692,5.4245,24.80513,24.80513,0,0,0-17.9729,32.59633l.15479.43A24.79017,24.79017,0,0,0,186.612,54.2221a176.62547,176.62547,0,0,1,76.7759,0,24.79018,24.79018,0,0,0,28.767-15.77127l.15478-.43A24.80513,24.80513,0,0,0,274.3368,5.42451,225.8209,225.8209,0,0,0,225,0ZM38.4519,157.8435l-.43228-.15557A24.80518,24.80518,0,0,0,5.42491,175.6614a227.07539,227.07539,0,0,0,0,98.6772,24.80518,24.80518,0,0,0,32.59471,17.97347l.43228-.15557a24.79043,24.79043,0,0,0,15.77179-28.77236,176.52595,176.52595,0,0,1,0-76.76828A24.79043,24.79043,0,0,0,38.4519,157.8435Z"></path>
</symbol><symbol viewBox="0 0 450 450" id="hi-circle-small-fill">
  <circle cx="225" cy="225.01001" r="175"></circle>
</symbol><symbol viewBox="0 0 450 450" id="hi-circle-small-line">
  <path d="M225,50A175,175,0,1,0,400,225,174.9998,174.9998,0,0,0,225,50Zm0,300A125,125,0,1,1,350,225,124.99438,124.99438,0,0,1,225,350Z"></path>
</symbol><symbol viewBox="0 0 450 450" id="hi-clock-fill">
  <path d="M225,0C100.74,0,0,100.74023,0,225S100.74,450,225,450,450,349.25977,450,225,349.26,0,225,0Zm25,225a24.99624,24.99624,0,0,1-25,25H125a25,25,0,0,1,0-50h75V125a25,25,0,0,1,50,0Z"></path>
</symbol><symbol viewBox="0 0 450 450" id="hi-clock-line">
  <g>
    <path d="M225,0C100.73584,0,0,100.736,0,225S100.73584,450,225,450,450,349.264,450,225,349.26416,0,225,0ZM348.74365,348.74365a174.99995,174.99995,0,1,1-247.4873-247.4873,174.99995,174.99995,0,1,1,247.4873,247.4873Z"></path>
    <path d="M225,100a25,25,0,0,0-25,25v75H125a25,25,0,0,0,0,50H225a25,25,0,0,0,25-25V125A25,25,0,0,0,225,100Z"></path>
  </g>
</symbol><symbol viewBox="0 0 450 450" id="hi-cloud-fill">
  <path d="M450.00139,300a75.00176,75.00176,0,0,1-75,75h-273.74c-55.14,0-100.85-44.1-101.26-99.24a100.00359,100.00359,0,0,1,100-100.76q4.26,0,8.42.36A150.14894,150.14894,0,0,1,250.0714,75c82.55.04,150.04,67.65991,149.93,150.21q0,2.04017-.06,4.05A75.01434,75.01434,0,0,1,450.00139,300Z"></path>
</symbol><symbol viewBox="0 0 450 450" id="hi-cloud-line">
  <path d="M399.94,229.25c.04-1.40991.06-2.83008.06-4.25a150.02658,150.02658,0,0,0-291.59-49.65c-2.77-.23-5.57995-.35-8.41-.35a100,100,0,0,0,0,200H375a75.01062,75.01062,0,0,0,24.94-145.75ZM374.41363,325H100.82c-27.41,0-50.35-21.72-50.81-49.13a50.00608,50.00608,0,0,1,97.01746-17.88848,25.30088,25.30088,0,0,0,20.51513,16.82583A24.96568,24.96568,0,0,0,194.31,241.66992,100.25331,100.25331,0,0,0,155.62,191.89,100.01051,100.01051,0,0,1,249.89,125c54.45-.06006,99.33,44.12,100.1,98.56006.03,1.91992,0,3.84-.09,5.74a99.96147,99.96147,0,0,1-1.5476,13.86487A27.03791,27.03791,0,0,0,375,275h0a25.01284,25.01284,0,0,1,24.99635,24.56845C400.23283,313.554,388.40113,325,374.41363,325Z"></path>
</symbol><symbol viewBox="0 0 450 450" id="hi-copy-fill">
  <path d="M125,25v75H50a25,25,0,0,0-25,25V425a25,25,0,0,0,25,25H300a25,25,0,0,0,25-25V350h75a25,25,0,0,0,25-25V25A25,25,0,0,0,400,0H150A25,25,0,0,0,125,25ZM375,300H325V125a25,25,0,0,0-25-25H175V50H375Z"></path>
</symbol><symbol viewBox="0 0 450 450" id="hi-copy-line">
  <path d="M125,25v75H50a25,25,0,0,0-25,25V425a25,25,0,0,0,25,25H300a25,25,0,0,0,25-25V350h75a25,25,0,0,0,25-25V25A25,25,0,0,0,400,0H150A25,25,0,0,0,125,25ZM275,400H75V150H275ZM375,300H325V125a25,25,0,0,0-25-25H175V50H375Z"></path>
</symbol><symbol viewBox="0 0 450 450" id="hi-cursor-1-fill">
  <path d="M447.8999,35.02l-175,400A25.00437,25.00437,0,0,1,250.39014,450H250a24.99529,24.99529,0,0,1-22.58008-14.27L158.75977,291.24,14.27,222.58008a24.9944,24.9944,0,0,1,.71-45.48l400-175A24.992,24.992,0,0,1,447.8999,35.02Z"></path>
</symbol><symbol viewBox="0 0 450 450" id="hi-cursor-1-line">
  <path d="M249.99738,450.00056a24.999,24.999,0,0,1-22.57813-14.27L158.75812,291.24177,14.26935,222.58064a24.99971,24.99971,0,0,1,.70947-45.48389l400-175a24.99979,24.99979,0,0,1,32.92432,32.92432l-175,400a24.99995,24.99995,0,0,1-22.51367,14.97656C250.2591,449.99959,250.12726,450.00056,249.99738,450.00056ZM85.22394,200.94l103.02735,48.95849a24.99728,24.99728,0,0,1,11.85009,11.8501L249.05988,364.776,376.48761,73.51228Z"></path>
</symbol><symbol viewBox="0 0 450 450" id="hi-cursor-2-fill">
  <path d="M447.8999,35.02l-175,400A25.00437,25.00437,0,0,1,250.39014,450H250a24.99529,24.99529,0,0,1-22.58008-14.27L192.93018,363.1499,128.04,428.04a25.01107,25.01107,0,0,1-35.35986,0L21.96,357.32007a25.01182,25.01182,0,0,1,0-35.36011L86.8501,257.07007,14.27,222.58008a24.9944,24.9944,0,0,1,.71-45.48l400-175A24.992,24.992,0,0,1,447.8999,35.02Z"></path>
</symbol><symbol viewBox="0 0 450 450" id="hi-cursor-2-line">
  <path d="M249.99738,450a25.00086,25.00086,0,0,1-22.57813-14.269L192.9256,363.14844,128.03693,428.0376a25.00091,25.00091,0,0,1-35.35547,0L21.96173,357.31787a25,25,0,0,1,0-35.35547l64.88916-64.88867L14.26838,222.58008a25.00006,25.00006,0,0,1,.71044-45.48389l400-175a24.99979,24.99979,0,0,1,32.92432,32.92432l-175,400a24.99943,24.99943,0,0,1-22.51367,14.97656Q250.19318,450,249.99738,450ZM74.99494,339.64014l35.36426,35.36425,72.2622-72.2622a25.00069,25.00069,0,0,1,40.25782,6.94677l26.17968,55.08838L376.48761,73.51172,85.222,200.94043l55.08838,26.17969a25.00068,25.00068,0,0,1,6.94677,40.25781Z"></path>
</symbol><symbol viewBox="0 0 450 450" id="hi-curve-line">
  <path d="M425,0H375a25,25,0,0,0-25,25V75a25,25,0,0,0,25,25A99.99807,99.99807,0,0,1,275,200a25,25,0,0,0-25-25H200a25,25,0,0,0-25,25A150.00352,150.00352,0,0,0,25,350,25,25,0,0,0,0,375v50a25,25,0,0,0,25,25H75a25,25,0,0,0,25-25V375a25,25,0,0,0-25-25h0A99.99807,99.99807,0,0,1,175,250a25,25,0,0,0,25,25h50a25,25,0,0,0,25-25A150.00336,150.00336,0,0,0,425,100h0a25,25,0,0,0,25-25V25A25,25,0,0,0,425,0Z"></path>
</symbol><symbol viewBox="0 0 450 450" id="hi-divide-line">
  <g>
    <path d="M350,200H100a25,25,0,0,0,0,50H350a25,25,0,1,0,0-50Z"></path>
    <circle cx="224.99997" cy="125" r="25"></circle>
    <circle cx="224.99997" cy="325" r="25"></circle>
  </g>
</symbol><symbol viewBox="0 0 450 450" id="hi-down-arrow-large-line">
  <path d="M366.42136,145.45051l0,0a25,25,0,0,0-35.35531,0L225,251.5165l-106.066-106.066a25,25,0,0,0-35.3553,0l0,0a25,25,0,0,0,0,35.35531L207.32233,304.54953a25,25,0,0,0,35.3553,0L366.42136,180.80581A25,25,0,0,0,366.42136,145.45051Z"></path>
</symbol><symbol viewBox="0 0 450 450" id="hi-down-arrow-small-line">
  <path d="M331.066,163.12818l0,0a25,25,0,0,0-35.3553,0L225,233.83883l-70.71068-70.71068a25,25,0,0,0-35.3553,0l0,0a25,25,0,0,0,0,35.35531l88.38837,88.38836a25,25,0,0,0,35.3553,0L331.066,198.48349A25,25,0,0,0,331.066,163.12818Z"></path>
</symbol><symbol viewBox="0 0 450 450" id="hi-duplicate-fill">
  <g>
    <path d="M402.38211,305.33984,300.00222,178.25977l-.18994-.23975a23.234,23.234,0,0,0,.18994-3.02V50a25,25,0,0,0,0-50h-150a25,25,0,0,0,0,50V175a23.234,23.234,0,0,0,.19,3.02l-.19.23975L47.62234,305.33984A88.89292,88.89292,0,0,0,116.85232,450H333.15213a88.20951,88.20951,0,0,0,80.19043-50.52,88.26054,88.26054,0,0,0-10.96045-94.14014ZM200.00222,50h50V175h-50ZM171.06228,385.57959a50,50,0,1,1,50-50A50.05666,50.05666,0,0,1,171.06228,385.57959Zm75-94.93945a25,25,0,0,1-.00976-50h.00976a25,25,0,1,1,0,50Zm53.93994,91.92968a25,25,0,0,1-.00976-50h.00976a25,25,0,0,1,0,50Z"></path>
    <path d="M150.19217,178.02l-.19.23975V175A23.234,23.234,0,0,0,150.19217,178.02Z"></path>
    <path d="M300.00222,175v3.25977l-.18994-.23975A23.234,23.234,0,0,0,300.00222,175Z"></path>
  </g>
</symbol><symbol viewBox="0 0 450 450" id="hi-duplicate-line">
  <g>
    <path d="M402.38236,305.34l-102.38-127.08-.19-.24a23.212,23.212,0,0,0,.19-3.02V50a25,25,0,0,0,0-50h-150a25,25,0,0,0,0,50V175a23.212,23.212,0,0,0,.19,3.02l-.19.24-102.38,127.08a88.89281,88.89281,0,0,0,69.23,144.66h216.3a88.20905,88.20905,0,0,0,80.19-50.52,88.26042,88.26042,0,0,0-10.96-94.13995ZM200.00236,50h50V175h-50Zm168.23,327.9a38.08578,38.08578,0,0,1-35.08,22.1h-216.3a38.89389,38.89389,0,0,1-30.29-63.29l89.99-111.71h96.9l89.99,111.71A38.08257,38.08257,0,0,1,368.23234,377.9Z"></path>
    <path d="M246.06852,290.63354a25,25,0,0,1-.00976-50h.00976a25,25,0,0,1,0,50Z"></path>
    <path d="M300.00716,382.56537a25,25,0,0,1-.00976-50h.00976a25,25,0,0,1,0,50Z"></path>
    <path d="M171.06364,385.57568a50,50,0,1,1,50-50A50.05666,50.05666,0,0,1,171.06364,385.57568Zm0-50c0,.02149.001.03125.001.03125Z"></path>
    <path d="M150.00236,175a23.212,23.212,0,0,0,.19,3.02l-.19.24Z"></path>
    <path d="M300.00236,175v3.26l-.19-.24A23.212,23.212,0,0,0,300.00236,175Z"></path>
  </g>
</symbol><symbol viewBox="0 0 450 450" id="hi-enter-line">
  <path d="M236.61182,313.38818a24.99942,24.99942,0,0,1,0-35.355L264.64453,250H25a25,25,0,0,1,0-50H264.64453l-28.03271-28.0332a24.99942,24.99942,0,0,1,0-35.355h0a24.99971,24.99971,0,0,1,35.35522,0l70.71069,70.71045a25,25,0,0,1,0,35.35546L271.967,313.38818a24.99971,24.99971,0,0,1-35.35522,0ZM150,75v50a25,25,0,0,0,50,0V100H400V350H200V325a25,25,0,0,0-50,0v50a25,25,0,0,0,25,25H425a25,25,0,0,0,25-25V75a25,25,0,0,0-25-25H175A25,25,0,0,0,150,75Z"></path>
</symbol><symbol viewBox="0 0 450 450" id="hi-eraser-fill">
  <path d="M442.67993,182.32007l-174.99-174.98c0-.01,0-.01-.01-.01v-.01a25.01107,25.01107,0,0,0-35.35986,0l-225,225a25.0472,25.0472,0,0,0,0,35.38989l174.99,174.98a25.023,25.023,0,0,0,35.36987,0l225-225a25.023,25.023,0,0,0,0-35.36987ZM199.99,389.66992,60.34009,250.01,137.49,172.85986,277.14014,312.51Z"></path>
</symbol><symbol viewBox="0 0 450 450" id="hi-eraser-line">
  <path d="M442.67773,182.30762,267.69238,7.32227l-.00757-.00708-.00708-.00757a25,25,0,0,0-35.35546,0l-225,225a25.03657,25.03657,0,0,0,0,35.38476L182.30762,442.67773a25.01856,25.01856,0,0,0,35.37011,0l225-225a25.01856,25.01856,0,0,0,0-35.37011ZM312.5,277.14453,172.8479,137.49268,250,60.34058l139.6521,139.6521ZM199.99268,389.6521,60.34058,250l77.1521-77.1521L277.14478,312.5Z"></path>
</symbol><symbol viewBox="0 0 450 450" id="hi-exit-line">
  <g>
    <path d="M336.61178,136.61187a24.99943,24.99943,0,0,0,0,35.355l28.03271,28.03321L125,200a25,25,0,1,0,0,50l239.64453,0-28.03272,28.03319a24.99943,24.99943,0,0,0,0,35.355h0a24.99943,24.99943,0,0,0,35.355,0l70.711-70.71044a25,25,0,0,0,0-35.35547l-70.71093-70.71046a24.99943,24.99943,0,0,0-35.355,0Z"></path>
    <path d="M299.99993,375V325a25,25,0,1,0-50,0v25l-200,0,0-250,200,0v25a25,25,0,0,0,50,0V100l0-25a25,25,0,0,0-25-25L25,50A25,25,0,0,0,0,75l0,25,0,250v25a25,25,0,0,0,25,25l250,0A25,25,0,0,0,299.99993,375Z"></path>
  </g>
</symbol><symbol viewBox="0 0 450 450" id="hi-experimental-fill">
  <path d="M400,0H150a24.99624,24.99624,0,0,0-25,25v75H50a24.99624,24.99624,0,0,0-25,25V425a24.99624,24.99624,0,0,0,25,25H300a24.99624,24.99624,0,0,0,25-25V350h75a24.99624,24.99624,0,0,0,25-25V25A24.99624,24.99624,0,0,0,400,0ZM225,300H200v25a25,25,0,0,1-50,0V300H125a25,25,0,0,1,0-50h25V225a25,25,0,0,1,50,0v25h25a25,25,0,0,1,0,50Zm150,0H325V125a24.99624,24.99624,0,0,0-25-25H175V50H375Z"></path>
</symbol><symbol viewBox="0 0 450 450" id="hi-experimental-line">
  <g>
    <path d="M400,0H150a25,25,0,0,0-25,25v75H50a25,25,0,0,0-25,25V425a25,25,0,0,0,25,25H300a25,25,0,0,0,25-25V350h75a25,25,0,0,0,25-25V25A25,25,0,0,0,400,0ZM275,400H75V150H275ZM375,300H325V125a25,25,0,0,0-25-25H175V50H375Z"></path>
    <path d="M125,300h25v25a25,25,0,0,0,50,0V300h25a25,25,0,0,0,0-50H200V225a25,25,0,0,0-50,0v25H125a25,25,0,0,0,0,50Z"></path>
  </g>
</symbol><symbol viewBox="0 0 450 450" id="hi-export-line">
  <path d="M375,250a25,25,0,0,0-25,25v75H100V275a25,25,0,0,0-50,0V375a25,25,0,0,0,25,25H375a25,25,0,0,0,25-25V275A25,25,0,0,0,375,250Z"></path>
  <path d="M242.67773,57.32239a25,25,0,0,0-35.35546,0l-70.71045,70.71069a24.99983,24.99983,0,0,0,35.355,35.35523L200,135.35559V275.00012a25,25,0,0,0,50,0V135.35559l28.0332,28.03272a24.99983,24.99983,0,0,0,35.355-35.35523Z"></path>
</symbol><symbol viewBox="0 0 450 450" id="hi-eye-crossed-line">
  <g>
    <path d="M252.82129,341.21118a12.56041,12.56041,0,0,0-10.21973-3.57861A167.843,167.843,0,0,1,225,338.55005,163.99963,163.99963,0,0,1,93.81982,273.77L56.48,225l28.0918-36.68506a12.50025,12.50025,0,0,0-1.08545-16.43872L65.65869,154.04858a12.49993,12.49993,0,0,0-18.76318,1.239L5.1499,209.80005a24.99736,24.99736,0,0,0,0,30.3999l48.97022,63.96c43.06982,56.26,106.98,84.39014,170.87988,84.39014a217.4417,217.4417,0,0,0,43.28027-4.346,12.51243,12.51243,0,0,0,6.42627-21.10742Z"></path>
    <path d="M444.8501,209.80005l-48.97022-63.96C352.81006,89.58008,288.8999,61.45,225,61.45a217.44541,217.44541,0,0,0-43.28027,4.346,12.5124,12.5124,0,0,0-6.42627,21.10742l21.88525,21.8855a12.56041,12.56041,0,0,0,10.21973,3.57861A167.843,167.843,0,0,1,225,111.45a163.99963,163.99963,0,0,1,131.18018,64.78L393.52,225l-28.0918,36.68506a12.50025,12.50025,0,0,0,1.08545,16.43872l17.82764,17.82764a12.49993,12.49993,0,0,0,18.76318-1.239L444.8501,240.2A24.99736,24.99736,0,0,0,444.8501,209.80005Z"></path>
    <path d="M83.57861,48.22314a25.00048,25.00048,0,0,0-35.35547,0v.00025a24.99972,24.99972,0,0,0,0,35.35522L366.42139,401.77686a25.00048,25.00048,0,0,0,35.35547,0v-.00025a24.99972,24.99972,0,0,0,0-35.35522Z"></path>
  </g>
</symbol><symbol viewBox="0 0 450 450" id="hi-eye-line">
  <g>
    <path d="M444.8501,209.80005l-48.97022-63.96C352.81006,89.58008,288.8999,61.45,225,61.45S97.18994,89.58008,54.12012,145.84009l-48.97022,63.96a24.99736,24.99736,0,0,0,0,30.3999l48.97022,63.96c43.06982,56.26,106.98,84.39014,170.87988,84.39014s127.81006-28.13013,170.87988-84.39014L444.8501,240.2A24.99736,24.99736,0,0,0,444.8501,209.80005Zm-88.67041,63.9646a165.20167,165.20167,0,0,1-262.35791.00195L56.48438,225l37.33593-48.76416a165.2014,165.2014,0,0,1,262.3584-.00195L393.51562,225Z"></path>
    <path d="M225,150a75,75,0,1,0,75,75A75.00184,75.00184,0,0,0,225,150Zm0,100a25,25,0,1,1,25-25A24.99624,24.99624,0,0,1,225,250Z"></path>
  </g>
</symbol><symbol viewBox="0 0 450 450" id="hi-eyedropper-fill">
  <g>
    <path d="M300.62354,239.02661l-89.63526-89.63525-.00476-.00464a25.10679,25.10679,0,0,0-3.92175-3.20361,24.82526,24.82526,0,0,0-5.48548-2.71729q-1.14533-.40028-2.31848-.68628-1.17187-.28638-2.363-.45776a25.13167,25.13167,0,0,0-7.17774,0c-.72192.10425-1.43945.24414-2.15185.41137-.46143.1084-.92115.22608-1.3772.36084q-.57972.17176-1.15259.37183-1.14514.40063-2.25635.91528a24.95352,24.95352,0,0,0-7.15088,5.00562h0L7.32233,317.69263A24.99986,24.99986,0,0,0,0,335.37036v89.64453a25,25,0,0,0,25,25h89.64465a24.99943,24.99943,0,0,0,17.67762-7.32226l168.3059-168.30591h0a24.99972,24.99972,0,0,0,0-35.35523ZM104.28,400.01489H50v-54.28L193.31055,202.42432l54.28,54.28Z"></path>
    <path d="M442.67993,132.34009l-62.5,62.5L400,214.65991A24.99979,24.99979,0,1,1,364.64,250.01L200,85.37012A25.00333,25.00333,0,0,1,235.36,50.01l19.81994,19.83008,62.5-62.5a25.55923,25.55923,0,0,1,1.90015-1.72c.31994-.27.65991-.52.99-.77A24.79082,24.79082,0,0,1,322.65,3.48c.71-.41992,1.44007-.8,2.18006-1.1499a24.03682,24.03682,0,0,1,2.25-.91016,25.11465,25.11465,0,0,1,16.54992,0c.38.13013.76.27,1.13.43018A23.37781,23.37781,0,0,1,348.46,3.73c.57007.3501,1.13013.72,1.68,1.12012.33.25.67005.5.99.77a25.58155,25.58155,0,0,1,1.9,1.72L442.67993,96.98a25.01122,25.01122,0,0,1,0,35.36011Z"></path>
  </g>
</symbol><symbol viewBox="0 0 450 450" id="hi-eyedropper-line">
  <g>
    <path d="M300.62354,239.01172l-89.63526-89.63526-.00476-.00463a25.10742,25.10742,0,0,0-3.92175-3.20362,24.82566,24.82566,0,0,0-5.48548-2.71728q-1.14533-.40027-2.31848-.68628-1.17187-.28638-2.363-.45777a25.13264,25.13264,0,0,0-7.17774,0c-.72192.10425-1.43945.24415-2.15185.41138-.46143.1084-.92115.22608-1.3772.36084q-.57972.17175-1.15259.37183-1.14514.40063-2.25635.91528a24.95333,24.95333,0,0,0-7.15088,5.00562h0L7.32233,317.67773A24.99988,24.99988,0,0,0,0,335.35547V425a25,25,0,0,0,25,25h89.64465a24.9994,24.9994,0,0,0,17.67762-7.32227l168.3059-168.3059h0a24.99972,24.99972,0,0,0,0-35.35523ZM104.28,400H50V345.72L193.31055,202.40942l54.28,54.28Z"></path>
    <path d="M442.67773,96.967h0L353.03308,7.32227A25.31411,25.31411,0,0,0,351.1344,5.6062q-.49091-.40064-.99719-.77222c-.54492-.40063-1.10523-.76928-1.67371-1.12011a24.83711,24.83711,0,0,0-3.70056-1.8833q-.56433-.22888-1.13709-.429a25.10031,25.10031,0,0,0-16.54089,0q-1.14515.40027-2.25635.91528-1.10961.5149-2.17639,1.14405a24.85584,24.85584,0,0,0-2.07861,1.373q-.50592.37171-.99719.77222a25.33783,25.33783,0,0,0-1.89869,1.71607l-62.5,62.5L235.35535,50A24.99988,24.99988,0,0,0,200,50h0a24.99994,24.99994,0,0,0,0,35.35522L364.64478,250a25,25,0,0,0,35.35534-35.35522l-19.82239-19.82251,62.5-62.5h0A24.99972,24.99972,0,0,0,442.67773,96.967Zm-152.14465,8.21069,44.82239-44.82226,54.28931,54.28906L344.82251,159.467Z"></path>
  </g>
</symbol><symbol viewBox="0 0 450 450" id="hi-file-fill">
  <path d="M390.5,119.79,280.21,9.5A32.43386,32.43386,0,0,0,257.28,0H75A24.99627,24.99627,0,0,0,50,25V425a24.99631,24.99631,0,0,0,25,25H375a24.99631,24.99631,0,0,0,25-25V142.72A32.43387,32.43387,0,0,0,390.5,119.79ZM350,400H100V50H200V175a24.99627,24.99627,0,0,0,25,25H350Z"></path>
</symbol><symbol viewBox="0 0 450 450" id="hi-file-line">
  <path d="M280.21014,9.49945A32.43311,32.43311,0,0,0,257.27645,0H75A25,25,0,0,0,50,25V425a25,25,0,0,0,25,25H375a25,25,0,0,0,25-25V142.72355a32.43311,32.43311,0,0,0-9.49945-22.93369ZM350,150H250V50Zm0,250H100V50H200V175a25,25,0,0,0,25,25H350Z"></path>
</symbol><symbol viewBox="0 0 450 450" id="hi-folder-add-fill">
  <path d="M431.59,100H221L204.74,61.28027A18.41756,18.41756,0,0,0,187.76,50H18.41A18.40706,18.40706,0,0,0,0,68.41016V381.58984A18.40706,18.40706,0,0,0,18.41,400H431.59A18.407,18.407,0,0,0,450,381.58984V118.41016A18.407,18.407,0,0,0,431.59,100ZM275,275H250v25a25,25,0,0,1-50,0V275H175a25,25,0,0,1,0-50h25V200a25,25,0,0,1,50,0v25h25a25,25,0,0,1,0,50Z"></path>
</symbol><symbol viewBox="0 0 450 450" id="hi-folder-add-line">
  <g>
    <path d="M431.58765,100H220.99554L204.73816,61.28369A18.412,18.412,0,0,0,187.76178,50H18.41235A18.41239,18.41239,0,0,0,0,68.41211V381.58789A18.41239,18.41239,0,0,0,18.41235,400h413.1753A18.41235,18.41235,0,0,0,450,381.58789V118.41211A18.41235,18.41235,0,0,0,431.58765,100ZM400,350H50V100H166.76624l16.25738,38.71631A18.412,18.412,0,0,0,200,150H400Z"></path>
    <path d="M200,200v25H175a25,25,0,0,0,0,50h25v25a25,25,0,0,0,50,0V275h25a25,25,0,0,0,0-50H250V200a25,25,0,0,0-50,0Z"></path>
  </g>
</symbol><symbol viewBox="0 0 450 450" id="hi-folder-fill">
  <path d="M450,118.41016V381.58984A18.407,18.407,0,0,1,431.59009,400H18.41A18.40706,18.40706,0,0,1,0,381.58984V68.41016A18.40706,18.40706,0,0,1,18.41,50H187.76a18.41762,18.41762,0,0,1,16.98,11.28027L221,100H431.59009A18.407,18.407,0,0,1,450,118.41016Z"></path>
</symbol><symbol viewBox="0 0 450 450" id="hi-folder-line">
  <path d="M400,100H220.99554L204.73818,61.28377A18.41234,18.41234,0,0,0,187.76179,50H18.41234A18.41233,18.41233,0,0,0,0,68.41234V381.58766A18.41233,18.41233,0,0,0,18.41234,400H431.58766A18.41233,18.41233,0,0,0,450,381.58766V118.41234A18.41233,18.41233,0,0,0,431.58766,100Zm0,250H50V100H166.76624l16.25736,38.71623A18.41234,18.41234,0,0,0,200,150H400Z"></path>
</symbol><symbol viewBox="0 0 450 450" id="hi-freehand-select-line">
  <path d="M353.04,7.3288h-.01l75.95,75.95Zm96.93,106.1499a25.05292,25.05292,0,0,0-1.18-6.51c-.12-.37-.25-.74-.39-1.1-.16-.44006-.34-.88-.52-1.30993a27.78622,27.78622,0,0,0-1.49-2.86011,25.49315,25.49315,0,0,0-3.71-4.73h-.01L428.98,83.27875,353.03,7.3288a24.9811,24.9811,0,0,0-35.35,0L157.32,167.67865a25.00016,25.00016,0,0,0-7.32,17.68v89.64a24.99631,24.99631,0,0,0,25,25h89.64a24.98257,24.98257,0,0,0,17.68-7.32l80.18-80.17v-.01l80.18-80.16992A24.90273,24.90273,0,0,0,450,114.65863C450,114.26874,449.99,113.86871,449.97,113.4787ZM254.28,249.99872H200v-54.28l135.36-135.35,54.28,54.28ZM233.84954,387.35235a124.11586,124.11586,0,0,1-32.49907,13.45112,24.8558,24.8558,0,0,0-18.53953,24.15044v.00007a24.97608,24.97608,0,0,0,31.08112,24.25812,173.78663,173.78663,0,0,0,45.198-18.68943,25.03888,25.03888,0,0,0,5.0894-39.28641l-.00477-.00476A24.94518,24.94518,0,0,0,233.84954,387.35235Zm54.31771-65.912A124.29944,124.29944,0,0,1,277.98,343.22116a24.94982,24.94982,0,0,0,3.87547,30.3311l.00474.00475a24.95131,24.95131,0,0,0,39.07243-4.73617,173.99036,173.99036,0,0,0,14.407-30.78964,25.011,25.011,0,0,0-23.5788-33.34344h-.00081A25.055,25.055,0,0,0,288.16725,321.44034Zm-211.72,69.79118-.00475.00475a25.03887,25.03887,0,0,0,5.08941,39.28639,173.78624,173.78624,0,0,0,45.19792,18.68944A24.97609,24.97609,0,0,0,157.81094,424.954v-.00006a24.8558,24.8558,0,0,0-18.53952-24.15044,124.11591,124.11591,0,0,1-32.49906-13.45111A24.94518,24.94518,0,0,0,76.44724,391.23152ZM25.0448,292.18776h-.00006A24.97609,24.97609,0,0,0,.78662,323.2689a173.78689,173.78689,0,0,0,18.68945,45.19794,25.03887,25.03887,0,0,0,39.28639,5.08942l.00477-.00477a24.94519,24.94519,0,0,0,3.87914-30.32515,124.11533,124.11533,0,0,1-13.45113-32.49906A24.8558,24.8558,0,0,0,25.0448,292.18776ZM19.47605,190.90867a173.78738,173.78738,0,0,0-18.68943,45.198,24.97609,24.97609,0,0,0,24.25813,31.08112h0a24.8558,24.8558,0,0,0,24.15044-18.53952,124.11547,124.11547,0,0,1,13.45113-32.49908A24.94518,24.94518,0,0,0,58.76724,185.824l-.00477-.00477A25.03887,25.03887,0,0,0,19.47605,190.90867Zm56.96567-22.77018.00473.00473a24.94984,24.94984,0,0,0,30.33111,3.87548,124.29964,124.29964,0,0,1,21.78081-10.18724,25.055,25.055,0,0,0,16.75257-23.59282v-.00079a25.011,25.011,0,0,0-33.34342-23.5788,173.98839,173.98839,0,0,0-30.78962,14.407A24.95131,24.95131,0,0,0,76.44172,168.13849Z"></path>
</symbol><symbol viewBox="0 0 450 450" id="hi-github-logo-fill">
  <path d="M224.98545,5.55606C100.74724,5.55606,0,106.29087,0,230.56914,0,329.96828,64.46309,414.3007,153.87991,444.05705c11.25039,2.06359,15.35678-4.88273,15.35678-10.84561,0-5.3413-.19476-19.49086-.30388-38.26762-62.58735,13.59706-75.79344-30.161-75.79344-30.161C82.90835,338.79034,68.158,331.87026,68.158,331.87026c-20.42874-13.96032,1.54562-13.67717,1.54562-13.67717,22.57943,1.59121,34.46365,23.1871,34.46365,23.1871,20.071,34.38354,52.66029,24.4551,65.48108,18.69527,2.04425-14.54046,7.85657-24.45509,14.28492-30.07956C133.97053,324.31757,81.4456,305.01455,81.4456,218.794c0-24.56283,8.76682-44.64764,23.15948-60.376-2.3136-5.69215-10.03481-28.56847,2.20586-59.54584,0,0,18.8914-6.04989,61.87325,23.06556a213.26564,213.26564,0,0,1,112.65778,0c42.9556-29.11545,61.81247-23.06556,61.81247-23.06556,12.2752,30.97737,4.55261,53.85369,2.239,59.54584,14.42029,15.72833,23.12771,35.81314,23.12771,60.376,0,86.43607-52.60642,105.45593-102.73072,111.02652,8.079,6.94633,15.27528,20.67875,15.27528,41.66689,0,30.07956-.27625,54.3468-.27625,61.72407,0,6.01674,4.0526,13.01694,15.47142,10.81936C385.59069,414.21921,450,329.942,450,230.56914,450,106.29087,349.25138,5.55606,224.98545,5.55606Z" style="fill: #000026;fill-rule: evenodd"></path>
</symbol><symbol viewBox="0 0 450 450" id="hi-google-logo-fill">
  <path d="M445.21883,230.06508c0,68.43419-24.37091,126.18046-66.75079,165.36961C341.344,429.74966,290.52736,450,229.78612,450c-87.94073,0-163.88193-50.62094-200.82-124.12512a222.4659,222.4659,0,0,1,0-201.74973C65.90419,50.62093,141.84539,0,229.78612,0c49.57016,0,92.53058,14.86212,127.7482,40.09649a25.02483,25.02483,0,0,1,3.16647,38.043l-28.832,28.83641a25.11888,25.11888,0,0,1-31.89654,2.88424c-20.36942-13.77473-44.187-20.7939-70.18613-20.7939-58.69568,0-108.377,39.56111-126.19025,93.00087a135.53441,135.53441,0,0,0-7.12532,42.928,130.515,130.515,0,0,0,7.12532,42.93777c17.81321,53.43979,67.49457,93.00086,126.19025,93.00086,30.37058,0,56.053-8.25086,76.30331-21.74781,23.627-15.93408,39.57093-39.37515,45.003-67.12277H254.78611a25,25,0,0,1-25-25v-34.564a25,25,0,0,1,25-25H419.531a24.9878,24.9878,0,0,1,24.92774,23.025C444.95424,216.90808,445.21883,223.40958,445.21883,230.06508Z"></path>
</symbol><symbol viewBox="0 0 450 450" id="hi-half-star-line">
  <path d="M421.85742,178.415a24.99975,24.99975,0,0,0-20.18164-17.01465L295.08594,145.9126,247.418,49.32617a24.99917,24.99917,0,0,0-44.83594,0l-47.668,96.58643L48.32422,161.40039a24.99976,24.99976,0,0,0-13.85547,42.64209l77.12793,75.18262-18.208,106.15869a25.00061,25.00061,0,0,0,36.27442,26.35449L225,361.6167l95.33691,50.12158a25.00061,25.00061,0,0,0,36.27442-26.35449l-18.208-106.15869,77.12793-75.18262A24.9998,24.9998,0,0,0,421.85742,178.415Zm-127.7666,74.18017a24.99913,24.99913,0,0,0-7.19043,22.12793l11.86719,69.18653L225,305.12793V116.87939l31.06543,62.94727a25.00094,25.00094,0,0,0,18.82422,13.67627l69.46777,10.09375Z"></path>
</symbol><symbol viewBox="0 0 450 450" id="hi-headphones-line">
  <path d="M400.00006,250h0V225a175,175,0,1,0-350,0v25H50A50,50,0,0,0,0,299.99994v50.00012A50,50,0,0,0,50,400H75.00006A25,25,0,0,0,100,375V297.47l.00006-72.47a125.00006,125.00006,0,1,1,250,0L350,274.99927V375a25,25,0,0,0,25,25h25.00006A50,50,0,0,0,450,350.00006V299.99994A50,50,0,0,0,400.00006,250Z"></path>
</symbol><symbol viewBox="0 0 450 450" id="hi-help-fill">
  <path d="M225,0C100.74023,0,0,100.74023,0,225S100.74023,450,225,450,450,349.25977,450,225,349.25977,0,225,0Zm20.81982,356.1001a29.44367,29.44367,0,1,1,8.63038-20.81983A29.38675,29.38675,0,0,1,245.81982,356.1001Zm13.04-121.34033A10.03947,10.03947,0,0,0,250,244.75v15.53027a25,25,0,1,1-50,0v-26.2705c0-27.50977,22.49023-48.7295,50-48.7295a25.01884,25.01884,0,0,0,24.99023-25.56054c-.29-13.46-12.13037-24.43946-25.59033-24.43946H200a24.99593,24.99593,0,0,0-25,25,25,25,0,1,1-50,0,75.00935,75.00935,0,0,1,75-75h49.04c41.29,0,75.5498,32.96,75.96,74.23975A75.12551,75.12551,0,0,1,258.85986,234.75977Z"></path>
</symbol><symbol viewBox="0 0 450 450" id="hi-help-line">
  <path d="M225,0C100.74,0,0,100.74,0,225S100.74,450,225,450,450,349.26,450,225,349.26,0,225,0Zm0,400A175,175,0,1,1,400,225,174.99976,174.99976,0,0,1,225,400Zm29.45-64.72A29.451,29.451,0,1,1,225,305.83,29.35409,29.35409,0,0,1,254.45,335.28ZM325,159.52a75.12566,75.12566,0,0,1-66.14,75.24,10.03922,10.03922,0,0,0-8.86,9.99v15.53a25,25,0,1,1-50,0V234.01c0-27.51,22.49-48.73,50-48.73A25.018,25.018,0,0,0,274.99,159.72C274.7,146.26,262.86,135.28,249.4,135.28H200a24.99627,24.99627,0,0,0-25,25,25,25,0,1,1-50,0,75.01017,75.01017,0,0,1,75-75h49.04C290.33,85.28,324.59,118.24,325,159.52Z"></path>
</symbol><symbol viewBox="0 0 450 450" id="hi-import-line">
  <g>
    <path d="M207.32227,292.67773a25,25,0,0,0,35.35546,0L313.38818,221.967a24.99983,24.99983,0,1,0-35.355-35.35522L250,214.64453V75a25,25,0,0,0-50,0V214.64453l-28.0332-28.03271a24.99983,24.99983,0,1,0-35.355,35.35522Z"></path>
    <path d="M375,250a25,25,0,0,0-25,25v75H100V275a25,25,0,0,0-50,0V375a25,25,0,0,0,25,25H375a25,25,0,0,0,25-25V275A25,25,0,0,0,375,250Z"></path>
  </g>
</symbol><symbol viewBox="0 0 450 450" id="hi-info-fill">
  <path d="M225,0C100.74,0,0,100.74,0,225S100.74,450,225,450,450,349.26,450,225,349.26,0,225,0Zm25,337.5A12.50453,12.50453,0,0,1,237.5,350h-25A12.50453,12.50453,0,0,1,200,337.5v-125A12.50453,12.50453,0,0,1,212.5,200h25A12.50453,12.50453,0,0,1,250,212.5Zm-4.18-191.67993A29.42944,29.42944,0,1,1,254.45,125,29.35437,29.35437,0,0,1,245.82,145.82007Z"></path>
</symbol><symbol viewBox="0 0 450 450" id="hi-info-line">
  <path d="M225,0C100.74,0,0,100.74,0,225S100.74,450,225,450,450,349.26,450,225,349.26,0,225,0Zm0,400A175,175,0,1,1,400,225,174.99976,174.99976,0,0,1,225,400Zm12.5-50h-25A12.5,12.5,0,0,1,200,337.5v-125A12.5,12.5,0,0,1,212.5,200h25A12.5,12.5,0,0,1,250,212.5v125A12.5,12.5,0,0,1,237.5,350ZM225,154.44554H225A29.44551,29.44551,0,0,1,195.55446,125V125A29.44551,29.44551,0,0,1,225,95.55446H225A29.44551,29.44551,0,0,1,254.44554,125V125A29.44551,29.44551,0,0,1,225,154.44554Z"></path>
</symbol><symbol viewBox="0 0 450 450" id="hi-intersect-selection-fill">
  <g>
    <rect x="150" y="350.01489" width="50" height="50" rx="12.5"></rect>
    <rect x="250" y="350.01489" width="50" height="50" rx="12.5"></rect>
    <rect x="350" y="350.01489" width="50" height="50" rx="12.5"></rect>
    <rect x="50" y="50.01489" width="50" height="50" rx="12.5"></rect>
    <path d="M300,175.01v100a24.99624,24.99624,0,0,1-25,25H175a24.99624,24.99624,0,0,1-25-25v-100a25.00264,25.00264,0,0,1,25-25H275A25.00264,25.00264,0,0,1,300,175.01Z"></path>
    <path d="M150,87.51v-25a12.50453,12.50453,0,0,1,12.5-12.5h25A12.50453,12.50453,0,0,1,200,62.51v25a12.49828,12.49828,0,0,1-12.5,12.5h-25A12.49828,12.49828,0,0,1,150,87.51Z"></path>
    <path d="M300,62.51v25a12.49828,12.49828,0,0,1-12.5,12.5h-25A12.49828,12.49828,0,0,1,250,87.51v-25a12.50453,12.50453,0,0,1,12.5-12.5h25A12.50453,12.50453,0,0,1,300,62.51Z"></path>
    <rect x="350" y="250.01489" width="50" height="50" rx="12.5"></rect>
    <rect x="350" y="150.01489" width="50" height="50" rx="12.5"></rect>
    <rect x="50" y="250.01489" width="50" height="50" rx="12.5"></rect>
    <rect x="50" y="150.01489" width="50" height="50" rx="12.5"></rect>
  </g>
</symbol><symbol viewBox="0 0 450 450" id="hi-intersect-selection-line">
  <g>
    <path d="M275,150H175a25,25,0,0,0-25,25V275a25,25,0,0,0,25,25H275a25,25,0,0,0,25-25V175A25,25,0,0,0,275,150Zm-25,50v50H200V200Z"></path>
    <rect x="150" y="350" width="50" height="50" rx="12.5"></rect>
    <rect x="250" y="350" width="50" height="50" rx="12.5"></rect>
    <rect x="350" y="350" width="50" height="50" rx="12.5"></rect>
    <rect x="50" y="50" width="50" height="50" rx="12.5"></rect>
    <rect x="150" y="50" width="50" height="50" rx="12.5"></rect>
    <rect x="250" y="50" width="50" height="50" rx="12.5"></rect>
    <rect x="350" y="250" width="50" height="50" rx="12.5"></rect>
    <rect x="350" y="150" width="50" height="50" rx="12.5"></rect>
    <rect x="50" y="250" width="50" height="50" rx="12.5"></rect>
    <rect x="50" y="150" width="50" height="50" rx="12.5"></rect>
  </g>
</symbol><symbol viewBox="0 0 450 450" id="hi-keyboard-line">
  <g>
    <rect y="192.85714" width="64.28571" height="64.28571" rx="12.49999"></rect>
    <rect x="128.57143" y="192.85714" width="64.28571" height="64.28571" rx="12.49999"></rect>
    <rect x="257.14286" y="192.85714" width="64.28571" height="64.28571" rx="12.49999"></rect>
    <rect x="385.71429" y="192.85714" width="64.28571" height="64.28571" rx="12.49999"></rect>
    <rect y="78.57143" width="64.28571" height="64.28571" rx="12.49999"></rect>
    <rect x="128.57143" y="78.57143" width="64.28571" height="64.28571" rx="12.49999"></rect>
    <rect x="257.14286" y="78.57143" width="64.28571" height="64.28571" rx="12.49999"></rect>
    <rect y="307.14286" width="450" height="64.28571" rx="12.49999"></rect>
    <rect x="385.71429" y="78.57143" width="64.28571" height="64.28571" rx="12.49999"></rect>
  </g>
</symbol><symbol viewBox="0 0 450 450" id="hi-lasso-line">
  <path d="M325,0H125A124.99431,124.99431,0,0,0,0,125v50A125.03422,125.03422,0,0,0,100,297.49756V375a25,25,0,0,0,25,25H300v25a25,25,0,0,0,25,25h0a25,25,0,0,0,25-25V375a25,25,0,0,0-25-25H150V300H325A124.99431,124.99431,0,0,0,450,175V125A124.99431,124.99431,0,0,0,325,0Zm75,175a75.01042,75.01042,0,0,1-73.06006,74.98c-.6499.01025-1.28992.02-1.93994.02H150V225a25,25,0,0,0-25-25h0a25,25,0,0,0-25,25v20.71338A75.02654,75.02654,0,0,1,50,175V125a75.01042,75.01042,0,0,1,73.06006-74.98C123.71,50.00977,124.35,50,125,50H325c.65,0,1.29.00977,1.93994.02A75.01042,75.01042,0,0,1,400,125Z"></path>
</symbol><symbol viewBox="0 0 450 450" id="hi-layer-fill">
  <g>
    <path d="M410.66162,306.759h-.00012a25.00124,25.00124,0,0,0-24.283,0L225,396.41382,63.62158,306.759a25.00124,25.00124,0,0,0-24.283,0l-.00024.00025a25.0008,25.0008,0,0,0,0,43.70923L212.85889,446.8689a24.99982,24.99982,0,0,0,24.28222,0l173.52051-96.40039A25.001,25.001,0,0,0,410.66162,306.759Z"></path>
    <path d="M39.34009,99.56006,212.86,3.15991a25.021,25.021,0,0,1,24.28,0L410.66,99.56006a24.99839,24.99839,0,0,1,0,43.71l-173.52,96.3999a24.96759,24.96759,0,0,1-24.28,0L39.34009,143.27A24.9983,24.9983,0,0,1,39.34009,99.56006Z"></path>
    <path d="M410.66,246.87012,237.14,343.27a24.96889,24.96889,0,0,1-24.28,0l-173.5199-96.3999a25.00088,25.00088,0,0,1,0-43.71021,25.02081,25.02081,0,0,1,24.27991,0L225,292.82007l161.38-89.66016a25.00051,25.00051,0,0,1,24.28,43.71021Z"></path>
  </g>
</symbol><symbol viewBox="0 0 450 450" id="hi-layer-line">
  <g>
    <path d="M39.33691,143.25488l173.522,96.40113a24.99982,24.99982,0,0,0,24.28222,0L410.663,143.25488a25,25,0,0,0,0-43.70776L237.14111,3.146a24.99976,24.99976,0,0,0-24.28222,0L39.33691,99.54712A25.00006,25.00006,0,0,0,39.33691,143.25488ZM225,53.60107l122.04,67.79981L225,189.20093l-122.04-67.8Z"></path>
    <path d="M410.66162,306.74414h-.00012a25.00124,25.00124,0,0,0-24.283,0L225,396.39893,63.62158,306.74414a25.00124,25.00124,0,0,0-24.283,0l-.00024.00024a25.0008,25.0008,0,0,0,0,43.70923L212.85889,446.854a24.99976,24.99976,0,0,0,24.28222,0l173.52051-96.40039A25.001,25.001,0,0,0,410.66162,306.74414Z"></path>
    <path d="M410.66162,203.14648h-.00012a25.00124,25.00124,0,0,0-24.283,0L225,292.80127,63.62158,203.14648a25.00124,25.00124,0,0,0-24.283,0h-.00024a25.001,25.001,0,0,0,0,43.70948L212.85889,343.2561a24.99976,24.99976,0,0,0,24.28222,0L410.66162,246.856A25.001,25.001,0,0,0,410.66162,203.14648Z"></path>
  </g>
</symbol><symbol viewBox="0 0 450 450" id="hi-left-arrow-large-line">
  <path d="M304.54949,366.42136l0,0a25,25,0,0,0,0-35.35531L198.4835,225l106.066-106.066a25,25,0,0,0,0-35.3553l0,0a25,25,0,0,0-35.35531,0L145.45047,207.32233a25,25,0,0,0,0,35.3553L269.19419,366.42136A25,25,0,0,0,304.54949,366.42136Z"></path>
</symbol><symbol viewBox="0 0 450 450" id="hi-left-arrow-small-line">
  <path d="M286.87182,331.066l0,0a25,25,0,0,0,0-35.3553L216.16117,225l70.71068-70.71068a25,25,0,0,0,0-35.3553l0,0a25,25,0,0,0-35.35531,0l-88.38836,88.38837a25,25,0,0,0,0,35.3553L251.51651,331.066A25,25,0,0,0,286.87182,331.066Z"></path>
</symbol><symbol viewBox="0 0 450 450" id="hi-lock-fill">
  <path d="M425,175.01H375v-25a150,150,0,0,0-300,0v25H25a25.00264,25.00264,0,0,0-25,25v150a99.99807,99.99807,0,0,0,100,100H350a99.99807,99.99807,0,0,0,100-100v-150A25.00264,25.00264,0,0,0,425,175.01Zm-200,175a37.5,37.5,0,1,1,37.5-37.5A37.49451,37.49451,0,0,1,225,350.01Zm-100-200a100,100,0,1,1,200,0v25H125Z"></path>
</symbol><symbol viewBox="0 0 450 450" id="hi-lock-line">
  <g>
    <path d="M425,175H375V150a150,150,0,0,0-300,0v25H25A25,25,0,0,0,0,200V350A99.99994,99.99994,0,0,0,100,450H350A99.99994,99.99994,0,0,0,450,350V200A25,25,0,0,0,425,175ZM225,50A99.99807,99.99807,0,0,1,325,150v25H125V150A99.99807,99.99807,0,0,1,225,50ZM350,400H100a50,50,0,0,1-50-50V225H400V350A50,50,0,0,1,350,400Z"></path>
    <circle cx="225" cy="312.5" r="37.5"></circle>
  </g>
</symbol><symbol viewBox="0 0 450 450" id="hi-lock-open-fill">
  <path d="M425,175.01H125V151.26c0-55.34009,45.27-101.57007,100.6001-101.24a99.75581,99.75581,0,0,1,75.57983,35.21,24.99966,24.99966,0,0,0,38.03-32.46A149.65824,149.65824,0,0,0,222.95.03C141.1499,1.12012,75.02,68.35986,75.01,150.01H75v25H25a25.00264,25.00264,0,0,0-25,25v150a99.99807,99.99807,0,0,0,100,100H350a99.99807,99.99807,0,0,0,100-100v-150A25.00264,25.00264,0,0,0,425,175.01Zm-200,175a37.5,37.5,0,1,1,37.5-37.5A37.49451,37.49451,0,0,1,225,350.01Z"></path>
</symbol><symbol viewBox="0 0 450 450" id="hi-lock-open-line">
  <g>
    <path d="M425,175H125V151.2417c0-55.33179,45.27075-101.56592,100.60156-101.24a99.76482,99.76482,0,0,1,75.57862,35.21606,24.97046,24.97046,0,0,0,31.072,5.66309h0a25.01112,25.01112,0,0,0,6.95385-38.12647A149.6461,149.6461,0,0,0,222.94531.01367C141.14673,1.1084,75.01953,68.34424,75.01074,150H75v25H25A25,25,0,0,0,0,200V350A99.99994,99.99994,0,0,0,100,450H350A99.99994,99.99994,0,0,0,450,350V200A25,25,0,0,0,425,175ZM350,400H100a50,50,0,0,1-50-50V225H400V350A50,50,0,0,1,350,400Z"></path>
    <circle cx="225" cy="312.5" r="37.5"></circle>
  </g>
</symbol><symbol viewBox="0 0 450 450" id="hi-loop-line">
  <g>
    <path d="M407.325,107.32,389.64508,89.64523,336.60992,36.61008a24.99589,24.99589,0,0,0-35.34985,0h0a24.99618,24.99618,0,0,0,0,35.35009l28.04,28.04H74.99615a24.996,24.996,0,0,0-24.99609,24.9961v75.0039a24.99629,24.99629,0,0,0,24.99609,24.9961h.00757a24.99634,24.99634,0,0,0,24.99634-24.9961v-50h229.29l-28.03247,28.03223a24.99657,24.99657,0,0,0-.00269,35.34766l.00513.00488a24.996,24.996,0,0,0,35.35254.00244l63.38745-63.38721,7.32739-7.32763A24.99625,24.99625,0,0,0,407.325,107.32Z"></path>
    <path d="M375.00372,225.00363h-.00757a24.99639,24.99639,0,0,0-24.99609,24.99658v50H120.71l28.03247-28.03271a24.99634,24.99634,0,0,0,.00244-35.34766l-.00488-.00488a24.99648,24.99648,0,0,0-35.35254-.00244L50.00006,300.00021l-7.32764,7.32764a24.99567,24.99567,0,0,0,.00269,35.352L60.3548,360.35519,113.39,413.38986a24.99663,24.99663,0,0,0,35.3501.00049v-.00049a24.996,24.996,0,0,0,0-35.34961l-28.04-28.04H375.00006a25,25,0,0,0,25-25h0v-75A24.99645,24.99645,0,0,0,375.00372,225.00363Z"></path>
  </g>
</symbol><symbol viewBox="0 0 450 450" id="hi-magic-wand-fill">
  <path d="M442.68018,442.67993a25.01152,25.01152,0,0,1-35.36036,0l-166.27-166.28-20.0996,64.66016a24.99334,24.99334,0,0,1-44.28028,7.01L121.25977,269.73l-95.94,1.23A25,25,0,0,1,4.96,231.01L62.3501,154.10986,31.54,63.24A24.98858,24.98858,0,0,1,63.24023,31.54L154.10986,62.3501,231.00977,4.96A25.00027,25.00027,0,0,1,270.96,25.32007L269.73,121.26l78.33984,55.3999a25.00234,25.00234,0,0,1-7.00976,44.29l-64.6499,20.1001,166.27,166.27A25.01152,25.01152,0,0,1,442.68018,442.67993Z"></path>
</symbol><symbol viewBox="0 0 450 450" id="hi-magic-wand-line">
  <path d="M442.6823,407.32006l-166.27-166.27,64.64991-20.1001a25.00235,25.00235,0,0,0,7.00976-44.29L269.73211,121.26l1.23-95.93994A25.00028,25.00028,0,0,0,231.01189,4.96L154.112,62.35009,63.24236,31.54a24.98858,24.98858,0,0,0-31.70019,31.7l30.81005,90.86987L4.96209,231.01A25,25,0,0,0,25.322,270.96l95.93994-1.23,55.41016,78.34009a24.99532,24.99532,0,0,0,44.28027-7.01l20.09961-64.66016,166.27,166.28a25.00337,25.00337,0,0,0,35.36035-35.35986ZM205.592,222.04l-17.34961,55.80005-33.74023-47.71021A24.99444,24.99444,0,0,0,134.092,219.57006h-.31982l-58.44.74L110.2824,173.48a24.98467,24.98467,0,0,0,3.63965-22.98L95.16228,95.14989l55.33985,18.77a25.0126,25.0126,0,0,0,22.98-3.63989l46.83008-34.94995L219.572,133.77A24.98764,24.98764,0,0,0,230.132,154.5l47.71,33.74-55.7998,17.3501A24.97386,24.97386,0,0,0,205.592,222.04Z"></path>
</symbol><symbol viewBox="0 0 450 450" id="hi-marquee-line">
  <g>
    <path d="M425.00006,325H425a25,25,0,0,0-25,25v50H350a25,25,0,0,0,0,50h75.00006A24.97547,24.97547,0,0,0,450,425V350A25,25,0,0,0,425.00006,325Z"></path>
    <path d="M100.00006,400h-50V350a25,25,0,0,0-25-25H25A25,25,0,0,0,.00006,350v75A24.97547,24.97547,0,0,0,25,450h75.00006a25,25,0,0,0,0-50Z"></path>
    <path d="M425.00006,0H350a25,25,0,0,0-25,25h0a25,25,0,0,0,25,25h50v50a25,25,0,0,0,25,25h.00006A25,25,0,0,0,450,100V25h0A25,25,0,0,0,425.00006,0Z"></path>
    <path d="M100.00006,0H25A25,25,0,0,0,.00006,25h0v75A25,25,0,0,0,25,125h.00006a25,25,0,0,0,25-25V50h50A25,25,0,0,0,125,25h0A25,25,0,0,0,100.00006,0Z"></path>
    <path d="M25,175h.00006a25,25,0,0,1,25,25v50a25,25,0,0,1-25,25H25A24.99994,24.99994,0,0,1,.00006,250.00006V199.99994A24.99994,24.99994,0,0,1,25,175Z"></path>
    <path d="M250.00006,0H200a25,25,0,0,0-25,25h0a25,25,0,0,0,25,25h50.00006A25,25,0,0,0,275,25h0A25,25,0,0,0,250.00006,0Z"></path>
    <path d="M250.00006,400H200a25,25,0,0,0-25,25h0a25,25,0,0,0,25,25h50.00006A25,25,0,0,0,275,425h0A25,25,0,0,0,250.00006,400Z"></path>
    <path d="M424.99994,175H425a25,25,0,0,1,25,25v50a25,25,0,0,1-25,25h-.00006A24.99994,24.99994,0,0,1,400,250.00006V199.99994A24.99994,24.99994,0,0,1,424.99994,175Z"></path>
  </g>
</symbol><symbol viewBox="0 0 450 450" id="hi-menu-line">
  <g>
    <path d="M375,350H75a25,25,0,0,0,0,50H375a25,25,0,0,0,0-50Z"></path>
    <path d="M75,100H375a25,25,0,0,0,0-50H75a25,25,0,0,0,0,50Z"></path>
    <path d="M375,200H75a25,25,0,0,0,0,50H375a25,25,0,0,0,0-50Z"></path>
  </g>
</symbol><symbol viewBox="0 0 450 450" id="hi-merge-all-line">
  <g>
    <path d="M125,50h75V164.64453l-28.0332-28.03271a24.99975,24.99975,0,0,0-35.355,35.355l70.71045,70.71093a25,25,0,0,0,35.35546,0l70.71045-70.71093a24.99975,24.99975,0,0,0-35.355-35.355L250,164.64453V50h75a25,25,0,0,0,25-25h0A25,25,0,0,0,325,0H125a25,25,0,0,0-25,25h0A25,25,0,0,0,125,50Z"></path>
    <path d="M375,400H75a25,25,0,0,0,0,50H375a25,25,0,0,0,0-50Z"></path>
    <path d="M425,250a25,25,0,0,0-25,25v25H50V275a25,25,0,0,0-50,0v50a25,25,0,0,0,25,25H425a25,25,0,0,0,25-25V275A25,25,0,0,0,425,250Z"></path>
  </g>
</symbol><symbol viewBox="0 0 450 450" id="hi-merge-down-line">
  <g>
    <path d="M125,50h75V264.64453l-28.0332-28.03271a24.99975,24.99975,0,0,0-35.355,35.355l70.71045,70.71093a25,25,0,0,0,35.35546,0l70.71045-70.71093a24.99975,24.99975,0,0,0-35.355-35.355L250,264.64453V50h75a25,25,0,0,0,25-25h0A25,25,0,0,0,325,0H125a25,25,0,0,0-25,25h0A25,25,0,0,0,125,50Z"></path>
    <path d="M425,350a25,25,0,0,0-25,25v25H50V375a25,25,0,0,0-50,0v50a25,25,0,0,0,25,25H425a25,25,0,0,0,25-25V375A25,25,0,0,0,425,350Z"></path>
  </g>
</symbol><symbol viewBox="0 0 450 450" id="hi-mic-fill">
  <g>
    <path d="M372.08789,229.55957A24.79456,24.79456,0,0,0,347.71313,200H347.35a24.97213,24.97213,0,0,0-24.3816,20.15393,100.025,100.025,0,0,1-195.93688,0A24.97213,24.97213,0,0,0,102.65,200h-.36309a24.79456,24.79456,0,0,0-24.37476,29.55957A150.14831,150.14831,0,0,0,200,347.91663V400H124.82507A24.82507,24.82507,0,0,0,100,424.82507v.34986A24.82507,24.82507,0,0,0,124.82507,450H325.17493A24.82507,24.82507,0,0,0,350,425.17493v-.34986A24.82507,24.82507,0,0,0,325.17493,400H250V347.91663A150.14823,150.14823,0,0,0,372.08789,229.55957Z"></path>
    <path d="M300.0025,75.52V199.48a75.52,75.52,0,1,1-151.04,0V75.52a75.52,75.52,0,0,1,151.04,0Z"></path>
  </g>
</symbol><symbol viewBox="0 0 450 450" id="hi-mic-line">
  <g>
    <path d="M372.08789,229.55957A24.79456,24.79456,0,0,0,347.71313,200H347.35a24.97213,24.97213,0,0,0-24.3816,20.15393,100.025,100.025,0,0,1-195.93688,0A24.97213,24.97213,0,0,0,102.65,200h-.36309a24.79456,24.79456,0,0,0-24.37476,29.55957A150.14831,150.14831,0,0,0,200,347.91663V400H124.82507A24.82507,24.82507,0,0,0,100,424.82507v.34986A24.82507,24.82507,0,0,0,124.82507,450H325.17493A24.82507,24.82507,0,0,0,350,425.17493v-.34986A24.82507,24.82507,0,0,0,325.17493,400H250V347.91663A150.14823,150.14823,0,0,0,372.08789,229.55957Z"></path>
    <path d="M224.48,275A75.51818,75.51818,0,0,0,300,199.48V75.52a75.52,75.52,0,1,0-151.04,0V199.48A75.51817,75.51817,0,0,0,224.48,275ZM198.96,75.52a25.52,25.52,0,1,1,51.04,0V199.48a25.52,25.52,0,1,1-51.04,0Z"></path>
  </g>
</symbol><symbol viewBox="0 0 450 450" id="hi-minus-line">
  <rect x="200" y="75.00003" width="50" height="299.99995" rx="24.99997" transform="translate(450 0) rotate(90)"></rect>
</symbol><symbol viewBox="0 0 450 450" id="hi-move-line">
  <path d="M442.67773,207.32227l-70.71093-70.7107a24.99987,24.99987,0,0,0-35.355,0v.00025a24.99971,24.99971,0,0,0,0,35.35522L364.64453,200H250V85.35547l28.0332,28.033a24.99987,24.99987,0,0,0,35.355,0v-.00025a24.99971,24.99971,0,0,0,0-35.35522L242.67871,7.32349l-.001-.00122h0a25,25,0,0,0-35.35546,0L136.61182,78.033a25,25,0,0,0,0,35.35547h0a24.99987,24.99987,0,0,0,35.355,0L200,85.35547V200H85.35547l28.03271-28.033a24.99971,24.99971,0,0,0,0-35.35522v-.00025a24.99987,24.99987,0,0,0-35.355,0L7.32227,207.32227a25,25,0,0,0,0,35.35546l70.71093,70.7107a24.99987,24.99987,0,0,0,35.355,0v-.00025a24.99971,24.99971,0,0,0,0-35.35522L85.35547,250H200V364.64453l-28.0332-28.033a24.99987,24.99987,0,0,0-35.355,0v.00025a24.99971,24.99971,0,0,0,0,35.35522l70.70947,70.70947.001.00122h0a25,25,0,0,0,35.35546,0L313.38818,371.967a25,25,0,0,0,0-35.35547h0a24.99987,24.99987,0,0,0-35.355,0L250,364.64453V250H364.64453l-28.03271,28.033a24.99971,24.99971,0,0,0,0,35.35522v.00025a24.99987,24.99987,0,0,0,35.355,0l70.71093-70.7107A25,25,0,0,0,442.67773,207.32227Z"></path>
</symbol><symbol viewBox="0 0 450 450" id="hi-paint-bucket-fill">
  <g>
    <path d="M392.66992,232.31006l-224.99-224.99a25.0032,25.0032,0,0,0-35.35986,35.35986L164.64014,75,7.32007,232.32007a25.0472,25.0472,0,0,0,0,35.38989l174.99,174.98a24.98087,24.98087,0,0,0,35.34985,0h.01a.0098.0098,0,0,1,.01-.01l174.98-174.99a25.00056,25.00056,0,0,0,.01-35.37988ZM200,110.35986,339.64014,250l-.01026.01H60.34009Z"></path>
    <path d="M435.35547,335.35547l-26.5166-26.5166a12.5,12.5,0,0,0-17.67774,0l-26.5166,26.5166a49.9999,49.9999,0,0,0,0,70.71045l.00025.00024a49.99987,49.99987,0,0,0,70.71044,0l.00025-.00024A49.9999,49.9999,0,0,0,435.35547,335.35547Z"></path>
  </g>
</symbol><symbol viewBox="0 0 450 450" id="hi-paint-bucket-line">
  <g>
    <path d="M392.66284,267.67773a25.01173,25.01173,0,0,0,.00733-35.37768L167.67773,7.30762a25,25,0,1,0-35.35546,35.35522l32.32251,32.32227L7.32227,232.30762a25.03686,25.03686,0,0,0,0,35.38476L182.30762,442.67773a24.99971,24.99971,0,0,0,35.35522,0h0l.00659-.00708.0083-.00781Zm-53.01806-17.69262L199.98511,389.64453,60.34058,250,200,110.34033Z"></path>
    <path d="M435.35547,335.34058,408.83887,308.824a12.5,12.5,0,0,0-17.67774,0l-26.5166,26.51661a49.9999,49.9999,0,0,0,0,70.71045l.00025.00024a49.99988,49.99988,0,0,0,70.71044,0l.00025-.00024A49.9999,49.9999,0,0,0,435.35547,335.34058Z"></path>
  </g>
</symbol><symbol viewBox="0 0 450 450" id="hi-paste-line">
  <path d="M425,50H375V25A25,25,0,0,0,350,0H150a25,25,0,0,0-25,25V50H75A25,25,0,0,0,50,75V425a25,25,0,0,0,25,25H425a25,25,0,0,0,25-25V75A25,25,0,0,0,425,50ZM175,50H325v50H175ZM400,400H100V100h25v25a25,25,0,0,0,25,25H350a25,25,0,0,0,25-25V100h25Z"></path>
</symbol><symbol viewBox="0 0 450 450" id="hi-path-fill">
  <path d="M450,25.01v100a24.99627,24.99627,0,0,1-25,25H335.36L150,335.37012V425.01a24.99627,24.99627,0,0,1-25,25H25a24.99627,24.99627,0,0,1-25-25v-100a25.00268,25.00268,0,0,1,25-25h89.64L300,114.65991V25.01a25.00268,25.00268,0,0,1,25-25H425A25.00268,25.00268,0,0,1,450,25.01Z"></path>
</symbol><symbol viewBox="0 0 450 450" id="hi-path-line">
  <path d="M425,0H325a25,25,0,0,0-25,25v89.64453L114.64465,300H25A25,25,0,0,0,0,325V425a25,25,0,0,0,25,25H125a25,25,0,0,0,25-25V335.35547L335.35535,150H425a25,25,0,0,0,25-25V25A25,25,0,0,0,425,0ZM350,50h50v50H350ZM100,400H50V350h50Z"></path>
</symbol><symbol viewBox="0 0 450 450" id="hi-pause-fill">
  <g>
    <rect x="50" y="50" width="150" height="350" rx="25"></rect>
    <rect x="250" y="50" width="150" height="350" rx="25"></rect>
  </g>
</symbol><symbol viewBox="0 0 450 450" id="hi-pause-line">
  <g>
    <path d="M375,50H275a24.99624,24.99624,0,0,0-25,25V375a24.99624,24.99624,0,0,0,25,25H375a24.99624,24.99624,0,0,0,25-25V75A24.99624,24.99624,0,0,0,375,50ZM350,350H300V100h50Z"></path>
    <path d="M175,50H75A24.99627,24.99627,0,0,0,50,75V375a24.99627,24.99627,0,0,0,25,25H175a24.99624,24.99624,0,0,0,25-25V75A24.99624,24.99624,0,0,0,175,50ZM150,350H100V100h50Z"></path>
  </g>
</symbol><symbol viewBox="0 0 450 450" id="hi-pencil-fill">
  <path d="M449.97,113.49a25.05534,25.05534,0,0,0-1.17993-6.51c-.12012-.37012-.25-.74-.39-1.1001-.16-.43994-.34-.87988-.52-1.30981a27.82325,27.82325,0,0,0-1.49-2.86011,25.491,25.491,0,0,0-3.71008-4.73h-.01L353.04,7.34009h-.01a24.98117,24.98117,0,0,0-35.3501,0L7.32007,317.68994A24.99983,24.99983,0,0,0,0,335.37012V425.01a24.99624,24.99624,0,0,0,25,25h89.64a24.98312,24.98312,0,0,0,17.68006-7.32007L362.5,212.52v-.01l80.17993-80.16992A24.90229,24.90229,0,0,0,450,114.66992C450,114.28,449.99,113.87988,449.97,113.49ZM104.28,400.01H50V345.73L255.17993,140.55005l54.28,54.28Z"></path>
</symbol><symbol viewBox="0 0 450 450" id="hi-pencil-line">
  <path d="M449.97217,113.47388a25.05227,25.05227,0,0,0-1.18311-6.50952q-.17907-.55555-.38452-1.10425-.24573-.65625-.52954-1.301a24.96425,24.96425,0,0,0-5.19727-7.59228l-.00463-.0044-.00122-.00122L353.03882,7.32812l-.0011-.00122-.00464-.00463a24.99986,24.99986,0,0,0-35.35535,0L7.32227,317.67773A25.00007,25.00007,0,0,0,0,335.35547V425a25,25,0,0,0,25,25h89.64465a24.99929,24.99929,0,0,0,17.67762-7.32227L362.49878,212.50122,362.5,212.5h.00012l.00232-.00244,80.17285-80.17285.00244-.00244h0A24.93429,24.93429,0,0,0,449.97217,113.47388ZM344.81775,159.4624l-54.28-54.28027,44.82239-44.82227,54.28,54.28ZM104.28,400H50V345.72L255.18237,140.5376l54.28,54.28Z"></path>
</symbol><symbol viewBox="0 0 450 450" id="hi-play-fill">
  <path d="M84.81974,42.87572,387.97591,202.20046a24.5,24.5,0,0,1,.1241,43.3089L84.94384,407.05812a24.5,24.5,0,0,1-36.0219-21.62161V64.563A24.5,24.5,0,0,1,84.81974,42.87572Z"></path>
</symbol><symbol viewBox="0 0 450 450" id="hi-play-line">
  <path d="M387.97124,202.19982,84.82122,42.88a24.49508,24.49508,0,0,0-35.9,21.68018V385.44005a24.50078,24.50078,0,0,0,36.02,21.62012L388.10113,245.50988A24.49875,24.49875,0,0,0,387.97124,202.19982Zm-289.05,140.75V106.77013l223.14,117.26953Z"></path>
</symbol><symbol viewBox="0 0 450 450" id="hi-plus-large-line">
  <path d="M375,200H250V75a25,25,0,0,0-50,0V200H75a25,25,0,0,0,0,50H200V375a25,25,0,0,0,50,0V250H375a25,25,0,0,0,0-50Z"></path>
</symbol><symbol viewBox="0 0 450 450" id="hi-plus-small-line">
  <path d="M325,200H250V125a25,25,0,0,0-50,0v75H125a25,25,0,0,0,0,50h75v75a25,25,0,0,0,50,0V250h75a25,25,0,0,0,0-50Z"></path>
</symbol><symbol viewBox="0 0 450 450" id="hi-polygon-lasso-line">
  <path d="M425,0H25A25,25,0,0,0,0,25V275a25,25,0,0,0,25,25h75v75a25,25,0,0,0,25,25H300v25a25,25,0,0,0,25,25h0a25,25,0,0,0,25-25V375a25,25,0,0,0-25-25H150V300H425a25,25,0,0,0,25-25V25A25,25,0,0,0,425,0ZM125,200h0a25,25,0,0,0-25,25v25H50V50H400V250H150V225A25,25,0,0,0,125,200Z"></path>
</symbol><symbol viewBox="0 0 450 450" id="hi-record-fill">
  <circle cx="225" cy="225" r="175"></circle>
</symbol><symbol viewBox="0 0 450 450" id="hi-record-line">
  <path d="M225,50A175,175,0,1,0,400,225,174.99991,174.99991,0,0,0,225,50Zm0,300A125,125,0,1,1,350,225,124.99431,124.99431,0,0,1,225,350Z"></path>
</symbol><symbol viewBox="0 0 450 450" id="hi-redo-line">
  <path d="M398.97021,128.23755a24.89889,24.89889,0,0,0-5.40576-9.6272q-.42919-.475-.88672-.93262L321.9668,46.967a24.99943,24.99943,0,0,0-35.355,0h0a24.99972,24.99972,0,0,0,0,35.35523l28.03271,28.0332H200A149.83577,149.83577,0,0,0,50.00781,261.90894c.835,82.46044,68.90723,148.44653,151.37158,148.44653H350a25,25,0,0,0,0-50H201.25488c-55.14062,0-100.84521-44.1062-101.252-99.24585A99.99767,99.99767,0,0,1,200,160.35547H314.64453l-28.03271,28.033a24.99971,24.99971,0,0,0,0,35.35522h0a24.99942,24.99942,0,0,0,35.355,0L392.67773,153.033q.45777-.4574.88672-.93262a24.98692,24.98692,0,0,0,5.40576-23.86279Z"></path>
</symbol><symbol viewBox="0 0 450 450" id="hi-replace-selection-fill">
  <g>
    <rect x="150" y="350.01489" width="50" height="50" rx="12.5"></rect>
    <rect x="250" y="350.01489" width="50" height="50" rx="12.5"></rect>
    <path d="M300,75.01v200a24.99624,24.99624,0,0,1-25,25H75a24.99624,24.99624,0,0,1-25-25v-200a25.00264,25.00264,0,0,1,25-25H275A25.00264,25.00264,0,0,1,300,75.01Z"></path>
    <path d="M400,362.51v25a12.49828,12.49828,0,0,1-12.5,12.5h-25a12.49828,12.49828,0,0,1-12.5-12.5v-25a12.50453,12.50453,0,0,1,12.5-12.5h25A12.50453,12.50453,0,0,1,400,362.51Z"></path>
    <rect x="350" y="250.01489" width="50" height="50" rx="12.5"></rect>
    <rect x="350" y="150.01489" width="50" height="50" rx="12.5"></rect>
  </g>
</symbol><symbol viewBox="0 0 450 450" id="hi-replace-selection-line">
  <g>
    <path d="M275,50H75A25,25,0,0,0,50,75V275a25,25,0,0,0,25,25H275a25,25,0,0,0,25-25V75A25,25,0,0,0,275,50Zm-25,50V250H100V100Z"></path>
    <rect x="150" y="350" width="50" height="50" rx="12.5"></rect>
    <rect x="250" y="350" width="50" height="50" rx="12.5"></rect>
    <rect x="350" y="350" width="50" height="50" rx="12.5"></rect>
    <rect x="350" y="250" width="50" height="50" rx="12.5"></rect>
    <rect x="350" y="150" width="50" height="50" rx="12.5"></rect>
  </g>
</symbol><symbol viewBox="0 0 450 450" id="hi-right-arrow-large-line">
  <path d="M145.45051,83.57864l0,0a25,25,0,0,0,0,35.35531L251.5165,225l-106.066,106.066a25,25,0,0,0,0,35.3553l0,0a25,25,0,0,0,35.35531,0L304.54953,242.67767a25,25,0,0,0,0-35.3553L180.80581,83.57864A25,25,0,0,0,145.45051,83.57864Z"></path>
</symbol><symbol viewBox="0 0 450 450" id="hi-right-arrow-small-line">
  <path d="M163.12818,118.934l0,0a25,25,0,0,0,0,35.3553L233.83883,225l-70.71068,70.71068a25,25,0,0,0,0,35.3553l0,0a25,25,0,0,0,35.35531,0l88.38836-88.38837a25,25,0,0,0,0-35.3553L198.48349,118.934A25,25,0,0,0,163.12818,118.934Z"></path>
</symbol><symbol viewBox="0 0 450 450" id="hi-rounded-square-fill">
  <rect width="450" height="450" rx="100"></rect>
</symbol><symbol viewBox="0 0 450 450" id="hi-rounded-square-line">
  <path d="M350,0H100A99.99807,99.99807,0,0,0,0,100V350A99.99807,99.99807,0,0,0,100,450H350A99.99807,99.99807,0,0,0,450,350V100A99.99807,99.99807,0,0,0,350,0Zm0,400H100a50.00544,50.00544,0,0,1-50-50V100a50.00544,50.00544,0,0,1,50-50H350a50.00544,50.00544,0,0,1,50,50V350A50.00544,50.00544,0,0,1,350,400Z"></path>
</symbol><symbol viewBox="0 0 450 450" id="hi-rounded-square-small-fill">
  <rect x="50" y="50" width="350" height="350" rx="100"></rect>
</symbol><symbol viewBox="0 0 450 450" id="hi-rounded-square-small-line">
  <path d="M300,50H150A99.99807,99.99807,0,0,0,50,150V300A99.99807,99.99807,0,0,0,150,400H300A99.99807,99.99807,0,0,0,400,300V150A99.99807,99.99807,0,0,0,300,50Zm0,300H150a50.00544,50.00544,0,0,1-50-50V150a50.00544,50.00544,0,0,1,50-50H300a50.00544,50.00544,0,0,1,50,50V300A50.00544,50.00544,0,0,1,300,350Z"></path>
</symbol><symbol viewBox="0 0 450 450" id="hi-scissors-fill">
  <path d="M450,335.71a92.95508,92.95508,0,1,1-173.9502-45.64014L225,239.02l-51.0498,51.0498A92.92486,92.92486,0,1,1,138.58984,254.71l51.0503-51.0498L50,64.02A25.0032,25.0032,0,0,1,85.35986,28.66016L225,168.31006,364.64014,28.66016A25.0032,25.0032,0,0,1,400,64.02L260.35986,203.66016l51.0503,51.0498A92.97326,92.97326,0,0,1,450,335.71Z"></path>
</symbol><symbol viewBox="0 0 450 450" id="hi-scissors-line">
  <path d="M357.04456,242.75031A92.52394,92.52394,0,0,0,311.407,254.71277l-51.05157-51.05158L400,64.01666a25.00009,25.00009,0,1,0-35.35547-35.35547L225,168.30573,85.35547,28.66119a25,25,0,0,0-35.35541,0H50a25.00014,25.00014,0,0,0,0,35.35547L189.64453,203.66119,138.593,254.71277a92.92677,92.92677,0,1,0,35.35547,35.35547L225,239.01666l51.05157,51.05158a92.963,92.963,0,1,0,80.993-47.31793ZM92.95544,378.66119a42.95544,42.95544,0,1,1,42.95545-42.95544A43.00406,43.00406,0,0,1,92.95544,378.66119Zm264.08912,0A42.95544,42.95544,0,1,1,400,335.70575,43.00407,43.00407,0,0,1,357.04456,378.66119Z"></path>
</symbol><symbol viewBox="0 0 450 450" id="hi-seek-backward-fill">
  <path d="M366.43332,59.512,238.69943,187.24585V73.80737c0-18.01123-21.77636-27.03125-34.512-14.29541L56.37692,207.32251a24.99987,24.99987,0,0,0,0,35.355L204.18747,390.488c12.7356,12.73584,34.512,3.71582,34.512-14.29541V262.75415L366.43332,390.488c12.73584,12.73584,34.512,3.71582,34.512-14.29541V73.80737C400.94528,55.79614,379.16916,46.77612,366.43332,59.512Z"></path>
</symbol><symbol viewBox="0 0 450 450" id="hi-seek-backward-line">
  <path d="M366.435,59.51,238.695,187.25024V73.80981c0-18.00976-21.77-27.02978-34.51-14.2998L56.375,207.32007a25.01107,25.01107,0,0,0,0,35.35986L204.185,390.49c12.74,12.73,34.51,3.71,34.51-14.2998V262.75024L366.435,390.49c12.73,12.73,34.51,3.71,34.51-14.2998V73.80981C400.945,55.80005,379.165,46.78,366.435,59.51ZM188.695,304.29028l-79.29-79.29,79.29-79.29Zm162.25,0-79.29-79.29,79.29-79.29Z"></path>
</symbol><symbol viewBox="0 0 450 450" id="hi-seek-end-fill">
  <path d="M400.54,75.54045V374.46037a25.54,25.54,0,1,1-51.08008,0V265.33049L85.98,402.16056a24.9941,24.9941,0,0,1-36.52-22.17968v-309.96a24.99561,24.99561,0,0,1,36.39-22.25L349.46,182.78068V75.54045a25.54,25.54,0,1,1,51.08008,0Z"></path>
</symbol><symbol viewBox="0 0 450 450" id="hi-seek-end-line">
  <path d="M375,50.00052h0a25.53831,25.53831,0,0,0-25.53809,25.53809V182.77738L85.85181,47.77054a24.99589,24.99589,0,0,0-36.3899,22.25V379.981a24.99408,24.99408,0,0,0,36.52,22.17969l263.48-136.83008V374.46244A25.538,25.538,0,0,0,375,400.00052h0a25.538,25.538,0,0,0,25.53809-25.53808V75.53861A25.53831,25.53831,0,0,0,375,50.00052ZM99.46191,338.82084V110.92045l220.95,113.16015Z"></path>
</symbol><symbol viewBox="0 0 450 450" id="hi-seek-forward-fill">
  <path d="M83.56668,59.512,211.30057,187.24585V73.80737c0-18.01123,21.77636-27.03125,34.512-14.29541L393.62308,207.32251a24.99987,24.99987,0,0,1,0,35.355L245.81253,390.488c-12.7356,12.73584-34.512,3.71582-34.512-14.29541V262.75415L83.56668,390.488c-12.73584,12.73584-34.512,3.71582-34.512-14.29541V73.80737C49.05472,55.79614,70.83084,46.77612,83.56668,59.512Z"></path>
</symbol><symbol viewBox="0 0 450 450" id="hi-seek-forward-line">
  <path d="M49.055,73.80981V376.19019c0,18.00976,21.78,27.02978,34.51,14.2998l127.74-127.73975V376.19019c0,18.00976,21.77,27.02978,34.51,14.2998L393.625,242.67993a25.01107,25.01107,0,0,0,0-35.35986L245.815,59.51c-12.74-12.73-34.51-3.71-34.51,14.2998V187.25024L83.565,59.51C70.835,46.78,49.055,55.80005,49.055,73.80981Zm212.25,71.9004,79.29,79.29-79.29,79.29Zm-162.25,0,79.29,79.29-79.29,79.29Z"></path>
</symbol><symbol viewBox="0 0 450 450" id="hi-seek-start-fill">
  <path d="M49.46,75.54045V374.46037a25.54,25.54,0,1,0,51.08008,0V265.33049L364.02,402.16056a24.9941,24.9941,0,0,0,36.52-22.17968v-309.96a24.99561,24.99561,0,0,0-36.39-22.25L100.54,182.78068V75.54045a25.54,25.54,0,1,0-51.08008,0Z"></path>
</symbol><symbol viewBox="0 0 450 450" id="hi-seek-start-line">
  <path d="M364.14819,47.77054,100.53809,182.77738V75.53861A25.53831,25.53831,0,0,0,75,50.00052h0A25.53831,25.53831,0,0,0,49.46191,75.53861V374.46244A25.538,25.538,0,0,0,75,400.00052h0a25.538,25.538,0,0,0,25.53809-25.53808V265.3306l263.48,136.83008a24.99408,24.99408,0,0,0,36.52-22.17969V70.02054A24.99589,24.99589,0,0,0,364.14819,47.77054Zm-13.6101,291.0503-220.95-114.74024,220.95-113.16015Z"></path>
</symbol><symbol viewBox="0 0 450 450" id="hi-settings-fill">
  <path d="M434.95819,270.81348,419.37,257.30005l-20.0094-17.35047C399.77783,235.00012,400,230.01636,400,225s-.22217-10.00012-.6394-14.94958L419.37,192.7l15.58819-13.51343a25,25,0,0,0,5.276-31.38794L429.92,129.92993,419.86,112.5,409.79,95.07007,399.47821,77.20569a24.99984,24.99984,0,0,0-29.82416-11.12854L350.16,72.82007l-25.01452,8.6477a173.97844,173.97844,0,0,0-25.9126-14.96569L294.22,40.52l-3.91559-20.26318A25,25,0,0,0,265.75848,0h-81.517a25,25,0,0,0-24.5459,20.25684L155.78,40.52l-5.01288,25.98206a173.97844,173.97844,0,0,0-25.9126,14.96569L99.84,72.82007,80.346,66.07715A24.9999,24.9999,0,0,0,50.52179,77.20569L40.21,95.07007l-6.79,11.76L20.08,129.92993,9.76581,147.79858a25,25,0,0,0,5.276,31.38794L30.63,192.7l20.0094,17.35047C50.22217,214.99988,50,219.98364,50,225s.22217,10.00012.6394,14.94958L30.63,257.30005,15.04187,270.81348a25,25,0,0,0-5.27606,31.38794L20.08,320.07l13.34,23.1,6.79,11.76,10.31177,17.86438A25.00007,25.00007,0,0,0,80.346,383.923L99.84,377.18l25.01458-8.6477a173.988,173.988,0,0,0,25.91254,14.96563L155.78,409.48l3.91559,20.26318A25,25,0,0,0,184.24152,450h81.517a25,25,0,0,0,24.5459-20.25684L294.22,409.48l5.01288-25.98206a173.988,173.988,0,0,0,25.91254-14.96563L350.16,377.18l19.49408,6.743a25,25,0,0,0,29.82416-11.1286L409.79,354.93l10.07-17.43,10.06-17.43,10.31421-17.86859A25,25,0,0,0,434.95819,270.81348ZM225,287.5A62.5,62.5,0,1,1,287.5,225,62.5,62.5,0,0,1,225,287.5Z"></path>
</symbol><symbol viewBox="0 0 450 450" id="hi-settings-line">
  <path d="M255.78564,50l10.56145,42.88569a25,25,0,0,0,11.77467,15.67247l21.1587,12.216a25,25,0,0,0,19.46025,2.361l42.42077-12.29652,30.78581,53.32253-31.85947,30.58927a25,25,0,0,0-7.68547,18.03358l.00009,24.432a25,25,0,0,0,7.68544,18.03337l31.85949,30.58937-30.78574,53.32244-42.42081-12.29642a24.99994,24.99994,0,0,0-19.46017,2.36094l-21.15882,12.216a25,25,0,0,0-11.77472,15.67257l-10.56128,42.88558L194.21432,400l-10.56145-42.88574a25,25,0,0,0-11.77467-15.67248l-21.15868-12.216a25,25,0,0,0-19.46026-2.361L88.83843,339.16133,58.05265,285.83881l31.85952-30.58927a25,25,0,0,0,7.68548-18.0335V212.784a25,25,0,0,0-7.68553-18.03354L58.05265,164.16138,88.8382,110.83883l42.421,12.29637a24.99994,24.99994,0,0,0,19.46011-2.361l21.15885-12.21607a25,25,0,0,0,11.77473-15.67257L194.21415,50h61.57149m0-50H194.214a49.99981,49.99981,0,0,0-48.54927,38.04365l0,.00017L137.651,70.58435l-1.35222.78064-1.35244.78088-32.18772-9.3302-.0001,0A49.99982,49.99982,0,0,0,45.537,85.83883l0,0L30.14415,112.50012,14.75132,139.16138l-.00016.00026a49.99983,49.99983,0,0,0,8.67224,61.06664l.00025.00024,24.174,23.21008v3.123l-24.174,23.2102-.0001.0001a49.99981,49.99981,0,0,0-8.6723,61.06674l.00007.00012,15.393,26.66137,15.39283,26.66114.00016.00027a49.99982,49.99982,0,0,0,57.22136,23.023l.00031-.00009,32.18759-9.33026,1.35224.78076,1.3523.78076,8.01371,32.54041,0,.00017A49.99981,49.99981,0,0,0,194.21413,450H255.786a49.99981,49.99981,0,0,0,48.54927-38.04367l0-.00015,8.01361-32.54041,2.70473-1.56158,32.18767,9.33014.00013,0A49.99983,49.99983,0,0,0,404.463,364.16123l0,0,15.39282-26.66137,15.39282-26.66114.00017-.00029a49.99982,49.99982,0,0,0-8.6721-61.06657l-.00022-.00021-24.17407-23.21033,0-3.12305,24.17392-23.21008.00012-.00011a49.99983,49.99983,0,0,0,8.67231-61.06673l-.0001-.00018-15.393-26.66125L404.46281,85.83862l-.00011-.0002a49.99981,49.99981,0,0,0-57.22142-23.023l-.0003.00008-32.18758,9.3302-1.35225-.78076-1.35229-.78076-8.01372-32.54041-4.6845-19.02194A25,25,0,0,0,275.37594,0ZM225,200a25,25,0,1,1-25,25,25,25,0,0,1,25-25m0-50a75,75,0,1,0,75,75,75.085,75.085,0,0,0-75-75Z"></path>
</symbol><symbol viewBox="0 0 450 450" id="hi-sparkles-line">
  <g>
    <path d="M161.937,100H150a12.5,12.5,0,0,1-12.5-12.5V75.563c0-14.01587-11.47009-25.82422-25.48346-25.55835A25,25,0,0,0,87.5,75V87.5A12.5,12.5,0,0,1,75,100H63.063c-14.01587,0-25.82416,11.47009-25.55841,25.4834A25.00018,25.00018,0,0,0,62.5,150H75a12.5,12.5,0,0,1,12.5,12.5v11.937c0,14.01587,11.47009,25.82422,25.48346,25.55835A25,25,0,0,0,137.5,175V162.5A12.5,12.5,0,0,1,150,150h12.5a25.00018,25.00018,0,0,0,24.99542-24.5166C187.76117,111.47006,175.95288,100,161.937,100Z"></path>
    <path d="M386.937,200H362.5a25,25,0,0,1-25-25V150.563c0-14.01587-11.47009-25.82422-25.48346-25.55835A25,25,0,0,0,287.5,150v25a25,25,0,0,1-25,25H238.063c-14.01587,0-25.82416,11.47009-25.55841,25.4834A25.00018,25.00018,0,0,0,237.5,250h25a25,25,0,0,1,25,25v24.437c0,14.01587,11.47009,25.82416,25.48346,25.55841A25.00013,25.00013,0,0,0,337.5,300V275a25,25,0,0,1,25-25h25a25.00018,25.00018,0,0,0,24.99542-24.5166C412.76117,211.47006,400.95288,200,386.937,200Z"></path>
    <path d="M161.937,300H150a12.5,12.5,0,0,1-12.5-12.5V275.563c0-14.01587-11.47009-25.82422-25.48346-25.55835A25,25,0,0,0,87.5,275v12.5A12.5,12.5,0,0,1,75,300H63.063c-14.01587,0-25.82416,11.47009-25.55841,25.48346A25.00013,25.00013,0,0,0,62.5,350H75a12.5,12.5,0,0,1,12.5,12.5v11.937c0,14.01587,11.47009,25.82416,25.48346,25.55841A25.00013,25.00013,0,0,0,137.5,375V362.5A12.5,12.5,0,0,1,150,350h12.5a25.00013,25.00013,0,0,0,24.99542-24.51654C187.76117,311.47006,175.95288,300,161.937,300Z"></path>
  </g>
</symbol><symbol viewBox="0 0 450 450" id="hi-spray-fill">
  <g>
    <path d="M250,150.01v-25h25a25,25,0,0,0,0-50H250v-50a25.00264,25.00264,0,0,0-25-25H75a25.00937,25.00937,0,0,0-25,25v125L7.32007,192.68994A24.99933,24.99933,0,0,0,0,210.37012V425.01a24.99624,24.99624,0,0,0,25,25H275a24.99624,24.99624,0,0,0,25-25V210.37012a24.99933,24.99933,0,0,0-7.32007-17.68018Zm-150-100H200v70.71H100Zm150,225H50V220.73l50-50.01H200l50,50.01Z"></path>
    <circle cx="350" cy="100.01489" r="25"></circle>
    <circle cx="425" cy="150.01489" r="25"></circle>
    <circle cx="425" cy="50.01489" r="25"></circle>
  </g>
</symbol><symbol viewBox="0 0 450 450" id="hi-spray-line">
  <g>
    <path d="M275,125a25,25,0,0,0,0-50H250V25A25,25,0,0,0,225,0H75A25,25,0,0,0,50,25V150L7.32233,192.67767A24.99995,24.99995,0,0,0,0,210.35535V425a25,25,0,0,0,25,25H275a25,25,0,0,0,25-25V210.35535a24.99995,24.99995,0,0,0-7.32233-17.67768L250,150V125ZM200,50v70.71H100V50ZM100,170.71H200l50,50.01V275H50V220.72ZM50,325H250v75H50Z"></path>
    <circle cx="350" cy="100" r="25"></circle>
    <circle cx="425" cy="150" r="25"></circle>
    <circle cx="425" cy="50" r="25"></circle>
  </g>
</symbol><symbol viewBox="0 0 450 450" id="hi-square-fill">
  <path d="M450,25.01v400a24.99627,24.99627,0,0,1-25,25H25a24.99624,24.99624,0,0,1-25-25v-400a25.00264,25.00264,0,0,1,25-25H425A25.00268,25.00268,0,0,1,450,25.01Z"></path>
</symbol><symbol viewBox="0 0 450 450" id="hi-square-line">
  <path d="M0,25V425a25,25,0,0,0,25,25H425a25,25,0,0,0,25-25V25A25,25,0,0,0,425,0H25A25,25,0,0,0,0,25ZM400,400H50V50H400Z"></path>
</symbol><symbol viewBox="0 0 450 450" id="hi-square-small-fill">
  <path d="M400,75.01v300a24.99624,24.99624,0,0,1-25,25H75a24.99624,24.99624,0,0,1-25-25v-300a25.00264,25.00264,0,0,1,25-25H375A25.00264,25.00264,0,0,1,400,75.01Z"></path>
</symbol><symbol viewBox="0 0 450 450" id="hi-square-small-line">
  <path d="M50,75V375a25,25,0,0,0,25,25H375a25,25,0,0,0,25-25V75a25,25,0,0,0-25-25H75A25,25,0,0,0,50,75ZM350,350H100V100H350Z"></path>
</symbol><symbol viewBox="0 0 450 450" id="hi-star-fill">
  <path d="M415.53027,204.04,338.3999,279.23l18.21,106.1499a25.00032,25.00032,0,0,1-36.27,26.36011L225,361.62012,129.66016,411.74a24.99479,24.99479,0,0,1-36.27-26.36011l18.21-106.1499L34.46973,204.04A24.99794,24.99794,0,0,1,48.31982,161.3999l106.59034-15.49,47.66992-96.57983a24.9992,24.9992,0,0,1,44.83984,0l47.66992,96.57983,106.59034,15.49A24.99794,24.99794,0,0,1,415.53027,204.04Z"></path>
</symbol><symbol viewBox="0 0 450 450" id="hi-star-line">
  <path d="M331.96777,414.60986a24.97731,24.97731,0,0,1-11.63086-2.87158L225,361.6167l-95.33691,50.12158a25.00061,25.00061,0,0,1-36.27442-26.35449l18.208-106.15869L34.46875,204.04248a24.99976,24.99976,0,0,1,13.85547-42.64209L154.91406,145.9126l47.668-96.58643a24.99917,24.99917,0,0,1,44.83594,0l47.668,96.58643,106.58984,15.48779a24.99976,24.99976,0,0,1,13.85547,42.64209L338.40332,279.2251l18.208,106.15869a25.00055,25.00055,0,0,1-24.64356,29.22607ZM225,308.37256a24.98808,24.98808,0,0,1,11.63379,2.87158l62.13379,32.66553-11.86719-69.18653a24.99913,24.99913,0,0,1,7.19043-22.12793l50.2666-48.99853-69.46777-10.09375a25.00094,25.00094,0,0,1-18.82422-13.67627L225,116.87939l-31.06543,62.94727a25.00094,25.00094,0,0,1-18.82422,13.67627l-69.46777,10.09375,50.2666,48.99853a24.99913,24.99913,0,0,1,7.19043,22.12793l-11.86719,69.18653,62.13379-32.66553A24.98808,24.98808,0,0,1,225,308.37256Z"></path>
</symbol><symbol viewBox="0 0 450 450" id="hi-stop-fill">
  <rect x="50" y="50" width="350" height="350" rx="25"></rect>
</symbol><symbol viewBox="0 0 450 450" id="hi-stop-line">
  <path d="M375,50H75A24.99624,24.99624,0,0,0,50,75V375a24.99624,24.99624,0,0,0,25,25H375a24.99624,24.99624,0,0,0,25-25V75A24.99624,24.99624,0,0,0,375,50ZM350,350H100V100H350Z"></path>
</symbol><symbol viewBox="0 0 450 450" id="hi-subtract-selection-fill">
  <g>
    <rect x="50" y="50.01489" width="50" height="50" rx="12.5"></rect>
    <rect x="250" y="50.01489" width="50" height="50" rx="12.5"></rect>
    <rect x="50" y="250.01489" width="50" height="50" rx="12.5"></rect>
    <rect x="50" y="150.01489" width="50" height="50" rx="12.5"></rect>
    <path d="M400,175.01v200a24.99624,24.99624,0,0,1-25,25H175a24.99624,24.99624,0,0,1-25-25v-100a25.00264,25.00264,0,0,1,25-25h75v-75a25.00264,25.00264,0,0,1,25-25H375A25.00264,25.00264,0,0,1,400,175.01Z"></path>
    <path d="M150,87.51v-25a12.50453,12.50453,0,0,1,12.5-12.5h25A12.50453,12.50453,0,0,1,200,62.51v25a12.49828,12.49828,0,0,1-12.5,12.5h-25A12.49828,12.49828,0,0,1,150,87.51Z"></path>
  </g>
</symbol><symbol viewBox="0 0 450 450" id="hi-subtract-selection-line">
  <g>
    <rect x="50" y="50" width="50" height="50" rx="12.5"></rect>
    <rect x="150" y="50" width="50" height="50" rx="12.5"></rect>
    <rect x="250" y="50" width="50" height="50" rx="12.5"></rect>
    <rect x="50" y="250" width="50" height="50" rx="12.5"></rect>
    <rect x="50" y="150" width="50" height="50" rx="12.5"></rect>
    <path d="M375,150H275a25,25,0,0,0-25,25v75H175a25,25,0,0,0-25,25V375a25,25,0,0,0,25,25H375a25,25,0,0,0,25-25V175A25,25,0,0,0,375,150ZM275,300a25,25,0,0,0,25-25V200h50V350H200V300Z"></path>
  </g>
</symbol><symbol viewBox="0 0 450 450" id="hi-text-cursor-line">
  <path d="M300,375a24.99208,24.99208,0,0,1-25,25H175a25,25,0,1,1,0-50h25V100H175a25,25,0,1,1,0-50H275a25,25,0,1,1,0,50H250V350h25A24.99631,24.99631,0,0,1,300,375Z"></path>
</symbol><symbol viewBox="0 0 450 450" id="hi-transparent-line">
  <path d="M225,0a225.4362,225.4362,0,0,0-43.93,4.29A224.05245,224.05245,0,0,0,84.56,49.2a225.85243,225.85243,0,0,0-62.63,78.79A222.82289,222.82289,0,0,0,4.29,181.07007,225.43977,225.43977,0,0,0,0,225C0,349.26,100.74,450,225,450a225.44084,225.44084,0,0,0,43.93-4.29,224.05442,224.05442,0,0,0,96.51-44.91,225.85,225.85,0,0,0,62.63-78.79,222.82391,222.82391,0,0,0,17.64-53.08008A225.43976,225.43976,0,0,0,450,225C450,100.74,349.26,0,225,0ZM50.01,226.79,223.21,399.99A174.99236,174.99236,0,0,1,50.01,226.79Zm233.8,163.08L60.13,166.18994A174.82188,174.82188,0,0,1,84.84,120.2L329.8,365.16A174.81812,174.81812,0,0,1,283.81,389.87Zm81.35-60.07L120.2,84.84009A174.81655,174.81655,0,0,1,166.19,60.13L389.87,283.81A174.81812,174.81812,0,0,1,365.16,329.8ZM226.79,50.01a174.99232,174.99232,0,0,1,173.2,173.2Z"></path>
</symbol><symbol viewBox="0 0 450 450" id="hi-trash-fill">
  <path d="M425,100.01H350v-75a25.00264,25.00264,0,0,0-25-25H125a25.00937,25.00937,0,0,0-25,25v75H25a25,25,0,0,0,0,50H425a25,25,0,0,0,0-50Zm-125,0H150v-50H300Z"></path>
  <path d="M387.5,187.5H62.5A12.5,12.5,0,0,0,50,200V425a25,25,0,0,0,25,25H375a24.99229,24.99229,0,0,0,25-25V200A12.5,12.5,0,0,0,387.5,187.5ZM200,368.75a25,25,0,0,1-50,0v-100a25,25,0,0,1,50,0Zm100,0a25,25,0,0,1-50,0v-100a25,25,0,0,1,50,0Z"></path>
</symbol><symbol viewBox="0 0 450 450" id="hi-trash-line">
  <g>
    <path d="M425,100H350V25A25,25,0,0,0,325,0H125a25,25,0,0,0-25,25v75H25a25,25,0,0,0,0,50H50V425a25,25,0,0,0,25,25H375a25,25,0,0,0,25-25V150h25a25,25,0,0,0,0-50ZM150,50H300v50H150ZM350,400H100V150H350Z"></path>
    <path d="M175,200h0a25,25,0,0,0-25,25V325a25,25,0,0,0,25,25h0a25,25,0,0,0,25-25V225A25,25,0,0,0,175,200Z"></path>
    <path d="M275,200h0a25,25,0,0,0-25,25V325a25,25,0,0,0,25,25h0a25,25,0,0,0,25-25V225A25,25,0,0,0,275,200Z"></path>
  </g>
</symbol><symbol viewBox="0 0 450 450" id="hi-twitter-logo-fill">
  <path d="M403.93051,133.20167c.27421,3.96709.27421,7.93418.27421,11.93784,0,121.99269-92.8702,262.68739-262.68738,262.68739v-.07311A261.36424,261.36424,0,0,1,0,366.36436a187.79762,187.79762,0,0,0,21.97441,1.33455A185.387,185.387,0,0,0,136.6362,328.1011a92.4394,92.4394,0,0,1-86.25228-64.11334,92.02509,92.02509,0,0,0,41.6819-1.5905,92.33128,92.33128,0,0,1-74.05851-90.49359v-1.17a91.738,91.738,0,0,0,41.90128,11.55392A92.43886,92.43886,0,0,1,31.33455,59.0152a262.03553,262.03553,0,0,0,190.27422,96.45337A92.41039,92.41039,0,0,1,378.93965,71.26382a185.259,185.259,0,0,0,58.6289-22.41316,92.66776,92.66776,0,0,1-40.585,51.06033A183.61076,183.61076,0,0,0,450,85.37716,187.55858,187.55858,0,0,1,403.93051,133.20167Z"></path>
</symbol><symbol viewBox="0 0 450 450" id="hi-type-tool-line">
  <path d="M375,50H75A25,25,0,0,0,50,75v50a25,25,0,0,0,50,0V100H200V350H175a25,25,0,0,0,0,50H275a25,25,0,0,0,0-50H250V100H350v25a25,25,0,0,0,50,0V75A25,25,0,0,0,375,50Z"></path>
</symbol><symbol viewBox="0 0 450 450" id="hi-ui-line">
  <path d="M350,25H100A99.99807,99.99807,0,0,0,0,125V325A99.99807,99.99807,0,0,0,100,425H350A99.99807,99.99807,0,0,0,450,325V125A99.99807,99.99807,0,0,0,350,25Zm50,300a50,50,0,0,1-50,50H100a50,50,0,0,1-50-50V175a25,25,0,0,1,25-25H375a25,25,0,0,1,25,25Z"></path>
</symbol><symbol viewBox="0 0 450 450" id="hi-undo-line">
  <path d="M300,118.88525a149.95727,149.95727,0,0,0-50-8.52978H135.35547l28.03271-28.0332a24.99972,24.99972,0,0,0,0-35.35523h0a24.99943,24.99943,0,0,0-35.355,0L57.32227,117.67773q-.45777.45777-.88672.93262a25.11263,25.11263,0,0,0-1.60157,1.96314,24.83178,24.83178,0,0,0-2.51709,4.25512q-.51489,1.10962-.91552,2.25635-.3999,1.14514-.68653,2.31836-.28564,1.17188-.45752,2.363-.17137,1.18982-.22851,2.38965-.02856.59947-.02881,1.19946,0,.59985.02881,1.19922.05712,1.19825.22851,2.38965.17213,1.18944.45752,2.36279.28638,1.17188.68653,2.3186.40064,1.14514.91552,2.25635a24.81315,24.81315,0,0,0,2.51709,4.25513,25.11063,25.11063,0,0,0,1.60157,1.96313q.4292.475.88672.93262l70.71093,70.71069a24.99942,24.99942,0,0,0,35.355,0h0a24.99971,24.99971,0,0,0,0-35.35522l-28.03271-28.033H250a99.99767,99.99767,0,0,1,99.99707,100.75415c-.40625,55.13965-46.11133,99.24585-101.252,99.24585H100a25,25,0,0,0,0,50H248.62061c82.46435,0,150.53662-65.98609,151.37158-148.44653A150.07441,150.07441,0,0,0,300,118.88525Z"></path>
</symbol><symbol viewBox="0 0 450 450" id="hi-up-arrow-large-line">
  <path d="M83.57864,304.54949l0,0a25,25,0,0,0,35.35531,0L225,198.4835l106.066,106.066a25,25,0,0,0,35.3553,0l0,0a25,25,0,0,0,0-35.35531L242.67767,145.45047a25,25,0,0,0-35.3553,0L83.57864,269.19419A25,25,0,0,0,83.57864,304.54949Z"></path>
</symbol><symbol viewBox="0 0 450 450" id="hi-up-arrow-small-line">
  <path d="M118.934,286.87182l0,0a25,25,0,0,0,35.3553,0L225,216.16117l70.71068,70.71068a25,25,0,0,0,35.3553,0l0,0a25,25,0,0,0,0-35.35531l-88.38837-88.38836a25,25,0,0,0-35.3553,0L118.934,251.51651A25,25,0,0,0,118.934,286.87182Z"></path>
</symbol><symbol viewBox="0 0 450 450" id="hi-warn-fill">
  <path d="M225,450c124.26,0,225-100.74,225-225S349.26,0,225,0,0,100.74,0,225,100.74,450,225,450ZM200,112.5A12.50453,12.50453,0,0,1,212.5,100h25A12.50453,12.50453,0,0,1,250,112.5v125A12.50453,12.50453,0,0,1,237.5,250h-25A12.50453,12.50453,0,0,1,200,237.5Zm4.18,191.67993A29.42944,29.42944,0,1,1,195.55,325,29.35437,29.35437,0,0,1,204.18,304.17993Z"></path>
</symbol><symbol viewBox="0 0 450 450" id="hi-warn-line">
  <path d="M225,450c124.26,0,225-100.74,225-225S349.26,0,225,0,0,100.74,0,225,100.74,450,225,450Zm0-400A175,175,0,1,1,50,225,174.99976,174.99976,0,0,1,225,50Zm-12.5,50h25A12.5,12.5,0,0,1,250,112.5v125A12.5,12.5,0,0,1,237.5,250h-25A12.5,12.5,0,0,1,200,237.5v-125A12.5,12.5,0,0,1,212.5,100ZM225,295.55446H225A29.44551,29.44551,0,0,1,254.44554,325V325A29.44551,29.44551,0,0,1,225,354.44554H225A29.44551,29.44551,0,0,1,195.55446,325V325A29.44551,29.44551,0,0,1,225,295.55446Z"></path>
</symbol><symbol viewBox="0 0 450 450" id="hi-x-large-line">
  <path d="M260.35535,225.00008l106.066-106.066A25,25,0,0,0,331.066,83.57869L225,189.64461,118.934,83.57869a24.99988,24.99988,0,0,0-35.35535,0h0a25.0001,25.0001,0,0,0,0,35.35535l106.066,106.066-106.066,106.066a25,25,0,0,0,0,35.35528v.00006a25.0001,25.0001,0,0,0,35.35535,0L225,260.35536l106.066,106.066a25.00009,25.00009,0,0,0,35.35534,0v-.00006a24.99989,24.99989,0,0,0,0-35.35528Z"></path>
</symbol><symbol viewBox="0 0 450 450" id="hi-x-small-line">
  <path d="M331.066,295.71068,260.35534,225,331.066,154.28932a25,25,0,0,0,0-35.35534h0a25,25,0,0,0-35.35534,0L225,189.64466,154.28932,118.934a25,25,0,0,0-35.35534,0h0a25,25,0,0,0,0,35.35534L189.64466,225,118.934,295.71068A25,25,0,0,0,118.934,331.066h0a25,25,0,0,0,35.35529,0L225,260.35534,295.71068,331.066a25,25,0,0,0,35.35534,0h0A25,25,0,0,0,331.066,295.71068Z"></path>
</symbol><symbol viewBox="0 0 450 450" id="hi-zoom-fill">
  <path d="M442.68018,442.67993a25.01152,25.01152,0,0,1-35.36036,0L322.62988,357.99A199.06754,199.06754,0,0,1,200,400C89.54,400,0,310.46,0,200S89.54,0,200,0,400,89.54,400,200a199.06983,199.06983,0,0,1-42.00977,122.62988l84.69,84.69019A25.01152,25.01152,0,0,1,442.68018,442.67993Z"></path>
</symbol><symbol viewBox="0 0 450 450" id="hi-zoom-line">
  <path d="M442.678,407.32227,357.9895,322.63379A199.12334,199.12334,0,0,0,400.00024,200c0-110.457-89.54345-200-200-200-110.457,0-200,89.543-200,200s89.543,200,200,200A199.12334,199.12334,0,0,0,322.634,357.98926l84.68848,84.68847A25.00009,25.00009,0,0,0,442.678,407.32227ZM50.00024,200a150,150,0,1,1,150,150A149.99993,149.99993,0,0,1,50.00024,200Z"></path>
</symbol></svg>