<?xml version="1.0" standalone="no"?>
<!DOCTYPE svg PUBLIC "-//W3C//DTD SVG 1.1//EN" "http://www.w3.org/Graphics/SVG/1.1/DTD/svg11.dtd" >
<svg xmlns="http://www.w3.org/2000/svg">
<defs>
  <font id="Hypericons" horiz-adv-x="1000">
    <font-face font-family="Hypericons"
      units-per-em="1000" ascent="1000"
      descent="0" />
    <missing-glyph horiz-adv-x="0" />
    <glyph glyph-name="add-selection-base"
      unicode="&#xEA01;"
      horiz-adv-x="1000" d="M833.3333333333333 666.6666666666667H666.6666666666666V833.3333333333334C666.6666666666666 856.34375 648.0104166666666 875 625 875H166.6666666666667C143.65625 875 125 856.34375 125 833.3333333333334V375C125 351.9895833333334 143.65625 333.3333333333334 166.6666666666667 333.3333333333334H333.3333333333333V166.6666666666668C333.3333333333333 143.65625 351.9895833333333 125 375 125H833.3333333333333C856.34375 125 875 143.65625 875 166.6666666666668V625C875 648.0104166666667 856.34375 666.6666666666667 833.3333333333333 666.6666666666667z" />
    <glyph glyph-name="check-outline-base"
      unicode="&#xEA02;"
      horiz-adv-x="1000" d="M375 179.1666666666668C375 179.1666666666668 375 179.1666666666668 375 179.1666666666668C345.8333333333334 179.1666666666668 320.8333333333333 191.6666666666668 300 208.3333333333334L112.5 395.8333333333334C70.8333333333333 437.5 70.8333333333333 504.1666666666667 112.5 541.6666666666667C154.1666666666667 583.3333333333334 220.8333333333334 583.3333333333334 258.3333333333333 541.6666666666667L375 429.1666666666668L737.4999999999999 791.6666666666667C779.1666666666666 833.3333333333334 845.8333333333334 833.3333333333334 883.3333333333333 791.6666666666667C924.9999999999998 750 924.9999999999998 683.3333333333334 883.3333333333333 645.8333333333334L445.8333333333333 208.3333333333334C429.1666666666667 187.5 400 179.1666666666668 375 179.1666666666668zM375 220.8333333333334C375 220.8333333333334 375 220.8333333333334 375 220.8333333333334C358.3333333333333 220.8333333333334 341.6666666666667 229.1666666666668 329.1666666666667 237.5L141.6666666666667 425C116.6666666666667 450 116.6666666666667 487.5 141.6666666666667 512.5C166.6666666666667 537.5 204.1666666666667 537.5 229.1666666666667 512.5L375 370.8333333333334L766.6666666666665 762.5C791.6666666666666 787.5 829.1666666666665 787.5 854.1666666666666 762.5C879.1666666666666 737.5 879.1666666666666 700 854.1666666666666 675L416.6666666666667 237.5C408.3333333333333 225 391.6666666666667 220.8333333333334 375 220.8333333333334z" />
    <glyph glyph-name="check-base"
      unicode="&#xEA03;"
      horiz-adv-x="1000" d="M841.9595833333333 744.3033333333333C825.68375 760.5791666666667 799.3162499999999 760.5791666666667 783.0404166666666 744.3033333333333L382.8125 344.0754166666667L216.9595833333333 509.9283333333333C200.68375 526.2041666666667 174.31625 526.2041666666667 158.0404166666666 509.9283333333333S141.7645833333333 467.285 158.0404166666666 451.0091666666667L353.3529166666667 255.6966666666667C361.4908333333333 247.5587500000002 372.1516666666667 243.4895833333334 382.8125 243.4895833333334S404.1341666666667 247.5587500000002 412.2720833333333 255.6966666666667L841.9595833333333 685.3841666666667C858.2354166666665 701.6600000000001 858.2354166666665 728.0275 841.9595833333333 744.3033333333334z" />
    <glyph glyph-name="circle-fill-base"
      unicode="&#xEA04;"
      horiz-adv-x="1000" d="M83.3333333333333 500A416.6666666666667 416.6666666666667 0 0 1 916.6666666666666 500A416.6666666666667 416.6666666666667 0 0 1 83.3333333333333 500" />
    <glyph glyph-name="circle-line-base"
      unicode="&#xEA05;"
      horiz-adv-x="1000" d="M500 83.3333333333334C270.2433333333333 83.3333333333334 83.3333333333333 270.2433333333334 83.3333333333333 500S270.2433333333333 916.6666666666666 500 916.6666666666666S916.6666666666666 729.7566666666667 916.6666666666666 500S729.7566666666667 83.3333333333334 500 83.3333333333334zM500 833.3333333333334C316.2029166666666 833.3333333333334 166.6666666666667 683.7970833333334 166.6666666666667 500S316.2029166666666 166.6666666666668 500 166.6666666666668S833.3333333333333 316.2029166666668 833.3333333333333 500S683.7970833333333 833.3333333333334 500 833.3333333333334z" />
    <glyph glyph-name="circle-marquee-base"
      unicode="&#xEA06;"
      horiz-adv-x="1000" d="M178.2225 651.02C171.0204166666666 651.02 163.7166666666667 652.8916666666667 157.06375 656.8183333333334C137.2475 668.5166666666667 130.67625 694.07 142.395 713.88625C159.4441666666666 742.7354166666667 180.64375 769.89625 205.40375 794.6358333333334C229.35 818.6225000000001 256.1645833333333 839.7204166666667 285.0341666666667 857.31875C304.7079166666666 869.3629166666667 330.3020833333333 863.0762500000001 342.3054166666666 843.4229166666667C354.2683333333333 823.7695833333333 348.0629166666666 798.135 328.4095833333332 786.1516666666666C305.1958333333333 772.0116666666668 283.6299999999999 755.0237500000001 264.3225 735.7162500000001C244.48625 715.9000000000001 227.6199999999999 694.29375 214.1312499999999 671.4870833333334C206.3595833333333 658.32375 192.4841666666666 651.02 178.2220833333333 651.02zM307.27125 136.5954166666667C300.0691666666666 136.5954166666667 292.7654166666666 138.4670833333333 286.1125 142.39375C257.2633333333333 159.4429166666666 230.1025 180.6425000000001 205.3629166666667 205.4025C181.37625 229.34875 160.2783333333333 256.1633333333333 142.68 285.0329166666667C130.7170833333333 304.68625 136.9225 330.3208333333334 156.5758333333333 342.3041666666667C176.20875 354.3483333333334 201.86375 348.0616666666667 213.8470833333333 328.4083333333333C227.9870833333333 305.1945833333333 244.975 283.62875 264.2825 264.32125C284.09875 244.485 305.705 227.61875 328.5116666666666 214.13C348.3279166666666 202.4316666666666 354.8991666666666 176.8783333333333 343.1804166666666 157.0620833333333C335.40875 143.8987500000001 321.5333333333333 136.595 307.27125 136.595zM693.3187499999999 136.5954166666667C679.2604166666666 136.5954166666667 665.5479166666667 143.6958333333333 657.6945833333333 156.5741666666666C645.7316666666667 176.2274999999999 651.9370833333332 201.8620833333332 671.5904166666666 213.8454166666667C694.8041666666667 227.9854166666666 716.3699999999999 244.9733333333334 735.6774999999999 264.2808333333334C755.51375 284.0970833333334 772.3799999999999 305.7033333333334 785.86875 328.51C797.5670833333332 348.3058333333333 823.1 354.8566666666667 842.9366666666666 343.1787499999999C862.7529166666666 331.4804166666667 869.3241666666665 305.9270833333334 857.6054166666665 286.1108333333334C840.5562499999999 257.2616666666667 819.3566666666666 230.1008333333334 794.5966666666666 205.3612500000001C770.6504166666666 181.3745833333335 743.8358333333332 160.2766666666668 714.96625 142.6783333333334C708.1912499999999 138.5483333333334 700.7041666666667 136.595 693.3191666666665 136.595zM821.7775 651.6100000000001C807.7191666666668 651.6100000000001 794.0066666666667 658.7104166666668 786.1533333333333 671.5887500000001C772.0133333333333 694.8025 755.0254166666666 716.3683333333333 735.7179166666666 735.6758333333335C715.9016666666665 755.5120833333334 694.2954166666665 772.3783333333334 671.48875 785.8670833333333C651.6724999999999 797.5654166666667 645.1012499999999 823.1187500000001 656.8199999999999 842.9350000000001C668.53875 862.77125 694.0716666666665 869.3225 713.8879166666666 857.60375C742.7370833333332 840.5545833333333 769.8979166666666 819.355 794.6374999999998 794.595C818.6241666666664 770.6487500000001 839.7220833333331 743.8341666666668 857.3204166666666 714.9645833333334C869.2833333333332 695.31125 863.0779166666665 669.6766666666667 843.4245833333332 657.6933333333334C836.6495833333331 653.5633333333334 829.1624999999999 651.6099999999999 821.7774999999998 651.6099999999999z" />
    <glyph glyph-name="circle-marquee-accent"
      unicode="&#xEA07;"
      horiz-adv-x="1000" d="M458.3941666666666 830.4433333333334C437.7845833333333 830.4433333333334 419.8808333333334 845.7225000000001 417.1345833333333 866.71875C414.1641666666667 889.5254166666667 430.2366666666666 910.4404166666666 453.0637499999999 913.4308333333335C484.45625 917.52 515.9708333333332 917.6420833333334 546.4883333333332 913.75625C569.3154166666666 910.8470833333334 585.4695833333333 889.9933333333333 582.5804166666667 867.16625C579.67125 844.31875 558.2679166666666 828.2258333333333 535.9904166666666 831.0741666666667C512.4716666666666 834.1054166666667 488.2204166666667 833.9833333333333 463.8466666666666 830.7891666666667C462.0154166666666 830.5654166666667 460.2049999999999 830.4433333333334 458.3941666666666 830.4433333333334zM872.4770833333333 417.0929166666667C870.7070833333332 417.0929166666667 868.9370833333334 417.1945833333334 867.1670833333333 417.4183333333333C844.3399999999999 420.3275 828.1858333333333 441.18125 831.075 464.0083333333333C834.0658333333333 487.5270833333334 833.9841666666667 511.79875 830.79 536.1520833333334C827.8195833333333 558.95875 843.8920833333334 579.87375 866.7191666666668 582.8641666666667C889.4241666666668 585.93625 910.4608333333334 569.7825 913.43125 546.9350000000001C917.5204166666668 515.5220833333334 917.6425 484.0891666666668 913.7566666666665 453.5104166666667C911.07125 432.4533333333335 893.1470833333333 417.0929166666667 872.4766666666667 417.0929166666667zM498.6570833333333 83.4133333333333C483.4591666666666 83.4133333333333 468.38375 84.3491666666666 453.51125 86.2616666666665C430.6841666666667 89.1508333333333 414.5300000000001 110.0245833333332 417.4191666666667 132.8316666666666C420.3283333333333 155.6995833333332 441.42625 171.7924999999999 464.0091666666667 168.9237499999998C487.5074999999999 165.9124999999999 511.7995833333333 166.0345833333332 536.1529166666667 169.2087499999999C558.9191666666667 171.7924999999999 579.8745833333334 156.1270833333332 582.865 133.2795833333332C585.8354166666667 110.4729166666665 569.7629166666667 89.5579166666664 546.9358333333333 86.5874999999999C530.8225 84.4716666666666 514.66875 83.4137499999998 498.6570833333334 83.4137499999998zM127.8279166666667 416.7875C107.2183333333333 416.7875 89.3145833333334 432.0666666666667 86.5683333333333 453.0629166666666C82.4791666666667 484.4758333333333 82.3570833333333 515.90875 86.2429166666667 546.4875000000001C89.1520833333333 569.3554166666668 110.2295833333333 585.5091666666667 132.8329166666667 582.5795833333334C155.66 579.6704166666667 171.8141666666667 558.8166666666668 168.925 535.9895833333335C165.9341666666667 512.4708333333333 166.0158333333333 488.1991666666668 169.21 463.8458333333334C172.1804166666667 441.0391666666668 156.1079166666667 420.1241666666667 133.2808333333333 417.1337500000001C131.4495833333333 416.8895833333334 129.6391666666667 416.7879166666667 127.8283333333333 416.7879166666667z" />
    <glyph glyph-name="circle-small-fill-base"
      unicode="&#xEA08;"
      horiz-adv-x="1000" d="M208.3333333333333 500A291.6666666666667 291.6666666666667 0 0 1 791.6666666666666 500A291.6666666666667 291.6666666666667 0 0 1 208.3333333333333 500" />
    <glyph glyph-name="circle-small-line-base"
      unicode="&#xEA09;"
      horiz-adv-x="1000" d="M500 708.3333333333334C614.875 708.3333333333334 708.3333333333333 614.8758333333334 708.3333333333333 500S614.875 291.6666666666668 500 291.6666666666668S291.6666666666667 385.1241666666667 291.6666666666667 500S385.125 708.3333333333334 500 708.3333333333334M500 791.6666666666667C338.9166666666667 791.6666666666667 208.3333333333333 661.0833333333333 208.3333333333333 500S338.9166666666667 208.3333333333334 500 208.3333333333334S791.6666666666666 338.9166666666668 791.6666666666666 500S661.0833333333333 791.6666666666667 500 791.6666666666667H500z" />
    <glyph glyph-name="cloud-base"
      unicode="&#xEA0A;"
      horiz-adv-x="1000" d="M791.2849999999999 492.4416666666667C791.3612499999999 494.9745833333334 791.6666666666666 497.4491666666667 791.6666666666666 500C791.6666666666666 637.8579166666667 679.5245833333332 750 541.6666666666666 750C432.5283333333333 750 339.7495833333333 679.5983333333334 305.73 581.9116666666666C301.0175 582.3133333333333 296.4833333333333 583.3333333333334 291.6666666666667 583.3333333333334C199.7679166666667 583.3333333333334 125 508.5654166666667 125 416.6666666666668S199.7679166666667 250 291.6666666666667 250H750C818.9291666666666 250 875 306.0708333333335 875 375C875 429.3900000000001 839.8791666666666 475.2933333333334 791.2849999999999 492.4416666666667z" />
    <glyph glyph-name="eraser-base"
      unicode="&#xEA0B;"
      horiz-adv-x="1000" d="M862.7904166666666 571.0979166666667L571.12375 862.7645833333333C554.85375 879.0345833333333 528.4745833333333 879.0345833333333 512.2045833333333 862.7645833333333L327.2291666666667 677.7891666666667C319.0933333333333 669.6533333333334 319.0933333333333 656.4625000000001 327.2291666666667 648.3262500000001L648.3525 327.2029166666666C656.4883333333332 319.0670833333333 669.6791666666666 319.0670833333333 677.8154166666666 327.2029166666666L862.7912499999999 512.17875C879.0612499999999 528.44875 879.0612499999999 554.8279166666666 862.7912499999999 571.0979166666667z" />
    <glyph glyph-name="eraser-accent"
      unicode="&#xEA0C;"
      horiz-adv-x="1000" d="M238.8470833333334 589.4070833333334L161.61875 512.17875C112.8029166666667 463.3629166666667 112.8029166666667 384.2166666666668 161.61875 335.4004166666668L335.4266666666666 161.5925000000002C359.8 137.2191666666669 391.8029166666666 125.0325000000002 423.8258333333333 125.0325000000002C455.8287499999999 125.0325000000002 487.8312499999999 137.2191666666669 512.2045833333333 161.5925000000002L589.4329166666665 238.8208333333336C597.5687499999999 246.956666666667 597.5687499999999 260.1475000000002 589.4329166666665 268.2837500000002L268.3095833333333 589.4070833333335C260.17375 597.5429166666668 246.9829166666666 597.5429166666668 238.8466666666666 589.4070833333335z" />
    <glyph glyph-name="export-base"
      unicode="&#xEA0D;"
      horiz-adv-x="1000" d="M529.4595833333333 862.7929166666667C521.3216666666666 870.9308333333333 510.6608333333333 875 500 875S478.6783333333333 870.9308333333333 470.5404166666667 862.7929166666667L283.0404166666667 675.2929166666667C271.1183333333334 663.3708333333334 267.5579166666667 645.4670833333332 274.0070833333334 629.8829166666667C280.4566666666667 614.3187499999999 295.6541666666667 604.1666666666666 312.5 604.1666666666666H416.6666666666667V312.5C416.6666666666667 289.4895833333334 435.3229166666667 270.8333333333334 458.3333333333333 270.8333333333334H541.6666666666666C564.6770833333334 270.8333333333334 583.3333333333333 289.4895833333334 583.3333333333333 312.5V604.1666666666667H687.5C704.3458333333333 604.1666666666667 719.5433333333333 614.31875 725.9929166666666 629.8829166666667C732.4424999999999 645.4670833333334 728.8820833333333 663.3708333333334 716.9595833333333 675.2929166666668L529.4595833333333 862.7929166666667z" />
    <glyph glyph-name="export-accent"
      unicode="&#xEA0E;"
      horiz-adv-x="1000" d="M833.3333333333333 416.6666666666668C810.3229166666666 416.6666666666668 791.6666666666666 398.0104166666668 791.6666666666666 375V250C791.6666666666666 227.0304166666667 772.9695833333333 208.3333333333334 750 208.3333333333334H250C227.0304166666667 208.3333333333334 208.3333333333333 227.0304166666667 208.3333333333333 250V375C208.3333333333333 398.0104166666668 189.6770833333333 416.6666666666668 166.6666666666667 416.6666666666668S125 398.0104166666668 125 375V250C125 181.0708333333335 181.0708333333333 125 250 125H750C818.9291666666666 125 875 181.0708333333335 875 250V375C875 398.0104166666668 856.34375 416.6666666666668 833.3333333333333 416.6666666666668z" />
    <glyph glyph-name="eye-crossed-base"
      unicode="&#xEA0F;"
      horiz-adv-x="1000" d="M772.1491666666667 375.1491666666667C781.0708333333334 366.2275000000001 795.6195833333333 367.365 803.49 377.2266666666667C812.2045833333334 388.1458333333334 820.4366666666666 399.5500000000001 827.90125 411.6820833333334L868.8149999999999 478.1695833333333C877.0533333333333 491.5570833333334 877.0533333333333 508.4425 868.8149999999999 521.83L839.2208333333332 569.9225000000001C797.5787499999998 637.5941666666668 739.6579166666664 694.9641666666666 668.6062499999998 730.53375C585.2608333333332 772.2575 503.9404166666665 779.1070833333333 428.9195833333332 764.7025000000001C412.4408333333331 761.5383333333334 406.1708333333331 741.1270833333334 418.0358333333332 729.2620833333334L772.1487499999997 375.1491666666667zM227.8508333333334 624.8508333333334C218.9291666666667 633.7725 204.3804166666666 632.6350000000001 196.51 622.7733333333333C187.7954166666667 611.8541666666667 179.5633333333333 600.45 172.09875 588.3179166666666L131.185 521.8304166666667C122.9466666666667 508.4429166666666 122.9466666666667 491.5575000000001 131.185 478.17L160.7791666666667 430.0775C202.42125 362.4058333333334 260.3420833333334 305.0358333333334 331.39375 269.46625C414.7391666666666 227.7425 496.0595833333333 220.8929166666667 571.0804166666667 235.2975C587.5591666666667 238.4616666666667 593.8291666666667 258.8729166666667 581.9641666666666 270.7379166666668L227.8508333333334 624.8508333333334z" />
    <glyph glyph-name="eye-crossed-accent"
      unicode="&#xEA10;"
      horiz-adv-x="1000" d="M821.1262499999999 237.7929166666667L237.7929166666667 821.12625C221.5170833333333 837.4020833333334 195.1495833333333 837.4020833333334 178.87375 821.12625S162.5979166666666 778.4829166666666 178.87375 762.2070833333333L762.2070833333333 178.8737500000001C770.3449999999999 170.7358333333334 781.0058333333334 166.6666666666668 791.6666666666666 166.6666666666668S812.9883333333333 170.7358333333334 821.1262499999999 178.8737500000001C837.4020833333332 195.1495833333334 837.4020833333332 221.5170833333334 821.1262499999999 237.7929166666667z" />
    <glyph glyph-name="eye-base"
      unicode="&#xEA11;"
      horiz-adv-x="1000" d="M868.7491666666666 521.66625L827.9166666666665 588.3320833333333C757.4999999999998 702.9154166666667 634.5829166666665 771.66625 499.9999999999998 771.66625S242.5004166666665 702.9154166666667 172.0833333333332 588.3320833333333L131.2508333333332 521.66625C122.9170833333332 508.3325 122.9170833333332 491.665 131.2508333333332 478.33375L172.0833333333332 411.6654166666667C242.4999999999999 297.0820833333334 365.4170833333332 228.33375 499.9999999999998 228.33375S757.4995833333331 297.0820833333334 827.9166666666665 411.6654166666667L868.7491666666666 478.33375C877.0829166666665 491.665 877.0829166666665 508.3325 868.7491666666666 521.66625zM499.9999999999999 343.7487500000001C413.7495833333333 343.7487500000001 343.7499999999999 413.7483333333335 343.7499999999999 499.9987500000001S413.7495833333333 656.2487500000001 499.9999999999999 656.2487500000001S656.2499999999999 586.2491666666667 656.2499999999999 499.9987500000001S586.2504166666665 343.7487500000001 499.9999999999999 343.7487500000001z" />
    <glyph glyph-name="eye-accent"
      unicode="&#xEA12;"
      horiz-adv-x="1000" d="M406.25 499.99875A93.75 93.75 0 0 1 593.75 499.99875A93.75 93.75 0 0 1 406.25 499.99875" />
    <glyph glyph-name="eyedropper-base"
      unicode="&#xEA13;"
      horiz-adv-x="1000" d="M850.4912499999999 666.7704166666667L746.7416666666667 562.60375L779.6600000000001 529.6879166666668C795.9079166666667 513.4375 795.9079166666667 486.77 779.6600000000001 470.5220833333333C771.3262500000001 462.6054166666667 760.9095833333334 458.4370833333334 750.0758333333334 458.4370833333334S728.8254166666667 462.6054166666667 720.4916666666667 470.5220833333333L470.4916666666667 720.5220833333333C454.24375 736.77 454.24375 763.4375 470.4916666666667 779.6879166666666C486.7420833333334 795.9383333333333 513.4095833333334 795.9383333333333 529.6600000000001 779.6879166666666L562.5758333333334 746.7720833333333L666.7425000000001 850.5216666666666C699.2437500000001 883.0204166666666 752.15875 883.0204166666666 784.6600000000001 850.5216666666666L850.4916666666668 784.6875C882.9929166666667 752.18625 882.9929166666667 699.27125 850.4916666666668 666.77z" />
    <glyph glyph-name="eyedropper-accent"
      unicode="&#xEA14;"
      horiz-adv-x="1000" d="M459.3899999999999 614.12375L614.0954166666666 459.4204166666667C622.2312499999999 451.2845833333334 622.2316666666667 438.0933333333334 614.0954166666666 429.9575L342.1599999999999 158.0220833333334C335.4920833333333 151.77125 327.575 147.6054166666667 318.4095833333333 146.3541666666666L172.5762499999999 125.5208333333334C170.4933333333333 125.10375 168.825 125.10375 166.7424999999999 125.10375C155.90875 125.10375 145.0749999999999 129.2720833333333 137.1583333333333 137.18875C127.9929166666666 146.7712500000001 123.8245833333333 159.6879166666667 125.4929166666666 172.6045833333333L146.3262499999999 318.4379166666667C147.5749999999999 327.6033333333333 151.7429166666666 335.52 157.9916666666666 342.1883333333333L429.9270833333333 614.12375C438.0629166666666 622.2595833333332 451.2537499999999 622.2595833333332 459.3895833333333 614.12375z" />
    <glyph glyph-name="file-base"
      unicode="&#xEA15;"
      horiz-adv-x="1000" d="M500 541.6666666666667C477.0833333333333 541.6666666666667 458.3333333333333 560.4166666666667 458.3333333333333 583.3333333333334V895.8333333333334C458.3333333333333 907.3391666666666 449.0058333333334 916.6666666666666 437.5 916.6666666666666H250C204.1666666666667 916.6666666666666 166.6666666666667 879.1666666666666 166.6666666666667 833.3333333333334V166.6666666666668C166.6666666666667 120.8333333333334 204.1666666666667 83.3333333333334 250 83.3333333333334H750C795.8333333333334 83.3333333333334 833.3333333333333 120.8333333333334 833.3333333333333 166.6666666666668V520.8333333333334C833.3333333333333 532.3391666666666 824.0058333333334 541.6666666666667 812.5 541.6666666666667H500z" />
    <glyph glyph-name="file-accent"
      unicode="&#xEA16;"
      horiz-adv-x="1000" d="M797.76625 660.5645833333333L577.2316666666667 881.1016666666667C564.1075 894.2258333333333 541.6666666666666 884.9308333333333 541.6666666666666 866.3704166666666V625H783.0345833333333C801.5950000000001 625 810.8904166666667 647.4404166666667 797.7662500000001 660.5645833333333z" />
    <glyph glyph-name="fill-base"
      unicode="&#xEA17;"
      horiz-adv-x="1000" d="M779.4791666666666 487.9175L487.8124999999999 779.5841666666666C487.5962499999999 779.8004166666667 487.29625 779.86125 487.075 780.0725L404.3545833333333 862.7929166666667C388.07875 879.06875 361.7112499999999 879.06875 345.4354166666667 862.7929166666667S329.1595833333333 820.1495833333333 345.4354166666667 803.87375L399.2075 750.1016666666667L161.5620833333333 512.085C112.8129166666667 463.3333333333334 112.8129166666667 384.1679166666667 161.5620833333333 335.41625L335.3112500000001 161.6670833333334C384.0604166666667 112.9179166666667 463.2283333333334 112.9179166666667 511.9775 161.6670833333334L779.4791666666666 428.7516666666666C795.7270833333332 444.9995833333333 795.7270833333332 471.6670833333333 779.4791666666666 487.9174999999999z" />
    <glyph glyph-name="fill-accent"
      unicode="&#xEA18;"
      horiz-adv-x="1000" d="M776.7958333333333 360.2687500000001L732.6258333333334 316.09875C700.0958333333334 283.56875 700.0958333333334 230.8266666666666 732.6258333333334 198.2966666666668H732.6258333333334C765.1558333333332 165.7662500000001 817.8979166666667 165.7662500000001 850.4279166666666 198.2966666666668H850.4279166666666C882.9579166666666 230.8270833333333 882.9579166666666 283.56875 850.4279166666666 316.0991666666667L806.2579166666667 360.2691666666666C798.1220833333333 368.4049999999999 784.9312500000001 368.4049999999999 776.795 360.2691666666666z" />
    <glyph glyph-name="gear-base"
      unicode="&#xEA19;"
      horiz-adv-x="1000" d="M840.4158333333332 432.0833333333334L823.7508333333333 446.2512500000001L790.4154166666666 475.00125C791.2495833333332 483.335 791.6666666666666 491.66625 791.6666666666666 500.0004166666667S791.2495833333332 516.6679166666667 790.4154166666666 525.0020833333333L823.7508333333333 553.7520833333333L840.4158333333332 567.9175L850.0008333333332 576.25125C865.0004166666665 589.585 868.7487499999999 611.2525 858.7491666666665 628.7516666666666L841.667083333333 658.3333333333333L819.1654166666664 697.0854166666666L807.917083333333 716.6675L790.8324999999998 746.2516666666667C780.8329166666664 763.7508333333333 759.9995833333331 771.2508333333333 741.2491666666663 764.9995833333332L708.7504166666664 753.75125L667.0837499999997 739.16625C653.3329166666664 748.75125 638.750833333333 757.0849999999999 623.7487499999997 764.1679166666667L615.4174999999998 807.5004166666666L608.749583333333 841.2504166666666C605.000833333333 860.8349999999999 587.9162499999998 875.0004166666666 567.917083333333 875.0004166666666H432.0833333333332C412.0841666666665 875.0004166666666 394.9995833333332 860.8349999999999 391.2508333333332 841.2504166666666L384.5829166666665 807.5004166666666L376.2516666666665 764.1679166666667C361.2495833333332 757.0854166666667 346.6674999999998 748.75125 332.9166666666665 739.16625L291.2499999999999 753.75125L258.7512499999998 764.9995833333332C240.0008333333332 771.2504166666666 219.1674999999999 763.7508333333333 209.1679166666665 746.2516666666667L192.0833333333332 716.6675L175.4183333333332 687.5004166666666L158.3337499999999 658.3333333333333L141.2516666666665 628.7516666666666C131.2520833333332 611.2524999999999 135.0008333333332 589.585 149.9999999999999 576.25125L159.5849999999999 567.9175L176.2499999999999 553.7520833333333L209.5854166666665 525.0020833333333C208.7512499999999 516.6683333333333 208.3341666666665 508.3345833333333 208.3341666666665 500.0004166666667S208.7512499999999 483.3354166666667 209.5854166666665 475.00125L176.2499999999999 446.2512500000001L159.5849999999999 432.0833333333334L149.9999999999999 423.7520833333333C135.0004166666666 410.4183333333334 131.2520833333332 388.7508333333334 141.2516666666665 371.2516666666667L158.3337499999999 341.6675L175.4183333333332 312.5004166666667L192.0833333333332 283.3333333333334L209.1679166666665 253.7516666666668C219.1674999999999 236.2525000000002 240.0008333333332 228.7500000000001 258.7512499999998 235.0012500000002L291.2499999999999 246.2520833333334L332.9166666666665 260.8345833333334C346.6674999999998 251.2520833333333 361.2495833333332 242.9183333333334 376.2516666666665 235.8354166666668L384.5829166666665 192.5004166666668L391.2508333333332 158.7504166666668C394.9995833333332 139.1683333333334 412.0841666666665 125.0004166666669 432.0833333333332 125.0004166666669H567.917083333333C587.9162499999998 125.0004166666669 605.000833333333 139.1683333333334 608.749583333333 158.7504166666668L615.4174999999998 192.5004166666668L623.7487499999997 235.8354166666668C638.750833333333 242.9179166666668 653.3329166666664 251.2520833333336 667.0837499999997 260.8345833333334L708.7504166666664 246.2520833333334L741.2491666666663 235.0012500000002C759.9995833333329 228.7504166666668 780.8329166666663 236.2525000000002 790.8324999999998 253.7516666666668L807.917083333333 283.3333333333334L819.1654166666664 302.9179166666668L841.667083333333 341.6675000000002L858.7491666666665 371.2516666666668C868.7487499999997 388.7508333333335 864.9999999999999 410.4183333333334 850.0008333333332 423.7520833333334L840.4158333333332 432.0833333333334zM499.9999999999999 343.75C413.7495833333333 343.75 343.7499999999999 413.7495833333334 343.7499999999999 500S413.7495833333333 656.25 499.9999999999999 656.25S656.2499999999999 586.2504166666668 656.2499999999999 500S586.2504166666665 343.75 499.9999999999999 343.75z" />
    <glyph glyph-name="gear-accent"
      unicode="&#xEA1A;"
      horiz-adv-x="1000" d="M406.25 500A93.75 93.75 0 0 1 593.75 500A93.75 93.75 0 0 1 406.25 500" />
    <glyph glyph-name="import-base"
      unicode="&#xEA1B;"
      horiz-adv-x="1000" d="M470.5404166666667 283.0404166666667C478.6783333333333 274.9025000000002 489.3391666666666 270.8333333333334 500 270.8333333333334S521.3216666666666 274.9025000000002 529.4595833333333 283.0404166666667L716.9595833333333 470.5404166666667C728.8816666666667 482.4625000000001 732.4420833333334 500.3662500000001 725.9929166666666 515.9504166666668C719.5433333333333 531.5145833333333 704.3458333333333 541.6666666666667 687.5 541.6666666666667H583.3333333333333V833.3333333333334C583.3333333333333 856.34375 564.6770833333334 875 541.6666666666666 875H458.3333333333333C435.3229166666667 875 416.6666666666667 856.34375 416.6666666666667 833.3333333333334V541.6666666666667H312.5C295.6541666666667 541.6666666666667 280.4566666666667 531.5145833333333 274.0070833333334 515.9504166666667C267.5575 500.36625 271.1179166666667 482.4625 283.0404166666667 470.5404166666666L470.5404166666667 283.0404166666666z" />
    <glyph glyph-name="import-accent"
      unicode="&#xEA1C;"
      horiz-adv-x="1000" d="M833.3333333333333 416.6666666666668C810.3229166666666 416.6666666666668 791.6666666666666 398.0104166666668 791.6666666666666 375V250C791.6666666666666 227.0304166666667 772.9695833333333 208.3333333333334 750 208.3333333333334H250C227.0304166666667 208.3333333333334 208.3333333333333 227.0304166666667 208.3333333333333 250V375C208.3333333333333 398.0104166666668 189.6770833333333 416.6666666666668 166.6666666666667 416.6666666666668S125 398.0104166666668 125 375V250C125 181.0708333333335 181.0708333333333 125 250 125H750C818.9291666666666 125 875 181.0708333333335 875 250V375C875 398.0104166666668 856.34375 416.6666666666668 833.3333333333333 416.6666666666668z" />
    <glyph glyph-name="intersect-selection-base"
      unicode="&#xEA1D;"
      horiz-adv-x="1000" d="M375 666.6666666666667H625A41.6666666666667 41.6666666666667 0 0 0 666.6666666666666 625V375A41.6666666666667 41.6666666666667 0 0 0 625 333.3333333333334H375A41.6666666666667 41.6666666666667 0 0 0 333.3333333333333 375V625A41.6666666666667 41.6666666666667 0 0 0 375 666.6666666666667z" />
    <glyph glyph-name="intersect-selection-accent"
      unicode="&#xEA1E;"
      horiz-adv-x="1000" d="M229.1666666666667 416.6666666666668H208.3333333333333V436.9708333333333C208.3333333333333 459.98125 189.6770833333333 478.6375 166.6666666666667 478.6375S125 459.98125 125 436.9708333333333V375C125 351.9895833333334 143.65625 333.3333333333334 166.6666666666667 333.3333333333334H229.1666666666667C252.1770833333333 333.3333333333334 270.8333333333333 351.9895833333334 270.8333333333333 375S252.1770833333333 416.6666666666668 229.1666666666667 416.6666666666668zM229.6958333333333 875H166.6666666666667C143.65625 875 125 856.34375 125 833.3333333333334V770.8333333333334C125 747.8229166666667 143.65625 729.1666666666667 166.6666666666667 729.1666666666667S208.3333333333333 747.8229166666667 208.3333333333333 770.8333333333334V791.6666666666667H229.6958333333333C252.70625 791.6666666666667 271.3625 810.3229166666667 271.3625 833.3333333333334S252.70625 875 229.6958333333333 875zM375 791.6666666666667H416.6666666666667C439.6770833333333 791.6666666666667 458.3333333333333 810.3229166666667 458.3333333333333 833.3333333333334S439.6770833333333 875 416.6666666666667 875H375C351.9895833333333 875 333.3333333333333 856.34375 333.3333333333333 833.3333333333334S351.9895833333333 791.6666666666667 375 791.6666666666667zM625 875H563.0291666666667C540.01875 875 521.3625 856.34375 521.3625 833.3333333333334S540.01875 791.6666666666667 563.0291666666667 791.6666666666667H583.3333333333333V770.8333333333334C583.3333333333333 747.8229166666667 601.9895833333333 729.1666666666667 625 729.1666666666667S666.6666666666666 747.8229166666667 666.6666666666666 770.8333333333334V833.3333333333334C666.6666666666666 856.34375 648.0104166666666 875 625 875zM166.6666666666667 541.6666666666667C189.6770833333333 541.6666666666667 208.3333333333333 560.3229166666667 208.3333333333333 583.3333333333334V625C208.3333333333333 648.0104166666667 189.6770833333333 666.6666666666667 166.6666666666667 666.6666666666667S125 648.0104166666667 125 625V583.3333333333334C125 560.3229166666667 143.65625 541.6666666666667 166.6666666666667 541.6666666666667zM833.3333333333333 666.6666666666667H770.8333333333333C747.8229166666666 666.6666666666667 729.1666666666666 648.0104166666667 729.1666666666666 625S747.8229166666666 583.3333333333334 770.8333333333333 583.3333333333334H791.6666666666666V563.0291666666667C791.6666666666666 540.01875 810.3229166666666 521.3625000000001 833.3333333333333 521.3625000000001S875 540.01875 875 563.0291666666667V625C875 648.0104166666667 856.34375 666.6666666666667 833.3333333333333 666.6666666666667zM833.3333333333333 270.8333333333334C810.3229166666666 270.8333333333334 791.6666666666666 252.1770833333334 791.6666666666666 229.1666666666668V208.3333333333334H770.3041666666667C747.2937499999999 208.3333333333334 728.6375 189.6770833333334 728.6375 166.6666666666668S747.2937499999999 125 770.3041666666667 125H833.3333333333333C856.34375 125 875 143.65625 875 166.6666666666668V229.1666666666668C875 252.1770833333334 856.34375 270.8333333333334 833.3333333333333 270.8333333333334zM625 208.3333333333334H583.3333333333333C560.3229166666666 208.3333333333334 541.6666666666666 189.6770833333334 541.6666666666666 166.6666666666668S560.3229166666666 125 583.3333333333333 125H625C648.0104166666666 125 666.6666666666666 143.65625 666.6666666666666 166.6666666666668S648.0104166666666 208.3333333333334 625 208.3333333333334zM436.9708333333333 208.3333333333334H416.6666666666667V229.1666666666668C416.6666666666667 252.1770833333334 398.0104166666667 270.8333333333334 375 270.8333333333334S333.3333333333333 252.1770833333334 333.3333333333333 229.1666666666668V166.6666666666668C333.3333333333333 143.65625 351.9895833333333 125 375 125H436.9708333333333C459.98125 125 478.6374999999999 143.65625 478.6374999999999 166.6666666666668S459.98125 208.3333333333334 436.9708333333333 208.3333333333334zM833.3333333333333 458.3333333333334C810.3229166666666 458.3333333333334 791.6666666666666 439.6770833333334 791.6666666666666 416.6666666666668V375C791.6666666666666 351.9895833333334 810.3229166666666 333.3333333333334 833.3333333333333 333.3333333333334S875 351.9895833333334 875 375V416.6666666666668C875 439.6770833333334 856.34375 458.3333333333334 833.3333333333333 458.3333333333334z" />
    <glyph glyph-name="layer-base"
      unicode="&#xEA1F;"
      horiz-adv-x="1000" d="M148.0304166666667 629.3945833333333L481.36375 462.7279166666667C487.2229166666667 459.7983333333334 493.6116666666667 458.3333333333334 500 458.3333333333334S512.7766666666666 459.7983333333333 518.6362499999999 462.7279166666667L851.9695833333333 629.3945833333333C866.0891666666666 636.4541666666667 875 650.8787500000001 875 666.6666666666667S866.08875 696.8791666666667 851.9695833333333 703.93875L518.6362499999999 870.6054166666667C506.9175 876.4645833333334 493.0829166666666 876.4645833333334 481.3641666666666 870.6054166666667L148.0304166666667 703.93875C133.9108333333333 696.8791666666666 125 682.4545833333334 125 666.6666666666667S133.91125 636.4541666666667 148.0304166666667 629.3945833333333z" />
    <glyph glyph-name="layer-accent"
      unicode="&#xEA20;"
      horiz-adv-x="1000" d="M814.6970833333334 370.6054166666667L500 213.2566666666667L185.3029166666667 370.6054166666667C164.6729166666667 380.9408333333334 139.6891666666666 372.5383333333334 129.3945833333333 351.9691666666668C119.1 331.38 127.44125 306.3554166666668 148.0308333333333 296.0608333333335L481.3641666666666 129.3941666666667C487.2233333333333 126.4645833333334 493.6120833333333 124.9995833333334 500.0004166666666 124.9995833333334S512.7770833333333 126.4645833333334 518.6366666666667 129.3941666666667L851.9699999999999 296.0608333333335C872.5591666666667 306.3554166666668 880.9008333333333 331.3800000000001 870.6062499999999 351.9691666666668C860.3116666666665 372.5379166666668 835.3279166666666 380.9404166666667 814.6979166666666 370.6054166666667zM814.6970833333334 537.2720833333333L500 379.9233333333334L185.3029166666667 537.2720833333333C164.6729166666667 547.5666666666667 139.6891666666666 539.205 129.3945833333333 518.6358333333334C119.1 498.0466666666667 127.44125 473.0220833333334 148.0308333333333 462.7275000000001L481.3641666666666 296.0608333333335C487.2233333333333 293.1312500000002 493.6120833333333 291.6662500000001 500.0004166666666 291.6662500000001S512.7770833333333 293.1312500000002 518.6366666666667 296.0608333333335L851.9699999999999 462.7275000000001C872.5591666666667 473.0220833333334 880.9008333333333 498.0466666666667 870.6062499999999 518.6358333333334C860.3116666666665 539.2045833333334 835.3279166666666 547.5666666666667 814.6979166666666 537.2720833333333z" />
    <glyph glyph-name="line-base"
      unicode="&#xEA21;"
      horiz-adv-x="1000" d="M333.3333333333333 125H166.6666666666667C143.65625 125 125 143.65625 125 166.6666666666668V333.3333333333334C125 356.3437500000001 143.65625 375 166.6666666666667 375H333.3333333333333C356.34375 375 375 356.3437500000001 375 333.3333333333334V166.6666666666668C375 143.65625 356.34375 125 333.3333333333333 125zM208.3333333333333 208.3333333333334H291.6666666666667V291.6666666666668H208.3333333333333V208.3333333333334zM833.3333333333333 625H666.6666666666666C643.6562499999999 625 625 643.65625 625 666.6666666666667V833.3333333333334C625 856.34375 643.6562499999999 875 666.6666666666666 875H833.3333333333333C856.34375 875 875 856.34375 875 833.3333333333334V666.6666666666667C875 643.65625 856.34375 625 833.3333333333333 625zM708.3333333333333 708.3333333333334H791.6666666666666V791.6666666666667H708.3333333333333V708.3333333333334z" />
    <glyph glyph-name="line-accent"
      unicode="&#xEA22;"
      horiz-adv-x="1000" d="M312.50014488655 371.4191136533872L628.5810008664936 687.4999696333308A41.6620833333333 41.6620833333333 0 0 0 687.5000841532118 687.4999696333308L687.5003787810373 687.4996750055053A41.6620833333333 41.6620833333333 0 0 0 687.5003787810373 628.5805917187872L371.4195228010936 312.4997357388437A41.6620833333333 41.6620833333333 0 0 0 312.5004395143756 312.4997357388437L312.5001448865501 312.5000303666692A41.6620833333333 41.6620833333333 0 0 0 312.5001448865501 371.4191136533873z" />
    <glyph glyph-name="loading-outline-base"
      unicode="&#xEA23;"
      horiz-adv-x="1000" d="M41.6666666666667 500A458.3333333333333 458.3333333333333 0 0 1 958.3333333333331 500A458.3333333333333 458.3333333333333 0 0 1 41.6666666666667 500M500 83.3333333333334C270.8333333333333 83.3333333333334 83.3333333333333 270.8333333333334 83.3333333333333 500S270.8333333333333 916.6666666666666 500 916.6666666666666S916.6666666666666 729.1666666666667 916.6666666666666 500C916.6666666666666 466.6666666666666 887.5 437.5 854.1666666666666 437.5S791.6666666666666 466.6666666666666 791.6666666666666 500C791.6666666666666 662.5 662.5 791.6666666666667 500 791.6666666666667S208.3333333333333 662.5 208.3333333333333 500S337.5 208.3333333333334 500 208.3333333333334C533.3333333333334 208.3333333333334 562.5 179.1666666666668 562.5 145.8333333333334C562.5 112.5 533.3333333333334 83.3333333333334 500 83.3333333333334z" />
    <glyph glyph-name="lock-open-base"
      unicode="&#xEA24;"
      horiz-adv-x="1000" d="M833.3333333333333 583.335H166.6666666666667C143.65625 583.335 125 564.67875 125 541.6683333333333V333.3350000000001C125 218.4666666666668 218.465 125.0016666666667 333.3333333333333 125.0016666666667H666.6666666666666C781.535 125.0016666666667 875 218.4666666666666 875 333.3349999999999V541.6683333333333C875 564.67875 856.34375 583.335 833.3333333333333 583.335zM500 270.8349999999999C453.9770833333333 270.8349999999999 416.6666666666667 308.1454166666666 416.6666666666667 354.1683333333333C416.6666666666667 400.19375 453.9770833333333 437.5016666666667 500 437.5016666666667S583.3333333333333 400.1937499999999 583.3333333333333 354.1683333333333C583.3333333333333 308.1454166666666 546.0229166666667 270.8349999999999 500 270.8349999999999z" />
    <glyph glyph-name="lock-open-accent"
      unicode="&#xEA25;"
      horiz-adv-x="1000" d="M605.2120833333333 759.2933333333333C571.62375 782.1991666666667 530.46125 794.3241666666667 486.21625 791.1770833333334C386.7483333333333 784.1016666666667 312.4995833333333 695.55625 312.4995833333333 595.8366666666666V583.335S229.16625 583.335 229.16625 583.335V592.23125C229.16625 744.1345833333334 353.4225 877.8891666666666 505.2975 874.9504166666667C560.8241666666667 873.8758333333333 612.4575 855.9504166666667 654.9716666666666 826.0504166666667C675.62375 811.52625 677.0204166666666 781.1891666666667 659.1674999999999 763.3358333333333H659.1674999999999C644.6441666666666 748.8125 622.1808333333333 747.7208333333333 605.2120833333332 759.2929166666667z" />
    <glyph glyph-name="lock-base"
      unicode="&#xEA26;"
      horiz-adv-x="1000" d="M833.3333333333333 583.3333333333334H166.6666666666667C143.65625 583.3333333333334 125 564.6770833333334 125 541.6666666666667V333.3333333333334C125 218.465 218.465 125 333.3333333333333 125H666.6666666666666C781.535 125 875 218.465 875 333.3333333333334V541.6666666666667C875 564.6770833333334 856.34375 583.3333333333334 833.3333333333333 583.3333333333334zM500 270.8333333333334C453.9770833333333 270.8333333333334 416.6666666666667 308.1437500000001 416.6666666666667 354.1666666666668C416.6666666666667 400.1920833333334 453.9770833333333 437.5 500 437.5S583.3333333333333 400.1920833333334 583.3333333333333 354.1666666666668C583.3333333333333 308.1437500000001 546.0229166666667 270.8333333333334 500 270.8333333333334z" />
    <glyph glyph-name="lock-accent"
      unicode="&#xEA27;"
      horiz-adv-x="1000" d="M312.5 583.3333333333334V604.1666666666667C312.5 707.5604166666667 396.60625 791.6666666666667 500 791.6666666666667S687.5 707.5604166666667 687.5 604.1666666666667V583.3333333333334H770.8333333333333V604.1666666666667C770.8333333333333 753.4991666666667 649.3325 875 500 875S229.1666666666667 753.4991666666667 229.1666666666667 604.1666666666667V583.3333333333334H312.5z" />
    <glyph glyph-name="marquee-base"
      unicode="&#xEA28;"
      horiz-adv-x="1000" d="M166.6666666666667 666.6666666666667C143.65625 666.6666666666667 125 685.3229166666667 125 708.3333333333334V833.3333333333334C125 856.34375 143.65625 875 166.6666666666667 875H291.6666666666667C314.6770833333333 875 333.3333333333333 856.34375 333.3333333333333 833.3333333333334S314.6770833333333 791.6666666666667 291.6666666666667 791.6666666666667H208.3333333333333V708.3333333333334C208.3333333333333 685.3229166666667 189.6770833333333 666.6666666666667 166.6666666666667 666.6666666666667zM833.3333333333333 666.6666666666667C810.3229166666666 666.6666666666667 791.6666666666666 685.3229166666667 791.6666666666666 708.3333333333334V791.6666666666667H708.3333333333333C685.3229166666666 791.6666666666667 666.6666666666666 810.3229166666667 666.6666666666666 833.3333333333334S685.3229166666666 875 708.3333333333333 875H833.3333333333333C856.34375 875 875 856.34375 875 833.3333333333334V708.3333333333334C875 685.3229166666667 856.34375 666.6666666666667 833.3333333333333 666.6666666666667zM291.6666666666667 125H166.6666666666667C143.65625 125 125 143.65625 125 166.6666666666668V291.6666666666668C125 314.6770833333334 143.65625 333.3333333333334 166.6666666666667 333.3333333333334S208.3333333333333 314.6770833333334 208.3333333333333 291.6666666666668V208.3333333333334H291.6666666666667C314.6770833333333 208.3333333333334 333.3333333333333 189.6770833333334 333.3333333333333 166.6666666666668S314.6770833333333 125 291.6666666666667 125zM833.3333333333333 125H708.3333333333333C685.3229166666666 125 666.6666666666666 143.65625 666.6666666666666 166.6666666666668S685.3229166666666 208.3333333333334 708.3333333333333 208.3333333333334H791.6666666666666V291.6666666666668C791.6666666666666 314.6770833333334 810.3229166666666 333.3333333333334 833.3333333333333 333.3333333333334S875 314.6770833333334 875 291.6666666666668V166.6666666666668C875 143.65625 856.34375 125 833.3333333333333 125z" />
    <glyph glyph-name="marquee-accent"
      unicode="&#xEA29;"
      horiz-adv-x="1000" d="M541.6666666666666 125H458.3333333333333C435.3229166666667 125 416.6666666666667 143.65625 416.6666666666667 166.6666666666668S435.3229166666667 208.3333333333334 458.3333333333333 208.3333333333334H541.6666666666666C564.6770833333334 208.3333333333334 583.3333333333333 189.6770833333334 583.3333333333333 166.6666666666668S564.6770833333334 125 541.6666666666666 125zM166.6666666666667 416.6666666666668C143.65625 416.6666666666668 125 435.3229166666667 125 458.3333333333334V541.6666666666667C125 564.6770833333334 143.65625 583.3333333333334 166.6666666666667 583.3333333333334S208.3333333333333 564.6770833333334 208.3333333333333 541.6666666666667V458.3333333333334C208.3333333333333 435.3229166666667 189.6770833333333 416.6666666666668 166.6666666666667 416.6666666666668zM541.6666666666666 791.6666666666667H458.3333333333333C435.3229166666667 791.6666666666667 416.6666666666667 810.3229166666667 416.6666666666667 833.3333333333334S435.3229166666667 875 458.3333333333333 875H541.6666666666666C564.6770833333334 875 583.3333333333333 856.34375 583.3333333333333 833.3333333333334S564.6770833333334 791.6666666666667 541.6666666666666 791.6666666666667zM833.3333333333333 416.6666666666668C810.3229166666666 416.6666666666668 791.6666666666666 435.3229166666667 791.6666666666666 458.3333333333334V541.6666666666667C791.6666666666666 564.6770833333334 810.3229166666666 583.3333333333334 833.3333333333333 583.3333333333334S875 564.6770833333334 875 541.6666666666667V458.3333333333334C875 435.3229166666667 856.34375 416.6666666666668 833.3333333333333 416.6666666666668z" />
    <glyph glyph-name="move-base"
      unicode="&#xEA2A;"
      horiz-adv-x="1000" d="M871.7829166666666 515.9225C869.6695833333333 521.0216666666666 866.6254166666665 525.6320833333333 862.7804166666666 529.4725000000001L758.6266666666666 633.62625C742.3508333333333 649.9020833333334 715.9833333333332 649.9020833333334 699.7075 633.62625S683.4316666666667 590.9829166666666 699.7075 574.7070833333335L732.7479166666667 541.6666666666667H267.2525L300.2929166666667 574.7070833333335C308.4308333333333 582.845 312.5 593.5058333333334 312.5 604.1666666666667S308.4308333333333 625.4883333333333 300.2929166666667 633.62625C284.0170833333333 649.9020833333334 257.6495833333333 649.9020833333334 241.37375 633.62625L137.22 529.4725C133.3745833333333 525.6324999999999 130.3308333333333 521.0216666666666 128.2175 515.9224999999999C124.0033333333333 505.7345833333333 124.0033333333333 494.2649999999999 128.2175 484.0775C130.3308333333333 478.9783333333334 133.375 474.3679166666667 137.22 470.5274999999999L241.37375 366.3737499999999C257.6495833333333 350.0979166666666 284.0170833333333 350.0979166666666 300.2929166666667 366.3737499999999S316.56875 409.0170833333333 300.2929166666667 425.2929166666666L267.2525 458.3333333333333H732.7475L699.7070833333333 425.2929166666666C691.5691666666667 417.1549999999999 687.5 406.4941666666666 687.5 395.8333333333333S691.5691666666667 374.5116666666666 699.7070833333333 366.3737499999999C715.9829166666666 350.0979166666666 742.3504166666667 350.0979166666666 758.6262499999999 366.3737499999999L862.78 470.5274999999999C866.6254166666665 474.3674999999999 869.6691666666667 478.9783333333332 871.7824999999999 484.0775C875.9966666666667 494.2654166666666 875.9966666666667 505.735 871.7824999999999 515.9224999999999z" />
    <glyph glyph-name="move-accent"
      unicode="&#xEA2B;"
      horiz-adv-x="1000" d="M574.7070833333333 300.2929166666667L541.6666666666666 267.2525000000001V732.7475L574.7070833333333 699.7070833333333C582.8449999999999 691.5691666666667 593.5058333333333 687.5 604.1666666666666 687.5S625.4883333333333 691.5691666666667 633.6262499999999 699.7070833333333C649.9020833333333 715.9829166666667 649.9020833333333 742.3504166666667 633.6262499999999 758.62625L529.4724999999999 862.78C525.6324999999999 866.6254166666668 521.0216666666666 869.6691666666667 515.9224999999999 871.7825C505.7345833333332 875.9966666666667 494.2649999999999 875.9966666666667 484.0774999999999 871.7825C478.9783333333332 869.6691666666667 474.3679166666666 866.625 470.5274999999999 862.78L366.3737499999999 758.62625C350.0979166666665 742.3504166666667 350.0979166666665 715.9829166666667 366.3737499999999 699.7070833333333S409.0170833333333 683.4312500000001 425.2929166666665 699.7070833333333L458.3333333333331 732.7475000000001V267.2525000000001L425.2929166666665 300.2929166666667C417.1549999999999 308.4308333333334 406.4941666666665 312.5 395.8333333333332 312.5S374.5116666666665 308.4308333333334 366.3737499999999 300.2929166666667C350.0979166666665 284.0170833333334 350.0979166666665 257.6495833333334 366.3737499999999 241.3737500000001L470.5274999999999 137.22C474.3674999999999 133.3745833333335 478.9783333333332 130.3308333333333 484.0774999999999 128.2175000000001C494.2654166666666 124.0033333333333 505.735 124.0033333333333 515.9224999999999 128.2175000000001C521.0216666666665 130.3308333333333 525.6320833333332 133.3750000000001 529.4724999999999 137.22L633.6262499999999 241.3737500000001C649.9020833333333 257.6495833333334 649.9020833333333 284.0170833333334 633.6262499999999 300.2929166666667S590.9829166666666 316.5687499999999 574.7070833333333 300.2929166666667z" />
    <glyph glyph-name="pencil-base"
      unicode="&#xEA2C;"
      horiz-adv-x="1000" d="M518.0654166666666 672.76875L672.7687500000001 518.0654166666667C680.9045833333334 509.9295833333334 680.9045833333334 496.73875 672.7687500000001 488.6025L342.0845833333334 157.9183333333333C335.4166666666667 151.6674999999999 327.4995833333334 147.5016666666667 318.3341666666667 146.2504166666667L172.5008333333334 125.4170833333333C170.4179166666667 124.9999999999999 168.7495833333334 124.9999999999999 166.6670833333334 124.9999999999999C155.8333333333334 124.9999999999999 144.9995833333334 129.1683333333332 137.0829166666667 137.0849999999999C127.9175000000001 146.6675 123.7491666666667 159.5841666666667 125.4175000000001 172.5008333333333L146.2508333333334 318.3341666666666C147.4995833333334 327.4995833333333 151.6675000000001 335.4162499999999 157.9162500000001 342.0845833333332L488.6033333333334 672.7691666666665C496.7391666666667 680.9049999999999 509.9300000000001 680.9049999999999 518.0662500000001 672.7691666666665z" />
    <glyph glyph-name="pencil-accent"
      unicode="&#xEA2D;"
      horiz-adv-x="1000" d="M850.4154166666667 666.6666666666667L761.3970833333333 577.2908333333334C753.2658333333333 569.1270833333333 740.0520833333333 569.11375 731.9045833333332 577.26125L577.2604166666666 731.9075C569.1129166666666 740.0550000000001 569.1262499999999 753.26875 577.2899999999998 761.3995833333333L666.6662499999999 850.4179166666667C699.1591666666665 882.7808333333334 752.2758333333333 882.7270833333333 784.7033333333333 850.2983333333334L850.2979166666665 784.7012500000001C882.8779166666665 752.12 882.9304166666666 699.3125 850.4149999999998 666.6666666666667z" />
    <glyph glyph-name="redo-base"
      unicode="&#xEA2E;"
      horiz-adv-x="1000" d="M666.6666666666666 458.3333333333334C656.0058333333333 458.3333333333334 645.3449999999999 462.4025 637.2070833333333 470.5404166666667C620.93125 486.8162500000001 620.93125 513.1837500000001 637.2070833333333 529.4595833333333L774.4141666666667 666.6666666666667L637.2070833333333 803.87375C620.93125 820.1495833333333 620.93125 846.5170833333334 637.2070833333333 862.7929166666667S679.8504166666667 879.06875 696.1262499999999 862.7929166666667L862.7929166666667 696.12625C879.0687499999999 679.8504166666667 879.0687499999999 653.4829166666667 862.7929166666667 637.2070833333333L696.1262499999999 470.5404166666667C687.9883333333333 462.4025 677.3274999999999 458.3333333333334 666.6666666666666 458.3333333333334z" />
    <glyph glyph-name="redo-accent"
      unicode="&#xEA2F;"
      horiz-adv-x="1000" d="M750 125H416.6666666666667C255.8391666666667 125 125 255.8391666666667 125 416.6666666666668S255.8391666666667 708.3333333333334 416.6666666666667 708.3333333333334H833.3333333333333C856.34375 708.3333333333334 875 689.6770833333334 875 666.6666666666667S856.34375 625 833.3333333333333 625H416.6666666666667C301.7983333333333 625 208.3333333333333 531.5350000000001 208.3333333333333 416.6666666666668S301.7983333333333 208.3333333333334 416.6666666666667 208.3333333333334H750C773.0104166666666 208.3333333333334 791.6666666666666 189.6770833333334 791.6666666666666 166.6666666666668S773.0104166666666 125 750 125z" />
    <glyph glyph-name="replace-selection-base"
      unicode="&#xEA30;"
      horiz-adv-x="1000" d="M166.6666666666667 875H625A41.6666666666667 41.6666666666667 0 0 0 666.6666666666666 833.3333333333334V375A41.6666666666667 41.6666666666667 0 0 0 625 333.3333333333334H166.6666666666667A41.6666666666667 41.6666666666667 0 0 0 125 375V833.3333333333334A41.6666666666667 41.6666666666667 0 0 0 166.6666666666667 875z" />
    <glyph glyph-name="replace-selection-accent"
      unicode="&#xEA31;"
      horiz-adv-x="1000" d="M833.3333333333333 666.6666666666667H770.8333333333333C747.8229166666666 666.6666666666667 729.1666666666666 648.0104166666667 729.1666666666666 625S747.8229166666666 583.3333333333334 770.8333333333333 583.3333333333334H791.6666666666666V563.0291666666667C791.6666666666666 540.01875 810.3229166666666 521.3625000000001 833.3333333333333 521.3625000000001S875 540.01875 875 563.0291666666667V625C875 648.0104166666667 856.34375 666.6666666666667 833.3333333333333 666.6666666666667zM833.3333333333333 270.8333333333334C810.3229166666666 270.8333333333334 791.6666666666666 252.1770833333334 791.6666666666666 229.1666666666668V208.3333333333334H770.3041666666667C747.2937499999999 208.3333333333334 728.6375 189.6770833333334 728.6375 166.6666666666668S747.2937499999999 125 770.3041666666667 125H833.3333333333333C856.34375 125 875 143.65625 875 166.6666666666668V229.1666666666668C875 252.1770833333334 856.34375 270.8333333333334 833.3333333333333 270.8333333333334zM625 208.3333333333334H583.3333333333333C560.3229166666666 208.3333333333334 541.6666666666666 189.6770833333334 541.6666666666666 166.6666666666668S560.3229166666666 125 583.3333333333333 125H625C648.0104166666666 125 666.6666666666666 143.65625 666.6666666666666 166.6666666666668S648.0104166666666 208.3333333333334 625 208.3333333333334zM436.9708333333333 208.3333333333334H416.6666666666667V229.1666666666668C416.6666666666667 252.1770833333334 398.0104166666667 270.8333333333334 375 270.8333333333334S333.3333333333333 252.1770833333334 333.3333333333333 229.1666666666668V166.6666666666668C333.3333333333333 143.65625 351.9895833333333 125 375 125H436.9708333333333C459.98125 125 478.6374999999999 143.65625 478.6374999999999 166.6666666666668S459.98125 208.3333333333334 436.9708333333333 208.3333333333334zM833.3333333333333 458.3333333333334C810.3229166666666 458.3333333333334 791.6666666666666 439.6770833333334 791.6666666666666 416.6666666666668V375C791.6666666666666 351.9895833333334 810.3229166666666 333.3333333333334 833.3333333333333 333.3333333333334S875 351.9895833333334 875 375V416.6666666666668C875 439.6770833333334 856.34375 458.3333333333334 833.3333333333333 458.3333333333334z" />
    <glyph glyph-name="save-base"
      unicode="&#xEA32;"
      horiz-adv-x="1000" d="M862.9174999999999 737.9175L737.9175 862.9175C730.0008333333333 870.4170833333334 719.5841666666665 875 708.3333333333333 875H208.3333333333333C162.5008333333333 875 125 837.5016666666667 125 791.6666666666667V208.3333333333334C125 162.5008333333334 162.5008333333333 125 208.3333333333333 125H791.6666666666666C837.4991666666666 125 875 162.5008333333334 875 208.3333333333334V708.3333333333334C875 719.5841666666666 870.4170833333333 730.0008333333333 862.9174999999999 737.9175zM500 250C436.6658333333333 250 385.4166666666667 301.2516666666667 385.4166666666667 364.5833333333334S436.6658333333333 479.1666666666667 500 479.1666666666667S614.5833333333333 427.9175 614.5833333333333 364.5833333333334S563.3341666666666 250 500 250zM666.6666666666666 604.1666666666667H229.1666666666667V770.8333333333334H666.6666666666666V604.1666666666667z" />
    <glyph glyph-name="save-accent"
      unicode="&#xEA33;"
      horiz-adv-x="1000" d="M375 364.5833333333334A125 125 0 0 1 625 364.5833333333334A125 125 0 0 1 375 364.5833333333334" />
    <glyph glyph-name="spray-base"
      unicode="&#xEA34;"
      horiz-adv-x="1000" d="M541.6666666666666 583.3333333333334H208.3333333333333C162.3104166666667 583.3333333333334 125 546.0254166666666 125 500V166.6666666666668C125 143.7504166666667 143.7504166666667 125 166.6666666666667 125H583.3333333333333C606.2495833333332 125 625 143.7504166666667 625 166.6666666666668V500C625 546.0254166666667 587.6895833333333 583.3333333333334 541.6666666666666 583.3333333333334zM229.1666666666667 666.6666666666667H583.3333333333333C606.3462499999999 666.6666666666667 625 685.3229166666667 625 708.3333333333334C625 731.34625 606.3462499999999 750 583.3333333333333 750H541.6666666666666V833.3333333333334C541.6666666666666 856.2495833333334 522.91625 875 500 875H250C227.08375 875 208.3333333333333 856.2495833333334 208.3333333333333 833.3333333333334V687.5C208.3333333333333 675.995 217.6616666666667 666.6666666666667 229.1666666666667 666.6666666666667z" />
    <glyph glyph-name="spray-accent"
      unicode="&#xEA35;"
      horiz-adv-x="1000" d="M666.6666666666666 708.3333333333334A41.6666666666667 41.6666666666667 0 0 1 750 708.3333333333334A41.6666666666667 41.6666666666667 0 0 1 666.6666666666666 708.3333333333334M791.6666666666666 791.6666666666667A41.6666666666667 41.6666666666667 0 0 1 875 791.6666666666667A41.6666666666667 41.6666666666667 0 0 1 791.6666666666666 791.6666666666667M791.6666666666666 625A41.6666666666667 41.6666666666667 0 0 1 875 625A41.6666666666667 41.6666666666667 0 0 1 791.6666666666666 625" />
    <glyph glyph-name="square-fill-base"
      unicode="&#xEA36;"
      horiz-adv-x="1000" d="M166.6666666666667 875H833.3333333333333A41.6666666666667 41.6666666666667 0 0 0 875 833.3333333333334V166.6666666666668A41.6666666666667 41.6666666666667 0 0 0 833.3333333333333 125H166.6666666666667A41.6666666666667 41.6666666666667 0 0 0 125 166.6666666666668V833.3333333333334A41.6666666666667 41.6666666666667 0 0 0 166.6666666666667 875z" />
    <glyph glyph-name="square-line-base"
      unicode="&#xEA37;"
      horiz-adv-x="1000" d="M833.3333333333333 125H166.6666666666667C143.65625 125 125 143.65625 125 166.6666666666668V833.3333333333334C125 856.34375 143.65625 875 166.6666666666667 875H833.3333333333333C856.34375 875 875 856.34375 875 833.3333333333334V166.6666666666668C875 143.65625 856.34375 125 833.3333333333333 125zM208.3333333333333 208.3333333333334H791.6666666666666V791.6666666666667H208.3333333333333V208.3333333333334z" />
    <glyph glyph-name="subtract-selection-base"
      unicode="&#xEA38;"
      horiz-adv-x="1000" d="M833.3333333333333 666.6666666666667H625C601.9895833333333 666.6666666666667 583.3333333333333 648.0104166666667 583.3333333333333 625V416.6666666666668H375C351.9895833333333 416.6666666666668 333.3333333333333 398.0104166666668 333.3333333333333 375V166.6666666666668C333.3333333333333 143.65625 351.9895833333333 125 375 125H833.3333333333333C856.34375 125 875 143.65625 875 166.6666666666668V625C875 648.0104166666667 856.34375 666.6666666666667 833.3333333333333 666.6666666666667z" />
    <glyph glyph-name="subtract-selection-accent"
      unicode="&#xEA39;"
      horiz-adv-x="1000" d="M229.1666666666667 416.6666666666668H208.3333333333333V436.9708333333333C208.3333333333333 459.98125 189.6770833333333 478.6375 166.6666666666667 478.6375S125 459.98125 125 436.9708333333333V375C125 351.9895833333334 143.65625 333.3333333333334 166.6666666666667 333.3333333333334H229.1666666666667C252.1770833333333 333.3333333333334 270.8333333333333 351.9895833333334 270.8333333333333 375S252.1770833333333 416.6666666666668 229.1666666666667 416.6666666666668zM229.6958333333333 875H166.6666666666667C143.65625 875 125 856.34375 125 833.3333333333334V770.8333333333334C125 747.8229166666667 143.65625 729.1666666666667 166.6666666666667 729.1666666666667S208.3333333333333 747.8229166666667 208.3333333333333 770.8333333333334V791.6666666666667H229.6958333333333C252.70625 791.6666666666667 271.3625 810.3229166666667 271.3625 833.3333333333334S252.70625 875 229.6958333333333 875zM375 791.6666666666667H416.6666666666667C439.6770833333333 791.6666666666667 458.3333333333333 810.3229166666667 458.3333333333333 833.3333333333334S439.6770833333333 875 416.6666666666667 875H375C351.9895833333333 875 333.3333333333333 856.34375 333.3333333333333 833.3333333333334S351.9895833333333 791.6666666666667 375 791.6666666666667zM563.0291666666667 791.6666666666667H583.3333333333333V770.8333333333334C583.3333333333333 747.8229166666667 601.9895833333333 729.1666666666667 625 729.1666666666667S666.6666666666666 747.8229166666667 666.6666666666666 770.8333333333334V833.3333333333334C666.6666666666666 856.34375 648.0104166666666 875 625 875H563.0291666666667C540.01875 875 521.3625 856.34375 521.3625 833.3333333333334S540.01875 791.6666666666667 563.0291666666667 791.6666666666667zM166.6666666666667 541.6666666666667C189.6770833333333 541.6666666666667 208.3333333333333 560.3229166666667 208.3333333333333 583.3333333333334V625C208.3333333333333 648.0104166666667 189.6770833333333 666.6666666666667 166.6666666666667 666.6666666666667S125 648.0104166666667 125 625V583.3333333333334C125 560.3229166666667 143.65625 541.6666666666667 166.6666666666667 541.6666666666667z" />
    <glyph glyph-name="trash-base"
      unicode="&#xEA3A;"
      horiz-adv-x="1000" d="M833.3333333333333 708.3333333333334H708.3333333333333V833.3333333333334C708.3333333333333 856.34375 689.6770833333334 875 666.6666666666666 875H333.3333333333333C310.3229166666667 875 291.6666666666667 856.34375 291.6666666666667 833.3333333333334V708.3333333333334H166.6666666666667C143.65625 708.3333333333334 125 689.6770833333334 125 666.6666666666667S143.65625 625 166.6666666666667 625H833.3333333333333C856.34375 625 875 643.65625 875 666.6666666666667S856.34375 708.3333333333334 833.3333333333333 708.3333333333334zM375 791.6666666666667H625V708.3333333333334H375V791.6666666666667z" />
    <glyph glyph-name="trash-accent"
      unicode="&#xEA3B;"
      horiz-adv-x="1000" d="M770.8333333333333 541.6666666666667H229.1666666666667C217.49875 541.6666666666667 208.3333333333333 532.50125 208.3333333333333 520.8333333333334V166.6666666666668C208.3333333333333 143.7504166666667 227.08375 125 250 125H750C772.91625 125 791.6666666666666 143.7504166666667 791.6666666666666 166.6666666666668V520.8333333333334C791.6666666666666 532.50125 782.5012499999999 541.6666666666667 770.8333333333333 541.6666666666667zM458.3333333333333 250C458.3333333333333 227.08375 439.5829166666666 208.3333333333334 416.6666666666667 208.3333333333334S375 227.08375 375 250V416.6666666666668C375 439.5829166666666 393.7504166666667 458.3333333333334 416.6666666666667 458.3333333333334S458.3333333333333 439.5829166666666 458.3333333333333 416.6666666666668V250zM625 250C625 227.08375 606.2495833333332 208.3333333333334 583.3333333333333 208.3333333333334S541.6666666666666 227.08375 541.6666666666666 250V416.6666666666668C541.6666666666666 439.5829166666666 560.4170833333334 458.3333333333334 583.3333333333333 458.3333333333334S625 439.5829166666666 625 416.6666666666668V250z" />
    <glyph glyph-name="undo-base"
      unicode="&#xEA3C;"
      horiz-adv-x="1000" d="M333.3333333333333 458.3333333333334C343.9941666666667 458.3333333333334 354.655 462.4025 362.7929166666667 470.5404166666667C379.06875 486.8166666666667 379.06875 513.1837500000001 362.7929166666667 529.4595833333333L225.5858333333333 666.6666666666667L362.7929166666667 803.87375C379.06875 820.15 379.06875 846.5170833333334 362.7929166666667 862.7929166666667S320.1495833333333 879.06875 303.87375 862.7929166666667L137.2070833333333 696.12625C120.93125 679.85 120.93125 653.4829166666666 137.2070833333333 637.2070833333333L303.87375 470.5404166666667C312.0116666666667 462.4025 322.6725 458.3333333333334 333.3333333333333 458.3333333333334z" />
    <glyph glyph-name="undo-accent"
      unicode="&#xEA3D;"
      horiz-adv-x="1000" d="M250 125H583.3333333333333C744.1608333333334 125 875 255.8391666666667 875 416.6666666666668C875 577.4941666666666 744.1608333333334 708.3333333333334 583.3333333333333 708.3333333333334H166.6666666666667C143.65625 708.3333333333334 125 689.6770833333334 125 666.6666666666667C125 643.65625 143.65625 625 166.6666666666667 625H583.3333333333333C698.2016666666666 625 791.6666666666666 531.5350000000001 791.6666666666666 416.6666666666668S698.2016666666666 208.3333333333334 583.3333333333333 208.3333333333334H250C226.9895833333333 208.3333333333334 208.3333333333333 189.6770833333334 208.3333333333333 166.6666666666668C208.3333333333333 143.65625 226.9895833333333 125 250 125z" />
    <glyph glyph-name="x-base"
      unicode="&#xEA3E;"
      horiz-adv-x="1000" d="M558.9191666666666 500L779.4595833333333 720.5404166666667C795.7354166666665 736.8162500000001 795.7354166666665 763.18375 779.4595833333333 779.4595833333334S736.8162499999999 795.7354166666667 720.5404166666666 779.4595833333334L500 558.9191666666667L279.4595833333333 779.4595833333333C263.18375 795.7354166666667 236.81625 795.7354166666667 220.5404166666666 779.4595833333333S204.2645833333333 736.8162500000001 220.5404166666666 720.5404166666667L441.0808333333333 500L220.5404166666667 279.4595833333334C204.2645833333333 263.1837500000002 204.2645833333333 236.81625 220.5404166666667 220.5404166666667C228.6783333333334 212.4025000000002 239.3391666666667 208.3333333333334 250 208.3333333333334S271.3216666666667 212.4025000000002 279.4595833333333 220.5404166666667L500 441.0808333333335L720.5404166666666 220.5404166666667C728.6783333333333 212.4025000000002 739.3391666666666 208.3333333333334 750 208.3333333333334S771.3216666666666 212.4025000000002 779.4595833333333 220.5404166666667C795.7354166666665 236.81625 795.7354166666665 263.1837500000002 779.4595833333333 279.4595833333334L558.9191666666666 500z" />
  </font>
</defs>
</svg>
