<?xml version="1.0" standalone="no"?>
<!DOCTYPE svg PUBLIC "-//W3C//DTD SVG 1.1//EN" "http://www.w3.org/Graphics/SVG/1.1/DTD/svg11.dtd" >
<svg xmlns="http://www.w3.org/2000/svg">
<defs>
  <font id="Hypericons" horiz-adv-x="450">
    <font-face font-family="Hypericons"
      units-per-em="450" ascent="450"
      descent="0" />
    <missing-glyph horiz-adv-x="0" />
    <glyph glyph-name="account-fill"
      unicode="&#xEA01;"
      horiz-adv-x="450" d="M225 450C100.74 450 0 349.26 0 225A224.00022 224.00022 0 0 1 46.89 87.5A226.42459 226.42459 0 0 1 82.17 51.14A225.02642 225.02642 0 0 1 367.8300000000001 51.14A226.42677 226.42677 0 0 1 403.11 87.5A224.00022 224.00022 0 0 1 450 225C450 349.26 349.26 450 225 450zM281.83 167.76A100 100 0 1 1 168.17 167.76A224.3605 224.3605 0 0 1 82.17 123.86A175 175 0 1 0 367.8300000000001 123.86A224.36117 224.36117 0 0 1 281.83 167.76z" />
    <glyph glyph-name="account-line"
      unicode="&#xEA02;"
      horiz-adv-x="450" d="M225 450C100.74 450 0 349.26 0 225A223.99952 223.99952 0 0 1 46.89014 87.5A226.41607 226.41607 0 0 1 82.17014 51.14A225.02632 225.02632 0 0 1 367.8300500000001 51.14A226.42672 226.42672 0 0 1 403.11005 87.5A224.00086 224.00086 0 0 1 450 225C450 349.26 349.26 450 225 450zM225 50A174.18318 174.18318 0 0 0 116.75 87.5A174.99083 174.99083 0 0 0 333.25 87.5A174.18265 174.18265 0 0 0 225 50zM175 250A50 50 0 1 0 225 200A50.05682 50.05682 0 0 0 175 250zM281.83008 167.76A100 100 0 1 1 168.16992 167.76A224.36013 224.36013 0 0 1 82.17017 123.86A174.99988 174.99988 0 1 0 367.83008 123.86A224.36117 224.36117 0 0 1 281.83008 167.76z" />
    <glyph glyph-name="add-selection-fill"
      unicode="&#xEA03;"
      horiz-adv-x="450" d="M400 275V75A25 25 0 0 0 375 50H175A25 25 0 0 0 150 75V150H75A25 25 0 0 0 50 175V375A25 25 0 0 0 75 400H275A25 25 0 0 0 300 375V300H375A25 25 0 0 0 400 275z" />
    <glyph glyph-name="add-selection-line"
      unicode="&#xEA04;"
      horiz-adv-x="450" d="M375 300H300V375A25 25 0 0 1 275 400H75A25 25 0 0 1 50 375V175A25 25 0 0 1 75 150H150V75A25 25 0 0 1 175 50H375A25 25 0 0 1 400 75V275A25 25 0 0 1 375 300zM200 175A25 25 0 0 1 175 200H100V350H250V275A25 25 0 0 1 275 250H350V100H200z" />
    <glyph glyph-name="circle-fill"
      unicode="&#xEA05;"
      horiz-adv-x="450" d="M0 224.99A225 225 0 0 1 450 224.99A225 225 0 0 1 0 224.99" />
    <glyph glyph-name="circle-line"
      unicode="&#xEA06;"
      horiz-adv-x="450" d="M225 450C100.74 450 0 349.26 0 225S100.74 0 225 0S450 100.74 450 225S349.26 450 225 450zM225 50A175 175 0 1 0 400 225A175 175 0 0 0 225 50z" />
    <glyph glyph-name="circle-marquee-line"
      unicode="&#xEA07;"
      horiz-adv-x="450" d="M81.1 398A225.6900000000001 225.6900000000001 0 0 1 52 368.89A24.73 24.73 0 0 1 57.76 332.31L58.14 332.07A24.88 24.88 0 0 1 90.7 337.2A176.1 176.1 0 0 0 112.8 359.3A24.87 24.87 0 0 1 117.93 391.8300000000001L117.69 392.2100000000001A24.74 24.74 0 0 1 81.1 398zM332.31 392.23L332.07 391.85A24.87 24.87 0 0 1 337.2 359.3A176.1 176.1 0 0 0 359.3 337.2A24.88 24.88 0 0 1 391.8300000000001 332.07L392.2100000000001 332.31A24.73 24.73 0 0 1 398 368.89A225.6900000000001 225.6900000000001 0 0 1 368.9 398A24.74 24.74 0 0 1 332.31 392.21zM412 292.31L411.57 292.16A24.79 24.79 0 0 1 395.8 263.38A176.64 176.64 0 0 0 395.8 186.62A24.79 24.79 0 0 1 411.57 157.84L412 157.6900000000001A24.8 24.8 0 0 1 444.5900000000001 175.6900000000001A226.88 226.88 0 0 1 444.5900000000001 274.3700000000001A24.8 24.8 0 0 1 412 292.31zM292.15 38.45A24.78 24.78 0 0 1 263.39 54.22A176.73 176.73 0 0 0 186.61 54.22A24.79 24.79 0 0 1 157.84 38.45L157.69 38.02A24.81 24.81 0 0 1 175.69 5.42A227.29 227.29 0 0 1 274.37 5.42A24.81 24.81 0 0 1 292.37 38.02zM58.15 117.93L57.77 117.69A24.73 24.73 0 0 1 52 81.11A225.6900000000001 225.6900000000001 0 0 1 81.1 52A24.74 24.74 0 0 1 117.69 57.77L117.93 58.15A24.87 24.87 0 0 1 112.8 90.68A176.1 176.1 0 0 0 90.7 112.78A24.88 24.88 0 0 1 58.17 117.93zM359.3 112.8A176.1 176.1 0 0 0 337.2 90.7A24.87 24.87 0 0 1 332.07 58.17L332.31 57.79A24.74 24.74 0 0 1 368.9 52A225.6900000000001 225.6900000000001 0 0 1 398 81.11A24.73 24.73 0 0 1 392.24 117.69L391.86 117.93A24.88 24.88 0 0 1 359.3 112.8zM225 450A225.94 225.94 0 0 1 175.66 444.58A24.81 24.81 0 0 1 157.66 411.98L157.81 411.55A24.79 24.79 0 0 1 186.58 395.78A176.73 176.73 0 0 0 263.36 395.78A24.78 24.78 0 0 1 292.12 411.55L292.2800000000001 411.98A24.81 24.81 0 0 1 274.2800000000001 444.58A225.94 225.94 0 0 1 225 450zM38.45 292.16L38.02 292.31A24.81 24.81 0 0 1 5.42 274.31A227.29 227.29 0 0 1 5.42 175.63A24.81 24.81 0 0 1 38.02 157.63L38.45 157.78A24.79 24.79 0 0 1 54.22 186.56A176.64 176.64 0 0 0 54.22 263.32A24.79 24.79 0 0 1 38.45 292.16z" />
    <glyph glyph-name="circle-semi"
      unicode="&#xEA08;"
      horiz-adv-x="450" d="M225 450C100.74 450 0 349.25 0 225S100.74 0 225 0S450 100.73 450 225S349.26 450 225 450zM50 225A175 175 0 0 0 348.74 348.73L101.26 101.24A174.46 174.46 0 0 0 50 225z" />
    <glyph glyph-name="circle-small-fill"
      unicode="&#xEA09;"
      horiz-adv-x="450" d="M50 224.99A175 175 0 0 1 400 224.99A175 175 0 0 1 50 224.99" />
    <glyph glyph-name="circle-small-line"
      unicode="&#xEA0A;"
      horiz-adv-x="450" d="M225 400A175 175 0 1 1 400 225A175 175 0 0 1 225 400zM225 100A125 125 0 1 0 350 225A125 125 0 0 0 225 100z" />
    <glyph glyph-name="circle-small-semi"
      unicode="&#xEA0B;"
      horiz-adv-x="450" d="M225 400A175 175 0 1 1 400 225A175 175 0 0 1 225 400zM100 225A125 125 0 0 0 313.39 313.39L136.61 136.6A124.61 124.61 0 0 0 100 225z" />
    <glyph glyph-name="clock-fill"
      unicode="&#xEA0C;"
      horiz-adv-x="450" d="M225 450C100.74 450 0 349.25977 0 225S100.74 0 225 0S450 100.74023 450 225S349.26 450 225 450zM250 225A24.99624 24.99624 0 0 0 225 200H125A25 25 0 0 0 125 250H200V325A25 25 0 0 0 250 325z" />
    <glyph glyph-name="clock-line"
      unicode="&#xEA0D;"
      horiz-adv-x="450" d="M225 450C100.73584 450 0 349.264 0 225S100.73584 0 225 0S450 100.736 450 225S349.26416 450 225 450zM348.74365 101.25635A174.99995 174.99995 0 1 0 101.25635 348.74365A174.99995 174.99995 0 1 0 348.74365 101.25635zM225 350A25 25 0 0 1 200 325V250H125A25 25 0 0 1 125 200H225A25 25 0 0 1 250 225V325A25 25 0 0 1 225 350z" />
    <glyph glyph-name="cloud-fill"
      unicode="&#xEA0E;"
      horiz-adv-x="450" d="M450.00139 150A75.00176 75.00176 0 0 0 375.00139 75H101.26139C46.12139 75 0.41139 119.1 0.00139 174.24A100.00359 100.00359 0 0 0 100.00139 275Q104.26139 275 108.42139 274.64A150.14894 150.14894 0 0 0 250.0714 375C332.6214 374.96 400.1114 307.3400900000001 400.0014 224.79Q400.0014 222.74983 399.9414 220.74A75.01434 75.01434 0 0 0 450.00139 150z" />
    <glyph glyph-name="cloud-line"
      unicode="&#xEA0F;"
      horiz-adv-x="450" d="M399.93762 220.73657Q399.99402 222.75677 399.99988 224.7893C400.1134 307.34142 332.61871 374.9641000000001 250.06647 375A150.14359 150.14359 0 0 1 108.423 274.644C105.64548 274.87569 102.83743 275 100 275A100.00006 100.00006 0 0 1 0.00281 174.24194C0.41156 119.10375 46.11572 75 101.25537 75H375A75.00227 75.00227 0 0 1 399.93762 220.73658zM375 125H100.83893C73.46021 125 50.5285 146.66 50.00916 174.03382A50.00235 50.00235 0 0 0 147.23578 191.40576A24.78667 24.78667 0 0 1 170.72876 175H170.72882A25.00391 25.00391 0 0 1 194.31769 208.311A100.277 100.277 0 0 1 155.63623 258.09652A100.17639 100.17639 0 0 0 248.99194 324.995C303.8134800000001 325.53919 349.2710600000001 281.1565 349.99121 226.33716A99.52757 99.52757 0 0 0 342.4352100000001 186.84216A25.01877 25.01877 0 1 1 388.5716900000001 167.4743600000001C388.9500400000001 168.3846400000001 389.3141200000001 169.3022400000001 389.6749600000001 170.2214300000001A24.98792 24.98792 0 0 0 375 125z" />
    <glyph glyph-name="cursor-1-line"
      unicode="&#xEA10;"
      horiz-adv-x="450" d="M250 0A25 25 0 0 0 227.42 14.27L158.76 158.76L14.27 227.42A25 25 0 0 0 15 272.9L415 447.9A25 25 0 0 0 447.9 415L272.9 15A25 25 0 0 0 250.39 0zM85.22 249.06L188.22 200.06A25 25 0 0 0 200.07 188.21L249.07 85.21L376.49 376.49z" />
    <glyph glyph-name="cursor-2-fill"
      unicode="&#xEA11;"
      horiz-adv-x="450" d="M447.9 415L272.9 15A25 25 0 0 0 250.39 0H250A25 25 0 0 0 227.42 14.27L192.93 86.85L128 22A25 25 0 0 0 92.64 22L22 92.68A25 25 0 0 0 22 128L86.89 192.89L14.27 227.42A25 25 0 0 0 15 272.9L415 447.9A25 25 0 0 0 447.9 415z" />
    <glyph glyph-name="cursor-2-fill_1"
      unicode="&#xEA12;"
      horiz-adv-x="450" d="M447.9 415L272.9 15A25 25 0 0 0 250.39 0H250A25 25 0 0 0 227.42 14.27L158.76 158.76L14.27 227.42A25 25 0 0 0 15 272.9L415 447.9A25 25 0 0 0 447.9 415z" />
    <glyph glyph-name="cursor-2-line"
      unicode="&#xEA13;"
      horiz-adv-x="450" d="M250 0A25 25 0 0 0 227.42 14.27L192.93 86.85L128 22A25 25 0 0 0 92.64 22L22 92.68A25 25 0 0 0 22 128L86.89 192.89L14.27 227.42A25 25 0 0 0 15 272.9L415 447.9A25 25 0 0 0 447.9 415L272.9 15A25 25 0 0 0 250.39 0zM75 110.36L110.36 75L182.62 147.26A25 25 0 0 0 222.88 140.31L249.06 85.22L376.49 376.49L85.22 249.06L140.31 222.88A25 25 0 0 0 147.26 182.62z" />
    <glyph glyph-name="curve-line"
      unicode="&#xEA14;"
      horiz-adv-x="450" d="M425 450H375A25 25 0 0 1 350 425V375A25 25 0 0 1 375 350A100 100 0 0 0 275 250A25 25 0 0 1 250 275H200A25 25 0 0 1 175 250A150 150 0 0 1 25 100A25 25 0 0 1 0 75V25A25 25 0 0 1 25 0H75A25 25 0 0 1 100 25V75A25 25 0 0 1 75 100H75A100 100 0 0 0 175 200A25 25 0 0 1 200 175H250A25 25 0 0 1 275 200A150 150 0 0 1 425 350H425A25 25 0 0 1 450 375V425A25 25 0 0 1 425 450z" />
    <glyph glyph-name="divide-line"
      unicode="&#xEA15;"
      horiz-adv-x="450" d="M350 250H100A25 25 0 0 1 100 200H350A25 25 0 1 1 350 250zM199.99997 325A25 25 0 0 1 249.99997 325A25 25 0 0 1 199.99997 325M199.99997 125A25 25 0 0 1 249.99997 125A25 25 0 0 1 199.99997 125" />
    <glyph glyph-name="down-arrow-large-line"
      unicode="&#xEA16;"
      horiz-adv-x="450" d="M366.42136 304.54949L366.42136 304.54949A25 25 0 0 1 331.06605 304.54949L225 198.4835L118.934 304.5495A25 25 0 0 1 83.5787 304.5495L83.5787 304.5495A25 25 0 0 1 83.5787 269.19419L207.32233 145.45047A25 25 0 0 1 242.67763 145.45047L366.42136 269.19419A25 25 0 0 1 366.42136 304.54949z" />
    <glyph glyph-name="down-arrow-small-line"
      unicode="&#xEA17;"
      horiz-adv-x="450" d="M331.066 286.87182L331.066 286.87182A25 25 0 0 1 295.7107 286.87182L225 216.16117L154.28932 286.87185A25 25 0 0 1 118.93402 286.87185L118.93402 286.87185A25 25 0 0 1 118.93402 251.51654L207.32239 163.12818A25 25 0 0 1 242.67769 163.12818L331.066 251.51651A25 25 0 0 1 331.066 286.87182z" />
    <glyph glyph-name="eraser-fill"
      unicode="&#xEA18;"
      horiz-adv-x="450" d="M115.4 308.0800000000001A12.51 12.51 0 0 1 97.72 308.0800000000001L7.32 217.68A25 25 0 0 1 7.32 182.29L182.32 7.29A25 25 0 0 1 217.69 7.29L308.0900000000001 97.6900000000001A12.49 12.49 0 0 1 308.0900000000001 115.3700000000001zM442.68 267.68L267.68 442.68H267.68A25 25 0 0 1 232.32 442.68L141.91 352.27A12.49 12.49 0 0 1 141.91 334.6L334.6 141.91A12.51 12.51 0 0 1 352.2800000000001 141.91L442.6800000000001 232.3100000000001A25 25 0 0 1 442.6800000000001 267.6800000000001z" />
    <glyph glyph-name="eraser-line"
      unicode="&#xEA19;"
      horiz-adv-x="450" d="M442.68 267.69L267.68 442.69H267.68A25 25 0 0 1 232.32 442.69L7.32 217.69A25 25 0 0 1 7.32 182.31L182.32 7.31A25 25 0 0 1 217.69 7.31L442.69 232.31A25 25 0 0 1 442.69 267.68zM312.5 172.86L172.85 312.51L250 389.66L389.65 250zM200 60.35L60.34 200L137.49 277.15L277.14 137.5z" />
    <glyph glyph-name="eraser-semi"
      unicode="&#xEA1A;"
      horiz-adv-x="450" d="M442.68 267.68L267.68 442.68H267.68A25 25 0 0 1 232.32 442.68L7.32 217.68A25 25 0 0 1 7.32 182.29L182.32 7.29A25 25 0 0 1 217.69 7.29L442.69 232.29A25 25 0 0 1 442.69 267.6600000000001zM200 60.33L60.34 200L137.49 277.15L277.14 137.49z" />
    <glyph glyph-name="export-line"
      unicode="&#xEA1B;"
      horiz-adv-x="450" d="M136.61182 336.61182A24.99942 24.99942 0 0 1 171.96682 336.61182L200 364.6445300000001V125A25 25 0 0 1 250 125V364.6445300000001L278.0332 336.61182A24.99942 24.99942 0 0 1 313.3882000000001 336.61182H313.3882000000001A24.99942 24.99942 0 0 1 313.3882000000001 371.96682L242.67773 442.67773A25 25 0 0 1 207.32227 442.67773L136.61182 371.9668000000001A24.99942 24.99942 0 0 1 136.61182 336.6118zM375 300H325A25 25 0 0 1 325 250H350V50H100V250H125A25 25 0 0 1 125 300H75A25 25 0 0 1 50 275V25A25 25 0 0 1 75 0H375A25 25 0 0 1 400 25V275A25 25 0 0 1 375 300z" />
    <glyph glyph-name="eye-crossed-line"
      unicode="&#xEA1C;"
      horiz-adv-x="450" d="M252.82 108.79A12.57 12.57 0 0 1 242.6 112.37A168.2 168.2 0 0 0 225 111.45A164 164 0 0 0 93.82 176.23L56.48 225L84.57 261.69A12.49 12.49 0 0 1 83.49 278.12L65.66 295.95A12.5 12.5 0 0 1 46.9 294.71L5.15 240.2A25 25 0 0 1 5.15 209.8L54.15 145.8C97.22 89.54 161.15 61.41 225.03 61.41A217.24 217.24 0 0 1 268.31 65.76A12.51 12.51 0 0 1 274.74 86.86zM444.85 240.2L395.85 304.2C352.81 360.42 288.9 388.55 225 388.55A217.24 217.24 0 0 1 181.72 384.2A12.51 12.51 0 0 1 175.29 363.1L197.18 341.21A12.57 12.57 0 0 1 207.4 337.63A168.2 168.2 0 0 0 225 338.55A164 164 0 0 0 356.18 273.77L393.52 225L365.43 188.31A12.49 12.49 0 0 1 366.51 171.88L384.34 154A12.5 12.5 0 0 1 403.1 155.24L444.85 209.75A25 25 0 0 1 444.85 240.2zM83.58 401.78A25 25 0 0 1 48.22 401.78H48.22A25 25 0 0 1 48.22 366.42L366.42 48.22A25 25 0 0 1 401.78 48.22H401.78A25 25 0 0 1 401.78 83.58z" />
    <glyph glyph-name="eye-line"
      unicode="&#xEA1D;"
      horiz-adv-x="450" d="M444.85 240.2L395.85 304.2C352.81 360.42 288.9 388.55 225 388.55S97.19 360.42 54.12 304.16L5.12 240.16A25 25 0 0 1 5.12 209.76L54.12 145.76C97.19 89.5 161.12 61.37 225 61.37S352.81 89.5 395.88 145.76L444.88 209.76A25 25 0 0 1 444.85 240.2zM356.18 176.2A165.2 165.2 0 0 0 93.82 176.2L56.48 225L93.82 273.76A165.2 165.2 0 0 0 356.18 273.76L393.52 225zM225 300A75 75 0 1 1 300 225A75 75 0 0 1 225 300zM225 200A25 25 0 1 0 250 225A25 25 0 0 0 225 200z" />
    <glyph glyph-name="eyedropper-fill"
      unicode="&#xEA1E;"
      horiz-adv-x="450" d="M442.68 317.66L380.18 255.16L400 235.34A25 25 0 0 0 364.64 200L200 364.63A25 25 0 0 0 235.36 400L255.18 380.17L317.68 442.67C318.29 443.2800000000001 318.92 443.85 319.58 444.39C319.9 444.6600000000001 320.24 444.9100000000001 320.58 445.1600000000001A24.83 24.83 0 0 0 322.66 446.5300000000001C323.37 446.95 324.1 447.33 324.84 447.68A24.06 24.06 0 0 0 327.09 448.59A25.11 25.11 0 0 0 343.64 448.59C344.02 448.46 344.4 448.32 344.77 448.1600000000001A23.4 23.4 0 0 0 348.47 446.2800000000001C349.04 445.93 349.6 445.56 350.15 445.1600000000001C350.48 444.9100000000001 350.82 444.6600000000001 351.15 444.39C351.81 443.85 352.44 443.2800000000001 353.05 442.67L442.68 353A25 25 0 0 0 442.68 317.64zM300.63 211A25 25 0 0 0 300.63 175.64L132.32 7.31A25 25 0 0 0 114.64 0H25A25 25 0 0 0 0 25V114.63A25 25 0 0 0 7.32 132.31L175.63 300.61A24.77 24.77 0 0 0 182.78 305.61A23.18 23.18 0 0 0 185.04 306.52C185.42 306.66 185.8 306.78 186.19 306.9S187.1 307.15 187.57 307.26C188.28 307.42 189 307.5600000000001 189.72 307.67A24.85 24.85 0 0 0 196.89 307.67C197.69 307.55 198.48 307.4 199.26 307.2100000000001S200.81 306.79 201.58 306.52A24.73 24.73 0 0 0 207.06 303.81A25.24 25.24 0 0 0 210.98 300.6H210.98L300.62 211z" />
    <glyph glyph-name="eyedropper-line"
      unicode="&#xEA1F;"
      horiz-adv-x="450" d="M300.62 211L211 300.62H211A25 25 0 0 1 201.6 306.54C200.83 306.81 200.06 307.03 199.28 307.23A23.58 23.58 0 0 1 196.91 307.68A24.85 24.85 0 0 1 189.74 307.68C189.02 307.58 188.3 307.44 187.59 307.27C187.12 307.16 186.66 307.05 186.21 306.91S185.44 306.67 185.06 306.54A23.25 23.25 0 0 1 182.8 305.62A24.93 24.93 0 0 1 175.65 300.62H175.65L7.32 132.32A25 25 0 0 1 0 114.64V25A25 25 0 0 1 25 0H114.64A25 25 0 0 1 132.32 7.32L300.63 175.63H300.63A25 25 0 0 1 300.63 210.98zM104.28 50H50V104.28L193.31 247.59L247.59 193.31zM442.68 353H442.68L353 442.68A23.46 23.46 0 0 1 351.1 444.39C350.7800000000001 444.6600000000001 350.44 444.92 350.1 445.17C349.55 445.57 348.99 445.94 348.42 446.29A25.23 25.23 0 0 1 344.7200000000001 448.17L343.5900000000001 448.6A25.11 25.11 0 0 1 327.04 448.6A24.15 24.15 0 0 1 324.79 447.68A23.81 23.81 0 0 1 322.61 446.54C321.9000000000001 446.12 321.2100000000001 445.6600000000001 320.5300000000001 445.17C320.2000000000001 444.92 319.86 444.6600000000001 319.5300000000001 444.39A23.46 23.46 0 0 1 317.6300000000001 442.68L255.1300000000001 380.18L235.36 400A25 25 0 0 1 200 400H200A25 25 0 0 1 200 364.64L364.64 200A25 25 0 0 1 400 235.36L380.18 255.18L442.68 317.68H442.68A25 25 0 0 1 442.68 353zM290.53 344.79L335.36 389.61L389.64 335.33L344.82 290.5z" />
    <glyph glyph-name="eyedropper-semi"
      unicode="&#xEA20;"
      horiz-adv-x="450" d="M300.62 211L211 300.61H211A25.24 25.24 0 0 1 207.08 303.8200000000001A24.73 24.73 0 0 1 201.6 306.5300000000001C200.83 306.8000000000001 200.06 307.0300000000001 199.28 307.2200000000001S197.71 307.5600000000001 196.91 307.6800000000001A24.85 24.85 0 0 1 189.7400000000001 307.6800000000001C189.0200000000001 307.5700000000001 188.3000000000001 307.4300000000001 187.59 307.2700000000001Q186.8900000000001 307.1 186.21 306.9100000000001C185.8200000000001 306.79 185.44 306.67 185.06 306.5300000000001A23.18 23.18 0 0 1 182.8000000000001 305.62A24.77 24.77 0 0 1 175.65 300.62H175.65L7.32 132.31A25 25 0 0 1 0 114.63V25A25 25 0 0 1 25 0H114.64A25 25 0 0 1 132.32 7.32L300.63 175.62H300.63A25 25 0 0 1 300.63 210.98zM104.28 50H50V104.27L193.31 247.58L247.59 193.3zM442.68 317.66L380.18 255.16L400 235.34A25 25 0 0 0 364.64 200L200 364.63A25 25 0 0 0 235.36 400L255.18 380.17L317.68 442.67C318.29 443.2800000000001 318.92 443.85 319.58 444.39C319.9 444.6600000000001 320.24 444.9100000000001 320.58 445.1600000000001A24.83 24.83 0 0 0 322.66 446.5300000000001C323.37 446.95 324.1 447.33 324.84 447.68A24.06 24.06 0 0 0 327.09 448.59A25.11 25.11 0 0 0 343.64 448.59C344.02 448.46 344.4 448.32 344.77 448.1600000000001A23.4 23.4 0 0 0 348.47 446.2800000000001C349.04 445.93 349.6 445.56 350.15 445.1600000000001C350.48 444.9100000000001 350.82 444.6600000000001 351.15 444.39C351.81 443.85 352.44 443.2800000000001 353.05 442.67L442.68 353A25 25 0 0 0 442.68 317.64z" />
    <glyph glyph-name="freehand-select-line"
      unicode="&#xEA21;"
      horiz-adv-x="450" d="M353.04 442.6712H353.0300000000001L428.98 366.7212zM449.9700000000001 336.5213A25.05292 25.05292 0 0 1 448.79 343.0313C448.67 343.4013 448.54 343.7713 448.4000000000001 344.1313C448.24 344.5713600000001 448.0600000000001 345.0113 447.8800000000001 345.44123A27.78622 27.78622 0 0 1 446.3900000000001 348.30134A25.49315 25.49315 0 0 1 442.6800000000001 353.03134H442.6700000000001L428.98 366.72125L353.03 442.6712A24.9811 24.9811 0 0 1 317.68 442.6712L157.32 282.32135A25.00016 25.00016 0 0 1 150 264.64135V175.00135A24.99631 24.99631 0 0 1 175 150.00135H264.64A24.98257 24.98257 0 0 1 282.32 157.32135L362.5 237.49135V237.50135L442.68 317.67127A24.90273 24.90273 0 0 1 450 335.34137C450 335.73126 449.99 336.1312900000001 449.9700000000001 336.5213zM254.28 200.00128H200V254.28128L335.36 389.63128L389.64 335.35128zM233.84954 62.64765A124.11586 124.11586 0 0 0 201.35047 49.19653A24.8558 24.8558 0 0 1 182.81094 25.04609V25.04602A24.97608 24.97608 0 0 1 213.89206 0.7879A173.78663 173.78663 0 0 1 259.09006 19.47733A25.03888 25.03888 0 0 1 264.17946 58.76374L264.17469 58.7685A24.94518 24.94518 0 0 1 233.84954 62.64765zM288.16725 128.55965A124.29944 124.29944 0 0 0 277.98 106.77884A24.94982 24.94982 0 0 1 281.8554700000001 76.44774L281.8602100000001 76.44299A24.95131 24.95131 0 0 1 320.9326400000001 81.17916A173.99036 173.99036 0 0 1 335.3396400000001 111.9688000000001A25.011 25.011 0 0 1 311.7608400000001 145.31224H311.7600300000001A25.055 25.055 0 0 1 288.16725 128.55966zM76.44725 58.76847L76.4425 58.76372A25.03887 25.03887 0 0 1 81.53191 19.4773300000001A173.78624 173.78624 0 0 1 126.72983 0.7878900000001A24.97609 24.97609 0 0 1 157.81094 25.046V25.04606A24.8558 24.8558 0 0 1 139.27142 49.1965A124.11591 124.11591 0 0 0 106.77236 62.64761A24.94518 24.94518 0 0 1 76.44724 58.76848zM25.0448 157.81224H25.04474A24.97609 24.97609 0 0 1 0.78662 126.7311A173.78689 173.78689 0 0 1 19.47607 81.53316A25.03887 25.03887 0 0 1 58.76246 76.44374L58.76723 76.44851A24.94519 24.94519 0 0 1 62.64637 106.77366A124.11533 124.11533 0 0 0 49.19524 139.27272A24.8558 24.8558 0 0 1 25.0448 157.81224zM19.47605 259.09133A173.78738 173.78738 0 0 1 0.78662 213.89333A24.97609 24.97609 0 0 1 25.04475 182.81221H25.04475A24.8558 24.8558 0 0 1 49.19519 201.35173A124.11547 124.11547 0 0 0 62.64632 233.85081A24.94518 24.94518 0 0 1 58.76724 264.176L58.76247 264.18077A25.03887 25.03887 0 0 1 19.47605 259.09133zM76.44172 281.86151L76.44645 281.85678A24.94984 24.94984 0 0 1 106.77756 277.9813000000001A124.29964 124.29964 0 0 0 128.55837 288.16854A25.055 25.055 0 0 1 145.31094 311.76136V311.76215A25.011 25.011 0 0 1 111.96752 335.34095A173.98839 173.98839 0 0 1 81.1779 320.93395A24.95131 24.95131 0 0 1 76.44172 281.86151z" />
    <glyph glyph-name="import-line"
      unicode="&#xEA22;"
      horiz-adv-x="450" d="M136.61182 213.38818A24.99942 24.99942 0 0 0 171.96682 213.38818L200 185.35547V425A25 25 0 0 0 250 425V185.35547L278.0332 213.38818A24.99942 24.99942 0 0 0 313.3882000000001 213.38818H313.3882000000001A24.99971 24.99971 0 0 0 313.3882000000001 178.03296L242.6777500000001 107.32227A25 25 0 0 0 207.3222900000001 107.32227L136.61182 178.033A24.99971 24.99971 0 0 0 136.61182 213.38822zM375 300H325A25 25 0 0 1 325 250H350V50H100V250H125A25 25 0 0 1 125 300H75A25 25 0 0 1 50 275V25A25 25 0 0 1 75 0H375A25 25 0 0 1 400 25V275A25 25 0 0 1 375 300z" />
    <glyph glyph-name="intersect-selection-fill"
      unicode="&#xEA23;"
      horiz-adv-x="450" d="M162.5 99.99H187.5A12.5 12.5 0 0 0 200 87.49V62.49A12.5 12.5 0 0 0 187.5 49.99H162.5A12.5 12.5 0 0 0 150 62.49V87.49A12.5 12.5 0 0 0 162.5 99.99zM262.5 99.99H287.5A12.5 12.5 0 0 0 300 87.49V62.49A12.5 12.5 0 0 0 287.5 49.99H262.5A12.5 12.5 0 0 0 250 62.49V87.49A12.5 12.5 0 0 0 262.5 99.99zM362.5 99.99H387.5A12.5 12.5 0 0 0 400 87.49V62.49A12.5 12.5 0 0 0 387.5 49.99H362.5A12.5 12.5 0 0 0 350 62.49V87.49A12.5 12.5 0 0 0 362.5 99.99zM62.5 399.99H87.5A12.5 12.5 0 0 0 100 387.49V362.49A12.5 12.5 0 0 0 87.5 349.99H62.5A12.5 12.5 0 0 0 50 362.49V387.49A12.5 12.5 0 0 0 62.5 399.99zM300 275V175A25 25 0 0 0 275 150H175A25 25 0 0 0 150 175V275A25 25 0 0 0 175 300H275A25 25 0 0 0 300 275zM150 362.49V387.49A12.5 12.5 0 0 0 162.5 400H187.5A12.5 12.5 0 0 0 200 387.49V362.49A12.5 12.5 0 0 0 187.5 350H162.5A12.5 12.5 0 0 0 150 362.49zM300 387.49V362.49A12.5 12.5 0 0 0 287.5 350H262.5A12.5 12.5 0 0 0 250 362.49V387.49A12.5 12.5 0 0 0 262.5 400H287.5A12.5 12.5 0 0 0 300 387.49zM362.5 199.99H387.5A12.5 12.5 0 0 0 400 187.49V162.49A12.5 12.5 0 0 0 387.5 149.99H362.5A12.5 12.5 0 0 0 350 162.49V187.49A12.5 12.5 0 0 0 362.5 199.99zM362.5 299.99H387.5A12.5 12.5 0 0 0 400 287.49V262.49A12.5 12.5 0 0 0 387.5 249.99H362.5A12.5 12.5 0 0 0 350 262.49V287.49A12.5 12.5 0 0 0 362.5 299.99zM62.5 199.99H87.5A12.5 12.5 0 0 0 100 187.49V162.49A12.5 12.5 0 0 0 87.5 149.99H62.5A12.5 12.5 0 0 0 50 162.49V187.49A12.5 12.5 0 0 0 62.5 199.99zM62.5 299.99H87.5A12.5 12.5 0 0 0 100 287.49V262.49A12.5 12.5 0 0 0 87.5 249.99H62.5A12.5 12.5 0 0 0 50 262.49V287.49A12.5 12.5 0 0 0 62.5 299.99z" />
    <glyph glyph-name="intersect-selection-line"
      unicode="&#xEA24;"
      horiz-adv-x="450" d="M275 300H175A25 25 0 0 1 150 275V175A25 25 0 0 1 175 150H275A25 25 0 0 1 300 175V275A25 25 0 0 1 275 300zM250 250V200H200V250zM162.5 100H187.5A12.5 12.5 0 0 0 200 87.5V62.5A12.5 12.5 0 0 0 187.5 50H162.5A12.5 12.5 0 0 0 150 62.5V87.5A12.5 12.5 0 0 0 162.5 100zM262.5 100H287.5A12.5 12.5 0 0 0 300 87.5V62.5A12.5 12.5 0 0 0 287.5 50H262.5A12.5 12.5 0 0 0 250 62.5V87.5A12.5 12.5 0 0 0 262.5 100zM362.5 100H387.5A12.5 12.5 0 0 0 400 87.5V62.5A12.5 12.5 0 0 0 387.5 50H362.5A12.5 12.5 0 0 0 350 62.5V87.5A12.5 12.5 0 0 0 362.5 100zM62.5 400H87.5A12.5 12.5 0 0 0 100 387.5V362.5A12.5 12.5 0 0 0 87.5 350H62.5A12.5 12.5 0 0 0 50 362.5V387.5A12.5 12.5 0 0 0 62.5 400zM162.5 400H187.5A12.5 12.5 0 0 0 200 387.5V362.5A12.5 12.5 0 0 0 187.5 350H162.5A12.5 12.5 0 0 0 150 362.5V387.5A12.5 12.5 0 0 0 162.5 400zM262.5 400H287.5A12.5 12.5 0 0 0 300 387.5V362.5A12.5 12.5 0 0 0 287.5 350H262.5A12.5 12.5 0 0 0 250 362.5V387.5A12.5 12.5 0 0 0 262.5 400zM362.5 200H387.5A12.5 12.5 0 0 0 400 187.5V162.5A12.5 12.5 0 0 0 387.5 150H362.5A12.5 12.5 0 0 0 350 162.5V187.5A12.5 12.5 0 0 0 362.5 200zM362.5 300H387.5A12.5 12.5 0 0 0 400 287.5V262.5A12.5 12.5 0 0 0 387.5 250H362.5A12.5 12.5 0 0 0 350 262.5V287.5A12.5 12.5 0 0 0 362.5 300zM62.5 200H87.5A12.5 12.5 0 0 0 100 187.5V162.5A12.5 12.5 0 0 0 87.5 150H62.5A12.5 12.5 0 0 0 50 162.5V187.5A12.5 12.5 0 0 0 62.5 200zM62.5 300H87.5A12.5 12.5 0 0 0 100 287.5V262.5A12.5 12.5 0 0 0 87.5 250H62.5A12.5 12.5 0 0 0 50 262.5V287.5A12.5 12.5 0 0 0 62.5 300z" />
    <glyph glyph-name="lasso-line"
      unicode="&#xEA25;"
      horiz-adv-x="450" d="M325 450H125A125 125 0 0 1 0 325V275A125 125 0 0 1 100 152.5V75A25 25 0 0 1 125 50H300V25A25 25 0 0 1 325 0H325A25 25 0 0 1 350 25V75A25 25 0 0 1 325 100H150V150H325A125 125 0 0 1 450 275V325A125 125 0 0 1 325 450zM400 275A75 75 0 0 0 326.94 200L325 200H150V225A25 25 0 0 1 125 250H125A25 25 0 0 1 100 225V204.29A75 75 0 0 0 50 275V325A75 75 0 0 0 123.06 400L125 400H325L326.94 400A75 75 0 0 0 400 325z" />
    <glyph glyph-name="layer-fill"
      unicode="&#xEA26;"
      horiz-adv-x="450" d="M410.6600000000001 143.24H410.6600000000001A25 25 0 0 1 386.38 143.24L225 53.59L63.62 143.24A25 25 0 0 1 39.34 143.24H39.34A25 25 0 0 1 39.34 99.53L212.86 3.13A25 25 0 0 1 237.14 3.13L410.6600000000001 99.53A25 25 0 0 1 410.6600000000001 143.24zM39.34 350.44L212.86 446.84A25 25 0 0 0 237.14 446.84L410.6600000000001 350.44A25 25 0 0 0 410.6600000000001 306.73L237.14 210.33A25 25 0 0 0 212.86 210.33L39.34 306.73A25 25 0 0 0 39.34 350.44zM410.6600000000001 203.13L237.14 106.73A25 25 0 0 0 212.86 106.73L39.34 203.13A25 25 0 0 0 39.34 246.84A25 25 0 0 0 63.62 246.84L225 157.18L386.38 246.84A25 25 0 0 0 410.66 203.13z" />
    <glyph glyph-name="layer-line"
      unicode="&#xEA27;"
      horiz-adv-x="450" d="M39.34 306.75L212.86 210.34A25 25 0 0 1 237.14 210.34L410.6600000000001 306.75A25 25 0 0 1 410.6600000000001 350.45L237.14 446.85A25 25 0 0 1 212.86 446.85L39.34 350.45A25 25 0 0 1 39.34 306.75zM225 396.4L347 328.6L225 260.8L103 328.6zM410.6600000000001 143.26H410.6600000000001A25 25 0 0 1 386.38 143.26L225 53.6L63.62 143.26A25 25 0 0 1 39.34 143.26H39.34A25 25 0 0 1 39.34 99.55L212.86 3.15A25 25 0 0 1 237.14 3.15L410.6600000000001 99.55A25 25 0 0 1 410.6600000000001 143.26zM410.6600000000001 246.85H410.6600000000001A25 25 0 0 1 386.38 246.85L225 157.2L63.62 246.85A25 25 0 0 1 39.34 246.85H39.34A25 25 0 0 1 39.34 203.14L212.86 106.74A25 25 0 0 1 237.14 106.74L410.6600000000001 203.14A25 25 0 0 1 410.6600000000001 246.85z" />
    <glyph glyph-name="left-arrow-large-line"
      unicode="&#xEA28;"
      horiz-adv-x="450" d="M304.54949 83.57864L304.54949 83.57864A25 25 0 0 1 304.54949 118.93395L198.4835 225L304.5495 331.0660000000001A25 25 0 0 1 304.5495 366.4213L304.5495 366.4213A25 25 0 0 1 269.19419 366.4213L145.45047 242.67767A25 25 0 0 1 145.45047 207.32237L269.19419 83.57864A25 25 0 0 1 304.54949 83.57864z" />
    <glyph glyph-name="left-arrow-small-line"
      unicode="&#xEA29;"
      horiz-adv-x="450" d="M286.87182 118.934L286.87182 118.934A25 25 0 0 1 286.87182 154.2893L216.16117 225L286.87185 295.71068A25 25 0 0 1 286.87185 331.06598L286.87185 331.06598A25 25 0 0 1 251.51654 331.06598L163.12818 242.67761A25 25 0 0 1 163.12818 207.32231L251.51651 118.934A25 25 0 0 1 286.87182 118.934z" />
    <glyph glyph-name="lock-fill"
      unicode="&#xEA2A;"
      horiz-adv-x="450" d="M425 275H375V300A150 150 0 0 1 75 300V275H25A25 25 0 0 1 0 250V100A100 100 0 0 1 100 0H350A100 100 0 0 1 450 100V250A25 25 0 0 1 425 275zM225 100A37.5 37.5 0 1 0 262.5 137.5A37.49 37.49 0 0 0 225 100zM125 300A100 100 0 0 0 325 300V275H125z" />
    <glyph glyph-name="lock-line"
      unicode="&#xEA2B;"
      horiz-adv-x="450" d="M425 275H375V300A150 150 0 0 1 75 300V275H25A25 25 0 0 1 0 250V100A100 100 0 0 1 100 0H350A100 100 0 0 1 450 100V250A25 25 0 0 1 425 275zM225 400A100 100 0 0 0 325 300V275H125V300A100 100 0 0 0 225 400zM350 50H100A50 50 0 0 0 50 100V225H400V100A50 50 0 0 0 350 50zM187.5 137.5A37.5 37.5 0 0 1 262.5 137.5A37.5 37.5 0 0 1 187.5 137.5" />
    <glyph glyph-name="lock-open-fill"
      unicode="&#xEA2C;"
      horiz-adv-x="450" d="M425 275H125V298.74C125 354.08 170.27 400.31 225.6 400A99.76 99.76 0 0 0 301.18 364.79A25 25 0 0 1 339.18 397.25A149.66 149.66 0 0 1 223 450C141.15 448.88 75 381.64 75 300H75V275H25A25 25 0 0 1 0 250V100A100 100 0 0 1 100 0H350A100 100 0 0 1 450 100V250A25 25 0 0 1 425 275zM225 100A37.5 37.5 0 1 0 262.5 137.5A37.49 37.49 0 0 0 225 100z" />
    <glyph glyph-name="lock-open-line"
      unicode="&#xEA2D;"
      horiz-adv-x="450" d="M425 275H125V298.76C125 354.0900000000001 170.27 400.32 225.6 400A99.76 99.76 0 0 0 301.18 364.78A25 25 0 0 1 332.25 359.12H332.25A25 25 0 0 1 339.25 397.25A149.69 149.69 0 0 1 223 450C141.15 448.89 75 381.66 75 300H75V275H25A25 25 0 0 1 0 250V100A100 100 0 0 1 100 0H350A100 100 0 0 1 450 100V250A25 25 0 0 1 425 275zM350 50H100A50 50 0 0 0 50 100V225H400V100A50 50 0 0 0 350 50zM187.5 137.5A37.5 37.5 0 0 1 262.5 137.5A37.5 37.5 0 0 1 187.5 137.5" />
    <glyph glyph-name="magic-wand-fill"
      unicode="&#xEA2E;"
      horiz-adv-x="450" d="M442.68 7.32A25 25 0 0 0 407.32 7.32L241.05 173.6L221 108.94A25 25 0 0 0 201 91.67A25 25 0 0 0 176.68 101.93L121.27 180.27L25.32 179A25 25 0 0 0 5 219L62.39 295.9L31.54 386.76A25 25 0 0 0 63.24 418.46L154.11 387.65L231 445A25 25 0 0 0 271 424.68L269.77 328.74L348.11 273.3400000000001A25 25 0 0 0 341.11 229.05L276.4600000000001 208.95L442.68 42.68A25 25 0 0 0 442.68 7.32z" />
    <glyph glyph-name="magic-wand-line"
      unicode="&#xEA2F;"
      horiz-adv-x="450" d="M442.68 42.68L276.4100000000001 208.95L341.06 229A25 25 0 0 1 348.06 273.29L269.7200000000001 328.69L271 424.68A25 25 0 0 1 231 445L154.1 387.61L63.24 418.46A25 25 0 0 1 31.54 386.76L62.35 295.89L5 219A25 25 0 0 1 25.32 179L121.26 180.23L176.67 101.89A25 25 0 0 1 220.95 108.89L241.05 173.55L407.32 7.32A25 25 0 0 1 442.68 42.68zM205.59 228L188.24 172.2L154.5 219.87A25 25 0 0 1 134.09 230.43H133.77L75.33 229.69L110.33 276.52A25 25 0 0 1 113.97 299.52L95.16 354.85L150.5 336.08A25 25 0 0 1 173.5 339.7200000000001L220.33 374.67L219.59 316.23A25 25 0 0 1 230.15 295.5L277.86 261.76L222 244.41A25 25 0 0 1 205.59 228z" />
    <glyph glyph-name="marquee-line"
      unicode="&#xEA30;"
      horiz-adv-x="450" d="M425 125H425A25 25 0 0 1 400 100V50H350A25 25 0 0 1 350 0H425A25 25 0 0 1 450 25V100A25 25 0 0 1 425 125zM100 50H50V100A25 25 0 0 1 25 125H25A25 25 0 0 1 0 100V25A25 25 0 0 1 25 0H100A25 25 0 0 1 100 50zM425 450H350A25 25 0 0 1 325 425H325A25 25 0 0 1 350 400H400V350A25 25 0 0 1 425 325H425A25 25 0 0 1 450 350V425H450A25 25 0 0 1 425 450zM100 450H25A25 25 0 0 1 0 425H0V350A25 25 0 0 1 25 325H25A25 25 0 0 1 50 350V400H100A25 25 0 0 1 125 425H125A25 25 0 0 1 100 450zM25 275H25A25 25 0 0 0 50 250V200A25 25 0 0 0 25 175H25A25 25 0 0 0 0 200V250A25 25 0 0 0 25 275zM250 450H200A25 25 0 0 1 175 425H175A25 25 0 0 1 200 400H250A25 25 0 0 1 275 425H275A25 25 0 0 1 250 450zM250 50H200A25 25 0 0 1 175 25H175A25 25 0 0 1 200 0H250A25 25 0 0 1 275 25H275A25 25 0 0 1 250 50zM425 275H425A25 25 0 0 0 450 250V200A25 25 0 0 0 425 175H425A25 25 0 0 0 400 200V250A25 25 0 0 0 425 275z" />
    <glyph glyph-name="menu"
      unicode="&#xEA31;"
      horiz-adv-x="450" d="M375 100H75A25 25 0 0 1 75 50H375A25 25 0 0 1 375 100zM75 350H375A25 25 0 0 1 375 400H75A25 25 0 0 1 75 350zM375 250H75A25 25 0 0 1 75 200H375A25 25 0 0 1 375 250z" />
    <glyph glyph-name="minus-line"
      unicode="&#xEA32;"
      horiz-adv-x="450" d="M374.99997 225.00003L374.99997 224.99997A24.99997 24.99997 0 0 0 350 200L99.99999 200A24.99997 24.99997 0 0 0 75.00002 224.99997L75.00002 225.00003A24.99997 24.99997 0 0 0 99.99999 250L350 250A24.99997 24.99997 0 0 0 374.99997 225.00003z" />
    <glyph glyph-name="move-line"
      unicode="&#xEA33;"
      horiz-adv-x="450" d="M442.68 242.68L372 313.39A25 25 0 0 1 336.64 313.39H336.64A25 25 0 0 1 336.64 278.03L364.64 250.03H250V364.64L278 336.64A25 25 0 0 1 313.36 336.64H313.36A25 25 0 0 1 313.36 372L242.68 442.68H242.68A25 25 0 0 1 207.32 442.68L136.61 372A25 25 0 0 1 136.61 336.64H136.61A25 25 0 0 1 171.97 336.64L199.97 364.64V250H85.36L113.36 278A25 25 0 0 1 113.36 313.36H113.36A25 25 0 0 1 78 313.36L7.32 242.68A25 25 0 0 1 7.32 207.32L78 136.61A25 25 0 0 1 113.36 136.61H113.36A25 25 0 0 1 113.36 171.97L85.36 199.97H200V85.36L172 113.36A25 25 0 0 1 136.64 113.36H136.64A25 25 0 0 1 136.64 78L207.35 7.29H207.35A25 25 0 0 1 242.71 7.29L313.39 78A25 25 0 0 1 313.39 113.36H313.39A25 25 0 0 1 278.03 113.36L250.03 85.36V200H364.64L336.64 172A25 25 0 0 1 336.64 136.64H336.64A25 25 0 0 1 372 136.64L442.71 207.35A25 25 0 0 1 442.68 242.68z" />
    <glyph glyph-name="paint-bucket-fill"
      unicode="&#xEA34;"
      horiz-adv-x="450" d="M398.59 191.73A24.9 24.9 0 0 0 392.66 182.31L217.66 7.31H217.66A25 25 0 0 0 182.31 7.31L7.31 182.31A25 25 0 0 0 7.31 217.7L164.64 375L132.32 407.32A25 25 0 0 0 167.68 442.68L392.68 217.68A25 25 0 0 0 398.59 191.73zM435.36 114.64L408.8400000000001 141.16A12.51 12.51 0 0 1 391.1600000000001 141.16L364.6400000000001 114.64A50 50 0 0 1 364.6400000000001 43.93H364.6400000000001A50 50 0 0 1 435.36 43.93H435.36A50 50 0 0 1 435.36 114.64z" />
    <glyph glyph-name="paint-bucket-line"
      unicode="&#xEA35;"
      horiz-adv-x="450" d="M392.6600000000001 182.32A25 25 0 0 1 392.6600000000001 217.7L167.66 442.7A25 25 0 0 1 132.3 407.35L164.64 375L7.32 217.69A25 25 0 0 1 7.32 182.31L182.32 7.31A25 25 0 0 1 217.67 7.31H217.67zM339.6600000000001 200.01L200 60.36L60.34 200L200 339.66zM435.36 114.66L408.8400000000001 141.18A12.51 12.51 0 0 1 391.1600000000001 141.18L364.6400000000001 114.66A50 50 0 0 1 364.6400000000001 43.95H364.6400000000001A50 50 0 0 1 435.36 43.95H435.36A50 50 0 0 1 435.36 114.66z" />
    <glyph glyph-name="paint-bucket-semi"
      unicode="&#xEA36;"
      horiz-adv-x="450" d="M392.67 217.69L167.67 442.69A25 25 0 0 1 132.31 407.33L164.64 375L7.32 217.68A25 25 0 0 1 7.32 182.29L182.32 7.29A25 25 0 0 1 217.67 7.29H217.67L392.67 182.29A25 25 0 0 1 392.67 217.67zM200 339.64L339.64 200H60.34zM435.36 114.64L408.8400000000001 141.16A12.51 12.51 0 0 1 391.1600000000001 141.16L364.6400000000001 114.64A50 50 0 0 1 364.6400000000001 43.93H364.6400000000001A50 50 0 0 1 435.36 43.93H435.36A50 50 0 0 1 435.36 114.64z" />
    <glyph glyph-name="path-fill"
      unicode="&#xEA37;"
      horiz-adv-x="450" d="M450 425V325A25 25 0 0 0 425 300H335.36L150 114.63V25A25 25 0 0 0 125 0H25A25 25 0 0 0 0 25V125A25 25 0 0 0 25 150H114.64L300 335.3400000000001V425A25 25 0 0 0 325 450H425A25 25 0 0 0 450 425z" />
    <glyph glyph-name="path-line"
      unicode="&#xEA38;"
      horiz-adv-x="450" d="M425 450H325A25 25 0 0 1 300 425V335.36L114.64 150H25A25 25 0 0 1 0 125V25A25 25 0 0 1 25 0H125A25 25 0 0 1 150 25V114.64L335.36 300H425A25 25 0 0 1 450 325V425A25 25 0 0 1 425 450zM350 400H400V350H350zM100 50H50V100H100z" />
    <glyph glyph-name="path-semi"
      unicode="&#xEA39;"
      horiz-adv-x="450" d="M425 450H325A25 25 0 0 1 300 425V335.35L114.64 150H25A25 25 0 0 1 0 125V25A25 25 0 0 1 25 0H125A25 25 0 0 1 150 25V114.63L335.36 300H425A25 25 0 0 1 450 325V425A25 25 0 0 1 425 450zM400 350H350V400H400z" />
    <glyph glyph-name="pencil-fill"
      unicode="&#xEA3A;"
      horiz-adv-x="450" d="M215.4 340.39L7.33 132.32A25 25 0 0 1 0 114.63V25A25 25 0 0 1 25 0H114.64A25 25 0 0 1 132.32 7.32L340.4 215.39A12.48 12.48 0 0 1 340.4 233.06L233.08 340.39A12.51 12.51 0 0 1 215.4 340.39zM450 336.51A25.05 25.05 0 0 1 448.82 343.02C448.7 343.39 448.57 343.76 448.43 344.12S448.0900000000001 345 447.9100000000001 345.43A27.78 27.78 0 0 1 446.42 348.29A25.49 25.49 0 0 1 442.68 353H442.68L353 442.6600000000001H353A25 25 0 0 1 317.65 442.6600000000001L259.6 384.58A12.51 12.51 0 0 1 259.6 366.9L366.92 259.5800000000001A12.51 12.51 0 0 1 384.6 259.5800000000001L442.68 317.6600000000001A24.9 24.9 0 0 1 450 335.33C450 335.7200000000001 450 336.12 450 336.51z" />
    <glyph glyph-name="pencil-line"
      unicode="&#xEA3B;"
      horiz-adv-x="450" d="M450 336.53A25.05 25.05 0 0 1 448.82 343.04C448.7 343.4100000000001 448.57 343.77 448.43 344.14S448.0900000000001 345.01 447.9100000000001 345.44A26.79 26.79 0 0 1 446.42 348.3A24.85 24.85 0 0 1 442.68 353H442.68L353 442.67H353A25 25 0 0 1 317.65 442.67L7.32 132.32A25 25 0 0 1 0 114.64V25A25 25 0 0 1 25 0H114.64A25 25 0 0 1 132.32 7.32L362.5 237.5H362.5L442.68 317.68H442.68A24.91 24.91 0 0 1 450 336.53zM344.85 290.53L290.5700000000001 344.81L335.3900000000001 389.63L389.6700000000001 335.35zM104.28 50H50V104.28L255.18 309.4600000000001L309.4600000000001 255.18z" />
    <glyph glyph-name="pencil-semi"
      unicode="&#xEA3C;"
      horiz-adv-x="450" d="M450 336.51A25.05 25.05 0 0 1 448.82 343.02C448.7 343.39 448.57 343.76 448.43 344.12S448.0900000000001 345 447.9100000000001 345.43A27.78 27.78 0 0 1 446.42 348.29A25.49 25.49 0 0 1 442.68 353H442.68L353 442.6600000000001H353A25 25 0 0 1 317.65 442.6600000000001L7.32 132.31A25 25 0 0 1 0 114.63V25A25 25 0 0 1 25 0H114.64A25 25 0 0 1 132.32 7.32L362.5 237.48H362.5L442.68 317.65A24.9 24.9 0 0 1 450 335.33C450 335.7200000000001 450 336.12 450 336.51zM104.28 50H50V104.27L255.18 309.45L309.4600000000001 255.17z" />
    <glyph glyph-name="plus-large-line"
      unicode="&#xEA3D;"
      horiz-adv-x="450" d="M250 199.99995L400 199.99995A25 25 0 0 1 400 249.99995L250.0001 249.99995L250 400A24.99988 24.99988 0 0 1 225 425H225A25.0001 25.0001 0 0 1 200 400V250L50 250A25 25 0 0 1 25 225L25 225A25.0001 25.0001 0 0 1 50 200H200L200 50A25.0001 25.0001 0 0 1 225 25L225 25A24.99992 24.99992 0 0 1 250 50z" />
    <glyph glyph-name="plus-small-line"
      unicode="&#xEA3E;"
      horiz-adv-x="450" d="M350 250H250V350A25 25 0 0 1 225 375H225A25 25 0 0 1 200 350V250H100A25 25 0 0 1 75 225H75A25 25 0 0 1 100 200H200V100A25 25 0 0 1 225 75H225A25 25 0 0 1 250 100V200H350A25 25 0 0 1 375 225H375A25 25 0 0 1 350 250z" />
    <glyph glyph-name="polygon-lasso-line"
      unicode="&#xEA3F;"
      horiz-adv-x="450" d="M425 450H25A25 25 0 0 1 0 425V175A25 25 0 0 1 25 150H100V75A25 25 0 0 1 125 50H300V25A25 25 0 0 1 325 0H325A25 25 0 0 1 350 25V75A25 25 0 0 1 325 100H150V150H425A25 25 0 0 1 450 175V425A25 25 0 0 1 425 450zM125 250H125A25 25 0 0 1 100 225V200H50V400H400V200H150V225A25 25 0 0 1 125 250z" />
    <glyph glyph-name="redo-line"
      unicode="&#xEA40;"
      horiz-adv-x="450" d="M399 321.76A24.89 24.89 0 0 1 395.2 329.43A24.61 24.61 0 0 1 393.59 331.43C393.31 331.75 393.01 332.06 392.71 332.36L322 403A25 25 0 0 1 286.64 403H286.64A25 25 0 0 1 286.64 367.65L314.64 339.65H200A149.83 149.83 0 0 1 50 188.09C50.83 105.63 118.91 39.64 201.37 39.64H350A25 25 0 0 1 350 89.64H201.25C146.11 89.64 100.41 133.75 100 188.89A100 100 0 0 0 200 289.64H314.64L286.64 261.64A25 25 0 0 1 286.64 226.29H286.64A25 25 0 0 1 322 226.29L392.68 297C392.98 297.3 393.2800000000001 297.61 393.56 297.93A24.61 24.61 0 0 1 395.17 299.93A24.89 24.89 0 0 1 398.9700000000001 307.6A25.15 25.15 0 0 1 399 321.76z" />
    <glyph glyph-name="replace-selection-fill"
      unicode="&#xEA41;"
      horiz-adv-x="450" d="M162.5 99.99H187.5A12.5 12.5 0 0 0 200 87.49V62.49A12.5 12.5 0 0 0 187.5 49.99H162.5A12.5 12.5 0 0 0 150 62.49V87.49A12.5 12.5 0 0 0 162.5 99.99zM262.5 99.99H287.5A12.5 12.5 0 0 0 300 87.49V62.49A12.5 12.5 0 0 0 287.5 49.99H262.5A12.5 12.5 0 0 0 250 62.49V87.49A12.5 12.5 0 0 0 262.5 99.99zM300 375V175A25 25 0 0 0 275 150H75A25 25 0 0 0 50 175V375A25 25 0 0 0 75 400H275A25 25 0 0 0 300 375zM400 87.49V62.49A12.5 12.5 0 0 0 387.5 50H362.5A12.5 12.5 0 0 0 350 62.5V87.5A12.5 12.5 0 0 0 362.5 100H387.5A12.5 12.5 0 0 0 400 87.49zM362.5 199.99H387.5A12.5 12.5 0 0 0 400 187.49V162.49A12.5 12.5 0 0 0 387.5 149.99H362.5A12.5 12.5 0 0 0 350 162.49V187.49A12.5 12.5 0 0 0 362.5 199.99zM362.5 299.99H387.5A12.5 12.5 0 0 0 400 287.49V262.49A12.5 12.5 0 0 0 387.5 249.99H362.5A12.5 12.5 0 0 0 350 262.49V287.49A12.5 12.5 0 0 0 362.5 299.99z" />
    <glyph glyph-name="replace-selection-line"
      unicode="&#xEA42;"
      horiz-adv-x="450" d="M275 400H75A25 25 0 0 1 50 375V175A25 25 0 0 1 75 150H275A25 25 0 0 1 300 175V375A25 25 0 0 1 275 400zM250 350V200H100V350zM162.5 100H187.5A12.5 12.5 0 0 0 200 87.5V62.5A12.5 12.5 0 0 0 187.5 50H162.5A12.5 12.5 0 0 0 150 62.5V87.5A12.5 12.5 0 0 0 162.5 100zM262.5 100H287.5A12.5 12.5 0 0 0 300 87.5V62.5A12.5 12.5 0 0 0 287.5 50H262.5A12.5 12.5 0 0 0 250 62.5V87.5A12.5 12.5 0 0 0 262.5 100zM362.5 100H387.5A12.5 12.5 0 0 0 400 87.5V62.5A12.5 12.5 0 0 0 387.5 50H362.5A12.5 12.5 0 0 0 350 62.5V87.5A12.5 12.5 0 0 0 362.5 100zM362.5 200H387.5A12.5 12.5 0 0 0 400 187.5V162.5A12.5 12.5 0 0 0 387.5 150H362.5A12.5 12.5 0 0 0 350 162.5V187.5A12.5 12.5 0 0 0 362.5 200zM362.5 300H387.5A12.5 12.5 0 0 0 400 287.5V262.5A12.5 12.5 0 0 0 387.5 250H362.5A12.5 12.5 0 0 0 350 262.5V287.5A12.5 12.5 0 0 0 362.5 300z" />
    <glyph glyph-name="right-arrow-large-line"
      unicode="&#xEA43;"
      horiz-adv-x="450" d="M145.45051 366.42136L145.45051 366.42136A25 25 0 0 1 145.45051 331.06605L251.5165 225L145.4505 118.934A25 25 0 0 1 145.4505 83.5787L145.4505 83.5787A25 25 0 0 1 180.80581 83.5787L304.54953 207.32233A25 25 0 0 1 304.54953 242.67763L180.80581 366.42136A25 25 0 0 1 145.45051 366.42136z" />
    <glyph glyph-name="right-arrow-small-line"
      unicode="&#xEA44;"
      horiz-adv-x="450" d="M163.12818 331.0660000000001L163.12818 331.0660000000001A25 25 0 0 1 163.12818 295.7107L233.83883 225L163.12815 154.28932A25 25 0 0 1 163.12815 118.93402L163.12815 118.93402A25 25 0 0 1 198.48346 118.93402L286.87182 207.32239A25 25 0 0 1 286.87182 242.67769L198.48349 331.0660000000001A25 25 0 0 1 163.12818 331.0660000000001z" />
    <glyph glyph-name="rounded-square-fill"
      unicode="&#xEA45;"
      horiz-adv-x="450" d="M100 450H350A100 100 0 0 0 450 350V100A100 100 0 0 0 350 0H100A100 100 0 0 0 0 100V350A100 100 0 0 0 100 450z" />
    <glyph glyph-name="rounded-square-line"
      unicode="&#xEA46;"
      horiz-adv-x="450" d="M350 450H100A100 100 0 0 1 0 350V100A100 100 0 0 1 100 0H350A100 100 0 0 1 450 100V350A100 100 0 0 1 350 450zM350 50H100A50 50 0 0 0 50 100V350A50 50 0 0 0 100 400H350A50 50 0 0 0 400 350V100A50 50 0 0 0 350 50z" />
    <glyph glyph-name="rounded-square-semi"
      unicode="&#xEA47;"
      horiz-adv-x="450" d="M350 450H100A100 100 0 0 1 0 350V100A100 100 0 0 1 100 0H350A100 100 0 0 1 450 100V350A100 100 0 0 1 350 450zM50 350A50 50 0 0 0 100 400H350A49.84 49.84 0 0 0 385.35 385.35L64.65 64.65A49.81 49.81 0 0 0 50 100z" />
    <glyph glyph-name="rounded-square-small-fill"
      unicode="&#xEA48;"
      horiz-adv-x="450" d="M150 400H300A100 100 0 0 0 400 300V150A100 100 0 0 0 300 50H150A100 100 0 0 0 50 150V300A100 100 0 0 0 150 400z" />
    <glyph glyph-name="rounded-square-small-line"
      unicode="&#xEA49;"
      horiz-adv-x="450" d="M300 400H150A100 100 0 0 1 50 300V150A100 100 0 0 1 150 50H300A100 100 0 0 1 400 150V300A100 100 0 0 1 300 400zM300 100H150A50 50 0 0 0 100 150V300A50 50 0 0 0 150 350H300A50 50 0 0 0 350 300V150A50 50 0 0 0 300 100z" />
    <glyph glyph-name="rounded-square-small-semi"
      unicode="&#xEA4A;"
      horiz-adv-x="450" d="M300 400H150A100 100 0 0 1 50 300V150A100 100 0 0 1 150 50H300A100 100 0 0 1 400 150V300A100 100 0 0 1 300 400zM100 300A50 50 0 0 0 150 350H300A49.84 49.84 0 0 0 335.35 335.35L114.65 114.65A49.81 49.81 0 0 0 100 150z" />
    <glyph glyph-name="settings-fill"
      unicode="&#xEA4B;"
      horiz-adv-x="450" d="M434.95819 179.18652L419.37 192.69995L399.3606 210.05042C399.77783 214.99988 400 219.98364 400 225S399.77783 235.00012 399.3606 239.94958L419.37 257.3L434.95819 270.8134300000001A25 25 0 0 1 440.23419 302.20137L429.92 320.07007L419.86 337.5L409.79 354.92993L399.47821 372.79431A24.99984 24.99984 0 0 1 369.65405 383.92285L350.1600000000001 377.17993L325.14548 368.5322300000001A173.97844 173.97844 0 0 1 299.23288 383.49792L294.2200000000001 409.48L290.30441 429.74318A25 25 0 0 1 265.75848 450H184.24148A25 25 0 0 1 159.69558 429.74316L155.78 409.48L150.76712 383.49794A173.97844 173.97844 0 0 1 124.85452 368.53225L99.84 377.17993L80.346 383.92285A24.9999 24.9999 0 0 1 50.52179 372.79431L40.21 354.92993L33.42 343.16993L20.08 320.07007L9.76581 302.20142A25 25 0 0 1 15.04181 270.8134800000001L30.63 257.3L50.6394 239.94953C50.22217 235.00012 50 230.01636 50 225S50.22217 214.99988 50.6394 210.05042L30.63 192.69995L15.04187 179.18652A25 25 0 0 1 9.76581 147.79858L20.08 129.93L33.42 106.83L40.21 95.07L50.52177 77.20562A25.00007 25.00007 0 0 1 80.346 66.077L99.84 72.82L124.85458 81.4677A173.988 173.988 0 0 1 150.76712 66.50207L155.78 40.52L159.69559 20.25682A25 25 0 0 1 184.24152 0H265.75852A25 25 0 0 1 290.30442 20.25684L294.2200000000001 40.52L299.23288 66.50206A173.988 173.988 0 0 1 325.14542 81.46769L350.1600000000001 72.82L369.65408 66.077A25 25 0 0 1 399.4782400000001 77.2056L409.79 95.07L419.86 112.5L429.92 129.93L440.23421 147.79859A25 25 0 0 1 434.95819 179.18652zM225 162.5A62.5 62.5 0 1 0 287.5 225A62.5 62.5 0 0 0 225 162.5z" />
    <glyph glyph-name="settings-line"
      unicode="&#xEA4C;"
      horiz-adv-x="450" d="M255.78564 400L266.34709 357.11431A25 25 0 0 1 278.12176 341.44184L299.28046 329.22584A25 25 0 0 1 318.74071 326.86484L361.16148 339.16136L391.94729 285.8388300000001L360.08782 255.24956A25 25 0 0 1 352.40235 237.21598L352.40244 212.78398A25 25 0 0 1 360.0878800000001 194.75061L391.9473700000001 164.16124L361.1616300000001 110.8388L318.7408200000001 123.13522A24.99994 24.99994 0 0 1 299.2806500000001 120.77428L278.1218300000001 108.55828A25 25 0 0 1 266.3471100000001 92.88571L255.7858300000001 50.00013L194.21432 50L183.65287 92.88574A25 25 0 0 1 171.8782 108.55822L150.71952 120.77422A25 25 0 0 1 131.25926 123.13522L88.83843 110.83867L58.05265 164.16119L89.91217 194.75046A25 25 0 0 1 97.59765 212.78396V237.216A25 25 0 0 1 89.91212 255.24954L58.05265 285.83862L88.8382 339.16117L131.2592 326.8648A24.99994 24.99994 0 0 1 150.71931 329.2258L171.87816 341.44187A25 25 0 0 1 183.65289 357.11444L194.21415 400H255.78564M255.78564 450H194.214A49.99981 49.99981 0 0 1 145.66473 411.95635L145.66473 411.95618L137.651 379.4156500000001L136.29878 378.63501L134.94634 377.85413L102.75862 387.18433L102.75852 387.18433A49.99982 49.99982 0 0 1 45.537 364.16117L45.537 364.16117L30.14415 337.49988L14.75132 310.83862L14.75116 310.83836A49.99983 49.99983 0 0 1 23.4234 249.77172L23.42365 249.77148L47.59765 226.5614V223.4384L23.42365 200.2282L23.42355 200.2281A49.99981 49.99981 0 0 1 14.75125 139.16136L14.75132 139.16124L30.14432 112.4998700000001L45.53715 85.8387300000001L45.53731 85.8384600000001A49.99982 49.99982 0 0 1 102.75867 62.81546L102.75898 62.81555L134.94657 72.14581L136.29881 71.3650500000001L137.65111 70.5842900000001L145.66482 38.0438800000001L145.66482 38.04371A49.99981 49.99981 0 0 1 194.21413 0H255.786A49.99981 49.99981 0 0 1 304.33527 38.04367L304.33527 38.04382L312.34888 70.5842300000001L315.05361 72.14581L347.24128 62.8156700000001L347.24141 62.8156700000001A49.99983 49.99983 0 0 1 404.463 85.83877L404.463 85.83877L419.85582 112.50014L435.24864 139.16128L435.2488100000001 139.16157A49.99982 49.99982 0 0 1 426.5767100000001 200.22814L426.5764900000001 200.22835L402.40242 223.43868L402.40242 226.56173L426.57634 249.77181L426.57646 249.77192A49.99983 49.99983 0 0 1 435.24877 310.8386500000001L435.24867 310.8388300000001L419.8556700000001 337.5000800000001L404.46281 364.16138L404.4627 364.16158A49.99981 49.99981 0 0 1 347.24128 387.18458L347.24098 387.1845L315.0534 377.8543L313.70115 378.63506L312.34886 379.41582L304.33514 411.95623L299.65064 430.97817A25 25 0 0 1 275.37594 450zM225 250A25 25 0 1 0 200 225A25 25 0 0 0 225 250M225 300A75 75 0 1 1 300 225A75.085 75.085 0 0 1 225 300z" />
    <glyph glyph-name="sparkles-line"
      unicode="&#xEA4D;"
      horiz-adv-x="450" d="M161.937 350H150A12.5 12.5 0 0 0 137.5 362.5V374.437C137.5 388.45287 126.02991 400.26122 112.01654 399.9953500000001A25 25 0 0 1 87.5 375V362.5A12.5 12.5 0 0 0 75 350H63.063C49.04713 350 37.23884 338.52991 37.50459 324.5166A25.00018 25.00018 0 0 1 62.5 300H75A12.5 12.5 0 0 0 87.5 287.5V275.563C87.5 261.54713 98.97009 249.73878 112.98346 250.00465A25 25 0 0 1 137.5 275V287.5A12.5 12.5 0 0 0 150 300H162.5A25.00018 25.00018 0 0 1 187.49542 324.5166C187.76117 338.52994 175.95288 350 161.937 350zM386.937 250H362.5A25 25 0 0 0 337.5 275V299.437C337.5 313.45287 326.02991 325.26122 312.01654 324.9953500000001A25 25 0 0 1 287.5 300V275A25 25 0 0 0 262.5 250H238.063C224.04713 250 212.23884 238.52991 212.50459 224.5166A25.00018 25.00018 0 0 1 237.5 200H262.5A25 25 0 0 0 287.5 175V150.563C287.5 136.54713 298.9700900000001 124.73884 312.98346 125.00459A25.00013 25.00013 0 0 1 337.5 150V175A25 25 0 0 0 362.5 200H387.5A25.00018 25.00018 0 0 1 412.49542 224.5166C412.76117 238.52994 400.95288 250 386.937 250zM161.937 150H150A12.5 12.5 0 0 0 137.5 162.5V174.437C137.5 188.45287 126.02991 200.26122 112.01654 199.99535A25 25 0 0 1 87.5 175V162.5A12.5 12.5 0 0 0 75 150H63.063C49.04713 150 37.23884 138.52991 37.50459 124.51654A25.00013 25.00013 0 0 1 62.5 100H75A12.5 12.5 0 0 0 87.5 87.5V75.563C87.5 61.54713 98.97009 49.73884 112.98346 50.00459A25.00013 25.00013 0 0 1 137.5 75V87.5A12.5 12.5 0 0 0 150 100H162.5A25.00013 25.00013 0 0 1 187.49542 124.51654C187.76117 138.52994 175.95288 150 161.937 150z" />
    <glyph glyph-name="spray-fill"
      unicode="&#xEA4E;"
      horiz-adv-x="450" d="M275 375H250V425A25 25 0 0 1 225 450H75A25 25 0 0 1 50 425V337.5A12.5 12.5 0 0 1 62.5 325H274.44C288.44 325 300.25 336.4600000000001 300 350.4600000000001A25 25 0 0 1 275 375zM300 239.63V25A25 25 0 0 0 275 0H25A25 25 0 0 0 0 25V239.63A25 25 0 0 0 7.33 257.32L33.84 283.83A12.5 12.5 0 0 0 42.68 287.49H257.32A12.5 12.5 0 0 0 266.16 283.83L292.67 257.32A25 25 0 0 0 300 239.63zM325 349.99A25 25 0 0 1 375 349.99A25 25 0 0 1 325 349.99M400 299.99A25 25 0 0 1 450 299.99A25 25 0 0 1 400 299.99M400 399.99A25 25 0 0 1 450 399.99A25 25 0 0 1 400 399.99" />
    <glyph glyph-name="spray-line"
      unicode="&#xEA4F;"
      horiz-adv-x="450" d="M275 325A25 25 0 0 1 275 375H250V425A25 25 0 0 1 225 450H75A25 25 0 0 1 50 425V300L7.32 257.32A25 25 0 0 1 0 239.64V25A25 25 0 0 1 25 0H275A25 25 0 0 1 300 25V239.64A25 25 0 0 1 292.68 257.32L250 300V325zM200 400V329.29H100V400zM100 279.29H200L250 229.29V175H50V229.28zM50 125H250V50H50zM325 350A25 25 0 0 1 375 350A25 25 0 0 1 325 350M400 300A25 25 0 0 1 450 300A25 25 0 0 1 400 300M400 400A25 25 0 0 1 450 400A25 25 0 0 1 400 400" />
    <glyph glyph-name="spray-semi"
      unicode="&#xEA50;"
      horiz-adv-x="450" d="M250 300V325H275A25 25 0 0 1 275 375H250V425A25 25 0 0 1 225 450H75A25 25 0 0 1 50 425V300L7.32 257.31A25 25 0 0 1 0 239.63V25A25 25 0 0 1 25 0H275A25 25 0 0 1 300 25V239.63A25 25 0 0 1 292.68 257.31zM100 400H200V329.29H100zM250 175H50V229.27L100 279.27H200L250 229.27zM325 349.99A25 25 0 0 1 375 349.99A25 25 0 0 1 325 349.99M400 299.99A25 25 0 0 1 450 299.99A25 25 0 0 1 400 299.99M400 399.99A25 25 0 0 1 450 399.99A25 25 0 0 1 400 399.99" />
    <glyph glyph-name="square-fill"
      unicode="&#xEA51;"
      horiz-adv-x="450" d="M450 425V25A25 25 0 0 0 425 0H25A25 25 0 0 0 0 25V425A25 25 0 0 0 25 450H425A25 25 0 0 0 450 425z" />
    <glyph glyph-name="square-line"
      unicode="&#xEA52;"
      horiz-adv-x="450" d="M0 425V25A25 25 0 0 1 25 0H425A25 25 0 0 1 450 25V425A25 25 0 0 1 425 450H25A25 25 0 0 1 0 425zM400 50H50V400H400z" />
    <glyph glyph-name="square-semi"
      unicode="&#xEA53;"
      horiz-adv-x="450" d="M425 450H25A25 25 0 0 1 0 425V25A25 25 0 0 1 25 0H425A25 25 0 0 1 450 25V425A25 25 0 0 1 425 450zM50 50V400H400z" />
    <glyph glyph-name="square-small-fill"
      unicode="&#xEA54;"
      horiz-adv-x="450" d="M400 375V75A25 25 0 0 0 375 50H75A25 25 0 0 0 50 75V375A25 25 0 0 0 75 400H375A25 25 0 0 0 400 375z" />
    <glyph glyph-name="square-small-line"
      unicode="&#xEA55;"
      horiz-adv-x="450" d="M50 375V75A25 25 0 0 1 75 50H375A25 25 0 0 1 400 75V375A25 25 0 0 1 375 400H75A25 25 0 0 1 50 375zM350 100H100V350H350z" />
    <glyph glyph-name="square-small-semi"
      unicode="&#xEA56;"
      horiz-adv-x="450" d="M375 400H75A25 25 0 0 1 50 375V75A25 25 0 0 1 75 50H375A25 25 0 0 1 400 75V375A25 25 0 0 1 375 400zM100 100V350H350z" />
    <glyph glyph-name="star-fill"
      unicode="&#xEA57;"
      horiz-adv-x="450" d="M415.53 246L338.4 170.77L356.61 64.62A25 25 0 0 0 320.34 38.26L225 88.38L129.66 38.26A25 25 0 0 0 93.39 64.62L111.6 170.77L34.47 246A25 25 0 0 0 48.32 288.6L154.91 304.0900000000001L202.58 400.67A25 25 0 0 0 247.42 400.67L295.09 304.0900000000001L401.68 288.6A25 25 0 0 0 415.53 246z" />
    <glyph glyph-name="star-line"
      unicode="&#xEA58;"
      horiz-adv-x="450" d="M332 35.39A25 25 0 0 0 320.37 38.26L225 88.38L129.66 38.26A25 25 0 0 0 93.39 64.62L111.6 170.77L34.47 246A25 25 0 0 0 48.32 288.6L154.91 304.0900000000001L202.58 400.67A25 25 0 0 0 247.42 400.67L295.09 304.0900000000001L401.68 288.6A25 25 0 0 0 415.53 246L338.4 170.77L356.61 64.62A25 25 0 0 0 332 35.39zM225 141.63A25 25 0 0 0 236.63 138.76L298.77 106.09L286.9 175.28A25 25 0 0 0 294.09 197.4L344.36 246.4L274.89 256.5A25 25 0 0 0 256.07 270.17L225 333.17L193.93 270.17A25 25 0 0 0 175.11 256.5L105.64 246.4L155.91 197.4A25 25 0 0 0 163.1 175.28L151.23 106.09L213.37 138.76A25 25 0 0 0 225 141.63z" />
    <glyph glyph-name="star-semi"
      unicode="&#xEA59;"
      horiz-adv-x="450" d="M421.86 271.5800000000001A25 25 0 0 1 401.68 288.5800000000001L295.09 304.0900000000001L247.42 400.67A25 25 0 0 1 202.58 400.67L154.91 304.0900000000001L48.32 288.6A25 25 0 0 1 34.47 246L111.6 170.81L93.39 64.62A25 25 0 0 1 129.66 38.26L225 88.38L320.3400000000001 38.26A25 25 0 0 1 356.61 64.62L338.4 170.77L415.53 246A25 25 0 0 1 421.86 271.5800000000001zM294.09 197.4A25 25 0 0 1 286.9 175.28L298.77 106.09L225 144.87V333.12L256.07 270.12A25 25 0 0 1 274.89 256.4500000000001L344.36 246.35z" />
    <glyph glyph-name="subtract-selection-fill"
      unicode="&#xEA5A;"
      horiz-adv-x="450" d="M62.5 399.99H87.5A12.5 12.5 0 0 0 100 387.49V362.49A12.5 12.5 0 0 0 87.5 349.99H62.5A12.5 12.5 0 0 0 50 362.49V387.49A12.5 12.5 0 0 0 62.5 399.99zM262.5 399.99H287.5A12.5 12.5 0 0 0 300 387.49V362.49A12.5 12.5 0 0 0 287.5 349.99H262.5A12.5 12.5 0 0 0 250 362.49V387.49A12.5 12.5 0 0 0 262.5 399.99zM62.5 199.99H87.5A12.5 12.5 0 0 0 100 187.49V162.49A12.5 12.5 0 0 0 87.5 149.99H62.5A12.5 12.5 0 0 0 50 162.49V187.49A12.5 12.5 0 0 0 62.5 199.99zM62.5 299.99H87.5A12.5 12.5 0 0 0 100 287.49V262.49A12.5 12.5 0 0 0 87.5 249.99H62.5A12.5 12.5 0 0 0 50 262.49V287.49A12.5 12.5 0 0 0 62.5 299.99zM400 275V75A25 25 0 0 0 375 50H175A25 25 0 0 0 150 75V175A25 25 0 0 0 175 200H250V275A25 25 0 0 0 275 300H375A25 25 0 0 0 400 275zM150 362.49V387.49A12.5 12.5 0 0 0 162.5 400H187.5A12.5 12.5 0 0 0 200 387.49V362.49A12.5 12.5 0 0 0 187.5 350H162.5A12.5 12.5 0 0 0 150 362.49z" />
    <glyph glyph-name="subtract-selection-line"
      unicode="&#xEA5B;"
      horiz-adv-x="450" d="M62.5 400H87.5A12.5 12.5 0 0 0 100 387.5V362.5A12.5 12.5 0 0 0 87.5 350H62.5A12.5 12.5 0 0 0 50 362.5V387.5A12.5 12.5 0 0 0 62.5 400zM162.5 400H187.5A12.5 12.5 0 0 0 200 387.5V362.5A12.5 12.5 0 0 0 187.5 350H162.5A12.5 12.5 0 0 0 150 362.5V387.5A12.5 12.5 0 0 0 162.5 400zM262.5 400H287.5A12.5 12.5 0 0 0 300 387.5V362.5A12.5 12.5 0 0 0 287.5 350H262.5A12.5 12.5 0 0 0 250 362.5V387.5A12.5 12.5 0 0 0 262.5 400zM62.5 200H87.5A12.5 12.5 0 0 0 100 187.5V162.5A12.5 12.5 0 0 0 87.5 150H62.5A12.5 12.5 0 0 0 50 162.5V187.5A12.5 12.5 0 0 0 62.5 200zM62.5 300H87.5A12.5 12.5 0 0 0 100 287.5V262.5A12.5 12.5 0 0 0 87.5 250H62.5A12.5 12.5 0 0 0 50 262.5V287.5A12.5 12.5 0 0 0 62.5 300zM375 300H275A25 25 0 0 1 250 275V200H175A25 25 0 0 1 150 175V75A25 25 0 0 1 175 50H375A25 25 0 0 1 400 75V275A25 25 0 0 1 375 300zM275 150A25 25 0 0 1 300 175V250H350V100H200V150z" />
    <glyph glyph-name="trash-fill"
      unicode="&#xEA5C;"
      horiz-adv-x="450" d="M425 350H350V425A25 25 0 0 1 325 450H125A25 25 0 0 1 100 425V350H25A25 25 0 0 1 25 300H425A25 25 0 1 1 425 350zM300 350H150V400H300zM387.5 262.5H62.5A12.5 12.5 0 0 1 50 250V25A25 25 0 0 1 75 0H375A25 25 0 0 1 400 25V250A12.5 12.5 0 0 1 387.5 262.5zM200 81.25A25 25 0 0 0 150 81.25V181.25A25 25 0 0 0 200 181.25zM300 81.25A25 25 0 0 0 250 81.25V181.25A25 25 0 0 0 300 181.25z" />
    <glyph glyph-name="trash-line"
      unicode="&#xEA5D;"
      horiz-adv-x="450" d="M425 350H350V425A25 25 0 0 1 325 450H125A25 25 0 0 1 100 425V350H25A25 25 0 0 1 25 300H50V25A25 25 0 0 1 75 0H375A25 25 0 0 1 400 25V300H425A25 25 0 0 1 425 350zM150 400H300V350H150zM350 50H100V300H350zM175 250H175A25 25 0 0 1 150 225V125A25 25 0 0 1 175 100H175A25 25 0 0 1 200 125V225A25 25 0 0 1 175 250zM275 250H275A25 25 0 0 1 250 225V125A25 25 0 0 1 275 100H275A25 25 0 0 1 300 125V225A25 25 0 0 1 275 250z" />
    <glyph glyph-name="type-tool-line"
      unicode="&#xEA5E;"
      horiz-adv-x="450" d="M375 400H75A25 25 0 0 1 50 375V325A25 25 0 0 1 100 325V350H200V100H175A25 25 0 0 1 175 50H275A25 25 0 0 1 275 100H250V350H350V325A25 25 0 0 1 400 325V375A25 25 0 0 1 375 400z" />
    <glyph glyph-name="undo-line"
      unicode="&#xEA5F;"
      horiz-adv-x="450" d="M300 331.11A150 150 0 0 1 250 339.64H135.36L163.36 367.64A25 25 0 0 1 163.36 402.99H163.36A25 25 0 0 1 128 403L57.32 332.32C57.02 332.02 56.72 331.71 56.44 331.39A24.13 24.13 0 0 1 52.32 325.17A24.15 24.15 0 0 1 51.4 322.92C51.13 322.15 50.91 321.38 50.71 320.6A23.58 23.58 0 0 1 50.26 318.23A23.86 23.86 0 0 1 50.03 315.8400000000001Q50.03 315.24 50.03 314.64C50.03 314.24 50.03 313.8400000000001 50.03 313.4500000000001A23.86 23.86 0 0 1 50.26 311.0600000000001A23.58 23.58 0 0 1 50.71 308.6900000000001C50.91 307.9100000000001 51.13 307.14 51.4 306.37A24.15 24.15 0 0 1 52.32 304.12A24.13 24.13 0 0 1 56.44 297.9000000000001C56.72 297.5800000000001 57.02 297.2700000000001 57.32 296.9700000000001L128 226.26A25 25 0 0 1 163.36 226.26H163.36A25 25 0 0 1 163.36 261.61L135.36 289.61H250A100 100 0 0 0 350 188.89C349.59 133.75 303.89 89.64 248.75 89.64H100A25 25 0 0 1 100 39.64H248.62C331.08 39.64 399.16 105.64 399.99 188.09A150.07 150.07 0 0 1 300 331.11z" />
    <glyph glyph-name="up-arrow-large-line"
      unicode="&#xEA60;"
      horiz-adv-x="450" d="M83.57864 145.45051L83.57864 145.45051A25 25 0 0 1 118.93395 145.45051L225 251.5165L331.0660000000001 145.4505A25 25 0 0 1 366.4213000000001 145.4505L366.4213000000001 145.4505A25 25 0 0 1 366.4213000000001 180.8058100000001L242.67767 304.54953A25 25 0 0 1 207.32237 304.54953L83.57864 180.80581A25 25 0 0 1 83.57864 145.45051z" />
    <glyph glyph-name="up-arrow-small-line"
      unicode="&#xEA61;"
      horiz-adv-x="450" d="M118.934 163.12818L118.934 163.12818A25 25 0 0 1 154.2893 163.12818L225 233.83883L295.71068 163.12815A25 25 0 0 1 331.06598 163.12815L331.06598 163.12815A25 25 0 0 1 331.06598 198.48346L242.67761 286.87182A25 25 0 0 1 207.32231 286.87182L118.934 198.48349A25 25 0 0 1 118.934 163.12818z" />
    <glyph glyph-name="x-large-line"
      unicode="&#xEA62;"
      horiz-adv-x="450" d="M260.35535 224.99992L366.42135 331.06592A25 25 0 0 1 331.066 366.42131L225 260.35539L118.934 366.42131A24.99988 24.99988 0 0 1 83.57865 366.42131H83.57865A25.0001 25.0001 0 0 1 83.57865 331.06596L189.64465 224.99996L83.57865 118.93396A25 25 0 0 1 83.57865 83.57868V83.57862A25.0001 25.0001 0 0 1 118.934 83.57862L225 189.64464L331.0660000000001 83.57864A25.00009 25.00009 0 0 1 366.4213400000001 83.57864V83.5787A24.99989 24.99989 0 0 1 366.4213400000001 118.93398z" />
    <glyph glyph-name="x-small-line"
      unicode="&#xEA63;"
      horiz-adv-x="450" d="M331.066 154.28932L260.35534 225L331.066 295.71068A25 25 0 0 1 331.066 331.06602H331.066A25 25 0 0 1 295.71066 331.06602L225 260.35534L154.28932 331.0660000000001A25 25 0 0 1 118.93398 331.0660000000001H118.93398A25 25 0 0 1 118.93398 295.71066L189.64466 225L118.934 154.28932A25 25 0 0 1 118.934 118.934H118.934A25 25 0 0 1 154.28929 118.934L225 189.64466L295.71068 118.934A25 25 0 0 1 331.0660200000001 118.934H331.0660200000001A25 25 0 0 1 331.066 154.28932z" />
    <glyph glyph-name="zoom-fill"
      unicode="&#xEA64;"
      horiz-adv-x="450" d="M442.68 7.32A25 25 0 0 0 407.32 7.32L322.63 92A199.07 199.07 0 0 0 200 50C89.54 50 0 139.54 0 250S89.54 450 200 450S400 360.46 400 250A199.07 199.07 0 0 0 358 127.37L442.69 42.68A25 25 0 0 0 442.68 7.32z" />
    <glyph glyph-name="zoom-line"
      unicode="&#xEA65;"
      horiz-adv-x="450" d="M442.68 42.68L358 127.37A199.07 199.07 0 0 1 400 250C400 360.46 310.46 450 200 450S0 360.46 0 250S89.54 50 200 50A199.07 199.07 0 0 1 322.63 92L407.32 7.31A25 25 0 0 1 442.68 42.67zM50 250A150 150 0 1 0 200 100A150 150 0 0 0 50 250z" />
  </font>
</defs>
</svg>
