<svg xmlns="http://www.w3.org/2000/svg" xmlns:xlink="http://www.w3.org/1999/xlink" width="0" height="0" style="display:none;"><symbol viewBox="0 0 450 450" id="hi-add-selection-fill">
  <path d="M400,175.01v200a24.99624,24.99624,0,0,1-25,25H175a24.99624,24.99624,0,0,1-25-25v-75H75a24.99624,24.99624,0,0,1-25-25v-200a25.00264,25.00264,0,0,1,25-25H275a25.00264,25.00264,0,0,1,25,25v75h75A25.00264,25.00264,0,0,1,400,175.01Z"></path>
  <rect y="0.01489" width="450" height="450" fill="none"></rect>
</symbol><symbol viewBox="0 0 450 450" id="hi-add-selection-line">
  <path d="M375,150H300V75a25,25,0,0,0-25-25H75A25,25,0,0,0,50,75V275a25,25,0,0,0,25,25h75v75a25,25,0,0,0,25,25H375a25,25,0,0,0,25-25V175A25,25,0,0,0,375,150ZM200,275a25,25,0,0,0-25-25H100V100H250v75a25,25,0,0,0,25,25h75V350H200Z"></path>
  <rect width="450" height="450" fill="none"></rect>
</symbol><symbol viewBox="0 0 450 450" id="hi-circle-fill">
  <circle cx="225" cy="225.01001" r="225"></circle>
  <rect y="0.01489" width="450" height="450" fill="none"></rect>
</symbol><symbol viewBox="0 0 450 450" id="hi-circle-line">
  <path d="M225,0C100.74,0,0,100.74,0,225S100.74,450,225,450,450,349.26,450,225,349.26,0,225,0Zm0,400A175,175,0,1,1,400,225,174.9998,174.9998,0,0,1,225,400Z"></path>
  <rect width="450" height="450" fill="none"></rect>
</symbol><symbol viewBox="0 0 450 450" id="hi-circle-semi">
  <path d="M225,.01489c-124.26,0-225,100.74-225,225s100.74,225,225,225,225-100.74,225-225S349.26.01489,225,.01489Zm-175,225A175.0002,175.0002,0,0,1,348.74377,101.271L101.25629,348.75879A174.453,174.453,0,0,1,50,225.01489Z"></path>
  <rect y="0.01489" width="450" height="450" fill="none"></rect>
</symbol><symbol viewBox="0 0 450 450" id="hi-circle-small-fill">
  <circle cx="225" cy="225.01001" r="175"></circle>
  <rect y="0.01489" width="450" height="450" fill="none"></rect>
</symbol><symbol viewBox="0 0 450 450" id="hi-circle-small-line">
  <path d="M225,50A175,175,0,1,0,400,225,174.9998,174.9998,0,0,0,225,50Zm0,300A125,125,0,1,1,350,225,124.99438,124.99438,0,0,1,225,350Z"></path>
  <rect width="450" height="450" fill="none"></rect>
</symbol><symbol viewBox="0 0 450 450" id="hi-circle-small-semi">
  <path d="M225,50.01489a175,175,0,1,0,175,175A174.99972,174.99972,0,0,0,225,50.01489Zm-125,175A125.00227,125.00227,0,0,1,313.39,136.625L136.61,313.40479A124.60821,124.60821,0,0,1,100,225.01489Z"></path>
  <rect y="0.01489" width="450" height="450" fill="none"></rect>
</symbol><symbol viewBox="0 0 450 450" id="hi-eraser-fill">
  <g>
    <path d="M115.39693,141.92086a12.5,12.5,0,0,0-17.67765,0L7.32007,232.32007a25.0472,25.0472,0,0,0,0,35.38989l174.99,174.98a25.023,25.023,0,0,0,35.36987,0l90.40412-90.40434a12.5,12.5,0,0,0,0-17.67764Z"></path>
    <path d="M442.67993,182.32007l-174.99-174.98c0-.01,0-.01-.01-.01v-.01a25.01107,25.01107,0,0,0-35.35986,0L141.91353,97.72661a12.5,12.5,0,0,0,0,17.67765L334.60063,308.09158a12.5,12.5,0,0,0,17.67765,0l90.40165-90.40165a25.023,25.023,0,0,0,0-35.36987Z"></path>
  </g>
  <rect y="0.01489" width="450" height="450" fill="none"></rect>
</symbol><symbol viewBox="0 0 450 450" id="hi-eraser-line">
  <path d="M442.67773,182.30762,267.69238,7.32227l-.00757-.00708-.00708-.00757a25,25,0,0,0-35.35546,0l-225,225a25.03657,25.03657,0,0,0,0,35.38476L182.30762,442.67773a25.01856,25.01856,0,0,0,35.37011,0l225-225a25.01856,25.01856,0,0,0,0-35.37011ZM312.5,277.14453,172.8479,137.49268,250,60.34058l139.6521,139.6521ZM199.99268,389.6521,60.34058,250l77.1521-77.1521L277.14478,312.5Z"></path>
  <rect width="450" height="450" fill="none"></rect>
</symbol><symbol viewBox="0 0 450 450" id="hi-eraser-semi">
  <path d="M442.67993,182.32007l-174.99-174.98c0-.01,0-.01-.01-.01v-.01a25.01107,25.01107,0,0,0-35.35986,0l-225,225a25.0472,25.0472,0,0,0,0,35.38989l174.99,174.98a25.023,25.023,0,0,0,35.36987,0l225-225a25.023,25.023,0,0,0,0-35.36987ZM199.99,389.66992,60.34009,250.01,137.49,172.85986,277.14014,312.51Z"></path>
  <rect y="0.01489" width="450" height="450" fill="none"></rect>
</symbol><symbol viewBox="0 0 450 450" id="hi-eye-crossed-line">
  <g>
    <path d="M252.82129,341.21118a12.56041,12.56041,0,0,0-10.21973-3.57861A167.843,167.843,0,0,1,225,338.55005,163.99963,163.99963,0,0,1,93.81982,273.77L56.48,225l28.0918-36.68506a12.50025,12.50025,0,0,0-1.08545-16.43872L65.65869,154.04858a12.49993,12.49993,0,0,0-18.76318,1.239L5.1499,209.80005a24.99736,24.99736,0,0,0,0,30.3999l48.97022,63.96c43.06982,56.26,106.98,84.39014,170.87988,84.39014a217.4417,217.4417,0,0,0,43.28027-4.346,12.51243,12.51243,0,0,0,6.42627-21.10742Z"></path>
    <path d="M444.8501,209.80005l-48.97022-63.96C352.81006,89.58008,288.8999,61.45,225,61.45a217.44541,217.44541,0,0,0-43.28027,4.346,12.5124,12.5124,0,0,0-6.42627,21.10742l21.88525,21.8855a12.56041,12.56041,0,0,0,10.21973,3.57861A167.843,167.843,0,0,1,225,111.45a163.99963,163.99963,0,0,1,131.18018,64.78L393.52,225l-28.0918,36.68506a12.50025,12.50025,0,0,0,1.08545,16.43872l17.82764,17.82764a12.49993,12.49993,0,0,0,18.76318-1.239L444.8501,240.2A24.99736,24.99736,0,0,0,444.8501,209.80005Z"></path>
    <path d="M83.57861,48.22314a25.00048,25.00048,0,0,0-35.35547,0v.00025a24.99972,24.99972,0,0,0,0,35.35522L366.42139,401.77686a25.00048,25.00048,0,0,0,35.35547,0v-.00025a24.99972,24.99972,0,0,0,0-35.35522Z"></path>
  </g>
  <rect width="450" height="450" fill="none"></rect>
</symbol><symbol viewBox="0 0 450 450" id="hi-eye-line">
  <g>
    <path d="M444.8501,209.80005l-48.97022-63.96C352.81006,89.58008,288.8999,61.45,225,61.45S97.18994,89.58008,54.12012,145.84009l-48.97022,63.96a24.99736,24.99736,0,0,0,0,30.3999l48.97022,63.96c43.06982,56.26,106.98,84.39014,170.87988,84.39014s127.81006-28.13013,170.87988-84.39014L444.8501,240.2A24.99736,24.99736,0,0,0,444.8501,209.80005Zm-88.67041,63.9646a165.20167,165.20167,0,0,1-262.35791.00195L56.48438,225l37.33593-48.76416a165.2014,165.2014,0,0,1,262.3584-.00195L393.51562,225Z"></path>
    <path d="M225,150a75,75,0,1,0,75,75A75.00184,75.00184,0,0,0,225,150Zm0,100a25,25,0,1,1,25-25A24.99624,24.99624,0,0,1,225,250Z"></path>
  </g>
  <rect width="450" height="450" fill="none"></rect>
</symbol><symbol viewBox="0 0 450 450" id="hi-eyedropper-fill">
  <g>
    <path d="M442.67993,132.34009l-62.5,62.5L400,214.65991A24.99979,24.99979,0,1,1,364.64,250.01L200,85.37012A25.00333,25.00333,0,0,1,235.36,50.01l19.81994,19.83008,62.5-62.5a25.55923,25.55923,0,0,1,1.90015-1.72c.31994-.27.65991-.52.99-.77A24.79082,24.79082,0,0,1,322.65,3.48c.71-.41992,1.44007-.8,2.18006-1.1499a24.03682,24.03682,0,0,1,2.25-.91016,25.11465,25.11465,0,0,1,16.54992,0c.38.13013.76.27,1.13.43018A23.37781,23.37781,0,0,1,348.46,3.73c.57007.3501,1.13013.72,1.68,1.12012.33.25.67005.5.99.77a25.58155,25.58155,0,0,1,1.9,1.72L442.67993,96.98a25.01122,25.01122,0,0,1,0,35.36011Z"></path>
    <path d="M300.63,239.03a25.01151,25.01151,0,0,1,0,35.36011L132.32007,442.68994A24.98312,24.98312,0,0,1,114.64,450.01H25a24.99627,24.99627,0,0,1-25-25V335.37012a25,25,0,0,1,7.32-17.68018l168.31-168.2998a24.76722,24.76722,0,0,1,7.15-5.01026,23.21935,23.21935,0,0,1,2.26-.90991c.37988-.13989.76-.26,1.1499-.37988q.6751-.1952,1.38013-.36011c.71-.15991,1.42993-.3,2.1499-.40991a24.8451,24.8451,0,0,1,7.17,0c.79993.11987,1.59.27,2.37.46s1.55.41992,2.32007.68994a24.73507,24.73507,0,0,1,5.48,2.71,25.24459,25.24459,0,0,1,3.91992,3.21021h.01L300.62,239.03Z"></path>
  </g>
  <rect x="0.00005" y="0.01489" width="450" height="450" fill="none"></rect>
</symbol><symbol viewBox="0 0 450 450" id="hi-eyedropper-line">
  <g>
    <path d="M300.62354,239.01172l-89.63526-89.63526-.00476-.00463a25.10742,25.10742,0,0,0-3.92175-3.20362,24.82566,24.82566,0,0,0-5.48548-2.71728q-1.14533-.40027-2.31848-.68628-1.17187-.28638-2.363-.45777a25.13264,25.13264,0,0,0-7.17774,0c-.72192.10425-1.43945.24415-2.15185.41138-.46143.1084-.92115.22608-1.3772.36084q-.57972.17175-1.15259.37183-1.14514.40063-2.25635.91528a24.95333,24.95333,0,0,0-7.15088,5.00562h0L7.32233,317.67773A24.99988,24.99988,0,0,0,0,335.35547V425a25,25,0,0,0,25,25h89.64465a24.9994,24.9994,0,0,0,17.67762-7.32227l168.3059-168.3059h0a24.99972,24.99972,0,0,0,0-35.35523ZM104.28,400H50V345.72L193.31055,202.40942l54.28,54.28Z"></path>
    <path d="M442.67773,96.967h0L353.03308,7.32227A25.31411,25.31411,0,0,0,351.1344,5.6062q-.49091-.40064-.99719-.77222c-.54492-.40063-1.10523-.76928-1.67371-1.12011a24.83711,24.83711,0,0,0-3.70056-1.8833q-.56433-.22888-1.13709-.429a25.10031,25.10031,0,0,0-16.54089,0q-1.14515.40027-2.25635.91528-1.10961.5149-2.17639,1.14405a24.85584,24.85584,0,0,0-2.07861,1.373q-.50592.37171-.99719.77222a25.33783,25.33783,0,0,0-1.89869,1.71607l-62.5,62.5L235.35535,50A24.99988,24.99988,0,0,0,200,50h0a24.99994,24.99994,0,0,0,0,35.35522L364.64478,250a25,25,0,0,0,35.35534-35.35522l-19.82239-19.82251,62.5-62.5h0A24.99972,24.99972,0,0,0,442.67773,96.967Zm-152.14465,8.21069,44.82239-44.82226,54.28931,54.28906L344.82251,159.467Z"></path>
  </g>
  <rect x="0.00005" width="450" height="450" fill="none"></rect>
</symbol><symbol viewBox="0 0 450 450" id="hi-eyedropper-semi">
  <g>
    <path d="M300.62354,239.02661l-89.63526-89.63525-.00476-.00464a25.10679,25.10679,0,0,0-3.92175-3.20361,24.82526,24.82526,0,0,0-5.48548-2.71729q-1.14533-.40028-2.31848-.68628-1.17187-.28638-2.363-.45776a25.13167,25.13167,0,0,0-7.17774,0c-.72192.10425-1.43945.24414-2.15185.41137-.46143.1084-.92115.22608-1.3772.36084q-.57972.17176-1.15259.37183-1.14514.40063-2.25635.91528a24.95352,24.95352,0,0,0-7.15088,5.00562h0L7.32233,317.69263A24.99986,24.99986,0,0,0,0,335.37036v89.64453a25,25,0,0,0,25,25h89.64465a24.99943,24.99943,0,0,0,17.67762-7.32226l168.3059-168.30591h0a24.99972,24.99972,0,0,0,0-35.35523ZM104.28,400.01489H50v-54.28L193.31055,202.42432l54.28,54.28Z"></path>
    <path d="M442.67993,132.34009l-62.5,62.5L400,214.65991A24.99979,24.99979,0,1,1,364.64,250.01L200,85.37012A25.00333,25.00333,0,0,1,235.36,50.01l19.81994,19.83008,62.5-62.5a25.55923,25.55923,0,0,1,1.90015-1.72c.31994-.27.65991-.52.99-.77A24.79082,24.79082,0,0,1,322.65,3.48c.71-.41992,1.44007-.8,2.18006-1.1499a24.03682,24.03682,0,0,1,2.25-.91016,25.11465,25.11465,0,0,1,16.54992,0c.38.13013.76.27,1.13.43018A23.37781,23.37781,0,0,1,348.46,3.73c.57007.3501,1.13013.72,1.68,1.12012.33.25.67005.5.99.77a25.58155,25.58155,0,0,1,1.9,1.72L442.67993,96.98a25.01122,25.01122,0,0,1,0,35.36011Z"></path>
  </g>
  <rect x="0.00005" y="0.01489" width="450" height="450" fill="none"></rect>
</symbol><symbol viewBox="0 0 450 450" id="hi-intersect-selection-line">
  <g>
    <path d="M275,150H175a25,25,0,0,0-25,25V275a25,25,0,0,0,25,25H275a25,25,0,0,0,25-25V175A25,25,0,0,0,275,150Zm-25,50v50H200V200Z"></path>
    <rect x="150" y="350" width="50" height="50" rx="12.5"></rect>
    <rect x="250" y="350" width="50" height="50" rx="12.5"></rect>
    <rect x="350" y="350" width="50" height="50" rx="12.5"></rect>
    <rect x="50" y="50" width="50" height="50" rx="12.5"></rect>
    <rect x="150" y="50" width="50" height="50" rx="12.5"></rect>
    <rect x="250" y="50" width="50" height="50" rx="12.5"></rect>
    <rect x="350" y="250" width="50" height="50" rx="12.5"></rect>
    <rect x="350" y="150" width="50" height="50" rx="12.5"></rect>
    <rect x="50" y="250" width="50" height="50" rx="12.5"></rect>
    <rect x="50" y="150" width="50" height="50" rx="12.5"></rect>
  </g>
  <rect width="450" height="450" fill="none"></rect>
</symbol><symbol viewBox="0 0 450 450" id="hi-intersect-selection-line_1">
  <g>
    <rect x="150" y="350.01489" width="50" height="50" rx="12.5"></rect>
    <rect x="250" y="350.01489" width="50" height="50" rx="12.5"></rect>
    <rect x="350" y="350.01489" width="50" height="50" rx="12.5"></rect>
    <rect x="50" y="50.01489" width="50" height="50" rx="12.5"></rect>
    <path d="M300,175.01v100a24.99624,24.99624,0,0,1-25,25H175a24.99624,24.99624,0,0,1-25-25v-100a25.00264,25.00264,0,0,1,25-25H275A25.00264,25.00264,0,0,1,300,175.01Z"></path>
    <path d="M150,87.51v-25a12.50453,12.50453,0,0,1,12.5-12.5h25A12.50453,12.50453,0,0,1,200,62.51v25a12.49828,12.49828,0,0,1-12.5,12.5h-25A12.49828,12.49828,0,0,1,150,87.51Z"></path>
    <path d="M300,62.51v25a12.49828,12.49828,0,0,1-12.5,12.5h-25A12.49828,12.49828,0,0,1,250,87.51v-25a12.50453,12.50453,0,0,1,12.5-12.5h25A12.50453,12.50453,0,0,1,300,62.51Z"></path>
    <rect x="350" y="250.01489" width="50" height="50" rx="12.5"></rect>
    <rect x="350" y="150.01489" width="50" height="50" rx="12.5"></rect>
    <rect x="50" y="250.01489" width="50" height="50" rx="12.5"></rect>
    <rect x="50" y="150.01489" width="50" height="50" rx="12.5"></rect>
  </g>
  <rect y="0.01489" width="450" height="450" fill="none"></rect>
</symbol><symbol viewBox="0 0 450 450" id="hi-layer-fill">
  <g>
    <path d="M410.66162,306.759h-.00012a25.00124,25.00124,0,0,0-24.283,0L225,396.41382,63.62158,306.759a25.00124,25.00124,0,0,0-24.283,0l-.00024.00025a25.0008,25.0008,0,0,0,0,43.70923L212.85889,446.8689a24.99982,24.99982,0,0,0,24.28222,0l173.52051-96.40039A25.001,25.001,0,0,0,410.66162,306.759Z"></path>
    <path d="M39.34009,99.56006,212.86,3.15991a25.021,25.021,0,0,1,24.28,0L410.66,99.56006a24.99839,24.99839,0,0,1,0,43.71l-173.52,96.3999a24.96759,24.96759,0,0,1-24.28,0L39.34009,143.27A24.9983,24.9983,0,0,1,39.34009,99.56006Z"></path>
    <path d="M410.66,246.87012,237.14,343.27a24.96889,24.96889,0,0,1-24.28,0l-173.5199-96.3999a25.00088,25.00088,0,0,1,0-43.71021,25.02081,25.02081,0,0,1,24.27991,0L225,292.82007l161.38-89.66016a25.00051,25.00051,0,0,1,24.28,43.71021Z"></path>
  </g>
  <rect y="0.01489" width="450" height="450" fill="none"></rect>
</symbol><symbol viewBox="0 0 450 450" id="hi-layer-line">
  <g>
    <path d="M39.33691,143.25488l173.522,96.40113a24.99982,24.99982,0,0,0,24.28222,0L410.663,143.25488a25,25,0,0,0,0-43.70776L237.14111,3.146a24.99976,24.99976,0,0,0-24.28222,0L39.33691,99.54712A25.00006,25.00006,0,0,0,39.33691,143.25488ZM225,53.60107l122.04,67.79981L225,189.20093l-122.04-67.8Z"></path>
    <path d="M410.66162,306.74414h-.00012a25.00124,25.00124,0,0,0-24.283,0L225,396.39893,63.62158,306.74414a25.00124,25.00124,0,0,0-24.283,0l-.00024.00024a25.0008,25.0008,0,0,0,0,43.70923L212.85889,446.854a24.99976,24.99976,0,0,0,24.28222,0l173.52051-96.40039A25.001,25.001,0,0,0,410.66162,306.74414Z"></path>
    <path d="M410.66162,203.14648h-.00012a25.00124,25.00124,0,0,0-24.283,0L225,292.80127,63.62158,203.14648a25.00124,25.00124,0,0,0-24.283,0h-.00024a25.001,25.001,0,0,0,0,43.70948L212.85889,343.2561a24.99976,24.99976,0,0,0,24.28222,0L410.66162,246.856A25.001,25.001,0,0,0,410.66162,203.14648Z"></path>
  </g>
  <rect width="450" height="450" fill="none"></rect>
</symbol><symbol viewBox="0 0 450 450" id="hi-lock-fill">
  <path d="M425,175.01H375v-25a150,150,0,0,0-300,0v25H25a25.00264,25.00264,0,0,0-25,25v150a99.99807,99.99807,0,0,0,100,100H350a99.99807,99.99807,0,0,0,100-100v-150A25.00264,25.00264,0,0,0,425,175.01Zm-200,175a37.5,37.5,0,1,1,37.5-37.5A37.49451,37.49451,0,0,1,225,350.01Zm-100-200a100,100,0,1,1,200,0v25H125Z"></path>
  <rect y="0.01489" width="450" height="450" fill="none"></rect>
</symbol><symbol viewBox="0 0 450 450" id="hi-lock-line">
  <g>
    <path d="M425,175H375V150a150,150,0,0,0-300,0v25H25A25,25,0,0,0,0,200V350A99.99994,99.99994,0,0,0,100,450H350A99.99994,99.99994,0,0,0,450,350V200A25,25,0,0,0,425,175ZM225,50A99.99807,99.99807,0,0,1,325,150v25H125V150A99.99807,99.99807,0,0,1,225,50ZM350,400H100a50,50,0,0,1-50-50V225H400V350A50,50,0,0,1,350,400Z"></path>
    <circle cx="225" cy="312.5" r="37.5"></circle>
  </g>
  <rect width="450" height="450" fill="none"></rect>
</symbol><symbol viewBox="0 0 450 450" id="hi-lock-open-fill">
  <path d="M425,175.01H125V151.26c0-55.34009,45.27-101.57007,100.6001-101.24a99.75581,99.75581,0,0,1,75.57983,35.21,24.99966,24.99966,0,0,0,38.03-32.46A149.65824,149.65824,0,0,0,222.95.03C141.1499,1.12012,75.02,68.35986,75.01,150.01H75v25H25a25.00264,25.00264,0,0,0-25,25v150a99.99807,99.99807,0,0,0,100,100H350a99.99807,99.99807,0,0,0,100-100v-150A25.00264,25.00264,0,0,0,425,175.01Zm-200,175a37.5,37.5,0,1,1,37.5-37.5A37.49451,37.49451,0,0,1,225,350.01Z"></path>
  <rect y="0.01489" width="450" height="450" fill="none"></rect>
</symbol><symbol viewBox="0 0 450 450" id="hi-lock-open-line">
  <g>
    <path d="M425,175H125V151.2417c0-55.33179,45.27075-101.56592,100.60156-101.24a99.76482,99.76482,0,0,1,75.57862,35.21606,24.97046,24.97046,0,0,0,31.072,5.66309h0a25.01112,25.01112,0,0,0,6.95385-38.12647A149.6461,149.6461,0,0,0,222.94531.01367C141.14673,1.1084,75.01953,68.34424,75.01074,150H75v25H25A25,25,0,0,0,0,200V350A99.99994,99.99994,0,0,0,100,450H350A99.99994,99.99994,0,0,0,450,350V200A25,25,0,0,0,425,175ZM350,400H100a50,50,0,0,1-50-50V225H400V350A50,50,0,0,1,350,400Z"></path>
    <circle cx="225" cy="312.5" r="37.5"></circle>
  </g>
  <rect width="450" height="450" fill="none"></rect>
</symbol><symbol viewBox="0 0 450 450" id="hi-menu">
  <g>
    <path d="M375,350H75a25,25,0,0,0,0,50H375a25,25,0,0,0,0-50Z"></path>
    <path d="M75,100H375a25,25,0,0,0,0-50H75a25,25,0,0,0,0,50Z"></path>
    <path d="M375,200H75a25,25,0,0,0,0,50H375a25,25,0,0,0,0-50Z"></path>
  </g>
  <rect width="450" height="450" fill="none"></rect>
</symbol><symbol viewBox="0 0 450 450" id="hi-paint-bucket-fill">
  <g>
    <path d="M398.59009,258.27a24.902,24.902,0,0,1-5.93018,9.41992l-174.98,174.99a.0098.0098,0,0,0-.01.01h-.01a24.98087,24.98087,0,0,1-35.34985,0L7.32007,267.71a25.0472,25.0472,0,0,1,0-35.38989L164.64014,75,132.32007,42.67993A25.0032,25.0032,0,0,1,167.67993,7.32007l224.99,224.99A25.01764,25.01764,0,0,1,398.59009,258.27Z"></path>
    <path d="M435.35547,335.35547l-26.5166-26.5166a12.5,12.5,0,0,0-17.67774,0l-26.5166,26.5166a49.9999,49.9999,0,0,0,0,70.71045l.00025.00024a49.99987,49.99987,0,0,0,70.71044,0l.00025-.00024A49.9999,49.9999,0,0,0,435.35547,335.35547Z"></path>
  </g>
  <rect y="0.01489" width="450" height="450" fill="none"></rect>
</symbol><symbol viewBox="0 0 450 450" id="hi-paint-bucket-line">
  <g>
    <path d="M392.66284,267.67773a25.01173,25.01173,0,0,0,.00733-35.37768L167.67773,7.30762a25,25,0,1,0-35.35546,35.35522l32.32251,32.32227L7.32227,232.30762a25.03686,25.03686,0,0,0,0,35.38476L182.30762,442.67773a24.99971,24.99971,0,0,0,35.35522,0h0l.00659-.00708.0083-.00781Zm-53.01806-17.69262L199.98511,389.64453,60.34058,250,200,110.34033Z"></path>
    <path d="M435.35547,335.34058,408.83887,308.824a12.5,12.5,0,0,0-17.67774,0l-26.5166,26.51661a49.9999,49.9999,0,0,0,0,70.71045l.00025.00024a49.99988,49.99988,0,0,0,70.71044,0l.00025-.00024A49.9999,49.9999,0,0,0,435.35547,335.34058Z"></path>
  </g>
  <rect width="450" height="450" fill="none"></rect>
</symbol><symbol viewBox="0 0 450 450" id="hi-paint-bucket-semi">
  <g>
    <path d="M392.66992,232.31006l-224.99-224.99a25.0032,25.0032,0,0,0-35.35986,35.35986L164.64014,75,7.32007,232.32007a25.0472,25.0472,0,0,0,0,35.38989l174.99,174.98a24.98087,24.98087,0,0,0,35.34985,0h.01a.0098.0098,0,0,1,.01-.01l174.98-174.99a25.00056,25.00056,0,0,0,.01-35.37988ZM200,110.35986,339.64014,250l-.01026.01H60.34009Z"></path>
    <path d="M435.35547,335.35547l-26.5166-26.5166a12.5,12.5,0,0,0-17.67774,0l-26.5166,26.5166a49.9999,49.9999,0,0,0,0,70.71045l.00025.00024a49.99987,49.99987,0,0,0,70.71044,0l.00025-.00024A49.9999,49.9999,0,0,0,435.35547,335.35547Z"></path>
  </g>
  <rect y="0.01489" width="450" height="450" fill="none"></rect>
</symbol><symbol viewBox="0 0 450 450" id="hi-path-fill">
  <path d="M450,25.01v100a24.99627,24.99627,0,0,1-25,25H335.36L150,335.37012V425.01a24.99627,24.99627,0,0,1-25,25H25a24.99627,24.99627,0,0,1-25-25v-100a25.00268,25.00268,0,0,1,25-25h89.64L300,114.65991V25.01a25.00268,25.00268,0,0,1,25-25H425A25.00268,25.00268,0,0,1,450,25.01Z"></path>
  <rect y="0.01489" width="450" height="450" fill="none"></rect>
</symbol><symbol viewBox="0 0 450 450" id="hi-path-line">
  <path d="M425,0H325a25,25,0,0,0-25,25v89.64453L114.64465,300H25A25,25,0,0,0,0,325V425a25,25,0,0,0,25,25H125a25,25,0,0,0,25-25V335.35547L335.35535,150H425a25,25,0,0,0,25-25V25A25,25,0,0,0,425,0ZM350,50h50v50H350ZM100,400H50V350h50Z"></path>
  <rect width="450" height="450" fill="none"></rect>
</symbol><symbol viewBox="0 0 450 450" id="hi-path-semi">
  <path d="M425,.01H325a25.00268,25.00268,0,0,0-25,25v89.6499L114.64,300.01H25a25.00268,25.00268,0,0,0-25,25v100a24.99627,24.99627,0,0,0,25,25H125a24.99627,24.99627,0,0,0,25-25V335.37012L335.36,150.01H425a24.99627,24.99627,0,0,0,25-25v-100A25.00268,25.00268,0,0,0,425,.01Zm-25,100H350v-50h50Z"></path>
  <rect y="0.01489" width="450" height="450" fill="none"></rect>
</symbol><symbol viewBox="0 0 450 450" id="hi-pencil-fill">
  <g>
    <path d="M215.40409,109.61248,7.326,317.684A25.01151,25.01151,0,0,0,0,335.37012V425.01a25,25,0,0,0,25,25h89.64a24.98312,24.98312,0,0,0,17.68006-7.32007L340.40494,234.61421a12.5,12.5,0,0,0,.0002-17.67784L233.08161,109.61263A12.5,12.5,0,0,0,215.40409,109.61248Z"></path>
    <path d="M449.97,113.49a25.05534,25.05534,0,0,0-1.17993-6.51c-.12012-.37012-.25-.74-.39-1.1001-.16-.43994-.34-.87988-.52-1.30981a27.82325,27.82325,0,0,0-1.49-2.86011,25.491,25.491,0,0,0-3.71008-4.73h-.01L353.04,7.34009h-.01a24.98117,24.98117,0,0,0-35.3501,0l-58.081,58.07913a12.5,12.5,0,0,0-.00014,17.67781L366.91856,190.41662a12.5,12.5,0,0,0,17.67709.00054l58.08428-58.07707A24.90229,24.90229,0,0,0,450,114.66992C450,114.28,449.99,113.87988,449.97,113.49Z"></path>
  </g>
  <rect y="0.01489" width="450" height="450" fill="none"></rect>
</symbol><symbol viewBox="0 0 450 450" id="hi-pencil-line">
  <path d="M449.97217,113.47388a25.05227,25.05227,0,0,0-1.18311-6.50952q-.17907-.55555-.38452-1.10425-.24573-.65625-.52954-1.301a24.96425,24.96425,0,0,0-5.19727-7.59228l-.00463-.0044-.00122-.00122L353.03882,7.32812l-.0011-.00122-.00464-.00463a24.99986,24.99986,0,0,0-35.35535,0L7.32227,317.67773A25.00007,25.00007,0,0,0,0,335.35547V425a25,25,0,0,0,25,25h89.64465a24.99929,24.99929,0,0,0,17.67762-7.32227L362.49878,212.50122,362.5,212.5h.00012l.00232-.00244,80.17285-80.17285.00244-.00244h0A24.93429,24.93429,0,0,0,449.97217,113.47388ZM344.81775,159.4624l-54.28-54.28027,44.82239-44.82227,54.28,54.28ZM104.28,400H50V345.72L255.18237,140.5376l54.28,54.28Z"></path>
  <rect width="450" height="450" fill="none"></rect>
</symbol><symbol viewBox="0 0 450 450" id="hi-pencil-semi">
  <path d="M449.97,113.49a25.05534,25.05534,0,0,0-1.17993-6.51c-.12012-.37012-.25-.74-.39-1.1001-.16-.43994-.34-.87988-.52-1.30981a27.82325,27.82325,0,0,0-1.49-2.86011,25.491,25.491,0,0,0-3.71008-4.73h-.01L353.04,7.34009h-.01a24.98117,24.98117,0,0,0-35.3501,0L7.32007,317.68994A24.99983,24.99983,0,0,0,0,335.37012V425.01a24.99624,24.99624,0,0,0,25,25h89.64a24.98312,24.98312,0,0,0,17.68006-7.32007L362.5,212.52v-.01l80.17993-80.16992A24.90229,24.90229,0,0,0,450,114.66992C450,114.28,449.99,113.87988,449.97,113.49ZM104.28,400.01H50V345.73L255.17993,140.55005l54.28,54.28Z"></path>
  <rect y="0.01489" width="450" height="450" fill="none"></rect>
</symbol><symbol viewBox="0 0 450 450" id="hi-redo-line">
  <path d="M398.97021,128.23755a24.89889,24.89889,0,0,0-5.40576-9.6272q-.42919-.475-.88672-.93262L321.9668,46.967a24.99943,24.99943,0,0,0-35.355,0h0a24.99972,24.99972,0,0,0,0,35.35523l28.03271,28.0332H200A149.83577,149.83577,0,0,0,50.00781,261.90894c.835,82.46044,68.90723,148.44653,151.37158,148.44653H350a25,25,0,0,0,0-50H201.25488c-55.14062,0-100.84521-44.1062-101.252-99.24585A99.99767,99.99767,0,0,1,200,160.35547H314.64453l-28.03271,28.033a24.99971,24.99971,0,0,0,0,35.35522h0a24.99942,24.99942,0,0,0,35.355,0L392.67773,153.033q.45777-.4574.88672-.93262a24.98692,24.98692,0,0,0,5.40576-23.86279Z"></path>
  <rect width="450" height="450" fill="none"></rect>
</symbol><symbol viewBox="0 0 450 450" id="hi-replace-selection-fill">
  <g>
    <rect x="150" y="350.01489" width="50" height="50" rx="12.5"></rect>
    <rect x="250" y="350.01489" width="50" height="50" rx="12.5"></rect>
    <path d="M300,75.01v200a24.99624,24.99624,0,0,1-25,25H75a24.99624,24.99624,0,0,1-25-25v-200a25.00264,25.00264,0,0,1,25-25H275A25.00264,25.00264,0,0,1,300,75.01Z"></path>
    <path d="M400,362.51v25a12.49828,12.49828,0,0,1-12.5,12.5h-25a12.49828,12.49828,0,0,1-12.5-12.5v-25a12.50453,12.50453,0,0,1,12.5-12.5h25A12.50453,12.50453,0,0,1,400,362.51Z"></path>
    <rect x="350" y="250.01489" width="50" height="50" rx="12.5"></rect>
    <rect x="350" y="150.01489" width="50" height="50" rx="12.5"></rect>
  </g>
  <rect y="0.01489" width="450" height="450" fill="none"></rect>
</symbol><symbol viewBox="0 0 450 450" id="hi-replace-selection-line">
  <g>
    <path d="M275,50H75A25,25,0,0,0,50,75V275a25,25,0,0,0,25,25H275a25,25,0,0,0,25-25V75A25,25,0,0,0,275,50Zm-25,50V250H100V100Z"></path>
    <rect x="150" y="350" width="50" height="50" rx="12.5"></rect>
    <rect x="250" y="350" width="50" height="50" rx="12.5"></rect>
    <rect x="350" y="350" width="50" height="50" rx="12.5"></rect>
    <rect x="350" y="250" width="50" height="50" rx="12.5"></rect>
    <rect x="350" y="150" width="50" height="50" rx="12.5"></rect>
  </g>
  <rect width="450" height="450" fill="none"></rect>
</symbol><symbol viewBox="0 0 450 450" id="hi-spray-fill">
  <g>
    <path d="M275,75.01H250v-50a25.00264,25.00264,0,0,0-25-25H75a25.00937,25.00937,0,0,0-25,25v87.5a12.5,12.5,0,0,0,12.5,12.5H274.43656c14.00573,0,25.81477-11.46152,25.5592-25.46492A25.00284,25.00284,0,0,0,275,75.01Z"></path>
    <path d="M300,210.37012V425.01a25,25,0,0,1-25,25H25a25,25,0,0,1-25-25V210.37012a25.0115,25.0115,0,0,1,7.3257-17.68581l26.51314-26.51314A12.5,12.5,0,0,1,42.67766,162.51H257.32234a12.5,12.5,0,0,1,8.83882,3.66116l26.51314,26.51314A25.0115,25.0115,0,0,1,300,210.37012Z"></path>
    <circle cx="350" cy="100.01489" r="25"></circle>
    <circle cx="425" cy="150.01489" r="25"></circle>
    <circle cx="425" cy="50.01489" r="25"></circle>
  </g>
  <rect y="0.01489" width="450" height="450" fill="none"></rect>
</symbol><symbol viewBox="0 0 450 450" id="hi-spray-line">
  <g>
    <path d="M275,125a25,25,0,0,0,0-50H250V25A25,25,0,0,0,225,0H75A25,25,0,0,0,50,25V150L7.32233,192.67767A24.99995,24.99995,0,0,0,0,210.35535V425a25,25,0,0,0,25,25H275a25,25,0,0,0,25-25V210.35535a24.99995,24.99995,0,0,0-7.32233-17.67768L250,150V125ZM200,50v70.71H100V50ZM100,170.71H200l50,50.01V275H50V220.72ZM50,325H250v75H50Z"></path>
    <circle cx="350" cy="100" r="25"></circle>
    <circle cx="425" cy="150" r="25"></circle>
    <circle cx="425" cy="50" r="25"></circle>
  </g>
  <rect width="450" height="450" fill="none"></rect>
</symbol><symbol viewBox="0 0 450 450" id="hi-spray-semi">
  <g>
    <path d="M250,150.01v-25h25a25,25,0,0,0,0-50H250v-50a25.00264,25.00264,0,0,0-25-25H75a25.00937,25.00937,0,0,0-25,25v125L7.32007,192.68994A24.99933,24.99933,0,0,0,0,210.37012V425.01a24.99624,24.99624,0,0,0,25,25H275a24.99624,24.99624,0,0,0,25-25V210.37012a24.99933,24.99933,0,0,0-7.32007-17.68018Zm-150-100H200v70.71H100Zm150,225H50V220.73l50-50.01H200l50,50.01Z"></path>
    <circle cx="350" cy="100.01489" r="25"></circle>
    <circle cx="425" cy="150.01489" r="25"></circle>
    <circle cx="425" cy="50.01489" r="25"></circle>
  </g>
  <rect y="0.01489" width="450" height="450" fill="none"></rect>
</symbol><symbol viewBox="0 0 450 450" id="hi-square-fill">
  <path d="M450,25.01v400a24.99627,24.99627,0,0,1-25,25H25a24.99624,24.99624,0,0,1-25-25v-400a25.00264,25.00264,0,0,1,25-25H425A25.00268,25.00268,0,0,1,450,25.01Z"></path>
  <rect y="0.01489" width="450" height="450" fill="none"></rect>
</symbol><symbol viewBox="0 0 450 450" id="hi-square-line">
  <path d="M0,25V425a25,25,0,0,0,25,25H425a25,25,0,0,0,25-25V25A25,25,0,0,0,425,0H25A25,25,0,0,0,0,25ZM400,400H50V50H400Z"></path>
  <rect width="450" height="450" fill="none"></rect>
</symbol><symbol viewBox="0 0 450 450" id="hi-square-semi">
  <path d="M425,.01H25a25.00264,25.00264,0,0,0-25,25v400a24.99624,24.99624,0,0,0,25,25H425a24.99627,24.99627,0,0,0,25-25v-400A25.00268,25.00268,0,0,0,425,.01Zm-375,400v-350H400Z"></path>
  <rect y="0.01489" width="450" height="450" fill="none"></rect>
</symbol><symbol viewBox="0 0 450 450" id="hi-square-small-fill">
  <path d="M400,75.01v300a24.99624,24.99624,0,0,1-25,25H75a24.99624,24.99624,0,0,1-25-25v-300a25.00264,25.00264,0,0,1,25-25H375A25.00264,25.00264,0,0,1,400,75.01Z"></path>
  <rect y="0.01489" width="450" height="450" fill="none"></rect>
</symbol><symbol viewBox="0 0 450 450" id="hi-square-small-line">
  <path d="M50,75V375a25,25,0,0,0,25,25H375a25,25,0,0,0,25-25V75a25,25,0,0,0-25-25H75A25,25,0,0,0,50,75ZM350,350H100V100H350Z"></path>
  <rect width="450" height="450" fill="none"></rect>
</symbol><symbol viewBox="0 0 450 450" id="hi-square-small-semi">
  <path d="M375,50.01H75a25.00264,25.00264,0,0,0-25,25v300a24.99624,24.99624,0,0,0,25,25H375a24.99624,24.99624,0,0,0,25-25v-300A25.00264,25.00264,0,0,0,375,50.01Zm-275,300v-250H350Z"></path>
  <rect y="0.01489" width="450" height="450" fill="none"></rect>
</symbol><symbol viewBox="0 0 450 450" id="hi-subtract-selection-fill">
  <g>
    <rect x="50" y="50.01489" width="50" height="50" rx="12.5"></rect>
    <rect x="250" y="50.01489" width="50" height="50" rx="12.5"></rect>
    <rect x="50" y="250.01489" width="50" height="50" rx="12.5"></rect>
    <rect x="50" y="150.01489" width="50" height="50" rx="12.5"></rect>
    <path d="M400,175.01v200a24.99624,24.99624,0,0,1-25,25H175a24.99624,24.99624,0,0,1-25-25v-100a25.00264,25.00264,0,0,1,25-25h75v-75a25.00264,25.00264,0,0,1,25-25H375A25.00264,25.00264,0,0,1,400,175.01Z"></path>
    <path d="M150,87.51v-25a12.50453,12.50453,0,0,1,12.5-12.5h25A12.50453,12.50453,0,0,1,200,62.51v25a12.49828,12.49828,0,0,1-12.5,12.5h-25A12.49828,12.49828,0,0,1,150,87.51Z"></path>
  </g>
  <rect y="0.01489" width="450" height="450" fill="none"></rect>
</symbol><symbol viewBox="0 0 450 450" id="hi-subtract-selection-line">
  <g>
    <rect x="50" y="50" width="50" height="50" rx="12.5"></rect>
    <rect x="150" y="50" width="50" height="50" rx="12.5"></rect>
    <rect x="250" y="50" width="50" height="50" rx="12.5"></rect>
    <rect x="50" y="250" width="50" height="50" rx="12.5"></rect>
    <rect x="50" y="150" width="50" height="50" rx="12.5"></rect>
    <path d="M375,150H275a25,25,0,0,0-25,25v75H175a25,25,0,0,0-25,25V375a25,25,0,0,0,25,25H375a25,25,0,0,0,25-25V175A25,25,0,0,0,375,150ZM275,300a25,25,0,0,0,25-25V200h50V350H200V300Z"></path>
  </g>
  <rect width="450" height="450" fill="none"></rect>
</symbol><symbol viewBox="0 0 450 450" id="hi-trash-fill">
  <g>
    <path d="M425,100.01H350v-75a25.00264,25.00264,0,0,0-25-25H125a25.00937,25.00937,0,0,0-25,25v75H25a25,25,0,0,0,0,50H425a25,25,0,0,0,0-50Zm-125,0H150v-50H300Z"></path>
    <path d="M387.5,187.5H62.5A12.5,12.5,0,0,0,50,200V425a25,25,0,0,0,25,25H375a24.99229,24.99229,0,0,0,25-25V200A12.5,12.5,0,0,0,387.5,187.5ZM200,368.75a25,25,0,0,1-50,0v-100a25,25,0,0,1,50,0Zm100,0a25,25,0,0,1-50,0v-100a25,25,0,0,1,50,0Z"></path>
  </g>
  <rect y="0.01489" width="450" height="450" fill="none"></rect>
</symbol><symbol viewBox="0 0 450 450" id="hi-trash-line">
  <g>
    <path d="M425,100H350V25A25,25,0,0,0,325,0H125a25,25,0,0,0-25,25v75H25a25,25,0,0,0,0,50H50V425a25,25,0,0,0,25,25H375a25,25,0,0,0,25-25V150h25a25,25,0,0,0,0-50ZM150,50H300v50H150ZM350,400H100V150H350Z"></path>
    <path d="M175,200h0a25,25,0,0,0-25,25V325a25,25,0,0,0,25,25h0a25,25,0,0,0,25-25V225A25,25,0,0,0,175,200Z"></path>
    <path d="M275,200h0a25,25,0,0,0-25,25V325a25,25,0,0,0,25,25h0a25,25,0,0,0,25-25V225A25,25,0,0,0,275,200Z"></path>
  </g>
  <rect width="450" height="450" fill="none"></rect>
</symbol><symbol viewBox="0 0 450 450" id="hi-undo-line">
  <path d="M300,118.88525a149.95727,149.95727,0,0,0-50-8.52978H135.35547l28.03271-28.0332a24.99972,24.99972,0,0,0,0-35.35523h0a24.99943,24.99943,0,0,0-35.355,0L57.32227,117.67773q-.45777.45777-.88672.93262a25.11263,25.11263,0,0,0-1.60157,1.96314,24.83178,24.83178,0,0,0-2.51709,4.25512q-.51489,1.10962-.91552,2.25635-.3999,1.14514-.68653,2.31836-.28564,1.17188-.45752,2.363-.17137,1.18982-.22851,2.38965-.02856.59947-.02881,1.19946,0,.59985.02881,1.19922.05712,1.19825.22851,2.38965.17213,1.18944.45752,2.36279.28638,1.17188.68653,2.3186.40064,1.14514.91552,2.25635a24.81315,24.81315,0,0,0,2.51709,4.25513,25.11063,25.11063,0,0,0,1.60157,1.96313q.4292.475.88672.93262l70.71093,70.71069a24.99942,24.99942,0,0,0,35.355,0h0a24.99971,24.99971,0,0,0,0-35.35522l-28.03271-28.033H250a99.99767,99.99767,0,0,1,99.99707,100.75415c-.40625,55.13965-46.11133,99.24585-101.252,99.24585H100a25,25,0,0,0,0,50H248.62061c82.46435,0,150.53662-65.98609,151.37158-148.44653A150.07441,150.07441,0,0,0,300,118.88525Z"></path>
  <rect width="450" height="450" fill="none"></rect>
</symbol></svg>