<svg xmlns="http://www.w3.org/2000/svg" xmlns:xlink="http://www.w3.org/1999/xlink" width="0" height="0" style="display:none;"><symbol viewBox="0 0 450 450" id="hi-account-fill">
  <path d="M225,0C100.74,0,0,100.74,0,225A224.00022,224.00022,0,0,0,46.89,362.5a226.42459,226.42459,0,0,0,35.28,36.36,225.02642,225.02642,0,0,0,285.66,0,226.42677,226.42677,0,0,0,35.28-36.36A224.00022,224.00022,0,0,0,450,225C450,100.74,349.26,0,225,0Zm56.83,282.24a100,100,0,1,0-113.66,0A224.3605,224.3605,0,0,0,82.17,326.14a175,175,0,1,1,285.66,0A224.36117,224.36117,0,0,0,281.83,282.24Z"></path>
</symbol><symbol viewBox="0 0 450 450" id="hi-account-line">
  <path d="M225,0C100.74,0,0,100.74,0,225A223.99952,223.99952,0,0,0,46.89014,362.5a226.41607,226.41607,0,0,0,35.28,36.36,225.02632,225.02632,0,0,0,285.65991,0,226.42672,226.42672,0,0,0,35.28-36.36A224.00086,224.00086,0,0,0,450,225C450,100.74,349.26,0,225,0Zm0,400a174.18318,174.18318,0,0,1-108.25-37.5,174.99083,174.99083,0,0,1,216.5,0A174.18265,174.18265,0,0,1,225,400ZM175,200a50,50,0,1,1,50,50A50.05682,50.05682,0,0,1,175,200Zm106.83008,82.24a100,100,0,1,0-113.66016,0,224.36013,224.36013,0,0,0-85.99975,43.9,174.99988,174.99988,0,1,1,285.65991,0A224.36117,224.36117,0,0,0,281.83008,282.24Z"></path>
</symbol><symbol viewBox="0 0 450 450" id="hi-add-selection-fill"><path d="M400,175V375a25,25,0,0,1-25,25H175a25,25,0,0,1-25-25V300H75a25,25,0,0,1-25-25V75A25,25,0,0,1,75,50H275a25,25,0,0,1,25,25v75h75A25,25,0,0,1,400,175Z"></path></symbol><symbol viewBox="0 0 450 450" id="hi-add-selection-line"><path d="M375,150H300V75a25,25,0,0,0-25-25H75A25,25,0,0,0,50,75V275a25,25,0,0,0,25,25h75v75a25,25,0,0,0,25,25H375a25,25,0,0,0,25-25V175A25,25,0,0,0,375,150ZM200,275a25,25,0,0,0-25-25H100V100H250v75a25,25,0,0,0,25,25h75V350H200Z"></path></symbol><symbol viewBox="0 0 450 450" id="hi-circle-fill"><circle cx="225" cy="225.01" r="225"></circle></symbol><symbol viewBox="0 0 450 450" id="hi-circle-line"><path d="M225,0C100.74,0,0,100.74,0,225S100.74,450,225,450,450,349.26,450,225,349.26,0,225,0Zm0,400A175,175,0,1,1,400,225,175,175,0,0,1,225,400Z"></path></symbol><symbol viewBox="0 0 450 450" id="hi-circle-marquee-line"><path d="M81.1,52A225.69,225.69,0,0,0,52,81.11a24.73,24.73,0,0,0,5.76,36.58l.38.24A24.88,24.88,0,0,0,90.7,112.8a176.1,176.1,0,0,1,22.1-22.1,24.87,24.87,0,0,0,5.13-32.53l-.24-.38A24.74,24.74,0,0,0,81.1,52Zm251.21,5.77-.24.38A24.87,24.87,0,0,0,337.2,90.7a176.1,176.1,0,0,1,22.1,22.1,24.88,24.88,0,0,0,32.53,5.13l.38-.24A24.73,24.73,0,0,0,398,81.11,225.69,225.69,0,0,0,368.9,52,24.74,24.74,0,0,0,332.31,57.79ZM412,157.69l-.43.15a24.79,24.79,0,0,0-15.77,28.78,176.64,176.64,0,0,1,0,76.76,24.79,24.79,0,0,0,15.77,28.78l.43.15a24.8,24.8,0,0,0,32.59-18,226.88,226.88,0,0,0,0-98.68A24.8,24.8,0,0,0,412,157.69ZM292.15,411.55a24.78,24.78,0,0,0-28.76-15.77,176.73,176.73,0,0,1-76.78,0,24.79,24.79,0,0,0-28.77,15.77l-.15.43a24.81,24.81,0,0,0,18,32.6,227.29,227.29,0,0,0,98.68,0,24.81,24.81,0,0,0,18-32.6Zm-234-79.48-.38.24A24.73,24.73,0,0,0,52,368.89,225.69,225.69,0,0,0,81.1,398a24.74,24.74,0,0,0,36.59-5.77l.24-.38a24.87,24.87,0,0,0-5.13-32.53,176.1,176.1,0,0,1-22.1-22.1A24.88,24.88,0,0,0,58.17,332.07ZM359.3,337.2a176.1,176.1,0,0,1-22.1,22.1,24.87,24.87,0,0,0-5.13,32.53l.24.38A24.74,24.74,0,0,0,368.9,398,225.69,225.69,0,0,0,398,368.89a24.73,24.73,0,0,0-5.76-36.58l-.38-.24A24.88,24.88,0,0,0,359.3,337.2ZM225,0a225.94,225.94,0,0,0-49.34,5.42,24.81,24.81,0,0,0-18,32.6l.15.43a24.79,24.79,0,0,0,28.77,15.77,176.73,176.73,0,0,1,76.78,0,24.78,24.78,0,0,0,28.76-15.77l.16-.43a24.81,24.81,0,0,0-18-32.6A225.94,225.94,0,0,0,225,0ZM38.45,157.84l-.43-.15a24.81,24.81,0,0,0-32.6,18,227.29,227.29,0,0,0,0,98.68,24.81,24.81,0,0,0,32.6,18l.43-.15a24.79,24.79,0,0,0,15.77-28.78,176.64,176.64,0,0,1,0-76.76A24.79,24.79,0,0,0,38.45,157.84Z"></path></symbol><symbol viewBox="0 0 450 450" id="hi-circle-semi"><path d="M225,0C100.74,0,0,100.75,0,225S100.74,450,225,450,450,349.27,450,225,349.26,0,225,0ZM50,225A175,175,0,0,1,348.74,101.27L101.26,348.76A174.46,174.46,0,0,1,50,225Z"></path></symbol><symbol viewBox="0 0 450 450" id="hi-circle-small-fill"><circle cx="225" cy="225.01" r="175"></circle></symbol><symbol viewBox="0 0 450 450" id="hi-circle-small-line"><path d="M225,50A175,175,0,1,0,400,225,175,175,0,0,0,225,50Zm0,300A125,125,0,1,1,350,225,125,125,0,0,1,225,350Z"></path></symbol><symbol viewBox="0 0 450 450" id="hi-circle-small-semi"><path d="M225,50A175,175,0,1,0,400,225,175,175,0,0,0,225,50ZM100,225a125,125,0,0,1,213.39-88.39L136.61,313.4A124.61,124.61,0,0,1,100,225Z"></path></symbol><symbol viewBox="0 0 450 450" id="hi-clock-fill">
  <path d="M225,0C100.74,0,0,100.74023,0,225S100.74,450,225,450,450,349.25977,450,225,349.26,0,225,0Zm25,225a24.99624,24.99624,0,0,1-25,25H125a25,25,0,0,1,0-50h75V125a25,25,0,0,1,50,0Z"></path>
</symbol><symbol viewBox="0 0 450 450" id="hi-clock-line">
  <g>
    <path d="M225,0C100.73584,0,0,100.736,0,225S100.73584,450,225,450,450,349.264,450,225,349.26416,0,225,0ZM348.74365,348.74365a174.99995,174.99995,0,1,1-247.4873-247.4873,174.99995,174.99995,0,1,1,247.4873,247.4873Z"></path>
    <path d="M225,100a25,25,0,0,0-25,25v75H125a25,25,0,0,0,0,50H225a25,25,0,0,0,25-25V125A25,25,0,0,0,225,100Z"></path>
  </g>
</symbol><symbol viewBox="0 0 450 450" id="hi-cloud-fill">
  <path d="M450.00139,300a75.00176,75.00176,0,0,1-75,75h-273.74c-55.14,0-100.85-44.1-101.26-99.24a100.00359,100.00359,0,0,1,100-100.76q4.26,0,8.42.36A150.14894,150.14894,0,0,1,250.0714,75c82.55.04,150.04,67.65991,149.93,150.21q0,2.04017-.06,4.05A75.01434,75.01434,0,0,1,450.00139,300Z"></path>
</symbol><symbol viewBox="0 0 450 450" id="hi-cloud-line">
  <path d="M399.93762,229.26343q.0564-2.0202.06226-4.05273C400.1134,142.65858,332.61871,75.0359,250.06647,75A150.14359,150.14359,0,0,0,108.423,175.356c-2.77752-.23169-5.58557-.356-8.423-.356A100.00006,100.00006,0,0,0,.00281,275.75806C.41156,330.89625,46.11572,375,101.25537,375H375a75.00227,75.00227,0,0,0,24.93762-145.73658ZM375,325H100.83893c-27.37872,0-50.31043-21.66-50.82977-49.03382a50.00235,50.00235,0,0,1,97.22662-17.37194A24.78667,24.78667,0,0,0,170.72876,275h.00006a25.00391,25.00391,0,0,0,23.58887-33.311,100.277,100.277,0,0,0-38.68146-49.78552A100.17639,100.17639,0,0,1,248.99194,125.005c54.82154-.54419,100.27912,43.8385,100.99927,98.65784a99.52757,99.52757,0,0,1-7.556,39.495,25.01877,25.01877,0,1,0,46.13648,19.3678c.37835-.91028.74243-1.82788,1.10327-2.74707A24.98792,24.98792,0,0,1,375,325Z"></path>
</symbol><symbol viewBox="0 0 450 450" id="hi-copy-fill">
  <path d="M125,25v75H50a25,25,0,0,0-25,25V425a25,25,0,0,0,25,25H300a25,25,0,0,0,25-25V350h75a25,25,0,0,0,25-25V25A25,25,0,0,0,400,0H150A25,25,0,0,0,125,25ZM375,300H325V125a25,25,0,0,0-25-25H175V50H375Z"></path>
</symbol><symbol viewBox="0 0 450 450" id="hi-copy-line">
  <path d="M125,25v75H50a25,25,0,0,0-25,25V425a25,25,0,0,0,25,25H300a25,25,0,0,0,25-25V350h75a25,25,0,0,0,25-25V25A25,25,0,0,0,400,0H150A25,25,0,0,0,125,25ZM275,400H75V150H275ZM375,300H325V125a25,25,0,0,0-25-25H175V50H375Z"></path>
</symbol><symbol viewBox="0 0 450 450" id="hi-cursor-1-line"><path d="M250,450a25,25,0,0,1-22.58-14.27L158.76,291.24,14.27,222.58A25,25,0,0,1,15,177.1L415,2.1A25,25,0,0,1,447.9,35l-175,400a25,25,0,0,1-22.51,15ZM85.22,200.94l103,49a25,25,0,0,1,11.85,11.85l49,103L376.49,73.51Z"></path></symbol><symbol viewBox="0 0 450 450" id="hi-cursor-2-fill"><path d="M447.9,35l-175,400a25,25,0,0,1-22.51,15H250a25,25,0,0,1-22.58-14.27l-34.49-72.58L128,428a25,25,0,0,1-35.36,0L22,357.32A25,25,0,0,1,22,322l64.89-64.89L14.27,222.58A25,25,0,0,1,15,177.1L415,2.1A25,25,0,0,1,447.9,35Z"></path></symbol><symbol viewBox="0 0 450 450" id="hi-cursor-2-fill_1"><path d="M447.9,35l-175,400a25,25,0,0,1-22.51,15H250a25,25,0,0,1-22.58-14.27L158.76,291.24,14.27,222.58A25,25,0,0,1,15,177.1L415,2.1A25,25,0,0,1,447.9,35Z"></path></symbol><symbol viewBox="0 0 450 450" id="hi-cursor-2-line"><path d="M250,450a25,25,0,0,1-22.58-14.27l-34.49-72.58L128,428a25,25,0,0,1-35.36,0L22,357.32A25,25,0,0,1,22,322l64.89-64.89L14.27,222.58A25,25,0,0,1,15,177.1L415,2.1A25,25,0,0,1,447.9,35l-175,400a25,25,0,0,1-22.51,15ZM75,339.64,110.36,375l72.26-72.26a25,25,0,0,1,40.26,6.95l26.18,55.09L376.49,73.51,85.22,200.94l55.09,26.18a25,25,0,0,1,6.95,40.26Z"></path></symbol><symbol viewBox="0 0 450 450" id="hi-curve-line"><path d="M425,0H375a25,25,0,0,0-25,25V75a25,25,0,0,0,25,25A100,100,0,0,1,275,200a25,25,0,0,0-25-25H200a25,25,0,0,0-25,25A150,150,0,0,0,25,350,25,25,0,0,0,0,375v50a25,25,0,0,0,25,25H75a25,25,0,0,0,25-25V375a25,25,0,0,0-25-25h0A100,100,0,0,1,175,250a25,25,0,0,0,25,25h50a25,25,0,0,0,25-25A150,150,0,0,0,425,100h0a25,25,0,0,0,25-25V25A25,25,0,0,0,425,0Z"></path></symbol><symbol viewBox="0 0 450 450" id="hi-divide-line">
  <g>
    <path d="M350,200H100a25,25,0,0,0,0,50H350a25,25,0,1,0,0-50Z"></path>
    <circle cx="224.99997" cy="125" r="25"></circle>
    <circle cx="224.99997" cy="325" r="25"></circle>
  </g>
</symbol><symbol viewBox="0 0 450 450" id="hi-down-arrow-large-line">
  <path d="M366.42136,145.45051l0,0a25,25,0,0,0-35.35531,0L225,251.5165l-106.066-106.066a25,25,0,0,0-35.3553,0l0,0a25,25,0,0,0,0,35.35531L207.32233,304.54953a25,25,0,0,0,35.3553,0L366.42136,180.80581A25,25,0,0,0,366.42136,145.45051Z"></path>
</symbol><symbol viewBox="0 0 450 450" id="hi-down-arrow-small-line">
  <path d="M331.066,163.12818l0,0a25,25,0,0,0-35.3553,0L225,233.83883l-70.71068-70.71068a25,25,0,0,0-35.3553,0l0,0a25,25,0,0,0,0,35.35531l88.38837,88.38836a25,25,0,0,0,35.3553,0L331.066,198.48349A25,25,0,0,0,331.066,163.12818Z"></path>
</symbol><symbol viewBox="0 0 450 450" id="hi-enter-line">
  <path d="M236.61182,313.38818a24.99942,24.99942,0,0,1,0-35.355L264.64453,250H25a25,25,0,0,1,0-50H264.64453l-28.03271-28.0332a24.99942,24.99942,0,0,1,0-35.355h0a24.99971,24.99971,0,0,1,35.35522,0l70.71069,70.71045a25,25,0,0,1,0,35.35546L271.967,313.38818a24.99971,24.99971,0,0,1-35.35522,0ZM150,75v50a25,25,0,0,0,50,0V100H400V350H200V325a25,25,0,0,0-50,0v50a25,25,0,0,0,25,25H425a25,25,0,0,0,25-25V75a25,25,0,0,0-25-25H175A25,25,0,0,0,150,75Z"></path>
</symbol><symbol viewBox="0 0 450 450" id="hi-eraser-fill"><path d="M115.4,141.92a12.51,12.51,0,0,0-17.68,0l-90.4,90.4a25,25,0,0,0,0,35.39l175,175a25,25,0,0,0,35.37,0l90.4-90.4a12.49,12.49,0,0,0,0-17.68Z"></path><path d="M442.68,182.32l-175-175h0a25,25,0,0,0-35.36,0L141.91,97.73a12.49,12.49,0,0,0,0,17.67L334.6,308.09a12.51,12.51,0,0,0,17.68,0l90.4-90.4a25,25,0,0,0,0-35.37Z"></path></symbol><symbol viewBox="0 0 450 450" id="hi-eraser-line"><path d="M442.68,182.31l-175-175h0a25,25,0,0,0-35.36,0l-225,225a25,25,0,0,0,0,35.38l175,175a25,25,0,0,0,35.37,0l225-225a25,25,0,0,0,0-35.37ZM312.5,277.14,172.85,137.49,250,60.34,389.65,200ZM200,389.65,60.34,250l77.15-77.15L277.14,312.5Z"></path></symbol><symbol viewBox="0 0 450 450" id="hi-eraser-semi"><path d="M442.68,182.32l-175-175h0a25,25,0,0,0-35.36,0l-225,225a25,25,0,0,0,0,35.39l175,175a25,25,0,0,0,35.37,0l225-225a25,25,0,0,0,0-35.37ZM200,389.67,60.34,250l77.15-77.15L277.14,312.51Z"></path></symbol><symbol viewBox="0 0 450 450" id="hi-exit-line">
  <g>
    <path d="M336.61178,136.61187a24.99943,24.99943,0,0,0,0,35.355l28.03271,28.03321L125,200a25,25,0,1,0,0,50l239.64453,0-28.03272,28.03319a24.99943,24.99943,0,0,0,0,35.355h0a24.99943,24.99943,0,0,0,35.355,0l70.711-70.71044a25,25,0,0,0,0-35.35547l-70.71093-70.71046a24.99943,24.99943,0,0,0-35.355,0Z"></path>
    <path d="M299.99993,375V325a25,25,0,1,0-50,0v25l-200,0,0-250,200,0v25a25,25,0,0,0,50,0V100l0-25a25,25,0,0,0-25-25L25,50A25,25,0,0,0,0,75l0,25,0,250v25a25,25,0,0,0,25,25l250,0A25,25,0,0,0,299.99993,375Z"></path>
  </g>
</symbol><symbol viewBox="0 0 450 450" id="hi-export-line">
  <path d="M375,250a25,25,0,0,0-25,25v75H100V275a25,25,0,0,0-50,0V375a25,25,0,0,0,25,25H375a25,25,0,0,0,25-25V275A25,25,0,0,0,375,250Z"></path>
  <path d="M242.67773,57.32239a25,25,0,0,0-35.35546,0l-70.71045,70.71069a24.99983,24.99983,0,0,0,35.355,35.35523L200,135.35559V275.00012a25,25,0,0,0,50,0V135.35559l28.0332,28.03272a24.99983,24.99983,0,0,0,35.355-35.35523Z"></path>
</symbol><symbol viewBox="0 0 450 450" id="hi-eye-crossed-line"><path d="M252.82,341.21a12.57,12.57,0,0,0-10.22-3.58,168.2,168.2,0,0,1-17.6.92A164,164,0,0,1,93.82,273.77L56.48,225l28.09-36.69a12.49,12.49,0,0,0-1.08-16.43L65.66,154.05a12.5,12.5,0,0,0-18.76,1.24L5.15,209.8a25,25,0,0,0,0,30.4l49,64c43.07,56.26,107,84.39,170.88,84.39a217.24,217.24,0,0,0,43.28-4.35,12.51,12.51,0,0,0,6.43-21.1Z"></path><path d="M444.85,209.8l-49-64C352.81,89.58,288.9,61.45,225,61.45a217.24,217.24,0,0,0-43.28,4.35,12.51,12.51,0,0,0-6.43,21.1l21.89,21.89a12.57,12.57,0,0,0,10.22,3.58,168.2,168.2,0,0,1,17.6-.92,164,164,0,0,1,131.18,64.78L393.52,225l-28.09,36.69a12.49,12.49,0,0,0,1.08,16.43L384.34,296a12.5,12.5,0,0,0,18.76-1.24l41.75-54.51A25,25,0,0,0,444.85,209.8Z"></path><path d="M83.58,48.22a25,25,0,0,0-35.36,0h0a25,25,0,0,0,0,35.36l318.2,318.2a25,25,0,0,0,35.36,0h0a25,25,0,0,0,0-35.36Z"></path></symbol><symbol viewBox="0 0 450 450" id="hi-eye-line"><path d="M444.85,209.8l-49-64C352.81,89.58,288.9,61.45,225,61.45S97.19,89.58,54.12,145.84l-49,64a25,25,0,0,0,0,30.4l49,64c43.07,56.26,107,84.39,170.88,84.39s127.81-28.13,170.88-84.39l49-64A25,25,0,0,0,444.85,209.8Zm-88.67,64a165.2,165.2,0,0,1-262.36,0L56.48,225l37.34-48.76a165.2,165.2,0,0,1,262.36,0L393.52,225Z"></path><path d="M225,150a75,75,0,1,0,75,75A75,75,0,0,0,225,150Zm0,100a25,25,0,1,1,25-25A25,25,0,0,1,225,250Z"></path></symbol><symbol viewBox="0 0 450 450" id="hi-eyedropper-fill"><path d="M442.68,132.34l-62.5,62.5L400,214.66A25,25,0,0,1,364.64,250L200,85.37A25,25,0,0,1,235.36,50l19.82,19.83,62.5-62.5c.61-.61,1.24-1.18,1.9-1.72.32-.27.66-.52,1-.77a24.83,24.83,0,0,1,2.08-1.37c.71-.42,1.44-.8,2.18-1.15a24.06,24.06,0,0,1,2.25-.91,25.11,25.11,0,0,1,16.55,0c.38.13.76.27,1.13.43a23.4,23.4,0,0,1,3.7,1.88c.57.35,1.13.72,1.68,1.12.33.25.67.5,1,.77.66.54,1.29,1.11,1.9,1.72L442.68,97a25,25,0,0,1,0,35.36Z"></path><path d="M300.63,239a25,25,0,0,1,0,35.36L132.32,442.69A25,25,0,0,1,114.64,450H25A25,25,0,0,1,0,425V335.37a25,25,0,0,1,7.32-17.68l168.31-168.3a24.77,24.77,0,0,1,7.15-5,23.18,23.18,0,0,1,2.26-.91c.38-.14.76-.26,1.15-.38s.91-.25,1.38-.36c.71-.16,1.43-.3,2.15-.41a24.85,24.85,0,0,1,7.17,0c.8.12,1.59.27,2.37.46s1.55.42,2.32.69a24.73,24.73,0,0,1,5.48,2.71,25.24,25.24,0,0,1,3.92,3.21h0L300.62,239Z"></path></symbol><symbol viewBox="0 0 450 450" id="hi-eyedropper-line"><path d="M300.62,239,211,149.38h0a25,25,0,0,0-9.4-5.92c-.77-.27-1.54-.49-2.32-.69a23.58,23.58,0,0,0-2.37-.45,24.85,24.85,0,0,0-7.17,0c-.72.1-1.44.24-2.15.41-.47.11-.93.22-1.38.36s-.77.24-1.15.37a23.25,23.25,0,0,0-2.26.92,24.93,24.93,0,0,0-7.15,5h0L7.32,317.68A25,25,0,0,0,0,335.36V425a25,25,0,0,0,25,25h89.64a25,25,0,0,0,17.68-7.32L300.63,274.37h0a25,25,0,0,0,0-35.35ZM104.28,400H50V345.72L193.31,202.41l54.28,54.28Z"></path><path d="M442.68,97h0L353,7.32a23.46,23.46,0,0,0-1.9-1.71c-.32-.27-.66-.53-1-.78-.55-.4-1.11-.77-1.68-1.12a25.23,25.23,0,0,0-3.7-1.88l-1.13-.43a25.11,25.11,0,0,0-16.55,0,24.15,24.15,0,0,0-2.25.92,23.81,23.81,0,0,0-2.18,1.14c-.71.42-1.4.88-2.08,1.37-.33.25-.67.51-1,.78a23.46,23.46,0,0,0-1.9,1.71l-62.5,62.5L235.36,50A25,25,0,0,0,200,50h0a25,25,0,0,0,0,35.36L364.64,250A25,25,0,0,0,400,214.64l-19.82-19.82,62.5-62.5h0A25,25,0,0,0,442.68,97Zm-152.15,8.21,44.83-44.82,54.28,54.28-44.82,44.83Z"></path></symbol><symbol viewBox="0 0 450 450" id="hi-eyedropper-semi"><path d="M300.62,239,211,149.39h0a25.24,25.24,0,0,0-3.92-3.21,24.73,24.73,0,0,0-5.48-2.71c-.77-.27-1.54-.5-2.32-.69s-1.57-.34-2.37-.46a24.85,24.85,0,0,0-7.17,0c-.72.11-1.44.25-2.15.41q-.7.17-1.38.36c-.39.12-.77.24-1.15.38a23.18,23.18,0,0,0-2.26.91,24.77,24.77,0,0,0-7.15,5h0L7.32,317.69A25,25,0,0,0,0,335.37V425a25,25,0,0,0,25,25h89.64a25,25,0,0,0,17.68-7.32l168.31-168.3h0a25,25,0,0,0,0-35.36ZM104.28,400H50V345.73L193.31,202.42l54.28,54.28Z"></path><path d="M442.68,132.34l-62.5,62.5L400,214.66A25,25,0,0,1,364.64,250L200,85.37A25,25,0,0,1,235.36,50l19.82,19.83,62.5-62.5c.61-.61,1.24-1.18,1.9-1.72.32-.27.66-.52,1-.77a24.83,24.83,0,0,1,2.08-1.37c.71-.42,1.44-.8,2.18-1.15a24.06,24.06,0,0,1,2.25-.91,25.11,25.11,0,0,1,16.55,0c.38.13.76.27,1.13.43a23.4,23.4,0,0,1,3.7,1.88c.57.35,1.13.72,1.68,1.12.33.25.67.5,1,.77.66.54,1.29,1.11,1.9,1.72L442.68,97a25,25,0,0,1,0,35.36Z"></path></symbol><symbol viewBox="0 0 450 450" id="hi-file-fill">
  <path d="M390.5,119.79,280.21,9.5A32.434,32.434,0,0,0,257.28,0H75A24.99624,24.99624,0,0,0,50,25V425a24.99624,24.99624,0,0,0,25,25H375a24.99624,24.99624,0,0,0,25-25V142.71973A32.4339,32.4339,0,0,0,390.5,119.79ZM250,150V50L350,150Z"></path>
</symbol><symbol viewBox="0 0 450 450" id="hi-file-line">
  <path d="M280.21014,9.49945A32.43311,32.43311,0,0,0,257.27645,0H75A25,25,0,0,0,50,25V425a25,25,0,0,0,25,25H375a25,25,0,0,0,25-25V142.72355a32.43311,32.43311,0,0,0-9.49945-22.93369ZM350,150H250V50Zm0,250H100V50H200V175a25,25,0,0,0,25,25H350Z"></path>
</symbol><symbol viewBox="0 0 450 450" id="hi-file-semi">
  <path d="M390.5,119.79,280.21,9.5A32.43386,32.43386,0,0,0,257.28,0H75A24.99627,24.99627,0,0,0,50,25V425a24.99631,24.99631,0,0,0,25,25H375a24.99631,24.99631,0,0,0,25-25V142.72A32.43387,32.43387,0,0,0,390.5,119.79ZM350,400H100V50H200V175a24.99627,24.99627,0,0,0,25,25H350Z"></path>
</symbol><symbol viewBox="0 0 450 450" id="hi-folder-add-fill">
  <path d="M431.59,100H221L204.74,61.28027A18.41756,18.41756,0,0,0,187.76,50H18.41A18.40706,18.40706,0,0,0,0,68.41016V381.58984A18.40706,18.40706,0,0,0,18.41,400H431.59A18.407,18.407,0,0,0,450,381.58984V118.41016A18.407,18.407,0,0,0,431.59,100ZM275,275H250v25a25,25,0,0,1-50,0V275H175a25,25,0,0,1,0-50h25V200a25,25,0,0,1,50,0v25h25a25,25,0,0,1,0,50Z"></path>
</symbol><symbol viewBox="0 0 450 450" id="hi-folder-add-line">
  <g>
    <path d="M431.58765,100H220.99554L204.73816,61.28369A18.412,18.412,0,0,0,187.76178,50H18.41235A18.41239,18.41239,0,0,0,0,68.41211V381.58789A18.41239,18.41239,0,0,0,18.41235,400h413.1753A18.41235,18.41235,0,0,0,450,381.58789V118.41211A18.41235,18.41235,0,0,0,431.58765,100ZM400,350H50V100H166.76624l16.25738,38.71631A18.412,18.412,0,0,0,200,150H400Z"></path>
    <path d="M200,200v25H175a25,25,0,0,0,0,50h25v25a25,25,0,0,0,50,0V275h25a25,25,0,0,0,0-50H250V200a25,25,0,0,0-50,0Z"></path>
  </g>
</symbol><symbol viewBox="0 0 450 450" id="hi-folder-fill">
  <path d="M450,118.41016V381.58984A18.407,18.407,0,0,1,431.59009,400H18.41A18.40706,18.40706,0,0,1,0,381.58984V68.41016A18.40706,18.40706,0,0,1,18.41,50H187.76a18.41762,18.41762,0,0,1,16.98,11.28027L221,100H431.59009A18.407,18.407,0,0,1,450,118.41016Z"></path>
</symbol><symbol viewBox="0 0 450 450" id="hi-folder-line">
  <path d="M400,100H220.99554L204.73818,61.28377A18.41234,18.41234,0,0,0,187.76179,50H18.41234A18.41233,18.41233,0,0,0,0,68.41234V381.58766A18.41233,18.41233,0,0,0,18.41234,400H431.58766A18.41233,18.41233,0,0,0,450,381.58766V118.41234A18.41233,18.41233,0,0,0,431.58766,100Zm0,250H50V100H166.76624l16.25736,38.71623A18.41234,18.41234,0,0,0,200,150H400Z"></path>
</symbol><symbol viewBox="0 0 450 450" id="hi-freehand-select-line">
  <path d="M353.04,7.3288h-.01l75.95,75.95Zm96.93,106.1499a25.05292,25.05292,0,0,0-1.18-6.51c-.12-.37-.25-.74-.39-1.1-.16-.44006-.34-.88-.52-1.30993a27.78622,27.78622,0,0,0-1.49-2.86011,25.49315,25.49315,0,0,0-3.71-4.73h-.01L428.98,83.27875,353.03,7.3288a24.9811,24.9811,0,0,0-35.35,0L157.32,167.67865a25.00016,25.00016,0,0,0-7.32,17.68v89.64a24.99631,24.99631,0,0,0,25,25h89.64a24.98257,24.98257,0,0,0,17.68-7.32l80.18-80.17v-.01l80.18-80.16992A24.90273,24.90273,0,0,0,450,114.65863C450,114.26874,449.99,113.86871,449.97,113.4787ZM254.28,249.99872H200v-54.28l135.36-135.35,54.28,54.28ZM233.84954,387.35235a124.11586,124.11586,0,0,1-32.49907,13.45112,24.8558,24.8558,0,0,0-18.53953,24.15044v.00007a24.97608,24.97608,0,0,0,31.08112,24.25812,173.78663,173.78663,0,0,0,45.198-18.68943,25.03888,25.03888,0,0,0,5.0894-39.28641l-.00477-.00476A24.94518,24.94518,0,0,0,233.84954,387.35235Zm54.31771-65.912A124.29944,124.29944,0,0,1,277.98,343.22116a24.94982,24.94982,0,0,0,3.87547,30.3311l.00474.00475a24.95131,24.95131,0,0,0,39.07243-4.73617,173.99036,173.99036,0,0,0,14.407-30.78964,25.011,25.011,0,0,0-23.5788-33.34344h-.00081A25.055,25.055,0,0,0,288.16725,321.44034Zm-211.72,69.79118-.00475.00475a25.03887,25.03887,0,0,0,5.08941,39.28639,173.78624,173.78624,0,0,0,45.19792,18.68944A24.97609,24.97609,0,0,0,157.81094,424.954v-.00006a24.8558,24.8558,0,0,0-18.53952-24.15044,124.11591,124.11591,0,0,1-32.49906-13.45111A24.94518,24.94518,0,0,0,76.44724,391.23152ZM25.0448,292.18776h-.00006A24.97609,24.97609,0,0,0,.78662,323.2689a173.78689,173.78689,0,0,0,18.68945,45.19794,25.03887,25.03887,0,0,0,39.28639,5.08942l.00477-.00477a24.94519,24.94519,0,0,0,3.87914-30.32515,124.11533,124.11533,0,0,1-13.45113-32.49906A24.8558,24.8558,0,0,0,25.0448,292.18776ZM19.47605,190.90867a173.78738,173.78738,0,0,0-18.68943,45.198,24.97609,24.97609,0,0,0,24.25813,31.08112h0a24.8558,24.8558,0,0,0,24.15044-18.53952,124.11547,124.11547,0,0,1,13.45113-32.49908A24.94518,24.94518,0,0,0,58.76724,185.824l-.00477-.00477A25.03887,25.03887,0,0,0,19.47605,190.90867Zm56.96567-22.77018.00473.00473a24.94984,24.94984,0,0,0,30.33111,3.87548,124.29964,124.29964,0,0,1,21.78081-10.18724,25.055,25.055,0,0,0,16.75257-23.59282v-.00079a25.011,25.011,0,0,0-33.34342-23.5788,173.98839,173.98839,0,0,0-30.78962,14.407A24.95131,24.95131,0,0,0,76.44172,168.13849Z"></path>
</symbol><symbol viewBox="0 0 450 450" id="hi-headphones-line">
  <path d="M400.00006,250h0V225a175,175,0,1,0-350,0v25H50A50,50,0,0,0,0,299.99994v50.00012A50,50,0,0,0,50,400H75.00006A25,25,0,0,0,100,375V297.47l.00006-72.47a125.00006,125.00006,0,1,1,250,0L350,274.99927V375a25,25,0,0,0,25,25h25.00006A50,50,0,0,0,450,350.00006V299.99994A50,50,0,0,0,400.00006,250Z"></path>
</symbol><symbol viewBox="0 0 450 450" id="hi-hyperio-logo-line">
  <path d="M274.28992,253.46873v97.6l84.52-48.79993v-97.61Zm23.49023,56.91v-29.79l25.7898,14.89Zm37.5398-35.24-15.1399-8.74-10.6499-6.15,25.7898-14.9Zm-61.03-21.67005v97.6l84.52-48.79993v-97.61Zm23.49023,56.91v-29.79l25.7898,14.89Zm37.5398-35.24-15.1399-8.74-10.6499-6.15,25.7898-14.9Zm-61.03-21.67005v97.6l84.52-48.79993v-97.61Zm23.49023,56.91v-29.79l25.7898,14.89Zm37.5398-35.24-15.1399-8.74-10.6499-6.15,25.7898-14.9Zm-61.03-21.67005v97.6l84.52-48.79993v-97.61Zm23.49023,56.91v-29.79l25.7898,14.89Zm37.5398-35.24-15.1399-8.74-10.6499-6.15,25.7898-14.9Zm-61.03-21.67005v97.6l84.52-48.79993v-97.61Zm23.49023,56.91v-29.79l25.7898,14.89Zm37.5398-35.24-15.1399-8.74-10.6499-6.15,25.7898-14.9Zm72.04-169.8501L359.57,77.69884a24.97927,24.97927,0,0,0-25,0l-36.7898,21.23v-42.47a25.00462,25.00462,0,0,0-12.5-21.65015l-47.78027-27.59a24.9799,24.9799,0,0,0-25,0l-47.77979,27.59a24.98362,24.98362,0,0,0-12.5,21.65015v42.48l-36.79-21.24a24.97927,24.97927,0,0,0-25,0L42.64,105.28868a25.00477,25.00477,0,0,0-12.5,21.65015V323.06871a25.02061,25.02061,0,0,0,12.5,21.66l47.79,27.58a25.02787,25.02787,0,0,0,25,0l36.79-21.24v42.48a24.98379,24.98379,0,0,0,12.5,21.65015l47.77979,27.58984a25.02786,25.02786,0,0,0,25,0L407.36,344.72874a25.02061,25.02061,0,0,0,12.5-21.66V126.93883A25.00477,25.00477,0,0,0,407.36,105.28868ZM224.99988,27.12877l37.54,21.67993-37.54,21.67-37.5398-21.67Zm-49.2898,42.03,37.5398,21.65991v43.36011l-25.7898-14.89014-11.75-6.78992Zm0,70.47,25.80005,14.8999-25.8,14.89014Zm-72.78-42.02,37.54,21.67993-37.54,21.67017L65.38,119.28868Zm49.29,112.5v29.79l-25.8-14.89Zm61.02979,205.99-37.5398-21.67993v-70.48l-84.53-48.8v70.48L53.63,323.93883V139.62877l37.55,21.66992v70.49l11.75,6.78,72.78,42.02v-70.48l37.5398,21.66992Zm-25.7898-226.33,25.7898-14.9,11.75-6.78,11.75-6.78,61.03027-35.24v-.01L347.07,97.60875,384.62,119.28868,224.99988,211.43883ZM396.36,323.93883,236.74988,416.09874V231.78868l116.19018-67.07983L396.36,139.62877Z"></path>
</symbol><symbol viewBox="0 0 450 450" id="hi-import-line">
  <g>
    <path d="M207.32227,292.67773a25,25,0,0,0,35.35546,0L313.38818,221.967a24.99983,24.99983,0,1,0-35.355-35.35522L250,214.64453V75a25,25,0,0,0-50,0V214.64453l-28.0332-28.03271a24.99983,24.99983,0,1,0-35.355,35.35522Z"></path>
    <path d="M375,250a25,25,0,0,0-25,25v75H100V275a25,25,0,0,0-50,0V375a25,25,0,0,0,25,25H375a25,25,0,0,0,25-25V275A25,25,0,0,0,375,250Z"></path>
  </g>
</symbol><symbol viewBox="0 0 450 450" id="hi-intersect-selection-fill"><rect x="150" y="350.01" width="50" height="50" rx="12.5"></rect><rect x="250" y="350.01" width="50" height="50" rx="12.5"></rect><rect x="350" y="350.01" width="50" height="50" rx="12.5"></rect><rect x="50" y="50.01" width="50" height="50" rx="12.5"></rect><path d="M300,175V275a25,25,0,0,1-25,25H175a25,25,0,0,1-25-25V175a25,25,0,0,1,25-25H275A25,25,0,0,1,300,175Z"></path><path d="M150,87.51v-25A12.5,12.5,0,0,1,162.5,50h25A12.5,12.5,0,0,1,200,62.51v25A12.5,12.5,0,0,1,187.5,100h-25A12.5,12.5,0,0,1,150,87.51Z"></path><path d="M300,62.51v25A12.5,12.5,0,0,1,287.5,100h-25A12.5,12.5,0,0,1,250,87.51v-25A12.5,12.5,0,0,1,262.5,50h25A12.5,12.5,0,0,1,300,62.51Z"></path><rect x="350" y="250.01" width="50" height="50" rx="12.5"></rect><rect x="350" y="150.01" width="50" height="50" rx="12.5"></rect><rect x="50" y="250.01" width="50" height="50" rx="12.5"></rect><rect x="50" y="150.01" width="50" height="50" rx="12.5"></rect></symbol><symbol viewBox="0 0 450 450" id="hi-intersect-selection-line"><path d="M275,150H175a25,25,0,0,0-25,25V275a25,25,0,0,0,25,25H275a25,25,0,0,0,25-25V175A25,25,0,0,0,275,150Zm-25,50v50H200V200Z"></path><rect x="150" y="350" width="50" height="50" rx="12.5"></rect><rect x="250" y="350" width="50" height="50" rx="12.5"></rect><rect x="350" y="350" width="50" height="50" rx="12.5"></rect><rect x="50" y="50" width="50" height="50" rx="12.5"></rect><rect x="150" y="50" width="50" height="50" rx="12.5"></rect><rect x="250" y="50" width="50" height="50" rx="12.5"></rect><rect x="350" y="250" width="50" height="50" rx="12.5"></rect><rect x="350" y="150" width="50" height="50" rx="12.5"></rect><rect x="50" y="250" width="50" height="50" rx="12.5"></rect><rect x="50" y="150" width="50" height="50" rx="12.5"></rect></symbol><symbol viewBox="0 0 450 450" id="hi-lasso-line"><path d="M325,0H125A125,125,0,0,0,0,125v50A125,125,0,0,0,100,297.5V375a25,25,0,0,0,25,25H300v25a25,25,0,0,0,25,25h0a25,25,0,0,0,25-25V375a25,25,0,0,0-25-25H150V300H325A125,125,0,0,0,450,175V125A125,125,0,0,0,325,0Zm75,175a75,75,0,0,1-73.06,75L325,250H150V225a25,25,0,0,0-25-25h0a25,25,0,0,0-25,25v20.71A75,75,0,0,1,50,175V125a75,75,0,0,1,73.06-75L125,50H325l1.94,0A75,75,0,0,1,400,125Z"></path></symbol><symbol viewBox="0 0 450 450" id="hi-layer-fill"><path d="M410.66,306.76h0a25,25,0,0,0-24.28,0L225,396.41,63.62,306.76a25,25,0,0,0-24.28,0h0a25,25,0,0,0,0,43.71l173.52,96.4a25,25,0,0,0,24.28,0l173.52-96.4A25,25,0,0,0,410.66,306.76Z"></path><path d="M39.34,99.56,212.86,3.16a25,25,0,0,1,24.28,0l173.52,96.4a25,25,0,0,1,0,43.71l-173.52,96.4a25,25,0,0,1-24.28,0L39.34,143.27A25,25,0,0,1,39.34,99.56Z"></path><path d="M410.66,246.87l-173.52,96.4a25,25,0,0,1-24.28,0L39.34,246.87a25,25,0,0,1,0-43.71,25,25,0,0,1,24.28,0L225,292.82l161.38-89.66a25,25,0,0,1,24.28,43.71Z"></path></symbol><symbol viewBox="0 0 450 450" id="hi-layer-line"><path d="M39.34,143.25l173.52,96.41a25,25,0,0,0,24.28,0l173.52-96.41a25,25,0,0,0,0-43.7L237.14,3.15a25,25,0,0,0-24.28,0L39.34,99.55A25,25,0,0,0,39.34,143.25ZM225,53.6l122,67.8L225,189.2,103,121.4Z"></path><path d="M410.66,306.74h0a25,25,0,0,0-24.28,0L225,396.4,63.62,306.74a25,25,0,0,0-24.28,0h0a25,25,0,0,0,0,43.71l173.52,96.4a25,25,0,0,0,24.28,0l173.52-96.4A25,25,0,0,0,410.66,306.74Z"></path><path d="M410.66,203.15h0a25,25,0,0,0-24.28,0L225,292.8,63.62,203.15a25,25,0,0,0-24.28,0h0a25,25,0,0,0,0,43.71l173.52,96.4a25,25,0,0,0,24.28,0l173.52-96.4A25,25,0,0,0,410.66,203.15Z"></path></symbol><symbol viewBox="0 0 450 450" id="hi-left-arrow-large-line">
  <path d="M304.54949,366.42136l0,0a25,25,0,0,0,0-35.35531L198.4835,225l106.066-106.066a25,25,0,0,0,0-35.3553l0,0a25,25,0,0,0-35.35531,0L145.45047,207.32233a25,25,0,0,0,0,35.3553L269.19419,366.42136A25,25,0,0,0,304.54949,366.42136Z"></path>
</symbol><symbol viewBox="0 0 450 450" id="hi-left-arrow-small-line">
  <path d="M286.87182,331.066l0,0a25,25,0,0,0,0-35.3553L216.16117,225l70.71068-70.71068a25,25,0,0,0,0-35.3553l0,0a25,25,0,0,0-35.35531,0l-88.38836,88.38837a25,25,0,0,0,0,35.3553L251.51651,331.066A25,25,0,0,0,286.87182,331.066Z"></path>
</symbol><symbol viewBox="0 0 450 450" id="hi-lock-fill"><path d="M425,175H375V150a150,150,0,0,0-300,0v25H25A25,25,0,0,0,0,200V350A100,100,0,0,0,100,450H350A100,100,0,0,0,450,350V200A25,25,0,0,0,425,175ZM225,350a37.5,37.5,0,1,1,37.5-37.5A37.49,37.49,0,0,1,225,350ZM125,150a100,100,0,0,1,200,0v25H125Z"></path></symbol><symbol viewBox="0 0 450 450" id="hi-lock-line"><path d="M425,175H375V150a150,150,0,0,0-300,0v25H25A25,25,0,0,0,0,200V350A100,100,0,0,0,100,450H350A100,100,0,0,0,450,350V200A25,25,0,0,0,425,175ZM225,50A100,100,0,0,1,325,150v25H125V150A100,100,0,0,1,225,50ZM350,400H100a50,50,0,0,1-50-50V225H400V350A50,50,0,0,1,350,400Z"></path><circle cx="225" cy="312.5" r="37.5"></circle></symbol><symbol viewBox="0 0 450 450" id="hi-lock-open-fill"><path d="M425,175H125V151.26C125,95.92,170.27,49.69,225.6,50a99.76,99.76,0,0,1,75.58,35.21,25,25,0,0,0,38-32.46A149.66,149.66,0,0,0,223,0C141.15,1.12,75,68.36,75,150h0v25H25A25,25,0,0,0,0,200V350A100,100,0,0,0,100,450H350A100,100,0,0,0,450,350V200A25,25,0,0,0,425,175ZM225,350a37.5,37.5,0,1,1,37.5-37.5A37.49,37.49,0,0,1,225,350Z"></path></symbol><symbol viewBox="0 0 450 450" id="hi-lock-open-line"><path d="M425,175H125V151.24C125,95.91,170.27,49.68,225.6,50a99.76,99.76,0,0,1,75.58,35.22,25,25,0,0,0,31.07,5.66h0a25,25,0,0,0,7-38.13A149.69,149.69,0,0,0,223,0C141.15,1.11,75,68.34,75,150h0v25H25A25,25,0,0,0,0,200V350A100,100,0,0,0,100,450H350A100,100,0,0,0,450,350V200A25,25,0,0,0,425,175ZM350,400H100a50,50,0,0,1-50-50V225H400V350A50,50,0,0,1,350,400Z"></path><circle cx="225" cy="312.5" r="37.5"></circle></symbol><symbol viewBox="0 0 450 450" id="hi-logo-github-line">
  <path d="M224.98545,5.55606C100.74724,5.55606,0,106.29087,0,230.56914,0,329.96828,64.46309,414.3007,153.87991,444.05705c11.25039,2.06359,15.35678-4.88273,15.35678-10.84561,0-5.3413-.19476-19.49086-.30388-38.26762-62.58735,13.59706-75.79344-30.161-75.79344-30.161C82.90835,338.79034,68.158,331.87026,68.158,331.87026c-20.42874-13.96032,1.54562-13.67717,1.54562-13.67717,22.57943,1.59121,34.46365,23.1871,34.46365,23.1871,20.071,34.38354,52.66029,24.4551,65.48108,18.69527,2.04425-14.54046,7.85657-24.45509,14.28492-30.07956C133.97053,324.31757,81.4456,305.01455,81.4456,218.794c0-24.56283,8.76682-44.64764,23.15948-60.376-2.3136-5.69215-10.03481-28.56847,2.20586-59.54584,0,0,18.8914-6.04989,61.87325,23.06556a213.26564,213.26564,0,0,1,112.65778,0c42.9556-29.11545,61.81247-23.06556,61.81247-23.06556,12.2752,30.97737,4.55261,53.85369,2.239,59.54584,14.42029,15.72833,23.12771,35.81314,23.12771,60.376,0,86.43607-52.60642,105.45593-102.73072,111.02652,8.079,6.94633,15.27528,20.67875,15.27528,41.66689,0,30.07956-.27625,54.3468-.27625,61.72407,0,6.01674,4.0526,13.01694,15.47142,10.81936C385.59069,414.21921,450,329.942,450,230.56914,450,106.29087,349.25138,5.55606,224.98545,5.55606Z" style="fill-rule: evenodd"></path>
</symbol><symbol viewBox="0 0 450 450" id="hi-logo-google-line">
  <path d="M445.2188,230.06508c0,68.4342-24.37091,126.18046-66.75078,165.3696C341.344,429.74966,290.52734,450,229.7861,450c-87.94074,0-163.88193-50.62093-200.82-124.12511a222.4659,222.4659,0,0,1,0-201.74972C65.90417,50.62093,141.84536,0,229.7861,0c49.57015,0,92.53057,14.86212,127.7482,40.09649a25.02478,25.02478,0,0,1,3.16648,38.043l-28.832,28.83641a25.11887,25.11887,0,0,1-31.89655,2.88424c-20.36942-13.77473-44.18705-20.7939-70.18613-20.7939-58.69568,0-108.377,39.56112-126.19025,93.00086a135.53448,135.53448,0,0,0-7.12533,42.928,130.515,130.515,0,0,0,7.12533,42.93777c17.8132,53.4398,67.49457,93.00086,126.19025,93.00086,30.37059,0,56.053-8.25086,76.30333-21.7478,23.627-15.93408,39.57092-39.37516,45.003-67.12276H254.78608a25,25,0,0,1-25-25v-34.564a25,25,0,0,1,25-25H419.531a24.9878,24.9878,0,0,1,24.92773,23.025C444.95422,216.90808,445.2188,223.40958,445.2188,230.06508Z"></path>
</symbol><symbol viewBox="0 0 450 450" id="hi-logo-twitter-fill">
  <path d="M403.93051,133.20167c.27421,3.96709.27421,7.93418.27421,11.93784,0,121.99269-92.8702,262.68739-262.68738,262.68739v-.07311A261.36424,261.36424,0,0,1,0,366.36436a187.79762,187.79762,0,0,0,21.97441,1.33455A185.387,185.387,0,0,0,136.6362,328.1011a92.4394,92.4394,0,0,1-86.25228-64.11334,92.02509,92.02509,0,0,0,41.6819-1.5905,92.33128,92.33128,0,0,1-74.05851-90.49359v-1.17a91.738,91.738,0,0,0,41.90128,11.55392A92.43886,92.43886,0,0,1,31.33455,59.0152a262.03553,262.03553,0,0,0,190.27422,96.45337A92.41039,92.41039,0,0,1,378.93965,71.26382a185.259,185.259,0,0,0,58.6289-22.41316,92.66776,92.66776,0,0,1-40.585,51.06033A183.61076,183.61076,0,0,0,450,85.37716,187.55858,187.55858,0,0,1,403.93051,133.20167Z"></path>
</symbol><symbol viewBox="0 0 450 450" id="hi-loop-line">
  <g>
    <path d="M407.325,107.32,389.64508,89.64523,336.60992,36.61008a24.99589,24.99589,0,0,0-35.34985,0h0a24.99618,24.99618,0,0,0,0,35.35009l28.04,28.04H74.99615a24.996,24.996,0,0,0-24.99609,24.9961v75.0039a24.99629,24.99629,0,0,0,24.99609,24.9961h.00757a24.99634,24.99634,0,0,0,24.99634-24.9961v-50h229.29l-28.03247,28.03223a24.99657,24.99657,0,0,0-.00269,35.34766l.00513.00488a24.996,24.996,0,0,0,35.35254.00244l63.38745-63.38721,7.32739-7.32763A24.99625,24.99625,0,0,0,407.325,107.32Z"></path>
    <path d="M375.00372,225.00363h-.00757a24.99639,24.99639,0,0,0-24.99609,24.99658v50H120.71l28.03247-28.03271a24.99634,24.99634,0,0,0,.00244-35.34766l-.00488-.00488a24.99648,24.99648,0,0,0-35.35254-.00244L50.00006,300.00021l-7.32764,7.32764a24.99567,24.99567,0,0,0,.00269,35.352L60.3548,360.35519,113.39,413.38986a24.99663,24.99663,0,0,0,35.3501.00049v-.00049a24.996,24.996,0,0,0,0-35.34961l-28.04-28.04H375.00006a25,25,0,0,0,25-25h0v-75A24.99645,24.99645,0,0,0,375.00372,225.00363Z"></path>
  </g>
</symbol><symbol viewBox="0 0 450 450" id="hi-magic-wand-fill"><path d="M442.68,442.68a25,25,0,0,1-35.36,0L241.05,276.4,221,341.06a25,25,0,0,1-20,17.27,25,25,0,0,1-24.32-10.26l-55.41-78.34L25.32,271A25,25,0,0,1,5,231l57.39-76.9L31.54,63.24a25,25,0,0,1,31.7-31.7l90.87,30.81L231,5A25,25,0,0,1,271,25.32l-1.23,95.94,78.34,55.4a25,25,0,0,1-7,44.29l-64.65,20.1L442.68,407.32A25,25,0,0,1,442.68,442.68Z"></path></symbol><symbol viewBox="0 0 450 450" id="hi-magic-wand-line"><path d="M442.68,407.32,276.41,241.05,341.06,221a25,25,0,0,0,7-44.29l-78.34-55.4L271,25.32A25,25,0,0,0,231,5l-76.9,57.39L63.24,31.54a25,25,0,0,0-31.7,31.7l30.81,90.87L5,231A25,25,0,0,0,25.32,271l95.94-1.23,55.41,78.34a25,25,0,0,0,44.28-7l20.1-64.66L407.32,442.68a25,25,0,0,0,35.36-35.36ZM205.59,222l-17.35,55.8L154.5,230.13a25,25,0,0,0-20.41-10.56h-.32l-58.44.74,35-46.83a25,25,0,0,0,3.64-23L95.16,95.15l55.34,18.77a25,25,0,0,0,23-3.64l46.83-34.95-.74,58.44a25,25,0,0,0,10.56,20.73l47.71,33.74L222,205.59A25,25,0,0,0,205.59,222Z"></path></symbol><symbol viewBox="0 0 450 450" id="hi-marquee-line"><path d="M425,325h0a25,25,0,0,0-25,25v50H350a25,25,0,0,0,0,50h75a25,25,0,0,0,25-25V350A25,25,0,0,0,425,325Z"></path><path d="M100,400H50V350a25,25,0,0,0-25-25h0A25,25,0,0,0,0,350v75a25,25,0,0,0,25,25h75a25,25,0,0,0,0-50Z"></path><path d="M425,0H350a25,25,0,0,0-25,25h0a25,25,0,0,0,25,25h50v50a25,25,0,0,0,25,25h0a25,25,0,0,0,25-25V25h0A25,25,0,0,0,425,0Z"></path><path d="M100,0H25A25,25,0,0,0,0,25H0v75a25,25,0,0,0,25,25h0a25,25,0,0,0,25-25V50h50a25,25,0,0,0,25-25h0A25,25,0,0,0,100,0Z"></path><rect y="175" width="50" height="100" rx="25"></rect><path d="M250,0H200a25,25,0,0,0-25,25h0a25,25,0,0,0,25,25h50a25,25,0,0,0,25-25h0A25,25,0,0,0,250,0Z"></path><path d="M250,400H200a25,25,0,0,0-25,25h0a25,25,0,0,0,25,25h50a25,25,0,0,0,25-25h0A25,25,0,0,0,250,400Z"></path><rect x="400" y="175" width="50" height="100" rx="25"></rect></symbol><symbol viewBox="0 0 450 450" id="hi-menu"><path d="M375,350H75a25,25,0,0,0,0,50H375a25,25,0,0,0,0-50Z"></path><path d="M75,100H375a25,25,0,0,0,0-50H75a25,25,0,0,0,0,50Z"></path><path d="M375,200H75a25,25,0,0,0,0,50H375a25,25,0,0,0,0-50Z"></path></symbol><symbol viewBox="0 0 450 450" id="hi-mic-fill">
  <g>
    <path d="M372.08789,229.55957A24.79456,24.79456,0,0,0,347.71313,200H347.35a24.97213,24.97213,0,0,0-24.3816,20.15393,100.025,100.025,0,0,1-195.93688,0A24.97213,24.97213,0,0,0,102.65,200h-.36309a24.79456,24.79456,0,0,0-24.37476,29.55957A150.14831,150.14831,0,0,0,200,347.91663V400H124.82507A24.82507,24.82507,0,0,0,100,424.82507v.34986A24.82507,24.82507,0,0,0,124.82507,450H325.17493A24.82507,24.82507,0,0,0,350,425.17493v-.34986A24.82507,24.82507,0,0,0,325.17493,400H250V347.91663A150.14823,150.14823,0,0,0,372.08789,229.55957Z"></path>
    <path d="M300.0025,75.52V199.48a75.52,75.52,0,1,1-151.04,0V75.52a75.52,75.52,0,0,1,151.04,0Z"></path>
  </g>
</symbol><symbol viewBox="0 0 450 450" id="hi-mic-line">
  <g>
    <path d="M372.08789,229.55957A24.79456,24.79456,0,0,0,347.71313,200H347.35a24.97213,24.97213,0,0,0-24.3816,20.15393,100.025,100.025,0,0,1-195.93688,0A24.97213,24.97213,0,0,0,102.65,200h-.36309a24.79456,24.79456,0,0,0-24.37476,29.55957A150.14831,150.14831,0,0,0,200,347.91663V400H124.82507A24.82507,24.82507,0,0,0,100,424.82507v.34986A24.82507,24.82507,0,0,0,124.82507,450H325.17493A24.82507,24.82507,0,0,0,350,425.17493v-.34986A24.82507,24.82507,0,0,0,325.17493,400H250V347.91663A150.14823,150.14823,0,0,0,372.08789,229.55957Z"></path>
    <path d="M224.48,275A75.51818,75.51818,0,0,0,300,199.48V75.52a75.52,75.52,0,1,0-151.04,0V199.48A75.51817,75.51817,0,0,0,224.48,275ZM198.96,75.52a25.52,25.52,0,1,1,51.04,0V199.48a25.52,25.52,0,1,1-51.04,0Z"></path>
  </g>
</symbol><symbol viewBox="0 0 450 450" id="hi-minus-line">
  <rect x="200" y="75.00003" width="50" height="299.99995" rx="24.99997" transform="translate(450 0) rotate(90)"></rect>
</symbol><symbol viewBox="0 0 450 450" id="hi-move-line"><path d="M442.68,207.32,372,136.61a25,25,0,0,0-35.36,0h0a25,25,0,0,0,0,35.36l28,28H250V85.36l28,28a25,25,0,0,0,35.36,0h0a25,25,0,0,0,0-35.36L242.68,7.32h0a25,25,0,0,0-35.36,0L136.61,78a25,25,0,0,0,0,35.36h0a25,25,0,0,0,35.36,0l28-28V200H85.36l28-28a25,25,0,0,0,0-35.36h0a25,25,0,0,0-35.36,0L7.32,207.32a25,25,0,0,0,0,35.36L78,313.39a25,25,0,0,0,35.36,0h0a25,25,0,0,0,0-35.36l-28-28H200V364.64l-28-28a25,25,0,0,0-35.36,0h0a25,25,0,0,0,0,35.36l70.71,70.71h0a25,25,0,0,0,35.36,0L313.39,372a25,25,0,0,0,0-35.36h0a25,25,0,0,0-35.36,0l-28,28V250H364.64l-28,28a25,25,0,0,0,0,35.36h0a25,25,0,0,0,35.36,0l70.71-70.71A25,25,0,0,0,442.68,207.32Z"></path></symbol><symbol viewBox="0 0 450 450" id="hi-paint-bucket-fill"><path d="M398.59,258.27a24.9,24.9,0,0,1-5.93,9.42l-175,175h0a25,25,0,0,1-35.35,0l-175-175a25,25,0,0,1,0-35.39L164.64,75,132.32,42.68A25,25,0,0,1,167.68,7.32l225,225A25,25,0,0,1,398.59,258.27Z"></path><path d="M435.36,335.36l-26.52-26.52a12.51,12.51,0,0,0-17.68,0l-26.52,26.52a50,50,0,0,0,0,70.71h0a50,50,0,0,0,70.72,0h0A50,50,0,0,0,435.36,335.36Z"></path></symbol><symbol viewBox="0 0 450 450" id="hi-paint-bucket-line"><path d="M392.66,267.68a25,25,0,0,0,0-35.38l-225-225a25,25,0,0,0-35.36,35.35L164.64,75,7.32,232.31a25,25,0,0,0,0,35.38l175,175a25,25,0,0,0,35.35,0h0Zm-53-17.69L200,389.64,60.34,250,200,110.34Z"></path><path d="M435.36,335.34l-26.52-26.52a12.51,12.51,0,0,0-17.68,0l-26.52,26.52a50,50,0,0,0,0,70.71h0a50,50,0,0,0,70.72,0h0A50,50,0,0,0,435.36,335.34Z"></path></symbol><symbol viewBox="0 0 450 450" id="hi-paint-bucket-semi"><path d="M392.67,232.31l-225-225a25,25,0,0,0-35.36,35.36L164.64,75,7.32,232.32a25,25,0,0,0,0,35.39l175,175a25,25,0,0,0,35.35,0h0l175-175a25,25,0,0,0,0-35.38ZM200,110.36,339.64,250H60.34Z"></path><path d="M435.36,335.36l-26.52-26.52a12.51,12.51,0,0,0-17.68,0l-26.52,26.52a50,50,0,0,0,0,70.71h0a50,50,0,0,0,70.72,0h0A50,50,0,0,0,435.36,335.36Z"></path></symbol><symbol viewBox="0 0 450 450" id="hi-paste-line">
  <path d="M425,50H375V25A25,25,0,0,0,350,0H150a25,25,0,0,0-25,25V50H75A25,25,0,0,0,50,75V425a25,25,0,0,0,25,25H425a25,25,0,0,0,25-25V75A25,25,0,0,0,425,50ZM175,50H325v50H175ZM400,400H100V100h25v25a25,25,0,0,0,25,25H350a25,25,0,0,0,25-25V100h25Z"></path>
</symbol><symbol viewBox="0 0 450 450" id="hi-path-fill"><path d="M450,25V125a25,25,0,0,1-25,25H335.36L150,335.37V425a25,25,0,0,1-25,25H25A25,25,0,0,1,0,425V325a25,25,0,0,1,25-25h89.64L300,114.66V25A25,25,0,0,1,325,0H425A25,25,0,0,1,450,25Z"></path></symbol><symbol viewBox="0 0 450 450" id="hi-path-line"><path d="M425,0H325a25,25,0,0,0-25,25v89.64L114.64,300H25A25,25,0,0,0,0,325V425a25,25,0,0,0,25,25H125a25,25,0,0,0,25-25V335.36L335.36,150H425a25,25,0,0,0,25-25V25A25,25,0,0,0,425,0ZM350,50h50v50H350ZM100,400H50V350h50Z"></path></symbol><symbol viewBox="0 0 450 450" id="hi-path-semi"><path d="M425,0H325a25,25,0,0,0-25,25v89.65L114.64,300H25A25,25,0,0,0,0,325V425a25,25,0,0,0,25,25H125a25,25,0,0,0,25-25V335.37L335.36,150H425a25,25,0,0,0,25-25V25A25,25,0,0,0,425,0ZM400,100H350V50h50Z"></path></symbol><symbol viewBox="0 0 450 450" id="hi-pause-fill">
  <g>
    <rect x="50" y="50" width="150" height="350" rx="25"></rect>
    <rect x="250" y="50" width="150" height="350" rx="25"></rect>
  </g>
</symbol><symbol viewBox="0 0 450 450" id="hi-pause-line">
  <g>
    <path d="M375,50H275a24.99624,24.99624,0,0,0-25,25V375a24.99624,24.99624,0,0,0,25,25H375a24.99624,24.99624,0,0,0,25-25V75A24.99624,24.99624,0,0,0,375,50ZM350,350H300V100h50Z"></path>
    <path d="M175,50H75A24.99627,24.99627,0,0,0,50,75V375a24.99627,24.99627,0,0,0,25,25H175a24.99624,24.99624,0,0,0,25-25V75A24.99624,24.99624,0,0,0,175,50ZM150,350H100V100h50Z"></path>
  </g>
</symbol><symbol viewBox="0 0 450 450" id="hi-pencil-fill"><path d="M215.4,109.61,7.33,317.68A25,25,0,0,0,0,335.37V425a25,25,0,0,0,25,25h89.64a25,25,0,0,0,17.68-7.32L340.4,234.61a12.48,12.48,0,0,0,0-17.67L233.08,109.61A12.51,12.51,0,0,0,215.4,109.61Z"></path><path d="M450,113.49a25.05,25.05,0,0,0-1.18-6.51c-.12-.37-.25-.74-.39-1.1s-.34-.88-.52-1.31a27.78,27.78,0,0,0-1.49-2.86A25.49,25.49,0,0,0,442.68,97h0L353,7.34h0a25,25,0,0,0-35.35,0L259.6,65.42a12.51,12.51,0,0,0,0,17.68L366.92,190.42a12.51,12.51,0,0,0,17.68,0l58.08-58.08A24.9,24.9,0,0,0,450,114.67C450,114.28,450,113.88,450,113.49Z"></path></symbol><symbol viewBox="0 0 450 450" id="hi-pencil-line"><path d="M450,113.47a25.05,25.05,0,0,0-1.18-6.51c-.12-.37-.25-.73-.39-1.1s-.34-.87-.52-1.3a26.79,26.79,0,0,0-1.49-2.86A24.85,24.85,0,0,0,442.68,97h0L353,7.33h0a25,25,0,0,0-35.35,0L7.32,317.68A25,25,0,0,0,0,335.36V425a25,25,0,0,0,25,25h89.64a25,25,0,0,0,17.68-7.32L362.5,212.5h0l80.18-80.18h0A24.91,24.91,0,0,0,450,113.47Zm-105.15,46-54.28-54.28,44.82-44.82,54.28,54.28ZM104.28,400H50V345.72L255.18,140.54l54.28,54.28Z"></path></symbol><symbol viewBox="0 0 450 450" id="hi-pencil-semi"><path d="M450,113.49a25.05,25.05,0,0,0-1.18-6.51c-.12-.37-.25-.74-.39-1.1s-.34-.88-.52-1.31a27.78,27.78,0,0,0-1.49-2.86A25.49,25.49,0,0,0,442.68,97h0L353,7.34h0a25,25,0,0,0-35.35,0L7.32,317.69A25,25,0,0,0,0,335.37V425a25,25,0,0,0,25,25h89.64a25,25,0,0,0,17.68-7.32L362.5,212.52h0l80.18-80.17A24.9,24.9,0,0,0,450,114.67C450,114.28,450,113.88,450,113.49ZM104.28,400H50V345.73L255.18,140.55l54.28,54.28Z"></path></symbol><symbol viewBox="0 0 450 450" id="hi-play-fill">
  <path d="M84.81974,42.87572,387.97591,202.20046a24.5,24.5,0,0,1,.1241,43.3089L84.94384,407.05812a24.5,24.5,0,0,1-36.0219-21.62161V64.563A24.5,24.5,0,0,1,84.81974,42.87572Z"></path>
</symbol><symbol viewBox="0 0 450 450" id="hi-play-line">
  <path d="M387.97124,202.19982,84.82122,42.88a24.49508,24.49508,0,0,0-35.9,21.68018V385.44005a24.50078,24.50078,0,0,0,36.02,21.62012L388.10113,245.50988A24.49875,24.49875,0,0,0,387.97124,202.19982Zm-289.05,140.75V106.77013l223.14,117.26953Z"></path>
</symbol><symbol viewBox="0 0 450 450" id="hi-plus-large-line">
  <path d="M375,200H250V75a25,25,0,0,0-50,0V200H75a25,25,0,0,0,0,50H200V375a25,25,0,0,0,50,0V250H375a25,25,0,0,0,0-50Z"></path>
</symbol><symbol viewBox="0 0 450 450" id="hi-plus-small-line">
  <path d="M350,200H250V100a25,25,0,0,0-25-25h0a25,25,0,0,0-25,25V200H100a25,25,0,0,0-25,25h0a25,25,0,0,0,25,25H200V350A25,25,0,0,0,225,375h0A25,25,0,0,0,250,350V250H350a25,25,0,0,0,25-25h0A25,25,0,0,0,350,200Z"></path>
</symbol><symbol viewBox="0 0 450 450" id="hi-polygon-lasso-line"><path d="M425,0H25A25,25,0,0,0,0,25V275a25,25,0,0,0,25,25h75v75a25,25,0,0,0,25,25H300v25a25,25,0,0,0,25,25h0a25,25,0,0,0,25-25V375a25,25,0,0,0-25-25H150V300H425a25,25,0,0,0,25-25V25A25,25,0,0,0,425,0ZM125,200h0a25,25,0,0,0-25,25v25H50V50H400V250H150V225A25,25,0,0,0,125,200Z"></path></symbol><symbol viewBox="0 0 450 450" id="hi-record-fill">
  <circle cx="225" cy="225" r="175"></circle>
</symbol><symbol viewBox="0 0 450 450" id="hi-record-line">
  <path d="M225,50A175,175,0,1,0,400,225,174.99991,174.99991,0,0,0,225,50Zm0,300A125,125,0,1,1,350,225,124.99431,124.99431,0,0,1,225,350Z"></path>
</symbol><symbol viewBox="0 0 450 450" id="hi-redo-line"><path d="M399,128.24a24.89,24.89,0,0,0-3.8-7.67,24.61,24.61,0,0,0-1.61-2c-.28-.32-.58-.63-.88-.93L322,47a25,25,0,0,0-35.36,0h0a25,25,0,0,0,0,35.35l28,28H200A149.83,149.83,0,0,0,50,261.91c.83,82.46,68.91,148.45,151.37,148.45H350a25,25,0,0,0,0-50H201.25c-55.14,0-100.84-44.11-101.25-99.25A100,100,0,0,1,200,160.36H314.64l-28,28a25,25,0,0,0,0,35.35h0a25,25,0,0,0,35.36,0L392.68,153c.3-.3.6-.61.88-.93a24.61,24.61,0,0,0,1.61-2,24.89,24.89,0,0,0,3.8-7.67A25.15,25.15,0,0,0,399,128.24Z"></path></symbol><symbol viewBox="0 0 450 450" id="hi-replace-selection-fill"><rect x="150" y="350.01" width="50" height="50" rx="12.5"></rect><rect x="250" y="350.01" width="50" height="50" rx="12.5"></rect><path d="M300,75V275a25,25,0,0,1-25,25H75a25,25,0,0,1-25-25V75A25,25,0,0,1,75,50H275A25,25,0,0,1,300,75Z"></path><path d="M400,362.51v25A12.5,12.5,0,0,1,387.5,400h-25a12.5,12.5,0,0,1-12.5-12.5v-25A12.5,12.5,0,0,1,362.5,350h25A12.5,12.5,0,0,1,400,362.51Z"></path><rect x="350" y="250.01" width="50" height="50" rx="12.5"></rect><rect x="350" y="150.01" width="50" height="50" rx="12.5"></rect></symbol><symbol viewBox="0 0 450 450" id="hi-replace-selection-line"><path d="M275,50H75A25,25,0,0,0,50,75V275a25,25,0,0,0,25,25H275a25,25,0,0,0,25-25V75A25,25,0,0,0,275,50Zm-25,50V250H100V100Z"></path><rect x="150" y="350" width="50" height="50" rx="12.5"></rect><rect x="250" y="350" width="50" height="50" rx="12.5"></rect><rect x="350" y="350" width="50" height="50" rx="12.5"></rect><rect x="350" y="250" width="50" height="50" rx="12.5"></rect><rect x="350" y="150" width="50" height="50" rx="12.5"></rect></symbol><symbol viewBox="0 0 450 450" id="hi-right-arrow-large-line">
  <path d="M145.45051,83.57864l0,0a25,25,0,0,0,0,35.35531L251.5165,225l-106.066,106.066a25,25,0,0,0,0,35.3553l0,0a25,25,0,0,0,35.35531,0L304.54953,242.67767a25,25,0,0,0,0-35.3553L180.80581,83.57864A25,25,0,0,0,145.45051,83.57864Z"></path>
</symbol><symbol viewBox="0 0 450 450" id="hi-right-arrow-small-line">
  <path d="M163.12818,118.934l0,0a25,25,0,0,0,0,35.3553L233.83883,225l-70.71068,70.71068a25,25,0,0,0,0,35.3553l0,0a25,25,0,0,0,35.35531,0l88.38836-88.38837a25,25,0,0,0,0-35.3553L198.48349,118.934A25,25,0,0,0,163.12818,118.934Z"></path>
</symbol><symbol viewBox="0 0 450 450" id="hi-rounded-square-fill"><rect width="450" height="450" rx="100"></rect></symbol><symbol viewBox="0 0 450 450" id="hi-rounded-square-line"><path d="M350,0H100A100,100,0,0,0,0,100V350A100,100,0,0,0,100,450H350A100,100,0,0,0,450,350V100A100,100,0,0,0,350,0Zm0,400H100a50,50,0,0,1-50-50V100a50,50,0,0,1,50-50H350a50,50,0,0,1,50,50V350A50,50,0,0,1,350,400Z"></path></symbol><symbol viewBox="0 0 450 450" id="hi-rounded-square-semi"><path d="M350,0H100A100,100,0,0,0,0,100V350A100,100,0,0,0,100,450H350A100,100,0,0,0,450,350V100A100,100,0,0,0,350,0ZM50,100a50,50,0,0,1,50-50H350a49.84,49.84,0,0,1,35.35,14.65L64.65,385.35A49.81,49.81,0,0,1,50,350Z"></path></symbol><symbol viewBox="0 0 450 450" id="hi-rounded-square-small-fill"><rect x="50" y="50" width="350" height="350" rx="100"></rect></symbol><symbol viewBox="0 0 450 450" id="hi-rounded-square-small-line"><path d="M300,50H150A100,100,0,0,0,50,150V300A100,100,0,0,0,150,400H300A100,100,0,0,0,400,300V150A100,100,0,0,0,300,50Zm0,300H150a50,50,0,0,1-50-50V150a50,50,0,0,1,50-50H300a50,50,0,0,1,50,50V300A50,50,0,0,1,300,350Z"></path></symbol><symbol viewBox="0 0 450 450" id="hi-rounded-square-small-semi"><path d="M300,50H150A100,100,0,0,0,50,150V300A100,100,0,0,0,150,400H300A100,100,0,0,0,400,300V150A100,100,0,0,0,300,50ZM100,150a50,50,0,0,1,50-50H300a49.84,49.84,0,0,1,35.35,14.65l-220.7,220.7A49.81,49.81,0,0,1,100,300Z"></path></symbol><symbol viewBox="0 0 450 450" id="hi-seek-backward-fill">
  <path d="M366.43332,59.512,238.69943,187.24585V73.80737c0-18.01123-21.77636-27.03125-34.512-14.29541L56.37692,207.32251a24.99987,24.99987,0,0,0,0,35.355L204.18747,390.488c12.7356,12.73584,34.512,3.71582,34.512-14.29541V262.75415L366.43332,390.488c12.73584,12.73584,34.512,3.71582,34.512-14.29541V73.80737C400.94528,55.79614,379.16916,46.77612,366.43332,59.512Z"></path>
</symbol><symbol viewBox="0 0 450 450" id="hi-seek-backward-line">
  <path d="M366.435,59.51,238.695,187.25024V73.80981c0-18.00976-21.77-27.02978-34.51-14.2998L56.375,207.32007a25.01107,25.01107,0,0,0,0,35.35986L204.185,390.49c12.74,12.73,34.51,3.71,34.51-14.2998V262.75024L366.435,390.49c12.73,12.73,34.51,3.71,34.51-14.2998V73.80981C400.945,55.80005,379.165,46.78,366.435,59.51ZM188.695,304.29028l-79.29-79.29,79.29-79.29Zm162.25,0-79.29-79.29,79.29-79.29Z"></path>
</symbol><symbol viewBox="0 0 450 450" id="hi-seek-end-fill">
  <path d="M400.54,75.54045V374.46037a25.54,25.54,0,1,1-51.08008,0V265.33049L85.98,402.16056a24.9941,24.9941,0,0,1-36.52-22.17968v-309.96a24.99561,24.99561,0,0,1,36.39-22.25L349.46,182.78068V75.54045a25.54,25.54,0,1,1,51.08008,0Z"></path>
</symbol><symbol viewBox="0 0 450 450" id="hi-seek-end-line">
  <path d="M375,50.00052h0a25.53831,25.53831,0,0,0-25.53809,25.53809V182.77738L85.85181,47.77054a24.99589,24.99589,0,0,0-36.3899,22.25V379.981a24.99408,24.99408,0,0,0,36.52,22.17969l263.48-136.83008V374.46244A25.538,25.538,0,0,0,375,400.00052h0a25.538,25.538,0,0,0,25.53809-25.53808V75.53861A25.53831,25.53831,0,0,0,375,50.00052ZM99.46191,338.82084V110.92045l220.95,113.16015Z"></path>
</symbol><symbol viewBox="0 0 450 450" id="hi-seek-forward-fill">
  <path d="M83.56668,59.512,211.30057,187.24585V73.80737c0-18.01123,21.77636-27.03125,34.512-14.29541L393.62308,207.32251a24.99987,24.99987,0,0,1,0,35.355L245.81253,390.488c-12.7356,12.73584-34.512,3.71582-34.512-14.29541V262.75415L83.56668,390.488c-12.73584,12.73584-34.512,3.71582-34.512-14.29541V73.80737C49.05472,55.79614,70.83084,46.77612,83.56668,59.512Z"></path>
</symbol><symbol viewBox="0 0 450 450" id="hi-seek-forward-line">
  <path d="M49.055,73.80981V376.19019c0,18.00976,21.78,27.02978,34.51,14.2998l127.74-127.73975V376.19019c0,18.00976,21.77,27.02978,34.51,14.2998L393.625,242.67993a25.01107,25.01107,0,0,0,0-35.35986L245.815,59.51c-12.74-12.73-34.51-3.71-34.51,14.2998V187.25024L83.565,59.51C70.835,46.78,49.055,55.80005,49.055,73.80981Zm212.25,71.9004,79.29,79.29-79.29,79.29Zm-162.25,0,79.29,79.29-79.29,79.29Z"></path>
</symbol><symbol viewBox="0 0 450 450" id="hi-seek-start-fill">
  <path d="M49.46,75.54045V374.46037a25.54,25.54,0,1,0,51.08008,0V265.33049L364.02,402.16056a24.9941,24.9941,0,0,0,36.52-22.17968v-309.96a24.99561,24.99561,0,0,0-36.39-22.25L100.54,182.78068V75.54045a25.54,25.54,0,1,0-51.08008,0Z"></path>
</symbol><symbol viewBox="0 0 450 450" id="hi-seek-start-line">
  <path d="M364.14819,47.77054,100.53809,182.77738V75.53861A25.53831,25.53831,0,0,0,75,50.00052h0A25.53831,25.53831,0,0,0,49.46191,75.53861V374.46244A25.538,25.538,0,0,0,75,400.00052h0a25.538,25.538,0,0,0,25.53809-25.53808V265.3306l263.48,136.83008a24.99408,24.99408,0,0,0,36.52-22.17969V70.02054A24.99589,24.99589,0,0,0,364.14819,47.77054Zm-13.6101,291.0503-220.95-114.74024,220.95-113.16015Z"></path>
</symbol><symbol viewBox="0 0 450 450" id="hi-settings-fill">
  <path d="M434.95819,270.81348,419.37,257.30005l-20.0094-17.35047C399.77783,235.00012,400,230.01636,400,225s-.22217-10.00012-.6394-14.94958L419.37,192.7l15.58819-13.51343a25,25,0,0,0,5.276-31.38794L429.92,129.92993,419.86,112.5,409.79,95.07007,399.47821,77.20569a24.99984,24.99984,0,0,0-29.82416-11.12854L350.16,72.82007l-25.01452,8.6477a173.97844,173.97844,0,0,0-25.9126-14.96569L294.22,40.52l-3.91559-20.26318A25,25,0,0,0,265.75848,0h-81.517a25,25,0,0,0-24.5459,20.25684L155.78,40.52l-5.01288,25.98206a173.97844,173.97844,0,0,0-25.9126,14.96569L99.84,72.82007,80.346,66.07715A24.9999,24.9999,0,0,0,50.52179,77.20569L40.21,95.07007l-6.79,11.76L20.08,129.92993,9.76581,147.79858a25,25,0,0,0,5.276,31.38794L30.63,192.7l20.0094,17.35047C50.22217,214.99988,50,219.98364,50,225s.22217,10.00012.6394,14.94958L30.63,257.30005,15.04187,270.81348a25,25,0,0,0-5.27606,31.38794L20.08,320.07l13.34,23.1,6.79,11.76,10.31177,17.86438A25.00007,25.00007,0,0,0,80.346,383.923L99.84,377.18l25.01458-8.6477a173.988,173.988,0,0,0,25.91254,14.96563L155.78,409.48l3.91559,20.26318A25,25,0,0,0,184.24152,450h81.517a25,25,0,0,0,24.5459-20.25684L294.22,409.48l5.01288-25.98206a173.988,173.988,0,0,0,25.91254-14.96563L350.16,377.18l19.49408,6.743a25,25,0,0,0,29.82416-11.1286L409.79,354.93l10.07-17.43,10.06-17.43,10.31421-17.86859A25,25,0,0,0,434.95819,270.81348ZM225,287.5A62.5,62.5,0,1,1,287.5,225,62.5,62.5,0,0,1,225,287.5Z"></path>
</symbol><symbol viewBox="0 0 450 450" id="hi-settings-line">
  <path d="M255.78564,50l10.56145,42.88569a25,25,0,0,0,11.77467,15.67247l21.1587,12.216a25,25,0,0,0,19.46025,2.361l42.42077-12.29652,30.78581,53.32253-31.85947,30.58927a25,25,0,0,0-7.68547,18.03358l.00009,24.432a25,25,0,0,0,7.68544,18.03337l31.85949,30.58937-30.78574,53.32244-42.42081-12.29642a24.99994,24.99994,0,0,0-19.46017,2.36094l-21.15882,12.216a25,25,0,0,0-11.77472,15.67257l-10.56128,42.88558L194.21432,400l-10.56145-42.88574a25,25,0,0,0-11.77467-15.67248l-21.15868-12.216a25,25,0,0,0-19.46026-2.361L88.83843,339.16133,58.05265,285.83881l31.85952-30.58927a25,25,0,0,0,7.68548-18.0335V212.784a25,25,0,0,0-7.68553-18.03354L58.05265,164.16138,88.8382,110.83883l42.421,12.29637a24.99994,24.99994,0,0,0,19.46011-2.361l21.15885-12.21607a25,25,0,0,0,11.77473-15.67257L194.21415,50h61.57149m0-50H194.214a49.99981,49.99981,0,0,0-48.54927,38.04365l0,.00017L137.651,70.58435l-1.35222.78064-1.35244.78088-32.18772-9.3302-.0001,0A49.99982,49.99982,0,0,0,45.537,85.83883l0,0L30.14415,112.50012,14.75132,139.16138l-.00016.00026a49.99983,49.99983,0,0,0,8.67224,61.06664l.00025.00024,24.174,23.21008v3.123l-24.174,23.2102-.0001.0001a49.99981,49.99981,0,0,0-8.6723,61.06674l.00007.00012,15.393,26.66137,15.39283,26.66114.00016.00027a49.99982,49.99982,0,0,0,57.22136,23.023l.00031-.00009,32.18759-9.33026,1.35224.78076,1.3523.78076,8.01371,32.54041,0,.00017A49.99981,49.99981,0,0,0,194.21413,450H255.786a49.99981,49.99981,0,0,0,48.54927-38.04367l0-.00015,8.01361-32.54041,2.70473-1.56158,32.18767,9.33014.00013,0A49.99983,49.99983,0,0,0,404.463,364.16123l0,0,15.39282-26.66137,15.39282-26.66114.00017-.00029a49.99982,49.99982,0,0,0-8.6721-61.06657l-.00022-.00021-24.17407-23.21033,0-3.12305,24.17392-23.21008.00012-.00011a49.99983,49.99983,0,0,0,8.67231-61.06673l-.0001-.00018-15.393-26.66125L404.46281,85.83862l-.00011-.0002a49.99981,49.99981,0,0,0-57.22142-23.023l-.0003.00008-32.18758,9.3302-1.35225-.78076-1.35229-.78076-8.01372-32.54041-4.6845-19.02194A25,25,0,0,0,275.37594,0ZM225,200a25,25,0,1,1-25,25,25,25,0,0,1,25-25m0-50a75,75,0,1,0,75,75,75.085,75.085,0,0,0-75-75Z"></path>
</symbol><symbol viewBox="0 0 450 450" id="hi-sparkles-line">
  <g>
    <path d="M161.937,100H150a12.5,12.5,0,0,1-12.5-12.5V75.563c0-14.01587-11.47009-25.82422-25.48346-25.55835A25,25,0,0,0,87.5,75V87.5A12.5,12.5,0,0,1,75,100H63.063c-14.01587,0-25.82416,11.47009-25.55841,25.4834A25.00018,25.00018,0,0,0,62.5,150H75a12.5,12.5,0,0,1,12.5,12.5v11.937c0,14.01587,11.47009,25.82422,25.48346,25.55835A25,25,0,0,0,137.5,175V162.5A12.5,12.5,0,0,1,150,150h12.5a25.00018,25.00018,0,0,0,24.99542-24.5166C187.76117,111.47006,175.95288,100,161.937,100Z"></path>
    <path d="M386.937,200H362.5a25,25,0,0,1-25-25V150.563c0-14.01587-11.47009-25.82422-25.48346-25.55835A25,25,0,0,0,287.5,150v25a25,25,0,0,1-25,25H238.063c-14.01587,0-25.82416,11.47009-25.55841,25.4834A25.00018,25.00018,0,0,0,237.5,250h25a25,25,0,0,1,25,25v24.437c0,14.01587,11.47009,25.82416,25.48346,25.55841A25.00013,25.00013,0,0,0,337.5,300V275a25,25,0,0,1,25-25h25a25.00018,25.00018,0,0,0,24.99542-24.5166C412.76117,211.47006,400.95288,200,386.937,200Z"></path>
    <path d="M161.937,300H150a12.5,12.5,0,0,1-12.5-12.5V275.563c0-14.01587-11.47009-25.82422-25.48346-25.55835A25,25,0,0,0,87.5,275v12.5A12.5,12.5,0,0,1,75,300H63.063c-14.01587,0-25.82416,11.47009-25.55841,25.48346A25.00013,25.00013,0,0,0,62.5,350H75a12.5,12.5,0,0,1,12.5,12.5v11.937c0,14.01587,11.47009,25.82416,25.48346,25.55841A25.00013,25.00013,0,0,0,137.5,375V362.5A12.5,12.5,0,0,1,150,350h12.5a25.00013,25.00013,0,0,0,24.99542-24.51654C187.76117,311.47006,175.95288,300,161.937,300Z"></path>
  </g>
</symbol><symbol viewBox="0 0 450 450" id="hi-spray-fill"><path d="M275,75H250V25A25,25,0,0,0,225,0H75A25,25,0,0,0,50,25v87.5A12.5,12.5,0,0,0,62.5,125H274.44c14,0,25.81-11.46,25.56-25.46A25,25,0,0,0,275,75Z"></path><path d="M300,210.37V425a25,25,0,0,1-25,25H25A25,25,0,0,1,0,425V210.37a25,25,0,0,1,7.33-17.69l26.51-26.51a12.5,12.5,0,0,1,8.84-3.66H257.32a12.5,12.5,0,0,1,8.84,3.66l26.51,26.51A25,25,0,0,1,300,210.37Z"></path><circle cx="350" cy="100.01" r="25"></circle><circle cx="425" cy="150.01" r="25"></circle><circle cx="425" cy="50.01" r="25"></circle></symbol><symbol viewBox="0 0 450 450" id="hi-spray-line"><path d="M275,125a25,25,0,0,0,0-50H250V25A25,25,0,0,0,225,0H75A25,25,0,0,0,50,25V150L7.32,192.68A25,25,0,0,0,0,210.36V425a25,25,0,0,0,25,25H275a25,25,0,0,0,25-25V210.36a25,25,0,0,0-7.32-17.68L250,150V125ZM200,50v70.71H100V50ZM100,170.71H200l50,50V275H50V220.72ZM50,325H250v75H50Z"></path><circle cx="350" cy="100" r="25"></circle><circle cx="425" cy="150" r="25"></circle><circle cx="425" cy="50" r="25"></circle></symbol><symbol viewBox="0 0 450 450" id="hi-spray-semi"><path d="M250,150V125h25a25,25,0,0,0,0-50H250V25A25,25,0,0,0,225,0H75A25,25,0,0,0,50,25V150L7.32,192.69A25,25,0,0,0,0,210.37V425a25,25,0,0,0,25,25H275a25,25,0,0,0,25-25V210.37a25,25,0,0,0-7.32-17.68ZM100,50H200v70.71H100ZM250,275H50V220.73l50-50H200l50,50Z"></path><circle cx="350" cy="100.01" r="25"></circle><circle cx="425" cy="150.01" r="25"></circle><circle cx="425" cy="50.01" r="25"></circle></symbol><symbol viewBox="0 0 450 450" id="hi-square-fill"><path d="M450,25V425a25,25,0,0,1-25,25H25A25,25,0,0,1,0,425V25A25,25,0,0,1,25,0H425A25,25,0,0,1,450,25Z"></path></symbol><symbol viewBox="0 0 450 450" id="hi-square-line"><path d="M0,25V425a25,25,0,0,0,25,25H425a25,25,0,0,0,25-25V25A25,25,0,0,0,425,0H25A25,25,0,0,0,0,25ZM400,400H50V50H400Z"></path></symbol><symbol viewBox="0 0 450 450" id="hi-square-semi"><path d="M425,0H25A25,25,0,0,0,0,25V425a25,25,0,0,0,25,25H425a25,25,0,0,0,25-25V25A25,25,0,0,0,425,0ZM50,400V50H400Z"></path></symbol><symbol viewBox="0 0 450 450" id="hi-square-small-fill"><path d="M400,75V375a25,25,0,0,1-25,25H75a25,25,0,0,1-25-25V75A25,25,0,0,1,75,50H375A25,25,0,0,1,400,75Z"></path></symbol><symbol viewBox="0 0 450 450" id="hi-square-small-line"><path d="M50,75V375a25,25,0,0,0,25,25H375a25,25,0,0,0,25-25V75a25,25,0,0,0-25-25H75A25,25,0,0,0,50,75ZM350,350H100V100H350Z"></path></symbol><symbol viewBox="0 0 450 450" id="hi-square-small-semi"><path d="M375,50H75A25,25,0,0,0,50,75V375a25,25,0,0,0,25,25H375a25,25,0,0,0,25-25V75A25,25,0,0,0,375,50ZM100,350V100H350Z"></path></symbol><symbol viewBox="0 0 450 450" id="hi-star-fill"><path d="M415.53,204,338.4,279.23l18.21,106.15a25,25,0,0,1-36.27,26.36L225,361.62l-95.34,50.12a25,25,0,0,1-36.27-26.36L111.6,279.23,34.47,204A25,25,0,0,1,48.32,161.4l106.59-15.49,47.67-96.58a25,25,0,0,1,44.84,0l47.67,96.58L401.68,161.4A25,25,0,0,1,415.53,204Z"></path></symbol><symbol viewBox="0 0 450 450" id="hi-star-line"><path d="M332,414.61a25,25,0,0,1-11.63-2.87L225,361.62l-95.34,50.12a25,25,0,0,1-36.27-26.36L111.6,279.23,34.47,204A25,25,0,0,1,48.32,161.4l106.59-15.49,47.67-96.58a25,25,0,0,1,44.84,0l47.67,96.58L401.68,161.4A25,25,0,0,1,415.53,204L338.4,279.23l18.21,106.15A25,25,0,0,1,332,414.61ZM225,308.37a25,25,0,0,1,11.63,2.87l62.14,32.67L286.9,274.72a25,25,0,0,1,7.19-22.12l50.27-49-69.47-10.1a25,25,0,0,1-18.82-13.67l-31.07-63-31.07,63a25,25,0,0,1-18.82,13.67l-69.47,10.1,50.27,49a25,25,0,0,1,7.19,22.12l-11.87,69.19,62.14-32.67A25,25,0,0,1,225,308.37Z"></path></symbol><symbol viewBox="0 0 450 450" id="hi-star-semi"><path d="M421.86,178.42a25,25,0,0,0-20.18-17L295.09,145.91,247.42,49.33a25,25,0,0,0-44.84,0l-47.67,96.58L48.32,161.4A25,25,0,0,0,34.47,204l77.13,75.19L93.39,385.38a25,25,0,0,0,36.27,26.36L225,361.62l95.34,50.12a25,25,0,0,0,36.27-26.36L338.4,279.23,415.53,204A25,25,0,0,0,421.86,178.42ZM294.09,252.6a25,25,0,0,0-7.19,22.12l11.87,69.19L225,305.13V116.88l31.07,63a25,25,0,0,0,18.82,13.67l69.47,10.1Z"></path></symbol><symbol viewBox="0 0 450 450" id="hi-stop-fill">
  <rect x="50" y="50" width="350" height="350" rx="25"></rect>
</symbol><symbol viewBox="0 0 450 450" id="hi-stop-line">
  <path d="M375,50H75A24.99624,24.99624,0,0,0,50,75V375a24.99624,24.99624,0,0,0,25,25H375a24.99624,24.99624,0,0,0,25-25V75A24.99624,24.99624,0,0,0,375,50ZM350,350H100V100H350Z"></path>
</symbol><symbol viewBox="0 0 450 450" id="hi-subtract-selection-fill"><rect x="50" y="50.01" width="50" height="50" rx="12.5"></rect><rect x="250" y="50.01" width="50" height="50" rx="12.5"></rect><rect x="50" y="250.01" width="50" height="50" rx="12.5"></rect><rect x="50" y="150.01" width="50" height="50" rx="12.5"></rect><path d="M400,175V375a25,25,0,0,1-25,25H175a25,25,0,0,1-25-25V275a25,25,0,0,1,25-25h75V175a25,25,0,0,1,25-25H375A25,25,0,0,1,400,175Z"></path><path d="M150,87.51v-25A12.5,12.5,0,0,1,162.5,50h25A12.5,12.5,0,0,1,200,62.51v25A12.5,12.5,0,0,1,187.5,100h-25A12.5,12.5,0,0,1,150,87.51Z"></path></symbol><symbol viewBox="0 0 450 450" id="hi-subtract-selection-line"><rect x="50" y="50" width="50" height="50" rx="12.5"></rect><rect x="150" y="50" width="50" height="50" rx="12.5"></rect><rect x="250" y="50" width="50" height="50" rx="12.5"></rect><rect x="50" y="250" width="50" height="50" rx="12.5"></rect><rect x="50" y="150" width="50" height="50" rx="12.5"></rect><path d="M375,150H275a25,25,0,0,0-25,25v75H175a25,25,0,0,0-25,25V375a25,25,0,0,0,25,25H375a25,25,0,0,0,25-25V175A25,25,0,0,0,375,150ZM275,300a25,25,0,0,0,25-25V200h50V350H200V300Z"></path></symbol><symbol viewBox="0 0 450 450" id="hi-trash-fill"><path d="M425,100H350V25A25,25,0,0,0,325,0H125a25,25,0,0,0-25,25v75H25a25,25,0,0,0,0,50H425a25,25,0,1,0,0-50Zm-125,0H150V50H300Z"></path><path d="M387.5,187.5H62.5A12.5,12.5,0,0,0,50,200V425a25,25,0,0,0,25,25H375a25,25,0,0,0,25-25V200A12.5,12.5,0,0,0,387.5,187.5ZM200,368.75a25,25,0,0,1-50,0v-100a25,25,0,0,1,50,0Zm100,0a25,25,0,0,1-50,0v-100a25,25,0,0,1,50,0Z"></path></symbol><symbol viewBox="0 0 450 450" id="hi-trash-line"><path d="M425,100H350V25A25,25,0,0,0,325,0H125a25,25,0,0,0-25,25v75H25a25,25,0,0,0,0,50H50V425a25,25,0,0,0,25,25H375a25,25,0,0,0,25-25V150h25a25,25,0,0,0,0-50ZM150,50H300v50H150ZM350,400H100V150H350Z"></path><path d="M175,200h0a25,25,0,0,0-25,25V325a25,25,0,0,0,25,25h0a25,25,0,0,0,25-25V225A25,25,0,0,0,175,200Z"></path><path d="M275,200h0a25,25,0,0,0-25,25V325a25,25,0,0,0,25,25h0a25,25,0,0,0,25-25V225A25,25,0,0,0,275,200Z"></path></symbol><symbol viewBox="0 0 450 450" id="hi-type-tool-line"><path d="M375,50H75A25,25,0,0,0,50,75v50a25,25,0,0,0,50,0V100H200V350H175a25,25,0,0,0,0,50H275a25,25,0,0,0,0-50H250V100H350v25a25,25,0,0,0,50,0V75A25,25,0,0,0,375,50Z"></path></symbol><symbol viewBox="0 0 450 450" id="hi-ui-line">
  <path d="M350,25H100A99.99807,99.99807,0,0,0,0,125V325A99.99807,99.99807,0,0,0,100,425H350A99.99807,99.99807,0,0,0,450,325V125A99.99807,99.99807,0,0,0,350,25Zm50,300a50,50,0,0,1-50,50H100a50,50,0,0,1-50-50V175a25,25,0,0,1,25-25H375a25,25,0,0,1,25,25Z"></path>
</symbol><symbol viewBox="0 0 450 450" id="hi-undo-line"><path d="M300,118.89a150,150,0,0,0-50-8.53H135.36l28-28a25,25,0,0,0,0-35.35h0A25,25,0,0,0,128,47L57.32,117.68c-.3.3-.6.61-.88.93a24.13,24.13,0,0,0-4.12,6.22,24.15,24.15,0,0,0-.92,2.25c-.27.77-.49,1.54-.69,2.32a23.58,23.58,0,0,0-.45,2.37,23.86,23.86,0,0,0-.23,2.39q0,.6,0,1.2c0,.4,0,.8,0,1.19a23.86,23.86,0,0,0,.23,2.39,23.58,23.58,0,0,0,.45,2.37c.2.78.42,1.55.69,2.32a24.15,24.15,0,0,0,.92,2.25,24.13,24.13,0,0,0,4.12,6.22c.28.32.58.63.88.93L128,223.74a25,25,0,0,0,35.36,0h0a25,25,0,0,0,0-35.35l-28-28H250A100,100,0,0,1,350,261.11c-.41,55.14-46.11,99.25-101.25,99.25H100a25,25,0,0,0,0,50H248.62c82.46,0,150.54-66,151.37-148.45A150.07,150.07,0,0,0,300,118.89Z"></path></symbol><symbol viewBox="0 0 450 450" id="hi-up-arrow-large-line">
  <path d="M83.57864,304.54949l0,0a25,25,0,0,0,35.35531,0L225,198.4835l106.066,106.066a25,25,0,0,0,35.3553,0l0,0a25,25,0,0,0,0-35.35531L242.67767,145.45047a25,25,0,0,0-35.3553,0L83.57864,269.19419A25,25,0,0,0,83.57864,304.54949Z"></path>
</symbol><symbol viewBox="0 0 450 450" id="hi-up-arrow-small-line">
  <path d="M118.934,286.87182l0,0a25,25,0,0,0,35.3553,0L225,216.16117l70.71068,70.71068a25,25,0,0,0,35.3553,0l0,0a25,25,0,0,0,0-35.35531l-88.38837-88.38836a25,25,0,0,0-35.3553,0L118.934,251.51651A25,25,0,0,0,118.934,286.87182Z"></path>
</symbol><symbol viewBox="0 0 450 450" id="hi-x-large-line">
  <path d="M260.35535,225.00008l106.066-106.066A25,25,0,0,0,331.066,83.57869L225,189.64461,118.934,83.57869a24.99988,24.99988,0,0,0-35.35535,0h0a25.0001,25.0001,0,0,0,0,35.35535l106.066,106.066-106.066,106.066a25,25,0,0,0,0,35.35528v.00006a25.0001,25.0001,0,0,0,35.35535,0L225,260.35536l106.066,106.066a25.00009,25.00009,0,0,0,35.35534,0v-.00006a24.99989,24.99989,0,0,0,0-35.35528Z"></path>
</symbol><symbol viewBox="0 0 450 450" id="hi-x-small-line">
  <path d="M331.066,295.71068,260.35534,225,331.066,154.28932a25,25,0,0,0,0-35.35534h0a25,25,0,0,0-35.35534,0L225,189.64466,154.28932,118.934a25,25,0,0,0-35.35534,0h0a25,25,0,0,0,0,35.35534L189.64466,225,118.934,295.71068A25,25,0,0,0,118.934,331.066h0a25,25,0,0,0,35.35529,0L225,260.35534,295.71068,331.066a25,25,0,0,0,35.35534,0h0A25,25,0,0,0,331.066,295.71068Z"></path>
</symbol><symbol viewBox="0 0 450 450" id="hi-zoom-fill"><path d="M442.68,442.68a25,25,0,0,1-35.36,0L322.63,358A199.07,199.07,0,0,1,200,400C89.54,400,0,310.46,0,200S89.54,0,200,0,400,89.54,400,200a199.07,199.07,0,0,1-42,122.63l84.69,84.69A25,25,0,0,1,442.68,442.68Z"></path></symbol><symbol viewBox="0 0 450 450" id="hi-zoom-line"><path d="M442.68,407.32,358,322.63A199.07,199.07,0,0,0,400,200C400,89.54,310.46,0,200,0S0,89.54,0,200,89.54,400,200,400a199.07,199.07,0,0,0,122.63-42l84.69,84.69a25,25,0,0,0,35.36-35.36ZM50,200A150,150,0,1,1,200,350,150,150,0,0,1,50,200Z"></path></symbol></svg>