<svg xmlns="http://www.w3.org/2000/svg" xmlns:xlink="http://www.w3.org/1999/xlink" width="0" height="0" style="display:none;"><symbol viewBox="0 0 450 450" id="hi-add-selection-fill"><path d="M400,175V375a25,25,0,0,1-25,25H175a25,25,0,0,1-25-25V300H75a25,25,0,0,1-25-25V75A25,25,0,0,1,75,50H275a25,25,0,0,1,25,25v75h75A25,25,0,0,1,400,175Z"></path></symbol><symbol viewBox="0 0 450 450" id="hi-add-selection-line"><path d="M375,150H300V75a25,25,0,0,0-25-25H75A25,25,0,0,0,50,75V275a25,25,0,0,0,25,25h75v75a25,25,0,0,0,25,25H375a25,25,0,0,0,25-25V175A25,25,0,0,0,375,150ZM200,275a25,25,0,0,0-25-25H100V100H250v75a25,25,0,0,0,25,25h75V350H200Z"></path></symbol><symbol viewBox="0 0 450 450" id="hi-circle-fill"><circle cx="225" cy="225.01" r="225"></circle></symbol><symbol viewBox="0 0 450 450" id="hi-circle-line"><path d="M225,0C100.74,0,0,100.74,0,225S100.74,450,225,450,450,349.26,450,225,349.26,0,225,0Zm0,400A175,175,0,1,1,400,225,175,175,0,0,1,225,400Z"></path></symbol><symbol viewBox="0 0 450 450" id="hi-circle-marquee-line"><path d="M81.1,52A225.69,225.69,0,0,0,52,81.11a24.73,24.73,0,0,0,5.76,36.58l.38.24A24.88,24.88,0,0,0,90.7,112.8a176.1,176.1,0,0,1,22.1-22.1,24.87,24.87,0,0,0,5.13-32.53l-.24-.38A24.74,24.74,0,0,0,81.1,52Zm251.21,5.77-.24.38A24.87,24.87,0,0,0,337.2,90.7a176.1,176.1,0,0,1,22.1,22.1,24.88,24.88,0,0,0,32.53,5.13l.38-.24A24.73,24.73,0,0,0,398,81.11,225.69,225.69,0,0,0,368.9,52,24.74,24.74,0,0,0,332.31,57.79ZM412,157.69l-.43.15a24.79,24.79,0,0,0-15.77,28.78,176.64,176.64,0,0,1,0,76.76,24.79,24.79,0,0,0,15.77,28.78l.43.15a24.8,24.8,0,0,0,32.59-18,226.88,226.88,0,0,0,0-98.68A24.8,24.8,0,0,0,412,157.69ZM292.15,411.55a24.78,24.78,0,0,0-28.76-15.77,176.73,176.73,0,0,1-76.78,0,24.79,24.79,0,0,0-28.77,15.77l-.15.43a24.81,24.81,0,0,0,18,32.6,227.29,227.29,0,0,0,98.68,0,24.81,24.81,0,0,0,18-32.6Zm-234-79.48-.38.24A24.73,24.73,0,0,0,52,368.89,225.69,225.69,0,0,0,81.1,398a24.74,24.74,0,0,0,36.59-5.77l.24-.38a24.87,24.87,0,0,0-5.13-32.53,176.1,176.1,0,0,1-22.1-22.1A24.88,24.88,0,0,0,58.17,332.07ZM359.3,337.2a176.1,176.1,0,0,1-22.1,22.1,24.87,24.87,0,0,0-5.13,32.53l.24.38A24.74,24.74,0,0,0,368.9,398,225.69,225.69,0,0,0,398,368.89a24.73,24.73,0,0,0-5.76-36.58l-.38-.24A24.88,24.88,0,0,0,359.3,337.2ZM225,0a225.94,225.94,0,0,0-49.34,5.42,24.81,24.81,0,0,0-18,32.6l.15.43a24.79,24.79,0,0,0,28.77,15.77,176.73,176.73,0,0,1,76.78,0,24.78,24.78,0,0,0,28.76-15.77l.16-.43a24.81,24.81,0,0,0-18-32.6A225.94,225.94,0,0,0,225,0ZM38.45,157.84l-.43-.15a24.81,24.81,0,0,0-32.6,18,227.29,227.29,0,0,0,0,98.68,24.81,24.81,0,0,0,32.6,18l.43-.15a24.79,24.79,0,0,0,15.77-28.78,176.64,176.64,0,0,1,0-76.76A24.79,24.79,0,0,0,38.45,157.84Z"></path></symbol><symbol viewBox="0 0 450 450" id="hi-circle-semi"><path d="M225,0C100.74,0,0,100.75,0,225S100.74,450,225,450,450,349.27,450,225,349.26,0,225,0ZM50,225A175,175,0,0,1,348.74,101.27L101.26,348.76A174.46,174.46,0,0,1,50,225Z"></path></symbol><symbol viewBox="0 0 450 450" id="hi-circle-small-fill"><circle cx="225" cy="225.01" r="175"></circle></symbol><symbol viewBox="0 0 450 450" id="hi-circle-small-line"><path d="M225,50A175,175,0,1,0,400,225,175,175,0,0,0,225,50Zm0,300A125,125,0,1,1,350,225,125,125,0,0,1,225,350Z"></path></symbol><symbol viewBox="0 0 450 450" id="hi-circle-small-semi"><path d="M225,50A175,175,0,1,0,400,225,175,175,0,0,0,225,50ZM100,225a125,125,0,0,1,213.39-88.39L136.61,313.4A124.61,124.61,0,0,1,100,225Z"></path></symbol><symbol viewBox="0 0 450 450" id="hi-cursor-1-line"><path d="M250,450a25,25,0,0,1-22.58-14.27L158.76,291.24,14.27,222.58A25,25,0,0,1,15,177.1L415,2.1A25,25,0,0,1,447.9,35l-175,400a25,25,0,0,1-22.51,15ZM85.22,200.94l103,49a25,25,0,0,1,11.85,11.85l49,103L376.49,73.51Z"></path></symbol><symbol viewBox="0 0 450 450" id="hi-cursor-2-fill"><path d="M447.9,35l-175,400a25,25,0,0,1-22.51,15H250a25,25,0,0,1-22.58-14.27l-34.49-72.58L128,428a25,25,0,0,1-35.36,0L22,357.32A25,25,0,0,1,22,322l64.89-64.89L14.27,222.58A25,25,0,0,1,15,177.1L415,2.1A25,25,0,0,1,447.9,35Z"></path></symbol><symbol viewBox="0 0 450 450" id="hi-cursor-2-fill_1"><path d="M447.9,35l-175,400a25,25,0,0,1-22.51,15H250a25,25,0,0,1-22.58-14.27L158.76,291.24,14.27,222.58A25,25,0,0,1,15,177.1L415,2.1A25,25,0,0,1,447.9,35Z"></path></symbol><symbol viewBox="0 0 450 450" id="hi-cursor-2-line"><path d="M250,450a25,25,0,0,1-22.58-14.27l-34.49-72.58L128,428a25,25,0,0,1-35.36,0L22,357.32A25,25,0,0,1,22,322l64.89-64.89L14.27,222.58A25,25,0,0,1,15,177.1L415,2.1A25,25,0,0,1,447.9,35l-175,400a25,25,0,0,1-22.51,15ZM75,339.64,110.36,375l72.26-72.26a25,25,0,0,1,40.26,6.95l26.18,55.09L376.49,73.51,85.22,200.94l55.09,26.18a25,25,0,0,1,6.95,40.26Z"></path></symbol><symbol viewBox="0 0 450 450" id="hi-curve-line"><path d="M425,0H375a25,25,0,0,0-25,25V75a25,25,0,0,0,25,25A100,100,0,0,1,275,200a25,25,0,0,0-25-25H200a25,25,0,0,0-25,25A150,150,0,0,0,25,350,25,25,0,0,0,0,375v50a25,25,0,0,0,25,25H75a25,25,0,0,0,25-25V375a25,25,0,0,0-25-25h0A100,100,0,0,1,175,250a25,25,0,0,0,25,25h50a25,25,0,0,0,25-25A150,150,0,0,0,425,100h0a25,25,0,0,0,25-25V25A25,25,0,0,0,425,0Z"></path></symbol><symbol viewBox="0 0 450 450" id="hi-eraser-fill"><path d="M115.4,141.92a12.51,12.51,0,0,0-17.68,0l-90.4,90.4a25,25,0,0,0,0,35.39l175,175a25,25,0,0,0,35.37,0l90.4-90.4a12.49,12.49,0,0,0,0-17.68Z"></path><path d="M442.68,182.32l-175-175h0a25,25,0,0,0-35.36,0L141.91,97.73a12.49,12.49,0,0,0,0,17.67L334.6,308.09a12.51,12.51,0,0,0,17.68,0l90.4-90.4a25,25,0,0,0,0-35.37Z"></path></symbol><symbol viewBox="0 0 450 450" id="hi-eraser-line"><path d="M442.68,182.31l-175-175h0a25,25,0,0,0-35.36,0l-225,225a25,25,0,0,0,0,35.38l175,175a25,25,0,0,0,35.37,0l225-225a25,25,0,0,0,0-35.37ZM312.5,277.14,172.85,137.49,250,60.34,389.65,200ZM200,389.65,60.34,250l77.15-77.15L277.14,312.5Z"></path></symbol><symbol viewBox="0 0 450 450" id="hi-eraser-semi"><path d="M442.68,182.32l-175-175h0a25,25,0,0,0-35.36,0l-225,225a25,25,0,0,0,0,35.39l175,175a25,25,0,0,0,35.37,0l225-225a25,25,0,0,0,0-35.37ZM200,389.67,60.34,250l77.15-77.15L277.14,312.51Z"></path></symbol><symbol viewBox="0 0 450 450" id="hi-eye-crossed-line"><path d="M252.82,341.21a12.57,12.57,0,0,0-10.22-3.58,168.2,168.2,0,0,1-17.6.92A164,164,0,0,1,93.82,273.77L56.48,225l28.09-36.69a12.49,12.49,0,0,0-1.08-16.43L65.66,154.05a12.5,12.5,0,0,0-18.76,1.24L5.15,209.8a25,25,0,0,0,0,30.4l49,64c43.07,56.26,107,84.39,170.88,84.39a217.24,217.24,0,0,0,43.28-4.35,12.51,12.51,0,0,0,6.43-21.1Z"></path><path d="M444.85,209.8l-49-64C352.81,89.58,288.9,61.45,225,61.45a217.24,217.24,0,0,0-43.28,4.35,12.51,12.51,0,0,0-6.43,21.1l21.89,21.89a12.57,12.57,0,0,0,10.22,3.58,168.2,168.2,0,0,1,17.6-.92,164,164,0,0,1,131.18,64.78L393.52,225l-28.09,36.69a12.49,12.49,0,0,0,1.08,16.43L384.34,296a12.5,12.5,0,0,0,18.76-1.24l41.75-54.51A25,25,0,0,0,444.85,209.8Z"></path><path d="M83.58,48.22a25,25,0,0,0-35.36,0h0a25,25,0,0,0,0,35.36l318.2,318.2a25,25,0,0,0,35.36,0h0a25,25,0,0,0,0-35.36Z"></path></symbol><symbol viewBox="0 0 450 450" id="hi-eye-line"><path d="M444.85,209.8l-49-64C352.81,89.58,288.9,61.45,225,61.45S97.19,89.58,54.12,145.84l-49,64a25,25,0,0,0,0,30.4l49,64c43.07,56.26,107,84.39,170.88,84.39s127.81-28.13,170.88-84.39l49-64A25,25,0,0,0,444.85,209.8Zm-88.67,64a165.2,165.2,0,0,1-262.36,0L56.48,225l37.34-48.76a165.2,165.2,0,0,1,262.36,0L393.52,225Z"></path><path d="M225,150a75,75,0,1,0,75,75A75,75,0,0,0,225,150Zm0,100a25,25,0,1,1,25-25A25,25,0,0,1,225,250Z"></path></symbol><symbol viewBox="0 0 450 450" id="hi-eyedropper-fill"><path d="M442.68,132.34l-62.5,62.5L400,214.66A25,25,0,0,1,364.64,250L200,85.37A25,25,0,0,1,235.36,50l19.82,19.83,62.5-62.5c.61-.61,1.24-1.18,1.9-1.72.32-.27.66-.52,1-.77a24.83,24.83,0,0,1,2.08-1.37c.71-.42,1.44-.8,2.18-1.15a24.06,24.06,0,0,1,2.25-.91,25.11,25.11,0,0,1,16.55,0c.38.13.76.27,1.13.43a23.4,23.4,0,0,1,3.7,1.88c.57.35,1.13.72,1.68,1.12.33.25.67.5,1,.77.66.54,1.29,1.11,1.9,1.72L442.68,97a25,25,0,0,1,0,35.36Z"></path><path d="M300.63,239a25,25,0,0,1,0,35.36L132.32,442.69A25,25,0,0,1,114.64,450H25A25,25,0,0,1,0,425V335.37a25,25,0,0,1,7.32-17.68l168.31-168.3a24.77,24.77,0,0,1,7.15-5,23.18,23.18,0,0,1,2.26-.91c.38-.14.76-.26,1.15-.38s.91-.25,1.38-.36c.71-.16,1.43-.3,2.15-.41a24.85,24.85,0,0,1,7.17,0c.8.12,1.59.27,2.37.46s1.55.42,2.32.69a24.73,24.73,0,0,1,5.48,2.71,25.24,25.24,0,0,1,3.92,3.21h0L300.62,239Z"></path></symbol><symbol viewBox="0 0 450 450" id="hi-eyedropper-line"><path d="M300.62,239,211,149.38h0a25,25,0,0,0-9.4-5.92c-.77-.27-1.54-.49-2.32-.69a23.58,23.58,0,0,0-2.37-.45,24.85,24.85,0,0,0-7.17,0c-.72.1-1.44.24-2.15.41-.47.11-.93.22-1.38.36s-.77.24-1.15.37a23.25,23.25,0,0,0-2.26.92,24.93,24.93,0,0,0-7.15,5h0L7.32,317.68A25,25,0,0,0,0,335.36V425a25,25,0,0,0,25,25h89.64a25,25,0,0,0,17.68-7.32L300.63,274.37h0a25,25,0,0,0,0-35.35ZM104.28,400H50V345.72L193.31,202.41l54.28,54.28Z"></path><path d="M442.68,97h0L353,7.32a23.46,23.46,0,0,0-1.9-1.71c-.32-.27-.66-.53-1-.78-.55-.4-1.11-.77-1.68-1.12a25.23,25.23,0,0,0-3.7-1.88l-1.13-.43a25.11,25.11,0,0,0-16.55,0,24.15,24.15,0,0,0-2.25.92,23.81,23.81,0,0,0-2.18,1.14c-.71.42-1.4.88-2.08,1.37-.33.25-.67.51-1,.78a23.46,23.46,0,0,0-1.9,1.71l-62.5,62.5L235.36,50A25,25,0,0,0,200,50h0a25,25,0,0,0,0,35.36L364.64,250A25,25,0,0,0,400,214.64l-19.82-19.82,62.5-62.5h0A25,25,0,0,0,442.68,97Zm-152.15,8.21,44.83-44.82,54.28,54.28-44.82,44.83Z"></path></symbol><symbol viewBox="0 0 450 450" id="hi-eyedropper-semi"><path d="M300.62,239,211,149.39h0a25.24,25.24,0,0,0-3.92-3.21,24.73,24.73,0,0,0-5.48-2.71c-.77-.27-1.54-.5-2.32-.69s-1.57-.34-2.37-.46a24.85,24.85,0,0,0-7.17,0c-.72.11-1.44.25-2.15.41q-.7.17-1.38.36c-.39.12-.77.24-1.15.38a23.18,23.18,0,0,0-2.26.91,24.77,24.77,0,0,0-7.15,5h0L7.32,317.69A25,25,0,0,0,0,335.37V425a25,25,0,0,0,25,25h89.64a25,25,0,0,0,17.68-7.32l168.31-168.3h0a25,25,0,0,0,0-35.36ZM104.28,400H50V345.73L193.31,202.42l54.28,54.28Z"></path><path d="M442.68,132.34l-62.5,62.5L400,214.66A25,25,0,0,1,364.64,250L200,85.37A25,25,0,0,1,235.36,50l19.82,19.83,62.5-62.5c.61-.61,1.24-1.18,1.9-1.72.32-.27.66-.52,1-.77a24.83,24.83,0,0,1,2.08-1.37c.71-.42,1.44-.8,2.18-1.15a24.06,24.06,0,0,1,2.25-.91,25.11,25.11,0,0,1,16.55,0c.38.13.76.27,1.13.43a23.4,23.4,0,0,1,3.7,1.88c.57.35,1.13.72,1.68,1.12.33.25.67.5,1,.77.66.54,1.29,1.11,1.9,1.72L442.68,97a25,25,0,0,1,0,35.36Z"></path></symbol><symbol viewBox="0 0 450 450" id="hi-intersect-selection-fill"><rect x="150" y="350.01" width="50" height="50" rx="12.5"></rect><rect x="250" y="350.01" width="50" height="50" rx="12.5"></rect><rect x="350" y="350.01" width="50" height="50" rx="12.5"></rect><rect x="50" y="50.01" width="50" height="50" rx="12.5"></rect><path d="M300,175V275a25,25,0,0,1-25,25H175a25,25,0,0,1-25-25V175a25,25,0,0,1,25-25H275A25,25,0,0,1,300,175Z"></path><path d="M150,87.51v-25A12.5,12.5,0,0,1,162.5,50h25A12.5,12.5,0,0,1,200,62.51v25A12.5,12.5,0,0,1,187.5,100h-25A12.5,12.5,0,0,1,150,87.51Z"></path><path d="M300,62.51v25A12.5,12.5,0,0,1,287.5,100h-25A12.5,12.5,0,0,1,250,87.51v-25A12.5,12.5,0,0,1,262.5,50h25A12.5,12.5,0,0,1,300,62.51Z"></path><rect x="350" y="250.01" width="50" height="50" rx="12.5"></rect><rect x="350" y="150.01" width="50" height="50" rx="12.5"></rect><rect x="50" y="250.01" width="50" height="50" rx="12.5"></rect><rect x="50" y="150.01" width="50" height="50" rx="12.5"></rect></symbol><symbol viewBox="0 0 450 450" id="hi-intersect-selection-line"><path d="M275,150H175a25,25,0,0,0-25,25V275a25,25,0,0,0,25,25H275a25,25,0,0,0,25-25V175A25,25,0,0,0,275,150Zm-25,50v50H200V200Z"></path><rect x="150" y="350" width="50" height="50" rx="12.5"></rect><rect x="250" y="350" width="50" height="50" rx="12.5"></rect><rect x="350" y="350" width="50" height="50" rx="12.5"></rect><rect x="50" y="50" width="50" height="50" rx="12.5"></rect><rect x="150" y="50" width="50" height="50" rx="12.5"></rect><rect x="250" y="50" width="50" height="50" rx="12.5"></rect><rect x="350" y="250" width="50" height="50" rx="12.5"></rect><rect x="350" y="150" width="50" height="50" rx="12.5"></rect><rect x="50" y="250" width="50" height="50" rx="12.5"></rect><rect x="50" y="150" width="50" height="50" rx="12.5"></rect></symbol><symbol viewBox="0 0 450 450" id="hi-lasso-line"><path d="M325,0H125A125,125,0,0,0,0,125v50A125,125,0,0,0,100,297.5V375a25,25,0,0,0,25,25H300v25a25,25,0,0,0,25,25h0a25,25,0,0,0,25-25V375a25,25,0,0,0-25-25H150V300H325A125,125,0,0,0,450,175V125A125,125,0,0,0,325,0Zm75,175a75,75,0,0,1-73.06,75L325,250H150V225a25,25,0,0,0-25-25h0a25,25,0,0,0-25,25v20.71A75,75,0,0,1,50,175V125a75,75,0,0,1,73.06-75L125,50H325l1.94,0A75,75,0,0,1,400,125Z"></path></symbol><symbol viewBox="0 0 450 450" id="hi-layer-fill"><path d="M410.66,306.76h0a25,25,0,0,0-24.28,0L225,396.41,63.62,306.76a25,25,0,0,0-24.28,0h0a25,25,0,0,0,0,43.71l173.52,96.4a25,25,0,0,0,24.28,0l173.52-96.4A25,25,0,0,0,410.66,306.76Z"></path><path d="M39.34,99.56,212.86,3.16a25,25,0,0,1,24.28,0l173.52,96.4a25,25,0,0,1,0,43.71l-173.52,96.4a25,25,0,0,1-24.28,0L39.34,143.27A25,25,0,0,1,39.34,99.56Z"></path><path d="M410.66,246.87l-173.52,96.4a25,25,0,0,1-24.28,0L39.34,246.87a25,25,0,0,1,0-43.71,25,25,0,0,1,24.28,0L225,292.82l161.38-89.66a25,25,0,0,1,24.28,43.71Z"></path></symbol><symbol viewBox="0 0 450 450" id="hi-layer-line"><path d="M39.34,143.25l173.52,96.41a25,25,0,0,0,24.28,0l173.52-96.41a25,25,0,0,0,0-43.7L237.14,3.15a25,25,0,0,0-24.28,0L39.34,99.55A25,25,0,0,0,39.34,143.25ZM225,53.6l122,67.8L225,189.2,103,121.4Z"></path><path d="M410.66,306.74h0a25,25,0,0,0-24.28,0L225,396.4,63.62,306.74a25,25,0,0,0-24.28,0h0a25,25,0,0,0,0,43.71l173.52,96.4a25,25,0,0,0,24.28,0l173.52-96.4A25,25,0,0,0,410.66,306.74Z"></path><path d="M410.66,203.15h0a25,25,0,0,0-24.28,0L225,292.8,63.62,203.15a25,25,0,0,0-24.28,0h0a25,25,0,0,0,0,43.71l173.52,96.4a25,25,0,0,0,24.28,0l173.52-96.4A25,25,0,0,0,410.66,203.15Z"></path></symbol><symbol viewBox="0 0 450 450" id="hi-lock-fill"><path d="M425,175H375V150a150,150,0,0,0-300,0v25H25A25,25,0,0,0,0,200V350A100,100,0,0,0,100,450H350A100,100,0,0,0,450,350V200A25,25,0,0,0,425,175ZM225,350a37.5,37.5,0,1,1,37.5-37.5A37.49,37.49,0,0,1,225,350ZM125,150a100,100,0,0,1,200,0v25H125Z"></path></symbol><symbol viewBox="0 0 450 450" id="hi-lock-line"><path d="M425,175H375V150a150,150,0,0,0-300,0v25H25A25,25,0,0,0,0,200V350A100,100,0,0,0,100,450H350A100,100,0,0,0,450,350V200A25,25,0,0,0,425,175ZM225,50A100,100,0,0,1,325,150v25H125V150A100,100,0,0,1,225,50ZM350,400H100a50,50,0,0,1-50-50V225H400V350A50,50,0,0,1,350,400Z"></path><circle cx="225" cy="312.5" r="37.5"></circle></symbol><symbol viewBox="0 0 450 450" id="hi-lock-open-fill"><path d="M425,175H125V151.26C125,95.92,170.27,49.69,225.6,50a99.76,99.76,0,0,1,75.58,35.21,25,25,0,0,0,38-32.46A149.66,149.66,0,0,0,223,0C141.15,1.12,75,68.36,75,150h0v25H25A25,25,0,0,0,0,200V350A100,100,0,0,0,100,450H350A100,100,0,0,0,450,350V200A25,25,0,0,0,425,175ZM225,350a37.5,37.5,0,1,1,37.5-37.5A37.49,37.49,0,0,1,225,350Z"></path></symbol><symbol viewBox="0 0 450 450" id="hi-lock-open-line"><path d="M425,175H125V151.24C125,95.91,170.27,49.68,225.6,50a99.76,99.76,0,0,1,75.58,35.22,25,25,0,0,0,31.07,5.66h0a25,25,0,0,0,7-38.13A149.69,149.69,0,0,0,223,0C141.15,1.11,75,68.34,75,150h0v25H25A25,25,0,0,0,0,200V350A100,100,0,0,0,100,450H350A100,100,0,0,0,450,350V200A25,25,0,0,0,425,175ZM350,400H100a50,50,0,0,1-50-50V225H400V350A50,50,0,0,1,350,400Z"></path><circle cx="225" cy="312.5" r="37.5"></circle></symbol><symbol viewBox="0 0 450 450" id="hi-magic-wand-fill"><path d="M442.68,442.68a25,25,0,0,1-35.36,0L241.05,276.4,221,341.06a25,25,0,0,1-20,17.27,25,25,0,0,1-24.32-10.26l-55.41-78.34L25.32,271A25,25,0,0,1,5,231l57.39-76.9L31.54,63.24a25,25,0,0,1,31.7-31.7l90.87,30.81L231,5A25,25,0,0,1,271,25.32l-1.23,95.94,78.34,55.4a25,25,0,0,1-7,44.29l-64.65,20.1L442.68,407.32A25,25,0,0,1,442.68,442.68Z"></path></symbol><symbol viewBox="0 0 450 450" id="hi-magic-wand-line"><path d="M442.68,407.32,276.41,241.05,341.06,221a25,25,0,0,0,7-44.29l-78.34-55.4L271,25.32A25,25,0,0,0,231,5l-76.9,57.39L63.24,31.54a25,25,0,0,0-31.7,31.7l30.81,90.87L5,231A25,25,0,0,0,25.32,271l95.94-1.23,55.41,78.34a25,25,0,0,0,44.28-7l20.1-64.66L407.32,442.68a25,25,0,0,0,35.36-35.36ZM205.59,222l-17.35,55.8L154.5,230.13a25,25,0,0,0-20.41-10.56h-.32l-58.44.74,35-46.83a25,25,0,0,0,3.64-23L95.16,95.15l55.34,18.77a25,25,0,0,0,23-3.64l46.83-34.95-.74,58.44a25,25,0,0,0,10.56,20.73l47.71,33.74L222,205.59A25,25,0,0,0,205.59,222Z"></path></symbol><symbol viewBox="0 0 450 450" id="hi-marquee-line"><path d="M425,325h0a25,25,0,0,0-25,25v50H350a25,25,0,0,0,0,50h75a25,25,0,0,0,25-25V350A25,25,0,0,0,425,325Z"></path><path d="M100,400H50V350a25,25,0,0,0-25-25h0A25,25,0,0,0,0,350v75a25,25,0,0,0,25,25h75a25,25,0,0,0,0-50Z"></path><path d="M425,0H350a25,25,0,0,0-25,25h0a25,25,0,0,0,25,25h50v50a25,25,0,0,0,25,25h0a25,25,0,0,0,25-25V25h0A25,25,0,0,0,425,0Z"></path><path d="M100,0H25A25,25,0,0,0,0,25H0v75a25,25,0,0,0,25,25h0a25,25,0,0,0,25-25V50h50a25,25,0,0,0,25-25h0A25,25,0,0,0,100,0Z"></path><rect y="175" width="50" height="100" rx="25"></rect><path d="M250,0H200a25,25,0,0,0-25,25h0a25,25,0,0,0,25,25h50a25,25,0,0,0,25-25h0A25,25,0,0,0,250,0Z"></path><path d="M250,400H200a25,25,0,0,0-25,25h0a25,25,0,0,0,25,25h50a25,25,0,0,0,25-25h0A25,25,0,0,0,250,400Z"></path><rect x="400" y="175" width="50" height="100" rx="25"></rect></symbol><symbol viewBox="0 0 450 450" id="hi-menu"><path d="M375,350H75a25,25,0,0,0,0,50H375a25,25,0,0,0,0-50Z"></path><path d="M75,100H375a25,25,0,0,0,0-50H75a25,25,0,0,0,0,50Z"></path><path d="M375,200H75a25,25,0,0,0,0,50H375a25,25,0,0,0,0-50Z"></path></symbol><symbol viewBox="0 0 450 450" id="hi-move-line"><path d="M442.68,207.32,372,136.61a25,25,0,0,0-35.36,0h0a25,25,0,0,0,0,35.36l28,28H250V85.36l28,28a25,25,0,0,0,35.36,0h0a25,25,0,0,0,0-35.36L242.68,7.32h0a25,25,0,0,0-35.36,0L136.61,78a25,25,0,0,0,0,35.36h0a25,25,0,0,0,35.36,0l28-28V200H85.36l28-28a25,25,0,0,0,0-35.36h0a25,25,0,0,0-35.36,0L7.32,207.32a25,25,0,0,0,0,35.36L78,313.39a25,25,0,0,0,35.36,0h0a25,25,0,0,0,0-35.36l-28-28H200V364.64l-28-28a25,25,0,0,0-35.36,0h0a25,25,0,0,0,0,35.36l70.71,70.71h0a25,25,0,0,0,35.36,0L313.39,372a25,25,0,0,0,0-35.36h0a25,25,0,0,0-35.36,0l-28,28V250H364.64l-28,28a25,25,0,0,0,0,35.36h0a25,25,0,0,0,35.36,0l70.71-70.71A25,25,0,0,0,442.68,207.32Z"></path></symbol><symbol viewBox="0 0 450 450" id="hi-paint-bucket-fill"><path d="M398.59,258.27a24.9,24.9,0,0,1-5.93,9.42l-175,175h0a25,25,0,0,1-35.35,0l-175-175a25,25,0,0,1,0-35.39L164.64,75,132.32,42.68A25,25,0,0,1,167.68,7.32l225,225A25,25,0,0,1,398.59,258.27Z"></path><path d="M435.36,335.36l-26.52-26.52a12.51,12.51,0,0,0-17.68,0l-26.52,26.52a50,50,0,0,0,0,70.71h0a50,50,0,0,0,70.72,0h0A50,50,0,0,0,435.36,335.36Z"></path></symbol><symbol viewBox="0 0 450 450" id="hi-paint-bucket-line"><path d="M392.66,267.68a25,25,0,0,0,0-35.38l-225-225a25,25,0,0,0-35.36,35.35L164.64,75,7.32,232.31a25,25,0,0,0,0,35.38l175,175a25,25,0,0,0,35.35,0h0Zm-53-17.69L200,389.64,60.34,250,200,110.34Z"></path><path d="M435.36,335.34l-26.52-26.52a12.51,12.51,0,0,0-17.68,0l-26.52,26.52a50,50,0,0,0,0,70.71h0a50,50,0,0,0,70.72,0h0A50,50,0,0,0,435.36,335.34Z"></path></symbol><symbol viewBox="0 0 450 450" id="hi-paint-bucket-semi"><path d="M392.67,232.31l-225-225a25,25,0,0,0-35.36,35.36L164.64,75,7.32,232.32a25,25,0,0,0,0,35.39l175,175a25,25,0,0,0,35.35,0h0l175-175a25,25,0,0,0,0-35.38ZM200,110.36,339.64,250H60.34Z"></path><path d="M435.36,335.36l-26.52-26.52a12.51,12.51,0,0,0-17.68,0l-26.52,26.52a50,50,0,0,0,0,70.71h0a50,50,0,0,0,70.72,0h0A50,50,0,0,0,435.36,335.36Z"></path></symbol><symbol viewBox="0 0 450 450" id="hi-path-fill"><path d="M450,25V125a25,25,0,0,1-25,25H335.36L150,335.37V425a25,25,0,0,1-25,25H25A25,25,0,0,1,0,425V325a25,25,0,0,1,25-25h89.64L300,114.66V25A25,25,0,0,1,325,0H425A25,25,0,0,1,450,25Z"></path></symbol><symbol viewBox="0 0 450 450" id="hi-path-line"><path d="M425,0H325a25,25,0,0,0-25,25v89.64L114.64,300H25A25,25,0,0,0,0,325V425a25,25,0,0,0,25,25H125a25,25,0,0,0,25-25V335.36L335.36,150H425a25,25,0,0,0,25-25V25A25,25,0,0,0,425,0ZM350,50h50v50H350ZM100,400H50V350h50Z"></path></symbol><symbol viewBox="0 0 450 450" id="hi-path-semi"><path d="M425,0H325a25,25,0,0,0-25,25v89.65L114.64,300H25A25,25,0,0,0,0,325V425a25,25,0,0,0,25,25H125a25,25,0,0,0,25-25V335.37L335.36,150H425a25,25,0,0,0,25-25V25A25,25,0,0,0,425,0ZM400,100H350V50h50Z"></path></symbol><symbol viewBox="0 0 450 450" id="hi-pencil-fill"><path d="M215.4,109.61,7.33,317.68A25,25,0,0,0,0,335.37V425a25,25,0,0,0,25,25h89.64a25,25,0,0,0,17.68-7.32L340.4,234.61a12.48,12.48,0,0,0,0-17.67L233.08,109.61A12.51,12.51,0,0,0,215.4,109.61Z"></path><path d="M450,113.49a25.05,25.05,0,0,0-1.18-6.51c-.12-.37-.25-.74-.39-1.1s-.34-.88-.52-1.31a27.78,27.78,0,0,0-1.49-2.86A25.49,25.49,0,0,0,442.68,97h0L353,7.34h0a25,25,0,0,0-35.35,0L259.6,65.42a12.51,12.51,0,0,0,0,17.68L366.92,190.42a12.51,12.51,0,0,0,17.68,0l58.08-58.08A24.9,24.9,0,0,0,450,114.67C450,114.28,450,113.88,450,113.49Z"></path></symbol><symbol viewBox="0 0 450 450" id="hi-pencil-line"><path d="M450,113.47a25.05,25.05,0,0,0-1.18-6.51c-.12-.37-.25-.73-.39-1.1s-.34-.87-.52-1.3a26.79,26.79,0,0,0-1.49-2.86A24.85,24.85,0,0,0,442.68,97h0L353,7.33h0a25,25,0,0,0-35.35,0L7.32,317.68A25,25,0,0,0,0,335.36V425a25,25,0,0,0,25,25h89.64a25,25,0,0,0,17.68-7.32L362.5,212.5h0l80.18-80.18h0A24.91,24.91,0,0,0,450,113.47Zm-105.15,46-54.28-54.28,44.82-44.82,54.28,54.28ZM104.28,400H50V345.72L255.18,140.54l54.28,54.28Z"></path></symbol><symbol viewBox="0 0 450 450" id="hi-pencil-semi"><path d="M450,113.49a25.05,25.05,0,0,0-1.18-6.51c-.12-.37-.25-.74-.39-1.1s-.34-.88-.52-1.31a27.78,27.78,0,0,0-1.49-2.86A25.49,25.49,0,0,0,442.68,97h0L353,7.34h0a25,25,0,0,0-35.35,0L7.32,317.69A25,25,0,0,0,0,335.37V425a25,25,0,0,0,25,25h89.64a25,25,0,0,0,17.68-7.32L362.5,212.52h0l80.18-80.17A24.9,24.9,0,0,0,450,114.67C450,114.28,450,113.88,450,113.49ZM104.28,400H50V345.73L255.18,140.55l54.28,54.28Z"></path></symbol><symbol viewBox="0 0 450 450" id="hi-polygon-lasso-line"><path d="M425,0H25A25,25,0,0,0,0,25V275a25,25,0,0,0,25,25h75v75a25,25,0,0,0,25,25H300v25a25,25,0,0,0,25,25h0a25,25,0,0,0,25-25V375a25,25,0,0,0-25-25H150V300H425a25,25,0,0,0,25-25V25A25,25,0,0,0,425,0ZM125,200h0a25,25,0,0,0-25,25v25H50V50H400V250H150V225A25,25,0,0,0,125,200Z"></path></symbol><symbol viewBox="0 0 450 450" id="hi-redo-line"><path d="M399,128.24a24.89,24.89,0,0,0-3.8-7.67,24.61,24.61,0,0,0-1.61-2c-.28-.32-.58-.63-.88-.93L322,47a25,25,0,0,0-35.36,0h0a25,25,0,0,0,0,35.35l28,28H200A149.83,149.83,0,0,0,50,261.91c.83,82.46,68.91,148.45,151.37,148.45H350a25,25,0,0,0,0-50H201.25c-55.14,0-100.84-44.11-101.25-99.25A100,100,0,0,1,200,160.36H314.64l-28,28a25,25,0,0,0,0,35.35h0a25,25,0,0,0,35.36,0L392.68,153c.3-.3.6-.61.88-.93a24.61,24.61,0,0,0,1.61-2,24.89,24.89,0,0,0,3.8-7.67A25.15,25.15,0,0,0,399,128.24Z"></path></symbol><symbol viewBox="0 0 450 450" id="hi-replace-selection-fill"><rect x="150" y="350.01" width="50" height="50" rx="12.5"></rect><rect x="250" y="350.01" width="50" height="50" rx="12.5"></rect><path d="M300,75V275a25,25,0,0,1-25,25H75a25,25,0,0,1-25-25V75A25,25,0,0,1,75,50H275A25,25,0,0,1,300,75Z"></path><path d="M400,362.51v25A12.5,12.5,0,0,1,387.5,400h-25a12.5,12.5,0,0,1-12.5-12.5v-25A12.5,12.5,0,0,1,362.5,350h25A12.5,12.5,0,0,1,400,362.51Z"></path><rect x="350" y="250.01" width="50" height="50" rx="12.5"></rect><rect x="350" y="150.01" width="50" height="50" rx="12.5"></rect></symbol><symbol viewBox="0 0 450 450" id="hi-replace-selection-line"><path d="M275,50H75A25,25,0,0,0,50,75V275a25,25,0,0,0,25,25H275a25,25,0,0,0,25-25V75A25,25,0,0,0,275,50Zm-25,50V250H100V100Z"></path><rect x="150" y="350" width="50" height="50" rx="12.5"></rect><rect x="250" y="350" width="50" height="50" rx="12.5"></rect><rect x="350" y="350" width="50" height="50" rx="12.5"></rect><rect x="350" y="250" width="50" height="50" rx="12.5"></rect><rect x="350" y="150" width="50" height="50" rx="12.5"></rect></symbol><symbol viewBox="0 0 450 450" id="hi-rounded-square-fill"><rect width="450" height="450" rx="100"></rect></symbol><symbol viewBox="0 0 450 450" id="hi-rounded-square-line"><path d="M350,0H100A100,100,0,0,0,0,100V350A100,100,0,0,0,100,450H350A100,100,0,0,0,450,350V100A100,100,0,0,0,350,0Zm0,400H100a50,50,0,0,1-50-50V100a50,50,0,0,1,50-50H350a50,50,0,0,1,50,50V350A50,50,0,0,1,350,400Z"></path></symbol><symbol viewBox="0 0 450 450" id="hi-rounded-square-semi"><path d="M350,0H100A100,100,0,0,0,0,100V350A100,100,0,0,0,100,450H350A100,100,0,0,0,450,350V100A100,100,0,0,0,350,0ZM50,100a50,50,0,0,1,50-50H350a49.84,49.84,0,0,1,35.35,14.65L64.65,385.35A49.81,49.81,0,0,1,50,350Z"></path></symbol><symbol viewBox="0 0 450 450" id="hi-rounded-square-small-fill"><rect x="50" y="50" width="350" height="350" rx="100"></rect></symbol><symbol viewBox="0 0 450 450" id="hi-rounded-square-small-line"><path d="M300,50H150A100,100,0,0,0,50,150V300A100,100,0,0,0,150,400H300A100,100,0,0,0,400,300V150A100,100,0,0,0,300,50Zm0,300H150a50,50,0,0,1-50-50V150a50,50,0,0,1,50-50H300a50,50,0,0,1,50,50V300A50,50,0,0,1,300,350Z"></path></symbol><symbol viewBox="0 0 450 450" id="hi-rounded-square-small-semi"><path d="M300,50H150A100,100,0,0,0,50,150V300A100,100,0,0,0,150,400H300A100,100,0,0,0,400,300V150A100,100,0,0,0,300,50ZM100,150a50,50,0,0,1,50-50H300a49.84,49.84,0,0,1,35.35,14.65l-220.7,220.7A49.81,49.81,0,0,1,100,300Z"></path></symbol><symbol viewBox="0 0 450 450" id="hi-spray-fill"><path d="M275,75H250V25A25,25,0,0,0,225,0H75A25,25,0,0,0,50,25v87.5A12.5,12.5,0,0,0,62.5,125H274.44c14,0,25.81-11.46,25.56-25.46A25,25,0,0,0,275,75Z"></path><path d="M300,210.37V425a25,25,0,0,1-25,25H25A25,25,0,0,1,0,425V210.37a25,25,0,0,1,7.33-17.69l26.51-26.51a12.5,12.5,0,0,1,8.84-3.66H257.32a12.5,12.5,0,0,1,8.84,3.66l26.51,26.51A25,25,0,0,1,300,210.37Z"></path><circle cx="350" cy="100.01" r="25"></circle><circle cx="425" cy="150.01" r="25"></circle><circle cx="425" cy="50.01" r="25"></circle></symbol><symbol viewBox="0 0 450 450" id="hi-spray-line"><path d="M275,125a25,25,0,0,0,0-50H250V25A25,25,0,0,0,225,0H75A25,25,0,0,0,50,25V150L7.32,192.68A25,25,0,0,0,0,210.36V425a25,25,0,0,0,25,25H275a25,25,0,0,0,25-25V210.36a25,25,0,0,0-7.32-17.68L250,150V125ZM200,50v70.71H100V50ZM100,170.71H200l50,50V275H50V220.72ZM50,325H250v75H50Z"></path><circle cx="350" cy="100" r="25"></circle><circle cx="425" cy="150" r="25"></circle><circle cx="425" cy="50" r="25"></circle></symbol><symbol viewBox="0 0 450 450" id="hi-spray-semi"><path d="M250,150V125h25a25,25,0,0,0,0-50H250V25A25,25,0,0,0,225,0H75A25,25,0,0,0,50,25V150L7.32,192.69A25,25,0,0,0,0,210.37V425a25,25,0,0,0,25,25H275a25,25,0,0,0,25-25V210.37a25,25,0,0,0-7.32-17.68ZM100,50H200v70.71H100ZM250,275H50V220.73l50-50H200l50,50Z"></path><circle cx="350" cy="100.01" r="25"></circle><circle cx="425" cy="150.01" r="25"></circle><circle cx="425" cy="50.01" r="25"></circle></symbol><symbol viewBox="0 0 450 450" id="hi-square-fill"><path d="M450,25V425a25,25,0,0,1-25,25H25A25,25,0,0,1,0,425V25A25,25,0,0,1,25,0H425A25,25,0,0,1,450,25Z"></path></symbol><symbol viewBox="0 0 450 450" id="hi-square-line"><path d="M0,25V425a25,25,0,0,0,25,25H425a25,25,0,0,0,25-25V25A25,25,0,0,0,425,0H25A25,25,0,0,0,0,25ZM400,400H50V50H400Z"></path></symbol><symbol viewBox="0 0 450 450" id="hi-square-semi"><path d="M425,0H25A25,25,0,0,0,0,25V425a25,25,0,0,0,25,25H425a25,25,0,0,0,25-25V25A25,25,0,0,0,425,0ZM50,400V50H400Z"></path></symbol><symbol viewBox="0 0 450 450" id="hi-square-small-fill"><path d="M400,75V375a25,25,0,0,1-25,25H75a25,25,0,0,1-25-25V75A25,25,0,0,1,75,50H375A25,25,0,0,1,400,75Z"></path></symbol><symbol viewBox="0 0 450 450" id="hi-square-small-line"><path d="M50,75V375a25,25,0,0,0,25,25H375a25,25,0,0,0,25-25V75a25,25,0,0,0-25-25H75A25,25,0,0,0,50,75ZM350,350H100V100H350Z"></path></symbol><symbol viewBox="0 0 450 450" id="hi-square-small-semi"><path d="M375,50H75A25,25,0,0,0,50,75V375a25,25,0,0,0,25,25H375a25,25,0,0,0,25-25V75A25,25,0,0,0,375,50ZM100,350V100H350Z"></path></symbol><symbol viewBox="0 0 450 450" id="hi-star-fill"><path d="M415.53,204,338.4,279.23l18.21,106.15a25,25,0,0,1-36.27,26.36L225,361.62l-95.34,50.12a25,25,0,0,1-36.27-26.36L111.6,279.23,34.47,204A25,25,0,0,1,48.32,161.4l106.59-15.49,47.67-96.58a25,25,0,0,1,44.84,0l47.67,96.58L401.68,161.4A25,25,0,0,1,415.53,204Z"></path></symbol><symbol viewBox="0 0 450 450" id="hi-star-line"><path d="M332,414.61a25,25,0,0,1-11.63-2.87L225,361.62l-95.34,50.12a25,25,0,0,1-36.27-26.36L111.6,279.23,34.47,204A25,25,0,0,1,48.32,161.4l106.59-15.49,47.67-96.58a25,25,0,0,1,44.84,0l47.67,96.58L401.68,161.4A25,25,0,0,1,415.53,204L338.4,279.23l18.21,106.15A25,25,0,0,1,332,414.61ZM225,308.37a25,25,0,0,1,11.63,2.87l62.14,32.67L286.9,274.72a25,25,0,0,1,7.19-22.12l50.27-49-69.47-10.1a25,25,0,0,1-18.82-13.67l-31.07-63-31.07,63a25,25,0,0,1-18.82,13.67l-69.47,10.1,50.27,49a25,25,0,0,1,7.19,22.12l-11.87,69.19,62.14-32.67A25,25,0,0,1,225,308.37Z"></path></symbol><symbol viewBox="0 0 450 450" id="hi-star-semi"><path d="M421.86,178.42a25,25,0,0,0-20.18-17L295.09,145.91,247.42,49.33a25,25,0,0,0-44.84,0l-47.67,96.58L48.32,161.4A25,25,0,0,0,34.47,204l77.13,75.19L93.39,385.38a25,25,0,0,0,36.27,26.36L225,361.62l95.34,50.12a25,25,0,0,0,36.27-26.36L338.4,279.23,415.53,204A25,25,0,0,0,421.86,178.42ZM294.09,252.6a25,25,0,0,0-7.19,22.12l11.87,69.19L225,305.13V116.88l31.07,63a25,25,0,0,0,18.82,13.67l69.47,10.1Z"></path></symbol><symbol viewBox="0 0 450 450" id="hi-subtract-selection-fill"><rect x="50" y="50.01" width="50" height="50" rx="12.5"></rect><rect x="250" y="50.01" width="50" height="50" rx="12.5"></rect><rect x="50" y="250.01" width="50" height="50" rx="12.5"></rect><rect x="50" y="150.01" width="50" height="50" rx="12.5"></rect><path d="M400,175V375a25,25,0,0,1-25,25H175a25,25,0,0,1-25-25V275a25,25,0,0,1,25-25h75V175a25,25,0,0,1,25-25H375A25,25,0,0,1,400,175Z"></path><path d="M150,87.51v-25A12.5,12.5,0,0,1,162.5,50h25A12.5,12.5,0,0,1,200,62.51v25A12.5,12.5,0,0,1,187.5,100h-25A12.5,12.5,0,0,1,150,87.51Z"></path></symbol><symbol viewBox="0 0 450 450" id="hi-subtract-selection-line"><rect x="50" y="50" width="50" height="50" rx="12.5"></rect><rect x="150" y="50" width="50" height="50" rx="12.5"></rect><rect x="250" y="50" width="50" height="50" rx="12.5"></rect><rect x="50" y="250" width="50" height="50" rx="12.5"></rect><rect x="50" y="150" width="50" height="50" rx="12.5"></rect><path d="M375,150H275a25,25,0,0,0-25,25v75H175a25,25,0,0,0-25,25V375a25,25,0,0,0,25,25H375a25,25,0,0,0,25-25V175A25,25,0,0,0,375,150ZM275,300a25,25,0,0,0,25-25V200h50V350H200V300Z"></path></symbol><symbol viewBox="0 0 450 450" id="hi-trash-fill"><path d="M425,100H350V25A25,25,0,0,0,325,0H125a25,25,0,0,0-25,25v75H25a25,25,0,0,0,0,50H425a25,25,0,1,0,0-50Zm-125,0H150V50H300Z"></path><path d="M387.5,187.5H62.5A12.5,12.5,0,0,0,50,200V425a25,25,0,0,0,25,25H375a25,25,0,0,0,25-25V200A12.5,12.5,0,0,0,387.5,187.5ZM200,368.75a25,25,0,0,1-50,0v-100a25,25,0,0,1,50,0Zm100,0a25,25,0,0,1-50,0v-100a25,25,0,0,1,50,0Z"></path></symbol><symbol viewBox="0 0 450 450" id="hi-trash-line"><path d="M425,100H350V25A25,25,0,0,0,325,0H125a25,25,0,0,0-25,25v75H25a25,25,0,0,0,0,50H50V425a25,25,0,0,0,25,25H375a25,25,0,0,0,25-25V150h25a25,25,0,0,0,0-50ZM150,50H300v50H150ZM350,400H100V150H350Z"></path><path d="M175,200h0a25,25,0,0,0-25,25V325a25,25,0,0,0,25,25h0a25,25,0,0,0,25-25V225A25,25,0,0,0,175,200Z"></path><path d="M275,200h0a25,25,0,0,0-25,25V325a25,25,0,0,0,25,25h0a25,25,0,0,0,25-25V225A25,25,0,0,0,275,200Z"></path></symbol><symbol viewBox="0 0 450 450" id="hi-type-tool-line"><path d="M375,50H75A25,25,0,0,0,50,75v50a25,25,0,0,0,50,0V100H200V350H175a25,25,0,0,0,0,50H275a25,25,0,0,0,0-50H250V100H350v25a25,25,0,0,0,50,0V75A25,25,0,0,0,375,50Z"></path></symbol><symbol viewBox="0 0 450 450" id="hi-undo-line"><path d="M300,118.89a150,150,0,0,0-50-8.53H135.36l28-28a25,25,0,0,0,0-35.35h0A25,25,0,0,0,128,47L57.32,117.68c-.3.3-.6.61-.88.93a24.13,24.13,0,0,0-4.12,6.22,24.15,24.15,0,0,0-.92,2.25c-.27.77-.49,1.54-.69,2.32a23.58,23.58,0,0,0-.45,2.37,23.86,23.86,0,0,0-.23,2.39q0,.6,0,1.2c0,.4,0,.8,0,1.19a23.86,23.86,0,0,0,.23,2.39,23.58,23.58,0,0,0,.45,2.37c.2.78.42,1.55.69,2.32a24.15,24.15,0,0,0,.92,2.25,24.13,24.13,0,0,0,4.12,6.22c.28.32.58.63.88.93L128,223.74a25,25,0,0,0,35.36,0h0a25,25,0,0,0,0-35.35l-28-28H250A100,100,0,0,1,350,261.11c-.41,55.14-46.11,99.25-101.25,99.25H100a25,25,0,0,0,0,50H248.62c82.46,0,150.54-66,151.37-148.45A150.07,150.07,0,0,0,300,118.89Z"></path></symbol><symbol viewBox="0 0 450 450" id="hi-zoom-fill"><path d="M442.68,442.68a25,25,0,0,1-35.36,0L322.63,358A199.07,199.07,0,0,1,200,400C89.54,400,0,310.46,0,200S89.54,0,200,0,400,89.54,400,200a199.07,199.07,0,0,1-42,122.63l84.69,84.69A25,25,0,0,1,442.68,442.68Z"></path></symbol><symbol viewBox="0 0 450 450" id="hi-zoom-line"><path d="M442.68,407.32,358,322.63A199.07,199.07,0,0,0,400,200C400,89.54,310.46,0,200,0S0,89.54,0,200,89.54,400,200,400a199.07,199.07,0,0,0,122.63-42l84.69,84.69a25,25,0,0,0,35.36-35.36ZM50,200A150,150,0,1,1,200,350,150,150,0,0,1,50,200Z"></path></symbol></svg>