<svg xmlns="http://www.w3.org/2000/svg" xmlns:xlink="http://www.w3.org/1999/xlink" width="0" height="0" style="display:none;"><symbol viewBox="0 0 1799.993 1803.0819999999999" id="hi-circle-fill"><path d="M1799.997 901.541A900 900 0 0 1 899.997 1801.541A900 900 0 0 1 -0.003 901.541A900 900 0 0 1 1799.997 901.541z"></path><path width="17.99997" fill="none" d="M0 0H1799.997V1803.082H0V0z"></path></symbol><symbol viewBox="0 0 1799.993 1803.0819999999999" id="hi-circle-line"><path d="M900 1.625a900 900 0 1 0 900 900A900.075 900.075 0 0 0 900 1.625Zm0 1600a700 700 0 1 1 700 -700A699.488 699.488 0 0 1 900 1601.625Z"></path><path width="17.99997" fill="none" d="M0 0H1799.997V1803.082H0V0z"></path></symbol><symbol viewBox="0 0 1799.993 1803.504" id="hi-circle-mid"><path d="M900 1.752a900 900 0 1 0 900 900A900.071 900.071 0 0 0 900 1.752Zm-700 900a699.331 699.331 0 0 1 1195 -494l-989 990A699.052 699.052 0 0 1 200 901.752Z"></path><path width="17.99993" fill="none" d="M0 0H1799.993V1803.504H0V0z"></path></symbol><symbol viewBox="0 0 1799.993 1803.0819999999999" id="hi-circle-small-fill"><path d="M1599.997 901.541A700 700 0 0 1 899.997 1601.541A700 700 0 0 1 199.997 901.541A700 700 0 0 1 1599.997 901.541z"></path><path width="17.99993" fill="none" d="M0 0H1799.993V1803.082H0V0z"></path></symbol><symbol viewBox="0 0 1799.993 1803.0819999999999" id="hi-circle-small-line"><path d="M900 201.541a700 700 0 1 0 700 700A699.488 699.488 0 0 0 900 201.541Zm0 1200a500 500 0 1 1 500 -500A500.181 500.181 0 0 1 900 1401.541Z"></path><path width="17.99993" fill="none" d="M0 0H1799.993V1803.082H0V0z"></path></symbol><symbol viewBox="0 0 1799.993 1803.504" id="hi-circle-small-mid"><path d="M900 201.752a700 700 0 1 0 700 700A699.488 699.488 0 0 0 900 201.752Zm-353 1053a499.218 499.218 0 1 1 706 -706Z"></path><path width="17.99993" fill="none" d="M0 0H1799.993V1803.504H0V0z"></path></symbol><symbol viewBox="0 0 1799.993 1803.0819999999999" id="hi-eraser-fill"><path d="M829.494 1772.011a100.849 100.849 0 0 1 -142.084 -0.085L99.5 1184.011l-70 -70a100.7 100.7 0 0 1 0 -142l70 -69.995L413.571 588.835a49.389 49.389 0 0 1 69.8 0.05l730.162 730.162a49.388 49.388 0 0 1 -0.041 69.887ZM1770.443 688.962 1111.494 31.014A99.776 99.776 0 0 0 970.443 31.067L586.419 415.091a49.389 49.389 0 0 0 0 69.846l730.155 730.154a49.386 49.386 0 0 0 69.845 0L1770.5 831.014A100.687 100.687 0 0 0 1770.443 688.962Z"></path><path width="17.99993" fill="none" d="M0 0H1799.993V1803.082H0V0z"></path></symbol><symbol viewBox="0 0 1803.0819999999999 1803.0819999999999" id="hi-eraser-line"><path d="M1773.842 687.815 1115.267 29.24a99.989 99.989 0 0 0 -141.419 0L572.257 430.831H572.251L430.833 572.256 99.968 903.12V903.114l-70.709 70.715a100 100 0 0 0 0 141.419l70.709 70.709 587.866 587.866a100 100 0 0 0 141.419 0l401.573 -401.574 141.425 -141.418v-0.006l401.591 -401.591A99.989 99.989 0 0 0 1773.842 687.815ZM758.544 1561.7 241.387 1044.538 572.251 713.674l517.157 517.157ZM713.676 572.249l330.881 -330.882 517.157 517.157 -330.881 330.882Z"></path><path width="18.03134" fill="none" d="M0 0H1803.134V1803.134H0V0z"></path></symbol><symbol viewBox="0 0 1799.993 1803.504" id="hi-eraser-mid"><path d="M1770.5 689.752l-659 -659a99.59 99.59 0 0 0 -141 0l-400 400 -141 142 -330 329 -70 71a99.581 99.581 0 0 0 0 141l70 71 588 588a100.8 100.8 0 0 0 142 0l400 -400 141 -142 400 -400A99.593 99.593 0 0 0 1770.5 689.752Zm-1012 871 -517 -518 329 -329 517 517Z"></path><path width="17.99993" fill="none" d="M0 0H1799.993V1803.504H0V0z"></path></symbol><symbol viewBox="0 0 1799.993 1803.0819999999999" id="hi-eye-crossed-line"><g><path d="M1664.708 1426.974l0.983 -1.141L267.058 226.095l-0.861 1a98.751 98.751 0 0 0 -65.82 -25.994 100 100 0 0 0 -100 100 98.33 98.33 0 0 0 37.146 76.007L136.845 377.9 1529.588 1572.58l0.324 0.274 5.566 4.78 0.556 -0.647a98.506 98.506 0 0 0 64.337 24.993 100 100 0 0 0 100 -100A98.482 98.482 0 0 0 1664.708 1426.974Z"></path><path d="M1050.908 1359.25a45.805 45.805 0 0 0 -37.927 -10.059 659.718 659.718 0 0 1 -644.611 -256.1l-143 -191 87.756 -117.773a46.992 46.992 0 0 0 -7.135 -63.782l-80.524 -68.86a46.986 46.986 0 0 0 -68.145 7.538L20.372 842.093a97.53 97.53 0 0 0 0 119l179 239a872.306 872.306 0 0 0 924.792 320.917 47.446 47.446 0 0 0 20.056 -81.854Z"></path><path d="M1780.369 842.093l-180 -240A873.356 873.356 0 0 0 676.506 281.161a47.454 47.454 0 0 0 -20.075 81.848l94.483 80.982A45.844 45.844 0 0 0 788.7 454.1 660.266 660.266 0 0 1 1431.37 710.1l144 192 -87.36 115.723a46.981 46.981 0 0 0 6.958 64.014l80.389 68.75a46.979 46.979 0 0 0 68.085 -7.459l136.926 -182.031A100.52 100.52 0 0 0 1780.369 842.093Z"></path></g><path width="17.99993" fill="none" d="M0 0H1799.993V1803.082H0V0z"></path></symbol><symbol viewBox="0 0 1799.993 1803.0819999999999" id="hi-eye-line"><g><path d="M894.475 602.542a300 300 0 1 0 300 300A299.381 299.381 0 0 0 894.475 602.542Zm0 396a96 96 0 1 1 96 -96A95.816 95.816 0 0 1 894.475 998.538Z"></path><path d="M1774.846 842.044l-180 -240a875.628 875.628 0 0 0 -1401 0l-179 240a99 99 0 0 0 0 120l179 239a875.627 875.627 0 0 0 1401 0l180 -239A102.044 102.044 0 0 0 1774.846 842.044Zm-349 252a664.747 664.747 0 0 1 -1063 0l-143 -192 143 -192a664.747 664.747 0 0 1 1063 0l144 192Z"></path></g><path width="17.99993" fill="none" d="M0 0H1799.993V1803.082H0V0z"></path></symbol><symbol viewBox="0 0 1799.993 1803.0819999999999" id="hi-eyedropper-fill"><path d="M1770.869 530.545l-234 234 84 84a99.578 99.578 0 0 1 0 141h-0.995a98.383 98.383 0 0 1 -140 0l-84 -84 -141 -141 -218 -218 -141 -141 -80 -79a100.666 100.666 0 0 1 -29 -71 101.892 101.892 0 0 1 29 -70 99.588 99.588 0 0 1 141 0l80 79 234 -234a100.686 100.686 0 0 1 71 -29 101.9 101.9 0 0 1 70 29l359 359A99.588 99.588 0 0 1 1770.869 530.545Zm-622 340 -218 -218 -71 -70a99.591 99.591 0 0 0 -141 0l-690 690a98.976 98.976 0 0 0 -29 71v359a98.811 98.811 0 0 0 100 99h359a98.371 98.371 0 0 0 70 -29l690 -690a99.591 99.591 0 0 0 0 -141Z"></path><path width="17.99993" fill="none" d="M0 0H1799.993V1803.082H0V0z"></path></symbol><symbol viewBox="0 0 1799.993 1803.166" id="hi-eyedropper-line"><path d="M1148.894 870.583l-218 -218 -70.5 -70.5a99.7 99.7 0 0 0 -141 0l-690.3 690.3a99.7 99.7 0 0 0 -29.2 70.5v359a99.7 99.7 0 0 0 99.7 99.7h359a99.7 99.7 0 0 0 70.5 -29.2l690.3 -690.3a99.7 99.7 0 0 0 0 -141Zm-731 731H199.9v-218l589 -589 218 218Zm1353 -1212 -359 -359a101.888 101.888 0 0 0 -70 -29 100.662 100.662 0 0 0 -71 29l-234 234 -79.5 -79.5a99.7 99.7 0 0 0 -141 0h0a99.7 99.7 0 0 0 0 141l79.5 79.5 141 141 218 218 141 141 83.747 83.75a99.7 99.7 0 0 0 140.75 0.248l0.274 -0.271a99.7 99.7 0 0 0 0.019 -141.473l-83.793 -83.252 234 -234A99.7 99.7 0 0 0 1770.9 389.583Zm-375 233 -217 -217 162 -163 218 218.005Z"></path><path width="17.99993" fill="none" d="M0 0H1799.993V1803.166H0V0z"></path></symbol><symbol viewBox="0 0 1799.993 1803.0819999999999" id="hi-eyedropper-mid"><path d="M1148.786 870.514l-218 -218 -70.5 -70.5a99.7 99.7 0 0 0 -141 0l-690.3 690.3a99.7 99.7 0 0 0 -29.2 70.5v359a99.7 99.7 0 0 0 99.7 99.7h359a99.7 99.7 0 0 0 70.5 -29.2l690.3 -690.3a99.7 99.7 0 0 0 0 -141Zm-731 731h-218v-218l589 -589 218 218ZM1770.955 530.572l-234 234 84 83a100.792 100.792 0 0 1 0 142H1619.96a98.385 98.385 0 0 1 -140 0l-84 -84 -141 -141 -218 -218 -141 -141 -80 -80a100.108 100.108 0 0 1 -29 -70 99.5 99.5 0 0 1 170 -71l80 80 234 -234a100.686 100.686 0 0 1 71 -29 101.9 101.9 0 0 1 70 29l359 359A99.588 99.588 0 0 1 1770.955 530.572Z"></path><path width="17.99993" fill="none" d="M0 0H1799.993V1803.082H0V0z"></path></symbol><symbol viewBox="0 0 1799.993 1803.0819999999999" id="hi-layer-fill"><g><path d="M851.6 14.085l-694.795 386a99.655 99.655 0 0 0 0 174.228l694.8 386a99.65 99.65 0 0 0 96.793 0l694.795 -386a99.655 99.655 0 0 0 0 -174.228L948.393 14.085A99.655 99.655 0 0 0 851.6 14.085Z"></path><path d="M1643.5 1402.053l-695.033 386.9a99.654 99.654 0 0 1 -96.941 0l-695.033 -386.9a99.655 99.655 0 0 1 0.037 -174.166h0a99.653 99.653 0 0 1 96.915 0.027L900 1587.935l646.551 -360.021a99.653 99.653 0 0 1 96.915 -0.027h0A99.655 99.655 0 0 1 1643.5 1402.053Z"></path><path d="M1643.5 987.179l-695.033 386.9a99.654 99.654 0 0 1 -96.941 0l-695.033 -386.9A99.655 99.655 0 0 1 156.53 813.013h0a99.653 99.653 0 0 1 96.915 0.027L900 1173.061 1546.548 813.04a99.653 99.653 0 0 1 96.915 -0.027h0A99.655 99.655 0 0 1 1643.5 987.179Z"></path></g><path width="17.99993" fill="none" d="M0 0H1799.993V1803.082H0V0z"></path></symbol><symbol viewBox="0 0 1799.993 1803.0819999999999" id="hi-layer-line"><g><path d="M1643.1 1402.548l-695.033 386.9a99.654 99.654 0 0 1 -96.941 0L156.1 1402.548a99.655 99.655 0 0 1 0.037 -174.167h0a99.656 99.656 0 0 1 96.915 0.027L899.6 1588.429l646.551 -360.021a99.656 99.656 0 0 1 96.915 -0.027h0A99.655 99.655 0 0 1 1643.1 1402.548Z"></path><path d="M1643.1 987.674l-695.033 386.9a99.654 99.654 0 0 1 -96.941 0L156.1 987.674a99.654 99.654 0 0 1 0.037 -174.166h0a99.656 99.656 0 0 1 96.915 0.026L899.6 1173.555l646.551 -360.021a99.656 99.656 0 0 1 96.915 -0.026h0A99.654 99.654 0 0 1 1643.1 987.674Z"></path><path d="M1666.206 417.8a92.46 92.46 0 0 0 -22 -17h-1l-8 -5L949.2 13.8a98.619 98.619 0 0 0 -97 0l-685 381 -10 6a76.1 76.1 0 0 0 -22 17 173.538 173.538 0 0 0 -13 15c-3 6 -6 11 -9 17a98.589 98.589 0 0 0 -7 38 106.659 106.659 0 0 0 3 25 91.667 91.667 0 0 0 9 23V536.8h1a95.284 95.284 0 0 0 15 20l1 1 22 17c1 0 1 1 2 1l692 385h1a102.021 102.021 0 0 0 96 0l687 -383 8 -4a98.032 98.032 0 0 0 23 -156ZM900.2 759.8l-489 -272 489 -273 489 272Z"></path></g><path width="17.99993" fill="none" d="M0 0H1799.993V1803.082H0V0z"></path></symbol><symbol viewBox="0 0 1802.2279999999998 1803.0819999999999" id="hi-menu"><path d="M1601.111 1501.539h0a100 100 0 0 1 -100 100h-1200a100 100 0 0 1 -100 -100h0a100 100 0 0 1 100 -100h1200A100 100 0 0 1 1601.111 1501.539Zm-100 -1299.995h-1200a100 100 0 0 0 -100 100h0a100 100 0 0 0 100 100h1200a100 100 0 0 0 100 -100h0A100 100 0 0 0 1501.112 201.544Zm0 600h-1200a100 100 0 0 0 -100 100h0a100 100 0 0 0 100 100h1200a100 100 0 0 0 100 -100h0A100 100 0 0 0 1501.112 801.541Z"></path><path width="18.02228" fill="none" d="M0 0H1802.228V1803.082H0V0z"></path></symbol><symbol viewBox="0 0 1799.993 1803.0819999999999" id="hi-paint-bucket-fill"><path d="M1573.992 1073.041l-701 701a99.582 99.582 0 0 1 -141 0l-702 -701a99.582 99.582 0 0 1 0 -141l631 -632 -129 -129a100.8 100.8 0 0 1 0 -142 99.582 99.582 0 0 1 141 0l271 271 630 632A97.832 97.832 0 0 1 1573.992 1073.041Zm168.083 268.777 -139.357 -139.364 -140.549 139.364a197.494 197.494 0 0 0 -57.17 139.356 195.483 195.483 0 0 0 57.17 139.357 196.981 196.981 0 0 0 279.906 0 195.491 195.491 0 0 0 57.178 -139.357A197.5 197.5 0 0 0 1742.075 1341.818Z"></path><path width="17.99993" fill="none" d="M0 0H1799.993V1803.082H0V0z"></path></symbol><symbol viewBox="0 0 1803.0819999999999 1803.0819999999999" id="hi-paint-bucket-line"><path d="M1573.337 931.72 942.7 300.2 942.9 300 801.48 158.575l-0.1 0.1L672.189 29.291A100 100 0 0 0 530.765 170.709L660.049 300.177 29.288 931.72a100 100 0 0 0 0 141.418l701.477 700.653a100 100 0 0 0 141.424 0l701.148 -700.653A100 100 0 0 0 1573.337 931.72Zm-212.11 70.636L801.462 1561.725l-560.04 -559.381L801.37 441.7Zm436.327 479.1a195.15 195.15 0 0 1 -57 139 197.956 197.956 0 0 1 -280 0 195.153 195.153 0 0 1 -57 -139 199.145 199.145 0 0 1 57 -140l141 -139 139 139A199.141 199.141 0 0 1 1797.554 1481.46Z"></path><path width="18.03082" fill="none" d="M0 0H1803.082V1803.082H0V0z"></path></symbol><symbol viewBox="0 0 1799.993 1803.504" id="hi-paint-bucket-mid"><path d="M1797.554 1481.253a195.758 195.758 0 0 1 -57 140 197.956 197.956 0 0 1 -280 0 199.2 199.2 0 0 1 0 -279l141 -139 139 139A196.846 196.846 0 0 1 1797.554 1481.253Zm-224 -408 -701 701a100.8 100.8 0 0 1 -142 0l-700.995 -701a99.579 99.579 0 0 1 0 -141l631 -632 -130 -129a100.41 100.41 0 0 1 142 -142l129 130 141 141 631 632A99.592 99.592 0 0 1 1573.555 1073.251Zm-212 -70 -560 -561 -560 561Z"></path><path width="17.99993" fill="none" d="M0 0H1799.993V1803.504H0V0z"></path></symbol><symbol viewBox="0 0 1799.993 1803.0819999999999" id="hi-path-fill"><path d="M1800 101.04v401a99.443 99.443 0 0 1 -99 100h-360c-2 0.995 -2 4 -4 6l-730 730c-2 2 -5 2 -7 4v360a98.589 98.589 0 0 1 -99 99H100a99.442 99.442 0 0 1 -100 -99v-401a100.3 100.3 0 0 1 100 -100H460c2 -1 2 -4 4 -6l730 -730c2 -2 4 -2 6 -4v-360a99.443 99.443 0 0 1 100 -99h401A98.589 98.589 0 0 1 1800 101.04Z"></path><path width="17.99993" fill="none" d="M0 0H1799.993V1803.082H0V0z"></path></symbol><symbol viewBox="0 0 1799.993 1803.166" id="hi-path-line"><path d="M1700.439 1.589H1299.548a99.552 99.552 0 0 0 -99.554 99.554V461.19c-1.966 1.678 -4.438 2.319 -6.3 4.181L463.781 1195.284c-1.861 1.862 -2.5 4.333 -4.181 6.3H99.554A99.557 99.557 0 0 0 0 1301.137v400.885a99.553 99.553 0 0 0 99.554 99.555H500.439A99.555 99.555 0 0 0 600 1702.022V1341.976c1.959 -1.679 4.437 -2.326 6.292 -4.181l729.92 -729.913c1.861 -1.862 2.5 -4.334 4.181 -6.3h360.046a99.557 99.557 0 0 0 99.555 -99.555V101.143A99.553 99.553 0 0 0 1700.439 1.589ZM400 1401.583v200.885H200V1401.583Zm1199.994 -1200V402.474h-200V201.583Z"></path><path width="17.99994" fill="none" d="M0 0H1799.994V1803.166H0V0z"></path></symbol><symbol viewBox="0 0 1799.993 1803.0819999999999" id="hi-path-mid"><path d="M1701 1.541H1300a100.3 100.3 0 0 0 -100 100v360a20.966 20.966 0 0 0 -6 4l-730 730c-2 2 -2 4 -4 6H100a100.3 100.3 0 0 0 -100 100v400a100.291 100.291 0 0 0 100 100H501a99.439 99.439 0 0 0 99 -100v-360a25.2 25.2 0 0 0 7 -4l730 -730c2 -2 2 -4 4 -6h360a99.439 99.439 0 0 0 99 -100v-400A99.443 99.443 0 0 0 1701 1.541ZM1600 402.542H1400v-201h200Z"></path><path width="17.99993" fill="none" d="M0 0H1799.993V1803.082H0V0z"></path></symbol><symbol viewBox="0 0 1799.993 1803.0819999999999" id="hi-pencil-fill"><path d="M1770.848 531.113 1554.77 747.191a49.386 49.386 0 0 1 -69.845 0L1054.77 317.037a49.389 49.389 0 0 1 0 -69.846L1270.75 31.211a99.844 99.844 0 0 1 141.1 -0.1l358.9 357.9A100.674 100.674 0 0 1 1770.848 531.113ZM877.959 423 29.048 1271.913a99.7 99.7 0 0 0 -29.2 70.5v359a99.7 99.7 0 0 0 99.7 99.7H458.581a99.7 99.7 0 0 0 70.46 -29.163l849.811 -848.88a49.388 49.388 0 0 0 -0.016 -69.9L947.769 422.967A49.387 49.387 0 0 0 877.959 423Z"></path><path width="17.99993" fill="none" d="M0 0H1799.993V1803.082H0V0z"></path></symbol><symbol viewBox="0 0 1803.0819999999999 1803.0819999999999" id="hi-pencil-line"><path d="M1772.248 389.41 1413.672 30.834a100 100 0 0 0 -141.424 0l-70.71 70.71L30.746 1272.336a99.7 99.7 0 0 0 -29.2 70.5v359a99.7 99.7 0 0 0 99.7 99.7h359a99.7 99.7 0 0 0 70.5 -29.2L1701.538 601.544l70.71 -70.71A100 100 0 0 0 1772.248 389.41Zm-1570.7 994.964 837.4 -837.4L1256.1 764.141l-837.4 837.4H201.544ZM1397.522 622.717 1180.359 405.56l162.6 -162.6L1560.12 460.119Z"></path><path width="18.03082" fill="none" d="M0 0H1803.082V1803.082H0V0z"></path></symbol><symbol viewBox="0 0 1799.993 1803.504" id="hi-pencil-mid"><path d="M1770.9 389.849l-359 -359a99.705 99.705 0 0 0 -141 0L29.1 1272.653a99.7 99.7 0 0 0 -29.2 70.5v359a99.7 99.7 0 0 0 99.7 99.7h359a99.7 99.7 0 0 0 70.5 -29.2l1241.8 -1241.8A99.7 99.7 0 0 0 1770.9 389.849ZM416.9 1601.854h-217v-217l837.006 -838 217 217Z"></path><path width="17.99993" fill="none" d="M0 0H1799.993V1803.504H0V0z"></path></symbol><symbol viewBox="0 0 1799.993 1802.31" id="hi-redo-line"><path d="M599.449 465.942a580.321 580.321 0 0 1 200 -35h459.674l-87.866 -87.866a100 100 0 1 1 141.424 -141.425l258.576 258.582a100 100 0 0 1 0 141.418l-67.694 67.694L1312.681 860.229a100 100 0 1 1 -141.424 -141.418l87.866 -87.866H799.449a399.96 399.96 0 0 0 -398.517 434.887 412.831 412.831 0 0 0 418.054 364.112h580.829a100 100 0 0 1 100 99.994v0.006a100.005 100.005 0 0 1 -100 100H799.449a599.015 599.015 0 0 1 -200 -1164Z"></path><path width="17.99993" fill="none" d="M0 0H1799.993V1802.31H0V0z"></path></symbol><symbol viewBox="0 0 1799.993 1803.0819999999999" id="hi-spray-fill"><g><path d="M1199.789 846.05v851.991a99.072 99.072 0 0 1 -29 70 96.547 96.547 0 0 1 -71 30h-1000a100.294 100.294 0 0 1 -100 -100v-851a98.938 98.938 0 0 1 28.687 -69.667L135.3 669.653a49.39 49.39 0 0 1 35.068 -14.612h858.965a49.388 49.388 0 0 1 34.922 14.466l106.537 106.537A99 99 0 0 1 1199.789 846.05Z"></path><path d="M1199.789 405.041a99.65 99.65 0 0 1 -100 100H249.177a49.388 49.388 0 0 1 -49.388 -49.388V105.041a100.294 100.294 0 0 1 100 -100h600a99.651 99.651 0 0 1 100 100v200h100A99.651 99.651 0 0 1 1199.789 405.041Z"></path><path d="M1500.21 405.292A100 100 0 0 1 1400.21 505.292A100 100 0 0 1 1300.21 405.292A100 100 0 0 1 1500.21 405.292z"></path><path d="M1800.204 210.29A100 100 0 0 1 1700.204 310.29A100 100 0 0 1 1600.204 210.29A100 100 0 0 1 1800.204 210.29z"></path><path d="M1800.204 605.292A100 100 0 0 1 1700.204 705.292A100 100 0 0 1 1600.204 605.292A100 100 0 0 1 1800.204 605.292z"></path></g><path width="17.99993" fill="none" d="M0 0H1799.993V1803.082H0V0z"></path></symbol><symbol viewBox="0 0 1803.0819999999999 1803.0819999999999" id="hi-spray-line"><g><path d="M1101.544 505.292a100 100 0 0 0 0 -200h-100v-200a100 100 0 0 0 -100 -100h-600a100 100 0 0 0 -100 100v500h0L30.841 776A100 100 0 0 0 1.55 846.71v758.575H1.544v92.505a100 100 0 0 0 100 100h1000a100 100 0 0 0 100 -100V846.71A100 100 0 0 0 1172.253 776L1001.544 605.292v-100Zm-300 -305V488.055h-400V200.293Zm-600 687.823 200 -200.061h400V687.976l200 200.122v217.194h-800Zm0 717.169v-300h800v300Z"></path><path d="M1501.544 405.292A100 100 0 0 1 1401.544 505.292A100 100 0 0 1 1301.544 405.292A100 100 0 0 1 1501.544 405.292z"></path><path d="M1801.538 210.29A100 100 0 0 1 1701.538 310.29A100 100 0 0 1 1601.538 210.29A100 100 0 0 1 1801.538 210.29z"></path><path d="M1801.538 605.292A100 100 0 0 1 1701.538 705.292A100 100 0 0 1 1601.538 605.292A100 100 0 0 1 1801.538 605.292z"></path></g><path width="18.03082" fill="none" d="M0 0H1803.082V1803.082H0V0z"></path></symbol><symbol viewBox="0 0 1799.993 1803.504" id="hi-spray-mid"><g><path d="M999.789 605.753v-100h100a100 100 0 0 0 0 -200h-100v-200a99.025 99.025 0 0 0 -100 -100h-600a99.654 99.654 0 0 0 -100 100v500l-169.995 170a101.688 101.688 0 0 0 -30 71v851a100.3 100.3 0 0 0 100 100h1000a99.022 99.022 0 0 0 100 -100v-851a100.666 100.666 0 0 0 -29 -71Zm-600 -405h400v287h-400Zm600 905h-800v-218l200 -200h400l200 200Z"></path><path d="M1500.21 405.379A100 100 0 0 1 1400.21 505.379A100 100 0 0 1 1300.21 405.379A100 100 0 0 1 1500.21 405.379z"></path><path d="M1800.204 210.378A100 100 0 0 1 1700.204 310.378A100 100 0 0 1 1600.204 210.378A100 100 0 0 1 1800.204 210.378z"></path><path d="M1800.204 605.379A100 100 0 0 1 1700.204 705.379A100 100 0 0 1 1600.204 605.379A100 100 0 0 1 1800.204 605.379z"></path></g><path width="17.99993" fill="none" d="M0 0H1799.993V1803.504H0V0z"></path></symbol><symbol viewBox="0 0 1799.993 1803.0819999999999" id="hi-square-fill"><path d="M1800 100.543v1602a100.292 100.292 0 0 1 -100 100H100a99.65 99.65 0 0 1 -100 -100v-1602a99.029 99.029 0 0 1 100 -100H1700A99.655 99.655 0 0 1 1800 100.543Z"></path><path width="17.99993" fill="none" d="M0 0H1799.993V1803.082H0V0z"></path></symbol><symbol viewBox="0 0 1799.993 1803.0819999999999" id="hi-square-line"><path d="M0 100.623v1602a100 100 0 0 0 100 100H1700a100 100 0 0 0 100 -100v-1602a100 100 0 0 0 -100 -100H100A100 100 0 0 0 0 100.623Zm1600 1502H200v-1400H1600Z"></path><path width="17.99993" fill="none" d="M0 0H1799.993V1803.082H0V0z"></path></symbol><symbol viewBox="0 0 1799.993 1803.0819999999999" id="hi-square-mid"><path d="M1700 0.54H100a99.654 99.654 0 0 0 -100 100v1602a99.654 99.654 0 0 0 100 100H1700a100.3 100.3 0 0 0 100 -100V100.54A100.3 100.3 0 0 0 1700 0.54Zm-1500 1602v-1400H1600Z"></path><path width="17.99997" fill="none" d="M0 0H1799.997V1803.082H0V0z"></path></symbol><symbol viewBox="0 0 1799.993 1803.0819999999999" id="hi-square-small-fill"><path d="M1600 300.54v1202a99.655 99.655 0 0 1 -100 100H300a100.3 100.3 0 0 1 -100 -100V300.54a100.3 100.3 0 0 1 100 -100H1500A99.655 99.655 0 0 1 1600 300.54Z"></path><path width="17.99993" fill="none" d="M0 0H1799.993V1803.082H0V0z"></path></symbol><symbol viewBox="0 0 1799.993 1799.904" id="hi-square-small-line"><path d="M200 298.953v1202a100 100 0 0 0 100 100h1200a100 100 0 0 0 100 -100v-1202a100 100 0 0 0 -100 -100H300A100 100 0 0 0 200 298.953Zm1200 1102H400v-1000h1000Z"></path><path width="17.99993" fill="none" d="M0 0H1799.993V1799.993H0V0z"></path></symbol><symbol viewBox="0 0 1799.993 1803.0819999999999" id="hi-square-small-mid"><path d="M1500 200.54H300a100.3 100.3 0 0 0 -100 100v1202a99.654 99.654 0 0 0 100 100H1500a99.029 99.029 0 0 0 100 -100V300.54A99.655 99.655 0 0 0 1500 200.54Zm-1100 202H1400l-1000 1000Z"></path><path width="17.99993" fill="none" d="M0 0H1799.993V1803.082H0V0z"></path></symbol><symbol viewBox="0 0 1799.993 1803.0819999999999" id="hi-trash-fill"><path d="M1700 402.542H1400v-301a100.3 100.3 0 0 0 -100 -100l-700 -1H500a100.3 100.3 0 0 0 -100 100v302H100a100 100 0 0 0 0 200H1700a100 100 0 0 0 0 -200Zm-500 0H600v-200h600Zm-1000 1300a100.294 100.294 0 0 0 100 100H1500a100.294 100.294 0 0 0 100 -100V802.475a49.933 49.933 0 0 0 -49.933 -49.933H249.929A49.932 49.932 0 0 0 200 802.475Zm800 -660.1a100 100 0 0 1 200 0v400a100 100 0 0 1 -200 0Zm-400 0a100 100 0 0 1 200 0v400a100 100 0 1 1 -200 0Z"></path><path width="17.99993" fill="none" d="M0 0H1799.993V1803.082H0V0z"></path></symbol><symbol viewBox="0 0 1799.993 1803.0819999999999" id="hi-trash-line"><g><path d="M600 0.839H500a100 100 0 0 0 -100 100V402.383H100a100 100 0 0 0 -100 100H0a100 100 0 0 0 100 100H200V1702.377a100 100 0 0 0 100 100H1500a100 100 0 0 0 100 -100V602.383h99.994a100 100 0 0 0 100 -100h0a100 100 0 0 0 -100 -100H1400V102.2a100 100 0 0 0 -99.807 -100ZM600 202.383h600v200H600Zm800 1400H400v-1000H1400Z"></path><path width="2" d="M699.997 802.383H699.997A100 100 0 0 1 799.997 902.383V1302.383A100 100 0 0 1 699.997 1402.383H699.997A100 100 0 0 1 599.997 1302.383V902.383A100 100 0 0 1 699.997 802.383z"></path><path width="2" d="M1099.997 802.383H1099.997A100 100 0 0 1 1199.997 902.383V1302.383A100 100 0 0 1 1099.997 1402.383H1099.997A100 100 0 0 1 999.997 1302.383V902.383A100 100 0 0 1 1099.997 802.383z"></path></g><path width="17.9999" fill="none" d="M0 0H1799.99V1803.082H0V0z"></path></symbol><symbol viewBox="0 0 1799.993 1802.31" id="hi-undo-line"><path d="M1200.544 465.942a580.317 580.317 0 0 0 -200 -35H540.87l87.866 -87.866A100 100 0 0 0 487.312 201.654L228.736 460.236a100 100 0 0 0 0 141.418l67.695 67.694L487.312 860.229A100 100 0 0 0 628.736 718.811L540.87 630.945h459.674a399.96 399.96 0 0 1 398.517 434.887 412.83 412.83 0 0 1 -418.054 364.112H400.178a100 100 0 0 0 -100 99.994v0.006a100.006 100.006 0 0 0 100 100h600.366a599.015 599.015 0 0 0 200 -1164Z"></path><path width="17.99993" fill="none" d="M0 0H1799.993V1802.31H0V0z"></path></symbol></svg>