<svg xmlns="http://www.w3.org/2000/svg" width="450" height="450" viewBox="0 0 450 450">
  <path d="M400,75V75a25,25,0,0,1-25,25H75A25,25,0,0,1,50,75V75A25,25,0,0,1,75,50H375A25,25,0,0,1,400,75ZM179.58761,150H120.41239A20.41239,20.41239,0,0,0,100,170.41239V379.58761A20.41239,20.41239,0,0,0,120.41239,400h59.17522A20.41239,20.41239,0,0,0,200,379.58761V170.41239A20.41239,20.41239,0,0,0,179.58761,150Zm150,0H270.41239A20.41239,20.41239,0,0,0,250,170.41239V279.58761A20.41239,20.41239,0,0,0,270.41239,300h59.17522A20.41239,20.41239,0,0,0,350,279.58761V170.41239A20.41239,20.41239,0,0,0,329.58761,150Z"/>
</svg>
