<svg xmlns="http://www.w3.org/2000/svg" width="450" height="450" viewBox="0 0 450 450">
  <path d="M375,200H350V120.4126A20.41226,20.41226,0,0,0,329.58759,100H270.41241A20.41226,20.41226,0,0,0,250,120.4126V200H200V70.4126A20.41226,20.41226,0,0,0,179.58759,50H120.41241A20.41226,20.41226,0,0,0,100,70.4126V200H75a25,25,0,0,0,0,50h25V379.5874A20.41226,20.41226,0,0,0,120.41241,400h59.17518A20.41226,20.41226,0,0,0,200,379.5874V250h50v79.5874A20.41226,20.41226,0,0,0,270.41241,350h59.17518A20.41226,20.41226,0,0,0,350,329.5874V250h25a25,25,0,0,0,0-50Z"/>
</svg>
