<svg xmlns="http://www.w3.org/2000/svg" width="450" height="450" viewBox="0 0 450 450">
  <path d="M400,120.41016v59.17968A20.41284,20.41284,0,0,1,379.59009,200H250v50h79.59009A20.41284,20.41284,0,0,1,350,270.41016v59.17968A20.41284,20.41284,0,0,1,329.59009,350H250v25a25,25,0,0,1-50,0V350H120.40991A20.41284,20.41284,0,0,1,100,329.58984V270.41016A20.41284,20.41284,0,0,1,120.40991,250H200V200H70.40991A20.41284,20.41284,0,0,1,50,179.58984V120.41016A20.41284,20.41284,0,0,1,70.40991,100H200V75a25,25,0,0,1,50,0v25H379.59009A20.41284,20.41284,0,0,1,400,120.41016Z"/>
</svg>
