<svg xmlns="http://www.w3.org/2000/svg" width="450" height="450" viewBox="0 0 450 450">
  <path d="M352.35,178.37a131.8,131.8,0,1,0-254.7,0A131.82,131.82,0,1,0,225,398.91,131.815,131.815,0,1,0,352.35,178.37ZM196.31,355.97a81.79239,81.79239,0,1,1-75.76-131.29A80.31018,80.31018,0,0,1,131.8,223.9,81.72307,81.72307,0,0,1,196.31,255.45a130.37109,130.37109,0,0,0-5.47,16.18,132.458,132.458,0,0,0,5.47,84.34ZM225,212.51a131.432,131.432,0,0,0-75.8-37.47,81.79433,81.79433,0,1,1,87.06,50.28A133.12322,133.12322,0,0,0,225,212.51Zm93.2,175a81.79953,81.79953,0,0,1-75.81-112.55,131.30215,131.30215,0,0,0,87.06-50.28A81.80395,81.80395,0,0,1,318.2,387.51Z"/>
</svg>
