<svg xmlns="http://www.w3.org/2000/svg" width="450" height="450" viewBox="0 0 450 450">
  <path d="M399.94,229.25c.04-1.40991.06-2.83008.06-4.25a150.02658,150.02658,0,0,0-291.59-49.65c-2.77-.23-5.57995-.35-8.41-.35a100,100,0,0,0,0,200H375a75.01062,75.01062,0,0,0,24.94-145.75ZM374.41363,325H100.82c-27.41,0-50.35-21.72-50.81-49.13a50.00608,50.00608,0,0,1,97.01746-17.88848,25.30088,25.30088,0,0,0,20.51513,16.82583A24.96568,24.96568,0,0,0,194.31,241.66992,100.25331,100.25331,0,0,0,155.62,191.89,100.01051,100.01051,0,0,1,249.89,125c54.45-.06006,99.33,44.12,100.1,98.56006.03,1.91992,0,3.84-.09,5.74a99.96147,99.96147,0,0,1-1.5476,13.86487A27.03791,27.03791,0,0,0,375,275h0a25.01284,25.01284,0,0,1,24.99635,24.56845C400.23283,313.554,388.40113,325,374.41363,325Z" />
</svg>
