<svg xmlns="http://www.w3.org/2000/svg" width="450" height="450" viewBox="0 0 450 450">
  <g>
    <path d="M402.38211,305.33984,300.00222,178.25977l-.18994-.23975a23.234,23.234,0,0,0,.18994-3.02V50a25,25,0,0,0,0-50h-150a25,25,0,0,0,0,50V175a23.234,23.234,0,0,0,.19,3.02l-.19.23975L47.62234,305.33984A88.89292,88.89292,0,0,0,116.85232,450H333.15213a88.20951,88.20951,0,0,0,80.19043-50.52,88.26054,88.26054,0,0,0-10.96045-94.14014ZM200.00222,50h50V175h-50ZM171.06228,385.57959a50,50,0,1,1,50-50A50.05666,50.05666,0,0,1,171.06228,385.57959Zm75-94.93945a25,25,0,0,1-.00976-50h.00976a25,25,0,1,1,0,50Zm53.93994,91.92968a25,25,0,0,1-.00976-50h.00976a25,25,0,0,1,0,50Z"/>
    <path d="M150.19217,178.02l-.19.23975V175A23.234,23.234,0,0,0,150.19217,178.02Z"/>
    <path d="M300.00222,175v3.25977l-.18994-.23975A23.234,23.234,0,0,0,300.00222,175Z"/>
  </g>
</svg>
