<?xml version="1.0" encoding="UTF-8"?>
<svg id="a" data-name="Layer 1" xmlns="http://www.w3.org/2000/svg" width="450" height="450" viewBox="0 0 450 450">
  <rect x="200.00001" y="50.00001" width="50" height="350" rx="24.99997" ry="24.99997" transform="translate(450.00002 0) rotate(90)"/>
  <path d="M175.00001,349.99999h100c13.80712,0,25-11.19288,25-25h0c0-13.8071,11.19287-24.99997,24.99998-24.99997h.00005c13.8071,0,24.99997,11.19287,24.99997,24.99998h0c0,8.77002-1.50977,17.17993-4.27002,25-7.52979,21.31006-24.41992,38.19995-45.72998,45.72998-7.81982,2.76001-16.22998,4.27002-25,4.27002h-100c-8.77002,0-17.18018-1.51001-25-4.27002-21.31006-7.53003-38.2002-24.41992-45.72998-45.72998-2.76025-7.82007-4.27002-16.22998-4.27002-25h0c0-13.8071,11.19287-24.99997,24.99998-24.99997h.00005c13.8071,0,24.99997,11.19287,24.99997,24.99998h0c0,13.80712,11.19288,25,25,25Z"/>
  <path d="M325.00004,150.00001H124.99999c-13.8071,0-24.99998-11.19287-24.99998-24.99998v-.00002c0-8.77002,1.50977-17.17993,4.27002-25,7.52979-21.31006,24.41992-38.19995,45.72998-45.72998,7.81982-2.76001,16.22998-4.27002,25-4.27002h100c8.77002,0,17.18018,1.51001,25,4.27002,21.31006,7.53003,38.2002,24.41992,45.72998,45.72998,2.76025,7.82007,4.27002,16.22998,4.27002,25v.00002c0,13.8071-11.19287,24.99998-24.99998,24.99998Z"/>
</svg>