<svg xmlns="http://www.w3.org/2000/svg" width="450" height="450" viewBox="0 0 450 450">
  <path d="M225,0C100.74,0,0,100.74,0,225S100.74,450,225,450,450,349.26,450,225,349.26,0,225,0Zm0,400A175,175,0,1,1,400,225,174.99976,174.99976,0,0,1,225,400Zm29.45-64.72A29.451,29.451,0,1,1,225,305.83,29.35409,29.35409,0,0,1,254.45,335.28ZM325,159.52a75.12566,75.12566,0,0,1-66.14,75.24,10.03922,10.03922,0,0,0-8.86,9.99v15.53a25,25,0,1,1-50,0V234.01c0-27.51,22.49-48.73,50-48.73A25.018,25.018,0,0,0,274.99,159.72C274.7,146.26,262.86,135.28,249.4,135.28H200a24.99627,24.99627,0,0,0-25,25,25,25,0,1,1-50,0,75.01017,75.01017,0,0,1,75-75h49.04C290.33,85.28,324.59,118.24,325,159.52Z"/>
</svg>
