<svg xmlns="http://www.w3.org/2000/svg" width="450" height="450" viewBox="0 0 450 450">
  <path d="M225,0C100.74,0,0,100.74,0,225S100.74,450,225,450,450,349.26,450,225,349.26,0,225,0Zm0,400A175,175,0,1,1,400,225,174.99976,174.99976,0,0,1,225,400Zm12.5-50h-25A12.5,12.5,0,0,1,200,337.5v-125A12.5,12.5,0,0,1,212.5,200h25A12.5,12.5,0,0,1,250,212.5v125A12.5,12.5,0,0,1,237.5,350ZM225,154.44554H225A29.44551,29.44551,0,0,1,195.55446,125V125A29.44551,29.44551,0,0,1,225,95.55446H225A29.44551,29.44551,0,0,1,254.44554,125V125A29.44551,29.44551,0,0,1,225,154.44554Z"/>
</svg>
