<svg xmlns="http://www.w3.org/2000/svg" width="450" height="450" viewBox="0 0 450 450">
  <g>
    <rect x="150" y="350.01489" width="50" height="50" rx="12.5" />
    <rect x="250" y="350.01489" width="50" height="50" rx="12.5" />
    <rect x="350" y="350.01489" width="50" height="50" rx="12.5" />
    <rect x="50" y="50.01489" width="50" height="50" rx="12.5" />
    <path d="M300,175.01v100a24.99624,24.99624,0,0,1-25,25H175a24.99624,24.99624,0,0,1-25-25v-100a25.00264,25.00264,0,0,1,25-25H275A25.00264,25.00264,0,0,1,300,175.01Z" />
    <path d="M150,87.51v-25a12.50453,12.50453,0,0,1,12.5-12.5h25A12.50453,12.50453,0,0,1,200,62.51v25a12.49828,12.49828,0,0,1-12.5,12.5h-25A12.49828,12.49828,0,0,1,150,87.51Z" />
    <path d="M300,62.51v25a12.49828,12.49828,0,0,1-12.5,12.5h-25A12.49828,12.49828,0,0,1,250,87.51v-25a12.50453,12.50453,0,0,1,12.5-12.5h25A12.50453,12.50453,0,0,1,300,62.51Z" />
    <rect x="350" y="250.01489" width="50" height="50" rx="12.5" />
    <rect x="350" y="150.01489" width="50" height="50" rx="12.5" />
    <rect x="50" y="250.01489" width="50" height="50" rx="12.5" />
    <rect x="50" y="150.01489" width="50" height="50" rx="12.5" />
  </g>
</svg>
