<svg xmlns="http://www.w3.org/2000/svg" width="450" height="450" viewBox="0 0 450 450">
  <g>
    <path d="M425.00006,325H425a25,25,0,0,0-25,25v50H350a25,25,0,0,0,0,50h75.00006A24.97547,24.97547,0,0,0,450,425V350A25,25,0,0,0,425.00006,325Z" />
    <path d="M100.00006,400h-50V350a25,25,0,0,0-25-25H25A25,25,0,0,0,.00006,350v75A24.97547,24.97547,0,0,0,25,450h75.00006a25,25,0,0,0,0-50Z" />
    <path d="M425.00006,0H350a25,25,0,0,0-25,25h0a25,25,0,0,0,25,25h50v50a25,25,0,0,0,25,25h.00006A25,25,0,0,0,450,100V25h0A25,25,0,0,0,425.00006,0Z" />
    <path d="M100.00006,0H25A25,25,0,0,0,.00006,25h0v75A25,25,0,0,0,25,125h.00006a25,25,0,0,0,25-25V50h50A25,25,0,0,0,125,25h0A25,25,0,0,0,100.00006,0Z" />
    <path d="M25,175h.00006a25,25,0,0,1,25,25v50a25,25,0,0,1-25,25H25A24.99994,24.99994,0,0,1,.00006,250.00006V199.99994A24.99994,24.99994,0,0,1,25,175Z" />
    <path d="M250.00006,0H200a25,25,0,0,0-25,25h0a25,25,0,0,0,25,25h50.00006A25,25,0,0,0,275,25h0A25,25,0,0,0,250.00006,0Z" />
    <path d="M250.00006,400H200a25,25,0,0,0-25,25h0a25,25,0,0,0,25,25h50.00006A25,25,0,0,0,275,425h0A25,25,0,0,0,250.00006,400Z" />
    <path d="M424.99994,175H425a25,25,0,0,1,25,25v50a25,25,0,0,1-25,25h-.00006A24.99994,24.99994,0,0,1,400,250.00006V199.99994A24.99994,24.99994,0,0,1,424.99994,175Z" />
  </g>
</svg>
