<svg xmlns="http://www.w3.org/2000/svg" width="450" height="450" viewBox="0 0 450 450">
  <g>
    <path d="M125,50h75V164.64453l-28.0332-28.03271a24.99975,24.99975,0,0,0-35.355,35.355l70.71045,70.71093a25,25,0,0,0,35.35546,0l70.71045-70.71093a24.99975,24.99975,0,0,0-35.355-35.355L250,164.64453V50h75a25,25,0,0,0,25-25h0A25,25,0,0,0,325,0H125a25,25,0,0,0-25,25h0A25,25,0,0,0,125,50Z"/>
    <path d="M375,400H75a25,25,0,0,0,0,50H375a25,25,0,0,0,0-50Z"/>
    <path d="M425,250a25,25,0,0,0-25,25v25H50V275a25,25,0,0,0-50,0v50a25,25,0,0,0,25,25H425a25,25,0,0,0,25-25V275A25,25,0,0,0,425,250Z"/>
  </g>
</svg>
