<svg xmlns="http://www.w3.org/2000/svg" width="450" height="450" viewBox="0 0 450 450">
  <path d="M449.97,113.49a25.05534,25.05534,0,0,0-1.17993-6.51c-.12012-.37012-.25-.74-.39-1.1001-.16-.43994-.34-.87988-.52-1.30981a27.82325,27.82325,0,0,0-1.49-2.86011,25.491,25.491,0,0,0-3.71008-4.73h-.01L353.04,7.34009h-.01a24.98117,24.98117,0,0,0-35.3501,0L7.32007,317.68994A24.99983,24.99983,0,0,0,0,335.37012V425.01a24.99624,24.99624,0,0,0,25,25h89.64a24.98312,24.98312,0,0,0,17.68006-7.32007L362.5,212.52v-.01l80.17993-80.16992A24.90229,24.90229,0,0,0,450,114.66992C450,114.28,449.99,113.87988,449.97,113.49ZM104.28,400.01H50V345.73L255.17993,140.55005l54.28,54.28Z" />
</svg>
