<?xml version="1.0" encoding="UTF-8"?>
<svg id="a" data-name="Layer 1" xmlns="http://www.w3.org/2000/svg" width="450" height="450" viewBox="0 0 450 450">
  <path d="M24.99927,450.00001c-4.61621,0-9.24316-1.27539-13.32715-3.84961-8.76855-5.52637-13.21777-15.89014-11.18555-26.05322L50.48657,170.09717c1.20605-6.03174,4.59375-11.40674,9.51465-15.09717L260.00122,5.00001c5.93066-4.44775,13.52441-6.03418,20.74414-4.33105,7.21484,1.70312,13.30176,6.52051,16.61621,13.15088l150,300c4.36621,8.73242,3.25,19.20752-2.85938,26.82324-6.11035,7.61572-16.09277,10.97998-25.56445,8.61035l-188.45605-47.11377L40.00122,445.00001c-4.42969,3.32178-9.70898,5-15.00195,5ZM97.64282,189.26905l-35.29395,176.4707,147.65234-110.73975c6.02246-4.51709,13.75977-6.08008,21.06348-4.25342l147.26758,36.81689L266.03735,62.97315,97.64282,189.26905Z"/>
</svg>