<?xml version="1.0" encoding="UTF-8"?>
<svg id="b" data-name="Logo" xmlns="http://www.w3.org/2000/svg" width="450" height="452" viewBox="0 0 450 452">
  <path d="M447.36157,313.81983L297.36157,13.81983c-3.31445-6.63037-9.40137-11.44775-16.61621-13.15088-7.21973-1.70312-14.81348-.1167-20.74414,4.33105L60.00122,155.00001c-4.9209,3.69043-8.30859,9.06543-9.51465,15.09717L.48657,420.09717c-2.03223,10.16309,2.41699,20.52686,11.18555,26.05322,4.08398,2.57422,8.71094,3.84961,13.32715,3.84961,5.29297,0,10.57227-1.67822,15.00195-5l190.48047-142.86035,188.45605,47.11377c9.47168,2.36963,19.4541-.99463,25.56445-8.61035,6.10938-7.61572,7.22559-18.09082,2.85938-26.82324Z"/>
</svg>