<svg xmlns="http://www.w3.org/2000/svg" width="450" height="450" viewBox="0 0 450 450">
  <path d="M287.50006,175H62.5a25,25,0,0,0-25,25V425a25,25,0,0,0,25,25H287.50006A25,25,0,0,0,312.5,425V200A25,25,0,0,0,287.50006,175ZM262.5,400H87.5V225h175ZM147.85529,125c-22.27259,0-33.42676-26.92871-17.67768-42.67773l74.99475-75a24.99979,24.99979,0,0,1,35.35529,0h.00006a25.00023,25.00023,0,0,1,0,35.35546L208.2077,75H287.5a125.13534,125.13534,0,0,1,125,125V325a25,25,0,0,1-24.99994,25H387.5a25,25,0,0,1-25-25V200a75.08519,75.08519,0,0,0-75-75Z"/>
</svg>
