<svg xmlns="http://www.w3.org/2000/svg" width="450" height="450" viewBox="0 0 450 450">
  <path d="M357.04456,242.75031A92.52394,92.52394,0,0,0,311.407,254.71277l-51.05157-51.05158L400,64.01666a25.00009,25.00009,0,1,0-35.35547-35.35547L225,168.30573,85.35547,28.66119a25,25,0,0,0-35.35541,0H50a25.00014,25.00014,0,0,0,0,35.35547L189.64453,203.66119,138.593,254.71277a92.92677,92.92677,0,1,0,35.35547,35.35547L225,239.01666l51.05157,51.05158a92.963,92.963,0,1,0,80.993-47.31793ZM92.95544,378.66119a42.95544,42.95544,0,1,1,42.95545-42.95544A43.00406,43.00406,0,0,1,92.95544,378.66119Zm264.08912,0A42.95544,42.95544,0,1,1,400,335.70575,43.00407,43.00407,0,0,1,357.04456,378.66119Z"/>
</svg>
