<svg xmlns="http://www.w3.org/2000/svg" width="450" height="450" viewBox="0 0 450 450">
  <path d="M255.78564,50l10.56145,42.88569a25,25,0,0,0,11.77467,15.67247l21.1587,12.216a25,25,0,0,0,19.46025,2.361l42.42077-12.29652,30.78581,53.32253-31.85947,30.58927a25,25,0,0,0-7.68547,18.03358l.00009,24.432a25,25,0,0,0,7.68544,18.03337l31.85949,30.58937-30.78574,53.32244-42.42081-12.29642a24.99994,24.99994,0,0,0-19.46017,2.36094l-21.15882,12.216a25,25,0,0,0-11.77472,15.67257l-10.56128,42.88558L194.21432,400l-10.56145-42.88574a25,25,0,0,0-11.77467-15.67248l-21.15868-12.216a25,25,0,0,0-19.46026-2.361L88.83843,339.16133,58.05265,285.83881l31.85952-30.58927a25,25,0,0,0,7.68548-18.0335V212.784a25,25,0,0,0-7.68553-18.03354L58.05265,164.16138,88.8382,110.83883l42.421,12.29637a24.99994,24.99994,0,0,0,19.46011-2.361l21.15885-12.21607a25,25,0,0,0,11.77473-15.67257L194.21415,50h61.57149m0-50H194.214a49.99981,49.99981,0,0,0-48.54927,38.04365l0,.00017L137.651,70.58435l-1.35222.78064-1.35244.78088-32.18772-9.3302-.0001,0A49.99982,49.99982,0,0,0,45.537,85.83883l0,0L30.14415,112.50012,14.75132,139.16138l-.00016.00026a49.99983,49.99983,0,0,0,8.67224,61.06664l.00025.00024,24.174,23.21008v3.123l-24.174,23.2102-.0001.0001a49.99981,49.99981,0,0,0-8.6723,61.06674l.00007.00012,15.393,26.66137,15.39283,26.66114.00016.00027a49.99982,49.99982,0,0,0,57.22136,23.023l.00031-.00009,32.18759-9.33026,1.35224.78076,1.3523.78076,8.01371,32.54041,0,.00017A49.99981,49.99981,0,0,0,194.21413,450H255.786a49.99981,49.99981,0,0,0,48.54927-38.04367l0-.00015,8.01361-32.54041,2.70473-1.56158,32.18767,9.33014.00013,0A49.99983,49.99983,0,0,0,404.463,364.16123l0,0,15.39282-26.66137,15.39282-26.66114.00017-.00029a49.99982,49.99982,0,0,0-8.6721-61.06657l-.00022-.00021-24.17407-23.21033,0-3.12305,24.17392-23.21008.00012-.00011a49.99983,49.99983,0,0,0,8.67231-61.06673l-.0001-.00018-15.393-26.66125L404.46281,85.83862l-.00011-.0002a49.99981,49.99981,0,0,0-57.22142-23.023l-.0003.00008-32.18758,9.3302-1.35225-.78076-1.35229-.78076-8.01372-32.54041-4.6845-19.02194A25,25,0,0,0,275.37594,0ZM225,200a25,25,0,1,1-25,25,25,25,0,0,1,25-25m0-50a75,75,0,1,0,75,75,75.085,75.085,0,0,0-75-75Z" />
</svg>
