<svg xmlns="http://www.w3.org/2000/svg" width="450" height="450" viewBox="0 0 450 450">
  <g>
    <path d="M275,125a25,25,0,0,0,0-50H250V25A25,25,0,0,0,225,0H75A25,25,0,0,0,50,25V150L7.32233,192.67767A24.99995,24.99995,0,0,0,0,210.35535V425a25,25,0,0,0,25,25H275a25,25,0,0,0,25-25V210.35535a24.99995,24.99995,0,0,0-7.32233-17.67768L250,150V125ZM200,50v70.71H100V50ZM100,170.71H200l50,50.01V275H50V220.72ZM50,325H250v75H50Z" />
    <circle cx="350" cy="100" r="25" />
    <circle cx="425" cy="150" r="25" />
    <circle cx="425" cy="50" r="25" />
  </g>
</svg>
