<svg xmlns="http://www.w3.org/2000/svg" width="450" height="450" viewBox="0 0 450 450">
  <path d="M331.96777,414.60986a24.97731,24.97731,0,0,1-11.63086-2.87158L225,361.6167l-95.33691,50.12158a25.00061,25.00061,0,0,1-36.27442-26.35449l18.208-106.15869L34.46875,204.04248a24.99976,24.99976,0,0,1,13.85547-42.64209L154.91406,145.9126l47.668-96.58643a24.99917,24.99917,0,0,1,44.83594,0l47.668,96.58643,106.58984,15.48779a24.99976,24.99976,0,0,1,13.85547,42.64209L338.40332,279.2251l18.208,106.15869a25.00055,25.00055,0,0,1-24.64356,29.22607ZM225,308.37256a24.98808,24.98808,0,0,1,11.63379,2.87158l62.13379,32.66553-11.86719-69.18653a24.99913,24.99913,0,0,1,7.19043-22.12793l50.2666-48.99853-69.46777-10.09375a25.00094,25.00094,0,0,1-18.82422-13.67627L225,116.87939l-31.06543,62.94727a25.00094,25.00094,0,0,1-18.82422,13.67627l-69.46777,10.09375,50.2666,48.99853a24.99913,24.99913,0,0,1,7.19043,22.12793l-11.86719,69.18653,62.13379-32.66553A24.98808,24.98808,0,0,1,225,308.37256Z" />
</svg>
