<svg xmlns="http://www.w3.org/2000/svg" width="450" height="450" viewBox="0 0 450 450">
  <path d="M225,0a225.4362,225.4362,0,0,0-43.93,4.29A224.05245,224.05245,0,0,0,84.56,49.2a225.85243,225.85243,0,0,0-62.63,78.79A222.82289,222.82289,0,0,0,4.29,181.07007,225.43977,225.43977,0,0,0,0,225C0,349.26,100.74,450,225,450a225.44084,225.44084,0,0,0,43.93-4.29,224.05442,224.05442,0,0,0,96.51-44.91,225.85,225.85,0,0,0,62.63-78.79,222.82391,222.82391,0,0,0,17.64-53.08008A225.43976,225.43976,0,0,0,450,225C450,100.74,349.26,0,225,0ZM50.01,226.79,223.21,399.99A174.99236,174.99236,0,0,1,50.01,226.79Zm233.8,163.08L60.13,166.18994A174.82188,174.82188,0,0,1,84.84,120.2L329.8,365.16A174.81812,174.81812,0,0,1,283.81,389.87Zm81.35-60.07L120.2,84.84009A174.81655,174.81655,0,0,1,166.19,60.13L389.87,283.81A174.81812,174.81812,0,0,1,365.16,329.8ZM226.79,50.01a174.99232,174.99232,0,0,1,173.2,173.2Z"/>
</svg>
