<svg xmlns="http://www.w3.org/2000/svg" width="450" height="450" viewBox="0 0 450 450">
  <path d="M225,450c124.26,0,225-100.74,225-225S349.26,0,225,0,0,100.74,0,225,100.74,450,225,450Zm0-400A175,175,0,1,1,50,225,174.99976,174.99976,0,0,1,225,50Zm-12.5,50h25A12.5,12.5,0,0,1,250,112.5v125A12.5,12.5,0,0,1,237.5,250h-25A12.5,12.5,0,0,1,200,237.5v-125A12.5,12.5,0,0,1,212.5,100ZM225,295.55446H225A29.44551,29.44551,0,0,1,254.44554,325V325A29.44551,29.44551,0,0,1,225,354.44554H225A29.44551,29.44551,0,0,1,195.55446,325V325A29.44551,29.44551,0,0,1,225,295.55446Z"/>
</svg>
